<svg xmlns="http://www.w3.org/2000/svg"><defs><font id="latoregular" horiz-adv-x="1187"><font-face units-per-em="2048" ascent="1638" descent="-410"/><glyph horiz-adv-x="0"/><glyph horiz-adv-x="0"/><glyph horiz-adv-x="682"/><glyph horiz-adv-x="524"/><glyph horiz-adv-x="524"/><glyph horiz-adv-x="524"/><glyph unicode="!" horiz-adv-x="550" d="M145 113q0 27 10 50t27.5 40.5 40.5 28 50 10.5 50-10.5 40.5-28 27.5-41 10-49.5q0-28-10-51t-27.5-40.5-40.5-27-50-9.5q-28 0-50.5 9.5t-40 27T155 62t-10 51zm44 769v585h175V882q0-46-2.5-90t-5.5-89-7.5-91.5T338 512H215q-6 53-10.5 99.5T197 703t-5.5 89-2.5 90z"/><glyph unicode="&quot;" horiz-adv-x="758" d="M130 1170v297h159v-297l-17-158q-5-33-18.5-51T209 943q-28 0-42.5 18t-20.5 51zm341 0v297h159v-297l-17-158q-5-33-18.5-51T550 943q-28 0-42.5 18t-20.5 51z"/><glyph unicode="#" d="m60 509 9 58h209l66 334H106l14 76q5 30 24 44t58 14h162l73 367q6 31 28 48t53 17h82l-86-432h253l86 432h81q30 0 46.5-19.5T992 1399l-74-364h217l-14-77q-5-30-24-43.5t-58-13.5H898l-67-334h184q30 0 42.5-16.5t6.5-58.5l-9-59H812L726 0h-83q-13 0-24.5 6t-19 16.5T589 47t0 32l73 354H409L336 70q-6-38-29.5-54T253 0h-82l87 433H109q-29 0-42 17t-7 59zm368 58h253l67 334H495z"/><glyph unicode="$" d="m100 175 56 84q8 11 20 18.5t27 7.5q19 0 43.5-19.5t61-44 86-48T513 141l37 544q-72 22-141 48.5T285 804t-88 109.5-33 164.5q0 75 29 146t85.5 126.5 138.5 91 187 39.5l10 147q1 19 15 34.5t37 15.5h67l-13-201q106-13 184.5-55.5T1043 1319l-44-68q-20-31-47-30-14 0-35 12.5t-50 30-68.5 34T709 1322l-34-496q74-24 145.5-50t129-68 92.5-105 35-158q0-92-30.5-173T957 130 812.5 30.5 617-15l-12-180q-1-19-15.5-34T554-244h-68l16 231Q378-1 276 48.5T100 175zm236 922q0-49 17.5-85.5t48-64 71.5-48 89-37.5l32 462q-67-6-115.5-26.5t-80-51.5-47-69-15.5-80zm292-957q68 6 119 29.5t86 59 53 83T904 417q0 51-19 88t-51.5 64-76.5 46-94 35z"/><glyph unicode="%" horiz-adv-x="1641" d="M90 1113q0 88 24.5 156.5t68 116 103 72T414 1482q70 0 129-24.5t103-72 68.5-116T739 1113q0-86-26.5-154t-71-114.5-103.5-71T414 749q-69 0-128.5 24.5t-103 71-68 114.5T90 1113zM186 0l1072 1437q10 12 24 21t38 9h132L379 30q-9-13-23.5-21.5T321 0H186zm46 1113q0-67 14.5-113.5t39-75.5 57.5-42 71-13 71.5 13 58.5 42 39.5 75.5T598 1113q0 68-14.5 115t-39.5 77-58.5 43.5T414 1362t-71-13.5-57.5-43.5-39-77-14.5-115zm670-767q0 88 24.5 157t68 116.5 102.5 72 129 24.5q69 0 128.5-24.5t103-72T1526 503t25-157q0-86-26.5-153.5t-71-114-103.5-71T1226-17q-70 0-129 24.5t-102.5 71-68 114T902 346zm142 0q0-67 14-113t38.5-75 58-42 71.5-13 71.5 13 58.5 42 39.5 75 14.5 113q0 68-14.5 115.5t-39.5 77-58.5 43T1226 595t-71.5-13.5-58-43-38.5-77-14-115.5z"/><glyph unicode="&amp;" horiz-adv-x="1458" d="M90 391q0 72 24 136t67 118 101.5 97T411 816q-62 80-92 154t-30 154q0 75 27 140.5t78 114 124.5 77T683 1484q81 0 147.5-26t114.5-69 76.5-100 32.5-119l-114-22q-34-8-50 32-7 27-23 55.5t-41 52-60.5 38.5-82.5 15q-51 0-92.5-16t-71-45.5-44.5-69-15-85.5q0-36 8-68.5t26-66.5 45.5-68.5T606 848l422-429q39 70 62.5 145t30.5 150q2 19 12.5 30.5T1162 756h112q-1-118-37-231t-103-213L1441 0h-177q-30 0-48.5 7T1176 37l-149 149Q931 93 805.5 38.5T529-16q-82 0-160 27.5t-140.5 80T128 220 90 391zm186 15q0-67 25-117.5t65-85.5 91-53 104-18q115 0 206.5 42T928 287L495 723q-109-57-164-139t-55-178z"/><glyph unicode="'" horiz-adv-x="417" d="M130 1170v297h159v-297l-17-158q-5-33-18.5-51T209 943q-28 0-42.5 18t-20.5 51z"/><glyph unicode="(" horiz-adv-x="546" d="M92 644q0 124 15.5 243t48.5 235 87 231.5T374 1588l81-50q15-10 23-27t-8-48q-108-186-163.5-393T251 644t55.5-426T470-175q16-32 8-49t-23-27l-81-49Q297-182 243-66.5T156 166t-48.5 235T92 644z"/><glyph unicode=")" horiz-adv-x="546" d="M67-202.5Q69-190 77-175 185 11 240.5 218T296 644t-56 426-163 393q-8 15-10 27t1 21 9.5 15.5T92 1538l81 50q77-119 130.5-234.5t87-231.5 49-235T455 644q0-125-15.5-243t-49-235-87-232.5T173-300l-81 49q-8 5-14.5 12T68-223.5t-1 21z"/><glyph unicode="*" horiz-adv-x="870" d="m126 1341 45 77 177-102q18-11 32.5-23.5T407 1263q-16 36-17 76v203h90v-202q0-20-2.5-38t-10.5-34q11 14 24.5 25.5T522 1316l176 101 45-77-176-102q-17-11-34.5-17.5T496 1212q19-2 36.5-7.5T567 1188l177-104-45-76-177 102q-18 11-32.5 22.5T464 1161q16-34 16-75V884h-90v201q0 20 2.5 38t10.5 34q-11-14-24-25.5t-31-21.5l-176-101-45 76 176 103q39 24 78 24-20 2-39 8t-39 18z"/><glyph unicode="+" d="M103 618v139h416v437h149V757h417V618H668V178H519v440H103z"/><glyph unicode="," horiz-adv-x="464" d="M110 126q0 48 33 82t88 34q31 0 54.5-11.5T325 199t24-46 8-57q0-46-12.5-95.5t-37.5-98-61-95-82-85.5l-31 30q-8 7-11 13.5t-3 15.5q0 7 4.5 14t10.5 14q10 11 26 29.5t32.5 43.5T223-63t20 64q-3-1-7-1h-7q-53 0-86 35.5T110 126z"/><glyph unicode="-" horiz-adv-x="760" d="M128 537v154h506V537H128z"/><glyph unicode="." horiz-adv-x="483" d="M114 113q0 27 9.5 50t26.5 40.5 40.5 28T241 242t50-10.5 40.5-28 28-41T370 113q0-28-10.5-51t-28-40.5-41-27T241-15q-27 0-50.5 9.5t-40.5 27T123.5 62t-9.5 51z"/><glyph unicode="/" horiz-adv-x="925" d="m69-92 615 1533q12 33 37 50t58 17h78L245-22q-13-36-41.5-53T145-92H69z"/><glyph unicode="0" d="M61 733q0 193 41 334t113 234 168.5 138 209.5 45q112 0 209.5-45t169-138 113-234 41.5-334-41.5-333.5-113-232.5-169-137T593-15q-113 0-209.5 45T215 167 102 400 61 733zm189 0q0-168 28-281.5t75-183 109.5-100T593 138t130 30.5 110 100 76 183T937 733t-28 282-76 184-110.5 100-129.5 30q-68 0-130.5-30T353 1199t-75-184-28-282z"/><glyph unicode="1" d="m168 1093 437 377h149V139h288V0H256v139h314v1001q0 45 3 91l-261-224q-13-11-26.5-14t-24.5-1-21 8.5-15 13.5z"/><glyph unicode="2" d="M96 0v62q0 19 8.5 40t25.5 38l470 472q58 59 106.5 114t82 110.5 52 112.5 18.5 121q0 65-20.5 113.5t-55.5 80-83.5 47.5-103.5 16q-56 0-103.5-16.5T409 1265t-60.5-69-35.5-88q-12-36-33-47.5t-59-6.5l-95 16q14 100 55.5 177.5t104.5 130 144 79.5 175 27q93 0 174-28t140.5-80.5T1013 1247t34-172q0-82-25-152t-67-133.5-96.5-124T742 544L355 148q41 11 83 18t81 7h492q30 0 47-17.5t17-44.5V0H96z"/><glyph unicode="3" d="m88 367 79 32q31 13 60 7t42-33q13-29 33.5-69t55-77 88.5-62.5T583 139q77 0 134.5 25t96 65 58 89.5T891 416q0 59-15.5 108T818 609t-115 56.5T515 686v132q94 1 160 20.5T782.5 892t60.5 81 19 104q0 63-20 110.5t-54.5 78-82.5 46-103 15.5-102.5-16.5-84-45.5-61-69-35.5-88q-13-36-33-47.5t-58-6.5l-95 16q14 100 55 177.5t104 130 144.5 79.5 175.5 27q93 0 172-26.5t136-76 88.5-119T1040 1108q0-70-17.5-124.5t-51-95.5-80.5-69.5T785 771q143-37 215.5-126.5T1073 421q0-101-38.5-182t-105-138-155-87T585-16q-117 0-200 29T244.5 93t-94 121.5T88 367z"/><glyph unicode="4" d="m24 520 713 947h170V529h222V425q0-16-9.5-27.5T1090 386H907V0H748v386H96q-20 0-35 12t-19 29zm197 9h527v606q0 27 2 58.5t6 63.5z"/><glyph unicode="5" d="m115 138 56 78q18 27 48 27 20 0 46-16t63-35.5 86.5-35.5T532 140q77 0 138.5 24.5T776 235t67.5 109.5T867 486q0 69-20 124.5t-60.5 94-100.5 60T545 786q-55 0-115-9t-123-29l-114 33 117 686h696v-79q0-39-24.5-64.5T899 1298H438l-67-385q115 25 211 25 115 0 202.5-34T931 811t89.5-140 30.5-176q0-117-40.5-211.5T898.5 122 731 19.5 523-16q-65 0-124 12.5t-110.5 34-96 49.5-77.5 58z"/><glyph unicode="6" d="M111 484q0 96 42.5 205.5T289 923l373 500q14 18 39 31t58 13h162L485 918q-19-25-37-48t-34-46q52 36 114.5 55.5T665 899q89 0 167.5-29T970 785t94-137.5 35-185.5q0-101-37-188.5t-103-152-158.5-101T596-16q-111 0-201 35T242 119t-97 158-34 207zm175-31q0-71 20.5-129.5t60-100.5 96-65T592 135q74 0 133.5 23.5t102 65.5 65.5 99.5T916 449q0 72-22.5 129.5t-64 98-98.5 62T605 760q-74 0-133-25t-100.5-67.5T308 569t-22-116z"/><glyph unicode="7" d="M111 1343v124h996v-82q0-35-7.5-57t-15.5-38L476 65q-13-27-36.5-46T377 0H246l616 1210q13 26 27.5 47.5T921 1298H155q-17 0-30.5 14t-13.5 31z"/><glyph unicode="8" d="M99 401q0 142 74 233.5T384 765q-116 43-174.5 128.5T151 1098q0 81 31.5 151.5t90 122.5 140 82 181.5 30q99 0 181-30t140.5-82 90-122.5T1037 1098q0-119-58.5-204.5T804 765q137-39 211-130t74-234q0-96-36.5-173T951 96.5 794.5 13 594-16q-110 0-201 29T236.5 96.5 135 228 99 401zm189 3q0-61 21-111.5t60.5-87 96-56.5T594 129t128.5 20 96 56.5 60.5 87T900 404q0 76-25 130t-67.5 87.5-98 49.5T594 687t-115.5-16-98-49.5T313 534t-25-130zm41 691q0-50 14-97.5t46-83.5 82.5-58T594 834t122.5 22 82 58 46 83 14.5 98-17 96-50 79-82.5 53-115.5 19-115.5-19-83-53-50-79-16.5-96z"/><glyph unicode="9" d="M108 1023q0 96 35.5 180t100 146.5T397 1448t196 36q105 0 191-35t147.5-97.5 95-149.5 33.5-192q0-63-12-120t-34-112-53.5-109T889 559L531 43q-13-19-37.5-31T437 0H269l447 585q23 30 42 56.5t37 52.5q-56-45-127-68.5T518 602q-83 0-157 27.5T230.5 711 141 843.5 108 1023zm182 13q0-70 20-124.5t57-92.5 91-57.5T579 742q74 0 130.5 24.5t95.5 64 59.5 92T885 1031q0 69-22 124.5t-61 94.5-93 60-118 21q-68 0-123-22t-95-61-61.5-93-21.5-119z"/><glyph unicode=":" horiz-adv-x="512" d="M128 113q0 27 9.5 50t26.5 40.5 40.5 28T255 242t50-10.5 40.5-28 28-41T384 113q0-28-10.5-51t-28-40.5-41-27T255-15q-27 0-50.5 9.5t-40.5 27T137.5 62t-9.5 51zm0 768q0 27 9.5 50t26.5 40.5 40.5 28T255 1010t50-10.5 40.5-28 28-41T384 881q0-28-10.5-51t-28-40.5-41-27T255 753q-27 0-50.5 9.5t-40.5 27-26.5 40.5-9.5 51z"/><glyph unicode=";" horiz-adv-x="535" d="M140 881q0 27 9.5 50t26.5 40.5 40.5 28T267 1010t50-10.5 40.5-28 28-41T396 881q0-28-10.5-51t-28-40.5-41-27T267 753q-27 0-50.5 9.5t-40.5 27-26.5 40.5-9.5 51zm5-755q0 48 33 82t88 34q31 0 54.5-11.5T360 199t24-46 8-57q0-46-12.5-95.5t-37.5-98-61-95-82-85.5l-31 30q-8 7-11 13.5t-3 15.5q0 7 4.5 14t10.5 14q10 11 26 29.5t32.5 43.5T258-63t20 64q-3-1-7-1h-7q-53 0-86 35.5T145 126z"/><glyph unicode="&lt;" d="M166 651v76l791 411v-130q0-17-8-30t-28-24L461 721q-20-10-43.5-18.5T368 689q27-6 49.5-13.5T461 656l460-232q20-10 28-23.5t8-29.5V240z"/><glyph unicode="=" d="M154 450v138h880V450H154zm0 343v138h880V793H154z"/><glyph unicode="&gt;" d="M230 240v131q0 16 8.5 29.5T267 424l460 232q20 11 43.5 19t48.5 14q-52 11-92 32L267 954q-20 10-28.5 23t-8.5 31v130l792-411v-76z"/><glyph unicode="?" horiz-adv-x="916" d="M83 1336q32 30 70 56.5t84 47 98.5 32.5 114.5 12q81 0 150-23.5t119-66.5 78.5-104.5T826 1151q0-78-23-134t-58-98.5-76.5-74-78.5-59-63-55.5-30-61l-19-157H353l-12 170q-4 46 17.5 80.5T415 827t77 59 78 65 60.5 81.5T655 1142q0 44-17 79.5t-47 61-70.5 38.5-86.5 13q-62 0-106.5-15t-75.5-33.5-50-34-31-15.5q-26 0-40 24zM283 113q0 27 9.5 50t26.5 40.5 40.5 28T410 242t50-10.5 40.5-28 28-41T539 113q0-28-10.5-51t-28-40.5-41-27T410-15q-27 0-50.5 9.5t-40.5 27T292.5 62t-9.5 51z"/><glyph unicode="@" horiz-adv-x="1713" d="M106 582q0 112 28.5 215T214 989.5t123 164 160 127 189.5 82T899 1392q94 0 184.5-20.5T1254 1311t147-99 116.5-135.5 76.5-170 27-203.5q0-111-31-204t-86-162-130-108-161-39q-78 0-128.5 38.5T1020 346q-58-82-128-117.5T741 193q-60 0-105.5 20.5t-75.5 58-44.5 89T501 471q0 87 33 175.5t98.5 160 163 116.5 225.5 45q69 0 121-11t98-31l-96-370q-20-78-19.5-126.5t15.5-76 41.5-37.5 58.5-10q50 0 95 29t79.5 81 54.5 125 20 162q0 141-45 248t-124.5 178-187.5 106.5-233 35.5q-137 0-257-52.5T433 1074 292.5 856 241 582q0-174 54.5-306T445 55 668-79t274-45q156 0 275 34t206 86q20 12 36 7.5t23-22.5l26-68q-111-74-250.5-116T942-245q-178 0-330.5 56.5T346.5-26 170 233.5 106 582zm537-106q0-74 34-118.5T777 313q32 0 64 10.5t62.5 36 56 69.5 42.5 111l78 302q-40 9-88 9-77 0-141-32.5T741 734t-72-119.5T643 476z"/><glyph unicode="A" horiz-adv-x="1386" d="m6 0 587 1467h201L1380 0h-153q-27 0-43.5 13.5T1159 47l-137 354H364L226 47q-6-18-23.5-32.5T160 0H6zm413 545h548l-231 597q-10 27-21.5 62t-21.5 75q-22-83-44-138z"/><glyph unicode="B" horiz-adv-x="1324" d="M187 0v1467h468q135 0 233-26.5t161-75.5 92.5-120 29.5-161q0-54-16.5-103.5T1104 888t-85.5-77.5T897 755q162-31 243.5-115.5T1222 418q0-93-34.5-170T1087 115.5 924.5 30 706 0H187zm198 158h317q85 0 146.5 19.5t101 54.5 58 84 18.5 107q0 114-81 180t-243 66H385V158zm0 652h262q84 0 146 18.5t102.5 51 60 79.5 19.5 102q0 130-78 190t-242 60H385V810z"/><glyph unicode="C" horiz-adv-x="1368" d="M97 733q0 166 52.5 304.5t147 237.5T523 1429t292 55q157 0 276.5-50.5T1303 1297l-66-91q-6-10-16-16.5t-26-6.5q-18 0-45 20t-70 44.5-107.5 44.5-158.5 20q-114 0-208-39.5T444 1158 338 975.5 300 733q0-137 39.5-244.5t107.5-182 160.5-113T808 155q66 0 118.5 7.5t97 24 83 41.5 76.5 60q18 15 35 15 16 0 28-13l79-85q-90-104-218.5-162.5T796-16q-158 0-287 54.5T289 192 147.5 429 97 733z"/><glyph unicode="D" horiz-adv-x="1557" d="M187 0v1467h548q162 0 295.5-52.5t229-149.5 147.5-232 52-300-52-300-147.5-231.5-229-149T735 0H187zm199 161h349q119 0 215.5 39t164 112 104 179.5T1255 733t-36.5 241.5-104 180.5-164 113-215.5 39H386V161z"/><glyph unicode="E" horiz-adv-x="1182" d="M187 0v1467h905v-161H386V818h571V663H386V162h707l-1-162H187z"/><glyph unicode="F" horiz-adv-x="1158" d="M187 0v1467h905v-161H386V793h603V631H386V0H187z"/><glyph unicode="G" horiz-adv-x="1496" d="M96 733q0 168 53 306.5t150 237 236.5 153T847 1484q87 0 161.5-13t138-37 118-58.5T1366 1298l-56-90q-13-20-34.5-25.5t-46.5 9.5q-25 14-56.5 34.5t-77 39.5-107.5 32.5-147 13.5q-124 0-224.5-40.5t-171-116T337 973t-38-240q0-138 39.5-247T451 300.5 628.5 184 863 144q102 0 181.5 23t155.5 64v323H972q-19 0-31 11.5T929 593v113h450V142q-111-80-236-119T868-16q-177 0-319 54.5T306 192 150.5 429 96 733z"/><glyph unicode="H" horiz-adv-x="1563" d="M187 0v1467h199V813h792v654h198V0h-198v668H386V0H187z"/><glyph unicode="I" horiz-adv-x="573" d="M187 0v1467h199V0H187z"/><glyph unicode="J" horiz-adv-x="865" d="M25 12q2 30 5 59t5 58q2 17 12.5 28T81 168q18 0 48.5-9t81.5-9q68 0 121 20t89 63 55 110.5T495 503v964h198V507q0-123-30-220.5T574 122 429 19.5 231-16Q130-16 25 12z"/><glyph unicode="K" horiz-adv-x="1356" d="M187 0v1467h198V824h75q39 0 62.5 10t42.5 33l489 553q20 27 42.5 37t55.5 10h168L761 836q-20-25-39.5-41T681 769q28-9 50.5-27t43.5-47L1359 0h-172q-19 0-33 2.5t-24.5 8-18 13.5-14.5 18L591 625q-20 26-44 36.5T475 672h-90V0H187z"/><glyph unicode="L" horiz-adv-x="1051" d="M187 0v1467h198V167h635V0H187z"/><glyph unicode="M" horiz-adv-x="1901" d="M187 0v1467h147q27 0 41-5t27-28l507-904q12-25 24-51t22-54q10 28 21.5 55t24.5 51l498 903q12 24 27 28.5t42 4.5h146V0h-174v1078q0 22 1.5 46.5t3.5 50.5l-504-918q-24-46-71-46h-29q-48 0-72 46l-514 922q6-54 6-101V0H187z"/><glyph unicode="N" horiz-adv-x="1563" d="M187 0v1467h103q13 0 22.5-1.5t16.5-5 14-10 15-16.5l849-1105q-2 27-3.5 52t-1.5 47v1039h174V0h-99q-24 0-39.5 8T1206 36L357 1142q2-26 3-50.5t1-45.5V0H187z"/><glyph unicode="O" horiz-adv-x="1639" d="M96 733q0 165 52.5 303T296 1273.5t228 155 295 55.5 295.5-55.5 229-155T1491 1036t52-303-52-302.5-147.5-237-229-154T819-15 524 39.5t-228 154-147.5 237T96 733zm203 0q0-135 37-242t105-181 164-113.5T819 157q119 0 215 39.5T1198 310t104.5 181 36.5 242-36.5 242.5-104.5 182-164 114.5-215 40q-118 0-214-40t-164-114.5-105-182T299 733z"/><glyph unicode="P" horiz-adv-x="1229" d="M187 0v1467h434q139 0 242-32t170.5-91.5T1134 1200t33-187q0-102-35.5-187.5t-105-147-171-95.5T621 549H385V0H187zm198 707h236q85 0 150 22.5t109.5 63 67 96.5 22.5 124q0 140-86.5 219T621 1311H385V707z"/><glyph unicode="Q" horiz-adv-x="1639" d="M97 733q0 165 52.5 303T297 1273.5t228 155 295 55.5 295.5-55.5 229-155T1492 1036t52-303q0-103-21-196.5T1462 363t-97-145.5T1236 103l376-406h-164q-37 0-65.5 10t-52.5 36L1073 24Q956-15 820-15q-162 0-295 54.5t-228 154-147.5 237T97 733zm203 0q0-135 37-242t105-181 164-113.5T820 157q119 0 215.5 39.5t164 113.5 104 181 36.5 242-36.5 242.5-104 182-164 114.5-215.5 40q-118 0-214-40t-164-114.5-105-182T300 733z"/><glyph unicode="R" horiz-adv-x="1283" d="M187 0v1467h415q139 0 240.5-28t167.5-81 98-128.5 32-168.5q0-78-24.5-145.5T1044 794t-114-91.5T778 645q38-22 66-62L1272 0h-176q-54 0-80 42L635 566q-17 25-37 35.5T536 612H385V0H187zm198 757h209q86 0 152 21t110.5 59.5 67 91.5 22.5 118q0 131-86 197.5T602 1311H385V757z"/><glyph unicode="S" horiz-adv-x="1111" d="m68 175 57 94q8 11 20 19t26 8q13 0 30-11t38.5-27 49-35.5 63-36T432 159t102-11q71 0 126 19.5t93.5 55 59 84.5T833 417q0 67-30.5 109T723 597t-112.5 49-129 41-129 48.5-113 71.5T160 917t-30 163q0 78 30 151t88 129 142.5 90 194.5 34q123 0 223.5-39T986 1332l-48-94q-9-15-20-23t-26-8q-17 0-41 17.5t-59 38.5-85 38.5-120 17.5q-67 0-117.5-18t-85-48.5-52-72T315 1091q0-61 30.5-102t80-69.5T538 870t129-43.5T796 776t112.5-71 80-105.5T1019 445q0-96-33-180.5t-96-147-154.5-98T527-16q-143 0-259.5 51.5T68 175z"/><glyph unicode="T" horiz-adv-x="1209" d="M31 1300v167h1149v-167H705V0H507v1300H31z"/><glyph unicode="U" horiz-adv-x="1506" d="M169 575v892h198V577q0-92 26-169t75.5-132.5 122-86.5T754 158t162.5 30.5 121 86 76 132T1140 575v892h197V575q0-127-40.5-235.5T1181 152 997.5 28 754-17 510 28 325.5 152t-116 188T169 575z"/><glyph unicode="V" horiz-adv-x="1386" d="M6 1467h159q27 0 43-13t24-34L646 385q13-35 26-76t23-86q10 45 21.5 86t24.5 76l413 1035q6 17 24 32t44 15h158L782 0H604z"/><glyph unicode="W" horiz-adv-x="2120" d="M32 1467h165q27 0 44.5-13t22.5-34L567 400q7-28 14-59.5t13-67.5q7 36 14.5 68.5T626 400l345 1020q6 17 24 32t43 15h58q27 0 43-13t24-34l344-1020q9-27 17-57.5t15-63.5q5 34 11 64.5t14 56.5l304 1020q5 18 23 32.5t43 14.5h155L1631 0h-178l-372 1119q-5 16-9.5 34.5t-9.5 39.5q-5-20-10-38.5t-11-35.5L668 0H489z"/><glyph unicode="X" horiz-adv-x="1329" d="m20 0 505 754-484 713h198q22 0 32-7t18-20l383-588q7 22 21 47l362 537q8 14 19 22.5t27 8.5h189L804 763 1307 0h-197q-23 0-35.5 12T1054 38L660 654q-8-25-18-42L259 38q-10-14-22-26T205 0H20z"/><glyph unicode="Y" horiz-adv-x="1277" d="M2 1467h174q27 0 42-12.5t27-33.5l336-570 33.5-67 26.5-63q11 32 25.5 63t31.5 67l335 570q9 17 25.5 31.5t42.5 14.5h175L738 585V0H540v585z"/><glyph unicode="Z" horiz-adv-x="1232" d="M54 0v78q0 16 6 30.5T74 136l832 1170H93v161h1073v-73q0-34-20-66L315 162h839V0H54z"/><glyph unicode="[" horiz-adv-x="626" d="M186-296v1866h377v-72q0-20-13.5-34t-36.5-14H340V-175h173q23 0 36.5-14.5T563-224v-72H186z"/><glyph unicode="\" horiz-adv-x="925" d="M69 1508h77q33 0 58-17t38-50L857-92h-77q-30 0-58.5 17.5T681-22z"/><glyph unicode="]" horiz-adv-x="626" d="M63-224q0 20 14 34.5t37 14.5h173v1625H114q-23 0-37 14t-14 34v72h377V-296H63v72z"/><glyph unicode="^" d="m135 713 397 754h118l403-754H920q-17 0-30 9.5T869 748l-235 453q-27 54-41 99-7-24-16.5-48t-20.5-51L328 748q-6-14-19.5-24.5T274 713H135z"/><glyph unicode="_" horiz-adv-x="940" d="M67-169h806v-123H67v123z"/><glyph unicode="`" horiz-adv-x="819" d="M134 1484h173q34 0 50.5-11t30.5-34l153-248H436q-22 0-35 6.5t-27 22.5z"/><glyph unicode="a" horiz-adv-x="1017" d="M67 259q0 61 33.5 118T210 478t197.5 72.5T707 583v81q0 121-52.5 182.5T502 908q-68 0-113.5-17t-79-37.5T252 816t-47-17q-18 0-31.5 9.5T151 833l-33 58q86 83 185 124t220 41q87 0 154.5-29t114-80 70-123.5T885 664V0h-81q-27 0-41 8.5T740 43l-20 98q-41-38-80-67t-82-49-91.5-30.5T358-16 244.5.5 152 51t-62 85.5T67 259zm175 8q0-41 13-70.5t36-48.5 54.5-27.5T413 112q48 0 88 9.5t75 28 67.5 44T707 252v215q-126-4-215-20t-144.5-41.5T267 345t-25-78z"/><glyph unicode="b" horiz-adv-x="1146" d="M144 0v1508h184V888q66 76 148 121t190 45q91 0 164-35t124.5-101 78.5-160 27-212q0-126-31-229.5T940.5 140 800 26.5 613-14q-102 0-172 38T318 133l-9-94q-8-39-47-39H144zm184 250q50-68 110-95.5T569 127q146 0 224 103.5T871 539q0 190-69 279.5T605 908q-89 0-155-41T328 752V250z"/><glyph unicode="c" horiz-adv-x="977" d="M86 519q0 116 32.5 214t94 169.5T365 1014t208 40q110 0 193.5-35.5T914 919l-48-66q-8-11-16-17.5t-23-6.5-33.5 13-45.5 28.5-66.5 28T585 911q-77 0-135.5-27t-98-78T292 682t-20-163q0-94 21.5-167t61-123 95.5-76 125-26q67 0 110 16t71 35.5 47 35 38 15.5q23 0 35-17l51-67q-34-42-77-71.5T757.5 24t-104-29T543-14q-97 0-180.5 35.5t-145 104T121 293 86 519z"/><glyph unicode="d" horiz-adv-x="1146" d="M88 515q0 115 31 213.5T207 900t140.5 114.5T536 1056q95 0 163-32.5T820 934v574h182V0H894q-39 0-49 38l-17 126Q761 84 676.5 35T480-14q-89 0-161.5 34t-124 100.5-79 166T88 515zm188 0q0-101 17.5-173.5t51.5-119 83-68T540 133q90 0 157 41t123 116v501q-51 69-110.5 95.5T577 913q-144 0-222.5-103T276 515z"/><glyph unicode="e" horiz-adv-x="1081" d="M85 540q0 109 33.5 203T214 906t152.5 108.5T569 1054q93 0 172.5-31.5T879 932t90.5-145.5T1002 590q0-43-9-57.5T958 518H265q3-98 27-171t67-121.5T461.5 153 595 129q69 0 118.5 16t85.5 34.5 60 34 41 15.5q23 0 35-17l51-67q-34-41-81-71T804.5 24.5t-111-29T580-14q-108 0-198.5 36T225 128.5t-103 174T85 540zm186 92h568q0 63-18 116t-52.5 91.5T685 899t-112 21q-131 0-207-76.5T271 632z"/><glyph unicode="f" horiz-adv-x="717" d="M48 942v75h164v100q0 89 25 158.5t71.5 117 112 72T568 1489q70 0 128-21l-4-91q-2-25-27-26.5t-67-1.5q-47 0-85.5-12.5t-66-40T404 1224t-15-112v-95h299V885H395V0H212v882L97 895q-22 5-35.5 16T48 942z"/><glyph unicode="g" horiz-adv-x="1064" d="M63-99q0 77 48.5 130T244 116q-46 20-73.5 54.5T143 263q0 23 8.5 47t25.5 48 41.5 45.5T275 441q-77 43-119.5 114.5T113 721q0 76 29 138t81 105.5 124.5 67T506 1055q68 0 126-15t106-44h282v-67q0-34-43-43l-118-16q35-68 35-149 0-76-29-138t-80.5-106-123-67.5T506 386q-73 0-137 17-33-20-50.5-43T301 313q0-37 30-55.5t79.5-27T523 220t129-6.5 129-16 112-37T972 90t30-117q0-67-33-129t-95.5-110.5-153-78T516-374t-199 22.5T176-291t-84.5 87.5T63-99zm160 23q0-35 18-65t55-52 92.5-35T520-241q74 0 132.5 13.5t99 38 62 58.5T835-56q0 38-21.5 61.5t-58 36.5T671 61t-102 9-109.5 6T353 86q-57-27-93.5-67.5T223-76zm57 792q0-46 14.5-84.5t43.5-66 71-43 97-15.5 97 15.5 70.5 43 43 66T731 716q0 95-58 151.5T506 924q-111 0-168.5-56.5T280 716z"/><glyph unicode="h" horiz-adv-x="1142" d="M144 0v1508h184V899q67 71 147.5 113t186.5 42q85 0 150-28.5t108.5-80 66-124T1009 660V0H825v660q0 118-53.5 183T608 908q-81 0-151-39T328 764V0H144z"/><glyph unicode="i" horiz-adv-x="491" d="M116 1363q0 27 10 51t27.5 42 40.5 28 50 10 50.5-10 41.5-28 29-42 11-51-11-50-29-41-42-28-50-10q-27 0-50 10t-40.5 28-27.5 41-10 50zM155 0v1037h182V0H155z"/><glyph unicode="j" horiz-adv-x="491" d="m-73-352 7 98q2 9 7 13.5t13 6 21 1 32-.5q80 0 114 37t34 120v1114h182V-77q0-62-16.5-116T268-287t-91.5-63T43-373q-33 0-60.5 5.5T-73-352zm189 1715q0 27 10 51t27.5 42 40.5 28 50 10 50-10 41-28 29-42 11-51-11-50-29-41-41.5-28-49.5-10q-27 0-50 10t-40.5 28-27.5 41-10 50z"/><glyph unicode="k" horiz-adv-x="1040" d="M144 0v1508h184V621h47q20 0 34 5.5t29 22.5l328 351q14 17 30 27t43 10h165L622 631q-28-35-60-54 18-12 33-28.5t29-36.5L1029 0H866q-24 0-40.5 7.5T797 36L456 461q-15 22-30 28.5t-46 6.5h-52V0H144z"/><glyph unicode="l" horiz-adv-x="483" d="M151 0v1508h182V0H151z"/><glyph unicode="m" horiz-adv-x="1684" d="M144 0v1037h110q39 0 48-38l13-106q57 71 129 116t166 45q104 0 169.5-58.5T873 838q23 56 58.5 97t79.5 67.5 93.5 39T1205 1054q82 0 146-26.5t108.5-76.5 68-123 23.5-168V0h-183v660q0 122-53 185t-154 63q-45 0-85.5-15.5t-71-46.5-48.5-77.5T938 660V0H755v660q0 125-50.5 186.5T558 908q-68 0-125-36t-105-99V0H144z"/><glyph unicode="n" horiz-adv-x="1142" d="M144 0v1037h110q39 0 48-38l14-112q34 38 72 68.5t80.5 52.5 90 34 103.5 12q85 0 150-28.5t108.5-80 66-124T1009 660V0H825v660q0 118-53.5 183T608 908q-81 0-151-39T328 764V0H144z"/><glyph unicode="o" horiz-adv-x="1161" d="M86 519q0 122 34.5 221t99 168.5 156 107.5 206.5 38q114 0 205-38t155.5-107.5T1041 740t34-221q0-123-34-221t-98.5-168-156-107T582-14q-115 0-206.5 37t-156 107-99 168T86 519zm187-1q0-184 76.5-287T582 128q154 0 229.5 103T887 518q0 185-76 288.5T582 910q-78 0-136-26.5T349.5 807 292 683.5 273 518z"/><glyph unicode="p" horiz-adv-x="1147" d="M144-351v1388h110q39 0 48-38l16-122q66 81 152 130t197 49q90 0 162.5-34.5t124-101.5 79-166.5T1060 525q0-115-31-213.5T940.5 141t-141-113.5T611-14q-95 0-163 32t-120 90v-459H144zm184 601q50-68 109.5-95.5T570 127q145 0 223 103.5T871 525q0 101-17.5 174T802 818.5t-83 68T607 908q-89 0-156-41T328 752V250z"/><glyph unicode="q" horiz-adv-x="1146" d="M88 515q0 115 31 213.5T207 900t140.5 114.5T536 1056q101 0 171.5-36T833 920l12 79q10 38 49 38h108V-351H820v506Q755 79 671.5 32.5T480-14q-89 0-161.5 34t-124 100.5-79 166T88 515zm188 0q0-101 17.5-173.5t51.5-119 83-68T540 133q90 0 157 41t123 116v502q-49 66-109.5 93.5T577 913q-144 0-222.5-103T276 515z"/><glyph unicode="r" horiz-adv-x="745" d="M144 0v1037h105q30 0 41-11t15-39l12-158q49 106 121 166.5t175 60.5q33 0 63.5-7.5T730 1026l-13-136q-6-26-31-26-14 0-42 6.5t-62 6.5q-49 0-87.5-14.5t-69-42.5-54.5-69.5-43-95.5V0H144z"/><glyph unicode="s" horiz-adv-x="886" d="m69 110 43 69q8 13 19 20.5t29 7.5 38.5-14.5 50-32 71-31.5T424 115q53 0 93 13.5t66.5 37T623 220t13 66q0 43-23 71t-61 48-86.5 35-99.5 31-99.5 37-86.5 53-61 78.5T96 753q0 59 24.5 114t72 96.5 116 66T465 1054q102 0 183.5-32.5T790 933l-41-67q-12-23-38-22-15 0-35 11t-48 25-67 26-92 12q-46 0-83-12t-63-32.5-40-47.5-14-59q0-40 23-66.5t61-46 86-34.5 99-32 99-37.5 86-51 61-75T807 317q0-72-25.5-132.5t-76-105-123-70T415-16q-109 0-197 35T69 110z"/><glyph unicode="t" horiz-adv-x="734" d="M44 925v72l170 22 42 320q3 15 14 25t28 10h92v-357h300V885H390V262q0-66 32-97.5t82-31.5q29 0 49.5 7.5t36 17 26.5 17 19 7.5q14 0 25-17l54-87Q667 34 600.5 9T463-16q-123 0-189 68.5T208 250v635H83q-16 0-27.5 9.5T44 925z"/><glyph unicode="u" horiz-adv-x="1141" d="M134 376v661h182V376q0-118 54-182.5T535 129q81 0 151 38.5T815 273v764h182V0H889q-39 0-49 38l-15 112Q757 75 673.5 29.5T481-16q-85 0-150 28T222 91t-66 124-22 161z"/><glyph unicode="v" horiz-adv-x="1056" d="M24 1037h148q23 0 37-11t19-27l264-667q12-38 21-74t17-72q8 36 17.5 72t22.5 74l267 667q6 16 20 27t34 11h142L610 0H446z"/><glyph unicode="w" horiz-adv-x="1608" d="M34 1037h143q22 0 36.5-11t19.5-27l199-667q17-74 28-139 9 34 18.5 68.5T500 332l219 672q5 15 18 25t31 10h80q20 0 33.5-10t18.5-25l214-672q11-36 20.5-71t17.5-68q5 34 12.5 68t17.5 71l202 667q5 16 19.5 27t34.5 11h137L1239 0h-144q-27 0-37 35L828 738q-8 24-13 48l-10 48-10-48-14-49L548 35q-9-35-41-35H370z"/><glyph unicode="x" horiz-adv-x="1019" d="m24 0 363 532-349 505h175q23 0 33-7t18-20l255-389q8 30 26 57l223 328q9 14 20 22.5t26 8.5h168L633 542 996 0H821q-23 0-35.5 12T765 38L504 444q-4-14-9-28t-13-25L241 38q-10-14-22-26T186 0H24z"/><glyph unicode="y" horiz-adv-x="1055" d="M22 1037h157q24 0 37.5-11.5T236 999l277-653q16-43 28-90 14 48 30 91l270 652q6 16 21 27t33 11h144L461-306q-9-20-23-32.5T395-351H260L450 60z"/><glyph unicode="z" horiz-adv-x="925" d="M59 0v76q0 13 6.5 31T84 141l565 753H91v143h769v-78q0-19-6.5-37.5T836 890L273 142h568V0H59z"/><glyph unicode="{" horiz-adv-x="616" d="M70 583v109q68 0 103.5 41T209 840q0 51-8 101t-17.5 100.5T166 1143t-8 104q0 71 21 130.5t63.5 102.5 105.5 66.5 146 23.5h55v-81q0-20-14.5-29.5T508 1450h-21q-80 0-125-51.5T317 1258q0-57 7.5-110t16.5-104 16.5-101 7.5-101q0-38-11.5-71.5t-32.5-60-49-45.5-62-28q34-9 62-27.5t49-45 32.5-60T365 433q0-51-7.5-101T341 231t-16.5-104T317 16q0-89 45.5-140T487-175h21q12 0 26.5-9.5T549-214v-82h-55q-83 0-146 24t-105.5 67T179-102.5 158 28q0 53 8 103.5T183.5 233 201 334t8 101q0 65-36 106.5T70 583z"/><glyph unicode="|" horiz-adv-x="513" d="M185-357v1927h143V-357H185z"/><glyph unicode="}" horiz-adv-x="616" d="M68-214q0 20 14.5 29.5T109-175h20q80 0 125 51t45 140q0 57-7 110.5T275.5 231 259 332t-7 101q0 38 11 71.5t32 60 49.5 45T407 637q-34 9-62.5 28T295 710.5t-32 60-11 71.5q0 51 7 101t16.5 101 16.5 104 7 110q0 88-45 140t-125 52h-20q-11 0-26 9t-15 30v81h55q83 0 146-23.5t105.5-66.5 63.5-102.5 21-130.5q0-53-8.5-104T433 1041.5 416 941t-8-101q0-66 35.5-107T547 692V583q-68 0-103.5-41.5T408 435q0-51 8-101t17-101 17.5-101.5T459 28q0-71-21-130.5T374.5-205 269-272t-146-24H68v82z"/><glyph unicode="~" d="M123 424q0 69 19 126t54 98 87 64 118 23q53 0 105.5-17t101-36.5T700 645t81-17q67 0 104.5 43.5T924 786h147q0-69-19-126t-54-98-87.5-63.5T793 476q-53 0-105.5 16.5t-101 36.5-92.5 37-81 17q-67 0-104.5-43T270 424H123z"/><glyph unicode="¢" d="M142 518q0 114 34 209.5T274.5 894t159 112.5T650 1052l13 182q2 20 15 35t35 15h68l-16-238q84-11 151.5-44t121.5-83l-47-64q-8-11-15.5-16.5T953 833q-12 0-28.5 8.5T885 862t-55 24.5-75 19.5l-54-780q65 4 108 20t73 34 49.5 31.5T968 225q11 0 20-4.5t14-11.5l51-65Q992 71 897 33T691-12l-12-179q-2-19-15.5-34.5T628-241h-68l17 230Q483-1 403 39.5t-138 108T174.5 308 142 518zm182 0q0-165 69-263.5T586 132l54 779q-78-6-137.5-35t-99-80T344 675t-20-157z"/><glyph unicode="£" d="M49 629v59q0 27 16.5 45.5T112 752h137v267q0 96 27.5 180.5t84 147.5 140 99.5T696 1483q80 0 142.5-20t110.5-55 83.5-81 60.5-99l-74-47q-27-13-50-11.5t-43 25.5q-19 28-40.5 51.5t-48 41.5-61 28-80.5 10q-65 0-113-21.5t-81-61.5-49.5-96-16.5-126V752h451v-74q0-18-15-33.5T834 629H436V380q0-77-29-133t-80-102q29 5 58.5 9t58.5 4h694V80q0-14-6-28t-16.5-26-25-19-32.5-7H71v118q35 10 67 27.5t56.5 43.5 39.5 61.5 15 82.5v296H49z"/><glyph unicode="¥" d="M50 1467h152q27 0 43.5-12.5T270 1421l284-579q14-35 24-64.5t18-59.5q12 56 39 124l283 579q8 17 24.5 31.5T985 1467h153L719 640h315V536H685V428h349V323H685V0H503v323H154v105h349v108H154v104h315z"/><glyph unicode="¨" horiz-adv-x="819" d="M99 1320q0 24 9.5 45t25.5 37 36 25.5 43 9.5q24 0 45-9.5t37-25.5 25.5-37 9.5-45-9.5-44.5T295 1240t-37-24.5-45-9.5q-23 0-43 9.5t-36 24.5-25.5 35.5T99 1320zm390 0q0 24 9.5 45t25 37 36.5 25.5 44 9.5q24 0 45-9.5t36.5-25.5 25-37 9.5-45-9.5-44.5-25-35.5-36.5-24.5-45-9.5-44.5 9.5-36 24.5-25 35.5-9.5 44.5z"/><glyph unicode="©" horiz-adv-x="1702" d="M103 733q0 103 27 199t76 179.5T323 1263t151 117.5 178.5 76T851 1483t199-26.5 179-76 151.5-117.5 117-151.5 75-179T1599 733q0-102-26.5-198t-75-179-117-151T1229 88t-179-75.5T851-14 652.5 12.5 474 88 323 205 206 356t-76 178.5T103 733zm104 0q0-91 22.5-175t64-157T394 268.5t130-102T678 101t173-23 173.5 23 155.5 65.5 131 102T1412 401t65 157 23 175q0 137-50.5 257.5t-138 210T1105 1342t-254 52q-90 0-173-23.5t-154-66-130-103-100.5-134-64-158.5T207 733zm202 2q0 103 34.5 190t97 149 148 96 185.5 34q112 0 189.5-34t135.5-92l-47-66q-5-6-13.5-12.5T1119 993q-14 0-30 11.5t-41.5 25-65 25.5-98.5 12q-73 0-130.5-23T655 978t-62.5-104.5T571 735q0-79 22-141t61-103.5 93-64T864 404q53 0 89 8.5t63 20 49 26 48 26.5q15 1 28-11l61-65q-58-68-142.5-105.5T856 266q-100 0-182.5 35T532 398.5 441 547t-32 188z"/><glyph unicode="«" horiz-adv-x="878" d="M102 530v24l255 398 60-28q24-11 28.5-32.5T435 847L273 580q-14-26-28-37 14-13 28-38l162-267q14-24 9.5-45T417 161l-60-29zm303 0v24l255 398 60-28q24-11 28.5-32.5T738 847L576 580q-14-26-28-37 14-13 28-38l162-267q14-24 9.5-45T720 161l-60-29z"/><glyph unicode="­" horiz-adv-x="760" d="M128 537v154h506V537H128z"/><glyph unicode="®" horiz-adv-x="1702" d="M103 733q0 103 27 199t76 179.5T323 1263t151 117.5 178.5 76T851 1483t199-26.5 179-76 151.5-117.5 117-151.5 75-179T1599 733q0-102-26.5-198t-75-179-117-151T1229 88t-179-75.5T851-14 652.5 12.5 474 88 323 205 206 356t-76 178.5T103 733zm104 0q0-91 22.5-175t64-157T394 268.5t130-102T678 101t173-23 173.5 23 155.5 65.5 131 102T1412 401t65 157 23 175q0 137-50.5 257.5t-138 210T1105 1342t-254 52q-90 0-173-23.5t-154-66-130-103-100.5-134-64-158.5T207 733zm338-454v913h294q177 0 261.5-64t84.5-189q0-96-54.5-163.5T968 683q17-11 30-26.5t24-35.5l233-342h-152q-34 0-49 25L847 613q-9 13-22 20.5t-40 7.5h-80V279H545zm160 479h117q114 0 160 41.5t46 119.5q0 38-9.5 66.5t-31.5 47-58.5 27.5-89.5 9H705V758z"/><glyph unicode="´" horiz-adv-x="819" d="m297 1191 152 248q14 24 31 34.5t49 10.5h179l-239-264q-14-15-28-22t-35-7H297z"/><glyph unicode="¸" horiz-adv-x="819" d="m248-334 17 56q6 18 24 19 6 0 14-3.5t20-8 28-8.5 37-4q43 0 65 17.5t22 44.5q0 39-43 54.5T310-140l56 166h103L440-77q95-19 137.5-55t42.5-91q0-33-16.5-59.5t-46-45T487-356t-90-10q-42 0-79.5 9T248-334z"/><glyph unicode="»" horiz-adv-x="879" d="M131.5 193q-4.5 21 9.5 45l162 267q8 12 15 22t15 16q-8 5-15 14.5T303 580L141 847q-14 24-9.5 44.5T160 924l59 28 255-398v-24L219 132l-59 29q-24 11-28.5 32zm303 0q-4.5 21 9.5 45l162 267q8 12 15 22t15 16q-8 5-15 14.5T606 580L444 847q-14 24-9.5 44.5T463 924l59 28 255-398v-24L522 132l-59 29q-24 11-28.5 32z"/><glyph unicode="ˆ" horiz-adv-x="819" d="m96 1197 229 270h170l228-270H601q-11 0-23 4t-23 16l-126 135q-9 8-16 19-5-5-9.5-10t-8.5-9l-127-135q-22-19-46-20H96z"/><glyph unicode="˚" horiz-adv-x="819" d="M205 1347q0 43 16.5 77.5t44.5 60 65 39.5 78 14q42 0 79-14t66-39.5 45-60 16-77.5q0-42-16-77t-45-59.5-66-38.5-79-14q-41 0-78 14t-65 38.5-44.5 59.5-16.5 77zm102 0q0-45 27.5-74t76.5-29q46 0 74 29t28 74q0 46-28 74.5t-74 28.5q-48 0-76-28.5t-28-74.5z"/><glyph unicode="˜" horiz-adv-x="819" d="M114 1231q0 49 13 89.5t37.5 69.5 58.5 45 74 16q36 0 67-15t59-32.5 51.5-32T522 1357q37 0 57 21.5t21 66.5h111q0-48-13-88.5t-37-69.5-57.5-44.5T529 1227q-36 0-67 14.5t-58.5 32-52 32.5-48.5 15q-74 0-76-90H114z"/><glyph unicode="Ѐ" horiz-adv-x="1182" d="M187 0v1467h905v-161H386V818h571V663H386V162h707l-1-162H187zm89 1896h195q34 0 51-5t35-27l233-281H659q-23 0-35.5 2.5T596 1603z"/><glyph unicode="Ё" horiz-adv-x="1182" d="M187 0v1467h905v-161H386V818h571V663H386V162h707l-1-162H187zm139 1706q0 24 9 45t24.5 36 35.5 24.5 42 9.5q23 0 43.5-9.5T517 1787t25-36 9-45q0-23-9-42.5t-25-35-37-24.5-43-9-42 9-35.5 24.5-24.5 35-9 42.5zm428 0q0 24 8.5 45t24 36 36 24.5 44.5 9.5q23 0 43-9.5t35.5-24.5 24.5-36 9-45q0-23-9-42.5t-24.5-35-36-24.5-42.5-9q-24 0-44.5 9t-36 24.5-24 35-8.5 42.5z"/><glyph unicode="Ђ" horiz-adv-x="1514" d="M28 1307v160h1072v-160H636V836h316q134 0 231.5-29.5t160.5-82 93-125.5 30-159q0-101-34-182.5t-100-139-162.5-88T951 0h-98v158h98q85 0 146 19.5t99.5 53.5 56.5 82.5 18 107.5q0 61-18 109t-56.5 81-99 50T952 678H636V0H437v1307H28z"/><glyph unicode="Ѓ" horiz-adv-x="1101" d="M187 0v1467h884v-156H386V0H187zm301 1583 236 281q17 23 35 27.5t52 4.5h206l-334-292q-15-14-29.5-17.5T619 1583H488z"/><glyph unicode="Є" horiz-adv-x="1384" d="M97 733q0 166 52.5 304.5t147 237.5T523 1429t292 55q157 0 276.5-50.5T1303 1297l-66-91q-6-10-16-16.5t-26-6.5q-18 0-45 20t-70 44.5-107.5 44.5-158.5 20q-103 0-191-33.5T468 1182t-109.5-154T304 822h737V672H302q9-123 51-219.5T462.5 290t156-100.5T808 155q66 0 118.5 7.5t97 24 83 41.5 76.5 60q18 15 35 15 16 0 28-13l79-85q-90-104-218.5-162.5T796-16q-158 0-287 54.5T289 192 147.5 429 97 733z"/><glyph unicode="Ѕ" horiz-adv-x="1111" d="m68 175 57 94q8 11 20 19t26 8q13 0 30-11t38.5-27 49-35.5 63-36T432 159t102-11q71 0 126 19.5t93.5 55 59 84.5T833 417q0 67-30.5 109T723 597t-112.5 49-129 41-129 48.5-113 71.5T160 917t-30 163q0 78 30 151t88 129 142.5 90 194.5 34q123 0 223.5-39T986 1332l-48-94q-9-15-20-23t-26-8q-17 0-41 17.5t-59 38.5-85 38.5-120 17.5q-67 0-117.5-18t-85-48.5-52-72T315 1091q0-61 30.5-102t80-69.5T538 870t129-43.5T796 776t112.5-71 80-105.5T1019 445q0-96-33-180.5t-96-147-154.5-98T527-16q-143 0-259.5 51.5T68 175z"/><glyph unicode="І" horiz-adv-x="573" d="M187 0v1467h199V0H187z"/><glyph unicode="Ї" horiz-adv-x="573" d="M-37 1706q0 24 9 45t24.5 36 35.5 24.5 42 9.5q23 0 43.5-9.5T154 1787t25-36 9-45q0-23-9-42.5t-25-35-37-24.5-43-9-42 9-35.5 24.5-24.5 35-9 42.5zM187 0v1467h199V0H187zm204 1706q0 24 8.5 45t24 36 36 24.5 44.5 9.5q23 0 43-9.5t35.5-24.5 24.5-36 9-45q0-23-9-42.5t-24.5-35-36-24.5-42.5-9q-24 0-44.5 9t-36 24.5-24 35-8.5 42.5z"/><glyph unicode="Ј" horiz-adv-x="865" d="M25 12q2 30 5 59t5 58q2 17 12.5 28T81 168q18 0 48.5-9t81.5-9q68 0 121 20t89 63 55 110.5T495 503v964h198V507q0-123-30-220.5T574 122 429 19.5 231-16Q130-16 25 12z"/><glyph unicode="Љ" horiz-adv-x="2158" d="M-7 26v126h72q41 0 80.5 15.5t76.5 64T292 369t59.5 235.5 46 358T427 1467h871V836h286q134 0 231-29.5t160-82 93-125.5 30-159q0-101-34-182.5t-100-139-162-88T1583 0h-483v1311H614q-14-283-38-491t-58.5-355.5-78-240-95-145.5-111-72.5T108-13q-55 0-85 9.5T-7 26zm1305 132h285q85 0 145.5 19.5T1828 231t57 82.5 18 107.5q0 61-18 109t-56.5 81-99 50-145.5 17h-286V158z"/><glyph unicode="Њ" horiz-adv-x="2236" d="M187 0v1467h199V813h792v654h198V836h286q134 0 231.5-29.5t160.5-82 93-125.5 30-159q0-101-34.5-182.5t-100.5-139-162-88T1661 0h-483v668H386V0H187zm1189 158h285q85 0 146 19.5t99.5 53.5 56 82.5T1980 421q0 61-17.5 109t-56 81-99 50-145.5 17h-286V158z"/><glyph unicode="Ћ" horiz-adv-x="1529" d="M28 1307v160h1072v-160H636V828q116 31 221 48.5t194 16 161-24 122.5-72.5 78.5-129 28-193V-1h-199v475q0 101-33 163t-105.5 87.5-188 14.5T636 684V0H437v1307H28z"/><glyph unicode="Ќ" horiz-adv-x="1373" d="M187 0v1467h198V824h153q46 0 78 14.5t64 56.5l384 516q15 25 37 40.5t52 15.5h167L877 864q-50-71-129-97 54-14 91.5-45.5T910 635L1359 0h-178q-30 0-51 16t-39 46L702 600q-27 40-57.5 56T561 672H385V0H187zm396 1583 236 281q17 23 35 27.5t52 4.5h206l-334-292q-15-14-29.5-17.5T714 1583H583z"/><glyph unicode="Ѝ" horiz-adv-x="1563" d="M187 0v1467h199V424q0-44-2-91.5T375 230q17 47 37 87t40 71l688 1017q14 24 36.5 43t52.5 19h147V0h-198v1042q0 44 2 92t9 101q-17-46-36.5-86t-40.5-70L424 62q-14-24-36.5-43T335 0H187zm225 1895h195q34 0 51-5t35-27l233-281H795q-23 0-35.5 2.5T732 1602z"/><glyph unicode="Ў" horiz-adv-x="1281" d="M7 1467h186q27 0 42-12.5t26-33.5l363-665q38-73 61-148 11 37 25 74t31 74l309 665q8 17 25 31.5t42 14.5h164L685 191q-28-60-60-99.5T556 29 476-3.5 384-13q-55 0-85 9.5T269 26v126h72q26 0 51.5 5.5t49 19.5 45 38.5T525 276l72 150zm358 311q0 22 10 38.5t30 16.5h106q0-49 8-82.5t26-54 47-29.5 71-9 70.5 9 46.5 29.5 26 54 8 82.5h107q19 0 29.5-17t10.5-38q0-102-79-157.5T663 1565t-219 55-79 158z"/><glyph unicode="Џ" horiz-adv-x="1506" d="M187 0v1467h199V156h733v1311h200V0H844v-298q0-27-18-43t-46-16H662V0H187z"/><glyph unicode="А" horiz-adv-x="1382" d="m4 0 587 1467h201L1378 0h-153q-27 0-43.5 13.5T1157 47l-137 354H361L224 47q-6-18-23.5-32.5T157 0H4zm413 545h548l-231 597q-10 27-21.5 62t-21.5 75q-22-83-44-138z"/><glyph unicode="Б" horiz-adv-x="1269" d="M187 0v1467h949v-156H385V836h286q134 0 231-29.5t160-82 93.5-125.5 30.5-159q0-101-34.5-182.5t-100.5-139-162-88T670 0H187zm198 158h285q85 0 146 19.5t99 53.5 56 82.5T989 421q0 61-18 109t-56 81-98.5 50T671 678H385V158z"/><glyph unicode="В" horiz-adv-x="1324" d="M187 0v1467h468q135 0 233-26.5t161-75.5 92.5-120 29.5-161q0-54-16.5-103.5T1104 888t-85.5-77.5T897 755q162-31 243.5-115.5T1222 418q0-93-34.5-170T1087 115.5 924.5 30 706 0H187zm198 158h317q85 0 146.5 19.5t101 54.5 58 84 18.5 107q0 114-81 180t-243 66H385V158zm0 652h262q84 0 146 18.5t102.5 51 60 79.5 19.5 102q0 130-78 190t-242 60H385V810z"/><glyph unicode="Г" horiz-adv-x="1101" d="M187 0v1467h884v-156H386V0H187z"/><glyph unicode="Д" horiz-adv-x="1609" d="M14 156h150q32 15 63.5 49.5T288 304t55 161 47 238 36 329.5 24 434.5h871V156h240v-454q0-27-17.5-43t-46.5-16h-118V0H197v-298q0-27-18-43t-46-16H14v513zm383 0h724v1155H636q-12-251-34.5-440.5t-53.5-329-69-233T397 156z"/><glyph unicode="Е" horiz-adv-x="1182" d="M187 0v1467h905v-161H386V818h571V663H386V162h707l-1-162H187z"/><glyph unicode="Ж" horiz-adv-x="2126" d="m17 0 437 636q33 53 71 85t88 47q-44 14-74.5 42T479 881L52 1467h155q32 0 58-15.5t42-43.5l368-509q32-45 67-60t82-15h146v643h187V824h147q46 0 80.5 15t67.5 60l368 509q16 28 42.5 43.5t57.5 15.5h156l-428-586q-29-43-59.5-71t-74.5-42q49-16 88-47.5t72-84.5L2109 0h-132q-43 0-74.5 19T1851 71l-371 520q-28 43-63.5 62t-89.5 19h-170V0H970v672H801q-55 0-90.5-19T647 591L275 71q-18-33-49.5-52T151 0H17z"/><glyph unicode="З" horiz-adv-x="1178" d="m43 177 57 94q8 11 20.5 19t26.5 8q22 0 51.5-23t76-50.5T387 174t161-23q81 0 145 19t107.5 56 66.5 90.5T890 436q0 57-22 105.5T804 624t-102.5 53T565 696H365v163h192q62 0 116 15.5t92.5 45T826 992t22 99q0 50-20.5 92t-59.5 72-95.5 46.5T545 1318q-83 0-141.5-17.5T305 1262t-65-38.5-43-17.5q-16 0-26.5 7.5T151 1237l-49 93q83 74 192.5 113t249.5 39q114 0 204.5-28t154-78 97.5-118.5 34-150.5q0-111-54.5-195T825 782q56-24 102.5-58t79.5-77 51-94 18-108q0-96-35.5-180t-104-146T769 21.5 543-14q-158 0-284 51.5T43 177z"/><glyph unicode="И" horiz-adv-x="1563" d="M187 0v1467h199V424q0-44-2-91.5T375 230q17 47 37 87t40 71l688 1017q14 24 36.5 43t52.5 19h147V0h-198v1042q0 44 2 92t9 101q-17-46-36.5-86t-40.5-70L424 62q-14-24-36.5-43T335 0H187z"/><glyph unicode="Й" horiz-adv-x="1563" d="M187 0v1467h199V424q0-44-2-91.5T375 230q17 47 37 87t40 71l688 1017q14 24 36.5 43t52.5 19h147V0h-198v1042q0 44 2 92t9 101q-17-46-36.5-86t-40.5-70L424 62q-14-24-36.5-43T335 0H187zm302 1777q0 22 10 38.5t30 16.5h106q0-49 8-82.5t26-54 47-29.5 71-9 70.5 9 46.5 29.5 26 54 8 82.5h107q19 0 29.5-17t10.5-38q0-102-79-157.5T787 1564t-219 55-79 158z"/><glyph unicode="К" horiz-adv-x="1373" d="M187 0v1467h198V824h153q46 0 78 14.5t64 56.5l384 516q15 25 37 40.5t52 15.5h167L877 864q-50-71-129-97 54-14 91.5-45.5T910 635L1359 0h-178q-30 0-51 16t-39 46L702 600q-27 40-57.5 56T561 672H385V0H187z"/><glyph unicode="Л" horiz-adv-x="1485" d="M-7 26v126h72q41 0 80.5 15.5t76.5 64T292 369t59.5 235.5 46 358T427 1467h871V0h-198v1311H614q-14-283-38-491t-58.5-355.5-78-240-95-145.5-111-72.5T108-13q-55 0-85 9.5T-7 26z"/><glyph unicode="М" horiz-adv-x="1901" d="M187 0v1467h147q27 0 41-5t27-28l507-904q12-25 24-51t22-54q10 28 21.5 55t24.5 51l498 903q12 24 27 28.5t42 4.5h146V0h-174v1078q0 22 1.5 46.5t3.5 50.5l-504-918q-24-46-71-46h-29q-48 0-72 46l-514 922q6-54 6-101V0H187z"/><glyph unicode="Н" horiz-adv-x="1563" d="M187 0v1467h199V813h792v654h198V0h-198v668H386V0H187z"/><glyph unicode="О" horiz-adv-x="1639" d="M96 733q0 165 52.5 303T296 1273.5t228 155 295 55.5 295.5-55.5 229-155T1491 1036t52-303-52-302.5-147.5-237-229-154T819-15 524 39.5t-228 154-147.5 237T96 733zm203 0q0-135 37-242t105-181 164-113.5T819 157q119 0 215 39.5T1198 310t104.5 181 36.5 242-36.5 242.5-104.5 182-164 114.5-215 40q-118 0-214-40t-164-114.5-105-182T299 733z"/><glyph unicode="П" horiz-adv-x="1506" d="M187 0v1467h1132V0h-200v1311H386V0H187z"/><glyph unicode="Р" horiz-adv-x="1229" d="M187 0v1467h434q139 0 242-32t170.5-91.5T1134 1200t33-187q0-102-35.5-187.5t-105-147-171-95.5T621 549H385V0H187zm198 707h236q85 0 150 22.5t109.5 63 67 96.5 22.5 124q0 140-86.5 219T621 1311H385V707z"/><glyph unicode="С" horiz-adv-x="1368" d="M97 733q0 166 52.5 304.5t147 237.5T523 1429t292 55q157 0 276.5-50.5T1303 1297l-66-91q-6-10-16-16.5t-26-6.5q-18 0-45 20t-70 44.5-107.5 44.5-158.5 20q-114 0-208-39.5T444 1158 338 975.5 300 733q0-137 39.5-244.5t107.5-182 160.5-113T808 155q66 0 118.5 7.5t97 24 83 41.5 76.5 60q18 15 35 15 16 0 28-13l79-85q-90-104-218.5-162.5T796-16q-158 0-287 54.5T289 192 147.5 429 97 733z"/><glyph unicode="Т" horiz-adv-x="1209" d="M31 1300v167h1149v-167H705V0H507v1300H31z"/><glyph unicode="У" horiz-adv-x="1281" d="M7 1467h186q27 0 42-12.5t26-33.5l363-665q38-73 61-148 11 37 25 74t31 74l309 665q8 17 25 31.5t42 14.5h164L685 191q-28-60-60-99.5T556 29 476-3.5 384-13q-55 0-85 9.5T269 26v126h72q26 0 51.5 5.5t49 19.5 45 38.5T525 276l72 150z"/><glyph unicode="Ф" horiz-adv-x="1602" d="M79 771q0 120 46 226t129 186.5 198.5 128T708 1362v172h188v-172q140-3 256-50.5t198.5-128 128-186.5 45.5-226q0-121-45.5-227.5t-128-187T1152 228t-256-51V0H708v177q-141 3-257 51T252.5 356.5t-128 187T79 771zm199 0q0-90 30.5-169t87-138.5 135.5-94T708 334v873q-97-1-176.5-35.5t-136-94-87-138.5T278 771zm618-437q97 1 176.5 35.5t136 94 87 138.5 30.5 169q0 89-30.5 168t-87 138-136 93.5T896 1207V334z"/><glyph unicode="Х" horiz-adv-x="1329" d="m20 0 505 754-484 713h198q22 0 32-7t18-20l383-588q7 22 21 47l362 537q8 14 19 22.5t27 8.5h189L804 763 1307 0h-197q-23 0-35.5 12T1054 38L660 654q-8-25-18-42L259 38q-10-14-22-26T205 0H20z"/><glyph unicode="Ц" horiz-adv-x="1597" d="M187 0v1467h199V156h733v1311h200V156h224v-454q0-27-18-43t-45-16h-119V0H187z"/><glyph unicode="Ч" horiz-adv-x="1353" d="M94 988v479h199V987q0-101 41-163.5t125-87T669.5 723 968 779v688h199V0H968v635q-117-31-227.5-49T533 569t-178 23.5T216.5 665t-90 129T94 988z"/><glyph unicode="Ш" horiz-adv-x="2204" d="M187 0v1467h199V156h614v1311h199V156h619v1311h199V0H187z"/><glyph unicode="Щ" horiz-adv-x="2295" d="M187 0v1467h199V156h614v1311h199V156h619v1311h199V156h225v-454q0-27-18-43t-46-16h-119V0H187z"/><glyph unicode="Ъ" horiz-adv-x="1509" d="M30 1306v161h619V836h286q134 0 231.5-29.5t160.5-82 93-125.5 30-159q0-101-34.5-182.5t-100.5-139-162-88T934 0H452v1306H30zM649 158h285q85 0 146 19.5t99.5 53.5 56 82.5T1253 421q0 61-17.5 109t-56 81-99 50T935 678H649V158z"/><glyph unicode="Ы" horiz-adv-x="1842" d="M187 0v1467h198V836h286q134 0 231-29.5t160-82 93.5-125.5 30.5-159q0-101-34.5-182.5t-100.5-139-162-88T670 0H187zm198 158h285q85 0 146 19.5t99 53.5 56 82.5T989 421q0 61-18 109t-56 81-98.5 50T671 678H385V158zM1455 0v1467h199V0h-199z"/><glyph unicode="Ь" horiz-adv-x="1245" d="M187 0v1467h198V836h286q134 0 231-29.5t160-82 93.5-125.5 30.5-159q0-101-34.5-182.5t-100.5-139-162-88T670 0H187zm198 158h285q85 0 146 19.5t99 53.5 56 82.5T989 421q0 61-18 109t-56 81-98.5 50T671 678H385V158z"/><glyph unicode="Э" horiz-adv-x="1383" d="m58 205 79 85q12 13 29 13t35-15q38-35 76-60t82.5-41.5 97-24T575 155q101 0 189.5 34.5t156 100.5T1030 452.5t51 219.5H341v150h738q-12 116-54.5 206.5t-109 153.5-154.5 96.5-192 33.5q-94 0-158.5-20T303 1247.5t-69.5-44.5-45.5-20q-16 0-25.5 6.5T146 1206l-65 91q91 86 211 136.5t276 50.5q160 0 292-55t227-154 147-237.5 52-304.5-50-304-141-237T874.5 38.5 588-16q-182 0-311 58T58 205z"/><glyph unicode="Ю" horiz-adv-x="2138" d="M187 0v1467h199V811h317q11 148 63.5 272t139 213 204.5 138.5 260 49.5q152 0 275-55.5t211-155 135.5-237.5 47.5-303-47.5-302.5T1856 194 1645 40.5 1370-14q-142 0-260 48.5T905.5 171 767 382.5 703 655H386V0H187zm716 733q0-135 33-243t94-183.5 146.5-115T1370 152q106 0 192.5 39.5t147 115T1803 490t33 243-33 243-93.5 184-146.5 116.5-193 40.5q-108 0-193.5-40.5T1030 1160t-94-184-33-243z"/><glyph unicode="Я" horiz-adv-x="1361" d="m-4 0 380 536q61 90 144 128-88 16-153.5 51t-109 84.5-65 113T171 1050q0 94 34.5 170.5T306 1352t161.5 85 218.5 30h489V0H977v632H777q-28 0-52-4.5t-46.5-17-45-33.5-44.5-54L270 71q-18-33-50-52T145 0H-4zm371 1051q0-61 17.5-110t56-83 99.5-52 146-18h291v522H686q-85 0-145.5-18.5t-99.5-53-56.5-82T367 1051z"/><glyph unicode="а" horiz-adv-x="1017" d="M67 259q0 61 33.5 118T210 478t197.5 72.5T707 583v81q0 121-52.5 182.5T502 908q-68 0-113.5-17t-79-37.5T252 816t-47-17q-18 0-31.5 9.5T151 833l-33 58q86 83 185 124t220 41q87 0 154.5-29t114-80 70-123.5T885 664V0h-81q-27 0-41 8.5T740 43l-20 98q-41-38-80-67t-82-49-91.5-30.5T358-16 244.5.5 152 51t-62 85.5T67 259zm175 8q0-41 13-70.5t36-48.5 54.5-27.5T413 112q48 0 88 9.5t75 28 67.5 44T707 252v215q-126-4-215-20t-144.5-41.5T267 345t-25-78z"/><glyph unicode="б" horiz-adv-x="1198" d="M116 668q0 164 29.5 301t95.5 238.5T412 1371t256 75l370 32 11-95q3-32-9.5-53t-44.5-23l-312-26q-104-9-178.5-46T381 1135t-73.5-151T279 785q25 49 63.5 88.5t88.5 68 109 43T666 999q103 0 185.5-36T992 860.5t88.5-160.5 30.5-207q0-116-35.5-210t-101-160-157-101.5T612-14q-104 0-195 34.5T259.5 135t-105 210.5T116 668zm191-150q0-93 19.5-166.5t58-125 95-78.5T612 121q154 0 232.5 97.5T923 493q0 175-75.5 273T622 864q-73 0-131.5-23t-99-67T329 665.5 307 518z"/><glyph unicode="в" horiz-adv-x="1016" d="M144 0v1037h380q96 0 165-19.5T802 965t64.5-78 20.5-96q0-34-9.5-71T845 649t-62.5-61-98.5-42q119-20 183.5-82.5T932 300q0-76-30.5-131.5t-83-93.5-123-56.5T544 0H144zm175 128h224q102 0 161.5 47.5T764 306q0 37-11.5 67t-37 53-68 35T544 473H319V128zm0 461h200q45 0 83.5 12.5t66 35.5 43 55.5T727 764q0 29-10 56t-35 48-64.5 33.5T519 914H319V589z"/><glyph unicode="г" horiz-adv-x="845" d="M144 0v1037h673V898H328V0H144z"/><glyph unicode="д" horiz-adv-x="1265" d="M24 133h33q36 0 71.5 12.5t68 46.5 62 96.5 53 163 41 244.5 27.5 341h656V138h190v-439q0-27-15-41.5t-39-14.5h-111V0H188v-305q0-19-11.5-35.5T138-357H24v490zm321 0h514v761H530q-10-160-28.5-283T459 395.5t-53-157T345 133z"/><glyph unicode="е" horiz-adv-x="1081" d="M85 540q0 109 33.5 203T214 906t152.5 108.5T569 1054q93 0 172.5-31.5T879 932t90.5-145.5T1002 590q0-43-9-57.5T958 518H265q3-98 27-171t67-121.5T461.5 153 595 129q69 0 118.5 16t85.5 34.5 60 34 41 15.5q23 0 35-17l51-67q-34-41-81-71T804.5 24.5t-111-29T580-14q-108 0-198.5 36T225 128.5t-103 174T85 540zm186 92h568q0 63-18 116t-52.5 91.5T685 899t-112 21q-131 0-207-76.5T271 632z"/><glyph unicode="ж" horiz-adv-x="1613" d="m26 0 272 429q27 45 60.5 72.5T441 544q-39 12-66 36t-50 62L54 1037h144q27 0 48-13.5t34-37.5l220-328q23-34 54.5-51.5T629 589h89v448h177V589h87q87 0 131 69l220 328q12 24 34.5 37.5t48.5 13.5h144l-271-395q-24-38-51-62t-66-36q49-14 83-42t61-73L1588 0h-127q-49 0-75 15.5T1346 63l-202 323q-50 80-145 80H895V-1H718v467H614q-46 0-83-20.5T470 386L268 63q-15-33-41-48T152 0H26z"/><glyph unicode="з" horiz-adv-x="919" d="m55 145 51 67q12 17 35 17 18 0 39.5-15.5t52-35 75-35.5T417 127q56 0 100.5 14t75.5 38.5 47 58 16 73.5q0 77-64 124t-194 47H281v121h117q56 0 101.5 12t77 32.5 48 49.5 16.5 63q0 31-14 58.5t-42 48-70 32.5-98 12q-61 0-104-12t-72-26.5-47.5-26.5-31.5-12-22 5-19 21l-42 71q58 55 141.5 89t201.5 34q94 0 165.5-23T708 970t74-86.5T807 782q0-31-10-64.5t-32.5-64-58-57.5-89.5-43q99-30 156-95.5T830 297q0-72-32.5-129.5t-88-98T581 7.5 428-14q-50 0-102 9T225 24t-92.5 49.5T55 145z"/><glyph unicode="и" horiz-adv-x="1178" d="M144-1v1037h184V332q0-19-2-42.5t-5-46.5q9 19 18 36t18 31l501 681q11 16 28.5 31t38.5 15h109V0H852v705q0 20 2 43.5t5 47.5q-9-20-18.5-38T821 726L321 45q-11-16-28.5-31T255-1H144z"/><glyph unicode="й" horiz-adv-x="1178" d="M144-1v1037h184V332q0-19-2-42.5t-5-46.5q9 19 18 36t18 31l501 681q11 16 28.5 31t38.5 15h109V0H852v705q0 20 2 43.5t5 47.5q-9-20-18.5-38T821 726L321 45q-11-16-28.5-31T255-1H144zm159 1413q0 20 10 37.5t30 17.5h106q0-49 8-82.5t26-55 47-31.5 71-10 70.5 10 46.5 31.5 26 55 8 82.5h107q19 0 29.5-17t10.5-38q0-51-20.5-92t-59-70-94-44.5T601 1190q-70 0-125.5 15.5T382 1250t-58.5 70-20.5 92z"/><glyph unicode="к" horiz-adv-x="1059" d="M144-1v1038h184V589h98q82 0 128 69l220 328q14 23 38 37t50 14h143L735 642q-25-38-51.5-62T618 543q49-13 83-41.5t61-72.5L1034 0H907q-49 0-75.5 16.5T785 63L584 386q-48 80-145 80H328V-1H144z"/><glyph unicode="л" horiz-adv-x="1198" d="M0 14v116h53q35 0 71 12.5t70 47 66 97.5 58 164 45 245 29 341h662V0H871v894H544q-12-198-37-341.5T448 308t-76.5-164-89-98T186-1 87-13Q0-13 0 14z"/><glyph unicode="м" horiz-adv-x="1444" d="M144 0v1040h147q19 0 37.5-8.5T360 999l324-540q24-47 42-100 17 54 41 100l317 540q13 25 32 33t38 8h146V0h-164v689q0 29 3.5 64t9.5 66L788 187q-8-15-21-24t-31-9h-20q-17 0-31 9t-22 24L296 821q5-31 9-67t4-65V0H144z"/><glyph unicode="н" horiz-adv-x="1153" d="M144 0v1037h184V624h497v413h184V0H825v485H328V0H144z"/><glyph unicode="о" horiz-adv-x="1161" d="M86 519q0 122 34.5 221t99 168.5 156 107.5 206.5 38q114 0 205-38t155.5-107.5T1041 740t34-221q0-123-34-221t-98.5-168-156-107T582-14q-115 0-206.5 37t-156 107-99 168T86 519zm187-1q0-184 76.5-287T582 128q154 0 229.5 103T887 518q0 185-76 288.5T582 910q-78 0-136-26.5T349.5 807 292 683.5 273 518z"/><glyph unicode="п" horiz-adv-x="1153" d="M144 0v1037h865V0H825v898H328V0H144z"/><glyph unicode="р" horiz-adv-x="1146" d="M144-351v1388h110q39 0 48-38l16-122q66 81 152 130t197 49q90 0 162.5-34.5t124-101.5 79-166.5T1060 525q0-115-31-213.5T940.5 141t-141-113.5T611-14q-95 0-163 32t-120 90v-459H144zm184 601q50-68 109.5-95.5T570 127q145 0 223 103.5T871 525q0 101-17.5 174T802 818.5t-83 68T607 908q-89 0-156-41T328 752V250z"/><glyph unicode="с" horiz-adv-x="977" d="M86 519q0 116 32.5 214t94 169.5T365 1014t208 40q110 0 193.5-35.5T914 919l-48-66q-8-11-16-17.5t-23-6.5-33.5 13-45.5 28.5-66.5 28T585 911q-77 0-135.5-27t-98-78T292 682t-20-163q0-94 21.5-167t61-123 95.5-76 125-26q67 0 110 16t71 35.5 47 35 38 15.5q23 0 35-17l51-67q-34-42-77-71.5T757.5 24t-104-29T543-14q-97 0-180.5 35.5t-145 104T121 293 86 519z"/><glyph unicode="т" horiz-adv-x="1035" d="M28 898v139h979V898H608V0H426v898H28z"/><glyph unicode="у" horiz-adv-x="1055" d="M22 1037h157q24 0 37.5-11.5T236 999l277-653q16-43 28-90 14 48 30 91l270 652q6 16 21 27t33 11h144L461-306q-9-20-23-32.5T395-351H260L450 60z"/><glyph unicode="ф" horiz-adv-x="1443" d="M83 519q0 118 38.5 213.5t110 165.5 174 110 230.5 45v414h172v-414q128-5 230.5-45t174-110 110-165.5T1361 519t-38.5-213.5-110-164.5-174-109T808-13v-344H636v344Q508-8 405.5 32t-174 109-110 164.5T83 519zm183-1q0-88 24-158.5T361.5 238 479 157.5 640 124l1 6v785q-92-5-161.5-34T362 801t-72-123-24-160zm536-385 1-9q91 4 161 33.5t117.5 80.5 72 121.5T1178 518q0 89-24.5 160.5t-72 122.5T964 881t-162 34V133z"/><glyph unicode="х" horiz-adv-x="1019" d="m24 0 363 532-349 505h175q23 0 33-7t18-20l255-389q8 30 26 57l223 328q9 14 20 22.5t26 8.5h168L633 542 996 0H821q-23 0-35.5 12T765 38L504 444q-4-14-9-28t-13-25L241 38q-10-14-22-26T186 0H24z"/><glyph unicode="ц" horiz-adv-x="1238" d="M144 0v1037h184V138h497v899h184V138h189v-439q0-27-15-41.5t-38-14.5h-112V0H144z"/><glyph unicode="ч" horiz-adv-x="1054" d="M83 694v343h183V722q0-75 30.5-118t88.5-59.5 144-9T727 569v468h182V0H727v440q-133-35-250.5-43.5t-205 18-138 93.5T83 694z"/><glyph unicode="ш" horiz-adv-x="1684" d="M144 0v1037h184V138h423v899h183V138h423v899h183V0H144z"/><glyph unicode="щ" horiz-adv-x="1770" d="M144 0v1037h184V138h423v899h183V138h423v899h183V138h191v-439q0-27-15-41.5t-39-14.5h-112V0H144z"/><glyph unicode="ъ" horiz-adv-x="1196" d="M29 896v141h506V631h220q108 0 181-25.5t118-68.5 64.5-99.5T1138 321q0-70-24.5-129t-73-101.5-119-66.5T759 0H360v896H29zm506-763h223q55 0 95.5 14t67.5 39 40.5 59 13.5 73q0 37-12 69.5t-38 57-67.5 39T756 498H535V133z"/><glyph unicode="ы" horiz-adv-x="1477" d="M144 0v1037h174V631h222q108 0 181-25.5T838.5 537t64-99.5T922 321q0-70-25-129T824 90.5 705.5 24 543 0H144zm174 133h225q55 0 95.5 14t67 39 40 59 13.5 73q0 37-11.5 69.5t-37.5 57-68 39T540 498H318V133zM1150 0v1037h182V0h-182z"/><glyph unicode="ь" horiz-adv-x="980" d="M144 0v1037h175V631h221q108 0 181-25.5T838.5 537t64-99.5T922 321q0-70-25-129T824 90.5 705.5 24 543 0H144zm175 133h224q55 0 95.5 14t67 39 40 59 13.5 73q0 37-11.5 69.5t-37.5 57-68 39T540 498H319V133z"/><glyph unicode="э" horiz-adv-x="988" d="m61 145 49 61q12 17 34 17 18 0 38-14.5t49-33 72-33.5 110-15q65 0 118 22.5t93 65.5 64.5 106T719 466H227v127h490q-16 150-96 234t-218 84q-57 0-97-11.5t-67.5-26-46.5-26-34-11.5q-14 0-22.5 5.5T119 858l-46 61q65 65 148.5 100t192.5 35q118 0 209-40t153-111.5T870 733t32-214q0-127-35.5-226T770 125.5t-144.5-104T444-14q-113 0-214 38T61 145z"/><glyph unicode="ю" horiz-adv-x="1602" d="M144 0v1037h184V590h252q9 106 44 192t95 146.5 141.5 93T1043 1054q109 0 196.5-38t149-107.5 95-168.5 33.5-221q0-123-34-221t-96.5-168T1237 23t-194-37q-103 0-185.5 32.5t-142 93.5T621 260t-42 197H328V0H144zm615 518q0-184 70.5-287T1043 128t214 103 71 287q0 185-70.5 288.5T1043 910q-143 0-213.5-103.5T759 518z"/><glyph unicode="я" horiz-adv-x="1009" d="m14 0 301 391q37 61 98 82-79 10-133.5 37T191 573t-49.5 80-15.5 89q0 53 21 106.5t67 95 119.5 67.5 177.5 26h353V0H690v437h-80q-29 0-47.5-4.5T530 420t-24-21-22-29L257 63q-17-33-42.5-48T141 0H14zm295 732q0-84 61.5-131.5T539 553h151v361H516q-58 0-98-16.5t-64-43-34.5-58.5-10.5-64z"/><glyph unicode="ѐ" horiz-adv-x="1081" d="M85 540q0 109 33.5 203T214 906t152.5 108.5T569 1054q93 0 172.5-31.5T879 932t90.5-145.5T1002 590q0-43-9-57.5T958 518H265q3-98 27-171t67-121.5T461.5 153 595 129q69 0 118.5 16t85.5 34.5 60 34 41 15.5q23 0 35-17l51-67q-34-41-81-71T804.5 24.5t-111-29T580-14q-108 0-198.5 36T225 128.5t-103 174T85 540zm186 92h568q0 63-18 116t-52.5 91.5T685 899t-112 21q-131 0-207-76.5T271 632zm27 852h173q34 0 50.5-11t30.5-34l153-248H600q-22 0-35 6.5t-27 22.5z"/><glyph unicode="ё" horiz-adv-x="1081" d="M85 540q0 109 33.5 203T214 906t152.5 108.5T569 1054q93 0 172.5-31.5T879 932t90.5-145.5T1002 590q0-43-9-57.5T958 518H265q3-98 27-171t67-121.5T461.5 153 595 129q69 0 118.5 16t85.5 34.5 60 34 41 15.5q23 0 35-17l51-67q-34-41-81-71T804.5 24.5t-111-29T580-14q-108 0-198.5 36T225 128.5t-103 174T85 540zm178 780q0 24 9.5 45t25.5 37 36 25.5 43 9.5q24 0 45-9.5t37-25.5 25.5-37 9.5-45-9.5-44.5T459 1240t-37-24.5-45-9.5q-23 0-43 9.5t-36 24.5-25.5 35.5-9.5 44.5zm8-688h568q0 63-18 116t-52.5 91.5T685 899t-112 21q-131 0-207-76.5T271 632zm382 688q0 24 9.5 45t25 37 36.5 25.5 44 9.5q24 0 45-9.5t36.5-25.5 25-37 9.5-45-9.5-44.5-25-35.5-36.5-24.5-45-9.5-44.5 9.5-36 24.5-25 35.5-9.5 44.5z"/><glyph unicode="ђ" horiz-adv-x="1128" d="M-42 1125v142h186v241h183v-241h360v-142H327V811q66 70 147.5 112.5T660 966q184 0 275-118.5t91-335.5q0-230-70-442.5T760-340l-148 58q54 92 97.5 184.5t73 189.5 45 200.5T843 512q0 157-63 233t-173 76q-81 0-151-39T327 676V0H144v1125H-42z"/><glyph unicode="ѓ" horiz-adv-x="845" d="M144 0v1037h673V898H328V0H144zm192 1191 152 248q14 24 31 34.5t49 10.5h179l-239-264q-14-15-28-22t-35-7H336z"/><glyph unicode="є" horiz-adv-x="988" d="M86 519q0 116 32.5 214t94 169.5T365 1014t208 40q110 0 193.5-35.5T914 919l-46-61q-8-11-16-16.5t-23-5.5-33.5 11.5-46 26-67.5 26-97 11.5q-69 0-123-22t-94-63-64-100-33-133h490V466H269q6-82 31-145t64.5-106 93-65.5T575 127q67 0 110 15t72 33.5 48 33 38 14.5q24 0 35-17l49-61q-34-42-77-71.5T757.5 24t-104-29T543-14q-97 0-180.5 35.5t-145 104T121 293 86 519z"/><glyph unicode="ѕ" horiz-adv-x="886" d="m69 110 43 69q8 13 19 20.5t29 7.5 38.5-14.5 50-32 71-31.5T424 115q53 0 93 13.5t66.5 37T623 220t13 66q0 43-23 71t-61 48-86.5 35-99.5 31-99.5 37-86.5 53-61 78.5T96 753q0 59 24.5 114t72 96.5 116 66T465 1054q102 0 183.5-32.5T790 933l-41-67q-12-23-38-22-15 0-35 11t-48 25-67 26-92 12q-46 0-83-12t-63-32.5-40-47.5-14-59q0-40 23-66.5t61-46 86-34.5 99-32 99-37.5 86-51 61-75T807 317q0-72-25.5-132.5t-76-105-123-70T415-16q-109 0-197 35T69 110z"/><glyph unicode="і" horiz-adv-x="491" d="M116 1363q0 27 10 51t27.5 42 40.5 28 50 10 50.5-10 41.5-28 29-42 11-51-11-50-29-41-42-28-50-10q-27 0-50 10t-40.5 28-27.5 41-10 50zM155 0v1037h182V0H155z"/><glyph unicode="ї" horiz-adv-x="491" d="M-25 1320q0 24 9.5 45t25 37 36 25.5T90 1437t44.5-9.5 37-25.5 26-37 9.5-45-9.5-44.5-26-35.5-37.5-24.5-44-9.5q-24 0-44.5 9.5t-36 24.5-25 35.5-9.5 44.5zM154 0v1037h183V0H154zm141 1320q0 24 9 45t24.5 37 36.5 25.5 44 9.5q24 0 45.5-9.5T492 1402t25-37 9-45-9-44.5-25-35.5-37.5-24.5-45.5-9.5-44.5 9.5-36 24.5-24.5 35.5-9 44.5z"/><glyph unicode="ј" horiz-adv-x="491" d="m-73-352 7 98q2 9 7 13.5t13 6 21 1 32-.5q80 0 114 37t34 120v1114h182V-77q0-62-16.5-116T268-287t-91.5-63T43-373q-33 0-60.5 5.5T-73-352zm189 1715q0 27 10 51t27.5 42 40.5 28 50 10 50-10 41-28 29-42 11-51-11-50-29-41-41.5-28-49.5-10q-27 0-50 10t-40.5 28-27.5 41-10 50z"/><glyph unicode="љ" horiz-adv-x="1715" d="M0 14v116h53q35 0 71 12.5t70 47 66 97.5 58 164 45 245 29 341h662V631h220q108 0 181-25.5t118-68.5 64.5-99.5T1657 321q0-70-25-129t-73.5-101.5-119-66.5T1278 0H871v894H544q-12-198-37-341.5T448 308t-76.5-164-89-98T186-1 87-13Q0-13 0 14zm1054 119h223q55 0 95.5 14t67.5 39 40.5 59 13.5 73q0 37-12 69.5t-38 57-68 39-102 14.5h-220V133z"/><glyph unicode="њ" horiz-adv-x="1671" d="M144 0v1037h184V624h497v413h184V631h220q108 0 181-25.5t118-68.5 64.5-99.5T1612 321q0-70-25-129t-73.5-101.5-119-66.5T1233 0H825v485H328V0H144zm865 133h223q55 0 95.5 14t67.5 39 40.5 59 13.5 73q0 37-12 69.5t-38 57-68 39-102 14.5h-220V133z"/><glyph unicode="ћ" horiz-adv-x="1142" d="M-13 1185v115h157v208h183v-208h300v-115H327V876q66 70 147.5 112.5T660 1031q85 0 150.5-28t109-80 66-124 22.5-160V0H825v639q0 117-53.5 182T607 886q-81 0-151-38.5T327 741V0H144v1185H-13z"/><glyph unicode="ќ" horiz-adv-x="1058" d="M144-1v1038h184V589h98q82 0 128 69l220 328q14 23 38 37t50 14h143L735 642q-25-38-51.5-62T618 543q49-13 83-41.5t61-72.5L1034 0H907q-49 0-75.5 16.5T785 63L584 386q-48 80-145 80H328V-1H144zm291 1192 152 248q14 24 31 34.5t49 10.5h179l-239-264q-14-15-28-22t-35-7H435z"/><glyph unicode="ѝ" horiz-adv-x="1178" d="M144-1v1037h184V332q0-19-2-42.5t-5-46.5q9 19 18 36t18 31l501 681q11 16 28.5 31t38.5 15h109V0H852v705q0 20 2 43.5t5 47.5q-9-20-18.5-38T821 726L321 45q-11-16-28.5-31T255-1H144zm181 1485h173q34 0 50.5-11t30.5-34l153-248H627q-22 0-35 6.5t-27 22.5z"/><glyph unicode="ў" horiz-adv-x="1055" d="M22 1037h157q24 0 37.5-11.5T236 999l277-653q16-43 28-90 14 48 30 91l270 652q6 16 21 27t33 11h144L461-306q-9-20-23-32.5T395-351H260L450 60zm235 375q0 20 10 37.5t30 17.5h106q0-49 8-82.5t26-55 47-31.5 71-10 70.5 10 46.5 31.5 26 55 8 82.5h107q19 0 29.5-17t10.5-38q0-51-20.5-92t-59-70-94-44.5T555 1190q-70 0-125.5 15.5T336 1250t-58.5 70-20.5 92z"/><glyph unicode="џ" horiz-adv-x="1153" d="M144 0v1037h184V138h497v899h184V0H659v-301q0-27-14.5-41.5T606-357H494V0H144z"/><glyph unicode="Ѡ" horiz-adv-x="2202" d="M105 746q0 153 29.5 287t92.5 234 161.5 157.5T626 1482q55 0 101.5-9.5T813 1447t72-39.5 61-49.5l-41-98q-11-16-19.5-21.5T863 1233q-13 0-29 12t-40.5 26.5-60 27T647 1311q-167 0-255.5-147.5T303 738q0-288 101.5-435.5T689 155q97 0 175 37.5T1001 298v509h200V299q59-68 137-106t175-38q184 0 285.5 148T1900 738q0 278-88.5 425.5T1556 1311q-51 0-86.5-12.5t-60.5-27-40.5-26.5-29.5-12q-13 0-21.5 5t-19.5 22l-42 98q29 27 62 50t71.5 39 85.5 25.5 102 9.5q139 0 237.5-57.5T1976 1267t92-234 29-287q0-181-38.5-322.5t-111-239.5T1770 35t-238-51q-132 0-239 48.5T1102 168q-85-87-192-135.5T671-16 434 35 255.5 184t-112 239.5T105 746z"/><glyph unicode="ѡ" horiz-adv-x="1590" d="M120 630v407h122q30 0 42-18t12-38V649q0-151 54-269.5T503 169q43 42 80.5 97.5t65 118T692 515t16 134v388h121q29 0 42-18t13-38V656q0-67 14-133.5t41.5-130 65-120.5 84.5-103q45 44 84.5 98t69.5 120 47 144 17 172q0 65-7 112.5t-15.5 82-15 57-6.5 37.5q0 17 10 31t30 14h136q19-83 31.5-164t12.5-166q0-114-21-213t-61-186.5-97-163.5T1176 0h-108q-15 0-25 6t-22 20q-68 67-127.5 163.5T796 396q-19-54-44.5-106T697 190t-62-90-67-75q-11-13-18-19t-23-6H416q-66 61-120 133t-93.5 152-61 167T120 630z"/><glyph unicode="Ѣ" horiz-adv-x="1484" d="M55 1092v149h371v226h198v-226h455v-149H624V836h285q134 0 231.5-29.5t160.5-82 93-125.5 30-159q0-101-34-182.5t-100-139-162.5-88T908 0H426v1092H55zm569-934h284q85 0 146 19.5t99.5 53.5 56.5 82.5 18 107.5q0 61-18 109t-56.5 81-99 50T909 678H624V158z"/><glyph unicode="ѣ" horiz-adv-x="1153" d="M31 895v140h273v292h174v-292h332V895H478V631h241q108 0 181-25.5t118-68.5 64.5-99.5T1102 321q0-70-25-129t-73.5-101.5-119-66.5T723 0H304v895H31zm447-762h244q55 0 95.5 14t67.5 39 40.5 59 13.5 73q0 37-12 69.5t-38 57-67.5 39T720 498H478V133z"/><glyph unicode="Ѥ" horiz-adv-x="1950" d="M187 0v1467h199V822h329q13 148 68.5 270t145 209.5 209 135T1401 1484q151 0 266.5-51t202.5-136l-66-91q-6-10-15.5-16.5t-26.5-6.5-42 20-66.5 44.5T1551 1292t-151 20q-98 0-181-33.5t-146-96.5-103.5-153.5T918 822h673V672H915q8-123 49-219.5T1068.5 290t147-100.5T1395 155q62 0 111.5 7.5t91 24T1676 228t73 60q17 15 35 15 16 0 28-13l79-85q-86-104-210.5-162.5T1382-16q-144 0-264 49.5t-207 140T773 391t-60 281H386V0H187z"/><glyph unicode="ѥ" horiz-adv-x="1424" d="M144 0v1037h178V593h205q11 101 51 185t103.5 144 148.5 93.5 186 33.5q109 0 192-36.5t143-98.5l-59-83q-5-8-13-13.5t-23-5.5-32 13.5-43.5 28.5-66.5 28.5-99 13.5q-61 0-113.5-20.5t-92.5-59-65.5-95T709 593h447V460H708q7-77 34-136.5T809.5 223t93-62.5T1015 139q39 0 70 4.5t57.5 15 51 26.5 47.5 38q15 13 29 13t25-12l70-76q-61-77-149.5-118T1004-11q-103 0-187.5 34t-146 96.5-98.5 149T526 460H322V0H144z"/><glyph unicode="Ѧ" horiz-adv-x="1427" d="m-1 0 619 1467h191L1428 0h-158q-27 0-43.5 13.5T1202 47L967 629H806V0H617v629H461L225 47q-7-18-24.5-32.5T158 0H-1zm519 772h391l-149 370q-11 29-23 66.5t-23 81.5q-11-44-23-82.5t-23-66.5z"/><glyph unicode="ѧ" horiz-adv-x="1138" d="m11 0 474 1037h168L1127 0H986q-24 0-38 11.5T927 40L764 407H651V0H484v407H375L212 40q-6-15-21-27.5T154 0H11zm420 532h277L608 757q-9 24-19 56.5T568 884q-19-79-38-128z"/><glyph unicode="Ѩ" horiz-adv-x="2037" d="M187 0v1467h199V772h549l294 695h190L2039 0h-159q-27 0-43 13.5T1812 47l-235 582h-161V0h-188v629h-157L836 47q-7-18-24.5-32.5T768 0H609l265 629H386V0H187zm941 772h392l-150 370q-11 29-23 66.5t-23 81.5q-11-44-23-82.5t-23-66.5z"/><glyph unicode="ѩ" horiz-adv-x="1606" d="M144 0v1037h178V532h402l230 505h169L1595 0h-141q-23 0-37 11.5T1396 40l-163 367h-113V0H954v407H844L682 40q-6-15-22-27.5T622 0H480l186 407H322V0H144zm756 532h278l-100 225q-20 50-40 126-9-38-19-71t-21-56z"/><glyph unicode="Ѫ" horiz-adv-x="1682" d="m26 0 193 503q29 74 63.5 131t82.5 96 112 60.5T628 815L99 1466h1483l-528-650q87-3 151.5-24.5t112.5-61 83-96 63-131.5L1658 0h-160q-26 0-42.5 14.5T1431 47l-155 437q-19 55-40.5 91.5T1185 634t-70.5 31-101.5 9h-75l-2-3h-3V0H744v672l-1 2h-72q-60 0-102-9t-71-31-50-58-40-92L252 47q-7-18-24.5-32.5T184 0H26zm395 1324 302-368q23-29 41.5-52t33-45 25.5-43 18-46q7 25 17.5 46t25 43 33.5 45.5 41 51.5l302 368H421z"/><glyph unicode="ѫ" horiz-adv-x="1313" d="m23 0 144 341q24 55 51 98t61.5 74 79 49T462 586L74 1036h1165L850 586q58-5 103-23t80.5-49 63-74.5T1148 341L1292 0h-141q-23 0-38 12.5T1091 40L982 326q-15 42-32.5 68.5t-40 41.5-52.5 20.5-70 5.5h-44l-1-1h-4V0H571v461h-2l-1 1h-40q-41 0-70.5-5.5t-52-20.5-40-41.5T333 326L224 40q-7-15-22.5-27.5T165 0H23zm345 910 187-203q19-25 35-45t29-38.5 22-37 15-39.5q6 22 15.5 40t22.5 36.5 29 38.5l36 45 186 203H368z"/><glyph unicode="Ѭ" horiz-adv-x="2294" d="M187 0v1467h199V816h854l-528 650h1483l-528-650q87-3 151.5-24.5t112.5-61 83-96 64-131.5L2270 0h-159q-26 0-43 14.5T2044 47l-155 437q-19 55-40 91.5t-50.5 58.5-70.5 31-102 9h-75l-2-3h-3V0h-188v671l-2 3h-84q-47 0-84.5-9t-68-30.5-55.5-58-44-92.5L863 47q-7-18-24.5-32.5T796 0H637l192 499q23 60 67.5 103.5T999 674H386V0H187zm847 1324 302-368q23-29 42-52t33-45 25-43 18-46q6 25 17 46t25 43 33 45.5 42 51.5l302 368h-839z"/><glyph unicode="ѭ" horiz-adv-x="1786" d="M144 0v1037h178V588h612l-387 448h1166l-390-450q58-5 103-23t80.5-49 63-74.5T1621 341L1765 0h-141q-23 0-38 12.5T1564 40l-109 286q-15 42-32.5 68.5t-40 41.5-52.5 20.5-69 5.5h-44l-2-1h-4V0h-165v461h-3l-1 1h-49q-33 0-60.5-5.5T882 436t-42-41.5-34-68.5L694 40q-5-15-20.5-27.5T636 0H495l144 342q16 41 47 70t71 50H322V0H144zm697 910 187-203q39-49 64.5-84t37.5-78q11 43 37 77.5t65 84.5l185 203H841z"/><glyph unicode="Ѯ" horiz-adv-x="1140" d="M28-60q0 121 76.5 184.5T322 188q63 0 118-9t113-9q71 0 126 20t93 56 58 84 20 105q0 61-22 110t-64 83-102 51-136 17H326l-1 163h192q63 0 116.5 15.5t92.5 45 61 72.5 22 99q0 50-20.5 92t-60 72-95.5 46.5-128 16.5q-83 0-141-17.5t-98-38.5-65.5-38.5T157 1206q-29 0-46 31l-49 93q83 74 193 113t249 39q114 0 204.5-28t154-78 97.5-118.5 34-150.5q0-110-54-193.5T790 783q55-23 101-56t78-77 50-97.5 18-118.5q0-85-31.5-162T911 135.5t-158.5-95T531 5q-36 0-64 2.5T415.5 13 371 19t-42 3q-116 0-116-89 0-26 11.5-45.5T262-146t70-21 110-7q71 0 132.5 5t113.5 5q69 0 114.5-13.5t72-39 38-60.5 11.5-77q0-12-1-23t-6-19-13.5-13.5T880-415h-52q-1 29-8.5 48T795-336.5t-44.5 17T682-314q-26 0-47.5-1.5t-44.5-4-51.5-4T470-325q-117 0-201 16.5T131.5-259 53-176.5 28-60z"/><glyph unicode="ѯ" horiz-adv-x="902" d="M27-80q0 46 14.5 86T86 74.5t73.5 45T261 136q34 0 72-5t77-5q55 0 97.5 14t71.5 38 44.5 56.5T639 305q0 81-64 129t-194 48H263v121h118q56 0 101 12t77 32.5 48.5 49.5 16.5 63q0 31-14 58.5t-42 48-70 32.5-99 12q-61 0-103.5-12T224 872.5 176.5 846 144 834q-13 0-21.5 5T102 860l-41 71q52 49 123.5 81t169.5 40l-210 247h106q20 0 34-5.5t25-20.5l112-128q5-8 11-17l12-18q9 17 23 35l86 110q23 29 53.5 42t65.5 13q20 0 36.5-4t31.5-10v-85h-20q-27 0-46-13t-34-31l-109-126q63-14 111.5-40t81.5-61 49.5-75.5T790 782q0-31-10-64.5t-32.5-64T689 596t-89-43q53-16 93.5-42.5t66.5-59 39.5-70.5 13.5-78q0-68-26.5-125T710 79 588 13.5 426-10q-48 0-89 5t-71 5q-44 0-68.5-19.5T173-78q0-54 43-79.5T336-183q23 0 51 1.5t58 3.5 60 3.5 56 1.5q69 0 114.5-14t72-39 38-60.5T797-364q0-12-1-22.5t-6-19-13.5-13.5-23.5-5h-52q-1 28-8.5 47.5t-24.5 31-44.5 16.5-68.5 5q-52 0-104.5-5T350-334q-70 0-128.5 16.5t-102 48.5-68 79.5T27-80z"/><glyph unicode="Ѱ" horiz-adv-x="1671" d="M101 943v524h132q33 0 50.5-20t17.5-49V943q0-98 24.5-175T403 637.5 538 554t196-35v948h200V519q115 5 197 35t135.5 83.5 78 130.5 24.5 175v455q0 30 17.5 49.5t49.5 19.5h132V943q0-130-41-235.5t-121-181T1208 408t-274-50V0H734v358q-156 6-274 49.5t-198 119-120.5 181T101 943z"/><glyph unicode="ѱ" horiz-adv-x="1563" d="M129 487v550h126q11 0 21.5-7t18-18 12-23 4.5-23V487q0-79 27-140t76-105.5 119.5-72T692 133v1334h182V133q82 7 154 31.5t125 74 84 127 31 190.5q0 72-7 128.5T1245.5 790t-17.5 93-16 92q-1 34 15.5 48t36.5 14h130q12-65 22.5-123.5t18-116.5 11.5-117 4-124q0-153-47-257.5t-126-171-183.5-99T874-12v-338H692v336Q553-6 447.5 32t-176 102T165 287t-36 200z"/><glyph unicode="Ѳ" horiz-adv-x="1639" d="M96 733q0 165 52.5 303T296 1273.5t228 155 295 55.5 295.5-55.5 229-155T1491 1036t52-303-52-302.5-147.5-237-229-154T819-15 524 39.5t-228 154-147.5 237T96 733zm205-61q8-122 48.5-217.5t108-162 159.5-101T819 157q112 0 203.5 34.5t158.5 101 107.5 162T1337 672H301zm2 150h1032q-12 115-53 206t-108 154-156.5 96.5T819 1312q-108 0-198-33.5T464.5 1182t-108-154T303 822z"/><glyph unicode="ѳ" horiz-adv-x="1161" d="M86 519q0 122 34.5 221t99 168.5 156 107.5 206.5 38q114 0 205-38t155.5-107.5T1041 740t34-221q0-123-34-221t-98.5-168-156-107T582-14q-115 0-206.5 37t-156 107-99 168T86 519zm179-56q11-164 91.5-252T582 123q143 0 223 88t91 252H265zm1 122h629q-14 159-93.5 245T582 916q-141 0-221-86.5T266 585z"/><glyph unicode="Ѵ" horiz-adv-x="1429" d="M3 1467h159q27 0 43-13t24-34L644 385q13-35 25.5-75.5T693 225q9 44 20.5 84.5T738 385l304 892q33 99 100.5 148t167.5 49q54 0 75.5-9.5t21.5-29.5v-124h-55q-45 0-79.5-27.5T1218 1202L779 0H601z"/><glyph unicode="ѵ" horiz-adv-x="1103" d="M22 1037h148q23 0 37-11t19-27l259-667q13-39 22.5-76.5T525 180q8 37 18 75t21 77l193 535q18 56 41.5 92t52 55.5 60.5 27 69 7.5q52 0 69.5-10.5t17.5-18.5V919h-30q-45 0-74.5-19.5T916 836L604 0H440z"/><glyph unicode="Ѷ" horiz-adv-x="1429" d="M3 1467h159q27 0 43-13t24-34L644 385q13-35 25.5-75.5T693 225q9 44 20.5 84.5T738 385l304 892q33 99 100.5 148t167.5 49q54 0 75.5-9.5t21.5-29.5v-124h-55q-45 0-79.5-27.5T1218 1202L779 0H601zm203 395h138q34 0 55.5-12t39.5-33l189-234h-98q-22 0-38 6.5t-31 21.5zm381 0h120q34 0 54.5-12t34.5-33l152-234h-88q-22 0-35 6.5t-27 21.5z"/><glyph unicode="ѷ" horiz-adv-x="1103" d="M22 1037h148q23 0 37-11t19-27l259-667q13-39 22.5-76.5T525 180q8 37 18 75t21 77l193 535q18 56 41.5 92t52 55.5 60.5 27 69 7.5q52 0 69.5-10.5t17.5-18.5V919h-30q-45 0-74.5-19.5T916 836L604 0H440zm56 447h133q34 0 50-11.5t31-33.5l185-248h-88q-20 0-34.5 6.5T326 1220zm321 0h121q34 0 51-11t30-34l141-248h-76q-22 0-36.5 6t-26.5 23z"/><glyph unicode="Ѹ" horiz-adv-x="2682" d="M97 733q0 165 52.5 303T297 1273.5t228 155 295 55.5 295.5-55.5 229-155T1492 1036t52-303-52-302.5-147.5-237-229-154T820-15 525 39.5t-228 154-147.5 237T97 733zm203 0q0-135 37-242t105-181 164-113.5T820 157q119 0 215 39.5T1199 310t104.5 181 36.5 242-36.5 242.5-104.5 182-164 114.5-215 40q-118 0-214-40t-164-114.5-105-182T300 733zm1352 304h157q24 0 37.5-11.5T1866 999l277-653q16-43 28-90 14 48 30 91l270 652q6 16 21 27t33 11h144L2091-306q-9-20-23-32.5t-43-12.5h-135l190 411z"/><glyph unicode="ѹ" horiz-adv-x="2203" d="M86 519q0 122 34.5 221t99 168.5 156 107.5 206.5 38q114 0 205-38t155.5-107.5T1041 740t34-221q0-123-34-221t-98.5-168-156-107T582-14q-115 0-206.5 37t-156 107-99 168T86 519zm187-1q0-184 76.5-287T582 128q154 0 229.5 103T887 518q0 185-76 288.5T582 910q-78 0-136-26.5T349.5 807 292 683.5 273 518zm897 519h157q24 0 37.5-11.5T1384 999l277-653q16-43 28-90 14 48 30 91l270 652q6 16 21 27t33 11h144L1609-306q-9-20-23-32.5t-43-12.5h-135l190 411z"/><glyph unicode="Ѻ" horiz-adv-x="1730" d="M96 733q0 153 45 283t128 227.5T468.5 1402t258.5 77q20 37 57 59.5t83 22.5 83.5-22.5 58.5-59.5q141-16 256-77.5t197-159 127-226.5 45-282q0-152-44.5-280.5T1463 227 1266 67.5 1010-10q-20-38-58-60.5T867-93t-84 22.5T726-10Q584 5 467.5 66t-199 158.5-127.5 227T96 733zm203 0q0-123 30.5-222.5T417 338t137.5-118T735 162q22 32 56 50t76 18 75.5-18 56.5-49q99 13 179 58.5t136.5 119 87 172.5 30.5 221-30.5 221.5-87 172.5-135.5 118-179 60q-22-32-56.5-50.5T867 1237q-43 0-77 18.5t-56 50.5q-100-13-180.5-58.5t-137-119-87-173T299 733z"/><glyph unicode="ѻ" horiz-adv-x="1287" d="M85 519q0 111 28.5 202.5t82 159.5T325 992t173 57q19 40 57 64.5t87 24.5q48 0 86-24.5t58-64.5q96-12 173.5-55.5T1091 882t82.5-160 28.5-203q0-112-28.5-204t-83-160T959 45 784-9q-20-39-57.5-61.5T642-93t-84.5 22.5T500-9Q404 3 327 45.5T196 156t-82.5 160T85 519zm188-1q0-159 55-256.5T496 137q19 42 57.5 67.5T642 230q49 0 89-25.5t59-67.5q114 27 169 124.5t55 256.5q0 160-56 259T787 902q-20-40-58.5-64T642 814q-49 0-86.5 24T498 901q-114-27-169.5-125.5T273 518z"/><glyph unicode="Ѽ" horiz-adv-x="2203" d="M106 746q0 153 29.5 287t92.5 234 161 157.5 238 57.5q55 0 101.5-9.5T814 1447t72-39.5 61-49.5l-42-98q-10-16-18.5-21.5T864 1233q-13 0-29.5 12t-41 26.5-60 27T647 1311q-167 0-255-147.5T304 738q0-288 101-435.5T690 155q120 0 203 58t133 156h153q49-98 132-156t203-58q183 0 285 148t102 435q0 278-89 425.5T1556 1311q-51 0-86-12.5t-60-27-40.5-26.5-29.5-12q-13 0-21.5 5t-20.5 22l-41 98q29 27 62 50t72 39 85 25.5 101 9.5q139 0 237.5-57.5T1976 1267t92-234 29-287q0-181-38.5-322.5t-111-239.5T1770 35t-237-51-239.5 48.5T1102 168q-83-87-190.5-135.5T672-16q-133 0-238 51T256 184 144.5 423.5 106 746zm660 946q0 117 67 180.5t185 63.5q49 0 92-10.5t84-27 82-35.5 84.5-35.5 92.5-27 107-10.5v-98q-95 0-170.5 22.5t-138 49.5-117.5 49.5-110 22.5q-68 0-105.5-37.5T881 1692H766zm269-69q0 38 23.5 61.5t66.5 23.5q49 0 76.5-33t27.5-91q0-36-11-67.5t-32.5-55.5-55-38-79.5-13v32q0 17 32 24 33 8 50.5 26.5t19.5 57.5q-6-2-12-3t-15-1q-49 0-70 22.5t-21 54.5z"/><glyph unicode="ѽ" horiz-adv-x="1598" d="M91 527q0 108 20.5 202.5T177 895t116.5 112 171.5 41q82 0 138.5-26.5T702 956l-36-89q-8-14-16.5-18t-19.5-4-23 8-28.5 17.5T539 888t-56 8q-104 0-160.5-94T266 519q0-186 61-283t185-97q80 0 133.5 39.5T733 290h133q34-72 88-111.5t133-39.5q124 0 185 97t61 283q0 188-56 282.5T1116 896q-33 0-56-8t-39-17.5-28.5-17.5-22.5-8q-11 0-19.5 4T933 867l-36 89q42 39 98.5 65.5T1135 1048q100 0 170.5-41T1421 895t65.5-165.5T1507 527q0-126-26.5-225.5t-78-169.5-127-106.5T1103-11q-93 0-167.5 32T800 114q-61-60-136-92.5T496-11q-97 0-173 36.5T195.5 132t-78 169.5T91 527zm371 782q0 116 66.5 179.5T713 1552q49 0 92-10.5t84.5-27T972 1479t84.5-35.5 92.5-27 106-10.5v-98q-96 0-170.5 22.5t-137 49.5-117.5 49.5-110 22.5q-68 0-106.5-37.5T575 1309H462zm269-70q0 38 23.5 61.5T821 1324q49 0 76.5-33t27.5-91q0-36-11-67.5t-33-55.5-55.5-37.5T745 1026v32q0 17 34 24 33 8 50 27t19 58q-12-5-27-5-49 0-69.5 22.5T731 1239z"/><glyph unicode="Ѿ" horiz-adv-x="2202" d="M105 746q0 153 29.5 287t92.5 234 161.5 157.5T626 1482q55 0 101.5-9.5T813 1447t72-39.5 61-49.5l-41-98q-11-16-19.5-21.5T863 1233q-13 0-29 12t-40.5 26.5-60 27T647 1311q-167 0-255.5-147.5T303 738q0-288 101.5-435.5T689 155q97 0 175 37.5T1001 298v509h200V299q59-68 137-106t175-38q184 0 285.5 148T1900 738q0 278-88.5 425.5T1556 1311q-51 0-86.5-12.5t-60.5-27-40.5-26.5-29.5-12q-13 0-21.5 5t-19.5 22l-42 98q29 27 62 50t71.5 39 85.5 25.5 102 9.5q139 0 237.5-57.5T1976 1267t92-234 29-287q0-181-38.5-322.5t-111-239.5T1770 35t-238-51q-132 0-239 48.5T1102 168q-85-87-192-135.5T671-16 434 35 255.5 184t-112 239.5T105 746zm557 1064h877q0-11-1-18.5t-3-19.5l-47-173q-3-11-11-16.5t-16.5-5.5-16.5 5.5-11 16.5l-28 117h-247l-31-117q-3-11-11-16.5t-16.5-5.5-16 5.5-10.5 16.5l-30 117H795l-30-117q-3-11-11.5-16.5T737 1577t-15.5 5.5T710 1599l-44 173q-2 9-3 18t-1 20z"/><glyph unicode="ѿ" horiz-adv-x="1590" d="M120 630v407h122q30 0 42-18t12-38V649q0-151 54-269.5T503 169q43 42 80.5 97.5t65 118T692 515t16 134v388h121q29 0 42-18t13-38V656q0-67 14-133.5t41.5-130 65-120.5 84.5-103q45 44 84.5 98t69.5 120 47 144 17 172q0 65-7 112.5t-15.5 82-15 57-6.5 37.5q0 17 10 31t30 14h136q19-83 31.5-164t12.5-166q0-114-21-213t-61-186.5-97-163.5T1176 0h-108q-15 0-25 6t-22 20q-68 67-127.5 163.5T796 396q-19-54-44.5-106T697 190t-62-90-67-75q-11-13-18-19t-23-6H416q-66 61-120 133t-93.5 152-61 167T120 630zm237 750h877q0-11-1-18.5t-3-19.5l-47-173q-3-11-11-16.5t-16.5-5.5-16.5 5.5-11 16.5l-28 117H853l-31-117q-3-11-11-16.5t-16.5-5.5-16 5.5T768 1169l-30 117H490l-30-117q-3-11-11.5-16.5T432 1147t-15.5 5.5T405 1169l-44 173q-2 9-3 18t-1 20z"/><glyph unicode="Ҁ" horiz-adv-x="1306" d="M97 733q0 166 52.5 304.5t147 237.5T523 1429t292 55q157 0 277-50.5t211-136.5l-65-91q-7-10-16.5-16.5t-25.5-6.5q-18 0-45 20t-70.5 44.5-108 44.5-158.5 20q-114 0-208-39.5T444 1158 338 975.5 300 733q0-137 38.5-244.5t107-182.5T607 192.5 810 154q49 0 80.5 4t52.5 9 35 9 32 4h56v-481q0-27-15-41.5t-38-14.5H901V-7q-27-2-56-3t-48-1q-159 0-288 53.5t-220 152T147.5 430 97 733z"/><glyph unicode="ҁ" horiz-adv-x="940" d="M86 519q0 116 32.5 214t94 169.5T365 1014t208 40q110 0 193.5-35.5T914 919l-48-66q-8-11-16-17.5t-23-6.5-33.5 13-45.5 28.5-66.5 28T585 911q-77 0-135.5-27t-98-78T292 682t-20-163q0-94 21.5-167t61-123 95.5-76 125-26q33 0 55.5 4t37.5 9 24 9.5 16 4.5h69v-455q0-27-14.5-41.5T724-357H611v346q-34-3-68-3-97 0-180.5 35.5t-145 104T121 293 86 519z"/><glyph unicode="҂" horiz-adv-x="1487" d="m52 715 90 135 390-269 281 407-388 267 90 137 391-271 248 361 152-103-249-361 379-262-90-134-381 262-282-407 380-261-90-136-382 263L343-16 191 86l249 361z"/><glyph unicode="҃" horiz-adv-x="0" d="M-12 1231q0 59 34 85t84 26h552v93h56q23 0 44-7t37.5-20.5 26-34 9.5-48.5q0-30-9-51.5t-25.5-34.5-38-19.5-45.5-6.5H161v-92h-56q-24 0-44.5 7t-37 20.5-26 34-9.5 48.5z"/><glyph unicode="҄" horiz-adv-x="0" d="M7 1181v111q60 0 111.5 12t96.5 29.5 86.5 38T386 1409t89.5 29 101.5 12q131 0 192.5-70.5T831 1181H701q0 42-11 71.5t-30 48-44 26.5-53 8q-44 0-83-11t-77-28.5-78.5-37.5-88-37.5T133 1192 7 1181z"/><glyph unicode="҅" horiz-adv-x="0" d="M309 1370q0 67 32 100t90 33q50 0 78.5-28t28.5-72q0-36-25-62.5t-82-26.5q-16 0-29 3 4-40 23-61t55-29q40-9 40-30v-39q-54 0-93.5 17.5T361 1222t-39 67.5-13 80.5z"/><glyph unicode="҆" horiz-adv-x="0" d="M309 1398q0 44 28.5 72t78.5 28q58 0 90-38.5t32-105.5q0-42-12.5-78.5t-38.5-64-65.5-43T328 1153v39q0 12 9 19t31 12q38 8 56.5 28t20.5 62q-6-2-13-3t-15-1q-58 0-83 26.5t-25 62.5z"/><glyph unicode="҈" horiz-adv-x="2291" d="M103 582q0 54 15.5 98.5t46 75.5 76 48.5T346 822t106-17.5 76.5-48.5 46-75.5T590 582H461q0 61-25 93t-90 32-90-32-25-93H103zm196-463q0 54 15.5 98.5t46 76T437 342t106 17 105.5-17 76.5-48.5 46-76 15-98.5H657q0 61-25.5 93T543 244q-65 0-90-32t-25-93H299zm0 925q0 54 15.5 99t46 76 76.5 48.5 106 17.5 105.5-17.5T725 1219t46-75.5 15-99.5H657q0 61-25.5 93t-88.5 32q-65 0-90-31.5t-25-93.5H299zM902-213q0 54 15.5 98.5t46 76 76.5 49T1146 28t105.5-17.5 76.5-49 46.5-76T1390-213h-129q0 61-26 93t-89 32q-65 0-90-32t-25-93H902zm0 1589q0 54 15.5 99t46 76 76.5 48.5 106 17.5 105.5-17.5 76.5-48.5 46.5-75.5 15.5-99.5h-129q0 61-26 93t-89 32q-65 0-90-31.5t-25-93.5H902zm603-1257q0 54 15.5 98.5t46 76T1643 342t106 17 106-17 76.5-48.5 46-76T1993 119h-129q0 61-26 93t-89 32q-65 0-90-32t-25-93h-129zm0 925q0 54 15.5 99t46 76 76.5 48.5 106 17.5 106-17.5 76.5-48.5 46-75.5 15.5-99.5h-129q0 61-26 93t-89 32q-65 0-90-31.5t-25-93.5h-129zm197-462q0 54 15.5 98.5T1763 756t76 48.5 106 17.5 105.5-17.5T2127 756t46-75.5 15-98.5h-128q0 61-25.5 93t-89.5 32q-63 0-88.5-32t-25.5-93h-129z"/><glyph unicode="҉" horiz-adv-x="2219" d="m80 755 26 27q6 8 12 11t14 3q12 0 25-15 10-9 28-24t41.5-30 51.5-28.5 61-18.5q0 3-.5 6t-.5 7q1 49 33 79.5t83 31.5q22 0 41-9t34-23 23-34.5 8-45.5q0-58-38.5-88T427 574q-43 0-89 12.5T246.5 622t-88 57T80 755zM313 31q-1 17 10 26 4 5 11.5 7t15.5 2q13 1 36.5 3t51 7.5 56.5 16 56 30.5q-2 2-5 4.5t-5 4.5q-34 34-32.5 78.5T544 291q32 32 75.5 32.5T698 288q41-42 34.5-89.5T686 111q-31-31-72-55t-89-40T423.5-6.5 314-8zm139 1429 38 1q17 1 27-9 5-4 6.5-11.5t1.5-16.5q1-14 3-37t8-50.5 16.5-57T583 1224q3 4 9 10 34 35 78.5 33t80.5-37q31-32 31-75.5t-34-79.5q-41-40-89.5-33.5T570 1087q-31 31-54.5 72t-39.5 89.5-23 102.5-1 109zM971-6q0 45 30.5 76t80.5 31q29 0 51-10t36.5-28.5 22-43T1199-33q0-43-12-89t-35.5-91.5-56.5-88-75-78.5l-29 27q-12 11-12 25 0 6 4 13t9 12q9 10 24.5 28t31 41.5T1076-182t18 61q-3 0-6.5-.5t-7.5-.5q-48 1-78.5 34T971-6zm64 1354q0 43 12 89t35 91.5 56 88 76 78.5l28-27q13-11 12-26 0-6-4-12.5t-9-11.5q-9-10-24-28t-30.5-41.5-28.5-52.5-18-60q3 0 6 .5t7 .5q49-1 79.5-34t31.5-82q-1-45-32-76.5t-81-31.5q-29 0-50.5 10.5t-36 29-22 43-7.5 52.5zm416.5-1187.5Q1451 204 1487 240q41 40 89 33.5t88-46.5q30-31 54-71.5t40-89.5 22.5-102.5T1782-145l-38-1q-10-1-16 1t-12 8q-8 8-8 27-1 13-2.5 37t-7 51.5-17 57T1652 91q-3-4-10-10-35-35-79-33.5T1483 85q-31 32-31.5 75.5zm50 956q6.5 47.5 45.5 87.5 31 31 72 55t89.5 40 102.5 22 109 2l1-39q1-16-10-27-4-5-11.5-6.5t-15.5-1.5q-14-1-36.5-3t-50.5-7.5-57.5-16.5-56.5-30q2-2 5.5-4.5t5.5-4.5q34-34 32.5-78.5T1690 1024q-32-32-75.5-32.5T1536 1027q-41 42-34.5 89.5zM1673 623q1 58 39.5 87.5T1807 740q43 0 89-12t91.5-35 88-57 77.5-76l-25-28q-10-13-27-13-12 0-24 15-10 9-28 23.5t-42 30-52.5 29T1894 635q1-4 1-13 0-49-32.5-79.5T1780 511q-22 0-41.5 8.5t-34 23-23 35-8.5 45.5z"/><glyph unicode="Ҋ" horiz-adv-x="1625" d="M187 0v1467h199V424q0-44-2-91.5T375 230q17 47 37 87t40 71l688 1017q14 24 36.5 43t52.5 19h147V156h202l-156-513h-193L1348 0h-170v1042q0 44 2 92t9 101q-17-46-36.5-86t-40.5-70L424 62q-14-24-36.5-43T335 0H187zm301 1777q0 22 10.5 38.5T528 1832h107q0-49 8-82.5t26-54 46.5-29.5 70.5-9 71 9 47 29.5 26 54 8 82.5h106q19 0 29.5-17t10.5-38q0-102-78.5-157.5T786 1564q-140 0-219 55t-79 158z"/><glyph unicode="ҋ" horiz-adv-x="1251" d="M144-1v1037h184V332q0-19-2-42.5t-5-46.5q9 19 18 36t18 31l501 681q11 16 28.5 31t38.5 15h109V138h197l-152-495H908L1027 0H852v705q0 20 2 43.5t5 47.5q-9-20-18.5-38T821 726L321 45q-11-16-28.5-31T255-1H144zm159 1413q0 20 10.5 37.5T343 1467h107q0-49 8-82.5t26-55 46.5-31.5 70.5-10 70.5 10 46.5 31.5 26.5 55 8.5 82.5h106q19 0 29.5-17t10.5-38q0-51-20.5-92t-59-70-93.5-44.5-125-15.5-125 15.5-93.5 44.5-59 70-20.5 92z"/><glyph unicode="Ҍ" horiz-adv-x="1347" d="M40 1094v150h250v223h197v-223h353v-150H487V836h286q134 0 231.5-29.5t160.5-82 93-125.5 30-159q0-101-34-182.5t-100.5-139-162.5-88T772 0H290v1094H40zm447-936h285q85 0 146 19.5t99.5 53.5 56.5 82.5 18 107.5q0 61-18 109t-56.5 81-99 50T773 678H487V158z"/><glyph unicode="ҍ" horiz-adv-x="1069" d="M46 792v132h187v130h175V924h226V792H408V631h220q108 0 181-25.5T927 537t64.5-99.5T1011 321q0-70-24.5-129t-73-101.5-119-66.5T632 0H233v792H46zm362-659h224q54 0 94.5 14t67.5 39 40.5 59 13.5 73q0 37-11.5 69.5t-37.5 57-68 39T629 498H408V133z"/><glyph unicode="Ҏ" horiz-adv-x="1229" d="M187 0v1467h434q139 0 242-32t170.5-91.5T1134 1200t33-187q0-135-60.5-238.5T927 612l94-145-119-77-114 175q-75-16-167-16H385V0H187zm198 707h236q19 0 37 1.5t35 3.5L589 871l120 78 124-192q68 40 102.5 105.5T970 1013q0 140-86.5 219T621 1311H385V707z"/><glyph unicode="ҏ" horiz-adv-x="1146" d="M144-351v1388h110q39 0 48-38l16-122q66 81 152 130t197 49q90 0 162.5-34.5t124-101.5 79-166.5T1060 525q0-153-53-273.5T856 60l105-160-119-77L726 0q-55-14-115-14-95 0-163 32t-120 90v-459H144zm184 601q50-68 109.5-95.5T570 127q39 0 69 7L528 304l120 78 118-182q52 51 78.5 132.5T871 525q0 101-17.5 174T802 818.5t-83 68T607 908q-89 0-156-41T328 752V250z"/><glyph unicode="Ґ" horiz-adv-x="1101" d="M187 0v1467h729v331h155v-487H386V0H187z"/><glyph unicode="ґ" horiz-adv-x="845" d="M144 0v1037h508v256h165V898H328V0H144z"/><glyph unicode="Ғ" horiz-adv-x="1206" d="M40 687v151h250v629h884v-156H488V838h352V687H488V0H290v687H40z"/><glyph unicode="ғ" horiz-adv-x="936" d="M47 470v132h187v435h672V898H417V602h219V470H417V0H234v470H47z"/><glyph unicode="Ҕ" horiz-adv-x="1295" d="M187 0v1467h884v-156H386V794q67 36 140 55t160 19q111 0 208.5-30.5t171-100 116-182.5 42.5-277q0-154-40-275t-112.5-204.5T899-329t-220-44q-100 0-208 29 3 30 6 58.5t5 58.5q2 17 13 27.5t33 10.5q17 0 48-9t82-9q84 0 154 28.5t119.5 87 77 148.5 27.5 213q0 129-28.5 215.5t-79.5 140-122.5 76T648 724q-48 0-87-7t-70-18-57-25-48-27V0H187z"/><glyph unicode="ҕ" horiz-adv-x="1001" d="M144 0v1037h673V898H328V524q48 37 105 57.5T562 602q88 0 158-31t118-90 73-144.5T936 142q0-119-31.5-214.5T819-235 691-338t-160-36q-39 0-76 4.5T378-353q1 13 2.5 24t2.5 21 2.5 21 2.5 25q2 15 12 25t28 10q13 0 33-6t51-6q52 0 96 21t76.5 65.5T735-37t18 171q0 93-18 156.5t-51 102-78.5 55T504 464q-65 0-105.5-19T328 404V0H144z"/><glyph unicode="Җ" horiz-adv-x="2229" d="m16 0 437 636q33 53 71 85t88 47q-44 14-74.5 42T478 881L51 1467h155q32 0 58-15.5t42-43.5l368-509q32-45 67-60t82-15h146v643h187V824h147q46 0 80.5 15t67.5 60l368 509q16 28 42.5 43.5t57.5 15.5h156l-428-586q-29-43-60-71t-74-42q49-16 88-47.5t72-84.5l329-480h221v-454q0-27-17.5-43t-45.5-16h-118V0h-66q-43 0-74.5 19T1850 71l-371 520q-28 43-63.5 62t-89.5 19h-170V0H969v672H800q-55 0-90.5-19T646 591L274 71q-18-33-49.5-52T150 0H16z"/><glyph unicode="җ" horiz-adv-x="1722" d="m26 0 272 429q27 45 60.5 72.5T441 544q-39 12-66 36t-50 62L54 1037h144q27 0 48-13.5t34-37.5l220-328q23-34 54.5-51.5T629 589h89v448h177V589h87q87 0 131 69l220 328q12 24 34.5 37.5t48.5 13.5h144l-271-395q-24-38-51-62t-66-36q49-14 83-42t61-73l184-291h203v-439q0-27-15-41.5t-38-14.5h-112V0h-77q-49 0-75 15.5T1346 63l-202 323q-50 80-145 80H895V-1H718v467H614q-46 0-83-20.5T470 386L268 63q-15-33-41-48T152 0H26z"/><glyph unicode="Ҙ" horiz-adv-x="1178" d="m43 177 57 94q8 11 20.5 19t26.5 8q22 0 51.5-23t76-50.5T387 174t161-23q81 0 145 19t107.5 56 66.5 90.5T890 436q0 57-22 105.5T804 624t-102.5 53T565 696H365v163h192q62 0 116 15.5t92.5 45T826 992t22 99q0 50-20.5 92t-59.5 72-95.5 46.5T545 1318q-83 0-141.5-17.5T305 1262t-65-38.5-43-17.5q-16 0-26.5 7.5T151 1237l-49 93q83 74 192.5 113t249.5 39q114 0 204.5-28t154-78 97.5-118.5 34-150.5q0-111-54.5-195T825 782q56-24 102.5-58t79.5-77 51-94 18-108q0-86-28-161.5T965.5 148 832 47.5 650-7q52-26 81.5-67.5T761-166q0-40-14.5-74t-41-60-63.5-40-83-14q-52 0-99.5 14.5T380-301l29 68q2 5 6.5 9t12.5 4q5 0 11.5-4t17-9 26-8.5T521-245q52 0 80.5 33t28.5 83q0 37-16.5 68.5T557-14h-14q-158 0-284 51.5T43 177z"/><glyph unicode="ҙ" horiz-adv-x="919" d="m55 145 51 67q12 17 35 17 18 0 39.5-15.5t52-35 75-35.5T417 127q56 0 100.5 14t75.5 38.5 47 58 16 73.5q0 77-64 124t-194 47H281v121h117q56 0 101.5 12t77 32.5 48 49.5 16.5 63q0 31-14 58.5t-42 48-70 32.5-98 12q-61 0-104-12t-72-26.5-47.5-26.5-31.5-12-22 5-19 21l-42 71q58 55 141.5 89t201.5 34q94 0 165.5-23T708 970t74-86.5T807 782q0-31-10-64.5t-32.5-64-58-57.5-89.5-43q99-30 156-95.5T830 297q0-58-22-108t-60.5-88T656 36.5 542-2q56-25 88-68.5t32-95.5q0-40-14.5-74t-41-60-63.5-40-83-14q-52 0-100 14.5T281-301l28 68q2 5 7 9t13 4q5 0 11.5-4t17-9 25.5-8.5 39-3.5q52 0 80 33t28 83q0 38-16 69.5T456-13q-7 0-14-.5t-14-.5q-50 0-102 9T225 24t-92.5 49.5T55 145z"/><glyph unicode="Қ" horiz-adv-x="1463" d="M187 0v1467h198V824h153q46 0 78 14.5t64 56.5l384 516q15 25 37 40.5t52 15.5h167L877 864q-50-71-129-97 54-14 91.5-45.5T910 635l339-479h207v-454q0-27-18-43t-45-16h-118V0h-94q-30 0-51 16t-39 46L702 600q-27 40-57.5 56T561 672H385V0H187z"/><glyph unicode="қ" horiz-adv-x="1167" d="M144-1v1038h184V589h98q82 0 128 69l220 328q14 23 38 37t50 14h143L735 642q-25-38-51.5-62T618 543q49-13 83-41.5t61-72.5l184-291h203v-439q0-27-15-41.5t-38-14.5H984V0h-77q-49 0-75.5 16.5T785 63L584 386q-48 80-145 80H328V-1H144z"/><glyph unicode="Ҝ" horiz-adv-x="1441" d="M187 0v1467h198V824h143v319h142V825q35 4 61.5 19t49.5 51l343 516q14 26 36.5 41t51.5 15h162L967 864q-24-37-54-60t-68-36q55-14 92-45t69-88L1413 0h-178q-59 0-90 62L799 600q-24 39-52.5 54.5T670 672V396H528v276H385V0H187z"/><glyph unicode="ҝ" horiz-adv-x="1137" d="M144-1v1038h184V589h112v244h124V593q30 6 53 22.5t37 42.5l184 328q10 25 35.5 38t52.5 13h142L835 642q-20-39-47-62.5T722 543q49-13 82.5-40.5T861 429L1097 0H972q-49 0-80 14.5T850 63L683 386q-17 36-48.5 55T564 465V196H440v270H328V-1H144z"/><glyph unicode="Ҟ" horiz-adv-x="1475" d="M40 1094v150h250v223h197v-223h292v-150H487V824h153q46 0 78.5 14.5T782 895l384 516q15 25 37.5 40.5t51.5 15.5h167L979 864q-50-71-129-97 54-14 91.5-45.5T1013 635L1461 0h-178q-30 0-51 16t-39 46L805 600q-27 40-57.5 56T664 672H487V0H290v1094H40z"/><glyph unicode="ҟ" horiz-adv-x="1147" d="M46 792v132h187v113h184V924h195V792H417V589h97q43 0 75 18t54 51l220 328q14 23 38 37t50 14h143L824 642q-24-38-51.5-62T708 544q49-14 82.5-42t60.5-73L1122 0H996q-49 0-75.5 16.5T874 63L673 386q-24 39-61.5 59.5T528 466H417V-1H233v793H46z"/><glyph unicode="Ҡ" horiz-adv-x="1637" d="M30 1306v161h619V824h152q46 0 78.5 14.5T944 895l384 516q15 25 36.5 40.5t51.5 15.5h168l-444-603q-26-37-58-60.5t-71-36.5q54-14 91.5-45.5T1175 635L1622 0h-177q-31 0-51.5 16T1355 62L967 600q-27 40-57.5 56T824 672H649V0H451v1306H30z"/><glyph unicode="ҡ" horiz-adv-x="1274" d="M29 896v141h514V589h98q84 0 128 69l221 328q14 23 37.5 37t49.5 14h144L951 642q-25-38-52-62t-64-36q49-14 82.5-42t60.5-73L1249 0h-126q-49 0-75.5 16.5T1001 63L800 386q-50 80-145 80H543V-1H360v897H29z"/><glyph unicode="Ң" horiz-adv-x="1654" d="M187 0v1467h199V813h792v654h198V156h225v-454q0-27-17.5-43t-46.5-16h-118V0h-241v668H386V0H187z"/><glyph unicode="ң" horiz-adv-x="1238" d="M144 0v1037h184V624h497v413h184V138h189v-439q0-27-15-41.5t-38-14.5h-112V0H825v485H328V0H144z"/><glyph unicode="Ҥ" horiz-adv-x="2092" d="M187 0v1467h199V813h792v654h883v-156h-685V0h-198v668H386V0H187z"/><glyph unicode="ҥ" horiz-adv-x="1527" d="M144 0v1037h184V624h497v413h673V898h-489V0H825v485H328V0H144z"/><glyph unicode="Ҧ" horiz-adv-x="2220" d="M187 0v1467h1132V795q67 35 139.5 54t159.5 19q111 0 208.5-30.5t171-100 116-182.5 42.5-277q0-154-40-275t-112.5-205-172-128-220.5-44q-99 0-207 29 2 30 5 59t6 59q2 16 13 27t32 11q18 0 49-9t82-9q84 0 154 28.5t119.5 87T1941 57t27 213q0 129-28 215.5t-79.5 140-122.5 76-157 22.5q-48 0-87-7t-70-18-57.5-25-47.5-27V0h-200v1311H386V0H187z"/><glyph unicode="ҧ" horiz-adv-x="1673" d="M144 0v1037h865V524q48 37 105 57.5t129 20.5q88 0 157.5-31t118-90 73.5-144.5 25-194.5q0-119-31.5-214.5T1500-235t-128-103-160-36q-39 0-76 4.5t-77 16.5q1 13 2 24t2.5 21 2.5 21 3 25q2 15 12 25t28 10q13 0 33-6t51-6q52 0 96 21t76.5 65.5T1416-37t18 171q0 93-18 156.5t-51 102-78.5 55T1185 464q-65 0-105.5-19t-70.5-41V0H825v898H328V0H144z"/><glyph unicode="Ҩ" horiz-adv-x="1701" d="M97 733q0 166 50.5 304T293 1273.5 525.5 1427t311.5 55q60 0 111.5-8.5T1067 1448l-10-75q-4-31-21-55t-41-24q-14 0-30 2.5t-37 6.5-48.5 6.5-65.5 2.5q-114 0-208-39.5T444 1158 338 975.5 300 733q0-137 37.5-244.5t105-182 160.5-113T808 155q46 0 87.5 5.5T975 177q-40 42-73 95t-57 118-37 142.5T795 702q0 115 23.5 202.5t67.5 147 108 89.5 146 30q90 0 156-36.5t109.5-100T1470 884t21-187q0-169-58.5-302.5T1273 167q45-15 86-21t74-6q61 0 101.5 9t66.5 9q24 0 41-16.5t21-47.5l11-76q-57-17-121-24.5T1423-14q-69 0-146.5 18T1123 62q-76-39-160.5-58.5T785-16q-153 0-279 54.5T289.5 192 148 429 97 733zm874-35q0-85 12-154t33-123 50-95.5 62-72.5q91 71 139 183.5t48 255.5q0 62-10 121.5t-31 106-53.5 74.5-79.5 28q-37 0-68-19t-54-58.5-35.5-101T971 698z"/><glyph unicode="ҩ" horiz-adv-x="1258" d="M85 519q0 116 32.5 214t94 169.5 153 111.5 208.5 40q34 0 68-5.5t68-16.5l-11-75q-4-31-18-40t-38-9q-12 1-27.5 2t-29.5 1q-77 0-135.5-27t-98-78T292 682t-20-163q0-94 23.5-168.5t68-125.5T470 147t141-27q22 0 42 2t39 6q-74 71-116 169t-42 220q0 80 21.5 142.5t60 105 94 65T833 852q69 0 125-24.5t97-69 63.5-106T1141 518q-1-112-50.5-210.5T957 135q49-16 109-16 27 0 43.5 3.5t33.5 5.5q30 0 43.5-12.5T1204 74l9-70q-29-9-65-14t-77-5q-71 0-134.5 14.5T816 42Q759 15 696.5.5T566-14q-100 0-188 35.5t-153 104T122.5 293 85 519zm621-5q0-100 35.5-181T840 199q62 53 95.5 132.5T969 506q0 93-34.5 146.5T836 706q-63 0-96.5-51T706 514z"/><glyph unicode="Ҫ" horiz-adv-x="1368" d="M97 733q0 166 52.5 304.5t147 237.5T523 1429t292 55q157 0 276.5-50.5T1303 1297l-66-91q-6-10-16-16.5t-26-6.5q-18 0-45 20t-70 44.5-107.5 44.5-158.5 20q-114 0-208-39.5T444 1158 338 975.5 300 733q0-137 39.5-244.5t107.5-182 160.5-113T808 155q66 0 118.5 7.5t97 24 83 41.5 76.5 60q17 15 35 15 16 0 28-13l79-85q-81-94-192-150.5T869-13q46-27 72-66.5t26-86.5q0-40-14.5-74t-41-60-63.5-40-83-14q-52 0-100 14.5T586-301l28 68q2 5 7 9t13 4q5 0 11.5-4t17-9 25.5-8.5 39-3.5q52 0 80.5 33t28.5 83q0 36-15.5 66.5T767-16q-152 5-275.5 61.5T280.5 201 145 435 97 733z"/><glyph unicode="ҫ" horiz-adv-x="977" d="M86 519q0 116 32.5 214t94 169.5T365 1014t208 40q110 0 193.5-35.5T914 919l-48-66q-8-11-16-17.5t-23-6.5-33.5 13-45.5 28.5-66.5 28T585 911q-77 0-135.5-27t-98-78T292 682t-20-163q0-94 21.5-167t61-123 95.5-76 125-26q67 0 110 16t71 35.5 47 35 38 15.5q23 0 35-17l51-67q-52-63-123.5-99.5T649-5q54-26 84-68t30-93q0-40-14.5-74t-41-60-63.5-40-83-14q-52 0-99.5 14.5T382-301l29 68q2 5 6.5 9t12.5 4q5 0 12-4t17-9 25.5-8.5T523-245q52 0 80.5 33t28.5 83q0 37-16.5 68.5T559-14h-16q-97 0-180.5 35.5t-145 104T121 293 86 519z"/><glyph unicode="Ҭ" horiz-adv-x="1217" d="M31 1300v167h1149v-167H705V156h224v-454q0-27-17.5-43T865-357H748V0H507v1300H31z"/><glyph unicode="ҭ" horiz-adv-x="1043" d="M28 898v139h979V898H608V138h191v-439q0-27-15-41.5T745-357H633V0H426v898H28z"/><glyph unicode="Ү" horiz-adv-x="1273" d="M0 1467h174q27 0 42-12.5t27-33.5l336-570q18-36 33-67.5t26-62.5q23 60 58 130l335 570q8 17 25 31.5t43 14.5h175L736 585V0H538v585z"/><glyph unicode="ү" horiz-adv-x="1050" d="M20 1037h150q22 0 35.5-11.5T225 999l263-625q13-35 22.5-69.5T527 237q14 69 40 137l268 625q6 15 19.5 26.5T888 1037h142L616 63v-414H434V63z"/><glyph unicode="Ұ" horiz-adv-x="1313" d="M19 1467h176q27 0 41.5-13t26.5-33l335-536q19-33 34-60t26-54q10 27 24.5 54t34.5 60l334 536q10 16 26 31t41 15h176L756 638v-89h320V398H756V0H558v398H238v151h320v89z"/><glyph unicode="ұ" horiz-adv-x="1058" d="M25 1037h149q22 0 35.5-11.5T229 999l264-625q13-35 22-69.5t16-67.5q14 69 40 137l268 625q6 15 19.5 26.5T892 1037h142L621 63v-85h232v-132H621v-197H438v197H206v132h232v85z"/><glyph unicode="Ҳ" horiz-adv-x="1399" d="m19 0 505 754-484 713h198q22 0 32-7t18-20l383-588q7 22 21 47l362 537q8 14 19 22.5t27 8.5h189L803 763l400-607h178v-454q0-27-17.5-43t-46.5-16h-118V0h-90q-23 0-35.5 12T1053 38L659 654q-8-25-18-42L258 38q-10-14-22-26T204 0H19z"/><glyph unicode="ҳ" horiz-adv-x="1118" d="m23 0 363 532-349 505h175q23 0 33-7t18-20l255-389q8 30 26 57l223 328q9 14 20 22.5t26 8.5h168L632 542l273-408v4h190v-439q0-27-15-41.5t-39-14.5H930V0H820q-23 0-35.5 12T764 38L503 444q-4-14-9-28t-13-25L240 38q-10-14-22-26T185 0H23z"/><glyph unicode="Ҵ" horiz-adv-x="1860" d="M30 1306v161h1042v-161H650V156h733v1311h200V156h224v-454q0-27-17.5-43t-46.5-16h-118V0H451v1306H30z"/><glyph unicode="ҵ" horiz-adv-x="1454" d="M29 896v141h795V896H543V138h498v899h183V138h190v-439q0-27-15-41.5t-38-14.5h-113V0H360v896H29z"/><glyph unicode="Ҷ" horiz-adv-x="1444" d="M94 988v479h199V987q0-101 41-163.5t125-87T669.5 723 968 779v688h199V156h225v-454q0-27-18-43t-47-16h-118V0H968v635q-117-31-227.5-49T533 569t-178 23.5T216.5 665t-90 129T94 988z"/><glyph unicode="ҷ" horiz-adv-x="1139" d="M83 694v343h183V722q0-75 30.5-118t88.5-59.5 144-9T727 569v468h182V138h191v-439q0-27-15-41.5t-38-14.5H934V0H727v440q-133-35-250.5-43.5t-205 18-138 93.5T83 694z"/><glyph unicode="Ҹ" horiz-adv-x="1353" d="M94 988v479h199V987q0-134 69.5-198.5T575 720v330h142V728q55 7 117.5 20T968 779v688h199V0H968v635q-130-35-251-52V303H575v266q-105-3-193.5 17t-152 69.5T130 786 94 988z"/><glyph unicode="ҹ" horiz-adv-x="1053" d="M82 694v343h183V722q0-90 43.5-134T438 536v297h124V539q73 9 164 30v468h182V0H726v440q-83-23-164-33V196H438v199q-79-2-144.5 13.5t-112.5 51-73 93T82 694z"/><glyph unicode="Һ" horiz-adv-x="1301" d="M187 0v1467h199V833q117 31 224 48.5T808.5 898 975 874t128-72 81.5-128.5T1213 479V0h-199v479q0 102-34.5 164.5t-109 87-194.5 13T386 687V0H187z"/><glyph unicode="һ" horiz-adv-x="1046" d="M144 0v1037h184V596q133 35 249.5 43.5t204-18 138.5-94T971 342V0H788v314q0 75-30 118t-88.5 59.5T525 501t-197-34V0H144z"/><glyph unicode="Ҽ" horiz-adv-x="1737" d="M31 985q0 41 8.5 79.5T67 1148l103-20q24-5 33-18.5t9-25.5-7.5-36.5T197 990q0-65 42-89.5T353 876h12q16 132 69 244t139.5 194 204 128 261.5 46q131 0 243-43.5t193-127 127.5-205T1649 836q0-58-13.5-79t-48.5-21H562q3-142 40.5-249.5t103.5-180 159-109 210-36.5q100 0 172 23t123 50.5 85.5 50.5 61.5 23q16 0 28.5-6.5T1566 285l59-75q-54-60-119.5-102.5t-139-70-152-39.5T1054-14q-148 0-274 49T562 179 416 414.5 358 736h-8q-63 0-121 11.5T127 787t-70 76-26 122zm538-109h888q0 100-30 182.5t-85 140.5-132 90-172 32q-102 0-183.5-32T714 1199.5t-95.5-140T569 876z"/><glyph unicode="ҽ" horiz-adv-x="1335" d="M54 741q0 41 9 79.5T90 904l69-14q23-6 30-18.5t7-23.5q0-12-8-37t-8-58q0-65 41.5-92T345 632q13 91 51.5 168.5t100 133.5 144 88 182.5 32q93 0 172.5-31.5T1133 932t90.5-145.5T1256 590q0-43-9-57.5t-35-14.5H519q3-98 27-171t67-121.5T715.5 153 849 129q69 0 118.5 16t85.5 34.5 60 34 41 15.5q23 0 35-17l51-67q-34-41-81-71t-100.5-49.5-111-29T834-14q-105 0-194.5 34.5t-155 102-104 167T339 518q-58 1-110.5 10t-91 33-61 67.5T54 741zm471-109h568q0 63-18 116t-52.5 91.5T939 899t-112 21q-131 0-207-76.5T525 632z"/><glyph unicode="Ҿ" horiz-adv-x="1737" d="M31 985q0 41 8.5 79.5T67 1148l103-20q24-5 33-18.5t9-25.5-7.5-36.5T197 990q0-65 42-89.5T353 876h12q16 132 69 244t139.5 194 204 128 261.5 46q131 0 243-43.5t193-127 127.5-205T1649 836q0-58-13.5-79t-48.5-21H562q3-142 40.5-249.5t103.5-180 159-109 210-36.5q100 0 172 23t123 50.5 85.5 50.5 61.5 23q16 0 28.5-6.5T1566 285l59-75q-93-102-214-154.5T1153-10v-341H970v341Q838 3 727 58.5T536 208 409 434.5 358 736h-8q-63 0-121 11.5T127 787t-70 76-26 122zm538-109h888q0 100-30 182.5t-85 140.5-132 90-172 32q-102 0-183.5-32T714 1199.5t-95.5-140T569 876z"/><glyph unicode="ҿ" horiz-adv-x="1335" d="M54 741q0 41 9 79.5T90 904l69-14q23-6 30-18.5t7-23.5q0-12-8-37t-8-58q0-65 41.5-92T345 632q13 91 51.5 168.5t100 133.5 144 88 182.5 32q93 0 172.5-31.5T1133 932t90.5-145.5T1256 590q0-43-9-57.5t-35-14.5H519q3-98 27-171t67-121.5T715.5 153 849 129q69 0 118.5 16t85.5 34.5 60 34 41 15.5q23 0 35-17l51-67q-57-68-144.5-106T912-10v-291q0-27-14.5-41.5T859-357H748V-8Q660 5 585.5 45.5T457 152.5t-84.5 158T339 518q-58 1-110.5 10t-91 33-61 67.5T54 741zm471-109h568q0 63-18 116t-52.5 91.5T939 899t-112 21q-131 0-207-76.5T525 632z"/><glyph unicode="Ӏ" horiz-adv-x="573" d="M187 0v1467h199V0H187z"/><glyph unicode="Ӂ" horiz-adv-x="2126" d="m17 0 437 636q33 53 71 85t88 47q-44 14-74.5 42T479 881L52 1467h155q32 0 58-15.5t42-43.5l368-509q32-45 67-60t82-15h146v643h187V824h147q46 0 80.5 15t67.5 60l368 509q16 28 42.5 43.5t57.5 15.5h156l-428-586q-29-43-59.5-71t-74.5-42q49-16 88-47.5t72-84.5L2109 0h-132q-43 0-74.5 19T1851 71l-371 520q-28 43-63.5 62t-89.5 19h-170V0H970v672H801q-55 0-90.5-19T647 591L275 71q-18-33-49.5-52T151 0H17zm749 1778q0 22 10 38.5t30 16.5h106q0-49 8-82.5t26-54 47-29.5 71-9 70.5 9 46.5 29.5 26 54 8 82.5h107q19 0 29.5-17t10.5-38q0-102-79-157.5t-219-55.5-219 55-79 158z"/><glyph unicode="ӂ" horiz-adv-x="1613" d="m26 0 272 429q27 45 60.5 72.5T441 544q-39 12-66 36t-50 62L54 1037h144q27 0 48-13.5t34-37.5l220-328q23-34 54.5-51.5T629 589h89v448h177V589h87q87 0 131 69l220 328q12 24 34.5 37.5t48.5 13.5h144l-271-395q-24-38-51-62t-66-36q49-14 83-42t61-73L1588 0h-127q-49 0-75 15.5T1346 63l-202 323q-50 80-145 80H895V-1H718v467H614q-46 0-83-20.5T470 386L268 63q-15-33-41-48T152 0H26zm483 1412q0 20 10 37.5t30 17.5h106q0-49 8-82.5t26-55 47-31.5 71-10 70.5 10 46.5 31.5 26 55 8 82.5h107q19 0 29.5-17t10.5-38q0-51-20.5-92t-59-70-94-44.5T807 1190q-70 0-125.5 15.5T588 1250t-58.5 70-20.5 92z"/><glyph unicode="Ӄ" horiz-adv-x="1435" d="M187 0v1467h198V824h153q46 0 78 14.5t64 56.5l384 516q15 25 37 40.5t52 15.5h167L877 864q-28-39-64-64 67-5 132-19t123-40.5 108.5-67.5 86.5-100.5 56.5-139.5 20.5-183q0-145-38.5-259.5t-110-194.5T1020-326t-224-43q-99 0-207 29 2 30 5 59t5 59q2 16 13 27t33 11q18 0 48.5-9.5T776-203q84 0 153 26.5T1048-95t77.5 138 27.5 197q0 92-19 160t-52 115.5-79 78.5-98 47.5T796 665t-114 7H385V0H187z"/><glyph unicode="ӄ" horiz-adv-x="1099" d="M144-1v1038h184V589h98q82 0 128 69l220 328q14 23 38 37t50 14h143L735 642q-18-28-37.5-48.5T654 559q85-2 152-28.5t113.5-80 71-132T1015 133q0-114-31.5-207.5t-85.5-160-128-103T610-374q-39 0-76 4.5T457-353q1 13 2.5 24t2.5 21 2.5 21 2.5 25q2 15 11.5 25t29.5 10q12 0 32-6t51-6q52 0 96 23t76.5 70 50 118T831 139q0 93-17.5 156T763 396t-78.5 54T583 466H328V-1H144z"/><glyph unicode="Ӆ" horiz-adv-x="1563" d="M-7 26v126h72q41 0 80.5 15.5t76.5 64T292 369t59.5 235.5 46 358T427 1467h871V156h235l-156-513h-193L1303 0h-203v1311H614q-14-283-38-491t-58.5-355.5-78-240-95-145.5-111-72.5T108-13q-55 0-85 9.5T-7 26z"/><glyph unicode="ӆ" horiz-adv-x="1288" d="M0 14v116h53q35 0 71 12.5t70 47 66 97.5 58 164 45 245 29 341h662V138h208l-151-495H940L1059 0H871v894H544q-12-198-37-341.5T448 308t-76.5-164-89-98T186-1 87-13Q0-13 0 14z"/><glyph unicode="Ӈ" horiz-adv-x="1563" d="M187 0v1467h199V813h792v654h198V113q0-117-30-207.5T1257.5-247 1113-341.5 915-374q-100 0-207 29 3 30 6 59t5 59q2 16 12.5 27t32.5 11q18 0 49-9t82-9q68 0 120.5 17t88.5 54.5 55 98 19 146.5v559H386V0H187z"/><glyph unicode="ӈ" horiz-adv-x="1153" d="M144 0v1037h184V624h497v413h184V32q0-111-26-188t-75-126-120.5-71T624-375q-43 0-78.5 5T470-353q1 13 2.5 24t2.5 21 2.5 21 2.5 25q2 14 12 24.5t29 10.5q12 0 31.5-6t61.5-6q46 0 85 12t67.5 42.5T810-101t15 135v451H328V0H144z"/><glyph unicode="Ӊ" horiz-adv-x="1641" d="M187 0v1467h199V813h792v654h198V156h235l-156-513h-192L1381 0h-203v668H386V0H187z"/><glyph unicode="ӊ" horiz-adv-x="1242" d="M144 0v1037h184V624h497v413h184V138h208l-151-495H894L1013 0H825v485H328V0H144z"/><glyph unicode="Ӌ" horiz-adv-x="1353" d="M94 988v479h199V987q0-101 41-163.5t125-87T669.5 723 968 779v688h199V0H925v-292q0-27-17.5-43T861-351H743v507h225v479q-117-31-227.5-49T533 569t-178 23.5T216.5 665t-90 129T94 988z"/><glyph unicode="ӌ" horiz-adv-x="1052" d="M82 694v343h183V722q0-75 30.5-118t88.5-59.5 144-9T726 569v468h182V0H701v-301q0-27-14.5-41.5T648-357H536v495h190v302q-133-35-250.5-43.5t-205 18-138 93.5T82 694z"/><glyph unicode="Ӎ" horiz-adv-x="1978" d="M187 0v1467h147q27 0 41-5t27-28l507-904q12-25 24-51t22-54q10 28 21.5 55t24.5 51l498 903q12 24 27 28.5t42 4.5h146V156h235l-156-513h-194L1718 0h-178v1078q0 22 1.5 46.5t3.5 50.5l-504-918q-24-46-71-46h-29q-48 0-72 46l-514 922q6-54 6-101V0H187z"/><glyph unicode="ӎ" horiz-adv-x="1532" d="M144 0v1040h147q19 0 37.5-8.5T360 999l324-540q24-47 42-100 17 54 41 100l317 540q13 25 32 33t38 8h146V138h207l-150-495h-171L1305 0h-169v689q0 29 3.5 64t9.5 66L788 187q-8-15-21-24t-31-9h-20q-17 0-31 9t-22 24L296 821q5-31 9-67t4-65V0H144z"/><glyph unicode="ӏ" horiz-adv-x="573" d="M187 0v1467h199V0H187z"/><glyph unicode="Ӑ" horiz-adv-x="1382" d="m4 0 587 1467h201L1378 0h-153q-27 0-43.5 13.5T1157 47l-137 354H362L224 47q-6-18-23.5-32.5T158 0H4zm389 1778q0 22 10 38.5t30 16.5h106q0-49 8-82.5t26-54 47-29.5 71-9 70.5 9 46.5 29.5 26 54 8 82.5h107q19 0 29.5-17t10.5-38q0-102-79-157.5T691 1565t-219 55-79 158zm24-1233h548l-231 597q-10 27-21.5 62t-21.5 75q-22-83-44-138z"/><glyph unicode="ӑ" horiz-adv-x="1017" d="M67 259q0 61 33.5 118T210 478t197.5 72.5T707 583v81q0 121-52.5 182.5T502 908q-68 0-113.5-17t-79-37.5T252 816t-47-17q-18 0-31.5 9.5T151 833l-33 58q86 83 185 124t220 41q87 0 154.5-29t114-80 70-123.5T885 664V0h-81q-27 0-41 8.5T740 43l-20 98q-41-38-80-67t-82-49-91.5-30.5T358-16 244.5.5 152 51t-62 85.5T67 259zm136 1153q0 20 10 37.5t30 17.5h106q0-49 8-82.5t26-55 47-31.5 71-10 70.5 10 46.5 31.5 26 55 8 82.5h107q19 0 29.5-17t10.5-38q0-51-20.5-92t-59-70-94-44.5T501 1190q-70 0-125.5 15.5T282 1250t-58.5 70-20.5 92zm39-1145q0-41 13-70.5t36-48.5 54.5-27.5T413 112q48 0 88 9.5t75 28 67.5 44T707 252v215q-126-4-215-20t-144.5-41.5T267 345t-25-78z"/><glyph unicode="Ӓ" horiz-adv-x="1382" d="m4 0 587 1467h201L1378 0h-153q-27 0-43.5 13.5T1157 47l-137 354H362L224 47q-6-18-23.5-32.5T158 0H4zm360 1706q0 24 9 45t24.5 36 35.5 24.5 42 9.5q23 0 43.5-9.5T555 1787t25-36 9-45q0-23-9-42.5t-25-35-37-24.5-43-9-42 9-35.5 24.5-24.5 35-9 42.5zm53-1161h548l-231 597q-10 27-21.5 62t-21.5 75q-22-83-44-138zm375 1161q0 24 8.5 45t24 36 36 24.5 44.5 9.5q23 0 43-9.5t35.5-24.5 24.5-36 9-45q0-23-9-42.5t-24.5-35-36-24.5-42.5-9q-24 0-44.5 9t-36 24.5-24 35-8.5 42.5z"/><glyph unicode="ӓ" horiz-adv-x="1017" d="M67 259q0 61 33.5 118T210 478t197.5 72.5T707 583v81q0 121-52.5 182.5T502 908q-68 0-113.5-17t-79-37.5T252 816t-47-17q-18 0-31.5 9.5T151 833l-33 58q86 83 185 124t220 41q87 0 154.5-29t114-80 70-123.5T885 664V0h-81q-27 0-41 8.5T740 43l-20 98q-41-38-80-67t-82-49-91.5-30.5T358-16 244.5.5 152 51t-62 85.5T67 259zm123 1061q0 24 9.5 45t25.5 37 36 25.5 43 9.5q24 0 45-9.5t37-25.5 25.5-37 9.5-45-9.5-44.5T386 1240t-37-24.5-45-9.5q-23 0-43 9.5t-36 24.5-25.5 35.5-9.5 44.5zm52-1053q0-41 13-70.5t36-48.5 54.5-27.5T413 112q48 0 88 9.5t75 28 67.5 44T707 252v215q-126-4-215-20t-144.5-41.5T267 345t-25-78zm338 1053q0 24 9.5 45t25 37 36.5 25.5 44 9.5q24 0 45-9.5t36.5-25.5 25-37 9.5-45-9.5-44.5-25-35.5-36.5-24.5-45-9.5-44.5 9.5-36 24.5-25 35.5-9.5 44.5z"/><glyph unicode="Ӕ" horiz-adv-x="1903" d="m-8 0 774 1467h1046v-161h-765l60-488h571V663h-552l62-501h624V0h-791l-50 401H402L218 46q-10-20-29.5-33T142 0H-8zm484 545h477l-96 773q-13-42-27.5-78.5T801 1171z"/><glyph unicode="ӕ" horiz-adv-x="1648" d="M70 273q0 61 33.5 121t109 107 197 77T709 612v52q0 121-52.5 185T504 913q-68 0-113.5-17.5t-78.5-39-57.5-39.5-47.5-18q-18 0-31.5 9.5T153 833l-33 58q86 83 178.5 124t208.5 41q123 0 197.5-52.5T813 859q55 90 144.5 142.5T1169 1054q84 0 157-33t126-95.5 84-152 31-204.5q0-42-8.5-56.5T1525 498H880q4-92 27.5-161.5t63-115.5 93-69 120.5-23q71 0 118 15t78 33.5 51 33 36 14.5q14 0 23-4.5t15-12.5l48-63q-34-41-78-71t-95-49.5-105-29-108-9.5q-121 0-217.5 57.5T796 220q-28-63-72-108t-99-74T509.5-3.5 388-16q-71 0-129 17.5T158.5 55 93 145.5 70 273zm175 10q0-89 51-130t134-41q58 0 109 18t89 56 59.5 94.5T709 413v85q-126-5-214.5-23t-144-46.5T270 363t-25-80zm637 328h523q0 67-16.5 124t-47.5 97.5-76 64-102 23.5q-62 0-111.5-21T967 838t-56.5-97.5T882 611z"/><glyph unicode="Ӗ" horiz-adv-x="1182" d="M187 0v1467h905v-161H386V818h571V663H386V162h707l-1-162H187zm168 1778q0 22 10 38.5t30 16.5h106q0-49 8-82.5t26-54 47-29.5 71-9 70.5 9 46.5 29.5 26 54 8 82.5h107q19 0 29.5-17t10.5-38q0-102-79-157.5T653 1565t-219 55-79 158z"/><glyph unicode="ӗ" horiz-adv-x="1081" d="M85 540q0 109 33.5 203T214 906t152.5 108.5T569 1054q93 0 172.5-31.5T879 932t90.5-145.5T1002 590q0-43-9-57.5T958 518H265q3-98 27-171t67-121.5T461.5 153 595 129q69 0 118.5 16t85.5 34.5 60 34 41 15.5q23 0 35-17l51-67q-34-41-81-71T804.5 24.5t-111-29T580-14q-108 0-198.5 36T225 128.5t-103 174T85 540zm186 92h568q0 63-18 116t-52.5 91.5T685 899t-112 21q-131 0-207-76.5T271 632zm5 780q0 20 10 37.5t30 17.5h106q0-49 8-82.5t26-55 47-31.5 71-10 70.5 10 46.5 31.5 26 55 8 82.5h107q19 0 29.5-17t10.5-38q0-51-20.5-92t-59-70-94-44.5T574 1190q-70 0-125.5 15.5T355 1250t-58.5 70-20.5 92z"/><glyph unicode="Ә" horiz-adv-x="1478" d="M90 637q0 30 3 49t10.5 30 19 15.5T152 736h1025q-3 142-40.5 250.5T1033 1167t-159.5 108.5T664 1312q-68 0-122-11t-97-27.5-76.5-35-60.5-35-48-27.5-39-11q-32 0-48 24l-59 74q54 60 119.5 103t138 70 152 39.5T685 1488q151 0 278.5-51.5t220-150.5 144.5-244.5 52-333.5q0-153-46.5-285T1199 193.5 984.5 41 698-14q-131 0-242 43.5T263.5 156 136 360 90 637zm192-40q0-100 30-182t85-140.5T528.5 184 699 152q102 0 184 31.5t141 89.5 96 140.5 49 183.5H282z"/><glyph unicode="ә" horiz-adv-x="1081" d="M79 449q0 43 9 57t35 14h693q-3 98-27 171.5T722.5 813 620 885t-134 24q-69 0-118.5-15.5t-85-34T223 825t-41-16q-24 0-35 18l-52 66q35 41 81.5 71t100.5 50 111 30 114 10q108 0 198.5-36.5t156.5-107 102.5-174T996 499q0-109-33-202.5T867.5 134t-152-108.5T512-14q-93 0-172.5 30.5t-137.5 90T111.5 252 79 449zm164-41q0-63 18-116t52-91.5 83.5-59.5T509 120q131 0 207 76t94 212H243z"/><glyph unicode="Ӛ" horiz-adv-x="1478" d="M90 637q0 30 3 49t10.5 30 19 15.5T152 736h1025q-3 142-40.5 250.5T1033 1167t-159.5 108.5T664 1312q-68 0-122-11t-97-27.5-76.5-35-60.5-35-48-27.5-39-11q-32 0-48 24l-59 74q54 60 119.5 103t138 70 152 39.5T685 1488q151 0 278.5-51.5t220-150.5 144.5-244.5 52-333.5q0-153-46.5-285T1199 193.5 984.5 41 698-14q-131 0-242 43.5T263.5 156 136 360 90 637zm192-40q0-100 30-182t85-140.5T528.5 184 699 152q102 0 184 31.5t141 89.5 96 140.5 49 183.5H282zm82 1109q0 24 9 45t24.5 36 35.5 24.5 42 9.5q23 0 43.5-9.5T555 1787t25-36 9-45q0-23-9-42.5t-25-35-37-24.5-43-9-42 9-35.5 24.5-24.5 35-9 42.5zm428 0q0 24 8.5 45t24 36 36 24.5 44.5 9.5q23 0 43-9.5t35.5-24.5 24.5-36 9-45q0-23-9-42.5t-24.5-35-36-24.5-42.5-9q-24 0-44.5 9t-36 24.5-24 35-8.5 42.5z"/><glyph unicode="ӛ" horiz-adv-x="1081" d="M79 449q0 43 9 57t35 14h693q-3 98-27 171.5T722.5 813 620 885t-134 24q-69 0-118.5-15.5t-85-34T223 825t-41-16q-24 0-35 18l-52 66q35 41 81.5 71t100.5 50 111 30 114 10q108 0 198.5-36.5t156.5-107 102.5-174T996 499q0-109-33-202.5T867.5 134t-152-108.5T512-14q-93 0-172.5 30.5t-137.5 90T111.5 252 79 449zm156 871q0 24 9.5 45t25.5 37 36 25.5 43 9.5q24 0 45-9.5t37-25.5 25.5-37 9.5-45-9.5-44.5T431 1240t-37-24.5-45-9.5q-23 0-43 9.5t-36 24.5-25.5 35.5-9.5 44.5zm8-912q0-63 18-116t52-91.5 83.5-59.5T509 120q131 0 207 76t94 212H243zm382 912q0 24 9.5 45t25 37 36.5 25.5 44 9.5q24 0 45-9.5t36.5-25.5 25-37 9.5-45-9.5-44.5-25-35.5-36.5-24.5-45-9.5-44.5 9.5-36 24.5-25 35.5-9.5 44.5z"/><glyph unicode="Ӝ" horiz-adv-x="2126" d="m17 0 437 636q33 53 71 85t88 47q-44 14-74.5 42T479 881L52 1467h155q32 0 58-15.5t42-43.5l368-509q32-45 67-60t82-15h146v643h187V824h147q46 0 80.5 15t67.5 60l368 509q16 28 42.5 43.5t57.5 15.5h156l-428-586q-29-43-59.5-71t-74.5-42q49-16 88-47.5t72-84.5L2109 0h-132q-43 0-74.5 19T1851 71l-371 520q-28 43-63.5 62t-89.5 19h-170V0H970v672H801q-55 0-90.5-19T647 591L275 71q-18-33-49.5-52T151 0H17zm720 1706q0 24 9 45t24.5 36 35.5 24.5 42 9.5q23 0 43.5-9.5T928 1787t25-36 9-45q0-23-9-42.5t-25-35-37-24.5-43-9-42 9-35.5 24.5-24.5 35-9 42.5zm428 0q0 24 8.5 45t24 36 36 24.5 44.5 9.5q23 0 43-9.5t35.5-24.5 24.5-36 9-45q0-23-9-42.5t-24.5-35-36-24.5-42.5-9q-24 0-44.5 9t-36 24.5-24 35-8.5 42.5z"/><glyph unicode="ӝ" horiz-adv-x="1613" d="m26 0 272 429q27 45 60.5 72.5T441 544q-39 12-66 36t-50 62L54 1037h144q27 0 48-13.5t34-37.5l220-328q23-34 54.5-51.5T629 589h89v448h177V589h87q87 0 131 69l220 328q12 24 34.5 37.5t48.5 13.5h144l-271-395q-24-38-51-62t-66-36q49-14 83-42t61-73L1588 0h-127q-49 0-75 15.5T1346 63l-202 323q-50 80-145 80H895V-1H718v467H614q-46 0-83-20.5T470 386L268 63q-15-33-41-48T152 0H26zm470 1320q0 24 9.5 45t25.5 37 36 25.5 43 9.5q24 0 45-9.5t37-25.5 25.5-37 9.5-45-9.5-44.5T692 1240t-37-24.5-45-9.5q-23 0-43 9.5t-36 24.5-25.5 35.5-9.5 44.5zm390 0q0 24 9.5 45t25 37 36.5 25.5 44 9.5q24 0 45-9.5t36.5-25.5 25-37 9.5-45-9.5-44.5-25-35.5-36.5-24.5-45-9.5-44.5 9.5-36 24.5-25 35.5-9.5 44.5z"/><glyph unicode="Ӟ" horiz-adv-x="1178" d="m43 177 57 94q8 11 20.5 19t26.5 8q22 0 51.5-23t76-50.5T387 174t161-23q81 0 145 19t107.5 56 66.5 90.5T890 436q0 57-22 105.5T804 624t-102.5 53T565 696H365v163h192q62 0 116 15.5t92.5 45T826 992t22 99q0 50-20.5 92t-59.5 72-95.5 46.5T545 1318q-83 0-141.5-17.5T305 1262t-65-38.5-43-17.5q-16 0-26.5 7.5T151 1237l-49 93q83 74 192.5 113t249.5 39q114 0 204.5-28t154-78 97.5-118.5 34-150.5q0-111-54.5-195T825 782q56-24 102.5-58t79.5-77 51-94 18-108q0-96-35.5-180t-104-146T769 21.5 543-14q-158 0-284 51.5T43 177zm194 1529q0 24 9 45t24.5 36 35.5 24.5 42 9.5q23 0 43.5-9.5T428 1787t25-36 9-45q0-23-9-42.5t-25-35-37-24.5-43-9-42 9-35.5 24.5-24.5 35-9 42.5zm428 0q0 24 8.5 45t24 36 36 24.5 44.5 9.5q23 0 43-9.5t35.5-24.5 24.5-36 9-45q0-23-9-42.5t-24.5-35-36-24.5-42.5-9q-24 0-44.5 9t-36 24.5-24 35-8.5 42.5z"/><glyph unicode="ӟ" horiz-adv-x="918" d="m55 145 51 67q12 17 35 17 18 0 39.5-15.5t52-35 75-35.5T417 127q56 0 100.5 14t75.5 38.5 47 58 16 73.5q0 77-64 124t-194 47H281v121h117q56 0 101.5 12t77 32.5 48 49.5 16.5 63q0 31-14 58.5t-42 48-70 32.5-98 12q-61 0-104-12t-72-26.5-47.5-26.5-31.5-12-22 5-19 21l-42 71q58 55 141.5 89t201.5 34q94 0 165.5-23T708 970t74-86.5T807 782q0-31-10-64.5t-32.5-64-58-57.5-89.5-43q99-30 156-95.5T830 297q0-72-32.5-129.5t-88-98T581 7.5 428-14q-50 0-102 9T225 24t-92.5 49.5T55 145zm73 1175q0 24 9.5 45t25.5 37 36 25.5 43 9.5q24 0 45-9.5t37-25.5 25.5-37 9.5-45-9.5-44.5T324 1240t-37-24.5-45-9.5q-23 0-43 9.5t-36 24.5-25.5 35.5-9.5 44.5zm390 0q0 24 9.5 45t25 37 36.5 25.5 44 9.5q24 0 45-9.5t36.5-25.5 25-37 9.5-45-9.5-44.5-25-35.5-36.5-24.5-45-9.5-44.5 9.5-36 24.5-25 35.5-9.5 44.5z"/><glyph unicode="Ӡ" horiz-adv-x="1202" d="m53 208 78 87q10 11 19 13t15 2q11 0 20.5-4t26.5-18q16-18 44.5-42t69-44.5 93.5-34T539 154q88 0 156.5 26.5t115 71.5 71 105.5T906 484q0 58-20.5 108.5T820 680t-117.5 58T524 759H358v84q0 16 6.5 33t22.5 33l404 397H95v161h973v-73q0-17-5.5-36.5T1036 1318L610 904q133-4 228-36.5t155.5-88 88-128.5 27.5-157q0-116-45.5-210.5t-123-161-181-102T541-15q-76 0-146.5 15t-133 44.5T146 115t-93 93z"/><glyph unicode="ӡ" horiz-adv-x="908" d="m-8-241 42 70q17 27 47 27 19 0 40-13.5t50.5-30 71-29.5T347-230q72 0 129.5 20.5t98.5 59 63 95T660 74q0 61-17.5 112.5t-53 88T498 331t-134 20H183v59q0 32 26 51l349 433H43v143h736v-78q0-24-10.5-43.5T742 880L405 475q112-4 194-34t135-81 79-120.5T839 86q0-96-32.5-179T711-237t-155-96-212-35q-122 0-206.5 36T-8-241z"/><glyph unicode="Ӣ" horiz-adv-x="1563" d="M187 0v1467h199V424q0-44-2-91.5T375 230q17 47 37 87t40 71l688 1017q14 24 36.5 43t52.5 19h147V0h-198v1042q0 44 2 92t9 101q-17-46-36.5-86t-40.5-70L424 62q-14-24-36.5-43T335 0H187zm314 1626v108h571v-108H501z"/><glyph unicode="ӣ" horiz-adv-x="1178" d="M144-1v1037h184V332q0-19-2-42.5t-5-46.5q9 19 18 36t18 31l501 681q11 16 28.5 31t38.5 15h109V0H852v705q0 20 2 43.5t5 47.5q-9-20-18.5-38T821 726L321 45q-11-16-28.5-31T255-1H144zm163 1262v119h587v-119H307z"/><glyph unicode="Ӥ" horiz-adv-x="1563" d="M187 0v1467h199V424q0-44-2-91.5T375 230q17 47 37 87t40 71l688 1017q14 24 36.5 43t52.5 19h147V0h-198v1042q0 44 2 92t9 101q-17-46-36.5-86t-40.5-70L424 62q-14-24-36.5-43T335 0H187zm273 1705q0 24 9 45t24.5 36 35.5 24.5 42 9.5q23 0 43.5-9.5T651 1786t25-36 9-45q0-23-9-42.5t-25-35-37-24.5-43-9-42 9-35.5 24.5-24.5 35-9 42.5zm428 0q0 24 8.5 45t24 36 36 24.5 44.5 9.5q23 0 43-9.5t35.5-24.5 24.5-36 9-45q0-23-9-42.5t-24.5-35-36-24.5-42.5-9q-24 0-44.5 9t-36 24.5-24 35-8.5 42.5z"/><glyph unicode="ӥ" horiz-adv-x="1178" d="M144-1v1037h184V332q0-19-2-42.5t-5-46.5q9 19 18 36t18 31l501 681q11 16 28.5 31t38.5 15h109V0H852v705q0 20 2 43.5t5 47.5q-9-20-18.5-38T821 726L321 45q-11-16-28.5-31T255-1H144zm146 1321q0 24 9.5 45t25.5 37 36 25.5 43 9.5q24 0 45-9.5t37-25.5 25.5-37 9.5-45-9.5-44.5T486 1240t-37-24.5-45-9.5q-23 0-43 9.5t-36 24.5-25.5 35.5-9.5 44.5zm390 0q0 24 9.5 45t25 37 36.5 25.5 44 9.5q24 0 45-9.5t36.5-25.5 25-37 9.5-45-9.5-44.5-25-35.5-36.5-24.5-45-9.5-44.5 9.5-36 24.5-25 35.5-9.5 44.5z"/><glyph unicode="Ӧ" horiz-adv-x="1639" d="M96 733q0 165 52.5 303T296 1273.5t228 155 295 55.5 295.5-55.5 229-155T1491 1036t52-303-52-302.5-147.5-237-229-154T819-15 524 39.5t-228 154-147.5 237T96 733zm203 0q0-135 37-242t105-181 164-113.5T819 157q119 0 215 39.5T1198 310t104.5 181 36.5 242-36.5 242.5-104.5 182-164 114.5-215 40q-118 0-214-40t-164-114.5-105-182T299 733zm196 973q0 24 9 45t24.5 36 35.5 24.5 42 9.5q23 0 43.5-9.5T686 1787t25-36 9-45q0-23-9-42.5t-25-35-37-24.5-43-9-42 9-35.5 24.5-24.5 35-9 42.5zm428 0q0 24 8.5 45t24 36 36 24.5 44.5 9.5q23 0 43-9.5t35.5-24.5 24.5-36 9-45q0-23-9-42.5t-24.5-35-36-24.5-42.5-9q-24 0-44.5 9t-36 24.5-24 35-8.5 42.5z"/><glyph unicode="ӧ" horiz-adv-x="1161" d="M86 519q0 122 34.5 221t99 168.5 156 107.5 206.5 38q114 0 205-38t155.5-107.5T1041 740t34-221q0-123-34-221t-98.5-168-156-107T582-14q-115 0-206.5 37t-156 107-99 168T86 519zm186 801q0 24 9.5 45t25.5 37 36 25.5 43 9.5q24 0 45-9.5t37-25.5 25.5-37 9.5-45-9.5-44.5T468 1240t-37-24.5-45-9.5q-23 0-43 9.5t-36 24.5-25.5 35.5-9.5 44.5zm1-802q0-184 76.5-287T582 128q154 0 229.5 103T887 518q0 185-76 288.5T582 910q-78 0-136-26.5T349.5 807 292 683.5 273 518zm389 802q0 24 9.5 45t25 37 36.5 25.5 44 9.5q24 0 45-9.5t36.5-25.5 25-37 9.5-45-9.5-44.5-25-35.5-36.5-24.5-45-9.5-44.5 9.5-36 24.5-25 35.5-9.5 44.5z"/><glyph unicode="Ө" horiz-adv-x="1639" d="M96 733q0 165 52.5 303T296 1273.5t228 155 295 55.5 295.5-55.5 229-155T1491 1036t52-303-52-302.5-147.5-237-229-154T819-15 524 39.5t-228 154-147.5 237T96 733zm205-61q8-122 48.5-217.5t108-162 159.5-101T819 157q112 0 203.5 34.5t158.5 101 107.5 162T1337 672H301zm2 150h1032q-12 115-53 206t-108 154-156.5 96.5T819 1312q-108 0-198-33.5T464.5 1182t-108-154T303 822z"/><glyph unicode="ө" horiz-adv-x="1161" d="M86 519q0 122 34.5 221t99 168.5 156 107.5 206.5 38q114 0 205-38t155.5-107.5T1041 740t34-221q0-123-34-221t-98.5-168-156-107T582-14q-115 0-206.5 37t-156 107-99 168T86 519zm188-44q8-165 84.5-256T582 128q144 0 220 91t84 256H274zm1 100h610q-11 160-86 247.5T582 910q-143 0-219-87.5T275 575z"/><glyph unicode="Ӫ" horiz-adv-x="1639" d="M96 733q0 165 52.5 303T296 1273.5t228 155 295 55.5 295.5-55.5 229-155T1491 1036t52-303-52-302.5-147.5-237-229-154T819-15 524 39.5t-228 154-147.5 237T96 733zm205-61q8-122 48.5-217.5t108-162 159.5-101T819 157q112 0 203.5 34.5t158.5 101 107.5 162T1337 672H301zm2 150h1032q-12 115-53 206t-108 154-156.5 96.5T819 1312q-108 0-198-33.5T464.5 1182t-108-154T303 822zm196 884q0 24 9 45t24.5 36 35.5 24.5 42 9.5q23 0 43.5-9.5T690 1787t25-36 9-45q0-23-9-42.5t-25-35-37-24.5-43-9-42 9-35.5 24.5-24.5 35-9 42.5zm428 0q0 24 8.5 45t24 36 36 24.5 44.5 9.5q23 0 43-9.5t35.5-24.5 24.5-36 9-45q0-23-9-42.5t-24.5-35-36-24.5-42.5-9q-24 0-44.5 9t-36 24.5-24 35-8.5 42.5z"/><glyph unicode="ӫ" horiz-adv-x="1161" d="M86 519q0 122 34.5 221t99 168.5 156 107.5 206.5 38q114 0 205-38t155.5-107.5T1041 740t34-221q0-123-34-221t-98.5-168-156-107T582-14q-115 0-206.5 37t-156 107-99 168T86 519zm186 801q0 24 9.5 45t25.5 37 36 25.5 43 9.5q24 0 45-9.5t37-25.5 25.5-37 9.5-45-9.5-44.5T468 1240t-37-24.5-45-9.5q-23 0-43 9.5t-36 24.5-25.5 35.5-9.5 44.5zm2-845q8-165 84.5-256T582 128q144 0 220 91t84 256H274zm1 100h610q-11 160-86 247.5T582 910q-143 0-219-87.5T275 575zm387 745q0 24 9.5 45t25 37 36.5 25.5 44 9.5q24 0 45-9.5t36.5-25.5 25-37 9.5-45-9.5-44.5-25-35.5-36.5-24.5-45-9.5-44.5 9.5-36 24.5-25 35.5-9.5 44.5z"/><glyph unicode="Ӭ" horiz-adv-x="1383" d="m58 205 79 85q12 13 29 13t35-15q38-35 76-60t82.5-41.5 97-24T575 155q101 0 189.5 34.5t156 100.5T1030 452.5t51 219.5H341v150h738q-12 116-54.5 206.5t-109 153.5-154.5 96.5-192 33.5q-94 0-158.5-20T303 1247.5t-69.5-44.5-45.5-20q-16 0-25.5 6.5T146 1206l-65 91q91 86 211 136.5t276 50.5q160 0 292-55t227-154 147-237.5 52-304.5-50-304-141-237T874.5 38.5 588-16q-182 0-311 58T58 205zm210 1500q0 24 9 45t24.5 36 35.5 24.5 42 9.5q23 0 43.5-9.5T459 1786t25-36 9-45q0-23-9-42.5t-25-35-37-24.5-43-9-42 9-35.5 24.5-24.5 35-9 42.5zm428 0q0 24 8.5 45t24 36 36 24.5 44.5 9.5q23 0 43-9.5t35.5-24.5 24.5-36 9-45q0-23-9-42.5t-24.5-35-36-24.5-42.5-9q-24 0-44.5 9t-36 24.5-24 35-8.5 42.5z"/><glyph unicode="ӭ" horiz-adv-x="988" d="m61 145 49 61q12 17 34 17 18 0 38-14.5t49-33 72-33.5 110-15q65 0 118 22.5t93 65.5 64.5 106T719 466H227v127h490q-16 150-96 234t-218 84q-57 0-97-11.5t-67.5-26-46.5-26-34-11.5q-14 0-22.5 5.5T119 858l-46 61q65 65 148.5 100t192.5 35q118 0 209-40t153-111.5T870 733t32-214q0-127-35.5-226T770 125.5t-144.5-104T444-14q-113 0-214 38T61 145zm70 1175q0 24 9.5 45t25.5 37 36 25.5 43 9.5q24 0 45-9.5t37-25.5 25.5-37 9.5-45-9.5-44.5T327 1240t-37-24.5-45-9.5q-23 0-43 9.5t-36 24.5-25.5 35.5-9.5 44.5zm390 0q0 24 9.5 45t25 37 36.5 25.5 44 9.5q24 0 45-9.5t36.5-25.5 25-37 9.5-45-9.5-44.5-25-35.5-36.5-24.5-45-9.5-44.5 9.5-36 24.5-25 35.5-9.5 44.5z"/><glyph unicode="Ӯ" horiz-adv-x="1281" d="M7 1467h186q27 0 42-12.5t26-33.5l363-665q38-73 61-148 11 37 25 74t31 74l309 665q8 17 25 31.5t42 14.5h164L685 191q-28-60-60-99.5T556 29 476-3.5 384-13q-55 0-85 9.5T269 26v126h72q26 0 51.5 5.5t49 19.5 45 38.5T525 276l72 150zm354 160v108h571v-108H361z"/><glyph unicode="ӯ" horiz-adv-x="1055" d="M22 1037h157q24 0 37.5-11.5T236 999l277-653q16-43 28-90 14 48 30 91l270 652q6 16 21 27t33 11h144L461-306q-9-20-23-32.5T395-351H260L450 60zm239 224v119h587v-119H261z"/><glyph unicode="Ӱ" horiz-adv-x="1281" d="M7 1467h186q27 0 42-12.5t26-33.5l363-665q38-73 61-148 11 37 25 74t31 74l309 665q8 17 25 31.5t42 14.5h164L685 191q-28-60-60-99.5T556 29 476-3.5 384-13q-55 0-85 9.5T269 26v126h72q26 0 51.5 5.5t49 19.5 45 38.5T525 276l72 150zm313 239q0 24 9 45t24.5 36 35.5 24.5 42 9.5q23 0 43.5-9.5T511 1787t25-36 9-45q0-23-9-42.5t-25-35-37-24.5-43-9-42 9-35.5 24.5-24.5 35-9 42.5zm428 0q0 24 8.5 45t24 36 36 24.5 44.5 9.5q23 0 43-9.5t35.5-24.5 24.5-36 9-45q0-23-9-42.5t-24.5-35-36-24.5-42.5-9q-24 0-44.5 9t-36 24.5-24 35-8.5 42.5z"/><glyph unicode="ӱ" horiz-adv-x="1055" d="M22 1037h157q24 0 37.5-11.5T236 999l277-653q16-43 28-90 14 48 30 91l270 652q6 16 21 27t33 11h144L461-306q-9-20-23-32.5T395-351H260L450 60zm222 283q0 24 9.5 45t25.5 37 36 25.5 43 9.5q24 0 45-9.5t37-25.5 25.5-37 9.5-45-9.5-44.5T440 1240t-37-24.5-45-9.5q-23 0-43 9.5t-36 24.5-25.5 35.5-9.5 44.5zm390 0q0 24 9.5 45t25 37 36.5 25.5 44 9.5q24 0 45-9.5t36.5-25.5 25-37 9.5-45-9.5-44.5-25-35.5-36.5-24.5-45-9.5-44.5 9.5-36 24.5-25 35.5-9.5 44.5z"/><glyph unicode="Ӳ" horiz-adv-x="1281" d="M7 1467h186q27 0 42-12.5t26-33.5l363-665q38-73 61-148 11 37 25 74t31 74l309 665q8 17 25 31.5t42 14.5h164L685 191q-28-60-60-99.5T556 29 476-3.5 384-13q-55 0-85 9.5T269 26v126h72q26 0 51.5 5.5t49 19.5 45 38.5T525 276l72 150zm397 116 151 234q14 22 35 33.5t55 11.5h119l-210-251q-14-14-28-21t-35-7h-87zm320 0 190 234q17 22 38.5 33.5t54.5 11.5h138l-255-251q-15-14-31-21t-36-7h-99z"/><glyph unicode="ӳ" horiz-adv-x="1055" d="M22 1037h157q24 0 37.5-11.5T236 999l277-653q16-43 28-90 14 48 30 91l270 652q6 16 21 27t33 11h144L461-306q-9-20-23-32.5T395-351H260L450 60zm314 154 142 248q12 24 29.5 34.5T559 1484h121l-204-264q-12-16-27-22.5t-37-6.5h-76zm266 0 184 248q16 23 31.5 34t49.5 11h134l-249-264q-14-15-28-22t-34-7h-88z"/><glyph unicode="Ӵ" horiz-adv-x="1353" d="M94 988v479h199V987q0-101 41-163.5t125-87T669.5 723 968 779v688h199V0H968v635q-117-31-227.5-49T533 569t-178 23.5T216.5 665t-90 129T94 988zm222 718q0 24 9 45t24.5 36 35.5 24.5 42 9.5q23 0 43.5-9.5T507 1787t25-36 9-45q0-23-9-42.5t-25-35-37-24.5-43-9-42 9-35.5 24.5-24.5 35-9 42.5zm428 0q0 24 8.5 45t24 36 36 24.5 44.5 9.5q23 0 43-9.5t35.5-24.5 24.5-36 9-45q0-23-9-42.5t-24.5-35-36-24.5-42.5-9q-24 0-44.5 9t-36 24.5-24 35-8.5 42.5z"/><glyph unicode="ӵ" horiz-adv-x="1054" d="M83 694v343h183V722q0-75 30.5-118t88.5-59.5 144-9T727 569v468h182V0H727v440q-133-35-250.5-43.5t-205 18-138 93.5T83 694zm113 626q0 24 9.5 45t25.5 37 36 25.5 43 9.5q24 0 45-9.5t37-25.5 25.5-37 9.5-45-9.5-44.5T392 1240t-37-24.5-45-9.5q-23 0-43 9.5t-36 24.5-25.5 35.5-9.5 44.5zm390 0q0 24 9.5 45t25 37 36.5 25.5 44 9.5q24 0 45-9.5t36.5-25.5 25-37 9.5-45-9.5-44.5-25-35.5-36.5-24.5-45-9.5-44.5 9.5-36 24.5-25 35.5-9.5 44.5z"/><glyph unicode="Ӷ" horiz-adv-x="1103" d="M187 0v1467h884v-156H386V156h224v-454q0-27-17.5-43T547-357H429V0H187z"/><glyph unicode="ӷ" horiz-adv-x="848" d="M143 0v1037h673V898H327V138h190v-439q0-27-15-41.5T464-357H351V0H143z"/><glyph unicode="Ӹ" horiz-adv-x="1842" d="M187 0v1467h198V836h286q134 0 231-29.5t160-82 93.5-125.5 30.5-159q0-101-34.5-182.5t-100.5-139-162-88T670 0H187zm198 158h285q85 0 146 19.5t99 53.5 56 82.5T989 421q0 61-18 109t-56 81-98.5 50T671 678H385V158zm215 1548q0 24 9 45t24.5 36 35.5 24.5 42 9.5q23 0 43.5-9.5T791 1787t25-36 9-45q0-23-9-42.5t-25-35-37-24.5-43-9-42 9-35.5 24.5-24.5 35-9 42.5zm428 0q0 24 8.5 45t24 36 36 24.5 44.5 9.5q23 0 43-9.5t35.5-24.5 24.5-36 9-45q0-23-9-42.5t-24.5-35-36-24.5-42.5-9q-24 0-44.5 9t-36 24.5-24 35-8.5 42.5zM1455 0v1467h199V0h-199z"/><glyph unicode="ӹ" horiz-adv-x="1477" d="M144 0v1037h174V631h222q108 0 181-25.5T838.5 537t64-99.5T922 321q0-70-25-129T824 90.5 705.5 24 543 0H144zm174 133h225q55 0 95.5 14t67 39 40 59 13.5 73q0 37-11.5 69.5t-37.5 57-68 39T540 498H318V133zm108 1187q0 24 9.5 45t25.5 37 36 25.5 43 9.5q24 0 45-9.5t37-25.5 25.5-37 9.5-45-9.5-44.5T622 1240t-37-24.5-45-9.5q-23 0-43 9.5t-36 24.5-25.5 35.5-9.5 44.5zm390 0q0 24 9.5 45t25 37 36.5 25.5 44 9.5q24 0 45-9.5t36.5-25.5 25-37 9.5-45-9.5-44.5-25-35.5-36.5-24.5-45-9.5-44.5 9.5-36 24.5-25 35.5-9.5 44.5zM1150 0v1037h182V0h-182z"/><glyph unicode="Ӻ" horiz-adv-x="1207" d="M39 687v151h250v629h883v-156H487V838h352V687H487V0H289v687H39zM281-337l14 74q6 24 18.5 30.5T337-226q12 0 36.5-8t58.5-8q69 0 95 46t26 128V0h-65v156h225V-90q0-63-14.5-115.5t-46-90-83.5-58T443-374q-41 0-79 9t-83 28z"/><glyph unicode="ӻ" horiz-adv-x="937" d="M47 470v132h187v435h672V898H417V602h219V470H417V138h190V-53q0-63-14-121.5t-46-103-83.5-70.5T338-374q-41 0-79 9t-84 28l14 74q6 24 18.5 30.5T231-226q13 0 37.5-8t59.5-8q69 0 95 46t26 128V0H234v470H47z"/><glyph unicode="Ӽ" horiz-adv-x="1412" d="m19 0 505 754-484 713h198q22 0 32-7t18-20l383-588q7 22 21 47l362 537q8 14 19 22.5t27 8.5h189L803 763l401-609h194V-53q0-63-14.5-121.5t-46-103T1254-348t-126-26q-41 0-79 9t-83 28l14 74q6 24 18.5 30.5t23.5 6.5q12 0 36.5-8t59.5-8q69 0 95 46t26 128V0h-130q-23 0-35.5 12T1053 38L659 654q-8-25-18-42L258 38q-10-14-22-26T204 0H19z"/><glyph unicode="ӽ" horiz-adv-x="1117" d="m23 0 363 532-349 505h175q23 0 32.5-7t17.5-20l256-390q8 31 26 58l223 328q9 14 20 22.5t26 8.5h168L632 542l271-405v1h190V-53q0-63-14.5-121.5t-46.5-103-83.5-70.5T823-374q-40 0-78 9t-83 28l14 74q6 24 18 30.5t23 6.5q13 0 37.5-8t58.5-8q69 0 95 46t26 128V0H820q-23 0-35.5 12T764 38L503 444q-4-14-9-28t-13-25L240 38q-10-14-22-26T185 0H23z"/><glyph unicode="Ӿ" horiz-adv-x="1419" d="m66 0 452 675H148v150h375L87 1467h198q22 0 32-7t18-20l383-587q7 23 21 46l361 537q9 14 20.5 22.5t25.5 8.5h189L892 825h378V675H907L1353 0h-198q-22 0-34.5 12T1100 38L707 653q-7-22-19-41L304 38q-9-14-21.5-26T251 0H66z"/><glyph unicode="ӿ" horiz-adv-x="1087" d="m57 0 323 472H108v132h264L72 1037h175q23 0 32.5-7t17.5-20l256-390q8 31 26 58l223 328q9 14 20 22.5t26 8.5h168L711 604h268V472H714L1030 0H855q-23 0-35.5 12T799 38L538 444q-4-14-9-28t-13-25L274 38q-10-14-21.5-26T220 0H57z"/><glyph horiz-adv-x="968"/><glyph horiz-adv-x="1936"/><glyph horiz-adv-x="968"/><glyph horiz-adv-x="1936"/><glyph horiz-adv-x="645"/><glyph horiz-adv-x="484"/><glyph horiz-adv-x="322"/><glyph horiz-adv-x="322"/><glyph horiz-adv-x="242"/><glyph horiz-adv-x="387"/><glyph horiz-adv-x="107"/><glyph unicode="‐" horiz-adv-x="760" d="M128 537v154h506V537H128z"/><glyph unicode="‑" horiz-adv-x="760" d="M128 537v154h506V537H128z"/><glyph unicode="‒" horiz-adv-x="760" d="M128 537v154h506V537H128z"/><glyph unicode="–" d="M184 538v133h820V538H184z"/><glyph unicode="—" horiz-adv-x="1625" d="M131 538v133h1362V538H131z"/><glyph unicode="‘" horiz-adv-x="438" d="M112.5 1285q12.5 79 51.5 151t103 130l56-35q15-10 13.5-25t-9.5-23q-27-33-46-80t-24-101 5-111 42-111q13-22 7.5-38.5T287 1017l-113-44q-43 73-58.5 153t-3 159z"/><glyph unicode="’" horiz-adv-x="437" d="M108 1031q1 15 9 24 27 33 46 79.5t24.5 100.5-5 111-42.5 111q-13 22-7.5 38.5T157 1520l113 45q43-73 58.5-153.5t3-159.5-51.5-151.5T177 971l-55 36q-15 9-14 24z"/><glyph unicode="‚" horiz-adv-x="441" d="M96-266q1 15 9 24 27 33 46 79.5T175.5-62t-5 111T128 160q-13 22-7.5 38.5T145 223l113 45q43-73 58.5-153.5t3-159.5T268-196.5 165-326l-55 36q-15 9-14 24z"/><glyph unicode="“" horiz-adv-x="748" d="M112.5 1285q12.5 79 51.5 151t103 130l56-35q15-10 13.5-25t-9.5-23q-27-33-46-80t-24-101 5-111 42-111q13-22 7.5-38.5T287 1017l-113-44q-43 73-58.5 153t-3 159zm311 0q12.5 79 51.5 151t103 130l56-35q15-10 13.5-25t-9.5-23q-27-33-46-80t-24-101 5-111 42-111q13-22 7.5-38.5T598 1017l-113-44q-43 73-58.5 153t-3 159z"/><glyph unicode="”" horiz-adv-x="748" d="M108 1031q1 15 9 24 27 33 46 79.5t24.5 100.5-5 111-42.5 111q-13 22-7.5 38.5T157 1520l113 45q43-73 58.5-153.5t3-159.5-51.5-151.5T177 971l-55 36q-15 9-14 24zm312 0q1 15 9 24 27 33 46 79.5t24.5 100.5-5 111-42.5 111q-13 22-7.5 38.5T469 1520l113 45q43-73 58.5-153.5t3-159.5-51.5-151.5T489 971l-55 36q-15 9-14 24z"/><glyph unicode="„" horiz-adv-x="752" d="M96-266q1 15 9 24 27 33 46 79.5T175.5-62t-5 111T128 160q-13 22-7.5 38.5T145 223l113 45q43-73 58.5-153.5t3-159.5T268-196.5 165-326l-55 36q-15 9-14 24zm311 0q1 15 9 24 27 33 46 79.5T486.5-62t-5 111T439 160q-13 22-7.5 38.5T456 223l113 45q43-73 58.5-153.5t3-159.5T579-196.5 476-326l-55 36q-15 9-14 24z"/><glyph unicode="…" horiz-adv-x="1536" d="M114 113q0 27 9.5 50t26.5 40.5 40.5 28T241 242t50-10.5 40.5-28 28-41T370 113q0-28-10.5-51t-28-40.5-41-27T241-15q-27 0-50.5 9.5t-40.5 27T123.5 62t-9.5 51zm526 0q0 27 9.5 50t26.5 40.5 40.5 28T767 242t50-10.5 40.5-28 28-41T896 113q0-28-10.5-51t-28-40.5-41-27T767-15q-27 0-50.5 9.5t-40.5 27T649.5 62t-9.5 51zm528 0q0 27 9.5 50t26.5 40.5 40.5 28T1295 242t50-10.5 40.5-28 28-41T1424 113q0-28-10.5-51t-28-40.5-41-27T1295-15q-27 0-50.5 9.5t-40.5 27-26.5 40.5-9.5 51z"/><glyph horiz-adv-x="387"/><glyph unicode="‹" horiz-adv-x="575" d="M102 530v24l255 398 60-28q24-11 28.5-32.5T435 847L273 580q-14-26-28-37 14-13 28-38l162-267q14-24 9.5-45T417 161l-60-29z"/><glyph unicode="›" horiz-adv-x="576" d="M131.5 193q-4.5 21 9.5 45l162 267q8 12 15 22t15 16q-8 5-15 14.5T303 580L141 847q-14 24-9.5 44.5T160 924l59 28 255-398v-24L219 132l-59 29q-24 11-28.5 32z"/><glyph horiz-adv-x="484"/><glyph unicode="€" d="M24 566v105h137q-1 15-1 30.5V733q0 20 .5 41.5T162 816H24v105h150q20 129 69 232.5t121 177T530 1443t204 39q69 0 127.5-13.5t108-38 91.5-60.5 78-81l-64-69q-7-9-15.5-16t-23.5-7q-17 0-36 19.5t-50.5 43-81 43T742 1322q-150 0-248.5-102.5T362 921h561v-57q0-18-14-33t-40-15H350q-1-20-1.5-40.5T348 733v-31.5l1-30.5h478v-58q0-17-14.5-32T774 566H358q29-211 127-316.5T732 144q55 0 97 11t73 27.5 53 35.5 38.5 35 29 27 25.5 11q9 0 15-3t14-12l77-71q-73-103-179.5-161.5T723-15q-119 0-214 40.5T343.5 141 229 324t-60 242H24z"/><glyph unicode="™" horiz-adv-x="1537" d="M90 1360v107h498v-107H403V861H275v499H90zm596-499v606h109q17 0 24.5-4t19.5-17l173-310q13-28 20-54 8 29 22 54l173 310q10 13 17.5 17t25.5 4h107V861h-111v374l8 76-188-343q-12-29-44-29h-18q-32 0-45 29l-188 343 9-76V861H686z"/><glyph unicode="◼" horiz-adv-x="1038" d="M0 0v1039h1039V0H0z"/></font>
</defs>
</svg>
