<svg xmlns="http://www.w3.org/2000/svg"><defs><font id="montserratsemibold" horiz-adv-x="1228"><font-face units-per-em="2048" ascent="1638" descent="-410"/><glyph horiz-adv-x="0"/><glyph horiz-adv-x="565"/><glyph horiz-adv-x="0"/><glyph horiz-adv-x="0"/><glyph horiz-adv-x="565"/><glyph horiz-adv-x="565"/><glyph horiz-adv-x="565"/><glyph unicode="!" horiz-adv-x="569" d="M121 145q0 68 47 113t119 45q70 0 116-45t46-113-46.5-113.5T287-14q-72 0-119 46t-47 113zm14 1289h303l-51-959H184z"/><glyph unicode="&quot;" horiz-adv-x="845" d="M115 1434h221l-19-568H131zm395 0h221l-19-568H526z"/><glyph unicode="#" horiz-adv-x="1456" d="M47 348v187h299l47 364H117v186h299l43 349h186l-43-349h344l43 349h187l-43-349h274l2-186h-299l-45-364h276V348h-299L999 0H813l43 348H510L467 0H281l43 348H47zm485 187h347l45 364H580z"/><glyph unicode="$" horiz-adv-x="1288" d="m72 152 92 206q76-61 184.5-103T573 203v409q-145 35-242.5 77t-163 123-65.5 214q0 166 121 282.5T573 1448v231h168v-227q115-6 224.5-39t191.5-86l-84-207q-156 90-332 111V817q147-35 244.5-76T1150 619.5t67-213.5q0-166-122-282T741-16v-230H573v228Q421-8 286.5 37T72 152zm295 886q0-67 53-108t153-70v365q-104-16-155-65.5T367 1038zm374-831q109 16 161 63t52 117-55 112-158 70V207z"/><glyph unicode="%" horiz-adv-x="1761" d="M68 1055q0 176 94 284.5T410 1448t249-107.5 95-285.5-95.5-285.5T410 662q-154 0-248 108.5T68 1055zm165 0q0-117 48.5-183.5T410 805q84 0 130 65.5t46 184.5-46 184.5-130 65.5q-80 0-128.5-67T233 1055zM291 0l979 1434h200L492 0H291zm717 379q0 176 94 284.5T1350 772t249-108.5 95-284.5-95.5-284.5T1350-14q-154 0-248 108.5T1008 379zm166 0q0-119 47-184.5t129-65.5 129 66.5 47 183.5-47 183.5-129 66.5-129-65.5-47-184.5z"/><glyph unicode="&amp;" horiz-adv-x="1445" d="M84 362q0 133 78 234.5T416 797q-86 86-123 160.5T256 1112q0 152 113.5 245t302.5 93q174 0 278.5-85t104.5-230q0-111-68.5-197T762 764l309-295q51 100 80 242l207-68q-41-190-129-328l180-172-141-166-181 175Q886-20 606-20q-150 0-268.5 49t-186 136T84 362zm250 27q0-90 80-145.5T625 188q178 0 311 109L557 659q-123-68-173-130t-50-140zm155 727q0-49 27-93t102-120q123 68 171.5 118t48.5 109q0 63-44 100.5T672 1268q-84 0-133.5-42T489 1116z"/><glyph unicode="'" horiz-adv-x="450" d="M115 1434h221l-19-568H131z"/><glyph unicode="(" horiz-adv-x="710" d="M172 561q0 281 64.5 527.5T422 1520h244q-125-221-183.5-456T424 561t58.5-502.5T666-397H422Q301-211 236.5 35T172 561z"/><glyph unicode=")" horiz-adv-x="712" d="M45-397Q170-176 229.5 59.5T289 561t-59.5 501.5T45 1520h244q121-182 185.5-429T539 561 474.5 33.5 289-397H45z"/><glyph unicode="*" horiz-adv-x="851" d="m33 997 235 129-235 129 82 142 235-140-2 263h156l-2-265 237 142 80-142-233-129 233-129-80-139-237 139 2-264H348l2 262-235-137z"/><glyph unicode="+" horiz-adv-x="1208" d="M133 614v205h363v359h219V819h362V614H715V256H496v358H133z"/><glyph unicode="," horiz-adv-x="499" d="M86 156q0 76 47 123t119 47 119-47.5T418 156q0-33-9.5-69T371-20L266-309H100L182 4q-45 18-70.5 58T86 156z"/><glyph unicode="-" horiz-adv-x="788" d="M113 463v213h563V463H113z"/><glyph unicode="." horiz-adv-x="499" d="M82 156q0 76 48 123t120 47 120-47.5T418 156q0-74-49.5-122T250-14q-70 0-119 48T82 156z"/><glyph unicode="/" horiz-adv-x="759" d="m-61-205 675 1929h230L168-205H-61z"/><glyph unicode="0" horiz-adv-x="1378" d="M90 717q0 229 78 396t213 254 307 87 308.5-87 214-254 77.5-396-77.5-396-214-254T688-20 381 67 168 320.5 90 717zm268 0q0-252 89.5-379T688 211q154 0 243 127t89 379-89 379-243 127q-152 0-241-127t-89-379z"/><glyph unicode="1" horiz-adv-x="780" d="M16 1210v224h570V0H319v1210H16z"/><glyph unicode="2" horiz-adv-x="1191" d="M16 1217q84 113 226.5 175t318.5 62q233 0 372.5-110.5T1073 1042q0-117-49-219T836 590L453 225h675V0H72v178l569 541q96 92 130 160.5t34 136.5q0 100-67.5 153.5T539 1223q-219 0-336-150z"/><glyph unicode="3" horiz-adv-x="1191" d="m2 145 115 207q78-66 189.5-103.5T537 211q141 0 222 58.5T840 428t-77 156.5T528 641H397v182l326 387H72v224h977v-179L700 842q199-25 303.5-135.5T1108 430q0-125-63.5-227.5T853 40 541-20q-154 0-296.5 44T2 145z"/><glyph unicode="4" horiz-adv-x="1390" d="M70 326v184l706 924h285L395 551h469v289h250V551h254V326h-254V0H856v326H70z"/><glyph unicode="5" horiz-adv-x="1196" d="m27 145 112 207q80-66 191.5-103.5T561 211q141 0 222 58.5T864 430q0 111-87 167t-298 56H133l74 781h842v-224H432l-31-331h138q303 0 448.5-118T1133 440q0-129-63.5-233.5T879 41 565-20q-154 0-297 44T27 145z"/><glyph unicode="6" horiz-adv-x="1284" d="M90 692q0 242 88 413t247 260 368 89q111 0 208-23.5t168-68.5l-98-201q-106 70-272 70-207 0-324-127T358 737v-2q63 74 161.5 112T741 885q142 0 254.5-54.5t176-155T1235 444q0-139-69.5-244.5T977 37 711-20q-295 0-458 184T90 692zm309-262q0-104 79-173t218-69q125 0 203 67t78 177q0 113-78 178.5T690 676q-129 0-210-69.5T399 430z"/><glyph unicode="7" horiz-adv-x="1245" d="M57 965v469h1114v-179L614 0H330l538 1208H305V965H57z"/><glyph unicode="8" horiz-adv-x="1335" d="M82 412q0 117 59.5 203.5T311 754q-86 47-132 123.5T133 1055q0 121 66.5 211T387 1405t279 49q160 0 280.5-49t188-139 67.5-211q0-100-47-176t-135-125q113-52 173-139t60-203q0-131-72.5-229.5T975 32 666-20 357.5 32t-204 150.5T82 412zm268 8q0-109 84-170.5T666 188q147 0 233 61.5T985 420q0 106-86 167.5T666 649t-231.5-61.5T350 420zm45 622q0-92 73-146t198-54q127 0 200.5 54t73.5 146q0 96-74.5 149.5T666 1245t-198-53-73-150z"/><glyph unicode="9" horiz-adv-x="1284" d="M49 989q0 139 69.5 244.5t188.5 163 266 57.5q295 0 458-184.5T1194 741q0-242-88-412.5T859 69 492-20Q381-20 283.5 3.5T115 72l98 200q106-70 272-69 207 0 324 127t117 366v2q-63-74-161.5-111.5T543 549q-141 0-254 54T112.5 757.5 49 989zm258 12q0-113 78-178t209-65q129 0 210 69.5t81 176.5q0 104-79 172.5T588 1245q-125 0-203-66.5T307 1001z"/><glyph unicode=":" horiz-adv-x="499" d="M82 156q0 76 48 123t120 47 120-47.5T418 156q0-74-49.5-122T250-14q-70 0-119 48T82 156zm0 780q0 76 48 123t120 47 120-47.5T418 936q0-74-49.5-122T250 766q-70 0-119 48T82 936z"/><glyph unicode=";" horiz-adv-x="499" d="M82 936q0 76 48 123t120 47 120-47.5T418 936q0-74-49.5-122T250 766q-70 0-119 48T82 936zm4-780q0 76 47 123t119 47 119-47.5T418 156q0-33-9.5-69T371-20L266-309H100L182 4q-45 18-70.5 58T86 156z"/><glyph unicode="&lt;" horiz-adv-x="1208" d="M133 606v221l944 367V981L371 717l706-264V240z"/><glyph unicode="=" horiz-adv-x="1208" d="M133 367v204h944V367H133zm0 495v205h944V862H133z"/><glyph unicode="&gt;" horiz-adv-x="1208" d="M133 240v213l707 264-707 264v213l944-367V606z"/><glyph unicode="?" horiz-adv-x="1189" d="M8 1204q88 121 227.5 185.5T563 1454q229 0 365.5-99.5T1065 1081q0-84-27.5-147.5T971 826 868 725q-78-70-115.5-123T715 475H455q0 111 50 183.5T651 817q74 66 110 114t36 109q0 86-70 139.5T541 1233q-221 0-334-158zM422 145q0 68 46 113t118 45q70 0 116-45t46-113-46.5-113.5T586-14q-72 0-118 46t-46 113z"/><glyph unicode="@" horiz-adv-x="2117" d="M90 520q0 266 123 478t345 333 511 121q279 0 498-114.5t341-319.5 122-463q0-266-104.5-416.5T1636-12q-98 0-165.5 46T1376 166Q1253-12 1008-12q-139 0-252 66.5t-176.5 185T516 510q0 150 63.5 267.5t176 184T1008 1028q109 0 195.5-37T1350 883v133h227V319q0-74 29.5-106.5T1683 180q84 0 128 95.5t44 275.5q0 217-99 383t-277.5 258-409.5 92q-233 0-413.5-97T377 915.5 279 520q0-225 97-399t275-271.5 410-97.5q100 0 203.5 22.5T1458-158l55-164q-90-47-211.5-71.5T1061-418q-287 0-507 121T212 37 90 520zm658-10q0-147 83.5-235.5T1051 186q133 0 218 87t85 237q0 147-85 233t-218 86q-135 0-219-87t-84-232z"/><glyph unicode="A" horiz-adv-x="1533" d="m-10 0 645 1434h262L1544 0h-278l-144 332H406L264 0H-10zm506 541h538l-270 626z"/><glyph unicode="B" horiz-adv-x="1558" d="M193 0v1434h671q254 0 391.5-99.5T1393 1061q0-106-49.5-188T1208 745q119-38 188.5-129.5T1466 389q0-186-143-287.5T905 0H193zm266 209h430q309 0 309 207T889 623H459V209zm0 620h377q139 0 213.5 50.5T1124 1026q0 98-74.5 148.5T836 1225H459V829z"/><glyph unicode="C" horiz-adv-x="1488" d="M90 717q0 211 100.5 379T466 1359t392 95q176 0 321.5-61.5T1425 1214l-172-161q-156 168-383 168-147 0-264-64.5T423.5 977 358 717t65.5-260T606 277.5 870 213q227 0 383 170l172-164q-100-117-246.5-178T856-20q-217 0-392 95T189.5 338 90 717z"/><glyph unicode="D" horiz-adv-x="1691" d="M193 0v1434h626q229 0 407.5-89.5t277-252T1602 717t-98.5-376T1227 89 819 0H193zm266 225h348q158 0 277.5 60.5t184 172T1333 717q0 147-64.5 258.5t-184 172T807 1208H459V225z"/><glyph unicode="E" horiz-adv-x="1372" d="M193 0v1434h1046v-224H459V838h692V618H459V223h809V0H193z"/><glyph unicode="F" horiz-adv-x="1304" d="M193 0v1434h1046v-224H459V774h692V549H459V0H193z"/><glyph unicode="G" horiz-adv-x="1581" d="M90 717q0 211 100.5 379T468 1359t398 95q180 0 327.5-59.5T1442 1221l-168-164q-164 164-395 164-152 0-269.5-63.5T425 979t-67-262q0-143 67-258t184.5-180.5T877 213q168 0 294 74v446h252V162q-111-88-258-135T862-20q-219 0-395 95T190.5 338 90 717z"/><glyph unicode="H" horiz-adv-x="1658" d="M193 0v1434h266V842h741v592h266V0h-266v614H459V0H193z"/><glyph unicode="I" horiz-adv-x="653" d="M193 0v1434h266V0H193z"/><glyph unicode="J" horiz-adv-x="1079" d="m-27 186 152 183q119-164 285-164 223 0 223 264v741H123v224h776V483q0-252-123-377.5T416-20q-137 0-253 54T-27 186z"/><glyph unicode="K" horiz-adv-x="1492" d="M193 0v1434h266V698l708 736h299L864 793 1503 0h-311L686 600 459 367V0H193z"/><glyph unicode="L" horiz-adv-x="1226" d="M193 0v1434h266V225h749V0H193z"/><glyph unicode="M" horiz-adv-x="1955" d="M193 0v1434h219l569-951 559 951h219l2-1434h-252l-2 950-471-786H918L446 938V0H193z"/><glyph unicode="N" horiz-adv-x="1658" d="M193 0v1434h219l790-971v971h264V0h-219L457 971V0H193z"/><glyph unicode="O" horiz-adv-x="1724" d="M90 717q0 209 100.5 378T467 1359t395 95 395.5-95 276.5-263 100-379-100-379-276.5-263T862-20 467 75 190.5 339 90 717zm268 0q0-143 65.5-259T604 277.5 862 213q144 0 258.5 64.5t180 180T1366 717q0 143-65.5 259t-180 180.5T862 1221q-143 0-258-64.5T423.5 976 358 717z"/><glyph unicode="P" horiz-adv-x="1486" d="M193 0v1434h589q187 0 325-61.5t212-176.5 74-272q0-156-74-271.5t-212-177T782 414H459V0H193zm266 639h311q174 0 264 73.5t90 211.5q0 137-90 210.5T770 1208H459V639z"/><glyph unicode="Q" horiz-adv-x="1724" d="M90 717q0 209 100.5 378T467 1359t395 95 395.5-95 276.5-263 100-379q0-170-67.5-314.5t-188.5-246T1098 10q59-63 116.5-92t122.5-29q141 0 246 115l123-147q-72-84-167-127t-208-43q-147 0-270 66.5T780-16Q581 0 423.5 99.5T178 359.5 90 717zm268 0q0-144 65.5-259.5t180.5-180T862 213t258 64.5 180.5 180T1366 717q0 143-65.5 259t-180 180.5T862 1221q-143 0-258-64.5T423.5 976 358 717z"/><glyph unicode="R" horiz-adv-x="1497" d="M193 0v1434h589q186 0 324.5-61.5T1319 1196t74-272q0-162-79-279t-227-174L1417 0h-287L838 420q-18-2-56-2H459V0H193zm266 637h311q174 0 264 74.5t90 212.5q0 137-90 210.5T770 1208H459V637z"/><glyph unicode="S" horiz-adv-x="1288" d="m72 152 92 206q88-70 216-113.5T637 201q160 0 238.5 51T954 387q0 61-44 101t-111.5 62.5T614 602q-164 39-265 78T175 802t-73 224q0 119 64.5 216t195 154.5T680 1454q131 0 258-32.5t219-94.5l-84-207q-94 55-196.5 84T678 1233q-158 0-234.5-53.5T367 1038q0-61 44-100t111.5-61.5T707 825q160-37 262-76.5T1144 627t73-221q0-119-65-215.5T956 37 637-20q-166 0-320.5 47T72 152z"/><glyph unicode="T" horiz-adv-x="1232" d="M8 1208v226h1217v-226H750V0H483v1208H8z"/><glyph unicode="U" horiz-adv-x="1615" d="M180 625v809h266V635q0-422 365-422 362 0 363 422v799h262V625q0-311-165-478T809-20 346 146.5 180 625z"/><glyph unicode="V" horiz-adv-x="1492" d="M-10 1434h289L756 328l481 1106h266L879 0H616z"/><glyph unicode="W" horiz-adv-x="2342" d="M55 1434h277L688 344l371 1090h246l362-1096 367 1096h254L1812 0h-282l-354 1061L815 0H530z"/><glyph unicode="X" horiz-adv-x="1419" d="m18 0 533 731-504 703h301l367-510 362 510h289L864 741 1403 0h-307L707 545 322 0H18z"/><glyph unicode="Y" horiz-adv-x="1353" d="M-18 1434h284l420-699 424 699h262L811 506V0H545v502z"/><glyph unicode="Z" horiz-adv-x="1357" d="M84 0v178l844 1030H98v226h1182v-179L436 225h871V0H84z"/><glyph unicode="[" horiz-adv-x="716" d="M193-397v1917h489v-205H449V-193h233v-204H193z"/><glyph unicode="\" horiz-adv-x="759" d="M-82 1724h229L823-205H594z"/><glyph unicode="]" horiz-adv-x="716" d="M35-193h231v1508H35v205h487V-397H35v204z"/><glyph unicode="^" horiz-adv-x="1210" d="m135 291 367 852h209l364-852H874L606 940 336 291H135z"/><glyph unicode="_" horiz-adv-x="1024" d="M0 0h1024v-156H0V0z"/><glyph unicode="`" d="M209 1524h301l277-281H565z"/><glyph unicode="a" horiz-adv-x="1243" d="M90 313q0 147 109.5 236.5T545 639h282v16q0 115-68.5 176.5T555 893q-92 0-181-28.5T223 784L123 971q86 66 207 100.5t256 34.5q241 0 369-116t128-349V0H842v133Q795 61 708 23.5T498-14 282.5 28 140 144.5 90 313zm252 11q0-70 55.5-111T551 172q96 0 171 44t105 126v127H563q-221 0-221-145z"/><glyph unicode="b" horiz-adv-x="1404" d="M168 0v1520h256V961q66 72 155 108.5t195 36.5q160 0 286-69.5T1257.5 840t71.5-293-71.5-294T1060 55.5 774-14q-113 0-206 38.5T412 141V0H168zm252 547q0-102 43-180t116.5-120T745 205q142 0 233 94t91 248-91 248-233 94q-92 0-165.5-42T463 727t-43-180z"/><glyph unicode="c" horiz-adv-x="1189" d="M78 547q0 162 75.5 289t210 198.5T670 1106q162 0 283.5-65.5T1137 852L940 737q-47 76-117.5 114T668 889q-143 0-237.5-93.5T336 547q0-156 93-249t239-93q84 0 154.5 38T940 356l197-114q-63-123-185.5-189.5T670-14q-170 0-305.5 71.5T153.5 257 78 547z"/><glyph unicode="d" horiz-adv-x="1406" d="M78 547q0 166 71.5 293T347 1036.5t284 69.5q109 0 199-37t153-111v562h256V0H993v141Q930 63 836.5 24.5T631-14q-158 0-284 69.5T149.5 253 78 547zm258 0q0-102 43-180t116.5-120T662 205q92 0 165.5 42T944 366.5 987 547q0 102-43 180T827.5 847 662 889t-166-42-117-120-43-180z"/><glyph unicode="e" horiz-adv-x="1273" d="M78 547q0 160 72.5 288T352 1034.5t291 71.5q160 0 286-70.5T1125.5 837t70.5-296q0-27-4-76H334q23-121 118-191.5T688 203q180 0 297 119l137-158q-74-88-186.5-133T682-14q-180 0-317.5 71.5T152.5 257 78 547zm254 88h620q-16 119-100 192.5T643 901q-123 0-208-72.5T332 635z"/><glyph unicode="f" horiz-adv-x="755" d="M23 881v204h180v70q0 176 102.5 277.5T594 1534q147 0 231-59l-71-193q-66 45-142 45-161 0-161-176v-66h301V881H459V0H203v881H23z"/><glyph unicode="g" horiz-adv-x="1421" d="M78 580q0 156 72.5 275.5t198.5 185 282 65.5q119 0 216-39t163-119v146h243V166q0-578-589-578-158 0-299.5 40T131-256L246-63q72-59 181.5-95.5T649-195q180 0 264 82t84 250v58q-66-72-160-109T631 49q-156 0-282 66.5T150.5 303 78 580zm258 0q0-139 93-226.5T670 266q145 0 238 87t93 227q0 137-93 223t-238 86q-147 0-240.5-86T336 580z"/><glyph unicode="h" horiz-adv-x="1402" d="M168 0v1520h256V967q63 68 156.5 103.5T788 1106q207 0 332-121t125-358V0H989v594q0 143-67.5 216T729 883q-141 0-223-85t-82-245V0H168z"/><glyph unicode="i" horiz-adv-x="591" d="M133 1427q0 66 47 110t117 44 116.5-42 46.5-105q0-68-46-114t-117-46q-70 0-117 44t-47 109zM168 0v1094h256V0H168z"/><glyph unicode="j" horiz-adv-x="604" d="m-190-348 73 190q57-43 150-43 72 0 109.5 44T180-27v1121h256V-20q0-182-100-287T55-412q-161 1-245 64zm334 1775q0 66 47 110t117 44 116.5-42 46.5-105q0-68-46-114t-117-46q-70 0-117 44t-47 109z"/><glyph unicode="k" horiz-adv-x="1302" d="M168 0v1520h256V602l530 492h308L805 635 1305 0H993L614 469 424 289V0H168z"/><glyph unicode="l" horiz-adv-x="591" d="M168 0v1520h256V0H168z"/><glyph unicode="m" horiz-adv-x="2156" d="M168 0v1094h244V954q61 74 153 113t205 39q123 0 218-46t151-136q68 86 174 134t235 48q207 0 328-120t121-359V0h-256v594q0 143-63.5 216T1495 883q-129 0-207-85t-78-243V0H954v594q0 143-63.5 216T709 883q-131 0-208-84t-77-244V0H168z"/><glyph unicode="n" horiz-adv-x="1402" d="M168 0v1094h244V952q63 76 159.5 115t216.5 39q207 0 332-121t125-358V0H989v594q0 143-67.5 216T729 883q-141 0-223-85t-82-245V0H168z"/><glyph unicode="o" horiz-adv-x="1320" d="M78 547q0 162 74.5 289t208 198.5T659 1106q168 0 301.5-71.5t208-198.5 74.5-289-74.5-290-208-199.5T659-14q-165 0-298.5 71.5T152.5 257 78 547zm258 0q0-154 91-248t232-94q142 0 234 94t92 248-92 248-234 94q-141 0-232-94.5T336 547z"/><glyph unicode="p" horiz-adv-x="1404" d="M168-397v1491h244V950q63 78 156.5 117t205.5 39q160 0 286-69.5T1257.5 840t71.5-293-71.5-294T1060 55.5 774-14q-221 0-350 147v-530H168zm252 944q0-102 43-180t116.5-120T745 205q142 0 233 94t91 248-91 248-233 94q-92 0-165.5-42T463 727t-43-180z"/><glyph unicode="q" horiz-adv-x="1404" d="M78 547q0 166 71.5 293T346 1036.5t285 69.5q113 0 206-39t156-117v144h244V-397H981v530Q852-14 631-14q-160 0-286 69.5T148.5 252 78 547zm258 0q0-154 91-248t232-94q142 0 234 94t92 248-92 248-234 94q-141 0-232-94.5T336 547z"/><glyph unicode="r" horiz-adv-x="860" d="M168 0v1094h244V934q110 172 389 172V862q-33 6-60 6-150 0-233.5-87T424 530V0H168z"/><glyph unicode="s" horiz-adv-x="1054" d="m43 109 98 194q74-49 177.5-78.5T522 195q229 0 230 120 0 57-58.5 80T506 438q-135 20-220 47t-147.5 93.5T76 764q0 156 130 249t351 93q113 0 225.5-25.5T967 1012l-99-195q-139 82-313 82-113 0-171-34t-58-89q0-61 62.5-86.5T582 641q131-20 215-47t144-90.5 60-179.5q0-154-133-246T506-14q-133 0-260 34.5T43 109z"/><glyph unicode="t" horiz-adv-x="868" d="M23 881v204h180v250h256v-250h293V881H459V360q0-80 39-121.5T610 197q86 0 144 45l71-183Q780 22 715.5 4T580-14q-180 0-278.5 94T203 354v527H23z"/><glyph unicode="u" horiz-adv-x="1394" d="M160 469v625h256V504q0-147 66.5-220T672 211q137 0 218 85t81 245v553h256V0H983v139Q922 65 829.5 25.5T631-14q-219 0-345 121.5T160 469z"/><glyph unicode="v" horiz-adv-x="1183" d="M-10 1094h266l340-811 350 811h246L723 0H459z"/><glyph unicode="w" horiz-adv-x="1882" d="M8 1094h242l289-807 301 807h215l295-811 297 811h227L1470 0h-245L942 754 655 0H410z"/><glyph unicode="x" horiz-adv-x="1173" d="m18 0 426 555-407 539h285l268-359 268 359h277L725 559 1153 0H864L584 379 301 0H18z"/><glyph unicode="y" horiz-adv-x="1183" d="M-35-311 68-123q37-35 87-55.5T256-199q68 0 112 35t81 117l18 43-477 1098h266l344-809 346 809h246L680-88q-72-178-174.5-251T258-412q-82 0-162 27t-131 74z"/><glyph unicode="z" horiz-adv-x="1089" d="M78 0v162l600 727H90v205h916V932L403 205h619V0H78z"/><glyph unicode="{" horiz-adv-x="757" d="M113 457v209h67q92 0 92 98v422q0 164 88.5 249t260.5 85h102v-205h-43q-76 0-114-40t-38-116V770q0-92-28.5-140T408 561q63-20 91.5-68.5T528 352V-37q0-76 38-116t114-40h43v-204H621q-172 0-260.5 85T272-63v421q0 98-92 99h-67z"/><glyph unicode="|" horiz-adv-x="620" d="M193-397v1917h235V-397H193z"/><glyph unicode="}" horiz-adv-x="757" d="M35-193h43q78 0 115.5 40T231-37v389q0 94 28 141.5t91 67.5q-63 20-91 67.5T231 770v389q0 76-37.5 116T78 1315H35v205h102q172 0 261-85t89-249V764q0-49 24-73.5t67-24.5h69V457h-69q-43 0-67-24.5T487 358V-63q0-164-89-249t-261-85H35v204z"/><glyph unicode="~" horiz-adv-x="1208" d="M111 545q4 178 81.5 271T397 909q76 0 132.5-29.5T653 795q49-39 81-57.5t65-18.5q61 0 97 47t40 127h162q-2-180-80-272.5T811 528q-74 0-130 30t-122 83q-57 43-87 59.5T410 717q-59 0-95-47t-41-125H111z"/><glyph unicode="¢" horiz-adv-x="1189" d="M78 547q0 145 61.5 264t173 193.5T569 1100v239h166v-235q137-12 241.5-76.5T1137 852L940 737q-74 119-205 146V211q131 26 205 145l197-114q-57-111-161-175.5T735-12v-234H569V-8Q424 12 312.5 88t-173 194.5T78 547zm258 0q0-127 63.5-214T569 217v660q-106-31-169.5-117T336 547z"/><glyph unicode="£" horiz-adv-x="1345" d="M61 0v223h215v410H61v168h215v94q0 170 75 296t218.5 194.5T913 1454q244 0 404-96l-84-217q-125 80-334 80-174 0-265-83t-91-241v-96h518V633H543V223h739V0H61z"/><glyph unicode="¥" horiz-adv-x="1476" d="M-18 1434h282l481-689 482 689h268L940 639h340V496H872V356h408V213H872V0H606v213H199v143h407v140H199v143h338z"/><glyph unicode="¨" d="M293 1389q0 55 35 89.5t88 34.5 88-34.5 35-89.5q0-53-35-88t-88-35-88 34.5-35 88.5zm397 0q0 55 35 89.5t88 34.5 88-34.5 35-89.5q0-53-34.5-88t-88.5-35q-53 0-88 34.5t-35 88.5z"/><glyph unicode="©" horiz-adv-x="1626" d="M90 717q0 199 95.5 364.5t261 262T815 1440t368-94.5 259-259 94-365.5-96.5-368-262-263T811-6 445.5 90t-260 262T90 717zm117 0q0-170 79-309.5T503 187t308-81 308 82 218 222.5 80 310.5-77.5 308-215 218-309.5 80-311-81-218-220-79-309zm194 0q0 121 55.5 216t154 148.5T834 1135q115 0 203.5-48.5T1176 956l-150-98q-63 102-195 103-100 0-166.5-67T598 717q0-111 66.5-177.5T831 473q131 0 195 102l150-94q-49-86-138.5-134T834 299q-125 0-223.5 53.5T456.5 501 401 717z"/><glyph unicode="«" horiz-adv-x="1095" d="m86 547 291 397h231L324 547l284-395H377zm426 0 291 397h231L750 547l284-395H803z"/><glyph unicode="­" horiz-adv-x="788" d="M113 463v213h563V463H113z"/><glyph unicode="®" horiz-adv-x="1626" d="M90 717q0 199 95.5 364.5t261 262T815 1440t368-94.5 259-259 94-365.5-96.5-368-262-263T811-6 445.5 90t-260 262T90 717zm117 0q0-170 79-309.5T503 187t308-81 308 82 218 222.5 80 310.5-77.5 308-215 218-309.5 80-311-81-218-220-79-309zm303-404v807h336q158 0 249-75.5t91-204.5q0-90-42-153.5T1024 590l180-277h-176L868 559H686V313H510zm174 383h152q86 0 133 38t47 106-47 104.5T836 981H684V696z"/><glyph unicode="´" d="m443 1243 276 281h301l-356-281H443z"/><glyph unicode="¸" d="m367-424 47 121q63-33 139-33 109 0 109 74 0 31-27 49t-82 18h-63l55 209h139l-28-114q88-10 133-56.5T834-272q0-88-76-141.5T555-467q-110 0-188 43z"/><glyph unicode="»" horiz-adv-x="1095" d="m61 152 285 395L61 944h232l291-397-291-395H61zm426 0 285 395-285 397h232l291-397-291-395H487z"/><glyph unicode="ˆ" d="m223 1243 275 281h233l275-281H795l-180 152-181-152H223z"/><glyph unicode="˚" d="M375 1448q0 98 68.5 168t169.5 70q102 0 170.5-70t68.5-168-68.5-166-170.5-68q-101 0-169.5 68T375 1448zm109 0q0-55 36.5-92t92.5-37q57 0 94 37t37 92q0 57-38 95t-93 38-92-38-37-95z"/><glyph unicode="˜" d="M246 1255q2 125 62.5 200t158.5 75q51 0 89-20.5t93-61.5q33-27 54.5-40t42.5-13q43 0 70.5 30.5T846 1511h137q-4-121-63.5-194.5T762 1243q-51 0-89 20.5t-93 61.5q-33 27-54.5 40t-41.5 13q-43 0-71-32.5t-30-90.5H246z"/><glyph unicode="Ѐ" horiz-adv-x="1372" d="M201 0v1434h1046v-224H467V838h692V618H467V223h809V0H201zm120 1831h301l277-281H677z"/><glyph unicode="Ё" horiz-adv-x="1372" d="M201 0v1434h1046v-224H467V838h692V618H467V223h809V0H201zm204 1696q0 55 35 90t88 35 88-35 35-90q0-53-35-88t-88-35-88 34.5-35 88.5zm397 0q0 55 35 90t88 35 88-35 35-90q0-53-34.5-88t-88.5-35q-53 0-88 34.5t-35 88.5z"/><glyph unicode="Ђ" horiz-adv-x="1722" d="M31 1208v226h1265v-226H770V819q203 64 377 64 236 0 372-117t136-334q0-221-138.5-332.5T1165-12q-94 0-170 16l29 217q49-14 111-14 109 0 182.5 55t73.5 164q0 113-81 174.5T1094 662q-147 0-324-74V0H506v1208H31z"/><glyph unicode="Ѓ" horiz-adv-x="1198" d="M203 0v1434h973l-2-226H463L465 0H203zm297 1550 276 281h301l-356-281H500z"/><glyph unicode="Є" horiz-adv-x="1456" d="M96 717q0 211 94.5 379t261 263 375.5 95q182 0 331-61t247-178l-168-164q-158 170-395 170-184 0-312.5-112.5T373 811h641V600H377q35-174 160.5-280.5T842 213q238 0 395 170l168-163q-98-117-246.5-178.5T827-20q-209 0-375.5 95t-261 263T96 717z"/><glyph unicode="Ѕ" horiz-adv-x="1320" d="m90 152 92 206q88-70 216-113.5T655 201q160 0 238.5 51T972 387q0 61-44 101t-111.5 62.5T632 602q-164 39-265 78T193 802t-73 224q0 119 64.5 216t195 154.5T698 1454q131 0 258-32.5t219-94.5l-84-207q-94 55-196.5 84T696 1233q-158 0-234.5-53.5T385 1038q0-61 44-100t111.5-61.5T725 825q160-37 262-76.5T1162 627t73-221q0-119-65-215.5T974 37 655-20q-166 0-320.5 47T90 152z"/><glyph unicode="І" horiz-adv-x="667" d="M203 0v1434h262V0H203z"/><glyph unicode="Ї" horiz-adv-x="653" d="M4 1696q0 55 35 90t88 35 88-35 35-90q0-53-35-88t-88-35-88 34.5T4 1696zM193 0v1434h266V0H193zm208 1696q0 55 35 90t88 35 88-35 35-90q0-53-34.5-88t-88.5-35q-53 0-88 34.5t-35 88.5z"/><glyph unicode="Ј" horiz-adv-x="1134" d="m30 186 152 183q119-164 285-164 223 0 223 264v741H180v224h776V483q0-252-123-377.5T473-20q-137 0-253 54T30 186z"/><glyph unicode="Љ" horiz-adv-x="2428" d="m29 0 18 231q27-8 62-8 125 0 177 148.5T350 840l21 594h1054V0h-262v1208H598l-12-358q-10-301-49-488.5T412 77 174-20Q121-20 29 0zm1135 0v1434h262V948h397q258 0 396.5-115.5T2358 489q0-238-151.5-363.5T1780 0h-616zm262 205h342q156 0 239.5 71.5T2091 485q0 260-323 260h-342V205z"/><glyph unicode="Њ" horiz-adv-x="2408" d="M203 0v1434h262V879h717v555h262V887h393q240 0 373-112.5T2343 457q0-215-143.5-336T1804 0h-622v653H465V0H203zm1241 205h334q139 0 217 63.5t78 177.5q0 115-77 175.5T1778 682h-334V205z"/><glyph unicode="Ћ" horiz-adv-x="1738" d="M29 1208v226h1253v-226H766V799q203 70 377 69 237 0 372.5-125T1651 373V0h-262v338q0 145-81 222t-225 77q-137 0-317-78V0H502v1208H29z"/><glyph unicode="Ќ" horiz-adv-x="1478" d="M201 0v1434h262V834h274l412 600h283L942 739 1450 0h-301L729 604H463V0H201zm379 1550 276 281h301l-356-281H580z"/><glyph unicode="Ѝ" horiz-adv-x="1683" d="M203 0v1434h262V416l770 1018h248V0h-262v1016L451 0H203zm231 1831h301l277-281H790z"/><glyph unicode="Ў" horiz-adv-x="1445" d="M25 1434h284l424-842 436 842h263L809 276Q727 122 613.5 45.5T367-31q-106 0-211 45l65 209q84-27 139-26 129 0 213 133l23 35zm317 393h186q2-76 49-117t138-41q88 0 138 41t52 117h184q-2-143-97-220t-277-77q-185 0-278 75.5T342 1827z"/><glyph unicode="Џ" horiz-adv-x="1652" d="M203 0v1434h262V225h723v1209h264V0H948v-315H702V0H203z"/><glyph unicode="А" horiz-adv-x="1591" d="m19 0 645 1434h262L1573 0h-278l-144 332H435L293 0H19zm506 541h538l-270 626z"/><glyph unicode="Б" horiz-adv-x="1505" d="M203 0v1434h1116v-220H465V862h424q258 0 392-107.5T1415 444q0-213-147.5-328.5T848 0H203zm262 205h369q154 0 233.5 59.5T1147 436q0 221-313 221H465V205z"/><glyph unicode="В" horiz-adv-x="1527" d="M203 0v1434h641q242 0 377-96.5t135-272.5q0-113-54.5-195T1145 745q137-36 208.5-125.5T1425 397q0-188-139-292.5T883 0H203zm262 205h409q283 0 283 213 0 209-283 209H465V205zm0 616h356q129 0 196.5 51.5T1085 1024t-67.5 152.5T821 1229H465V821z"/><glyph unicode="Г" horiz-adv-x="1198" d="M203 0v1434h973l-2-226H463L465 0H203z"/><glyph unicode="Д" horiz-adv-x="1671" d="m29-305 2 530h61q135 6 189.5 199.5T348 979l17 455h1050V225h207v-530h-246V0H276v-305H29zm397 530h727v983H592l-10-254q-11-278-45.5-463.5T426 225z"/><glyph unicode="Е" horiz-adv-x="1372" d="M201 0v1434h1046v-224H467V838h692V618H467V223h809V0H201z"/><glyph unicode="Ж" horiz-adv-x="2154" d="m33 0 450 748-420 686h283l350-600h252v600h260V834h248l352 600h283l-418-689L2122 0h-307l-361 604h-246V0H948v604H702L340 0H33z"/><glyph unicode="З" horiz-adv-x="1329" d="m59 139 86 195q94-63 209-97t228-34q162 0 269 63.5T958 440q0 94-77.5 143.5T666 633H332v209h313q119 0 186.5 49t67.5 133q0 100-91 155.5T575 1235q-96 0-198.5-27.5T184 1126l-84 215q111 59 235 89t247 30q160 0 294-49t213.5-140 79.5-214q0-106-57-186T954 748q129-41 202-132.5t73-214.5q0-129-84-224T920.5 31 614-20q-143 0-287.5 39.5T59 139z"/><glyph unicode="И" horiz-adv-x="1683" d="M203 0v1434h262V416l770 1018h248V0h-262v1016L451 0H203z"/><glyph unicode="Й" horiz-adv-x="1683" d="M203 0v1434h262V416l770 1018h248V0h-262v1016L451 0H203zm264 1827h186q2-76 49-117t138-41q88 0 138 41t52 117h184q-2-143-97-220t-277-77q-185 0-278 75.5T467 1827z"/><glyph unicode="К" horiz-adv-x="1478" d="M201 0v1434h262V834h274l412 600h283L942 739 1450 0h-301L729 604H463V0H201z"/><glyph unicode="Л" horiz-adv-x="1628" d="m29 0 18 231q27-8 62-8 125 0 177 148.5T350 840l21 594h1054V0h-262v1208H598l-12-358q-10-301-49-488.5T412 77 174-20Q121-20 29 0z"/><glyph unicode="М" horiz-adv-x="1972" d="M203 0v1434h219l567-949 561 949h217l5-1434h-254l-2 950-472-786H926L455 938V0H203z"/><glyph unicode="Н" horiz-adv-x="1675" d="M201 0v1434h266V842h741v592h266V0h-266v614H467V0H201z"/><glyph unicode="О" horiz-adv-x="1730" d="M92 717q0 209 100.5 378T469 1359t395 95 395.5-95 276.5-263 100-379-100-379-276.5-263T864-20 469 75 192.5 339 92 717zm268 0q0-143 65.5-259T606 277.5 864 213q144 0 258.5 64.5t180 180T1368 717q0 143-65.5 259t-180 180.5T864 1221q-143 0-258-64.5T425.5 976 360 717z"/><glyph unicode="П" horiz-adv-x="1673" d="M203 0v1434h1267V0h-262v1208H465V0H203z"/><glyph unicode="Р" horiz-adv-x="1472" d="M201 0v1434h589q187 0 325-61.5t212-176.5 74-272q0-156-74-271.5t-212-177T790 414H467V0H201zm266 639h311q174 0 264 73.5t90 211.5q0 137-90 210.5T778 1208H467V639z"/><glyph unicode="С" horiz-adv-x="1476" d="M94 717q0 211 100.5 379T470 1359t392 95q176 0 321.5-61.5T1429 1214l-172-161q-156 168-383 168-147 0-264-64.5T427.5 977 362 717t65.5-260T610 277.5 874 213q227 0 383 170l172-164q-100-117-246.5-178T860-20q-217 0-392 95T193.5 338 94 717z"/><glyph unicode="Т" horiz-adv-x="1269" d="M29 1208v226h1212v-226H766V0H502v1208H29z"/><glyph unicode="У" horiz-adv-x="1445" d="M25 1434h284l424-842 436 842h263L809 276Q727 122 613.5 45.5T367-31q-106 0-211 45l65 209q84-27 139-26 129 0 213 133l23 35z"/><glyph unicode="Ф" horiz-adv-x="1918" d="M80 719q0 283 197.5 445.5T838 1346v145h245v-145q362-18 559-181.5T1839 719q0-283-196.5-446.5T1083 94V-57H838V94q-362 18-560 180T80 719zm260 0q0-187 128-291t370-125v832q-498-37-498-416zm743-416q246 19 373 124t127 294q0 188-128 292.5T1083 1135V303z"/><glyph unicode="Х" horiz-adv-x="1417" d="m27 0 518 735-486 699h308l338-480 337 480h312L872 745 1393 0h-316L705 522 334 0H27z"/><glyph unicode="Ц" horiz-adv-x="1708" d="M203 0v1434h262V225h723v1209h264V225h213v-540h-246V0H203z"/><glyph unicode="Ч" horiz-adv-x="1519" d="M98 977v457h264v-428q0-152 88.5-232T702 694q186 0 353 76v664h264V0h-264v541q-203-76-385-76-274 0-423 132T98 977z"/><glyph unicode="Ш" horiz-adv-x="2246" d="M203 0v1434h262V225h528v1209h262V225h527v1209h262V0H203z"/><glyph unicode="Щ" horiz-adv-x="2306" d="M203 0v1434h262V225h528v1209h262V225h527v1209h262V0H203zm1573 0v225h475v-530h-246V0h-229z"/><glyph unicode="Ъ" horiz-adv-x="1712" d="M29 1208v226h682V948h397q258 0 396-115.5T1642 489q0-240-150.5-364.5T1063 0H449v1208H29zM711 205h342q155 0 238 71.5t83 208.5q0 260-321 260H711V205z"/><glyph unicode="Ы" horiz-adv-x="2068" d="M203 0v1434h262V948h397q258 0 396.5-115.5T1397 489q0-238-151.5-363.5T819 0H203zm262 205h342q156 0 239.5 71.5T1130 485q0 260-323 260H465V205zM1604 0v1434h262V0h-262z"/><glyph unicode="Ь" horiz-adv-x="1468" d="M203 0v1434h262V948h397q258 0 396.5-115.5T1397 489q0-238-151.5-363.5T819 0H203zm262 205h342q156 0 239.5 71.5T1130 485q0 260-323 260H465V205z"/><glyph unicode="Э" horiz-adv-x="1454" d="m49 219 168 164q158-170 395-170 184 0 312.5 112.5T1081 623H440v211h637q-35 174-160.5 280.5T612 1221q-238 0-395-170L49 1214q98 117 246.5 178.5T627 1454q209 0 375.5-95t261-263 94.5-379-94.5-379-261-263T627-20q-182 0-331 61T49 219z"/><glyph unicode="Ю" horiz-adv-x="2265" d="M203 0v1434h262V846h229q29 178 130.5 316t258 215 344.5 77q211 0 380-95t265.5-263 96.5-379-96.5-379T1807 75t-380-95q-193 0-351 79.5t-259.5 223T690 608H465V0H203zm751 717q0-147 62.5-262t170-178.5T1427 213q134 0 242.5 63.5t170 178T1901 717q0 147-61.5 262t-170 178.5T1427 1221q-133 0-240.5-63.5t-170-178.5T954 717z"/><glyph unicode="Я" horiz-adv-x="1499" d="M100 907q0 164 74 283t209 181.5 317 62.5h596V0h-262v399H651L385 0H104l308 442q-150 55-231 175t-81 290zm271 4q0-141 84-218t243-77h336v592H709q-164 0-251-75.5T371 911z"/><glyph unicode="а" horiz-adv-x="1222" d="M84 313q0 147 109.5 236.5T539 639h282v16q0 115-68.5 176.5T549 893q-92 0-181-28.5T217 784L117 971q86 66 207 100.5t256 34.5q241 0 369-116t128-349V0H836v133Q789 61 702 23.5T492-14 276.5 28 134 144.5 84 313zm252 11q0-70 55.5-111T545 172q96 0 171 44t105 126v127H557q-221 0-221-145z"/><glyph unicode="б" horiz-adv-x="1366" d="M111 711q0 330 141 522t432 254l508 108 37-229-461-94q-199-41-297-139.5T356 856q74 88 178.5 136t229.5 48q156 0 274.5-66.5t185-185T1290 516q0-158-73.5-279.5T1010 47.5 707-20q-285 0-440.5 188T111 711zm282-201q0-143 89-233.5T713 186q141 0 228 91.5t87 232.5-87 227-228 86q-143 0-231.5-86T393 510z"/><glyph unicode="в" horiz-adv-x="1267" d="M172 0v1094h535q201 0 313.5-74T1133 811q0-84-44.5-145.5T965 569q202-61 202-262 0-147-110.5-227T729 0H172zm244 186h293q211 1 211 138 0 72-49.5 107.5T717 467H416V186zm0 451h268q199 0 199 137 0 133-199 133H416V637z"/><glyph unicode="г" horiz-adv-x="1026" d="M172 0v1094h840V877H428V0H172z"/><glyph unicode="д" horiz-adv-x="1396" d="M18 217h52q104 4 142 134t50 368l14 375h902V217h161v-461h-239V0H256v-244H18v461zm365 0h539v660H502l-6-177q-9-188-31.5-307T383 217z"/><glyph unicode="е" horiz-adv-x="1304" d="M78 547q0 160 72.5 288T352 1034.5t291 71.5q160 0 286-70.5T1125.5 837t70.5-296q0-27-4-76H334q23-121 118-191.5T688 203q180 0 297 119l137-158q-74-88-186.5-133T682-14q-180 0-317.5 71.5T152.5 257 78 547zm254 88h620q-16 119-100 192.5T643 901q-123 0-208-72.5T332 635z"/><glyph unicode="ж" horiz-adv-x="1800" d="m18 0 359 565-332 529h272l267-443h188v443h254V651h186l269 443h272l-332-529L1782 0h-305l-267 438h-184V0H772v438H588L322 0H18z"/><glyph unicode="з" horiz-adv-x="1134" d="m49 96 74 191q80-45 180-69.5T504 193q129 0 201.5 39.5T778 342q0 63-56 98t-159 35H350v172h193q96 0 150.5 33t54.5 92-66 94-180 35q-164 0-346-80l-66 189q215 100 434 100 139 0 250-38t173.5-106.5T1010 809q0-80-49.5-142.5T825 569q103-28 159-92.5t56-154.5q0-100-67.5-177t-186-120T516-18q-127 0-248 29.5T49 96z"/><glyph unicode="и" horiz-adv-x="1437" d="M172 0v1094h256V373l604 721h234V0h-256v721L408 0H172z"/><glyph unicode="й" horiz-adv-x="1437" d="M172 0v1094h256V373l604 721h234V0h-256v721L408 0H172zm188 1524h170q2-74 46-117t124-43q78 0 124 43t48 117h174q-2-147-90-224t-254-77-253 76.5-89 224.5z"/><glyph unicode="к" horiz-adv-x="1265" d="M172 0v1094h256V651h205l323 443h275L834 567 1257 0H956L627 438H428V0H172z"/><glyph unicode="л" horiz-adv-x="1335" d="m12 2 13 215q29-6 49-6 78 0 116.5 62.5t50 149.5T260 672l19 422h884V0H907v877H498l-11-218q-10-217-39.5-363T347 65 154-20Q97-20 12 2z"/><glyph unicode="м" horiz-adv-x="1650" d="M172 0v1094h268l389-684 408 684h240l2-1094h-232v725L879 115H768L406 727V0H172z"/><glyph unicode="н" horiz-adv-x="1406" d="M172 0v1094h256V649h551v445h256V0H979v432H428V0H172z"/><glyph unicode="о" horiz-adv-x="1323" d="M78 547q0 162 74.5 289t208 198.5T659 1106q168 0 301.5-71.5t208-198.5 74.5-289-74.5-290-208-199.5T659-14q-165 0-298.5 71.5T152.5 257 78 547zm258 0q0-154 91-248t232-94q142 0 234 94t92 248-92 248-234 94q-141 0-232-94.5T336 547z"/><glyph unicode="п" horiz-adv-x="1394" d="M172 0v1094h1049V0H967v877H428V0H172z"/><glyph unicode="р" horiz-adv-x="1415" d="M172-397v1491h244V950q63 78 156.5 117t205.5 39q160 0 286-69.5T1261.5 840t71.5-293-71.5-294T1064 55.5 778-14q-221 0-350 147v-530H172zm252 944q0-102 43-180t116.5-120T749 205q142 0 233 94t91 248-91 248-233 94q-92 0-165.5-42T467 727t-43-180z"/><glyph unicode="с" horiz-adv-x="1189" d="M78 547q0 162 75.5 289t210 198.5T670 1106q162 0 283.5-65.5T1137 852L940 737q-47 76-117.5 114T668 889q-143 0-237.5-93.5T336 547q0-156 93-249t239-93q84 0 154.5 38T940 356l197-114q-63-123-185.5-189.5T670-14q-170 0-305.5 71.5T153.5 257 78 547z"/><glyph unicode="т" horiz-adv-x="1052" d="M14 877v217h1024V877H655V0H399v877H14z"/><glyph unicode="у" horiz-adv-x="1210" d="M-23-311 80-123q37-35 87-55.5T268-199q68 0 112 35t81 117l18 43L2 1094h266l344-809 346 809h246L692-88q-72-178-174.5-251T270-412q-82 0-162 27t-131 74z"/><glyph unicode="ф" horiz-adv-x="1693" d="M76 549q0 254 168 396t481 163v412h242v-412q313-20 482-163.5T1618 549q0-254-169-399.5T967-16v-381H725v379Q412 2 244 147.5T76 549zm252 0q0-158 97-246t300-106v694q-203-16-300-102.5T328 549zm639-352q401 37 401 352 0 156-99.5 240.5T967 891V197z"/><glyph unicode="х" horiz-adv-x="1155" d="m10 0 426 555-407 539h285l268-359 268 359h277L717 559 1145 0H856L576 379 293 0H10z"/><glyph unicode="ц" horiz-adv-x="1427" d="M172 0v1094h256V217h522v877h256V217h166v-469h-239V0H172z"/><glyph unicode="ч" horiz-adv-x="1271" d="M78 743v351h256V760q0-104 61.5-155.5T569 553q143 0 275 61v480h256V0H844v424q-158-76-330-76-211 0-323.5 97.5T78 743z"/><glyph unicode="ш" horiz-adv-x="1955" d="M172 0v1094h256V217h424v877h256V217h420v877h256V0H172z"/><glyph unicode="щ" horiz-adv-x="1955" d="M172 0v1094h256V217h424v877h256V217h420v877h256V0H172zm1348 0v217h421v-442h-239V0h-182z"/><glyph unicode="ъ" horiz-adv-x="1351" d="M14 877v217h580V735h278q205 0 315.5-95T1298 375q0-178-122.5-276.5T831 0H338v877H14zm580-689h225q109 0 164 49.5t55 143.5q0 176-219 176H594V188z"/><glyph unicode="ы" horiz-adv-x="1703" d="M172 0v1094h256V735l277-2q208 0 319-94t111-266q0-180-122-278.5T668-2zm256 188 217-2q113-2 172.5 47.5T877 377q0 92-57.5 135T645 557l-217 2V188zM1276 0v1094h256V0h-256z"/><glyph unicode="ь" horiz-adv-x="1206" d="M172 0v1094h256V735l293-2q209 0 320.5-94T1153 373q0-180-123-278.5T684-2zm256 188 234-2q112-2 171.5 47.5T893 377q0 92-57.5 135T662 557l-234 2V188z"/><glyph unicode="э" horiz-adv-x="1189" d="m37 172 147 143q129-129 318-129 139 0 238.5 75T868 461H362v184h504q-31 121-129 191.5T502 907q-188 0-318-131L37 920q82 94 203.5 142t271.5 48q172 0 309-72.5T1036 837t78-290-78-291T821 54.5 512-18q-150 0-270.5 49T37 172z"/><glyph unicode="ю" horiz-adv-x="1820" d="M172 0v1094h256V670h188q25 129 103 228t194.5 153.5T1171 1106q164 0 293-70.5T1667 837t74-290-74-290-203-199.5T1171-14q-143 0-261.5 56T713 201.5 612 438H428V0H172zm686 547q0-156 89-250t224-94q91 0 162.5 42T1446 365.5t41 181.5q0 156-89 249t-227 93q-137 0-225-93.5T858 547z"/><glyph unicode="я" horiz-adv-x="1267" d="m80 0 258 365q-119 41-181.5 125.5T94 700q0 188 133 291t367 103h502V0H866v330H578L354 0H80zm274 692q0-184 240-184h272v371H602q-248-1-248-187z"/><glyph unicode="ѐ" horiz-adv-x="1304" d="M78 547q0 160 72.5 288T352 1034.5t291 71.5q160 0 286-70.5T1125.5 837t70.5-296q0-27-4-76H334q23-121 118-191.5T688 203q180 0 297 119l137-158q-74-88-186.5-133T682-14q-180 0-317.5 71.5T152.5 257 78 547zm153 977h301l277-281H587zm101-889h620q-16 119-100 192.5T643 901q-123 0-208-72.5T332 635z"/><glyph unicode="ё" horiz-adv-x="1304" d="M78 547q0 160 72.5 288T352 1034.5t291 71.5q160 0 286-70.5T1125.5 837t70.5-296q0-27-4-76H334q23-121 118-191.5T688 203q180 0 297 119l137-158q-74-88-186.5-133T682-14q-180 0-317.5 71.5T152.5 257 78 547zm237 842q0 55 35 89.5t88 34.5 88-34.5 35-89.5q0-53-35-88t-88-35-88 34.5-35 88.5zm17-754h620q-16 119-100 192.5T643 901q-123 0-208-72.5T332 635zm380 754q0 55 35 89.5t88 34.5 88-34.5 35-89.5q0-53-34.5-88t-88.5-35q-53 0-88 34.5t-35 88.5z"/><glyph unicode="ђ" horiz-adv-x="1392" d="M-29 1219v165h201v136h246v-136h475v-165H418V954q63 74 159.5 113t215.5 39q206 0 331-121t125-358V-20q0-182-99-287T868-412q-162 0-245 64l75 190q55-43 150-43 70 0 107.5 44T993-27v621q0 143-67.5 216T733 883q-141 0-223-85t-82-245V0H172v1219H-29z"/><glyph unicode="ѓ" horiz-adv-x="1026" d="M172 0v1094h840V877H428V0H172zm252 1239 276 281h301l-356-281H424z"/><glyph unicode="є" horiz-adv-x="1196" d="M78 547q0 162 78 291t215 201.5 309 72.5q150 0 270.5-49T1155 922l-147-143Q879 908 690 908q-139 0-238.5-75T324 633h506V449H326q31-121 129-191.5T690 187q188 0 318 131l147-144q-82-94-203.5-142T680-16q-172 0-309 72.5T156 257 78 547z"/><glyph unicode="ѕ" horiz-adv-x="1114" d="m76 109 98 194q74-49 177.5-78.5T555 195q229 0 230 120 0 57-58.5 80T539 438q-135 20-220 47t-147.5 93.5T109 764q0 156 130 249t351 93q113 0 225.5-25.5T1000 1012l-99-195q-139 82-313 82-113 0-171-34t-58-89q0-61 62.5-86.5T615 641q131-20 215-47t144-90.5 60-179.5q0-154-133-246T539-14q-133 0-260 34.5T76 109z"/><glyph unicode="і" horiz-adv-x="602" d="M137 1427q0 66 47 110t117 44 116.5-42 46.5-105q0-68-46-114t-117-46q-70 0-117 44t-47 109zM172 0v1094h256V0H172z"/><glyph unicode="ї" horiz-adv-x="591" d="M22 1389q0 53 34 87.5t85 34.5q49 0 83-34.5t34-87.5q0-51-34-86t-83-35q-51 0-85 33.5T22 1389zM168 0v1094h256V0H168zm168 1389q0 53 33.5 87.5T454 1511t84-34.5 33-87.5-33-87-84-34-84.5 34.5T336 1389z"/><glyph unicode="ј" horiz-adv-x="604" d="m-194-348 73 190q57-43 150-43 72 0 109.5 44T176-27v1121h256V-20q0-182-100-287T51-412q-161 1-245 64zm334 1775q0 66 47 110t117 44 116.5-42 46.5-105q0-68-46-114t-117-46q-70 0-117 44t-47 109z"/><glyph unicode="љ" horiz-adv-x="1941" d="m12 2 13 215q29-6 49-6 78 0 116.5 62.5t50 149.5T260 672l19 422h884V0H907v877H498l-11-218q-10-217-39.5-363T347 65 154-20Q97-20 12 2zm895-2v1094h256V735l293-2q209 0 320.5-94T1888 373q0-180-123-278.5T1419-2zm256 188 234-2q112-2 171.5 47.5T1628 377q0 92-57.5 135T1397 557l-234 2V188z"/><glyph unicode="њ" horiz-adv-x="1970" d="M172 0v1094h256V686h530v408h256V686h291q201 0 309.5-86T1923 356q0-168-121-262T1468 0H958v469H428V0H172zm1042 184h238q100 0 154.5 42t54.5 116q0 72-53.5 109.5T1452 489h-238V184z"/><glyph unicode="ћ" horiz-adv-x="1390" d="M-82 1229v141h254v150h256v-150h461v-141H428V967q63 68 156.5 103.5T793 1106q206 0 331-121t125-358V0H993v594q0 143-67.5 216T733 883q-141 0-223-85t-82-245V0H172v1229H-82z"/><glyph unicode="ќ" horiz-adv-x="1265" d="M172 0v1094h256V651h205l323 443h275L834 567 1257 0H956L627 438H428V0H172zm308 1243 276 281h301l-356-281H480z"/><glyph unicode="ѝ" horiz-adv-x="1437" d="M172 0v1094h256V373l604 721h234V0h-256v721L408 0H172zm125 1524h301l277-281H653z"/><glyph unicode="ў" horiz-adv-x="1210" d="M-23-311 80-123q37-35 87-55.5T268-199q68 0 112 35t81 117l18 43L2 1094h266l344-809 346 809h246L692-88q-72-178-174.5-251T270-412q-82 0-162 27t-131 74zm258 1835h170q2-74 46-117t124-43q78 0 124 43t48 117h174q-2-147-90-224t-254-77-253 76.5-89 224.5z"/><glyph unicode="џ" horiz-adv-x="1337" d="M172 0v1094h256V217h481v877h254V0H791v-252H549V0H172z"/><glyph unicode="Ѣ" horiz-adv-x="1679" d="M37 1122v187h375v211h262v-211h432v-187H674V938h407q256 0 392.5-116.5T1610 481q0-229-148.5-355T1038 0H412v1122H37zm637-917h354q154 0 232.5 67.5T1339 473q0 260-311 260H674V205z"/><glyph unicode="ѣ" horiz-adv-x="1290" d="M-2 977v176h258v367h256v-367h397V977H512V735l293-2q209 0 320.5-94T1237 373q0-180-123-278.5T768-2L256 0v977H-2zm514-789 233-2q113-2 172.5 47.5T977 377q0 92-57.5 135T745 557l-233 2V188z"/><glyph unicode="Ѫ" horiz-adv-x="1886" d="m31 0 129 311q88 238 213 347.5T670 774l-461 490v170h1468v-164l-463-496q172-4 299-113.5T1729 311L1855 0h-274l-96 250q-111 334-350 334h-70V0H819v584h-63q-121 0-209-78T399 250L305 0H31zm473 1235 440-461 438 461H504z"/><glyph unicode="ѫ" horiz-adv-x="1505" d="m23 0 92 229q70 186 160 271.5T496 596L162 938v156h1173V938L999 598q135-8 228.5-94T1391 229l92-229h-250l-66 174q-41 135-100 193.5T915 426h-57V0H639v426h-49q-90 0-151.5-59.5T336 174L272 0H23zm405 924 317-326h5l321 326H428z"/><glyph unicode="Ѳ" horiz-adv-x="1730" d="M92 717q0 209 100.5 378T469 1359t395 95 395.5-95 276.5-263 100-379-100-379-276.5-263T864-20 469 75 192.5 339 92 717zm88-98v196h1383V619H180zm180 98q0-143 65.5-259T606 277.5 864 213q144 0 258.5 64.5t180 180T1368 717q0 143-65.5 259t-180 180.5T864 1221q-143 0-258-64.5T425.5 976 360 717z"/><glyph unicode="ѳ" horiz-adv-x="1341" d="M78 547q0 162 76.5 290t211 198.5T670 1106t305-70.5T1187 837t77-290-77-290T975 57.5 670-14 365.5 57.5 154.5 257 78 547zm252-86q25-127 117-203t223-76q133 0 225 75t117 204H330zm0 172h682q-25 129-117 203.5T670 911t-224.5-74.5T330 633z"/><glyph unicode="Ѵ" horiz-adv-x="1589" d="M23 1434h288L741 379l275 754q57 168 148 246.5t231 78.5q70 0 166-22l-27-254q-49 12-88 12-78 0-128-52t-93-171L872 0H608z"/><glyph unicode="ѵ" horiz-adv-x="1271" d="M4 1094h281l325-766 207 544q47 127 115.5 185.5T1108 1116q61 0 152-22l-27-248q-47 12-78 12-47 0-76.5-33.5T1014 698L737 0H481z"/><glyph unicode="Ҋ" horiz-adv-x="1753" d="M203 0v1434h262V416l770 1018h248V225h209l-154-530h-211l68 305h-174v1016L451 0H203zm264 1827h186q2-76 49.5-117t137.5-41q88 0 138 41t52 117h184q-2-143-97-220t-277-77q-185 0-278 75.5T467 1827z"/><glyph unicode="ҋ" horiz-adv-x="1486" d="M172 0v1094h256V373l604 721h234V217h170l-129-442h-205l53 225h-145v721L408 0H172zm176 1524h168q2-70 55.5-112t130.5-42q78 0 131.5 42t55.5 112h168q-6-135-105.5-215T702 1229q-149 0-248.5 80T348 1524z"/><glyph unicode="Ҍ" horiz-adv-x="1525" d="M57 1122v187h199v211h262v-211h430v-187H518V938h410q256 0 391-116.5T1454 481q0-231-148.5-356T883 0H256v1122H57zm461-917h354q154 0 233 67.5t79 200.5q0 260-312 260H518V205z"/><glyph unicode="ҍ" horiz-adv-x="1273" d="M39 807v174h203v113h256V981h397V807H498V702l293-2q213-2 322.5-87T1223 360q0-178-123-271T752-2L242 0v807H39zm459-623h233q232-4 232 178 0 90-55.5 125T731 524l-233 2V184z"/><glyph unicode="Ҏ" horiz-adv-x="1503" d="M203 0v1434h590q283 0 445.5-138.5T1401 913q0-141-55.5-248.5T1186 489l172-223-129-104-199 260q-109-31-237-31H469V0H203zm266 616h311q52 1 97 7L694 860l127 105 213-279q98 78 99 227 0 143-90.5 219T780 1208H469V616z"/><glyph unicode="ҏ" horiz-adv-x="1437" d="M172-397v1491h246V899q119 207 391 207 147 0 269-69.5T1269.5 839t69.5-294q0-127-42-232.5T1180 131l127-162-125-98-135 168Q936-14 809-14q-258 0-379 190v-573H172zm254 942q0-156 93-249t237-93q78-1 137 26L754 403l131 103 137-174q63 86 63 213 0 156-93 250t-236 94-236.5-94.5T426 545z"/><glyph unicode="Ґ" horiz-adv-x="1204" d="M203 0v1434h727v295h246v-521H465V0H203z"/><glyph unicode="ґ" horiz-adv-x="991" d="M172 0v1094h563v223h240V877H428V0H172z"/><glyph unicode="Ғ" horiz-adv-x="1288" d="M51 567v185h215v682h973l-2-226H526V752h582V567H528V0H266v567H51z"/><glyph unicode="ғ" horiz-adv-x="1089" d="M78 381v168h135v545h840V877H469V549h440V381H469V0H213v381H78z"/><glyph unicode="Ҕ" horiz-adv-x="1443" d="M203 0v1434h1014v-226H465V735q186 78 354 78 156 0 279-63.5T1290.5 566t69.5-283q0-170-74-304.5t-202-208T797-303q-74 0-144 14l45 213q39-8 80-8 90 0 163 44t115 123 42 181q0 158-94.5 248T760 602q-147 0-295-90V0H203z"/><glyph unicode="ҕ" horiz-adv-x="1255" d="M172 0v1094h821V877H428V539q150 55 287 55 143 0 257.5-57.5t179.5-167 65-256.5q0-152-68-270.5T957.5-343 674-410q-88 0-164 17l53 215q47-8 96-8 139 0 217 78.5T954 102q0 139-81.5 210T666 383q-123 0-238-59V0H172z"/><glyph unicode="Җ" horiz-adv-x="2226" d="m33 0 450 748-420 686h283l350-600h252v600h260V834h248l352 600h283l-418-689L2122 0h-307l-361 604h-246V0H948v604H702L340 0H33zm1782 0v225h385v-530h-246V0h-139z"/><glyph unicode="җ" horiz-adv-x="1861" d="m18 0 359 565-332 529h272l267-443h188v443h254V651h186l269 443h272l-332-529L1782 0h-305l-267 438h-184V0H772v438H588L322 0H18zm1459 0v213h368v-440h-231V0h-137z"/><glyph unicode="Ҙ" horiz-adv-x="1329" d="m59 139 86 195q94-63 209-97t228-34q162 0 269 63.5T958 440q0 94-77.5 143.5T666 633H332v209h313q119 0 186.5 49t67.5 133q0 100-91 155.5T575 1235q-96 0-198.5-27.5T184 1126l-84 215q111 59 235 89t247 30q160 0 294-49t213.5-140 79.5-214q0-106-57-186T954 748q129-41 202-132.5t73-214.5q0-129-84-224T920.5 31 614-20q-143 0-287.5 39.5T59 139zm443-84h248v-360H502V55z"/><glyph unicode="ҙ" horiz-adv-x="1134" d="m49 96 74 191q80-45 180-69.5T504 193q129 0 201.5 39.5T778 342q0 63-56 98t-159 35H350v172h193q96 0 150.5 33t54.5 92-66 94-180 35q-164 0-346-80l-66 189q215 100 434 100 139 0 250-38t173.5-106.5T1010 809q0-80-49.5-142.5T825 569q102-29 158.5-93t56.5-154q0-127-106.5-216.5T649-8v-217H408v213Q209 6 49 96z"/><glyph unicode="Қ" horiz-adv-x="1560" d="M201 0v1434h262V834h274l412 600h283L942 739 1450 0h-301L729 604H463V0H201zm948 0v225h385v-530h-246V0h-139z"/><glyph unicode="қ" horiz-adv-x="1265" d="M172 0v1094h256V651h205l323 443h275L834 567 1257 0H956L627 438H428V0H172zm785 0v213h368v-440h-231V0H957z"/><glyph unicode="Ҝ" horiz-adv-x="1548" d="M201 0v1434h262V834h117v266h176V834h82l362 600h283l-434-693L1518 0h-312L831 604h-75V340H580v264H463V0H201z"/><glyph unicode="ҝ" horiz-adv-x="1298" d="M166 0v1094h256V651h82v187h162V651h49l272 443h266L915 567 1282 0H983L709 438h-43V256H504v182h-82V0H166z"/><glyph unicode="Ҟ" horiz-adv-x="1525" d="M63 1098v168h183v168h262v-168h313v-168H508V834h274l412 600h283L987 739 1495 0h-301L774 604H508V0H246v1098H63z"/><glyph unicode="ҟ" horiz-adv-x="1263" d="M-10 1219v170h182v131h256v-134l297-2v-165H428V651h201l327 443h273L831 569 1255 0H952L625 438H428V0H172v1219H-10z"/><glyph unicode="Ҡ" horiz-adv-x="1728" d="M29 1208v226h682V834h274l412 600h282l-489-693L1700 0h-303L977 604H711V0H449v1208H29z"/><glyph unicode="ҡ" horiz-adv-x="1429" d="M14 881v213h578V651h205l323 443h275L997 567 1421 0h-301L791 438H592V0H336v881H14z"/><glyph unicode="Ң" horiz-adv-x="1738" d="M201 0v1434h266V842h741v592h266V0h-266v614H467V0H201zm1013 0v225h475v-530h-246V0h-229z"/><glyph unicode="ң" horiz-adv-x="1454" d="M172 0v1094h256V649h551v445h256V0H979v432H428V0H172zm807 0v217h421v-442h-239V0H979z"/><glyph unicode="Ҥ" horiz-adv-x="2217" d="M201 0v1434h266V842h741v592h266V0h-266v614H467V0H201zm1014 0v1434h973l-2-226h-711l2-1208h-262z"/><glyph unicode="ҥ" horiz-adv-x="1832" d="M172 0v1094h256V649h551v445h256V0H979v432H428V0H172zm807 0v1094h840V877h-584V0H979z"/><glyph unicode="Ҧ" horiz-adv-x="2430" d="M203 0v1434h1267V737q175 74 349 74 156 0 279.5-63.5t193-183.5 69.5-281q0-170-73.5-304.5t-201.5-208-288-73.5q-74 0-143 14l43 213q39-8 82-8 139 0 228 96.5t89 251.5q0 156-91 245t-239 89q-143 0-297-84V0h-262v1208H465V0H203z"/><glyph unicode="ҧ" horiz-adv-x="2017" d="M172 0v1094h1026V541q142 53 285 53t256.5-57.5 178-166T1982 113q0-152-67.5-270.5T1723-343t-285-67q-88 0-164 17l53 215q47-8 96-8 141 0 219 78.5t78 209.5q0 139-82 210t-208 71q-117 0-232-57V0H942v877H428V0H172z"/><glyph unicode="Ҩ" horiz-adv-x="1998" d="M104 766q0 215 89.5 397.5T446 1462l211-114q-135-102-210.5-260T371 754t74.5-308.5 210-205T965 168q31 0 45 2-135 117-211 282.5T723 817q0 193 71.5 340.5t201.5 228 302 80.5q166 0 292-75.5t195.5-213T1855 858q0-213-96-394t-262-304q61-10 115-10 115 0 239 36l23-188q-142-37-279-37-190 0-354 68-156-53-326-54-233 0-417.5 98.5T208.5 351 104 766zm879 51q0-194 79-343.5T1278 240q150 80 233.5 232.5T1595 831q0 193-78.5 301.5T1294 1241q-145 0-228-113.5T983 817z"/><glyph unicode="ҩ" horiz-adv-x="1677" d="M84 592q0 162 71.5 300T356 1118l203-104q-104-86-161.5-196.5T340 582q0-190 125-303t338-113q-92 90-143.5 208T608 627q0 147 59.5 258.5t168 173T1090 1120q139 0 243.5-57T1495 901.5t57-242.5q0-152-67.5-282.5T1294 152q45-4 68-5 90 0 188 25l13-180q-117-31-230-31-158 0-301 57-133-39-268-38-203 0-356.5 75.5T169 270.5 84 592zm766 39q0-135 57.5-239.5T1067 223q117 59 180.5 168t63.5 254q0 123-61.5 194.5T1085 911q-108 0-171.5-75.5T850 631z"/><glyph unicode="Ҫ" horiz-adv-x="1476" d="M94 717q0 211 100.5 379T470 1359t392 95q176 0 321.5-61.5T1429 1214l-172-161q-156 168-383 168-147 0-264-64.5T427.5 977 362 717t65.5-260T610 277.5 874 213q227 0 383 170l172-164q-100-117-246.5-178T860-20q-217 0-392 95T193.5 338 94 717zM702 55h248v-360H702V55z"/><glyph unicode="ҫ" horiz-adv-x="1189" d="M78 547q0 162 75.5 289t210 198.5T670 1106q162 0 283.5-65.5T1137 852L940 737q-47 76-117.5 114T668 889q-143 0-237.5-93.5T336 547q0-156 93-249t239-93q84 0 154.5 38T940 356l197-114q-63-123-185.5-189.5T670-14q-170 0-305.5 71.5T153.5 257 78 547zM524 51h242v-276H524V51z"/><glyph unicode="Ҭ" horiz-adv-x="1269" d="M29 1208v226h1212v-226H766V0H502v1208H29zM502 0v225h475v-530H731V0H502z"/><glyph unicode="ҭ" horiz-adv-x="1052" d="M14 877v217h1024V877H655V0H399v877H14zM400 0v217h421v-442H582V0H400z"/><glyph unicode="Ү" horiz-adv-x="1409" d="M9 1434h284l420-699 424 699h262L838 506V0H572v502z"/><glyph unicode="ү" horiz-adv-x="1214" d="M6 1094h266l340-811 351 811h245L735-6v-391H477v387z"/><glyph unicode="Ұ" horiz-adv-x="1353" d="M-18 1434h284l420-699 424 699h262L811 506V0H545v502zM160 422v195h1016V422H160z"/><glyph unicode="ұ" horiz-adv-x="1214" d="M6 1094h266l340-811 351 811h245L735-6v-391H477v387zM141-72V96h926V-72H141z"/><glyph unicode="Ҳ" horiz-adv-x="1484" d="m27 0 518 735-486 699h308l338-480 337 480h312L872 745 1393 0h-316L705 522 334 0H27zm1051 0v225h385v-530h-246V0h-139z"/><glyph unicode="ҳ" horiz-adv-x="1155" d="m10 0 426 555-407 539h285l268-359 268 359h277L717 559 1145 0H856L576 379 293 0H10zm844 0v213h368v-440H991V0H854z"/><glyph unicode="Ҵ" horiz-adv-x="2013" d="M31 1208v226h1140v-226H770V223h723v1209h264V223h213v-540h-246V-2H508v2h-2v1208H31z"/><glyph unicode="ҵ" horiz-adv-x="1609" d="M16 877v217h924V877H655V217h484v877h254V217h151v-442h-237V0H401v877H16z"/><glyph unicode="Ҷ" horiz-adv-x="1583" d="M98 977v457h264v-428q0-152 88.5-232T702 694q186 0 353 76v664h264V0h-264v541q-203-76-385-76-274 0-423 132T98 977zM1055 0v225h475v-530h-246V0h-229z"/><glyph unicode="ҷ" horiz-adv-x="1331" d="M78 743v351h256V760q0-104 61.5-155.5T569 553q143 0 275 61v480h256V0H844v424q-158-76-330-76-211 0-323.5 97.5T78 743zM844 0v217h421v-442h-239V0H844z"/><glyph unicode="Ҹ" horiz-adv-x="1519" d="M96 977v457h264v-428q0-129 62.5-206T606 702v261h176V698q139 12 271 72v664h264V0h-264v541q-141-51-271-68V201H606v266q-246 14-378 145T96 977z"/><glyph unicode="ҹ" horiz-adv-x="1271" d="M76 743v351h256V760q0-172 166-201v195h161V559q94 16 183 55v480h256V0H842v424q-98-45-183-62V158H496v190q-203 4-311.5 101.5T76 743z"/><glyph unicode="Һ" horiz-adv-x="1519" d="M203 0v1434h262V893q203 76 385 76 274 0 422.5-132T1421 457V0h-262v428q0 152-88 231.5T819 739q-188 0-354-75V0H203z"/><glyph unicode="һ" horiz-adv-x="1390" d="M172 0v1520h256V967q63 68 156.5 103.5T792 1106q207 0 332-121t125-358V0H993v594q0 143-67.5 216T733 883q-141 0-223-85t-82-245V0H172z"/><glyph unicode="Ҽ" horiz-adv-x="2056" d="M57 950q0 113 58 234l241-43q-55-86-55-168 0-72 45-118t127-46h21q23 197 129 343t268 224 348 78q199 0 368-89t270-255 101-387q0-64-10-125H768q25-119 95.5-206t172-134 215.5-47q106 0 212 43t194 127l194-168Q1726 98 1568.5 39T1249-20q-184 0-347 72.5t-271.5 213T496 598h-58q-178 0-279.5 98.5T57 950zm705-141h942q-16 125-83 219t-166 145.5-216 51.5-218-51.5T851 1028t-89-219z"/><glyph unicode="ҽ" horiz-adv-x="1624" d="M39 711q0 88 45 186l207-39q-37-63-37-117 0-49 36-77.5T391 635h12q20 137 99.5 244.5t202 167T979 1106q164 0 294-70.5T1476.5 837t73.5-296q0-39-6-76H662q23-121 121-191.5t245-70.5q184 0 305 119l142-158q-76-88-193-133t-262-45q-168 0-301 60T504 215 403 465h-45q-154 0-236.5 65.5T39 711zm620-76h639q-16 119-103 192.5T979 901q-127 0-214-72.5T659 635z"/><glyph unicode="Ҿ" horiz-adv-x="2056" d="M57 950q0 113 58 234l241-43q-55-86-55-168 0-72 45-118t127-46h21q23 197 129 343t268 224 348 78q199 0 368-89t270-255 101-387q0-64-10-125H768q25-119 95.5-206t172-134 215.5-47q106 0 212 43t194 127l194-168Q1726 98 1568.5 39T1249-20q-184 0-347 72.5t-271.5 213T496 598h-58q-178 0-279.5 98.5T57 950zm705-141h942q-16 125-83 219t-166 145.5-216 51.5-218-51.5T851 1028t-89-219zm368-754h248v-360h-248V55z"/><glyph unicode="ҿ" horiz-adv-x="1624" d="M39 711q0 88 45 186l207-39q-37-63-37-117 0-49 36-77.5T391 635h12q20 137 99.5 244.5t202 167T979 1106q164 0 294-70.5T1476.5 837t73.5-296q0-39-6-76H662q23-121 121-191.5t245-70.5q184 0 305 119l142-158q-76-88-193-133t-262-45q-168 0-301 60T504 215 403 465h-45q-154 0-236.5 65.5T39 711zm620-76h639q-16 119-103 192.5T979 901q-127 0-214-72.5T659 635zM866 51h242v-276H866V51z"/><glyph unicode="Ӏ" horiz-adv-x="669" d="M201 0v1434h266V0H201z"/><glyph unicode="Ӂ" horiz-adv-x="2154" d="m33 0 450 748-420 686h283l350-600h252v600h260V834h248l352 600h283l-418-689L2122 0h-307l-361 604h-246V0H948v604H702L340 0H33zm676 1827h186q2-76 49-117t138-41q88 0 138 41t52 117h184q-2-143-97-220t-277-77q-185 0-278 75.5T709 1827z"/><glyph unicode="ӂ" horiz-adv-x="1800" d="m18 0 359 565-332 529h272l267-443h188v443h254V651h186l269 443h272l-332-529L1782 0h-305l-267 438h-184V0H772v438H588L322 0H18zm539 1524h170q2-74 46-117t124-43q78 0 124 43t48 117h174q-2-147-90-224t-254-77-253 76.5-89 224.5z"/><glyph unicode="Ӄ" horiz-adv-x="1492" d="M203 0v1434h262V834h272l412 600h283L942 741q252-262 381-449.5T1452-47q0-174-100.5-272.5T1077-418q-131 0-254 62l66 198q72-37 133-37 66 0 103.5 41T1163-39q0 113-124 289T731 604H465V0H203z"/><glyph unicode="ӄ" horiz-adv-x="1265" d="M172 0v1094h256V651h205l323 443h275L846 586q377-364 377-645 0-164-100.5-259.5T856-414q-123 0-248 60l68 188q72-37 139-37 68 0 109 41t41 113q0 98-81 227T664 438H428V0H172z"/><glyph unicode="ӆ" horiz-adv-x="1384" d="m12 2 13 215q29-6 49-6 78 0 116.5 62.5t50 149.5T260 672l19 422h884V217h170l-129-442H999l54 225H907v877H498l-11-218q-10-217-39.5-363T347 65 154-20Q97-20 12 2z"/><glyph unicode="Ӈ" horiz-adv-x="1669" d="M203 0v1434h262V827h739v607h262V-49q0-119-51-201t-136-123-187-41q-137 0-254 68l71 188q70-41 138-41t112.5 40T1204-43v643H465V0H203z"/><glyph unicode="ӈ" horiz-adv-x="1417" d="M172 0v1094h256V649h561v445h254V-33q0-174-97-276.5T872-412q-73 0-138.5 16.5T623-346l71 188q59-43 144-43 72 0 111.5 44T989-27v459H428V0H172z"/><glyph unicode="Ӊ" horiz-adv-x="1744" d="M201 0v1434h266V842h741v592h267V225h211l-154-530h-211l68 305h-181v614H467V0H201z"/><glyph unicode="ӊ" horiz-adv-x="1456" d="M172 0v1094h256V649h551v445h256V217h170l-129-442h-205l53 225H979v432H428V0H172z"/><glyph unicode="Ӌ" horiz-adv-x="1509" d="M92 1010v424h264v-396q0-139 88-214.5T694 748q176 0 350 75v611h265V0h-269v-305H793v530h251v371q-197-76-380-76-274 0-423 127T92 1010z"/><glyph unicode="ӌ" horiz-adv-x="1263" d="M70 788v306h256V805q0-207 237-207 133 0 273 64v432h256V0H887v-225H647v432h189v262q-154-74-330-74-211 0-323.5 97.5T70 788z"/><glyph unicode="Ӎ" horiz-adv-x="2064" d="M203 0v1434h219l567-949 561 949h217l5-1209h233l-154-530h-211l68 305h-190l-2 950-472-786H926L455 938V0H203z"/><glyph unicode="ӎ" horiz-adv-x="1726" d="M172 0v1094h268l389-684 408 684h240l2-877h194l-129-442h-205l54 225h-146v725L879 115H768L406 727V0H172z"/><glyph unicode="ӏ" horiz-adv-x="602" d="M172 0v1520h256V0H172z"/><glyph unicode="Ӑ" horiz-adv-x="1591" d="m19 0 645 1434h262L1573 0h-278l-144 332H435L293 0H19zm403 1827h186q2-76 49-117t138-41q88 0 138 41t52 117h184q-2-143-97-220t-277-77q-185 0-278 75.5T422 1827zM525 541h538l-270 626z"/><glyph unicode="ӑ" horiz-adv-x="1222" d="M84 313q0 147 109.5 236.5T539 639h282v16q0 115-68.5 176.5T549 893q-92 0-181-28.5T217 784L117 971q86 66 207 100.5t256 34.5q241 0 369-116t128-349V0H836v133Q789 61 702 23.5T492-14 276.5 28 134 144.5 84 313zm176 1211h170q2-74 46-117t124-43q78 0 124 43t48 117h174q-2-147-90-224t-254-77-253 76.5-89 224.5zm76-1200q0-70 55.5-111T545 172q96 0 171 44t105 126v127H557q-221 0-221-145z"/><glyph unicode="Ӓ" horiz-adv-x="1591" d="m19 0 645 1434h262L1573 0h-278l-144 332H435L293 0H19zm454 1696q0 55 35 90t88 35 88-35 35-90q0-53-35-88t-88-35-88 34.5-35 88.5zm52-1155h538l-270 626zm345 1155q0 55 35 90t88 35 88-35 35-90q0-53-34.5-88t-88.5-35q-53 0-88 34.5t-35 88.5z"/><glyph unicode="ӓ" horiz-adv-x="1222" d="M84 313q0 147 109.5 236.5T539 639h282v16q0 115-68.5 176.5T549 893q-92 0-181-28.5T217 784L117 971q86 66 207 100.5t256 34.5q241 0 369-116t128-349V0H836v133Q789 61 702 23.5T492-14 276.5 28 134 144.5 84 313zm197 1076q0 55 35 89.5t88 34.5 88-34.5 35-89.5q0-53-35-88t-88-35-88 34.5-35 88.5zm55-1065q0-70 55.5-111T545 172q96 0 171 44t105 126v127H557q-221 0-221-145zm342 1065q0 55 35 89.5t88 34.5 88-34.5 35-89.5q0-53-34.5-88t-88.5-35q-53 0-88 34.5t-35 88.5z"/><glyph unicode="Ӕ" horiz-adv-x="2189" d="m10 0 831 1434h1223v-224h-780V838h692V618h-692V223h809V0H1017v332H473L284 0H10zm581 541h426v669h-45z"/><glyph unicode="ӕ" horiz-adv-x="2041" d="M84 324q0 139 110.5 226T539 637h282v18q0 115-68.5 176.5T551 893q-94 0-183-28.5T217 784L117 971q86 66 207 100.5t254 34.5q289 0 407-168 74 80 179.5 124t228.5 44q158 0 284.5-70.5T1877 839t73-288q0-47-6-82h-863q20-123 114.5-194.5T1436 203q176 0 297 119l139-158q-78-88-189.5-133T1430-14q-150 0-272 49T952 186Q886 80 774 33T526-14q-205 0-323.5 93T84 324zm252 4q0-74 56.5-115T549 172q127 0 199.5 65.5T821 412v57H557q-221 0-221-141zm743 309h619q-16 125-104.5 194.5T1391 901q-115 0-204-69.5T1079 637z"/><glyph unicode="Ӗ" horiz-adv-x="1372" d="M201 0v1434h1046v-224H467V838h692V618H467V223h809V0H201zm153 1827h186q2-76 49-117t138-41q88 0 138 41t52 117h184q-2-143-97-220t-277-77q-185 0-278 75.5T354 1827z"/><glyph unicode="ӗ" horiz-adv-x="1304" d="M78 547q0 160 72.5 288T352 1034.5t291 71.5q160 0 286-70.5T1125.5 837t70.5-296q0-27-4-76H334q23-121 118-191.5T688 203q180 0 297 119l137-158q-74-88-186.5-133T682-14q-180 0-317.5 71.5T152.5 257 78 547zm217 977h170q2-74 46-117t124-43q78 0 124 43t48 117h174q-2-147-90-224t-254-77-253 76.5-89 224.5zm37-889h620q-16 119-100 192.5T643 901q-123 0-208-72.5T332 635z"/><glyph unicode="Ә" horiz-adv-x="1683" d="M76 711q0 63 8 112h1229q-23 121-96.5 212t-179 139.5T811 1223q-106 0-212.5-43T399 1053l-194 168q127 115 286.5 174t323.5 59q205 0 383-87t284.5-254T1589 721t-105.5-393T1203 70 825-20 451.5 69t-273 254.5T76 711zm272-74q14-129 81-225.5T600.5 262 825 209q123 0 228.5 53t176 149.5T1317 637H348z"/><glyph unicode="ә" horiz-adv-x="1302" d="M109 553q0 27 4 76h858q-23 121-118 191.5T616 891q-180 0-297-119L182 930q74 88 186.5 133t254.5 45q180 0 317-71.5T1152 837t75-290q0-160-73-288T952 59.5 662-12q-160 0-286 70.5T179.5 257 109 553zm243-94q16-119 100.5-192.5T662 193q122 0 207 72.5T973 459H352z"/><glyph unicode="Ӛ" horiz-adv-x="1683" d="M76 711q0 63 8 112h1229q-23 121-96.5 212t-179 139.5T811 1223q-106 0-212.5-43T399 1053l-194 168q127 115 286.5 174t323.5 59q205 0 383-87t284.5-254T1589 721t-105.5-393T1203 70 825-20 451.5 69t-273 254.5T76 711zm272-74q14-129 81-225.5T600.5 262 825 209q123 0 228.5 53t176 149.5T1317 637H348zm174 1059q0 55 35 90t88 35 88-35 35-90q0-53-35-88t-88-35-88 34.5-35 88.5zm397 0q0 55 35 90t88 35 88-35 35-90q0-53-34.5-88t-88.5-35q-53 0-88 34.5t-35 88.5z"/><glyph unicode="ӛ" horiz-adv-x="1302" d="M109 553q0 27 4 76h858q-23 121-118 191.5T616 891q-180 0-297-119L182 930q74 88 186.5 133t254.5 45q180 0 317-71.5T1152 837t75-290q0-160-73-288T952 59.5 662-12q-160 0-286 70.5T179.5 257 109 553zm237 836q0 55 35 89.5t88 34.5 88-34.5 35-89.5q0-53-35-88t-88-35-88 34.5-35 88.5zm6-930q16-119 100.5-192.5T662 193q122 0 207 72.5T973 459H352zm391 930q0 55 35 89.5t88 34.5 88-34.5 35-89.5q0-53-34.5-88t-88.5-35q-53 0-88 34.5t-35 88.5z"/><glyph unicode="Ӝ" horiz-adv-x="2154" d="m33 0 450 748-420 686h283l350-600h252v600h260V834h248l352 600h283l-418-689L2122 0h-307l-361 604h-246V0H948v604H702L340 0H33zm727 1696q0 55 35 90t88 35 88-35 35-90q0-53-35-88t-88-35-88 34.5-35 88.5zm397 0q0 55 35 90t88 35 88-35 35-90q0-53-34.5-88t-88.5-35q-53 0-88 34.5t-35 88.5z"/><glyph unicode="ӝ" horiz-adv-x="1800" d="m18 0 359 565-332 529h272l267-443h188v443h254V651h186l269 443h272l-332-529L1782 0h-305l-267 438h-184V0H772v438H588L322 0H18zm559 1389q0 55 35 89.5t88 34.5 88-34.5 35-89.5q0-53-35-88t-88-35-88 34.5-35 88.5zm397 0q0 55 35 89.5t88 34.5 88-34.5 35-89.5q0-53-34.5-88t-88.5-35q-53 0-88 34.5t-35 88.5z"/><glyph unicode="Ӟ" horiz-adv-x="1329" d="m59 139 86 195q94-63 209-97t228-34q162 0 269 63.5T958 440q0 94-77.5 143.5T666 633H332v209h313q119 0 186.5 49t67.5 133q0 100-91 155.5T575 1235q-96 0-198.5-27.5T184 1126l-84 215q111 59 235 89t247 30q160 0 294-49t213.5-140 79.5-214q0-106-57-186T954 748q129-41 202-132.5t73-214.5q0-129-84-224T920.5 31 614-20q-143 0-287.5 39.5T59 139zm279 1557q0 55 35 90t88 35 88-35 35-90q0-53-35-88t-88-35-88 34.5-35 88.5zm397 0q0 55 35 90t88 35 88-35 35-90q0-53-34.5-88t-88.5-35q-53 0-88 34.5t-35 88.5z"/><glyph unicode="ӟ" horiz-adv-x="1134" d="m49 96 74 191q80-45 180-69.5T504 193q129 0 201.5 39.5T778 342q0 63-56 98t-159 35H350v172h193q96 0 150.5 33t54.5 92-66 94-180 35q-164 0-346-80l-66 189q215 100 434 100 139 0 250-38t173.5-106.5T1010 809q0-80-49.5-142.5T825 569q103-28 159-92.5t56-154.5q0-100-67.5-177t-186-120T516-18q-127 0-248 29.5T49 96zm182 1293q0 55 35 89.5t88 34.5 88-34.5 35-89.5q0-53-35-88t-88-35-88 34.5-35 88.5zm397 0q0 55 35 89.5t88 34.5 88-34.5 35-89.5q0-53-34.5-88t-88.5-35q-53 0-88 34.5t-35 88.5z"/><glyph unicode="Ӡ" horiz-adv-x="1292" d="m59 141 95 209q82-66 201.5-104.5T604 207q156 0 244 59.5T936 430q0 102-84 158.5T598 645H463v178l358 391H117v220h1018v-179L756 842q219-23 333.5-132.5T1204 430q0-125-65.5-227.5T940 40 612-20q-164 0-312 43T59 141z"/><glyph unicode="ӡ" horiz-adv-x="1107" d="M-39-244 55-33q76-70 187.5-109.5T477-182q147 0 227 61.5T784 51q0 109-76.5 169.5T473 281H340v178l338 413H16v222h967V913L627 477q204-22 313-136t109-290q0-129-62.5-234.5T798-350.5 487-412q-156 0-296 45T-39-244z"/><glyph unicode="Ӣ" horiz-adv-x="1683" d="M203 0v1434h262V416l770 1018h248V0h-262v1016L451 0H203zm282 1614v153h709v-153H485z"/><glyph unicode="ӣ" horiz-adv-x="1437" d="M172 0v1094h256V373l604 721h234V0h-256v721L408 0H172zm176 1307v153h709v-153H348z"/><glyph unicode="Ӥ" horiz-adv-x="1683" d="M203 0v1434h262V416l770 1018h248V0h-262v1016L451 0H203zm315 1696q0 55 35 90t88 35 88-35 35-90q0-53-35-88t-88-35-88 34.5-35 88.5zm397 0q0 55 35 90t88 35 88-35 35-90q0-53-34.5-88t-88.5-35q-53 0-88 34.5t-35 88.5z"/><glyph unicode="ӥ" horiz-adv-x="1437" d="M172 0v1094h256V373l604 721h234V0h-256v721L408 0H172zm209 1389q0 55 35 89.5t88 34.5 88-34.5 35-89.5q0-53-35-88t-88-35-88 34.5-35 88.5zm397 0q0 55 35 89.5t88 34.5 88-34.5 35-89.5q0-53-34.5-88t-88.5-35q-53 0-88 34.5t-35 88.5z"/><glyph unicode="Ӧ" horiz-adv-x="1730" d="M92 717q0 209 100.5 378T469 1359t395 95 395.5-95 276.5-263 100-379-100-379-276.5-263T864-20 469 75 192.5 339 92 717zm268 0q0-143 65.5-259T606 277.5 864 213q144 0 258.5 64.5t180 180T1368 717q0 143-65.5 259t-180 180.5T864 1221q-143 0-258-64.5T425.5 976 360 717zm183 979q0 55 35 90t88 35 88-35 35-90q0-53-35-88t-88-35-88 34.5-35 88.5zm397 0q0 55 35 90t88 35 88-35 35-90q0-53-34.5-88t-88.5-35q-53 0-88 34.5t-35 88.5z"/><glyph unicode="ӧ" horiz-adv-x="1323" d="M78 547q0 162 74.5 289t208 198.5T659 1106q168 0 301.5-71.5t208-198.5 74.5-289-74.5-290-208-199.5T659-14q-165 0-298.5 71.5T152.5 257 78 547zm258 0q0-154 91-248t232-94q142 0 234 94t92 248-92 248-234 94q-141 0-232-94.5T336 547zm0 842q0 55 35 89.5t88 34.5 88-34.5 35-89.5q0-53-35-88t-88-35-88 34.5-35 88.5zm397 0q0 55 35 89.5t88 34.5 88-34.5 35-89.5q0-53-34.5-88t-88.5-35q-53 0-88 34.5t-35 88.5z"/><glyph unicode="Ө" horiz-adv-x="1730" d="M92 717q0 209 100.5 378T469 1359t395 95 395.5-95 276.5-263 100-379-100-379-276.5-263T864-20 469 75 192.5 339 92 717zm88-98v196h1383V619H180zm180 98q0-143 65.5-259T606 277.5 864 213q144 0 258.5 64.5t180 180T1368 717q0 143-65.5 259t-180 180.5T864 1221q-143 0-258-64.5T425.5 976 360 717z"/><glyph unicode="ө" horiz-adv-x="1341" d="M78 547q0 162 76.5 290t211 198.5T670 1106t305-70.5T1187 837t77-290-77-290T975 57.5 670-14 365.5 57.5 154.5 257 78 547zm252-86q25-127 117-203t223-76q133 0 225 75t117 204H330zm0 172h682q-25 129-117 203.5T670 911t-224.5-74.5T330 633z"/><glyph unicode="Ӫ" horiz-adv-x="1730" d="M92 717q0 209 100.5 378T469 1359t395 95 395.5-95 276.5-263 100-379-100-379-276.5-263T864-20 469 75 192.5 339 92 717zm88-98v196h1383V619H180zm180 98q0-143 65.5-259T606 277.5 864 213q144 0 258.5 64.5t180 180T1368 717q0 143-65.5 259t-180 180.5T864 1221q-143 0-258-64.5T425.5 976 360 717zm183 979q0 55 35 90t88 35 88-35 35-90q0-53-35-88t-88-35-88 34.5-35 88.5zm397 0q0 55 35 90t88 35 88-35 35-90q0-53-34.5-88t-88.5-35q-53 0-88 34.5t-35 88.5z"/><glyph unicode="ӫ" horiz-adv-x="1341" d="M78 547q0 162 76.5 290t211 198.5T670 1106t305-70.5T1187 837t77-290-77-290T975 57.5 670-14 365.5 57.5 154.5 257 78 547zm252-86q25-127 117-203t223-76q133 0 225 75t117 204H330zm0 172h682q-25 129-117 203.5T670 911t-224.5-74.5T330 633zm20 756q0 55 35 89.5t88 34.5 88-34.5 35-89.5q0-53-35-88t-88-35-88 34.5-35 88.5zm397 0q0 55 35 89.5t88 34.5 88-34.5 35-89.5q0-53-34.5-88t-88.5-35q-53 0-88 34.5t-35 88.5z"/><glyph unicode="Ӭ" horiz-adv-x="1454" d="m49 219 168 164q158-170 395-170 184 0 312.5 112.5T1081 623H440v211h637q-35 174-160.5 280.5T612 1221q-238 0-395-170L49 1214q98 117 246.5 178.5T627 1454q209 0 375.5-95t261-263 94.5-379-94.5-379-261-263T627-20q-182 0-331 61T49 219zm293 1477q0 55 35 90t88 35 88-35 35-90q0-53-35-88t-88-35-88 34.5-35 88.5zm397 0q0 55 35 90t88 35 88-35 35-90q0-53-34.5-88t-88.5-35q-53 0-88 34.5t-35 88.5z"/><glyph unicode="ӭ" horiz-adv-x="1189" d="m37 172 147 143q129-129 318-129 139 0 238.5 75T868 461H362v184h504q-31 121-129 191.5T502 907q-188 0-318-131L37 920q82 94 203.5 142t271.5 48q172 0 309-72.5T1036 837t78-290-78-291T821 54.5 512-18q-150 0-270.5 49T37 172zm192 1217q0 55 35 89.5t88 34.5 88-34.5 35-89.5q0-53-35-88t-88-35-88 34.5-35 88.5zm397 0q0 55 35 89.5t88 34.5 88-34.5 35-89.5q0-53-34.5-88t-88.5-35q-53 0-88 34.5t-35 88.5z"/><glyph unicode="Ӯ" horiz-adv-x="1445" d="M25 1434h284l424-842 436 842h263L809 276Q727 122 613.5 45.5T367-31q-106 0-211 45l65 209q84-27 139-26 129 0 213 133l23 35zm335 180v153h709v-153H360z"/><glyph unicode="ӯ" horiz-adv-x="1210" d="M-23-311 80-123q37-35 87-55.5T268-199q68 0 112 35t81 117l18 43L2 1094h266l344-809 346 809h246L692-88q-72-178-174.5-251T270-412q-82 0-162 27t-131 74zm246 1618v153h709v-153H223z"/><glyph unicode="Ӱ" horiz-adv-x="1445" d="M25 1434h284l424-842 436 842h263L809 276Q727 122 613.5 45.5T367-31q-106 0-211 45l65 209q84-27 139-26 129 0 213 133l23 35zm368 262q0 55 35 90t88 35 88-35 35-90q0-53-35-88t-88-35-88 34.5-35 88.5zm397 0q0 55 35 90t88 35 88-35 35-90q0-53-34.5-88t-88.5-35q-53 0-88 34.5t-35 88.5z"/><glyph unicode="ӱ" horiz-adv-x="1210" d="M-23-311 80-123q37-35 87-55.5T268-199q68 0 112 35t81 117l18 43L2 1094h266l344-809 346 809h246L692-88q-72-178-174.5-251T270-412q-82 0-162 27t-131 74zm279 1700q0 55 35 89.5t88 34.5 88-34.5 35-89.5q0-53-35-88t-88-35-88 34.5-35 88.5zm397 0q0 55 35 89.5t88 34.5 88-34.5 35-89.5q0-53-34.5-88t-88.5-35q-53 0-88 34.5t-35 88.5z"/><glyph unicode="Ӳ" horiz-adv-x="1445" d="M25 1434h284l424-842 436 842h263L809 276Q727 122 613.5 45.5T367-31q-106 0-211 45l65 209q84-27 139-26 129 0 213 133l23 35zm397 116 166 281h256l-222-281H422zm385 0 164 281h256l-220-281H807z"/><glyph unicode="ӳ" horiz-adv-x="1210" d="M-23-311 80-123q37-35 87-55.5T268-199q68 0 112 35t81 117l18 43L2 1094h266l344-809 346 809h246L692-88q-72-178-174.5-251T270-412q-82 0-162 27t-131 74zm308 1554 166 281h256l-222-281H285zm385 0 164 281h256l-220-281H670z"/><glyph unicode="Ӵ" horiz-adv-x="1519" d="M98 977v457h264v-428q0-152 88.5-232T702 694q186 0 353 76v664h264V0h-264v541q-203-76-385-76-274 0-423 132T98 977zm291 719q0 55 35 90t88 35 88-35 35-90q0-53-35-88t-88-35-88 34.5-35 88.5zm397 0q0 55 35 90t88 35 88-35 35-90q0-53-34.5-88t-88.5-35q-53 0-88 34.5t-35 88.5z"/><glyph unicode="ӵ" horiz-adv-x="1271" d="M78 743v351h256V760q0-104 61.5-155.5T569 553q143 0 275 61v480h256V0H844v424q-158-76-330-76-211 0-323.5 97.5T78 743zm182 646q0 55 35 89.5t88 34.5 88-34.5 35-89.5q0-53-35-88t-88-35-88 34.5-35 88.5zm397 0q0 55 35 89.5t88 34.5 88-34.5 35-89.5q0-53-34.5-88t-88.5-35q-53 0-88 34.5t-35 88.5z"/><glyph unicode="Ӷ" horiz-adv-x="1198" d="M203 0v225h475v-530H432V0H203zm0 0v1434h973l-2-226H463L465 0H203z"/><glyph unicode="ӷ" horiz-adv-x="1026" d="M172 0v217h421v-442H354V0H172zm0 0v1094h840V877H428V0H172z"/><glyph unicode="Ӹ" horiz-adv-x="2068" d="M203 0v1434h262V948h397q258 0 396.5-115.5T1397 489q0-238-151.5-363.5T819 0H203zm262 205h342q156 0 239.5 71.5T1130 485q0 260-323 260H465V205zm254 1491q0 55 35 90t88 35 88-35 35-90q0-53-35-88t-88-35-88 34.5-35 88.5zm397 0q0 55 35 90t88 35 88-35 35-90q0-53-34.5-88t-88.5-35q-53 0-88 34.5t-35 88.5zM1604 0v1434h262V0h-262z"/><glyph unicode="ӹ" horiz-adv-x="1703" d="M172 0v1094h256V735l277-2q208 0 319-94t111-266q0-180-122-278.5T668-2zm256 188 217-2q113-2 172.5 47.5T877 377q0 92-57.5 135T645 557l-217 2V188zm123 1201q0 55 35 89.5t88 34.5 88-34.5 35-89.5q0-53-35-88t-88-35-88 34.5-35 88.5zm397 0q0 55 35 89.5t88 34.5 88-34.5 35-89.5q0-53-34.5-88t-88.5-35q-53 0-88 34.5t-35 88.5zM1276 0v1094h256V0h-256z"/><glyph unicode="Ӻ" horiz-adv-x="1288" d="M49 567v185h215v682h977v-226H528V752h580V567H528V211h189V-55q0-168-104.5-263.5T350-414q-133 0-260 70l70 180q68-41 141-41 70 0 115 45t45 129V0H264v567H49z"/><glyph unicode="ӻ" horiz-adv-x="1036" d="m29-344 67 180q66-45 148-45 74 0 111.5 46T393-27V0H229v436H55v168h174v490h760V877H485V604h410V436H485V205h164V-41q0-172-98-271.5T279-412q-72 0-137.5 17.5T29-344z"/><glyph unicode="Ӽ" horiz-adv-x="1423" d="m18 0 535 733-506 701h305l367-506 360 506h289L870 745q190-229 283.5-351t154-239.5T1368-66q0-164-107.5-258T991-418q-129 0-252 62l64 186q66-37 133-37 66 0 104.5 41T1079-53q0 98-92 237.5T709 547L326 0H18z"/><glyph unicode="ӽ" horiz-adv-x="1157" d="m14 0 424 557-407 537h286l269-355 266 355h278L735 573q154-178 235-284.5T1095 90t44-180q0-147-102.5-235.5T778-414q-125 0-252 64l70 190q68-43 141-43 63 0 104.5 38T883-70q0 72-65.5 171.5T592 385L299 0H14z"/><glyph unicode="Ӿ" horiz-adv-x="1443" d="m41 0 448 637H184v186h314L74 1434h307l338-480 338 480h309L940 823h307V637H963L1409 0h-317L719 522 348 0H41z"/><glyph unicode="ӿ" horiz-adv-x="1202" d="m31 0 352 461H166v170h227L51 1094h291l264-359 271 359h272L799 631h239V461H825L1167 0H870L598 375 313 0H31z"/><glyph horiz-adv-x="915"/><glyph horiz-adv-x="1831"/><glyph horiz-adv-x="915"/><glyph horiz-adv-x="1831"/><glyph horiz-adv-x="610"/><glyph horiz-adv-x="457"/><glyph horiz-adv-x="305"/><glyph horiz-adv-x="305"/><glyph horiz-adv-x="228"/><glyph horiz-adv-x="366"/><glyph horiz-adv-x="101"/><glyph unicode="‐" horiz-adv-x="788" d="M113 463v213h563V463H113z"/><glyph unicode="‑" horiz-adv-x="788" d="M113 463v213h563V463H113z"/><glyph unicode="‒" horiz-adv-x="788" d="M113 463v213h563V463H113z"/><glyph unicode="–" horiz-adv-x="1024" d="M0 485v168h1024V485H0z"/><glyph unicode="—" horiz-adv-x="2048" d="M0 485v168h2048V485H0z"/><glyph unicode="‘" horiz-adv-x="499" d="M82 1053q0 37 9 71.5t36 104.5l109 291h163l-82-314q45-18 71-58t26-95q0-74-47.5-121T250 885q-74 0-121 47t-47 121z"/><glyph unicode="’" horiz-adv-x="499" d="M86 1366q0 74 47 121t119 47 119-47 47-121q0-37-9.5-71.5T373 1190L266 899H100l82 315q-45 16-70.5 56.5T86 1366z"/><glyph unicode="‚" horiz-adv-x="499" d="M86 156q0 76 47 123t119 47 119-47.5T418 156q0-33-9.5-69T371-20L266-309H100L182 4q-45 18-70.5 58T86 156z"/><glyph unicode="“" horiz-adv-x="933" d="M82 1053q0 37 9 71.5t36 104.5l109 291h163l-82-314q45-18 71-58t26-95q0-74-47.5-121T250 885q-74 0-121 47t-47 121zm434 0q0 37 9 71.5t36 104.5l109 291h163l-82-314q45-18 71-58t26-95q0-74-47.5-121T684 885q-74 0-121 47t-47 121z"/><glyph unicode="”" horiz-adv-x="933" d="M86 1366q0 74 47 121t119 47 119-47 47-121q0-37-9.5-71.5T373 1190L266 899H100l82 315q-45 16-70.5 56.5T86 1366zm434 0q0 74 47 121t119 47 119-47 47-121q0-37-9.5-71.5T807 1190L700 899H534l82 315q-45 16-70.5 56.5T520 1366z"/><glyph unicode="„" horiz-adv-x="933" d="M86 156q0 76 47 123t119 47 119-47.5T418 156q0-33-9.5-69T371-20L266-309H100L182 4q-45 18-70.5 58T86 156zm434 0q0 76 47 123t119 47 119-47.5T852 156q0-33-9.5-69T805-20L700-309H534L616 4q-45 18-70.5 58T520 156z"/><glyph unicode="…" horiz-adv-x="1521" d="M82 156q0 76 48 123t120 47 120-47.5T418 156q0-74-49.5-122T250-14q-70 0-119 48T82 156zm510 0q0 76 48 123t120 47 120-47.5T928 156q0-74-49.5-122T760-14q-70 0-119 48t-49 122zm512 0q0 76 48 123t120 47 120-47.5 48-122.5q0-74-49.5-122T1272-14q-70 0-119 48t-49 122z"/><glyph horiz-adv-x="366"/><glyph unicode="‹" horiz-adv-x="669" d="m86 547 291 397h231L324 547l284-395H377z"/><glyph unicode="›" horiz-adv-x="669" d="m61 152 285 395L61 944h232l291-397-291-395H61z"/><glyph horiz-adv-x="457"/><glyph unicode="€" horiz-adv-x="1665" d="M61 504v143h207q-2 23-2 70t2 69H61v144h234q43 156 148.5 274.5t258 184T1032 1454q176 0 322.5-61.5T1599 1214l-169-161q-156 168-383 168-164 0-288-78T575 930h588V786H537q-4-45-5-69 0-25 5-70h626V504H575q59-135 183.5-213t288.5-78q227 0 383 170l169-164q-98-117-244.5-178T1032-20q-178 0-330.5 65.5t-258 184T295 504H61z"/><glyph unicode="™" horiz-adv-x="2123" d="M8 1284v150h787v-150H496V584H307v700H8zm903-700v850h152l360-545 355 545h151l2-850h-178l-2 536-287-442h-86l-288 432V584H911z"/><glyph unicode="◼" horiz-adv-x="1095" d="M0 0v1096h1096V0H0z"/></font>
</defs>
</svg>
