<svg xmlns="http://www.w3.org/2000/svg"><defs><font id="geometriamedium" horiz-adv-x="1169"><font-face units-per-em="2048" ascent="1591" descent="-457"/><glyph horiz-adv-x="0"/><glyph horiz-adv-x="682"/><glyph horiz-adv-x="532"/><glyph horiz-adv-x="532"/><glyph horiz-adv-x="532"/><glyph unicode="!" horiz-adv-x="634" d="M172 127q0 59 41 102 43 43 102.5 43T416 229q43-43 43-102T416 25q-41-41-100.5-41T213 25q-41 43-41 102zm0 1307h291l-47-973H217z"/><glyph unicode="&quot;" horiz-adv-x="770" d="M92 868v566h193V868H92zm395 0v566h193V868H487z"/><glyph unicode="#" horiz-adv-x="1536" d="m72 367 26 170h289l59 358H156l26 172h289l59 367h177l-60-367h354l58 367h174l-57-367h290l-28-172h-289l-57-358h290l-26-170h-291L1006 0H831l60 367H535L479 0H303l59 367H72zm491 170h355l57 358H618z"/><glyph unicode="$" horiz-adv-x="1290" d="M94 127v242q78-72 230-131 148-56 297-56 144 0 237.5 58.5T952 397q0 77-63 133-26 23-74 43-58 27-197 68l-28 8q-113 33-187 60-59 22-143 71-77 49-112 119t-35 170q0 156 108.5 258T524 1454v207h221v-207q183-20 347-113v-223q-219 133-455 133-143 0-218-50.5T344 1067q0-70 78.5-119.5T639 858q132-36 248-80 132-47 214.5-144.5T1184 401q0-171-123-282Q943 10 745-18v-209H524v207Q264 4 94 127z"/><glyph unicode="%" horiz-adv-x="1677" d="M74 1112q0 147 98 248 100 100 252 100 154 0 254-100t100-248-100-248q-101-98-254-98-151 0-252 98-98 101-98 248zm162 0q0-85 53-141t135-56q84 0 138 56t54 141q0 87-53 142t-139 55q-82 0-135-56t-53-141zM330 0l848 1434h170L502 0H330zm569 322q0 144 98 245 101 101 252 101 153 0 254-101t101-245q0-147-101-248T1249-27q-151 0-252 101-98 101-98 248zm162 0q0-85 53-141t135-56q86 0 139.5 55t53.5 142q0 85-54.5 140.5T1249 518q-82 0-135-55.5T1061 322z"/><glyph unicode="&amp;" horiz-adv-x="1509" d="M86 440q0 143 80 252 83 108 178 152-82 116-82 256 0 155 115 258 114 102 293 102 210 0 366-106v-221q-151 133-327 133-105 0-165.5-49.5T483 1081q0-54 33-110t66-94q2-2 34.5-35.5T672 786l372-364q91 142 97 352h213q0-291-154-504L1479 0h-287l-131 125Q871-27 623-27 398-27 242 96 86 222 86 440zm219 4q0-127 92.5-201.5T629 168q167 0 282 100L475 694q-70-26-120-94.5T305 444z"/><glyph unicode="'" horiz-adv-x="374" d="M92 868v566h193V868H92z"/><glyph unicode="(" horiz-adv-x="768" d="M168 512q0 557 301 934h227q-323-415-323-934 0-525 323-934H469Q168-45 168 512z"/><glyph unicode=")" horiz-adv-x="768" d="M72-422Q395-13 395 512q0 519-323 934h227q301-377 301-934T299-422H72z"/><glyph unicode="*" horiz-adv-x="866" d="m68 934 221 125-221 123 77 131 217-131-4 252h152l-4-252 217 131 76-131-224-123 224-125-76-131-217 129 4-252H358l4 252-217-129z"/><glyph unicode="+" horiz-adv-x="1292" d="M139 573v199h406v408h200V772h408V573H745V166H545v407H139z"/><glyph unicode="," horiz-adv-x="520" d="m16-311 170 573h254L190-311H16z"/><glyph unicode="-" horiz-adv-x="1005" d="M201 465v199h604V465H201z"/><glyph unicode="." horiz-adv-x="512" d="M113 129q0 60 42 101.5T258 272q58 0 100.5-42T401 129q0-61-41.5-103T258-16q-62 0-103.5 42T113 129z"/><glyph unicode="/" horiz-adv-x="1071" d="m-16-287 862 1909h225L209-287H-16z"/><glyph unicode="0" horiz-adv-x="1445" d="M121 717q0 308 164 526 166 217 438 217 275 0 438-217 166-217 166-526 0-312-166-529Q997-27 723-27q-271 0-438 215-164 218-164 529zm225 0q0-223 105-379 106-154 272-154 168 0 274 154 105 153 105 379t-105 379-274 153q-168 0-272-155-105-153-105-377z"/><glyph unicode="1" horiz-adv-x="782" d="M53 1024v219l338 191h197V0H367v1192z"/><glyph unicode="2" horiz-adv-x="1181" d="M82 0v164l450 422q144 132 211 229 62 92 62 197 0 109-78.5 175T520 1253q-214 0-401-178v236q177 149 424 149 203 0 344-117 143-116 143-305 0-145-72-264-74-120-241-278L408 201h671V0H82z"/><glyph unicode="3" horiz-adv-x="1175" d="M82 82v219q177-127 416-127 139 0 243 78 103 80 103 213 0 124-90.5 201T512 743q-103 0-182-32v153l385 373H135v197h879v-170L647 911q172-18 299-139 125-119 125-307 0-222-162-356Q749-27 510-27 256-27 82 82z"/><glyph unicode="4" horiz-adv-x="1304" d="M59 375v172l744 887h221V567h223V375h-223V0H803v375H59zm256 192h488v578z"/><glyph unicode="5" horiz-adv-x="1212" d="M111 72v211q177-109 393-109 153 0 260 78 106 78 106 211 0 126-98.5 205.5T510 748q-164 0-344-62l94 748h737v-197H424l-41-330q87 23 180 23 233 0 383-129 152-131 152-338 0-226-168-357Q762-27 514-27q-230 0-403 99z"/><glyph unicode="6" horiz-adv-x="1308" d="M123 645q0 345 170 580 168 235 471 235 178 0 315-90v-205q-134 90-291 90-207 0-317-143-108-144-117-348 125 162 371 162 195 0 328-127t133-330q0-218-146-358Q896-27 682-27q-262 0-412 179-147 178-147 493zm225-129q12-161 96-252.5T668 172q129 0 211 82 84 84 84 211 0 124-86 201-83 77-211 77-107 0-199-65-92-67-119-162z"/><glyph unicode="7" horiz-adv-x="1148" d="M82 1231v203h979v-174L426 0H184l621 1231H82z"/><glyph unicode="8" horiz-adv-x="1316" d="M98 399q0 127 78 223.5T385 762q-101 43-159 125t-58 186q0 170 139 279 138 108 352 108 213 0 351-108 139-109 139-279 0-104-57.5-186T934 762q131-43 208-139.5t77-223.5q0-198-162-311Q897-27 659-27 425-27 260 88 98 201 98 399zm232 15q0-108 94-178 97-72 235-72 137 0 234 72 94 70 94 178t-94 178q-91 70-234 70-141 0-235-70t-94-178zm53 641q0-96 78.5-157.5T659 836q118 0 196.5 61.5T934 1055t-78.5 157.5T659 1274q-119 0-197.5-61.5T383 1055z"/><glyph unicode="9" horiz-adv-x="1308" d="M123 965q0 219 143 356 145 139 361 139 262 0 409-178 150-178 150-494 0-343-170-581Q846-27 545-27q-179 0-316 90v205q134-90 291-90 208 0 316 144 109 141 118 348-125-162-370-162-199 0-330 125T123 965zm223 4q0-125 84-203 85-76 213-76 106 0 197 66 94 66 121 162-12 161-96 252.5T641 1262q-127 0-211-84t-84-209z"/><glyph unicode=":" horiz-adv-x="512" d="M113 129q0 60 42 101.5T258 272q58 0 100.5-42T401 129q0-61-41.5-103T258-16q-62 0-103.5 42T113 129zm0 717q0 60 42 101.5T258 989q58 0 100.5-42T401 846q0-61-41.5-103.5T258 700q-61 0-103 42t-42 104z"/><glyph unicode=";" horiz-adv-x="534" d="m16-311 170 573h254L190-311H16zM166 846q0 60 42 101.5T311 989q58 0 101-42t43-101q0-61-42-103.5T311 700q-61 0-103 42t-42 104z"/><glyph unicode="&lt;" horiz-adv-x="1292" d="M139 565v207l1014 424V979L369 670l784-310V145z"/><glyph unicode="=" horiz-adv-x="1292" d="M139 340v199h1014V340H139zm0 467v199h1014V807H139z"/><glyph unicode="&gt;" horiz-adv-x="1292" d="M139 145v215l783 310-783 309v217l1014-424V565z"/><glyph unicode="?" horiz-adv-x="991" d="M57 1139v194q165 121 396 121 195 0 327-106 135-108 135-289 0-149-110-256-107-104-262-154V461H330v297q140 26 250 104 108 76 108 182 0 99-74 155t-198 56q-182 0-359-116zM299 129q0 60 41 101.5T442 272q60 0 102-41.5T586 129q0-61-42-103T442-16q-61 0-102 41.5T299 129z"/><glyph unicode="@" horiz-adv-x="1947" d="M86 563q0 379 258 637 257 260 629 260 378 0 633-246 256-244 256-598 0-221-103-360-101-137-264-137-97 0-169 41.5T1217 272q-47-67-131.5-113T899 113q-181 0-295 129-112 127-112 319 0 193 112 320 114 129 293 129 177 0 293-140v113h207V412q0-209 149-209 103 0 172 112 74 115 74 303 0 319-227 549t-592 230q-351 0-586-244-231-243-231-590 0-349 231-592 229-241 586-241 227 0 438 118v-71q-199-111-438-111-370 0-629 256Q86 177 86 563zm623-2q0-113 70.5-188.5T958 297q70 0 133 37t99 96v262q-36 59-99 96t-133 37q-108 0-178.5-75.5T709 561z"/><glyph unicode="A" horiz-adv-x="1560" d="m45 0 627 1442h217L1516 0h-242l-156 356H438L285 0H45zm471 555h524l-262 602z"/><glyph unicode="B" horiz-adv-x="1476" d="M178 0v1434h651q193 0 307.5-94t114.5-259q0-107-52.5-185T1061 786q135-26 220-127.5t85-255.5q0-182-131-292Q1106 0 883 0H178zm225 207h439q131 0 205.5 60.5T1122 436q0 106-73 163.5T842 657H403V207zm0 649h388q113 0 175 48t62 138-62 137.5-175 47.5H403V856z"/><glyph unicode="C" horiz-adv-x="1400" d="M127 717q0 323 215 532 214 211 541 211 217 0 389-96v-227q-172 112-387 112-226 0-377-151-150-150-150-381t152-383q153-150 383-150 245 0 410 131V88Q1123-27 883-27q-323 0-541 209-215 212-215 535z"/><glyph unicode="D" horiz-adv-x="1593" d="M178 0v1434h506q344 0 563-201t219-516q0-317-219-518Q1030 0 684 0H178zm225 207h261q270 0 419 137 152 140 152 373t-152 373q-149 137-419 137H403V207z"/><glyph unicode="E" horiz-adv-x="1312" d="M178 0v1434h1020v-207H403V868h648V662H403V207h822V0H178z"/><glyph unicode="F" horiz-adv-x="1280" d="M178 0v1434h1018v-207H403V852h629V645H403V0H178z"/><glyph unicode="G" horiz-adv-x="1585" d="M127 717q0 323 215 532 214 211 539 211 261 0 442-123v-223q-197 135-428 135-236 0-385-149-152-152-152-385 0-237 148-385 152-146 366-146 220 0 347 121v522h225V213q-90-107-243.5-173.5T872-27q-317 0-532 209-213 213-213 535z"/><glyph unicode="H" horiz-adv-x="1554" d="M178 0v1434h225V868h748v566h225V0h-225v662H403V0H178z"/><glyph unicode="I" horiz-adv-x="604" d="M188 0v1434h226V0H188z"/><glyph unicode="J" horiz-adv-x="1042" d="M66 61v224q122-101 292-101 150 0 223.5 74.5T655 492v942h226V455q0-244-126-363T401-27Q194-27 66 61z"/><glyph unicode="K" horiz-adv-x="1396" d="M178 0v1434h225V848l588 586h289L616 778 1386 0h-307L403 688V0H178z"/><glyph unicode="L" horiz-adv-x="1228" d="M178 0v1434h228V207h761V0H178z"/><glyph unicode="M" horiz-adv-x="1736" d="M178 0v1434h230l464-646 461 646h226V0h-226v1090L934 549H803l-400 541V0H178z"/><glyph unicode="N" horiz-adv-x="1583" d="M178 0v1434h197l809-1039v1039h221V0h-191L399 1042V0H178z"/><glyph unicode="O" horiz-adv-x="1718" d="M127 717q0 315 207 528 209 215 524 215t524-215q209-212 209-528t-209-531Q1172-27 858-27T334 186Q127 402 127 717zm231 0q0-228 144-381 146-152 356-152t356 152q146 155 146 381 0 227-146 379-144 153-356 153t-356-153Q358 946 358 717z"/><glyph unicode="P" horiz-adv-x="1355" d="M178 0v1434h617q224 0 350-117 129-114 129-299 0-187-129-307-125-119-350-119H403V0H178zm225 799h373q128 0 199.5 56.5T1047 1014t-71.5 157.5T776 1227H403V799z"/><glyph unicode="Q" horiz-adv-x="1718" d="M127 717q0 315 207 528 209 215 524 215t524-215q209-212 209-528 0-238-125-424-121-185-329-268 114-117 229-117 102 0 170 45v-207q-86-45-205-45-115 0-218.5 65T881-27h-23q-314 0-524 213-207 216-207 531zm231 0q0-228 144-381 146-152 356-152t356 152q146 155 146 381 0 227-146 379-144 153-356 153t-356-153Q358 946 358 717z"/><glyph unicode="R" horiz-adv-x="1501" d="M178 0v1434h653q222 0 347-113 127-115 127-295 0-149-82.5-254.5T993 631L1444 0h-273L739 606H403V0H178zm225 805h414q124 0 192 55.5t68 157.5q0 98-68.5 153.5T817 1227H403V805z"/><glyph unicode="S" horiz-adv-x="1290" d="M92 127v244q82-73 232-131 148-56 294-56 145 0 238.5 57.5T950 397q0 77-63 133-26 23-74 43-58 27-197 68l-28 8q-113 33-187 60-59 22-143 71-77 49-112 119t-35 170q0 179 139.5 285T631 1460q261 0 459-119v-225q-219 133-455 133-143 0-218-49.5T342 1067q0-42 21-70.5t63-58.5q12-7 34.5-16t52-20 40.5-15l164-47q147-45 262-107 97-52 147-132t56-200q0-198-158-313Q867-27 631-27 305-27 92 127z"/><glyph unicode="T" horiz-adv-x="1308" d="M68 1227v207h1173v-207H766V0H541v1227H68z"/><glyph unicode="U" horiz-adv-x="1519" d="M160 606v828h225V598q0-198 101-306t274-108 275 108 102 306v836h225V606q0-302-168-467Q1025-27 760-27q-264 0-434 164-166 166-166 469z"/><glyph unicode="V" horiz-adv-x="1550" d="M53 1434h250L778 303l475 1131h244L883-8H670z"/><glyph unicode="W" horiz-adv-x="2181" d="M61 1434h252L655 356l349 1080h178l348-1080 342 1078h248L1630-8h-198l-340 1067L750-8H549z"/><glyph unicode="X" horiz-adv-x="1468" d="m35 0 567 776-477 658h266l346-476 346 476h263L866 780 1436 0h-269L733 596 297 0H35z"/><glyph unicode="Y" horiz-adv-x="1400" d="M33 1434h262l410-580 409 580h254L813 655V0H588v649z"/><glyph unicode="Z" horiz-adv-x="1314" d="M84 0v160l807 1067H125v207h1073v-158L393 207h838V0H84z"/><glyph unicode="[" horiz-adv-x="837" d="M178-422v1868h582v-174H379V-248h381v-174H178z"/><glyph unicode="\" horiz-adv-x="1069" d="M2 1622h221l862-1909H864z"/><glyph unicode="]" horiz-adv-x="837" d="M78-248h381v1520H78v174h581V-422H78v174z"/><glyph unicode="^" horiz-adv-x="1095" d="m90 700 352 791h211l353-791H795l-246 596-248-596H90z"/><glyph unicode="_" horiz-adv-x="1298" d="M12-133h1274v-152H12v152z"/><glyph unicode="`" horiz-adv-x="1069" d="M303 1464h275l194-286H571z"/><glyph unicode="a" horiz-adv-x="1222" d="M74 311q0 161 116 246 116 88 287 88 181 0 322-78v56q0 219-295 219-172 0-318-90v194q151 86 367 86 213 0 339-101.5T1018 647V272q0-46 23.5-73t60.5-27q34 0 59 14V18q-43-32-129-32-171 0-211 143Q683-27 451-27q-161 0-271 90Q74 150 74 311zm221 13q0-78 58.5-119T512 164q83 0 160.5 34T799 285v123q-127 71-269 71-111 0-173-41t-62-114z"/><glyph unicode="b" horiz-adv-x="1310" d="M158 0v1434h221V868q126 164 358 164 212 0 350-153t138-375q0-224-138-377Q948-27 737-27q-232 0-358 164V0H158zm221 348q42-80 122.5-130T678 168q138 0 231 96 92 100 92 240t-92 235q-91 99-231 99-95 0-175.5-50.5T379 659V348z"/><glyph unicode="c" horiz-adv-x="1064" d="M86 506q0 230 158 379 159 147 387 147 174 0 303-69V772q-138 66-270 66-148 0-254-95-103-95-103-239 0-147 103-242 104-94 254-94 161 0 286 76V55Q807-27 629-27q-226 0-385 150Q86 275 86 506z"/><glyph unicode="d" horiz-adv-x="1310" d="M86 504q0 223 137 375 138 153 350 153 233 0 359-164v566h221V0H932v137Q806-27 573-27q-211 0-350 154Q86 279 86 504zm223 0q0-140 92-240 93-96 232-96 96 0 176.5 50T932 348v311q-43 78-123.5 128.5T633 838q-141 0-232-99-92-95-92-235z"/><glyph unicode="e" horiz-adv-x="1171" d="M86 504q0 228 143 377 145 151 373 151 154 0 264-82 213-151 213-454v-58H309q20-127 122-198.5T688 168q171 0 324 90V72Q874-27 641-27q-230 0-395 148Q86 269 86 504zm225 102h545q-3 94-72 166-71 74-192 74-118 0-194-69t-87-171z"/><glyph unicode="f" horiz-adv-x="837" d="M47 811v195h189v131q0 146 82 231.5t233 85.5q131 0 235-43v-186q-93 37-174 37-155 0-155-164v-92h329V811H457V0H236v811H47z"/><glyph unicode="g" horiz-adv-x="1304" d="M86 520q0 217 137 363 137 149 350 149 234 0 359-158v132h221V90q0-247-166-379-162-131-399-131-234 0-393 90v203q162-98 368-98 168 0 268.5 78T932 86v76Q804 4 573 4 361 4 223 154 86 303 86 520zm223-2q0-135 92-227t232-92q97 0 178.5 48T932 371v293q-38 78-119.5 126T633 838q-139 0-232-93-92-92-92-227z"/><glyph unicode="h" horiz-adv-x="1257" d="M158 0v1434h221V872q148 160 369 160 177 0 274.5-111t97.5-307V0H899v565q0 145-70 203-69 57-165 57-83 0-162-46.5T379 662V0H158z"/><glyph unicode="i" horiz-adv-x="573" d="M147 1325q0 60 40 100.5t100 40.5q57 0 97-40.5t40-100.5q0-59-40-99t-97-40q-60 0-100 39.5t-40 99.5zM176 0v1006h221V0H176z"/><glyph unicode="j" horiz-adv-x="573" d="M-137-186q65-39 147-39 166 0 166 178v1053h221V-72q0-167-89.5-257.5T63-420q-129 0-200 41v193zm283 1511q0 59 38 100 41 41 101 41t98-41q41-41 41-100t-41-100q-38-38-98-38t-101 38q-38 41-38 100z"/><glyph unicode="k" d="M158 0v1434h221V625l397 381h283L582 555 1130 0H827L379 455V0H158z"/><glyph unicode="l" horiz-adv-x="626" d="M158 238v1196h221V299q0-123 110-123 47 0 84 21V6q-62-33-163-33-116 0-184 64.5T158 238z"/><glyph unicode="m" horiz-adv-x="1888" d="M158 0v1006h221V874q115 158 332 158 116 0 200-49.5T1028 852q56 81 152.5 130.5T1395 1032q168 0 262-104.5t94-298.5V0h-221v578q0 247-205 247-79 0-152.5-48T1067 657V0H846v578q0 247-207 247-77 0-150-45.5T379 664V0H158z"/><glyph unicode="n" horiz-adv-x="1257" d="M158 0v1006h221V872q148 160 369 160 177 0 274.5-111t97.5-307V0H899v565q0 260-235 260-83 0-162-46.5T379 662V0H158z"/><glyph unicode="o" horiz-adv-x="1275" d="M86 504q0 222 156 375t397 153q239 0 395-153t156-375q0-221-156-377Q877-27 639-27q-240 0-397 154Q86 280 86 504zm221 0q0-146 94-240 96-96 238-96 139 0 235 96 95 95 95 240 0 142-95 237-97 97-235 97-141 0-238-97-94-94-94-237z"/><glyph unicode="p" horiz-adv-x="1310" d="M158-410v1416h221V868q126 164 358 164 212 0 350-153t138-377q0-222-138-375Q948-27 737-27q-232 0-358 164v-547H158zm221 756q43-78 123.5-128T678 168q138 0 231 96 92 100 92 238 0 142-92 237-91 99-231 99-96 0-176.5-50.5T379 657V346z"/><glyph unicode="q" horiz-adv-x="1310" d="M86 502q0 225 137 377 138 153 350 153 233 0 359-164v138h221V-410H932v547Q806-27 573-27q-211 0-350 154Q86 279 86 502zm223 0q0-138 92-238 93-96 232-96 95 0 175.5 50T932 346v311q-42 80-122.5 130.5T633 838q-141 0-232-99-92-95-92-237z"/><glyph unicode="r" horiz-adv-x="813" d="M158 0v1006h221V831q52 89 153.5 145t217.5 56q14 0 20-2V809q-36 4-61 4-113 0-203-57T379 616V0H158z"/><glyph unicode="s" horiz-adv-x="1048" d="M96 76v209q177-121 410-121 104 0 162.5 31.5T727 283q0 49-61 79-34 15-97 31l-125 31q-177 44-257.5 115T106 737q0 137 113 216t313 79q231 0 371-90V739Q720 842 541 842q-100 0-153.5-30T334 731q0-49 63-80 9-4 97-30l116-25q344-77 344-317 0-137-121-221.5T516-27Q392-27 278 2T96 76z"/><glyph unicode="t" horiz-adv-x="892" d="M47 811v195h215v292h221v-292h318V811H483V338q0-85 38.5-123.5T641 176q82 0 152 37V23q-71-50-224-50-143 0-225 78t-82 223v537H47z"/><glyph unicode="u" horiz-adv-x="1259" d="M139 391v615h221V440q0-260 236-260 83 0 162 46.5T881 344v662h221V0H881v133Q733-27 512-27 335-27 237 84t-98 307z"/><glyph unicode="v" horiz-adv-x="1185" d="M41 1006h244l313-727 309 727h236L692-8H492z"/><glyph unicode="w" horiz-adv-x="1685" d="M57 1006h226l235-684 234 688h182l237-688 234 684h223L1276-8h-193L840 686 598-8H408z"/><glyph unicode="x" horiz-adv-x="1163" d="m51 0 406 526-365 480h256l238-312 239 312h252L713 530 1118 0H862L582 367 301 0H51z"/><glyph unicode="y" d="M43 1006h246l303-709 293 709h239L643-109Q508-420 260-420q-126 0-182 33v194q63-32 145-32 84 0 142.5 61.5T483 37z"/><glyph unicode="z" horiz-adv-x="1056" d="M72 0v147l559 664H109v195h841V854L391 195h592V0H72z"/><glyph unicode="{" horiz-adv-x="796" d="M106 426v172q72 6 105 45 34 39 43.5 82t9.5 131v277q0 146 84 229.5t230 83.5h141v-174h-96q-73 0-114.5-43.5T467 1112V795q0-230-154-283 154-53 154-283V-88q0-73 41.5-116.5T623-248h96v-174H578q-146 0-230 83.5T264-109v277q0 84-8 125-8 52-46.5 89.5T106 426z"/><glyph unicode="|" horiz-adv-x="684" d="M242-227v1783h200V-227H242z"/><glyph unicode="}" horiz-adv-x="796" d="M78-248h96q73 0 114.5 43.5T330-88v317q0 231 153 283-153 52-153 283v317q0 73-41.5 116.5T174 1272H78v174h141q146 0 229.5-83.5T532 1133V856q0-80 9-127 8-49 46.5-87T690 598V426q-68-6-106-47-33-36-42.5-80T532 168v-277q0-146-83.5-229.5T219-422H78v174z"/><glyph unicode="~" horiz-adv-x="1245" d="M139 391v201q26 38 91 62t139 24q96 0 254-55 164-54 251-54 149 0 232 95V461q-66-84-232-84-90 0-251 53-158 55-254 55-148 0-230-94z"/><glyph unicode="¢" horiz-adv-x="1064" d="M86 506q0 204 125 344t317 174v221h187v-217q110-9 219-65V772q-138 66-270 66-148 0-254-95-103-95-103-239 0-147 103-242 104-94 254-94 161 0 286 76V55Q845-7 715-23v-217H528v224Q338 14 211 156 86 299 86 506z"/><glyph unicode="£" horiz-adv-x="1198" d="M104 0v203h31q68 0 96.5 30.5T260 332v260H104v182h156v211q0 223 132 349t364 126q190 0 329-80v-213q-128 82-294 82-148 0-227-75.5T485 952V774h510V592H485V326q0-80-55-123h680V0H104z"/><glyph unicode="¥" horiz-adv-x="1335" d="M33 1434h262l375-580 379 580h251L854 766h342V606H780V436h416V276H780V0H555v276H139v160h416v170H139v160h342z"/><glyph unicode="¨" horiz-adv-x="1069" d="M209 1327q0 51 37 86 37 37 88 37t86-37q35-35 35-86t-35-88q-35-35-86-35t-88 35q-37 37-37 88zm424 0q0 51 37 86 37 37 88 37t86-37q35-35 35-86t-35-88q-35-35-86-35t-88 35q-37 37-37 88z"/><glyph unicode="©" horiz-adv-x="1736" d="M127 717q0 307 217 524 219 219 524 219 309 0 525-219 217-217 217-524t-217-524Q1173-27 866-27q-310 0-524 217-215 218-215 527zm68 0q0-284 194-484Q584 35 866 35q279 0 477 201 197 200 197 481t-197 481q-195 201-475 201-279 0-477-201-196-199-196-481zm301 0q0 172 118 284 120 117 297 117 118 0 207-47V922q-92 59-207 59-113 0-187.5-74.5T649 717q0-116 76.5-190T920 453q130 0 217 69V373q-97-60-226-60-177 0-297 117-118 115-118 287z"/><glyph unicode="«" horiz-adv-x="1153" d="M72 446v113l295 371h225L258 504 592 78H367zm489 0v113l295 371h225L750 504l331-426H856z"/><glyph unicode="­" horiz-adv-x="1005" d="M201 465v199h604V465H201z"/><glyph unicode="®" horiz-adv-x="1736" d="M127 717q0 307 217 524 219 219 524 219 309 0 525-219 217-217 217-524t-217-524Q1173-27 866-27q-310 0-524 217-215 218-215 527zm68 0q0-284 194-484Q584 35 866 35q279 0 477 201 197 200 197 481t-197 481q-195 201-475 201-279 0-477-201-196-199-196-481zm368-373v778h361q122 0 192-62.5t70-166.5q0-79-43-135t-121-76l244-338h-166L868 664H711V344H563zm148 442h204q57 0 89 27.5t32 75.5q0 106-121 106H711V786z"/><glyph unicode="´" horiz-adv-x="974" d="m324 1178 194 286h277l-271-286H324z"/><glyph unicode="¸" horiz-adv-x="1009" d="M252-283 471 16h180L508-283H252z"/><glyph unicode="»" horiz-adv-x="1153" d="m72 78 331 426L72 930h225l295-371V446L297 78H72zm489 0 334 426-334 426h225l295-371V446L786 78H561z"/><glyph unicode="ˆ" horiz-adv-x="1097" d="m203 1178 233 286h230l233-286H692l-141 174-141-174H203z"/><glyph unicode="˚" horiz-adv-x="1120" d="M335 1327q0 81 60 141 60 62 143.5 62t143.5-62q60-60 59.5-141T680 1186q-60-60-141.5-60T395 1186q-60 60-60 141zm99 0q0-41 31-71.5t74-30.5 73.5 30.5T643 1327q3 64-51 90t-107.5 0-50.5-90z"/><glyph unicode="˜" horiz-adv-x="1052" d="M172 1198q2 112 60 187t149 75q61 0 147-51 88-49 129-49 69 0 84 94h133q-2-111-59.5-186.5T666 1192q-62 0-150 49-86 51-129 51-67 0-82-94H172z"/><glyph unicode="Ё" horiz-adv-x="1312" d="M178 0v1434h1020v-207H403V868h648V662H403V207h822V0H178zm174 1702q0 51 37 86 37 37 88 37t86-37q35-35 35-86t-35-88q-35-35-86-35t-88 35q-37 37-37 88zm424 0q0 51 37 86 37 37 88 37t86-37q35-35 35-86t-35-88q-35-35-86-35t-88 35q-37 37-37 88z"/><glyph unicode="Ђ" horiz-adv-x="1574" d="M68 1227v207h1034v-207H606V811q165 68 369 68 232 0 375-131 143-128 143-334 0-191-125-316T1032-27Q931-27 836 2v211q89-29 165-29 121 0 196 66t75 172q0 107-88.5 176.5T946 668q-191 0-340-76V0H381v1227H68z"/><glyph unicode="Ѓ" horiz-adv-x="1255" d="M178 0v1434h1004v-207H403V0H178zm342 1561 195 286h276l-268-286H520z"/><glyph unicode="Є" horiz-adv-x="1392" d="M127 717q0 316 215 528 215 215 535 215 213 0 387-98v-227q-176 114-392 114-183 0-321-114-133-112-168-297h600V631H371q27-196 168-322 143-125 340-125 247 0 415 133V86Q1123-27 879-27q-319 0-537 215-215 215-215 529z"/><glyph unicode="Ѕ" horiz-adv-x="1286" d="M92 127v244q82-73 232-131 148-56 294-56 145 0 238.5 57.5T950 397q0 77-63 133-26 23-74 43-58 27-197 68l-28 8q-113 33-187 60-59 22-143 71-77 49-112 119t-35 170q0 179 139.5 285T631 1460q261 0 459-119v-225q-219 133-455 133-143 0-218-49.5T342 1067q0-42 21-70.5t63-58.5q12-7 34.5-16t52-20 40.5-15l164-47q147-45 262-107 97-52 147-132t56-200q0-198-158-313Q867-27 631-27 305-27 92 127z"/><glyph unicode="І" horiz-adv-x="604" d="M188 0v1434h226V0H188z"/><glyph unicode="Ї" horiz-adv-x="600" d="M-35 1702q0 51 37 86 37 37 88 37t86-37q35-35 35-86t-35-88q-35-35-86-35t-88 35q-37 37-37 88zM188 0v1434h226V0H188zm201 1702q0 51 37 86 37 37 88 37t86-37q35-35 35-86t-35-88q-35-35-86-35t-88 35q-37 37-37 88z"/><glyph unicode="Ј" horiz-adv-x="1042" d="M66 61v224q122-101 292-101 150 0 223.5 74.5T655 492v942h226V455q0-244-126-363T401-27Q194-27 66 61z"/><glyph unicode="Љ" horiz-adv-x="2265" d="M20 4v205q27-8 76-8 158 0 207 202 51 200 51 680l6 351h936V938h351q250 0 393-131t143-340q0-205-145-338Q1894 0 1647 0h-576v1227H578l-7-307q-5-247-27.5-408T471 229Q420 107 332 50.5T109-6Q53-6 20 4zm1276 203h338q152 0 236 68.5t84 191.5q0 124-85 194t-235 70h-338V207z"/><glyph unicode="Њ" horiz-adv-x="2304" d="M178 0v1434h225V928h707v506h225V928h353q247 0 391-129 143-128 143-336 0-206-143-334Q1935 0 1688 0h-578v721H403V0H178zm1157 207h348q146 0 229 67.5t83 186.5q0 123-82.5 191.5T1683 721h-348V207z"/><glyph unicode="Ћ" horiz-adv-x="1619" d="M68 1227v207h1034v-207H606V815q165 64 369 64 518 0 518-453V0h-225v379q0 157-77.5 223T940 668q-175 0-334-72V0H381v1227H68z"/><glyph unicode="Ќ" horiz-adv-x="1396" d="M178 0v1434h225V848l588 586h289L616 778 1386 0h-307L403 688V0H178zm371 1561 194 286h277l-268-286H549z"/><glyph unicode="Ў" horiz-adv-x="1349" d="M41 1434h254l424-777 352 777h242L784 307Q628-27 373-27 237-27 170 6v213q78-35 164-35t143 45q56 44 125 189zm270 421h189q0-75 47.5-121t126.5-46 126.5 46.5T850 1855h188q-1-153-102.5-245T676 1518q-163 0-263.5 91.5T311 1855z"/><glyph unicode="Џ" horiz-adv-x="1511" d="M178 0v1434h225V207h705v1227h225V0H862v-307H647V0H178z"/><glyph unicode="А" horiz-adv-x="1560" d="m45 0 627 1442h217L1516 0h-242l-156 356H438L285 0H45zm471 555h524l-262 602z"/><glyph unicode="Б" horiz-adv-x="1417" d="M178 0v1434h1012v-207H403V924h381q244 0 385-129 142-127 142-334t-142-334Q1030 0 784 0H178zm225 207h361q152 0 234.5 66t82.5 188q0 121-83.5 188.5T764 717H403V207z"/><glyph unicode="В" horiz-adv-x="1476" d="M178 0v1434h651q193 0 307.5-94t114.5-259q0-107-52.5-185T1061 786q135-26 220-127.5t85-255.5q0-182-131-292Q1106 0 883 0H178zm225 207h439q131 0 205.5 60.5T1122 436q0 106-73 163.5T842 657H403V207zm0 649h388q113 0 175 48t62 138-62 137.5-175 47.5H403V856z"/><glyph unicode="Г" horiz-adv-x="1255" d="M178 0v1434h1004v-207H403V0H178z"/><glyph unicode="Д" horiz-adv-x="1603" d="M29 207h137q114 169 166 399 53 233 53 629v199h948V207h207v-514h-213V0H242v-307H29v514zm383 0h696v1020H604q0-362-43-602-44-248-149-418z"/><glyph unicode="Е" horiz-adv-x="1312" d="M178 0v1434h1020v-207H403V868h648V662H403V207h822V0H178z"/><glyph unicode="Ж" horiz-adv-x="2072" d="m20 0 682 750-596 684h279l537-613v613h225V821l539 613h282l-602-684L2052 0h-295l-610 657V0H922v659L315 0H20z"/><glyph unicode="З" horiz-adv-x="1286" d="M82 96v221q94-60 222.5-96.5T551 184q182 0 287.5 68T944 436q0 100-96 161.5T594 659H416v207h205q130 0 202 51t72 142-83 140.5-226 49.5q-234 0-443-104v207q208 108 455 108 236 0 377-106 143-107 143-283 0-117-69-192-72-78-154-105 113-34 197-127 84-90 84-229 0-193-160-320Q858-27 584-27 282-27 82 96z"/><glyph unicode="И" horiz-adv-x="1566" d="M178 0v1434h225V381l789 1053h197V0h-226v1057L371 0H178z"/><glyph unicode="Й" horiz-adv-x="1566" d="M178 0v1434h225V381l789 1053h197V0h-226v1057L371 0H178zm240 1855h188q0-75 47.5-121t126.5-46 126.5 46.5T956 1855h189q-1-153-103-245t-260-92q-162 0-262.5 91.5T418 1855z"/><glyph unicode="К" horiz-adv-x="1396" d="M178 0v1434h225V848l588 586h289L616 778 1386 0h-307L403 688V0H178z"/><glyph unicode="Л" horiz-adv-x="1492" d="M20 4v205q27-8 76-8 151 0 201 188 28 94 40 219.5T354 942l6 492h955V0h-225v1227H578l-7-307q-5-247-27.5-408T471 229Q420 107 332 50.5T109-6Q53-6 20 4z"/><glyph unicode="М" horiz-adv-x="1736" d="M178 0v1434h230l464-646 461 646h226V0h-226v1090L934 549H803l-400 541V0H178z"/><glyph unicode="Н" horiz-adv-x="1554" d="M178 0v1434h225V868h748v566h225V0h-225v662H403V0H178z"/><glyph unicode="О" horiz-adv-x="1718" d="M127 717q0 315 207 528 209 215 524 215t524-215q209-212 209-528t-209-531Q1172-27 858-27T334 186Q127 402 127 717zm231 0q0-228 144-381 146-152 356-152t356 152q146 155 146 381 0 227-146 379-144 153-356 153t-356-153Q358 946 358 717z"/><glyph unicode="П" horiz-adv-x="1521" d="M178 0v1434h1165V0h-225v1227H403V0H178z"/><glyph unicode="Р" horiz-adv-x="1355" d="M178 0v1434h617q224 0 350-117 129-114 129-299 0-187-129-307-125-119-350-119H403V0H178zm225 799h373q128 0 199.5 56.5T1047 1014t-71.5 157.5T776 1227H403V799z"/><glyph unicode="С" horiz-adv-x="1400" d="M127 717q0 323 215 532 214 211 541 211 217 0 389-96v-227q-172 112-387 112-226 0-377-151-150-150-150-381t152-383q153-150 383-150 245 0 410 131V88Q1123-27 883-27q-323 0-541 209-215 212-215 535z"/><glyph unicode="Т" horiz-adv-x="1308" d="M68 1227v207h1173v-207H766V0H541v1227H68z"/><glyph unicode="У" horiz-adv-x="1349" d="M41 1434h254l424-777 352 777h242L784 307Q628-27 373-27 237-27 170 6v213q78-35 164-35t143 45q56 44 125 189z"/><glyph unicode="Ф" horiz-adv-x="1882" d="M127 725q0 119 43 226.5t126.5 195T517 1288t310 58v135h226v-135q140-3 256.5-39t198-94.5 138-136.5 83-166 26.5-183-26.5-182.5-83-165.5-138-136.5-198-94T1053 109V-49H827v158q-340 9-520 186T127 725zm231 2q0-179 117-299 118-118 352-121v840q-232-3-352-123-117-120-117-297zm695-420q234 3 352 121 119 119 119 299 0 178-119 297-120 120-352 123V307z"/><glyph unicode="Х" horiz-adv-x="1468" d="m35 0 567 776-477 658h266l346-476 346 476h263L866 780 1436 0h-269L733 596 297 0H35z"/><glyph unicode="Ц" horiz-adv-x="1603" d="M178 0v1434h225V207h705v1227h225V207h207v-514h-213V0H178z"/><glyph unicode="Ч" horiz-adv-x="1415" d="M127 991v443h225v-398q0-157 77.5-222.5T678 748q183 0 334 71v615h225V0h-225v600q-171-63-369-63-516 0-516 454z"/><glyph unicode="Ш" horiz-adv-x="2101" d="M178 0v1434h225V207h535v1227h225V207h535v1227h225V0H178z"/><glyph unicode="Щ" horiz-adv-x="2193" d="M178 0v1434h225V207h535v1227h225V207h535v1227h225V207h207v-514h-211V0H178z"/><glyph unicode="Ъ" horiz-adv-x="1632" d="M39 1227v207h604V938h371q250 0 393-131t143-340q0-205-145-338Q1261 0 1014 0H418v1227H39zM643 207h358q152 0 236 68.5t84 191.5q0 124-85 194t-235 70H643V207z"/><glyph unicode="Ы" horiz-adv-x="1859" d="M178 0v1434h225V938h322q250 0 393-131 144-132 144-340 0-204-146-338Q972 0 725 0H178zm225 207h310q152 0 235.5 68.5T1032 467q0 124-84.5 194T713 731H403V207zM1456 0v1434h225V0h-225z"/><glyph unicode="Ь" horiz-adv-x="1392" d="M178 0v1434h225V938h371q250 0 393-131 144-132 144-340 0-204-146-338Q1021 0 774 0H178zm225 207h359q152 0 235.5 68.5T1081 467q0 124-84.5 194T762 731H403V207z"/><glyph unicode="Э" horiz-adv-x="1392" d="M98 86v231q168-133 416-133 198 0 338 125 143 125 170 322H410v207h600q-35 186-170 297-135 114-320 114-216 0-391-114v227q174 98 387 98 320 0 535-215 215-212 215-528 0-315-217-529Q834-27 514-27 269-27 98 86z"/><glyph unicode="Ю" horiz-adv-x="2142" d="M178 0v1434h225V829h252q34 273 224 453 187 178 454 178 294 0 488-215t194-528q0-314-194-529T1333-27q-272 0-461 183-189 186-219 467H403V0H178zm703 717q0-239 127-387 131-146 325-146t322 146q129 147 129 387 0 241-129 385-126 147-322 147t-325-147Q881 957 881 717z"/><glyph unicode="Я" horiz-adv-x="1503" d="m59 0 457 631q-151 35-235 140t-84 255q0 186 127.5 297T672 1434h653V0h-225v606H764L332 0H59zm365 1016q0-100 68-155.5T682 805h418v422H682q-121 0-189.5-56T424 1016z"/><glyph unicode="а" horiz-adv-x="1222" d="M74 311q0 161 116 246 116 88 287 88 181 0 322-78v56q0 219-295 219-172 0-318-90v194q151 86 367 86 213 0 339-101.5T1018 647V272q0-46 23.5-73t60.5-27q34 0 59 14V18q-43-32-129-32-171 0-211 143Q683-27 451-27q-161 0-271 90Q74 150 74 311zm221 13q0-78 58.5-119T512 164q83 0 160.5 34T799 285v123q-127 71-269 71-111 0-173-41t-62-114z"/><glyph unicode="б" horiz-adv-x="1251" d="M100 635q0 332 156 516 70 85 197 147 129 63 262 97 111 28 338 67v-205q-326-62-414-92-230-77-299-243-31-73-37-170 63 93 170.5 145.5T711 950q195 0 325-127 129-126 129-331 0-232-149-375Q869-27 649-27q-261 0-405 179-144 182-144 483zm217-78q8-185 94-287t238-102q128 0 211 86 84 87 84 221 0 128-80.5 206.5T657 760q-103 0-196-57.5T317 557z"/><glyph unicode="в" horiz-adv-x="1189" d="M158 0v1006h549q148 0 231.5-71t83.5-185q0-74-35.5-132.5T893 532q197-59 197-258 0-128-93-201T737 0H158zm221 178h319q78 0 122 33t44 90q0 60-44 92.5T698 426H379V178zm0 426h274q71 0 111.5 30t40.5 81q0 112-152 112H379V604z"/><glyph unicode="г" horiz-adv-x="993" d="M158 0v1006h778V811H379V0H158z"/><glyph unicode="д" horiz-adv-x="1357" d="M43 195h131q82 124 111 297 31 162 34 514h801V195h174v-471h-209V0H256v-276H43v471zm365 0h491v616H522q0-391-114-616z"/><glyph unicode="е" horiz-adv-x="1171" d="M86 504q0 228 143 377 145 151 373 151 154 0 264-82 213-151 213-454v-58H309q20-127 122-198.5T688 168q171 0 324 90V72Q874-27 641-27q-230 0-395 148Q86 269 86 504zm225 102h545q-3 94-72 166-71 74-192 74-118 0-194-69t-87-171z"/><glyph unicode="ж" horiz-adv-x="1669" d="m55 0 480 539-422 467h260l352-394v394h221V612l352 394h261l-426-467L1616 0h-275L946 449V0H725v449L328 0H55z"/><glyph unicode="з" horiz-adv-x="1081" d="M113 45v201q174-82 352-82 132 0 207.5 38.5T748 309q0 127-222 127H340v178h186q189 0 189 111 0 117-244 117-159 0-330-74v195q153 69 377 69 184 0 303-76 121-77 121-194 0-165-154-221 193-61 193-248 0-143-133-232-131-88-352-88-230 0-383 72z"/><glyph unicode="и" horiz-adv-x="1286" d="M158 0v1006h221V324l543 682h206V0H907v684L365 0H158z"/><glyph unicode="й" horiz-adv-x="1286" d="M158 0v1006h221V324l543 682h206V0H907v684L365 0H158zm131 1479h186q0-74 46-121t120-47q73 0 119.5 47t48.5 121h188q-1-154-99.5-246T643 1141q-157 0-255 92t-99 246z"/><glyph unicode="к" d="M158 0v1006h221V625l397 381h283L582 555 1130 0H827L379 455V0H158z"/><glyph unicode="л" horiz-adv-x="1265" d="M43 4v191q24-7 45-7 108 0 153 112t50 378l6 328h811V0H887v811H508l-4-145q-2-118-11-199.5T459 293Q424 153 341.5 77.5T113-4Q70-4 43 4z"/><glyph unicode="м" horiz-adv-x="1439" d="M158 0v1006h217l344-418 346 418h217V0h-213v705L762 334h-86L371 705V0H158z"/><glyph unicode="н" horiz-adv-x="1267" d="M158 0v1006h221V612h510v394h221V0H889v418H379V0H158z"/><glyph unicode="о" horiz-adv-x="1275" d="M86 504q0 222 156 375t397 153q239 0 395-153t156-375q0-221-156-377Q877-27 639-27q-240 0-397 154Q86 280 86 504zm221 0q0-146 94-240 96-96 238-96 139 0 235 96 95 95 95 240 0 142-95 237-97 97-235 97-141 0-238-97-94-94-94-237z"/><glyph unicode="п" horiz-adv-x="1253" d="M158 0v1006h938V0H874v811H379V0H158z"/><glyph unicode="р" horiz-adv-x="1310" d="M158-410v1416h221V868q126 164 358 164 212 0 350-153t138-377q0-222-138-375Q948-27 737-27q-232 0-358 164v-547H158zm221 756q43-78 123.5-128T678 168q138 0 231 96 92 100 92 238 0 142-92 237-91 99-231 99-96 0-176.5-50.5T379 657V346z"/><glyph unicode="с" horiz-adv-x="1064" d="M86 506q0 230 158 379 159 147 387 147 174 0 303-69V772q-138 66-270 66-148 0-254-95-103-95-103-239 0-147 103-242 104-94 254-94 161 0 286 76V55Q807-27 629-27q-226 0-385 150Q86 275 86 506z"/><glyph unicode="т" horiz-adv-x="983" d="M41 811v195h899V811H602V0H381v811H41z"/><glyph unicode="у" d="M43 1006h246l303-709 293 709h239L643-109Q508-420 260-420q-126 0-182 33v194q63-32 145-32 84 0 142.5 61.5T483 37z"/><glyph unicode="ф" horiz-adv-x="1527" d="M86 504q0 225 150.5 365T653 1022v412h221v-412q266-13 417-153t151-365q0-223-152-369Q1142-7 874-16v-394H653v394Q386-7 238 135 86 281 86 504zm215 0q0-149 98-241.5T653 170v666q-156-2-254-93t-98-239zm573-334q156 0 254.5 92.5T1227 504q0 148-98.5 239T874 836V170z"/><glyph unicode="х" horiz-adv-x="1183" d="m51 0 406 526-365 480h256l238-312 239 312h252L713 530 1118 0H862L582 367 301 0H51z"/><glyph unicode="ц" horiz-adv-x="1335" d="M158 0v1006h221V195h495v811h222V195h176v-471h-215V0H158z"/><glyph unicode="ч" d="M109 752v254h221V770q0-146 52-204t181-58 228 51v447h221V0H791v362q-115-47-265-47-214 0-315.5 102T109 752z"/><glyph unicode="ш" horiz-adv-x="1728" d="M158 0v1006h221V195h375v811h221V195h375v811h221V0H158z"/><glyph unicode="щ" horiz-adv-x="1810" d="M158 0v1006h221V195h375v811h221V195h375v811h221V195h176v-471h-215V0H158z"/><glyph unicode="ъ" horiz-adv-x="1327" d="M31 811v195h516V700h289q185 0 295-95t110-255q0-151-104-252Q1033 0 846 0H326v811H31zm516-625h264q96 0 151.5 44.5T1018 350q0 78-54.5 121T811 514H547V186z"/><glyph unicode="ы" horiz-adv-x="1548" d="M158 0v1006h221V700h244q185 0 295-95t110-255q0-151-104-252Q820 0 633 0H158zm221 186h219q96 0 151.5 44.5T805 350q0 78-54.5 121T598 514H379V186zM1169 0v1006h222V0h-222z"/><glyph unicode="ь" horiz-adv-x="1159" d="M158 0v1006h221V700h289q185 0 295-95t110-255q0-151-104-252Q865 0 678 0H158zm221 186h264q96 0 151.5 44.5T850 350q0 78-54.5 121T643 514H379V186z"/><glyph unicode="э" horiz-adv-x="1056" d="M111 53v193q135-78 284-78 136 0 232.5 69T743 418H319v178h424q-25 112-119 177t-229 65q-138 0-264-66v193q131 67 299 67 227 0 383-147 158-149 158-379 0-231-158-383Q657-27 430-27q-180 0-319 80z"/><glyph unicode="ю" horiz-adv-x="1683" d="M158 0v1006h221V610h205q30 183 168 303 137 119 331 119 225 0 369-153 145-151 145-375 0-225-145-379-146-152-369-152-202 0-340 123-136 124-163 320H379V0H158zm628 504q0-146 82-240 84-96 215-96 129 0 213 96 82 94 82 240 0 143-82 237-85 97-213 97-130 0-215-97-82-94-82-237z"/><glyph unicode="я" horiz-adv-x="1198" d="m72 0 284 391q-106 26-164.5 104T133 688q0 144 97.5 231t281.5 87h528V0H819v346H575L326 0H72zm286 676q0-72 48.5-112T543 524h276v303H543q-88 0-136.5-39.5T358 676z"/><glyph unicode="ё" horiz-adv-x="1171" d="M86 504q0 228 143 377 145 151 373 151 154 0 264-82 213-151 213-454v-58H309q20-127 122-198.5T688 168q171 0 324 90V72Q874-27 641-27q-230 0-395 148Q86 269 86 504zm172 798.5q0 51.5 37 86.5 37 37 88 37t86-37q35-35 35-86.5t-35-88.5q-35-35-86-35t-88 35q-37 37-37 88.5zM311 606h545q-3 94-72 166-71 74-192 74-118 0-194-69t-87-171zm371 696.5q0 51.5 37 86.5 37 37 88 37t86-37q35-35 35-86.5t-35-88.5q-35-35-86-35t-88 35q-37 37-37 88.5z"/><glyph unicode="ђ" horiz-adv-x="1339" d="M31 1100v178h209v156h221v-156h309v-178H461V766q148 160 368 160 177 0 275-111t98-307V-72q0-167-89.5-257.5T868-420q-129 0-200 41v193q65-39 147-39 166 0 166 178v506q0 145-70 203-69 57-166 57-83 0-161.5-46.5T461 555V0H240v1100H31z"/><glyph unicode="ѓ" horiz-adv-x="993" d="M158 0v1006h778V811H379V0H158zm215 1178 194 286h277l-271-286H373z"/><glyph unicode="є" horiz-adv-x="1060" d="M86 506q0 230 158 379 156 147 383 147 168 0 299-67V772q-126 66-264 66-136 0-230-65T313 596h424V418H313q19-112 116-181t233-69q149 0 284 78V53Q807-27 627-27q-227 0-383 150Q86 275 86 506z"/><glyph unicode="ѕ" horiz-adv-x="1048" d="M96 76v209q177-121 410-121 104 0 162.5 31.5T727 283q0 49-61 79-34 15-97 31l-125 31q-177 44-257.5 115T106 737q0 137 113 216t313 79q231 0 371-90V739Q720 842 541 842q-100 0-153.5-30T334 731q0-49 63-80 9-4 97-30l116-25q344-77 344-317 0-137-121-221.5T516-27Q392-27 278 2T96 76z"/><glyph unicode="і" horiz-adv-x="573" d="M147 1325q0 60 40 100.5t100 40.5q57 0 97-40.5t40-100.5q0-59-40-99t-97-40q-60 0-100 39.5t-40 99.5zM176 0v1006h221V0H176z"/><glyph unicode="ї" horiz-adv-x="575" d="M-47 1327q0 51 37 86 37 37 88 37t86-37q35-35 35-86t-35-88q-35-35-86-35t-88 35q-37 37-37 88zM176 0v1006h223V0H176zm201 1327q0 51 37 86 37 37 88 37t86-37q35-35 35-86t-35-88q-35-35-86-35t-88 35q-37 37-37 88z"/><glyph unicode="ј" horiz-adv-x="573" d="M-137-186q65-39 147-39 166 0 166 178v1053h221V-72q0-167-89.5-257.5T63-420q-129 0-200 41v193zm283 1511q0 59 38 100 41 41 101 41t98-41q41-41 41-100t-41-100q-38-38-98-38t-101 38q-38 41-38 100z"/><glyph unicode="љ" horiz-adv-x="1843" d="M43 4v191q24-7 45-7 108 0 153 112t50 378l6 328h793V700h262q185 0 295-95t110-255q0-151-104-252-104-98-291-98H868v811H508l-4-145q-2-118-11-199.5T459 293Q424 153 341.5 77.5T113-4Q70-4 43 4zm1047 182h237q96 0 151.5 44.5T1534 350q0 78-54.5 121T1327 514h-237V186z"/><glyph unicode="њ" horiz-adv-x="1835" d="M158 0v1006h221V612h481v394h221V700h262q185 0 295.5-95T1749 350q0-151-104-252-104-98-291-98H860v418H379V0H158zm923 186h238q96 0 151.5 44.5T1526 350q0 78-54.5 121T1319 514h-238V186z"/><glyph unicode="ћ" horiz-adv-x="1339" d="M31 1100v178h209v156h221v-156h309v-178H461V766q148 160 368 160 177 0 275-111t98-307V0H981v459q0 145-70 203-69 57-166 57-83 0-161.5-46.5T461 555V0H240v1100H31z"/><glyph unicode="ќ" d="M158 0v1006h221V625l397 381h283L582 555 1130 0H827L379 455V0H158zm305 1178 194 286h277l-270-286H463z"/><glyph unicode="ў" d="M43 1006h246l303-709 293 709h239L643-109Q508-420 260-420q-126 0-182 33v194q63-32 145-32 84 0 142.5 61.5T483 37zm195 473h186q0-74 46-121t120-47q73 0 119.5 47t48.5 121h188q-1-154-99.5-246T592 1141q-157 0-255 92t-99 246z"/><glyph unicode="џ" horiz-adv-x="1253" d="M158 0v1006h221V195h495v811h222V0H733v-276H518V0H158z"/><glyph unicode="Ґ" horiz-adv-x="1255" d="M178 0v1434h799v290h205v-497H403V0H178z"/><glyph unicode="ґ" horiz-adv-x="993" d="M158 0v1006h573v262h205V811H379V0H158z"/><glyph horiz-adv-x="927"/><glyph horiz-adv-x="1855"/><glyph horiz-adv-x="927"/><glyph horiz-adv-x="1855"/><glyph horiz-adv-x="618"/><glyph horiz-adv-x="463"/><glyph horiz-adv-x="309"/><glyph horiz-adv-x="309"/><glyph horiz-adv-x="231"/><glyph horiz-adv-x="371"/><glyph horiz-adv-x="103"/><glyph unicode="‐" horiz-adv-x="1005" d="M201 465v199h604V465H201z"/><glyph unicode="‑" horiz-adv-x="1005" d="M201 465v199h604V465H201z"/><glyph unicode="‒" horiz-adv-x="1005" d="M201 465v199h604V465H201z"/><glyph unicode="–" horiz-adv-x="1538" d="M201 465v199h1136V465H201z"/><glyph unicode="—" horiz-adv-x="1867" d="M201 465v199h1466V465H201z"/><glyph unicode="‘" horiz-adv-x="479" d="m14 860 250 574h174L268 860H14z"/><glyph unicode="’" horiz-adv-x="479" d="m29 860 170 574h254L203 860H29z"/><glyph unicode="‚" horiz-adv-x="520" d="m16-311 170 573h254L190-311H16z"/><glyph unicode="“" horiz-adv-x="860" d="m14 860 250 574h174L268 860H14zm381 0 250 574h174L649 860H395z"/><glyph unicode="”" horiz-adv-x="860" d="m29 860 170 574h254L203 860H29zm381 0 170 574h254L584 860H410z"/><glyph unicode="„" horiz-adv-x="901" d="m16-311 170 573h254L190-311H16zm381 0 170 573h254L571-311H397z"/><glyph unicode="…" horiz-adv-x="1456" d="M113 129q0 60 42 101.5T258 272q58 0 100.5-42T401 129q0-61-41.5-103T258-16q-62 0-103.5 42T113 129zm473 0q0 60 41.5 101.5T729 272t101.5-41.5T872 129q0-61-41.5-103T729-16 627.5 26 586 129zm473 0q0 60 41.5 101.5T1202 272t102-41.5 42-101.5q0-61-42-103t-102-42-101.5 42-41.5 103z"/><glyph horiz-adv-x="371"/><glyph unicode="‹" horiz-adv-x="663" d="M72 446v113l295 371h225L258 504 592 78H367z"/><glyph unicode="›" horiz-adv-x="661" d="m72 78 329 426L72 930h223l295-371V446L295 78H72z"/><glyph horiz-adv-x="463"/><glyph unicode="€" horiz-adv-x="1378" d="M74 494v159h153q-2 16-2 76 0 12 4 94H74v160h188q65 212 234 344 171 133 411 133 199 0 342-88v-215q-146 96-315 96-152 0-263.5-70.5T508 983h444V823H461q-6-49-6-90 0-18 4-80h493V494H496q43-148 158.5-231T934 180q203 0 346 119V74Q1137-27 907-27q-254 0-428 142-169 143-227 379H74z"/><glyph unicode="™" horiz-adv-x="1411" d="M43 1323v111h530v-111H369V799H242v524H43zm637-524v635h117l192-260 191 260h120V799h-126v438l-152-197h-64l-153 199V799H680z"/><glyph unicode="◼" horiz-adv-x="1003" d="M0 0v1004h1004V0H0z"/></font>
</defs>
</svg>
