<svg width="69" height="44" fill="none" xmlns="http://www.w3.org/2000/svg"><g clip-path="url(#a)"><path d="M34.55.038h29.484c2.627 0 4.277 1.098 4.762 3.166a9.72 9.72 0 0 1 .197 2.136v33.388c0 3.787-1.439 5.302-5.247 5.302H5.232c-3.717 0-5.209-1.515-5.216-5.196V5.317c0-3.75 1.514-5.249 5.3-5.256C15.046-.008 24.797.038 34.55.038Zm0 1.378H5.535c-3.104 0-4.073.955-4.08 4.015v33.903c0 2.045.96 3.03 3.028 3.25.425.041.852.056 1.28.045H63.26c.632-.01 1.262-.068 1.886-.174a2.536 2.536 0 0 0 2.324-2.333c.088-.587.131-1.18.129-1.773V5.855a12.75 12.75 0 0 0-.174-2.151 2.462 2.462 0 0 0-2.098-2.151 10.756 10.756 0 0 0-2.052-.16l-28.726.023Z" fill="#000"/><path d="M25.895 32.48v-1.387a.82.82 0 0 0-.886-.886.909.909 0 0 0-.757.394.826.826 0 0 0-.757-.394.758.758 0 0 0-.651.326v-.28h-.485v2.234h.485v-1.242a.506.506 0 0 1 .537-.584c.319 0 .485.212.485.584v1.234h.485v-1.234a.516.516 0 0 1 .537-.584c.326 0 .485.212.485.584v1.234h.522Zm7.216-2.235h-.757v-.667h-.492v.674h-.44v.447h.44v1.015c0 .515.212.818.757.818.21-.003.416-.06.598-.166l-.136-.417a.757.757 0 0 1-.417.114c-.234 0-.325-.137-.325-.371v-1h.757l.015-.447Zm4.134-.046a.658.658 0 0 0-.583.326v-.28h-.484v2.234h.484v-1.257c0-.371.167-.583.462-.583.103.002.205.02.303.053l.144-.47a1.607 1.607 0 0 0-.326-.023ZM31 30.434a1.552 1.552 0 0 0-.901-.235c-.56 0-.932.28-.932.758 0 .477.28.583.757.651h.235c.25.046.394.114.394.235 0 .121-.19.28-.515.28-.27.003-.535-.08-.757-.234l-.227.37c.279.189.61.287.946.28.651 0 1.022-.302 1.022-.757 0-.454-.303-.605-.757-.674h-.235c-.204 0-.37-.068-.37-.212s.166-.257.423-.257c.243.014.48.078.697.19l.204-.395H31Zm12.955-.235a.658.658 0 0 0-.583.326v-.28h-.485v2.234h.485v-1.257c0-.371.166-.583.461-.583.103.002.206.02.303.053l.144-.47a1.607 1.607 0 0 0-.325-.023Zm-6.224 1.16a1.122 1.122 0 0 0 1.18 1.166c.276.007.544-.085.758-.258l-.197-.416a.946.946 0 0 1-.583.204.66.66 0 0 1-.674-.72.69.69 0 0 1 .674-.757.954.954 0 0 1 .583.212l.235-.394a1.158 1.158 0 0 0-.757-.257 1.113 1.113 0 0 0-1.181 1.159l-.038.06Zm4.543 0v-1.114h-.492v.28a.825.825 0 0 0-.697-.326 1.165 1.165 0 0 0 0 2.326.758.758 0 0 0 .697-.326v.28h.492v-1.12Zm-1.787 0a.674.674 0 1 1 1.348 0 .674.674 0 0 1-1.348 0Zm-5.83-1.16a1.083 1.083 0 0 0-1.113 1.16 1.09 1.09 0 0 0 1.135 1.166c.329.004.649-.103.909-.303l-.273-.371a1.12 1.12 0 0 1-.65.234.628.628 0 0 1-.667-.537h1.643v-.19a1.024 1.024 0 0 0-1.022-1.181l.038.022Zm0 .417a.544.544 0 0 1 .56.538H34.02a.583.583 0 0 1 .598-.538h.038Zm12.114.757v-2.007h-.484v1.16a.825.825 0 0 0-.697-.327 1.165 1.165 0 0 0 0 2.326.757.757 0 0 0 .697-.326v.28h.484v-1.12.014Zm-1.787 0a.674.674 0 1 1 1.348 0 .674.674 0 0 1-1.348 0Zm-16.294 0v-1.128h-.545v.28a.826.826 0 0 0-.696-.326 1.166 1.166 0 0 0 0 2.326.758.758 0 0 0 .696-.326v.28h.485v-1.12l.06.014Zm-1.81 0a.674.674 0 1 1 1.348 0 .674.674 0 0 1-1.347 0Z" fill="#010101"/><path d="M38.146 13.316h-7.314v13.142h7.314V13.316Z" fill="#EB621D"/><path d="M31.3 19.89a8.38 8.38 0 0 1 3.204-6.574 8.326 8.326 0 0 0-13.445 6.574 8.334 8.334 0 0 0 4.67 7.486 8.325 8.325 0 0 0 8.775-.91A8.331 8.331 0 0 1 31.3 19.89Z" fill="#E41522"/><path d="M48.012 19.89a8.334 8.334 0 0 1-4.685 7.542 8.326 8.326 0 0 1-8.823-.967 8.33 8.33 0 0 0 3.18-6.575 8.403 8.403 0 0 0-3.18-6.574 8.327 8.327 0 0 1 13.508 6.574Z" fill="#F59E1F"/></g><defs><clipPath id="a"><path fill="#fff" d="M0 0h69v44H0z"/></clipPath></defs></svg>