<svg xmlns="http://www.w3.org/2000/svg"><defs><font id="intermedium" horiz-adv-x="1654"><font-face units-per-em="2816" ascent="2252" descent="-564"/><glyph horiz-adv-x="0"/><glyph horiz-adv-x="938"/><glyph horiz-adv-x="746"/><glyph horiz-adv-x="746"/><glyph horiz-adv-x="746"/><glyph unicode="!" horiz-adv-x="827" d="M213 181q0 82 59 140.5T413 380t141-58.5T613 181q0-83-59-141.5T413-19q-83 0-141.5 58.5T213 181zm36 1867h329L552 589H275z"/><glyph unicode="&quot;" horiz-adv-x="1126" d="M180 1319v729h248v-729H180zm514 0v729h248v-729H694z"/><glyph unicode="#" horiz-adv-x="1794" d="m42 548 39 240h297l78 472H161l39 240h295l90 548h240l-90-548h480l90 548h240l-90-548h297l-39-240h-297l-78-472h295l-39-240h-295L1209 0H969l90 548H579L489 0H249l90 548H42zm576 240h480l78 472H696z"/><glyph unicode="$" horiz-adv-x="1812" d="M144 566h310q12-143 114.5-225.5T829 241v680l-97 26q-533 144-533 541 0 159 82 287t224 204 324 93v232h164v-230q284-19 462-175t185-389h-298q-15 125-108 202t-241 93v-641l86-22q589-145 589-576 0-250-179-413.5T993-31v-225H829v224Q520-13 339 145.5T144 566zm363 940q0-51 19.5-94.5t49.5-74 74.5-56.5 86.5-42.5 92-30.5v595q-149-20-235.5-100.5T507 1506zM993 242q166 19 267.5 107T1362 569q0 64-27 114t-80.5 85.5-114 59.5T993 876V242z"/><glyph unicode="%" horiz-adv-x="2332" d="M236 1556v108q0 118 48 213.5t144 154 225 58.5q195 0 304.5-121.5T1067 1664v-108q0-118-47-213.5t-142.5-154T653 1130q-99 0-179 34t-131.5 92.5-79 135.5-27.5 164zM331 0l1408 2048h239L570 0H331zm139 1556q0-62 16.5-110.5t59-82T653 1330q93 0 137 64.5t44 161.5v108q0 62-15.5 110.5t-58 82T653 1890q-93 0-138-65.5T470 1664v-108zm796-1172v108q0 181 112 303.5T1683 918q132 0 227.5-59T2052 705t46-213V384q0-117-47-212.5T1908.5 17 1683-42q-99 0-179 34t-131.5 92.5-79 135.5-27.5 164zm233 0q0-96 44.5-161t139.5-65q93 0 137 64.5t44 161.5v108q0 62-15.5 110.5t-58 82T1683 718q-93 0-138.5-65T1499 492V384z"/><glyph unicode="&amp;" horiz-adv-x="1833" d="M134 544q0 89 27 166t83 145 121.5 123.5T527 1101q-111 135-168 247t-57 238q0 214 142.5 349T819 2070q115 0 211.5-36t161-97.5 100-142T1327 1624q0-141-69-252.5T1055 1162l-140-103 410-490q85 164 85 361h270q0-355-170-582L1801 0h-338l-138 162q-100-93-241.5-142T797-29q-202 0-353.5 75T213 250t-79 294zm297 8q0-137 102.5-232.5T798 224q195 0 359 136L698 899l-54-40q-109-80-161-165t-52-142zm153 1029q0-72 42.5-148T750 1258l126 89q90 59 134 120.5t44 148.5q0 77-65 140.5T826 1820q-104 0-173-73t-69-166z"/><glyph unicode="'" horiz-adv-x="612" d="M180 1319v729h248v-729H180z"/><glyph unicode="(" horiz-adv-x="1064" d="M288 850q0 731 388 1275h274q-150-201-251-562T598 850q0-353 101-714t251-562H676Q288 118 288 850z"/><glyph unicode=")" horiz-adv-x="1064" d="M114-426q150 201 251 562t101 713q0 353-101 714t-251 562h274q388-544 388-1276 0-731-388-1275H114z"/><glyph unicode="*" horiz-adv-x="1469" d="m180 1279 378 193-378 193 109 190 356-229-19 422h217l-19-422 356 229 109-190-378-193 378-193-109-190-356 229 19-422H626l19 422-356-229z"/><glyph unicode="+" horiz-adv-x="1875" d="M262 672v269h541v541h269V941h542V672h-542V130H803v542H262z"/><glyph unicode="," horiz-adv-x="810" d="M178-500q2 7 11.5 52t14.5 67.5 15.5 74 17 86.5 16 89 16 98.5 13 98T292 168l10 112h288l-15-109Q542-86 390-500H178z"/><glyph unicode="-" horiz-adv-x="1304" d="M198 736v259h908V736H198z"/><glyph unicode="." horiz-adv-x="797" d="M198 181q0 82 59 140.5T398 380t141-58.5T598 181q0-83-59-141.5T398-19q-83 0-141.5 58.5T198 181z"/><glyph unicode="/" horiz-adv-x="1035" d="m54-308 660 2452h267L321-308H54z"/><glyph unicode="0" horiz-adv-x="1819" d="M159 1023q1 499 199.5 776T910 2076t551.5-277.5T1660 1023q0-502-197.5-779.5T910-34q-356 1-553.5 278T159 1023zm307 0q0-381 117-585.5T910 233q209 0 326 205t117 585q0 379-117.5 585T910 1814q-209 0-326-206t-118-585z"/><glyph unicode="1" horiz-adv-x="1331" d="M162 1418v296l511 334h301V0H664v1738h-12z"/><glyph unicode="2" horiz-adv-x="1727" d="M195 1454q0 184 85.5 326T517 1999t341 77q142 0 264.5-44.5t207.5-122 133.5-185T1512 1495q0-173-101.5-340T1030 706L623 280v-15h922V0H197v224l693 718q94 99 146 160t98.5 129.5 65 128T1218 1486q0 150-103.5 241T852 1818q-166 0-264.5-99.5T490 1454H195z"/><glyph unicode="3" horiz-adv-x="1814" d="M187 534h314q9-134 123.5-215T908 238q182 0 298 93t116 241q0 157-119.5 253.5T874 922H701v252h173q171 0 278.5 90t106.5 238q1 142-94 229t-251 87-268-82.5T529 1516H230q5 163 98 291.5T576 2006t342 70q144 0 265.5-45t203-121 126.5-177.5 45-214.5q1-171-94.5-291T1206 1065v-16q203-31 316-161t112-326q0-168-93-303T1282 48 910-28q-311 0-512 156T187 534z"/><glyph unicode="4" horiz-adv-x="1842" d="M154 400v250l885 1398h381V662h271V400h-271V0h-295v400H154zm324 262h649v1018h-16L478 678v-16z"/><glyph unicode="5" horiz-adv-x="1746" d="M202 534h300q12-132 117-217t254-85q176 0 291 120t115 304q0 187-118.5 309.5T860 1090q-93 0-187-32t-152-84l-283 42 115 1032h1126v-265H610l-65-573h12q62 60 162 98t211 38q184 0 332.5-88t232-244.5T1578 662q0-197-89.5-354.5T1237.5 61 873-28q-282 0-472 159T202 534z"/><glyph unicode="6" horiz-adv-x="1790" d="M165 955q0 530 206.5 825.5T938 2076q270 0 451-156t217-404h-305q-33 132-126.5 211T938 1806q-225 0-350.5-196T461 1065h15q79 130 213 203.5t295 73.5q132 0 249.5-50.5T1437 1153t136-214 50-270q0-146-51-275t-143-222.5-226-147T912-28q-81 1-156.5 15.5t-151 49-140 86-120.5 130-95 178-61.5 233T165 955zm334-293q0-176 118.5-303T911 232t294 125.5T1323 665q1 179-115 302.5T918 1091q-115 0-212-59.5t-152-158T499 662z"/><glyph unicode="7" horiz-adv-x="1630" d="M126 1783v265h1354v-274L589 0H266l894 1768v15H126z"/><glyph unicode="8" horiz-adv-x="1778" d="M160 546q-1 192 117.5 338.5T572 1062v12q-151 36-244.5 163T236 1530q-1 155 82.5 279.5T552 2005t337 71q281 0 466-155.5t187-390.5q-2-166-94.5-293T1206 1074v-12q173-31 292-177.5T1618 546q-2-250-206.5-412T889-28q-212 0-379 74T251 251t-91 295zm313 20q-2-154 111.5-247.5T889 225q189 0 301.5 93.5T1305 566q-1 159-119 262T889 931q-182 0-299.5-103T473 566zm64 938q-1-145 97.5-235.5T889 1178q154 0 252.5 90.5T1241 1504q-1 144-98.5 231.5T889 1823q-159 0-256-87.5T537 1504z"/><glyph unicode="9" horiz-adv-x="1790" d="M167 1383q0 145 51 272.5t142.5 221 225.5 147 292 52.5q81-1 156.5-15.5t151-49 140-86 120.5-130 95.5-177 62-231.5 22.5-289q0-533-207-829.5T852-28q-271 0-452 156.5T185 537h305q31-135 125-215t237-80q225 0 351 196.5T1330 988h-16q-79-130-213-204t-295-74q-132 0-249.5 50.5t-203 139-136 214T167 1383zm300 4q1-180 116-302.5T873 962q114 0 211 59t152 157.5 55 211.5q0 172-119 299t-293 127q-175 0-293.5-124.5T467 1387z"/><glyph unicode=":" horiz-adv-x="797" d="M198 181q0 82 59 140.5T398 380t141-58.5T598 181q0-83-59-141.5T398-19q-83 0-141.5 58.5T198 181zm0 1118q0 82 59 140.5t141 58.5 141-58.5 59-140.5q0-83-59-141.5T398 1099q-83 0-141.5 58.5T198 1299z"/><glyph unicode=";" horiz-adv-x="810" d="M178-500q2 7 11.5 52t14.5 67.5 15.5 74 17 86.5 16 89 16 98.5 13 98T292 168l10 112h288l-15-109Q542-86 390-500H178zm56 1799q0 82 59 140.5t141 58.5 141-58.5 59-140.5q0-83-59-141.5T434 1099q-83 0-141.5 58.5T234 1299z"/><glyph unicode="&lt;" horiz-adv-x="1875" d="M274 694v224l1328 644v-305L631 814v-16l971-442V50z"/><glyph unicode="=" horiz-adv-x="1875" d="M297 367v263h1281V367H297zm0 616v263h1281V983H297z"/><glyph unicode="&gt;" horiz-adv-x="1875" d="M274 50v306l970 441v18l-970 442v305l1328-644V694z"/><glyph unicode="?" horiz-adv-x="1480" d="M110 1519q5 132 55 238.5T298.5 1933t194 106 237.5 37q275 0 444-150.5t169-394.5q0-311-289-485-88-54-138-110t-75-134.5T814 608v-19H528v19q1 109 15 194t36.5 143.5T642 1053t81 82 103 71q212 132 212 328 0 130-88.5 210T730 1824q-59 0-112.5-18.5t-98-54-73-95.5-32.5-137H110zM479 181q0 82 59 140.5T679 380t141-58.5T879 181q0-83-59-141.5T679-19q-83 0-141.5 58.5T479 181z"/><glyph unicode="@" horiz-adv-x="2725" d="M147 717q0 294 87 531.5T483 1651t401 254 536 89q224 0 415-59t329.5-164 237-246.5 146.5-308 48-348.5q0-138-11.5-251t-45-227-88-192-147-128T2088 18q-89-3-166.5 19.5t-134.5 76-68 130.5h-12q-38-96-150-158.5T1284 30q-252 10-399.5 200T737 729q0 144 43 265t117 204 171 134 206 64q150 18 269.5-27t143.5-115h13v112h246V438q0-82 42.5-135.5T2106 249q133 0 185.5 147t51.5 482q0 152-40 287t-119.5 244-191.5 188-260.5 122-321.5 43q-315 0-541-129.5t-341-364T413 715q0-500 265.5-767.5T1447-320q251 0 539 103l70-219q-100-47-279-84t-343-37q-619 0-952.5 332T147 717zm843 24q0-95 19-175.5t59-147.5 110-105 164-38q192 0 276.5 114t83.5 353q-1 224-85 318t-271 94q-110 0-191.5-55.5T1032 950t-42-209z"/><glyph unicode="A" horiz-adv-x="1971" d="m70 0 737 2048h357L1901 0h-328l-187 542H586L398 0H70zm606 802h620l-302 874h-16z"/><glyph unicode="B" horiz-adv-x="1842" d="M225 0v2048h750q159 0 284-41t203-114.5 118.5-170.5 40.5-212q0-93-27-168t-75.5-126.5-108.5-85-134-52.5v-20q78-4 152.5-40t136-98 99-158.5T1701 551q0-120-42-219t-124.5-174T1318 41.5 1010 0H225zm309 265h446q212 0 313 81.5T1394 566q0 150-111 252.5T991 921H534V265zm0 897h414q159 0 264.5 89t105.5 235q0 134-92.5 216.5T956 1785H534v-623z"/><glyph unicode="C" horiz-adv-x="2071" d="M159 1024q0 241 69.5 440t192 332.5 292 206.5 367.5 73q330 0 562-185.5t284-508.5h-312q-37 194-183.5 303T1083 1794q-133 0-245.5-51T642 1596t-129.5-243-46.5-329q0-184 47-331t129.5-242.5 195-146T1082 254q200 0 346.5 107T1614 660l312-1q-51-307-281.5-497T1080-28q-159 0-300 46T525.5 154 330 370 203.5 663.5 159 1024z"/><glyph unicode="D" horiz-adv-x="2032" d="M225 0v2048h684q452 0 708-271.5t256-749.5q0-482-259.5-754.5T888 0H225zm309 270h337q347 0 522.5 194.5T1569 1027q0 365-172.5 558T890 1778H534V270z"/><glyph unicode="E" horiz-adv-x="1698" d="M225 0v2048h1284v-266H534v-624h908V893H534V266h987V0H225z"/><glyph unicode="F" horiz-adv-x="1650" d="M225 0v2048h1270v-266H534v-624h870V893H534V0H225z"/><glyph unicode="G" horiz-adv-x="2109" d="M159 1023q0 241 69 440t191 332.5 290.5 207T1076 2076q330 0 565-187.5t287-487.5h-317q-59 186-196 289.5T1078 1794q-104 0-196.5-32T713 1666t-131-155.5-85.5-215.5-30.5-270q0-183 46.5-330t130-243T840 305t250-51q247 0 397.5 146T1643 793h-506v255h805V815q0-254-109.5-446.5T1530.5 74 1090-28q-207 0-379.5 73.5T416 254 226.5 586 159 1023z"/><glyph unicode="H" horiz-adv-x="2090" d="M225 0v2048h309v-890h1021v890h310V0h-310v893H534V0H225z"/><glyph unicode="I" horiz-adv-x="759" d="M225 0v2048h309V0H225z"/><glyph unicode="J" horiz-adv-x="1554" d="M99 512h307q1-126 86-202t222-76q148 0 227 93t80 269v1452h308V596q-1-293-169.5-458.5T706-28q-175 0-311 62T179 219.5 99 512z"/><glyph unicode="K" horiz-adv-x="1871" d="M225 0v2048h309v-978h25l859 978h389l-826-922L1810 0h-372L776 915 534 637V0H225z"/><glyph unicode="L" horiz-adv-x="1589" d="M225 0v2048h309V266h928V0H225z"/><glyph unicode="M" horiz-adv-x="2528" d="M225 0v2048h375l652-1592h24l652 1592h375V0h-294v1482h-19L1386 3h-244L538 1483h-19V0H225z"/><glyph unicode="N" horiz-adv-x="2103" d="M225 0v2048h286L1553 544h19v1504h306V0h-284L553 1502h-19V0H225z"/><glyph unicode="O" horiz-adv-x="2163" d="M159 1024q0 241 69.5 440T421 1796.5 713.5 2003t368.5 73q198 0 367.5-73t292.5-206.5 192.5-332.5 69.5-440-69.5-440T1742 251.5 1449.5 45 1082-28q-199 0-368.5 73T421 252 228.5 584.5 159 1024zm307 0q0-183 46.5-330t129-242.5 195-146.5 245.5-51 245 51 195 146.5T1651.5 694t46.5 330-46.5 330-129.5 242.5-195 146.5-245 51-245.5-51-195-146.5-129-242.5-46.5-330z"/><glyph unicode="P" horiz-adv-x="1800" d="M225 0v2048h730q174 0 310.5-50.5t223-140 131-209.5 44.5-263-45-263.5T1487.5 911t-223-140.5T954 720H534V0H225zm309 982h392q217 0 322 109.5t105 293.5-105.5 291T922 1783H534V982z"/><glyph unicode="Q" horiz-adv-x="2164" d="M159 1024q0 241 69.5 440T421 1796.5 713.5 2003t368.5 73q198 0 367.5-73t292.5-206.5 192.5-332.5 69.5-440q0-277-90-494t-252-354l276-360h-316L1447 43q-166-71-365-71T713.5 45 421 252 228.5 584.5 159 1024zm307 0q0-183 46.5-330t129-242.5 195-146.5 245.5-51q102 0 187 28L978 664h304l197-257q105 98 162 255t57 362q0 183-46.5 330T1522 1596.5 1327 1743t-245 51-245.5-51-195-146.5-129-242.5-46.5-330z"/><glyph unicode="R" horiz-adv-x="1816" d="M225 0v2048h730q175 0 311-47t222.5-133 131-202.5T1664 1406q0-209-95-358.5T1288 829L1742 0h-352L974 775H534V0H225zm309 1041h392q427 0 427 365 0 181-104.5 279T922 1783H534v-742z"/><glyph unicode="S" horiz-adv-x="1812" d="M144 566h310q13-160 139.5-244.5T908 237q199 0 326.5 91.5T1362 569q0 53-20 97t-52.5 75-85 57.5-105.5 45T974 881l-242 66q-533 144-533 541 0 173 95.5 308T555 2003.5t370 72.5q310 0 509-159t206-407h-298q-16 140-131 219.5T918 1809q-186 0-298.5-85T507 1506q0-56 24-103.5t59.5-79 89-58.5 98.5-42 101-29l200-52q589-145 589-576 0-266-202.5-433T910-34q-343 0-547 160.5T144 566z"/><glyph unicode="T" horiz-adv-x="1833" d="M124 1782v266h1585v-266h-639V0H762v1782H124z"/><glyph unicode="U" horiz-adv-x="2077" d="M225 701v1347h309V726q0-212 137-345t367-133q231 0 367.5 133T1542 726v1322h310V701q0-214-100.5-380.5T1465.5 60 1038-34q-181 0-333.5 54.5T447 172 283.5 405 225 701z"/><glyph unicode="V" horiz-adv-x="1971" d="M70 2048h334L974 380h23l570 1668h334L1164 0H807z"/><glyph unicode="W" horiz-adv-x="2754" d="M58 2048h325L782 462h19l415 1586h322l415-1587h19l398 1587h326L2127 0h-311l-431 1534h-16L938 0H626z"/><glyph unicode="X" horiz-adv-x="1876" d="m78 0 653 1024L82 2048h358l490-801h16l490 801h358l-638-1024L1798 0h-360L946 790h-16L438 0H78z"/><glyph unicode="Y" horiz-adv-x="1928" d="M67 2048h351l535-931h22l535 931h351L1118 804V0H810v804z"/><glyph unicode="Z" horiz-adv-x="1799" d="M163 1782v266h1464v-206L550 266h1086V0H172v206l1077 1576H163z"/><glyph unicode="[" horiz-adv-x="1064" d="M321-426v2551h657v-237H607V-189h371v-237H321z"/><glyph unicode="\" horiz-adv-x="1035" d="M54 2144h267L981-308H714z"/><glyph unicode="]" horiz-adv-x="1064" d="M86-189h371v2077H86v237h657V-426H86v237z"/><glyph unicode="^" horiz-adv-x="1338" d="m106 1120 415 870h296l415-870H967l-291 634h-14l-288-634H106z"/><glyph unicode="_" horiz-adv-x="1295" d="M-3 0h1301v-254H-3V0z"/><glyph unicode="`" horiz-adv-x="1400" d="M426 2202h315l233-461H735z"/><glyph unicode="a" horiz-adv-x="1603" d="M129 434q0 73 18 133.5t47.5 104T270 750t93.5 58 111 40.5 119 27T718 893q32 4 89 10 67 7 97 11t73 11 60 15 37 21 26 30 6 41v7q0 132-74.5 203.5T814 1314q-140 0-230-61t-127-153l-281 64q36 102 101.5 179T427 1465.5t180 68 203 22.5q81 0 156.5-12t158-48.5T1267 1402t99.5-155.5T1406 1020V0h-292v210h-12q-23-46-60.5-87t-92-77.5-132.5-58T648-34q-148 0-264 53T198.5 179.5 129 434zm293-4q0-108 80-166t211-58q179 0 286.5 102.5T1107 554v198q-9-9-27.5-17t-49.5-16-54-13-68-12-61-9.5-63-8.5l-47-6q-70-9-123-25t-98.5-43-69.5-70.5T422 430z"/><glyph unicode="b" horiz-adv-x="1762" d="M225 0v2048h299v-761h18q22 39 39 65.5t56.5 69T720 1490t112.5 46 150.5 20q139 0 257.5-54t204.5-154 134.5-250 48.5-333q0-366-179-580.5T986-30q-80 0-148.5 19.5t-113 46T641 103t-58.5 69.5T542 239h-25V0H225zm293 768q0-247 106-395t295-148q130 0 223.5 72T1281 490.5t45 277.5q0 155-44.5 274T1144 1231.5 919 1302q-192 0-296.5-144T518 768z"/><glyph unicode="c" horiz-adv-x="1599" d="M132 761q0 233 87.5 413.5t250 281T845 1556q262 0 436-141.5t198-374.5h-291q-25 115-113.5 189.5T850 1304q-188 0-302-145T434 768q0-251 113-398.5T850 222q129 0 219.5 70T1188 486h291q-25-229-194.5-373T848-31Q629-31 465.5 70.5T217 351t-85 410z"/><glyph unicode="d" horiz-adv-x="1762" d="M134 765q0 183 48.5 333T317 1348t204 154 257 54q82 0 151-20t112-46 83-68.5 56.5-68.5 39.5-66h18v761h299V0h-292v239h-25q-21-38-40.5-66.5T1121 103t-83.5-67.5-113-46T776-30q-139 0-257.5 55T315 180.5t-133 251T134 765zm302 3q0-156 45-277.5T619 297t223-72q190 0 295.5 148T1243 768q0 246-104.5 390T842 1302q-131 0-224-70.5T480.5 1042 436 768z"/><glyph unicode="e" d="M132 758q0 175 51 323.5t143 253 225 163 291 58.5q107 0 204.5-26.5t185-86T1383 1296t101.5-219 37.5-293V678H430q6-219 123.5-340.5T866 216q129 0 221.5 56T1220 435l283-51q-52-190-222-302.5T863-31q-224 0-390 97.5t-253.5 276T132 758zm299 144h798q-1 178-107 292.5T844 1309q-176 0-290-118.5T431 902z"/><glyph unicode="f" horiz-adv-x="1039" d="M64 1296v240h237v178q0 105 37 188.5T438.5 2038t144.5 79 174 27q142 0 250-41l-70-242q-72 23-134 23-107 0-154.5-52.5T601 1674v-138h331v-240H601V0H301v1296H64z"/><glyph unicode="g" horiz-adv-x="1738" d="M134 774q0 180 48.5 328T317 1349t204 153 257 54q82 0 151.5-20t113.5-46.5 83.5-68 57.5-69 39-65.5h22v249h293V-34q0-144-53-255.5t-147.5-180-219-103.5T845-608q-259 0-423 97T192-260l257 106q25-41 51.5-72t73-66.5 116.5-55T848-367q179 0 285.5 86T1240-22v302h-19q-20-36-40-65t-58.5-67-83.5-63.5T925.5 41 776 23q-137 0-253.5 49T319 214 183 450.5 134 774zm302 4q0-232 105-369.5T842 271q192 0 296.5 134T1243 778t-104.5 381.5T842 1302q-131 0-224.5-70.5t-137.5-187T436 778z"/><glyph unicode="h" horiz-adv-x="1695" d="M201 0v2048h295v-762h19q117 270 455 270 243 0 384.5-149T1496 977V0h-299v941q0 168-87 262t-242 94q-164 0-266-102.5T500 912V0H201z"/><glyph unicode="i" horiz-adv-x="701" d="M163 1951q0 74 55.5 126.5T352 2130q77 0 133-53t56-126-56-125.5-133-52.5q-78 0-133.5 52.5T163 1951zM201 0v1536h299V0H201z"/><glyph unicode="j" horiz-adv-x="701" d="M-48-318H0q104 0 152.5 55.5T201-98v1634h299V-100q0-232-124.5-354T13-576q-40 0-61 1v257zm208 2269q0 74 55.5 126.5T349 2130q77 0 133-53t56-126-56-125.5-133-52.5q-78 0-133.5 52.5T160 1951z"/><glyph unicode="k" horiz-adv-x="1567" d="M201 0v2048h299V886h26l612 650h358L874 877 1538 0h-367L649 694 500 545V0H201z"/><glyph unicode="l" horiz-adv-x="701" d="M201 0v2048h299V0H201z"/><glyph unicode="m" horiz-adv-x="2488" d="M201 0v1536h287v-250h19q48 128 157.5 199t260.5 71 256.5-71 156.5-199h16q56 125 177 197.5t284 72.5q216 0 345-135t129-391V0h-299v1002q0 148-80.5 222t-207.5 74q-143 0-225.5-88.5T1394 979V0h-298v1021q0 125-78 201t-203 76q-130 0-222.5-99.5T500 947V0H201z"/><glyph unicode="n" horiz-adv-x="1682" d="M201 0v1536h287v-250h19q55 127 170 198.5t283 71.5q241 0 382-150t141-429V0h-299v941q0 167-87 261.5T858 1297q-160 0-259-102.5T500 912V0H201z"/><glyph unicode="o" horiz-adv-x="1696" d="M132 761q0 359 196 577t520 218 520-218 196-577q0-235-88-415T1225 67.5 848-31 471 67.5 220 346t-88 415zm302 1q0-113 25.5-209.5T535 381t130.5-118T849 220q102 0 182.5 43t130 118 75 171.5T1262 762q0 112-25.5 209t-75 172.5-130 119T849 1306q-103 0-183.5-43.5t-130.5-119T459.5 971 434 762z"/><glyph unicode="p" horiz-adv-x="1738" d="M201-576v2112h292v-249h25q22 39 39 65.5t56.5 69T696 1490t112.5 46 150.5 20q139 0 257.5-54t204.5-154 134.5-250 48.5-333q0-366-179-580.5T962-30q-80 0-148.5 19.5t-113 46T617 103t-58.5 69.5T518 239h-18v-815H201zM494 768q0-247 106-395t295-148q130 0 223.5 72T1257 490.5t45 277.5q0 155-44.5 274T1120 1231.5 895 1302q-192 0-296.5-144T494 768z"/><glyph unicode="q" horiz-adv-x="1738" d="M134 765q0 183 48.5 333T317 1348t204 154 257 54q82 0 151-20t112-46 83-68.5 56.5-68.5 39.5-66h25v249h292V-576h-299v815h-18q-21-38-40.5-66.5T1121 103t-83.5-67.5-113-46T776-30q-139 0-257.5 55T315 180.5t-133 251T134 765zm302 3q0-156 45-277.5T619 297t223-72q190 0 295.5 148T1243 768q0 246-104.5 390T842 1302q-131 0-224-70.5T480.5 1042 436 768z"/><glyph unicode="r" horiz-adv-x="1082" d="M201 0v1536h289v-244h16q42 123 148 195t242 72q74 0 127-7v-286q-62 18-156 18-159 0-263-97.5T500 938V0H201z"/><glyph unicode="s" horiz-adv-x="1509" d="m133 394 289 44q27-113 111-170.5T752 210q144 0 233.5 60.5T1075 422q0 147-217 195l-260 57q-420 93-420 427 0 203 165.5 329T771 1556q241 0 387-104.5t194-290.5l-271-48q-30 89-104.5 147.5T774 1319t-213-57-84-145q-1-77 56-124t185-77l244-56q212-49 316-151.5T1382 444q0-209-175-342T754-31Q495-31 332.5 79.5T133 394z"/><glyph unicode="t" horiz-adv-x="1047" d="M79 1296v240h225v368h299v-368h315v-240H603V451q0-62 14.5-104.5t42-63.5 57.5-29 70-8 105 13l54-247q-83-31-194-32h-13q-83 0-157 23-80 25-142.5 74.5t-99 130T304 389v907H79z"/><glyph unicode="u" horiz-adv-x="1674" d="M201 559v977h299V595q0-156 86.5-249.5T813 252q65 0 128 24t116 70 85 121.5 32 169.5v899h300V0h-294v266h-16q-56-129-174.5-207.5T705-20q-228 0-366 150.5T201 559z"/><glyph unicode="v" horiz-adv-x="1595" d="M80 1536h321L790 354h16l388 1182h321L958 0H638z"/><glyph unicode="w" horiz-adv-x="2323" d="M82 1536h309L692 408h15l302 1128h309l300-1123h15l299 1123h309L1790 0h-305l-312 1109h-23L838 0H534z"/><glyph unicode="x" horiz-adv-x="1552" d="m103 0 478 768-472 768h328l339-598 342 598h327L966 768 1449 0h-327L776 574 431 0H103z"/><glyph unicode="y" horiz-adv-x="1595" d="M80 1536h320L789 344h16l389 1192h321L882-205Q746-576 390-576q-130 0-204 33l72 245q75-20 133-20h13q63 3 113.5 50T605-122l37 102z"/><glyph unicode="z" horiz-adv-x="1553" d="M169 0v205l832 1057v14H196v260h1178v-218L574 274v-14h828V0H169z"/><glyph unicode="{" horiz-adv-x="1064" d="M98 706v288q168 0 235.5 68.5T401 1294v287q0 153 34 257.5t107 168 178.5 91T978 2125v-237q-169 0-233-75t-64-247v-364q0-64-13-113.5T622.5 994 528 917t-153-50v-35q91-18 153-50t94.5-77 45.5-94.5T681 497V133q0-172 64-247t233-75v-237q-152 0-257.5 27.5t-178.5 91-107 168T401 118v288q0 162-67.5 231T98 706z"/><glyph unicode="|" horiz-adv-x="964" d="M348-660v3368h268V-660H348z"/><glyph unicode="}" horiz-adv-x="1064" d="M86-189q169 0 233 75t64 247v364q0 64 13 113.5t45.5 94.5 94.5 77 153 50v35q-91 18-153 50t-94.5 77-45.5 94.5-13 113.5v364q0 172-64 247t-233 75v237q152 0 257.5-27.5t178.5-91 107-168 34-257.5v-288q0-162 67.5-231T966 993V705q-168 0-235.5-68.5T663 405V118q0-153-34-257.5t-107-168-178.5-91T86-426v237z"/><glyph unicode="~" horiz-adv-x="1875" d="M226 590q-3 126 28 224t88.5 157.5 131 90T634 1092q98 0 182.5-41.5T1013 911q74-65 115.5-88.5T1220 799q83 0 130.5 62t45.5 178h253q3-126-28.5-224t-89-157.5-131-90T1241 537q-98 0-182.5 41.5T862 718q-75 65-116 88.5T655 830q-82 0-130-59t-46-181H226z"/><glyph unicode="¢" horiz-adv-x="1599" d="M132 1023q0 216 76 388t217.5 276.5T756 1813v235h164v-233q233-21 385-159.5t174-353.5h-291q-22 99-91.5 169.5T920 1560V490q103 17 173 84.5t95 173.5h291q-24-213-172.5-353.5T920 234V0H756v236q-193 21-334.5 126.5T206 638t-74 385zm302 7q0-217 86-358.5T756 495v1060q-149-34-235.5-173T434 1030z"/><glyph unicode="£" horiz-adv-x="1814" d="M182 802v266h217l-12 374q-5 152 43.5 275t136 200 200 118 239.5 41q144 0 266.5-50t201-132 114.5-192.5 15-227.5l-289 46q14 138-75.5 216t-221.5 78q-65 0-124-22.5t-106-67-75-117-28-165.5l14-374h471V802H708l8-223q10-200-81-313h954V0H189v266h97q39 2 66.5 33t41 79 19 96.5T416 571l-8 231H182z"/><glyph unicode="¥" horiz-adv-x="1566" d="M40 2048h332l411-927 411 927h332l-493-1016h336V830H935V636h434V434H935V0H627v434H183v202h444v194H183v202h350z"/><glyph unicode="¨" horiz-adv-x="1611" d="M335 1951q0 73 52.5 124t124.5 51q75 0 125.5-50.5T688 1951q0-71-51-122.5T512 1777q-71 0-124 52t-53 122zm588 0q0 73 52.5 124t124.5 51q75 0 125.5-50.5T1276 1951q0-71-51-122.5t-125-51.5q-71 0-124 52t-53 122z"/><glyph unicode="©" horiz-adv-x="2576" d="M232 1024q1 215 85 410.5t225.5 337 336.5 225 409 83.5q215 0 410.5-83.5t336.5-225 224.5-337T2344 1024t-82.5-410.5-225-337-337.5-225T1288-32q-214 0-409.5 83.5T541 276.5t-226 337-83 410.5zm266-1q-1-213 105-395t288.5-288T1288 234q161 0 308 62.5t252.5 168 168 251.5 61.5 307q0 161-62.5 307.5T1847 1583t-252 168.5-307 62.5q-160 0-306-63t-252-168.5-169-252-63-307.5zm215 1q0 158 78.5 292.5t213 213T1297 1608q138 0 258.5-60.5t198-166T1848 1146h-260q-19 92-102 152t-189 60q-138 0-236-97.5T963 1024q0-138 98-236t236-98q105 0 180 59t95 153h260q-27-199-176.5-330.5T1297 440q-158 0-292.5 78.5t-213 213T713 1024z"/><glyph unicode="«" horiz-adv-x="1601" d="M180 820v28l404 600h267L471 834l380-614H584zm561 0v28l404 600h267l-380-614 380-614h-267z"/><glyph unicode="­" horiz-adv-x="1304" d="M198 736v259h908V736H198z"/><glyph unicode="®" horiz-adv-x="1882" d="M141 1276q0 163 63.5 311T375 1842t255 170.5 311 63.5 311-63.5 255-170.5 170.5-255 63.5-311-63.5-311T1507 710t-255-170.5T941 476t-311 63.5T375 710 204.5 965 141 1276zm198 0q0-122 47.5-233.5t128-192.5 192-128.5T941 674q163 0 301.5 80.5t219 219T1542 1276q0 163-80.5 302t-219 219.5T941 1878q-123 0-234.5-47.5t-192-128.5-128-192.5T339 1276zm319-360v738h369q90 0 163-64t73-175q0-72-33-126.5t-87-87.5l148-285h-189l-124 249H830V916H658zm172 376h140q40 0 73.5 33t33.5 90q0 58-32.5 85t-71.5 27H830v-235z"/><glyph unicode="´" horiz-adv-x="1400" d="m551 1741 234 461h315l-310-461H551z"/><glyph unicode="¸" horiz-adv-x="853" d="M265-449q108 0 170.5 31.5T499-322q1 65-47 93t-163 39L330 8h196l-16-82q95-15 156-74t61-165q1-139-118.5-221T271-616z"/><glyph unicode="»" horiz-adv-x="1604" d="m173 220 380 614-380 614h267l404-600v-28L440 220H173zm564 0 380 614-380 614h267l404-600v-28l-404-600H737z"/><glyph unicode="ˆ" horiz-adv-x="1379" d="M213 1720v15l352 424h249l351-424v-15H895l-206 268-205-268H213z"/><glyph unicode="˚" horiz-adv-x="947" d="M117 2042q0 142 104 243.5T474 2387q148 0 250.5-101.5T827 2042t-102-239-251-97q-150 0-253.5 97T117 2042zm177 0q0-70 51.5-123t128.5-53q76 1 128 53.5t52 122.5q0 72-52 126.5T474 2223q-77 0-128.5-54.5T294 2042z"/><glyph unicode="˜" horiz-adv-x="1408" d="M202 1728q0 163 88.5 263.5T513 2092q55 0 107-21t86.5-46.5 81-46.5 90.5-21q57 0 93.5 43.5T1009 2110l197-13q0-163-88-260.5T895 1738q-52 0-96 14t-74 34-58.5 40-63 34-73.5 14q-55 0-91-43t-36-109z"/><glyph unicode="Ѐ" horiz-adv-x="1698" d="M225 0v2048h1284v-266H534v-624h908V893H534V266h987V0H225zm216 2714h315l233-461H750z"/><glyph unicode="Ё" horiz-adv-x="1698" d="M225 0v2048h1284v-266H534v-624h908V893H534V266h987V0H225zm171 2463q0 73 52.5 124t124.5 51q75 0 125.5-50.5T749 2463q0-71-51-122.5T573 2289q-71 0-124 52t-53 122zm588 0q0 73 52.5 124t124.5 51q75 0 125.5-50.5T1337 2463q0-71-51-122.5t-125-51.5q-71 0-124 52t-53 122z"/><glyph unicode="Ђ" horiz-adv-x="2316" d="M124 1782v266h1585v-266h-639v-606q198 53 370 53 342 0 542-164.5T2182 603q0-141-46-255t-136-197-230-127-320-43l-4 256q200 0 312 95t112 264q0 177-117 279.5T1432 978q-174 0-362-49V0H762v1782H124z"/><glyph unicode="Ѓ" horiz-adv-x="1626" d="M225 0v2048h1277v-266H534V0H225zm521 2253 234 461h315l-310-461H746z"/><glyph unicode="Є" horiz-adv-x="1902" d="M159 915v169q0 218 61 402.5t169.5 314 263 202.5 337.5 73q217 0 385.5-82.5t268.5-239 113-368.5h-315q-8 127-71.5 223T1208 1754.5 990 1804q-225 0-369.5-183.5T466 1142h753V874H465q7-282 146.5-458.5T970 239q189 0 323 112t149 299h315q-18-313-232.5-495.5T970-28q-179 0-330 69T383.5 233.5t-165 299T159 915z"/><glyph unicode="Ѕ" horiz-adv-x="1812" d="M144 566h310q13-160 139.5-244.5T908 237q199 0 326.5 91.5T1362 569q0 53-20 97t-52.5 75-85 57.5-105.5 45T974 881l-242 66q-533 144-533 541 0 173 95.5 308T555 2003.5t370 72.5q310 0 509-159t206-407h-298q-16 140-131 219.5T918 1809q-186 0-298.5-85T507 1506q0-56 24-103.5t59.5-79 89-58.5 98.5-42 101-29l200-52q589-145 589-576 0-266-202.5-433T910-34q-343 0-547 160.5T144 566z"/><glyph unicode="І" horiz-adv-x="759" d="M225 0v2048h309V0H225z"/><glyph unicode="Ї" horiz-adv-x="759" d="M-91 2463q0 73 52.5 124T86 2638q75 0 125.5-50.5T262 2463q0-71-51-122.5T86 2289q-71 0-124 52t-53 122zM225 0v2048h309V0H225zm272 2463q0 73 52.5 124t124.5 51q75 0 125.5-50.5T850 2463q0-71-51-122.5T674 2289q-71 0-124 52t-53 122z"/><glyph unicode="Ј" horiz-adv-x="1554" d="M99 512h307q1-126 86-202t222-76q148 0 227 93t80 269v1452h308V596q-1-293-169.5-458.5T706-28q-175 0-311 62T179 219.5 99 512z"/><glyph unicode="Љ" horiz-adv-x="3089" d="M82 0v269l55 1q67 1 115 21.5t89.5 73 68 144.5T454 743t25 343l35 962h1268v-826h457q339 0 528-162t188-439q1-280-189.5-450.5T2239 0h-767v1785H809l-35-781q-9-186-25-323.5T703 426t-74-193.5T519.5 102 368 24 168 0H82zm1700 260h457q96 0 175.5 30t130 81 78 116.5T2650 625q0 145-109.5 241T2239 962h-457V260z"/><glyph unicode="Њ" horiz-adv-x="3172" d="M225 0v2048h309v-826h1021v826h310v-826h457q339 0 528-162t188-439q1-280-189.5-450.5T2322 0h-767v962H534V0H225zm1640 260h457q96 0 175.5 30t130 81 78 116.5T2733 625q0 145-109.5 241T2322 962h-457V260z"/><glyph unicode="Ћ" horiz-adv-x="2547" d="M124 1786v262h1562v-262h-659v-540q234 67 514 67 172 0 303-35.5t226.5-111 145-198.5 49.5-292V0h-305v676q0 203-104.5 287.5T1541 1048q-268 0-514-66V0H721v1786H124z"/><glyph unicode="Ќ" horiz-adv-x="1871" d="M225 0v2048h309v-978h25l859 978h389l-826-922L1810 0h-372L776 915 534 637V0H225zm593 2253 234 461h315l-310-461H818z"/><glyph unicode="Ѝ" horiz-adv-x="2103" d="M225 0v2048h306V544h19l1042 1504h286V0h-309v1502h-19L510 0H225zm402 2714h315l233-461H936z"/><glyph unicode="Ў" horiz-adv-x="1801" d="M67 2048h328L932 864l478 1184h324L1026 355q-31-71-57.5-119.5T898 133t-94.5-86T678-6.5 510-28H370v272h123q106 0 166.5 51T758 438l29 73zm389 520h245q0-83 47.5-136.5T896 2378q99 0 147.5 54t48.5 136h246q0-170-120-275t-322-105q-200 0-320 105t-120 275z"/><glyph unicode="Џ" horiz-adv-x="2031" d="M225 0v2048h305V268h969v1780h307V0h-637v-496H862V0H225z"/><glyph unicode="А" horiz-adv-x="1971" d="m70 0 737 2048h357L1901 0h-328l-187 542H586L398 0H70zm606 802h620l-302 874h-16z"/><glyph unicode="Б" horiz-adv-x="1849" d="M225 0v2048h1277v-266H534v-560h458q338 0 527-162t189-439q0-280-190-450.5T992 0H225zm309 260h458q189 0 299.5 107T1402 625q0 145-109.5 241T992 962H534V260z"/><glyph unicode="В" horiz-adv-x="1842" d="M225 0v2048h750q159 0 284-41t203-114.5 118.5-170.5 40.5-212q0-93-27-168t-75.5-126.5-108.5-85-134-52.5v-20q78-4 152.5-40t136-98 99-158.5T1701 551q0-120-42-219t-124.5-174T1318 41.5 1010 0H225zm309 265h446q212 0 313 81.5T1394 566q0 150-111 252.5T991 921H534V265zm0 897h414q159 0 264.5 89t105.5 235q0 134-92.5 216.5T956 1785H534v-623z"/><glyph unicode="Г" horiz-adv-x="1626" d="M225 0v2048h1277v-266H534V0H225z"/><glyph unicode="Д" horiz-adv-x="2150" d="M70 262h135q55 47 99 114.5t84.5 174T456 817t38 366l48 865h1263V262h232v-754h-296V0H366v-495H70v757zm499 0h940v1520H822l-32-599q-36-625-221-921z"/><glyph unicode="Е" horiz-adv-x="1698" d="M225 0v2048h1284v-266H534v-624h908V893H534V266h987V0H225z"/><glyph unicode="Ж" horiz-adv-x="2800" d="m78 0 656 1072-610 976h378l508-886h237v886h306v-886h244l504 886h377l-608-978L2722 0h-361l-515 874h-293V0h-306v874H957L435 0H78z"/><glyph unicode="З" horiz-adv-x="1814" d="M187 534h314q9-134 123.5-215T908 238q182 0 298 93t116 241q0 157-119.5 253.5T874 922H701v252h173q171 0 278.5 90t106.5 238q1 142-94 229t-251 87-268-82.5T529 1516H230q5 163 98 291.5T576 2006t342 70q144 0 265.5-45t203-121 126.5-177.5 45-214.5q1-171-94.5-291T1206 1065v-16q203-31 316-161t112-326q0-168-93-303T1282 48 910-28q-311 0-512 156T187 534z"/><glyph unicode="И" horiz-adv-x="2103" d="M225 0v2048h306V544h19l1042 1504h286V0h-309v1502h-19L510 0H225z"/><glyph unicode="Й" horiz-adv-x="2103" d="M225 0v2048h306V544h19l1042 1504h286V0h-309v1502h-19L510 0H225zm387 2568h245q0-83 47.5-136.5T1052 2378q99 0 147.5 54t48.5 136h246q0-170-120-275t-322-105q-200 0-320 105t-120 275z"/><glyph unicode="К" horiz-adv-x="1878" d="M225 0v2048h309v-865h101l774 865h377l-819-917L1817 0h-377L752 918H534V0H225z"/><glyph unicode="Л" horiz-adv-x="2024" d="M70 0v268l60 2q74 2 127.5 31t91.5 87 62 157 37.5 228 20.5 313l35 962h1295V0h-305v1786H795l-32-782q-7-173-22-303.5T697.5 452 625 254 516.5 115 363 28 158 0H70z"/><glyph unicode="М" horiz-adv-x="2528" d="M225 0v2048h375l652-1592h24l652 1592h375V0h-294v1482h-19L1386 3h-244L538 1483h-19V0H225z"/><glyph unicode="Н" horiz-adv-x="2090" d="M225 0v2048h309v-890h1021v890h310V0h-310v893H534V0H225z"/><glyph unicode="О" horiz-adv-x="2163" d="M159 1024q0 241 69.5 440T421 1796.5 713.5 2003t368.5 73q198 0 367.5-73t292.5-206.5 192.5-332.5 69.5-440-69.5-440T1742 251.5 1449.5 45 1082-28q-199 0-368.5 73T421 252 228.5 584.5 159 1024zm307 0q0-183 46.5-330t129-242.5 195-146.5 245.5-51 245 51 195 146.5T1651.5 694t46.5 330-46.5 330-129.5 242.5-195 146.5-245 51-245.5-51-195-146.5-129-242.5-46.5-330z"/><glyph unicode="П" horiz-adv-x="2073" d="M246 0v2048h1580V0h-308v1784H554V0H246z"/><glyph unicode="Р" horiz-adv-x="1800" d="M225 0v2048h730q174 0 310.5-50.5t223-140 131-209.5 44.5-263-45-263.5T1487.5 911t-223-140.5T954 720H534V0H225zm309 982h392q217 0 322 109.5t105 293.5-105.5 291T922 1783H534V982z"/><glyph unicode="С" horiz-adv-x="2071" d="M159 1024q0 241 69.5 440t192 332.5 292 206.5 367.5 73q330 0 562-185.5t284-508.5h-312q-37 194-183.5 303T1083 1794q-133 0-245.5-51T642 1596t-129.5-243-46.5-329q0-184 47-331t129.5-242.5 195-146T1082 254q200 0 346.5 107T1614 660l312-1q-51-307-281.5-497T1080-28q-159 0-300 46T525.5 154 330 370 203.5 663.5 159 1024z"/><glyph unicode="Т" horiz-adv-x="1833" d="M124 1782v266h1585v-266h-639V0H762v1782H124z"/><glyph unicode="У" horiz-adv-x="1801" d="M67 2048h328L932 864l478 1184h324L1026 355q-31-71-57.5-119.5T898 133t-94.5-86T678-6.5 510-28H370v272h123q106 0 166.5 51T758 438l29 73z"/><glyph unicode="Ф" horiz-adv-x="2296" d="M159 991q0 181 60.5 334.5t166.5 260T641.5 1752t322.5 60h34v272h303v-272h32q174 0 323-59.5t255-165.5 166-259 60-334q0-179-60-331t-166-257.5-255-165-323-59.5h-32V-84H998v265h-34q-174 0-323.5 59T385 404 219 660.5 159 991zm299 0q0-254 134-398.5T964 448h34v1097h-34q-239 0-372.5-146.5T458 991zm843-543h33q238 0 370.5 145T1837 994q0 258-132.5 404.5T1334 1545h-33V448z"/><glyph unicode="Х" horiz-adv-x="1876" d="m78 0 653 1024L82 2048h358l490-801h16l490 801h358l-638-1024L1798 0h-360L946 790h-16L438 0H78z"/><glyph unicode="Ц" horiz-adv-x="2156" d="M225 0v2048h296V268h988v1780h297V273h236l-27-757h-308V0H225z"/><glyph unicode="Ч" horiz-adv-x="2059" d="M266 1372v676h305v-676q0-203 104.5-287.5T990 1000q268 0 514 66v982h306V0h-306v802q-234-67-514-67-172 0-303 35.5t-226.5 111-145 198.5-49.5 292z"/><glyph unicode="Ш" horiz-adv-x="2771" d="M252 0v2048h306V268h676v1780h306V268h674v1780h305V0H252z"/><glyph unicode="Щ" horiz-adv-x="2840" d="M252 0v2048h306V268h676v1780h306V268h674v1780h305V258h207l-28-741h-293V0H252z"/><glyph unicode="Ъ" horiz-adv-x="2297" d="M124 1789v259h866v-826h457q339 0 528-162t188-439q1-280-189.5-450.5T1447 0H680v1789H124zM990 260h457q96 0 175.5 30t130 81 78 116.5T1858 625q0 145-109.5 241T1447 962H990V260z"/><glyph unicode="Ы" horiz-adv-x="2434" d="M227 0v2048h310v-826h457q339 0 528-162t188-439q1-280-189.5-450.5T994 0H227zm310 260h457q96 0 175.5 30t130 81 78 116.5T1405 625q0 145-109.5 241T994 962H537V260zM1899 0v2048h309V0h-309z"/><glyph unicode="Ь" horiz-adv-x="1862" d="M227 0v2048h310v-826h457q339 0 528-162t188-439q1-280-189.5-450.5T994 0H227zm310 260h457q96 0 175.5 30t130 81 78 116.5T1405 625q0 145-109.5 241T994 962H537V260z"/><glyph unicode="Э" horiz-adv-x="1916" d="M159 1386q15 151 70 275.5t149 218 235 145 317 51.5q251 0 438.5-117t288-331.5T1757 1128V915q0-285-99-498.5t-282.5-329T947-28q-181 0-325 51T382.5 166 231 380t-71 270h314q27-209 138-312.5T947 234q119 0 212.5 48t153 134 92.5 200 38 252H689v262h755q-1 315-135.5 497.5T930 1810q-216 0-323.5-107.5T474 1386H159z"/><glyph unicode="Ю" horiz-adv-x="2890" d="M225 0v2048h309v-919h355q15 218 90 397t196 299 283.5 185.5T1809 2076q198 0 367.5-73t292.5-206.5 192.5-332.5 69.5-440-69.5-440T2469 251.5 2176.5 45 1809-28q-244 0-441 106.5t-321.5 311T894 870H534V0H225zm968 1024q0-183 46.5-330t129-242.5 195-146.5 245.5-51 245 51 195 146.5T2378.5 694t46.5 330-46.5 330-129.5 242.5-195 146.5-245 51-245.5-51-195-146.5-129-242.5-46.5-330z"/><glyph unicode="Я" horiz-adv-x="1902" d="m160 0 454 829q-186 69-281 218.5T238 1406q0 143 44.5 259.5t131 202.5 222 133 310.5 47h731V0h-310v775H928L511 0H160zm389 1406q0-365 427-365h391v742H979q-221 0-325.5-98T549 1406z"/><glyph unicode="а" horiz-adv-x="1603" d="M129 434q0 73 18 133.5t47.5 104T270 750t93.5 58 111 40.5 119 27T718 893q32 4 89 10 67 7 97 11t73 11 60 15 37 21 26 30 6 41v7q0 132-74.5 203.5T814 1314q-140 0-230-61t-127-153l-281 64q36 102 101.5 179T427 1465.5t180 68 203 22.5q81 0 156.5-12t158-48.5T1267 1402t99.5-155.5T1406 1020V0h-292v210h-12q-23-46-60.5-87t-92-77.5-132.5-58T648-34q-148 0-264 53T198.5 179.5 129 434zm293-4q0-108 80-166t211-58q179 0 286.5 102.5T1107 554v198q-9-9-27.5-17t-49.5-16-54-13-68-12-61-9.5-63-8.5l-47-6q-70-9-123-25t-98.5-43-69.5-70.5T422 430z"/><glyph unicode="б" horiz-adv-x="1683" d="M134 830v152q0 1051 750 1066 56 1 154 1 100-1 149 1t106 16 93 42l124-189q-47-43-103.5-69.5t-135-39-148-17T935 1786h-15l-13.5-.5-15.5-.5q-245-7-365.5-151T379 1193h19q74 140 206.5 212.5T907 1478q139 0 256.5-49t203.5-140 134.5-231 48.5-313q0-357-192-566.5T843-31q-328 0-518.5 223T134 830zm301-90q0-239 109.5-379.5T844 220q187 0 295.5 140.5T1248 740q0 232-108 360.5T841 1229q-188 0-295.5-128.5T435 740z"/><glyph unicode="в" horiz-adv-x="1594" d="M201 0v1536h637q260 0 412-110.5t152-299.5q0-131-83.5-211.5T1088 806q162-19 271-123.5T1468 414q0-186-142.5-300T935 0H201zm281 250h453q111 0 174 52.5t63 144.5q0 107-63 168.5T935 677H482V250zm0 646h359q126 0 198 53t72 145q0 88-72.5 138.5T838 1283H482V896z"/><glyph unicode="г" horiz-adv-x="1298" d="M201 0v1536h982v-258H496V0H201z"/><glyph unicode="д" horiz-adv-x="1800" d="M51 259h125q92 83 136.5 242.5T382 963l48 573h1044V259h236v-702h-292V0H347v-443H51v702zm445 0h686v1021H698l-32-317q-25-271-62-437.5T496 259z"/><glyph unicode="е" d="M132 758q0 175 51 323.5t143 253 225 163 291 58.5q107 0 204.5-26.5t185-86T1383 1296t101.5-219 37.5-293V678H430q6-219 123.5-340.5T866 216q129 0 221.5 56T1220 435l283-51q-52-190-222-302.5T863-31q-224 0-390 97.5t-253.5 276T132 758zm299 144h798q-1 178-107 292.5T844 1309q-176 0-290-118.5T431 902z"/><glyph unicode="ж" horiz-adv-x="2376" d="m103 0 595 786-588 750h348l475-638h107v638h299V898h104l475 638h348l-585-750L2273 0h-355l-479 640h-100V0h-299v640H940L458 0H103z"/><glyph unicode="з" horiz-adv-x="1422" d="M110 406h306q7-93 85-144.5T708 210q137 0 224 58t87 170q0 105-76 169t-203 64H490v235h250q123 0 188 56t65 147q0 95-68 152t-187 57q-122 0-203-54.5T450 1123H148q3 127 78 226t204.5 153 292.5 54q254 0 406-119.5t152-310.5q0-123-73-205t-199-118v-16q134-9 219.5-109.5T1314 427q0-138-78-243T1022 24 711-31Q452-31 284.5 88T110 406z"/><glyph unicode="и" horiz-adv-x="1694" d="M201 0v1536h293V419l677 1117h322V0h-293v1118L526 0H201z"/><glyph unicode="й" horiz-adv-x="1694" d="M201 0v1536h293V419l677 1117h322V0h-293v1118L526 0H201zm206 2056h245q0-83 47.5-136.5T847 1866q99 0 147.5 54t48.5 136h246q0-170-120-275t-322-105q-200 0-320 105t-120 275z"/><glyph unicode="к" horiz-adv-x="1558" d="M201 0v1536h299V892h144l507 644h370L926 789 1528 0h-371L694 614H500V0H201z"/><glyph unicode="л" horiz-adv-x="1674" d="M79 259h55q88 0 136 51.5T343 488t35 368l27 680h1072V0h-293v1278H682l-24-522q-9-196-38.5-333.5t-86-234T389 46 176 0H80z"/><glyph unicode="м" horiz-adv-x="2129" d="M201 0v1536h376l486-1166 496 1166h372V0h-291v1113L1174 0H952L494 1117V0H201z"/><glyph unicode="н" horiz-adv-x="1649" d="M201 0v1536h293V897h665v639h292V0h-292v638H494V0H201z"/><glyph unicode="о" horiz-adv-x="1696" d="M132 761q0 359 196 577t520 218 520-218 196-577q0-235-88-415T1225 67.5 848-31 471 67.5 220 346t-88 415zm302 1q0-113 25.5-209.5T535 381t130.5-118T849 220q102 0 182.5 43t130 118 75 171.5T1262 762q0 112-25.5 209t-75 172.5-130 119T849 1306q-103 0-183.5-43.5t-130.5-119T459.5 971 434 762z"/><glyph unicode="п" d="M201 0v1536h1253V0h-293v1278H492V0H201z"/><glyph unicode="р" horiz-adv-x="1738" d="M201-576v2112h292v-249h25q22 39 39 65.5t56.5 69T696 1490t112.5 46 150.5 20q139 0 257.5-54t204.5-154 134.5-250 48.5-333q0-366-179-580.5T962-30q-80 0-148.5 19.5t-113 46T617 103t-58.5 69.5T518 239h-18v-815H201zM494 768q0-247 106-395t295-148q130 0 223.5 72T1257 490.5t45 277.5q0 155-44.5 274T1120 1231.5 895 1302q-192 0-296.5-144T494 768z"/><glyph unicode="с" horiz-adv-x="1599" d="M132 761q0 233 87.5 413.5t250 281T845 1556q262 0 436-141.5t198-374.5h-291q-25 115-113.5 189.5T850 1304q-188 0-302-145T434 768q0-251 113-398.5T850 222q129 0 219.5 70T1188 486h291q-25-229-194.5-373T848-31Q629-31 465.5 70.5T217 351t-85 410z"/><glyph unicode="т" horiz-adv-x="1526" d="M115 1278v258h1296v-258H910V0H618v1278H115z"/><glyph unicode="у" horiz-adv-x="1595" d="M80 1536h320L789 344h16l389 1192h321L882-205Q746-576 390-576q-130 0-204 33l72 245q83-22 146-19.5T517.5-268 605-122l37 102z"/><glyph unicode="ф" horiz-adv-x="2022" d="M132 761q0 357 202 576t528 219v492h299v-492q215 0 380.5-98.5t257-279.5 91.5-417q0-234-91.5-414.5t-257-279T1161-31v-492H862v492q-215 0-381 98.5t-257.5 279T132 761zm303 0q0-111 27-207.5T540.5 382 675 264t187-43v1083q-104 0-187-43.5t-134.5-119T462 969t-27-208zm726-540q84 0 154.5 28t120 78 84 118 51 148 16.5 168-16.5 168-51 149-84 119-120 78.5T1161 1304V221z"/><glyph unicode="х" horiz-adv-x="1552" d="m103 0 478 768-472 768h328l339-598 342 598h327L966 768 1449 0h-327L776 574 431 0H103z"/><glyph unicode="ц" horiz-adv-x="1809" d="M200 0v1536h293V258h669v1278h291V245h227v-740h-296V0H200z"/><glyph unicode="ч" horiz-adv-x="1632" d="M201 1037v502h291v-502q0-158 86-233.5T822 728q159 0 320 43v765h292V0h-292v511q-161-41-320-41-293 0-457 143t-164 424z"/><glyph unicode="ш" horiz-adv-x="2339" d="M201 0v1536h293V259h531v1277h293V259h531v1277h293V0H201z"/><glyph unicode="щ" horiz-adv-x="2516" d="M201 0v1536h293V259h531v1277h293V259h531v1277h293V258h260l-28-698h-293V0H201z"/><glyph unicode="ъ" horiz-adv-x="1891" d="M83 1277v259h710v-528h378q277 0 431.5-137.5T1757 507q0-223-155.5-365T1171 0H500v1277H83zM793 258h378q129 0 212 67.5t83 172.5q0 111-83 181.5T1171 750H793V258z"/><glyph unicode="ы" horiz-adv-x="2176" d="M201 0v1536h293v-528h378q277 0 431.5-137.5T1458 507q0-223-155.5-365T872 0H201zm293 258h378q129 0 212 67.5t83 172.5q0 111-83 181.5T872 750H494V258zM1676 0v1536h299V0h-299z"/><glyph unicode="ь" horiz-adv-x="1592" d="M201 0v1536h293v-528h378q277 0 431.5-137.5T1458 507q0-223-155.5-365T872 0H201zm293 258h378q129 0 212 67.5t83 172.5q0 111-83 181.5T872 750H494V258z"/><glyph unicode="э" horiz-adv-x="1535" d="M132 542h282q0-123 93.5-215T729 234q66 0 123.5 24t99.5 64 74.5 94.5 51.5 115 27 125.5H586v230h518q-11 82-39.5 153.5t-74 129.5-113 92-148.5 35q-121-2-218-80.5T414 1028H132q0 141 82 263.5T434 1486t295 72q158 0 287.5-61.5t213-167 128.5-244 45-295.5v-50q0-158-45-296.5t-128.5-244T1017 33 729-28q-260 0-428.5 161.5T132 542z"/><glyph unicode="ю" horiz-adv-x="2305" d="M99 0v1536h299V886h341q34 306 223 488t480 182q213 0 374.5-99t249-279 87.5-416q0-234-87.5-414T1816 68.5 1442-31q-288 0-476.5 178.5T740 626H398V0H99zm925 762q0-112 25-208t75-170 131.5-116.5T1442 225q106 0 187.5 42.5t131 117 74.5 170 25 207.5q0 89-15.5 168.5t-48.5 148-81.5 118-118 77.5-154.5 28q-105 0-186.5-42.5T1124 1142t-75-171-25-209z"/><glyph unicode="я" horiz-adv-x="1596" d="m109 0 359 644q-138 52-213.5 160.5T179 1064q0 218 152.5 345T749 1536h649V0h-281v601H750L415 0H109zm363 1060q-1-99 67.5-158T729 843h388v438H749q-130 0-204-60.5T472 1060z"/><glyph unicode="ѐ" d="M132 758q0 175 51 323.5t143 253 225 163 291 58.5q107 0 204.5-26.5t185-86T1383 1296t101.5-219 37.5-293V678H430q6-219 123.5-340.5T866 216q129 0 221.5 56T1220 435l283-51q-52-190-222-302.5T863-31q-224 0-390 97.5t-253.5 276T132 758zm273 1444h315l233-461H714zm26-1300h798q-1 178-107 292.5T844 1309q-176 0-290-118.5T431 902z"/><glyph unicode="ё" d="M132 758q0 175 51 323.5t143 253 225 163 291 58.5q107 0 204.5-26.5t185-86T1383 1296t101.5-219 37.5-293V678H430q6-219 123.5-340.5T866 216q129 0 221.5 56T1220 435l283-51q-52-190-222-302.5T863-31q-224 0-390 97.5t-253.5 276T132 758zm228 1193q0 73 52.5 124t124.5 51q75 0 125.5-50.5T713 1951q0-71-51-122.5T537 1777q-71 0-124 52t-53 122zm71-1049h798q-1 178-107 292.5T844 1309q-176 0-290-118.5T431 902zm517 1049q0 73 52.5 124t124.5 51q75 0 125.5-50.5T1301 1951q0-71-51-122.5t-125-51.5q-71 0-124 52t-53 122z"/><glyph unicode="ђ" horiz-adv-x="1697" d="M-110 1682v207h311v159h295v-159h313v-207H496v-396h19q117 270 455 270 243 0 384.5-149T1496 977V-141q0-110-34-194.5T1367-472t-140-78-173-26q-114 0-164 13v241q50-8 86-8 221 0 221 189V941q0 168-87 262t-242 94q-164 0-266-102.5T500 912V0H201v1682h-311z"/><glyph unicode="ѓ" horiz-adv-x="1298" d="M201 0v1536h982v-258H496V0H201zm364 1741 234 461h315l-310-461H565z"/><glyph unicode="є" horiz-adv-x="1558" d="M61 768q0 229 86.5 408t248 279.5T769 1556q252 0 425-134.5t208-357.5l-288-22q-30 115-117 187.5T771 1302q-173 0-282-118T359 864h513V634H363q29-191 135.5-300T771 225q130 0 219.5 67T1111 476l290-22q-38-215-207.5-350T771-31Q556-31 394 70.5T146.5 353 61 768z"/><glyph unicode="ѕ" horiz-adv-x="1509" d="m133 394 289 44q27-113 111-170.5T752 210q144 0 233.5 60.5T1075 422q0 147-217 195l-260 57q-420 93-420 427 0 203 165.5 329T771 1556q241 0 387-104.5t194-290.5l-271-48q-30 89-104.5 147.5T774 1319t-213-57-84-145q-1-77 56-124t185-77l244-56q212-49 316-151.5T1382 444q0-209-175-342T754-31Q495-31 332.5 79.5T133 394z"/><glyph unicode="і" horiz-adv-x="701" d="M163 1951q0 74 55.5 126.5T352 2130q77 0 133-53t56-126-56-125.5-133-52.5q-78 0-133.5 52.5T163 1951zM201 0v1536h299V0H201z"/><glyph unicode="ї" horiz-adv-x="701" d="M-119 1951q0 73 52.5 124T58 2126q75 0 125.5-50.5T234 1951q0-71-51-122.5T58 1777q-71 0-124 52t-53 122zM201 0v1536h299V0H201zm268 1951q0 73 52.5 124t124.5 51q75 0 125.5-50.5T822 1951q0-71-51-122.5T646 1777q-71 0-124 52t-53 122z"/><glyph unicode="ј" horiz-adv-x="701" d="M-48-318H0q104 0 152.5 55.5T201-98v1634h299V-100q0-232-124.5-354T13-576q-40 0-61 1v257zm208 2269q0 74 55.5 126.5T349 2130q77 0 133-53t56-126-56-125.5-133-52.5q-78 0-133.5 52.5T160 1951z"/><glyph unicode="љ" horiz-adv-x="2627" d="M131 259h55q88 0 136 51.5T395 488t35 368l27 680h1072v-528h378q277 0 431.5-137.5T2493 507q0-223-155.5-365T1907 0h-671v1278H737l-27-522q-10-196-39.5-333.5t-86-234.5-144-142.5T228 0h-96zm1398-1h378q129 0 212 67.5t83 172.5q0 111-83 181.5T1907 750h-378V258z"/><glyph unicode="њ" horiz-adv-x="2550" d="M201 0v1536h293V948h665v588h293V976h378q281 0 433.5-123.5T2417 507q-1-146-68-259.5T2147.5 67 1830 0h-671v690H494V0H201zm1251 258h378q130 0 212.5 67t83.5 173q-1 108-81 164t-215 56h-378V258z"/><glyph unicode="ћ" horiz-adv-x="1695" d="M-110 1682v207h311v159h295v-159h313v-207H496v-396h19q117 270 455 270 243 0 384.5-149T1496 977V0h-299v941q0 168-87 262t-242 94q-164 0-266-102.5T500 912V0H201v1682h-311z"/><glyph unicode="ќ" horiz-adv-x="1558" d="M201 0v1536h299V892h144l507 644h370L926 789 1528 0h-371L694 614H500V0H201zm454 1741 234 461h315l-310-461H655z"/><glyph unicode="ѝ" horiz-adv-x="1694" d="M201 0v1536h293V419l677 1117h322V0h-293v1118L526 0H201zm220 2202h315l233-461H730z"/><glyph unicode="ў" horiz-adv-x="1595" d="M80 1536h320L789 344h16l389 1192h321L882-205Q746-576 390-576q-130 0-204 33l72 245q83-22 146-19.5T517.5-268 605-122l37 102zm277 520h245q0-83 47.5-136.5T797 1866q99 0 147.5 54t48.5 136h246q0-170-120-275t-322-105q-200 0-320 105t-120 275z"/><glyph unicode="џ" d="M200 0v1536h293V258h669v1278h291V0H973v-493H678V0H200z"/><glyph unicode="Ѡ" horiz-adv-x="2586" d="M225 581v1467h309V581q0-164 83.5-252.5T830 240q143 0 226 87t83 254v1467h308V581q0-167 79-254t213-87q138 0 225.5 88t87.5 253v1467h310V581q0-148-48-265t-133-191.5T1983.5 11 1739-28q-297 0-445 203-78-101-197-152T830-28q-178 0-312.5 67T304 245t-79 336z"/><glyph unicode="ѡ" horiz-adv-x="2324" d="M201 531v1005h293V531q0-143 71-222t176-79q124 0 202 78t78 223v1005h292V531q0-147 69.5-224t187.5-77q112 0 188 78.5t76 222.5v1005h292V531q0-180-73-308T1856.5 33.5 1570-28q-133 0-237 49.5T1165 168q-69-96-178-146T741-28Q623-28 525 7.5t-170.5 104-113 176T201 531z"/><glyph unicode="Ѣ" horiz-adv-x="1862" d="M-50 1516v207h277v325h310v-325h332v-207H537v-294h457q339 0 528-162t188-439q1-280-189.5-450.5T994 0H227v1516H-50zM537 260h457q96 0 175.5 30t130 81 78 116.5T1405 625q0 145-109.5 241T994 962H537V260z"/><glyph unicode="ѣ" horiz-adv-x="1686" d="M42 1500v232h253v547h293v-547h440v-232H588v-492h378q276 0 431-137.5T1553 507q-1-146-68-259.5T1283.5 67 966 0H295v1500H42zM588 258h378q130 0 212.5 67.5T1262 498q-1 111-83.5 181.5T966 750H588V258z"/><glyph unicode="Ѥ" horiz-adv-x="2729" d="M225 0v2048h309v-884h304q39 422 287.5 667t619.5 245q207 0 381.5-78t295-230.5T2585 1407l-305-18q-30 129-109.5 221.5T1982 1748t-237 45q-242 0-405.5-162.5T1143 1164h726V905h-728q28-314 193-482t411-168q128 0 236.5 44.5t187.5 136T2278 656l306-18q-64-310-292.5-488T1745-28q-185 0-344.5 64.5t-279 183T927 514t-91 391H534V0H225z"/><glyph unicode="ѥ" horiz-adv-x="2310" d="M161 0v1536h299V860h270q17 206 107.5 363t245 245 351.5 88q252 0 425.5-134.5T2068 1064l-289-22q-30 115-117 187.5t-225 72.5q-174 0-283.5-119T1024 860h562V627h-556q29-188 135-295t272-107q130 0 219 67t121 184l289-22q-38-215-207-350T1437-31q-291 0-478 179.5T735 627H460V0H161z"/><glyph unicode="Ѧ" horiz-adv-x="1882" d="m66 0 721 2048h319L1818 0h-347l-194 588h-191V0H782v588H610L414 0H66zm629 844h498l-247 751z"/><glyph unicode="ѧ" horiz-adv-x="1625" d="m66 0 593 1502h303L1560 0h-330l-150 386H948V0H677v386H543L395 0H66zm568 621h354L843 993l-33 134-33-134z"/><glyph unicode="Ѩ" horiz-adv-x="2664" d="M163 0v2048h310V844h560l424 1204h318L2488 0h-347l-194 588h-192V0h-304v588h-172L1083 0H735l208 591H473V0H163zm1201 844h499l-248 752z"/><glyph unicode="ѩ" horiz-adv-x="2230" d="M183 0v1536h299V621h420l353 915h303L2156 0h-325l-145 386h-163V0h-242v386h-153L985 0H662l149 387H482V0H183zm1032 621h382l-153 406-38 152-40-152z"/><glyph unicode="Ѫ" horiz-adv-x="2403" d="M155 0v491q0 326 177.5 475T863 1115h20l-553 933h1778l-553-933q164-2 288.5-35.5t217.5-106T2202 780t48-289V0h-337v491q-1 198-87.5 274.5T1541 842h-147l-15-25V0h-333v841l-1 1H863q-95 0-161-16t-116-54.5-73-108T490 491V0H155zm703 1774 361-643 360 643H858z"/><glyph unicode="ѫ" horiz-adv-x="2071" d="M172 0v231q0 153 38 266t112 184.5T499 790t239 45l-417 701h1448l-415-702q131-10 230-48t170.5-109.5 108-183T1899 231V0h-324v231q0 199-73.5 276T1262 584h-56l-2-4V0H881v584h-67q-83 0-139.5-16t-98-55.5T516 404t-19-173V0H172zm638 1300 237-453 237 453H810z"/><glyph unicode="Ѭ" horiz-adv-x="3362" d="M238 0v2048h309v-933h1149l-553 933h1778l-552-933q164-2 288.5-35.5t217.5-106T3016 780t48-289V0h-338v491q0 197-87 274t-285 77h-146l-15-25V0h-334v841l-1 1h-181q-95 0-161-16t-116-55-73.5-108-23.5-172V0H969v491q0 223 84 363H547V0H238zm1434 1774 360-642 360 642h-720z"/><glyph unicode="ѭ" horiz-adv-x="2846" d="M185 0v1536h299V837h961l-415 699h1448l-415-702q267-19 406-163.5T2608 231V0h-324v231q0 199-73.5 276T1970 584h-55l-2-4V0h-323v584h-68q-83 0-139-16t-97.5-55.5T1225 404t-19-173V0H881v231q0 221 79 358H484V0H185zm1333 1300 237-454 238 454h-475z"/><glyph unicode="Ѯ" horiz-adv-x="1550" d="M162-137q0 183 127 277t353 94h68q169 0 264.5 91.5T1070 576q0 166-108 251.5T649 913H450v263h202q190 0 282.5 85t92.5 228q0 142-89.5 219.5T667 1786H268v262h399q313 0 498.5-140t185.5-384q0-165-87.5-288T1016 1048q184-58 281-181.5t97-308.5q0-271-186.5-428.5T718-28h-73q-93 0-138-39t-45-107q0-46 20-86t55-69 67-47.5 72-36.5L562-616q-82 27-152 69T283.5-446.5t-89 138T162-137zm214 2749v15h246l232-224 234 224h244v-15l-390-380H765z"/><glyph unicode="ѯ" horiz-adv-x="1373" d="M32-143q0 176 119.5 269T498 219h68q150 0 232.5 57.5T881 442q-2 224-365 224H310v231h210q150 0 234 55.5t84 153.5q-1 183-312 183H128v247h398q293 0 465-108t171-294q0-114-66-202T908 791q297-87 298-349 0-206-168-338T588-28h-69q-94 0-143.5-36.5T326-172q0-146 206-241L419-608q-178 70-281.5 194.5T32-143zm130 2245v15h245l232-224 235 224h244v-15l-390-380H550z"/><glyph unicode="Ѱ" horiz-adv-x="2238" d="M225 1310v738h305v-738q0-229 117-365t323-165v1268h306V780q200 27 315 160.5t115 369.5v738h307v-738q0-176-54-319.5t-152-242-233-158-298-74.5V0H970v515q-165 14-301.5 73.5T433 747 279.5 990 225 1310z"/><glyph unicode="ѱ" horiz-adv-x="2157" d="M201 817v719h293V815q0-136 35.5-241.5t100.5-173 147.5-107T963 239v1297h292V244q122 21 215 75t149 129.5 84 163.5 28 184q-4 173-49 371.5T1566 1536h292q70-134 117.5-333t47.5-407q0-124-24.5-233.5t-82-210.5T1772 175 1553 47t-298-68v-635H963v634Q599 11 400 218.5T201 817z"/><glyph unicode="Ѳ" horiz-adv-x="2163" d="M159 1024q0 241 69.5 440T421 1796.5 713.5 2003t368.5 73q198 0 367.5-73t292.5-206.5 192.5-332.5 69.5-440-69.5-440T1742 251.5 1449.5 45 1082-28q-199 0-368.5 73T421 252 228.5 584.5 159 1024zm312-120q29-309 195.5-479.5T1082 254q248 0 415 170.5T1693 904H471zm0 240h1222q-29 309-196 479.5T1082 1794q-249 0-415.5-170.5T471 1144z"/><glyph unicode="ѳ" horiz-adv-x="1696" d="M132 761q0 359 196 577t520 218 520-218 196-577q0-235-88-415T1225 67.5 848-31 471 67.5 220 346t-88 415zm308-103q11-94 41.5-172.5t80-138.5 123-93.5T849 220q177 0 281 121t126 317H440zm1 220h814q-25 191-128.5 309.5T849 1306q-176 0-279.5-118.5T441 878z"/><glyph unicode="Ѵ" horiz-adv-x="2030" d="M70 2048h334L974 380h23l433 1259q75 227 175 332t272 105h81v-279h-37q-38 0-65-11t-47.5-40-33-57-33.5-85L1164 0H807z"/><glyph unicode="ѵ" horiz-adv-x="1714" d="M80 1536h321L790 354h16l278 837q58 190 161.5 277.5T1479 1556q87 0 155-25l-32-256q-45 15-84 15-51 0-84-37t-62-117L958 0H638z"/><glyph unicode="Ѷ" horiz-adv-x="2030" d="M70 2048h334L974 380h23l433 1259q75 227 175 332t272 105h81v-279h-37q-38 0-65-11t-47.5-40-33-57-33.5-85L1164 0H807zm285 666h330l233-461H679zm538 0h329l140-461h-235z"/><glyph unicode="ѷ" horiz-adv-x="1714" d="M80 1536h321L790 354h16l278 837q58 190 161.5 277.5T1479 1556q87 0 155-25l-32-256q-45 15-84 15-51 0-84-37t-62-117L958 0H638zm117 666h330l233-461H521zm538 0h329l140-461H969z"/><glyph unicode="Ѹ" horiz-adv-x="3758" d="M159 1024q0 241 69.5 440T421 1796.5 713.5 2003t368.5 73q198 0 367.5-73t292.5-206.5 192.5-332.5 69.5-440-69.5-440T1742 251.5 1449.5 45 1082-28q-199 0-368.5 73T421 252 228.5 584.5 159 1024zm307 0q0-183 46.5-330t129-242.5 195-146.5 245.5-51 245 51 195 146.5T1651.5 694t46.5 330-46.5 330-129.5 242.5-195 146.5-245 51-245.5-51-195-146.5-129-242.5-46.5-330zm1777 512h320l389-1192h16l389 1192h321L3045-205q-136-371-492-371-130 0-204 33l72 245q83-22 146-19.5t113.5 49.5 87.5 146l37 102z"/><glyph unicode="ѹ" horiz-adv-x="3237" d="M132 761q0 359 196 577t520 218 520-218 196-577q0-235-88-415T1225 67.5 848-31 471 67.5 220 346t-88 415zm302 1q0-113 25.5-209.5T535 381t130.5-118T849 220q102 0 182.5 43t130 118 75 171.5T1262 762q0 112-25.5 209t-75 172.5-130 119T849 1306q-103 0-183.5-43.5t-130.5-119T459.5 971 434 762zm1288 774h320l389-1192h16l389 1192h321L2524-205q-136-371-492-371-130 0-204 33l72 245q83-22 146-19.5t113.5 49.5 87.5 146l37 102z"/><glyph unicode="Ѻ" horiz-adv-x="2142" d="M159 1023q0 222 58.5 409T381 1751t250 214 319 104v218h244v-218q173-22 318-104t249.5-214 163-319 58.5-409-58.5-409-163-318.5T1512 82 1194-21v-217H950v217Q776 0 631 82T381 296 217.5 614.5 159 1023zm305 0q0-325 133-519.5T950 266v219h244V267q220 42 352 236.5t132 519.5-132.5 520-351.5 238v-216H950v216q-220-43-353-238t-133-520z"/><glyph unicode="ѻ" horiz-adv-x="1759" d="M122 762q1 312 151 521t408 259v116h260v-109q276-37 439-249t163-538q0-323-163-535.5T941-24v-139H681v146Q424 33 273.5 242.5T122 762zm293 0q0-186 67-322.5T681 252v145h260V238q104 26 175 103t103 183.5 31 237.5q1 131-31 238t-103 185-175 104v-183H681v169q-132-52-199-189.5T415 762z"/><glyph unicode="Ѽ" horiz-adv-x="2662" d="M247 618v740q0 157 46 280.5t128.5 203 193.5 121 243 41.5v-272q-125 0-199-94t-74-280V618q0-187 74-282.5T858 240q145 0 228 87t83 254v542h327V581q0-167 82.5-254t226.5-87q126 0 201 95.5t75 282.5v740q0 186-75 280t-201 94v272q133 0 244-41.5t193-121 127.5-203T2415 1358V618q0-158-45.5-282T2242 133 2049 13t-244-41q-153 0-275 56t-198 166q-76-109-198.5-165.5T858-28q-132 0-243 41T421.5 133 293 336t-46 282zm658 1591v49q0 152 85.5 226t242.5 74q72 0 156-26t152-56.5 167-56.5 197-26h45l-32-184h-48q-86 0-184 26t-169.5 56.5T1367 2348t-129 26q-67 0-106-34.5t-39-105.5v-25H905zm259-335q97 121 97 208v132h234v-140q0-75-69-155t-148-121z"/><glyph unicode="ѽ" horiz-adv-x="2141" d="M127 564v351q0 284 151.5 438T676 1507v-257q-106 0-176-86.5T430 915V564q0-164 65.5-249T661 230q115 0 184 77.5T914 531v283h316V531q1-147 68.5-224t181.5-77q101 0 168 85t67 249v351q0 162-71 248.5t-178 86.5v257q119 0 219-38t174.5-110.5 116-186T2017 915V564q0-144-40.5-258t-113-186.5-170-110T1480-28q-131 0-236 51t-172 150q-66-99-172-150T661-28q-239 0-386.5 153T127 564zm547 1164v51q1 150 86 223.5t242 73.5q72 0 155.5-25.5t151-56.5 167-56.5T1674 1912h56v-184h-60q-89 0-175 17t-152 41-124.5 48-114 41-98.5 17q-66 0-105-34t-39-106v-24H674zm265-341q93 116 93 208v132h236v-140q0-74-68.5-155T1053 1311z"/><glyph unicode="Ѿ" horiz-adv-x="2585" d="M225 581v1455h309V581q0-164 83.5-252.5T830 240q143 0 226 87t83 254v1455h308V581q0-167 79-254t213-87q138 0 227 88.5t89 252.5v1455h305V581q0-148-47.5-265t-132-191.5-197-113.5T1739-28q-144 0-259 51.5T1292 175q-78-100-197-151.5T830-28q-178 0-312.5 67T304 245t-79 336zm488 1771v167h1174l4-167h-477v-176h-250v176H713z"/><glyph unicode="ѿ" horiz-adv-x="2216" d="M134 531v957h324V531q0-147 57-224t159-77q122 0 192.5 77T938 531v957h324V531q-1-148 62-224.5t178-76.5q109 0 170.5 76.5T1734 531v957h325V531q0-180-73-308T1789 33.5 1502-28q-132 0-236 50t-169 147q-69-97-178-147T674-28Q556-28 457.5 7.5t-171 104-112.5 176T134 531zm428 1306v167h1144l4-167h-462v-172H994v172H562z"/><glyph unicode="Ҁ" horiz-adv-x="1813" d="M142 811v425q0 252 95.5 442T512 1972t419 104q218 0 386-82.5t261.5-237.5 93.5-361h-334q0 192-111.5 301T928 1805q-219 0-336-150.5T475 1237V811q0-256 121.5-413.5T918 240h207v-756H791v497Q498 25 320 251T142 811z"/><glyph unicode="ҁ" horiz-adv-x="1553" d="M143 719v54q0 223 76.5 398.5t230.5 280T814 1556q266 0 433-163.5T1414 960h-306q0 151-83.5 244.5T805 1298q-89 0-156-43t-106-118-58-166.5T466 773v-54q0-74 11-142.5T514 444t65-110.5 99.5-75T814 230h191v-748H680v502Q510 15 387 122T203.5 382.5 143 719z"/><glyph unicode="҂" horiz-adv-x="1814" d="m172 784 97 176 408-236 279 496-402 232 103 180 404-236 254 448h239l-316-556 408-236-104-172-400 232-288-496 404-236-100-176-404 236L503 0H261l311 548z"/><glyph unicode="҃" horiz-adv-x="0" d="m-1313 1632 1 328h759l-1 148h244v-304h-756v-172h-247z"/><glyph unicode="҄" horiz-adv-x="0" d="M-1292 1792v184h50q82 0 162 17t143.5 41 123.5 48 124 41 124 17q158 0 244.5-74t86.5-222v-52h-189v24q0 70-39.5 105t-106.5 35q-52 0-127.5-25.5T-842 1874t-178.5-56.5-217.5-25.5h-54z"/><glyph unicode="҅" horiz-adv-x="0" d="M-920 2064v179h263l-4-203 84-156-113-93z"/><glyph unicode="҆" horiz-adv-x="0" d="m-856 1884 81 156-3 203h265v-179l-229-273z"/><glyph unicode="҇" horiz-adv-x="0" d="M-1388 1792v52q0 136 104 216t284 80q80 0 151-17t120-41 91.5-48 85-41 81.5-17h223v-184h-243q-52 0-101 17t-91 41-87 48-109 41-138 17q-72 0-126.5-35.5T-1198 1816v-24h-190z"/><glyph unicode="҈" horiz-adv-x="0" d="M-2131 672q0 113 79.5 184.5T-1840 928q134 0 214-71.5t80-184.5h-156q0 59-33.5 97.5T-1840 808q-68 0-101-39t-33-97h-157zm230-716q0 113 80 186.5t211 73.5q133 0 214-73t81-187h-158q0 60-33 100t-104 40q-67 0-100-41t-33-99h-158zm13 1404q0 115 80 187.5t214 72.5 214.5-72.5 80.5-187.5h-158q0 62-33 101t-104 39q-68 0-100.5-39t-32.5-101h-161zm795 384q0 113 80.5 184.5T-798 2000q132 0 211.5-71.5T-507 1744h-154q0 58-34.5 97t-102.5 39q-70 0-103.5-39t-33.5-97h-158zm8-2180q0 115 79.5 187.5T-794-176q135 0 215-72t80-188h-157q0 60-33.5 100T-794-296q-67 0-100-40.5t-33-99.5h-158zm800 392q0 113 80.5 186.5T10 216q132 0 211.5-72.5T301-44H147q0 59-34.5 99.5T10 96-92.5 55.5-127-44h-158zm15 1404q0 116 79 188t213 72 214.5-72.5T317 1360H159q0 62-33 101t-104 39q-68 0-100.5-39t-32.5-101h-159zm260-688q0 113 79.5 184.5T281 928q134 0 214-71.5T575 672H418q0 60-33 98t-104 38q-67 0-100.5-38.5T147 672H-10z"/><glyph unicode="҉" horiz-adv-x="0" d="M-2078 748v136l481-96V596l-20-16zm271-860 408 276 134-136-1-20-444-212zm121 1748 89 92 275-412-137-132h-24zm748-2204 96 484h191l16-20-171-464h-132zm0 2136 169 464h134l-98-484h-189zm625-188 1 20 449 212 93-96-408-272zm57-1296 134 136h24l207-448-91-100zM20 676v192l20 16 461-168V580z"/><glyph unicode="Ҋ" horiz-adv-x="2103" d="M225 0v2048h306V544h19l1042 1504h286V0h-309v1502h-19L510 0H225zm387 2568h245q0-83 47.5-136.5T1052 2378q99 0 147.5 54t48.5 136h246q0-170-120-275t-322-105q-200 0-320 105t-120 275zM1751-487q35 80 49.5 114t37.5 100 32 122 9 117v216h270V-23q-3-292-189-524z"/><glyph unicode="ҋ" horiz-adv-x="1893" d="M201 0v1536h293V419l677 1117h322V182h270V-23q-3-292-189-524l-209 60q35 80 49.5 114t37.5 100 32 122 9 117V0h-293v1118L526 0H201zm206 2056h245q0-83 47.5-136.5T847 1866q99 0 147.5 54t48.5 136h246q0-170-120-275t-322-105q-200 0-320 105t-120 275z"/><glyph unicode="Ҍ" horiz-adv-x="1862" d="M-50 1516v207h277v325h310v-325h332v-207H537v-294h457q339 0 528-162t188-439q1-280-189.5-450.5T994 0H227v1516H-50zM537 260h457q96 0 175.5 30t130 81 78 116.5T1405 625q0 145-109.5 241T994 962H537V260z"/><glyph unicode="ҍ" horiz-adv-x="1686" d="M42 1772v232h253v275h293v-275h440v-232H588v-764h378q276 0 431-137.5T1553 507q-1-146-68-259.5T1283.5 67 966 0H295v1772H42zM588 258h378q130 0 212.5 67.5T1262 498q-1 111-83.5 181.5T966 750H588V258z"/><glyph unicode="Ҏ" horiz-adv-x="1813" d="M228 0v2048h730q174 0 310.5-50.5t223-140 131-209.5 44.5-263q0-171-63.5-309.5T1417 849l135-208-183-119-151 232q-119-34-261-34H537V0H228zm309 982h392q75 0 133 13l-140 215 184 116 150-230q100 104 100 289 0 184-105.5 291T925 1783H537V982z"/><glyph unicode="ҏ" horiz-adv-x="1718" d="M204-576v2112h292v-249h25q22 39 39 65.5t56.5 69T699 1490t112.5 46 150.5 20q139 0 257.5-54t204.5-154 134.5-250 48.5-333q0-378-193-597l135-154-156-141-144 165q-127-68-284-68-80 0-148.5 19.5t-113 46T620 103t-58.5 69.5T521 239h-18v-815H204zM497 768q0-247 106-395t295-148q89 0 158 33L902 434l155 141 156-178q92 145 92 371 0 155-44.5 274T1123 1231.5 898 1302q-192 0-296.5-144T497 768z"/><glyph unicode="Ґ" horiz-adv-x="1628" d="M225 0v2048h977v470h302v-736H534V0H225z"/><glyph unicode="ґ" horiz-adv-x="1318" d="M201 0v1536h714v382h287v-640H496V0H201z"/><glyph unicode="Ғ" horiz-adv-x="1626" d="M-81 960v207h306v881h1277v-266H534v-615h304V960H534V0H225v960H-81z"/><glyph unicode="ғ" horiz-adv-x="1298" d="M-109 684v207h310v645h982v-258H496V891h314V684H496V0H201v684h-310z"/><glyph unicode="Ҕ" horiz-adv-x="1812" d="M225 0v2048h1277v-266H534v-639h308q399 0 618-199t219-595q0-166-42.5-306T1510-203.5 1291-370t-309-60l-3 250q87 0 156 29t114 78 75 116.5 42.5 141T1379 341q0 543-537 543H534V0H225z"/><glyph unicode="ҕ" horiz-adv-x="1557" d="M201 0v1536h982v-258H496V901h157q214 0 380.5-80t260-231 93.5-351q2-224-144-398.5T858-392l-96 229q147 47 239.5 156t93.5 246q1 183-122.5 294T653 644H496V0H201z"/><glyph unicode="Җ" horiz-adv-x="2800" d="m78 0 656 1072-610 976h378l508-886h237v886h306v-886h244l504 886h377l-608-978 503-825h256v-740h-296V0h-172l-515 874h-293V0h-306v874H957L435 0H78z"/><glyph unicode="җ" horiz-adv-x="2376" d="m103 0 595 786-588 750h348l475-638h107v638h299V898h104l475 638h348l-585-750 414-550v9h296v-740h-296V0h-177l-479 640h-100V0h-299v640H940L458 0H103z"/><glyph unicode="Ҙ" horiz-adv-x="1814" d="M187 534h314q9-134 123.5-215T908 238q182 0 298 93t116 241q0 157-119.5 253.5T874 922H701v252h173q171 0 278.5 90t106.5 238q1 142-94 229t-251 87-268-82.5T529 1516H230q5 163 98 291.5T576 2006t342 70q144 0 265.5-45t203-121 126.5-177.5 45-214.5q1-171-94.5-291T1206 1065v-16q203-31 316-161t112-326q1-234-175-397T1005-24l-10-50q95-15 156-74t61-165q1-139-118.5-221T756-616l-6 167q108 0 170.5 31.5T984-322q1 65-47 93t-163 39l35 167Q537 3 366.5 154.5T187 534z"/><glyph unicode="ҙ" horiz-adv-x="1422" d="M110 406h306q7-93 85-144.5T708 210q137 0 224 58t87 170q0 105-76 169t-203 64H490v235h250q123 0 188 56t65 147q0 95-68 152t-187 57q-122 0-203-54.5T450 1123H148q3 127 78 226t204.5 153 292.5 54q254 0 406-119.5t152-310.5q0-123-73-205t-199-118v-16q134-9 219.5-109.5T1314 427q0-190-141-311.5T801-27l-9-47q95-15 156-74t61-165q1-139-118.5-221T553-616l-6 167q108 0 170.5 31.5T781-322q1 65-47 93t-163 39l34 165Q387-1 251.5 114T110 406z"/><glyph unicode="Қ" horiz-adv-x="1986" d="M225 0v2048h309v-865h101l774 865h377l-819-917 662-881h242v-740h-296V0h-135L752 918H534V0H225z"/><glyph unicode="қ" horiz-adv-x="1738" d="M201 0v1536h299V892h144l507 644h370L926 789l415-544h284v-740h-296V0h-172L694 614H500V0H201z"/><glyph unicode="Ҝ" horiz-adv-x="1902" d="M225 0v2048h308v-894h153v347h226v-347h79l447 894h362l-538-1005L1842 0h-357l-472 862H912V542H686v320H533V0H225z"/><glyph unicode="ҝ" horiz-adv-x="1686" d="M201 0v1536h299V892h136v269h218V892h54l397 644h344l-475-747L1656 0h-346L952 614h-98V345H636v269H500V0H201z"/><glyph unicode="Ҡ" horiz-adv-x="2197" d="M31 1789v259h800v-865h101l774 865h377l-819-917L2114 0h-377l-688 918H831V0H522v1789H31z"/><glyph unicode="ҡ" horiz-adv-x="2026" d="M115 1277v259h854V892h144l507 644h370l-595-747L1997 0h-371l-463 614H969V0H670v1277H115z"/><glyph unicode="Ң" horiz-adv-x="2242" d="M225 0v2048h309v-890h1021v890h310V245h276v-740h-296V0h-290v893H534V0H225z"/><glyph unicode="ң" horiz-adv-x="1856" d="M201 0v1536h293V897h665v639h292V245h292v-740h-296V0h-288v638H494V0H201z"/><glyph unicode="Ҥ" horiz-adv-x="2795" d="M225 0v2048h309v-890h1021v890h1116v-266h-806V0h-310v893H534V0H225z"/><glyph unicode="ҥ" horiz-adv-x="2027" d="M201 0v1536h293V897h665v639h836v-258h-544V0h-292v638H494V0H201z"/><glyph unicode="Ҧ" horiz-adv-x="3107" d="M174 0v2048h1580v-906h282q399 0 618-199t219-595q0-166-42.5-306T2704-204.5 2485-371t-309-60l-3 250q87 0 156 29t114 78 75 116.5 42.5 141T2573 340q0 543-537 543h-282V0h-308v1784H482V0H174z"/><glyph unicode="ҧ" horiz-adv-x="2600" d="M201 0v1536h1253V906h248q224 0 395.5-76.5t270-227.5 98.5-358q0-66-17.5-138T2390-44t-100.5-144.5-151-121T1937-389l-107 232q169 54 256.5 156t88.5 245q0 123-64 216t-170.5 140-238.5 47h-248V0h-293v1278H492V0H201z"/><glyph unicode="Ҩ" horiz-adv-x="2330" d="M208 920v300q0 181 49 339t135.5 273T605 2013t274 66v-281q-101 0-182.5-75t-128-207-46.5-293V920q0-189 74.5-342T806 337.5t306-87.5q64 0 130 11-154 135-236.5 319.5T923 984v336q0 213 72 385t206.5 271.5T1508 2076q176 0 312.5-100t211-278.5T2106 1292V952q0-202-68.5-379T1842 264q134-28 280-28V-32q-307 0-558 99-206-95-452-95-265 0-472.5 125.5T320 438.5 208 920zm1013 61q0-190 81.5-342.5T1537 387q125 95 193.5 242t68.5 323v361q0 217-82 351t-206 134q-122 0-206-134.5t-84-339.5V981z"/><glyph unicode="ҩ" horiz-adv-x="1886" d="M170 766v135q0 185 65.5 333.5t186 233.5 275.5 85v-261q-94-5-160.5-116.5T470 901V766q0-226 121.5-383T894 226q39 0 75 6-110 105-167 242t-57 295v205q0 256 124.5 419t330.5 163q139 0 245-82.5t162-224 56-317.5V729q0-298-180-505 112-26 238-26V-24q-259 0-461 77-165-81-366-81-160 0-296 61T368.5 200.5 222.5 453 170 766zm828-7q0-124 54.5-230.5T1208 347q77 71 120 172.5t43 217.5v207q0 154-52 252t-134 98q-83 0-135-91.5T998 966V759z"/><glyph unicode="Ҫ" horiz-adv-x="2071" d="M159 1024q0 241 69.5 440t192 332.5 292 206.5 367.5 73q330 0 562-185.5t284-508.5h-312q-37 194-183.5 303T1083 1794q-133 0-245.5-51T642 1596t-129.5-243-46.5-329q0-184 47-331t129.5-242.5 195-146T1082 254q200 0 346.5 107T1614 660l312-1q-48-286-252.5-472T1167-24l-12-61q95-15 156-74t61-165q1-139-118.5-221T916-627l-6 167q108 0 170.5 31.5T1144-333q1 65-47 93t-163 39l37 179Q793-3 644 78T387 291 219 611.5 159 1024z"/><glyph unicode="ҫ" horiz-adv-x="1599" d="M132 761q0 233 87.5 413.5t250 281T845 1556q262 0 436-141.5t198-374.5h-291q-25 115-113.5 189.5T850 1304q-188 0-302-145T434 768q0-251 113-398.5T850 222q129 0 219.5 70T1188 486h291q-23-211-169.5-351T929-27l-9-47q95-15 156-74t61-165q1-139-118.5-221T681-616l-6 167q108 0 170.5 31.5T909-322q1 65-47 93t-163 39l35 167Q453 15 292.5 228T132 761z"/><glyph unicode="Ҭ" horiz-adv-x="1833" d="M124 1782v266h1585v-266h-639V245h288v-740h-296V0H762v1782H124z"/><glyph unicode="ҭ" horiz-adv-x="1526" d="M115 1278v258h1296v-258H910V239h293v-740H907V0H618v1278H115z"/><glyph unicode="Ү" horiz-adv-x="1928" d="M67 2048h351l535-931h22l535 931h351L1118 804V0H810v804z"/><glyph unicode="ү" horiz-adv-x="1516" d="M80 1536h314L763 403l359 1133h314L906 26v-602H614V26z"/><glyph unicode="Ұ" horiz-adv-x="1928" d="M67 2048h351l535-931h22l535 931h351L1182 911h241V704h-305V0H810v704H504v207h242z"/><glyph unicode="ұ" horiz-adv-x="1516" d="M80 1536h314L763 403l359 1133h314L971 211h247V4H906v-580H614V4H299v207h250z"/><glyph unicode="Ҳ" horiz-adv-x="1876" d="m78 0 653 1024L82 2048h358l490-801h16l490 801h358l-638-1024 488-779h248v-740h-296V0h-158L946 790h-16L438 0H78z"/><glyph unicode="ҳ" horiz-adv-x="1552" d="m103 0 478 768-472 768h328l339-598 342 598h327L966 768l329-523h257v-740h-296V0h-134L776 574 431 0H103z"/><glyph unicode="Ҵ" horiz-adv-x="2569" d="M124 1789v259h1328v-259H934V268h988v1780h297V273h236l-27-757h-308V0H638v1789H124z"/><glyph unicode="ҵ" horiz-adv-x="2038" d="M128 1277v259h985v-259H765V258h669v1278h291V258h200l-27-698h-294V0H472v1277H128z"/><glyph unicode="Ҷ" horiz-adv-x="2059" d="M266 1372v676h305v-676q0-203 104.5-287.5T990 1000q268 0 514 66v982h306V245h294v-740h-296V0h-304v802q-234-67-514-67-172 0-303 35.5t-226.5 111-145 198.5-49.5 292z"/><glyph unicode="ҷ" horiz-adv-x="1841" d="M201 1037v502h291v-502q0-158 86-233.5T822 728q159 0 320 43v765h292V239h294v-740h-296V0h-290v511q-161-41-320-41-293 0-457 143t-164 424z"/><glyph unicode="Ҹ" horiz-adv-x="2075" d="M266 1372v676h305v-676q0-178 80-264t240-103v412h226v-413q207 14 387 62v982h306V0h-306v802q-184-52-387-63V420H891v318q-626 42-625 634z"/><glyph unicode="ҹ" horiz-adv-x="1632" d="M201 1037v502h291v-502q0-245 210-296v369h227V733q106 9 213 38v765h292V0h-292v511q-109-28-213-36V289H702v188q-238 28-369.5 168.5T201 1037z"/><glyph unicode="Һ" horiz-adv-x="2059" d="M249 0v2048h306v-802q234 67 514 67 172 0 303-35.5t226.5-111 145-198.5 49.5-292V0h-305v676q0 203-104.5 287.5T1069 1048q-268 0-514-66V0H249z"/><glyph unicode="һ" horiz-adv-x="1695" d="M201 0v2048h295v-762h19q117 270 455 270 243 0 384.5-149T1496 977V0h-299v941q0 168-87 262t-242 94q-164 0-266-102.5T500 912V0H201z"/><glyph unicode="Ҽ" horiz-adv-x="2329" d="M167 1493h246q0-118 52-197.5T613 1186q0 203 56 369t157 281 247.5 177.5T1398 2076q359 0 563-259t204-713V924H918v-92q0-274 154.5-428T1504 250q109 0 238 26.5t241 73.5l66-259q-88-56-238-89.5T1499-32q-413 0-649.5 230.5T613 832v109q-211 32-328.5 177T167 1493zm751-319h941v48q0 267-122.5 419.5T1398 1794q-222 0-351-164.5T918 1182v-8z"/><glyph unicode="ҽ" horiz-adv-x="2090" d="M69 1194h246q0-138 62-212.5T574 902q39 297 227.5 475.5T1275 1556q107 0 204.5-26.5t185-86T1816 1296t101.5-219 37.5-293V678H863q6-219 123.5-340.5T1299 216q129 0 221.5 56T1653 435l283-51q-52-190-222-302.5T1296-31q-318 0-512 191.5T568 678q-244 7-371.5 142T69 1194zm795-292h798q-1 178-107 292.5T1277 1309q-176 0-290-118.5T864 902z"/><glyph unicode="Ҿ" horiz-adv-x="2329" d="M167 1493h246q0-118 52-197.5T613 1186q0 203 56 369t157 281 247.5 177.5T1398 2076q359 0 563-259t204-713V924H918v-92q0-274 154.5-428T1504 250q109 0 238 26.5t241 73.5l66-259q-74-48-195-79.5T1595-29v-581h-296v594Q975 37 794 259.5T613 832v109q-211 32-328.5 177T167 1493zm751-319h941v48q0 267-122.5 419.5T1398 1794q-222 0-351-164.5T918 1182v-8z"/><glyph unicode="ҿ" horiz-adv-x="2090" d="M69 1194h246q0-138 62-212.5T574 902q39 297 227.5 475.5T1275 1556q107 0 204.5-26.5t185-86T1816 1296t101.5-219 37.5-293V678H863q6-219 123.5-340.5T1299 216q129 0 221.5 56T1653 435l283-51q-49-178-202.5-289T1354-29l-9-45q95-15 156-74t61-165q1-139-118.5-221T1106-616l-6 167q108 0 170.5 31.5T1334-322q1 65-47 93t-163 39l35 169Q899 19 743.5 204.5T568 678q-244 7-371.5 142T69 1194zm795-292h798q-1 178-107 292.5T1277 1309q-176 0-290-118.5T864 902z"/><glyph unicode="Ӏ" horiz-adv-x="759" d="M225 0v2048h309V0H225z"/><glyph unicode="Ӂ" horiz-adv-x="2800" d="m78 0 656 1072-610 976h378l508-886h237v886h306v-886h244l504 886h377l-608-978L2722 0h-361l-515 874h-293V0h-306v874H957L435 0H78zm882 2568h245q0-83 47.5-136.5T1400 2378q99 0 147.5 54t48.5 136h246q0-170-120-275t-322-105q-200 0-320 105t-120 275z"/><glyph unicode="ӂ" horiz-adv-x="2376" d="m103 0 595 786-588 750h348l475-638h107v638h299V898h104l475 638h348l-585-750L2273 0h-355l-479 640h-100V0h-299v640H940L458 0H103zm645 2056h245q0-83 47.5-136.5T1188 1866q99 0 147.5 54t48.5 136h246q0-170-120-275t-322-105q-200 0-320 105t-120 275z"/><glyph unicode="Ӄ" horiz-adv-x="1926" d="M225 0v2048h305v-878h205l664 878h379l-719-913q331-36 517-244.5T1762 344q1-363-187.5-571T1057-435l-3 257q187 0 294.5 137.5T1457 337q1 259-141.5 407.5T925 893H530V0H225z"/><glyph unicode="ӄ" horiz-adv-x="1680" d="M201 0v1536h299V892h144l507 644h370L977 845q260-48 413.5-211T1544 236q0-218-146-388.5T1018-377l-99 226q149 40 242.5 147.5T1255 235q1 168-130.5 273.5T782 614H500V0H201z"/><glyph unicode="Ӆ" horiz-adv-x="2024" d="M70 0v268l60 2q74 2 127.5 31t91.5 87 62 157 37.5 228 20.5 313l35 962h1295V182h266V-23q-3-292-189-524l-209 60q35 80 49.5 114t37.5 100 32 122 9 117V0h-301v1786H795l-32-782q-7-173-22-303.5T697.5 452 625 254 516.5 115 363 28 158 0H70z"/><glyph unicode="ӆ" horiz-adv-x="1877" d="M79 259h55q88 0 136 51.5T343 488t35 368l27 680h1072V182h270V-23q-3-292-189-524l-209 60q35 80 49.5 114t37.5 100 32 122 9 117V0h-293v1278H682l-24-522q-9-196-38.5-333.5t-86-234T389 46 176 0H80z"/><glyph unicode="Ӈ" horiz-adv-x="2090" d="M225 0v2048h309v-890h1021v890h310V-142q0-92-29-171t-86.5-141-153-97-219.5-35q-107 0-143 12v251q46-8 91-8 230 0 230 200V893H534V0H225z"/><glyph unicode="ӈ" horiz-adv-x="1649" d="M201 0v1536h293V897h665v639h292V-103q0-241-126.5-369T972-600q-96 0-174 20l20 254q48-16 139-16 85 0 143.5 64.5T1159-103v741H494V0H201z"/><glyph unicode="Ӊ" horiz-adv-x="2236" d="M225 0v2048h309v-890h1021v890h310V182h270V-23q-3-292-189-524l-209 60q35 80 49.5 114t37.5 100 32 122 9 117V0h-310v893H534V0H225z"/><glyph unicode="ӊ" horiz-adv-x="1851" d="M201 0v1536h293V897h665v639h292V182h270V-23q-3-292-189-524l-209 60q35 80 49.5 114t37.5 100 32 122 9 117V0h-292v638H494V0H201z"/><glyph unicode="Ӌ" horiz-adv-x="2059" d="M266 1372v676h305v-676q0-203 104.5-287.5T990 1000q268 0 514 66v982h306V245h294v-740h-296V0h-304v802q-234-67-514-67-172 0-303 35.5t-226.5 111-145 198.5-49.5 292z"/><glyph unicode="ӌ" horiz-adv-x="1632" d="M201 1037v502h291v-502q0-158 86-233.5T822 728q159 0 320 43v765h292V0h-291v-501H847v740h295v272q-161-41-320-41-293 0-457 143t-164 424z"/><glyph unicode="Ӎ" horiz-adv-x="2590" d="M225 0v2048h375l652-1592h24l652 1592h375V182h270V-23q-3-292-189-524l-209 60q35 80 49.5 114t37.5 100 32 122 9 117V0h-294v1482h-19L1386 3h-244L538 1483h-19V0H225z"/><glyph unicode="ӎ" horiz-adv-x="2331" d="M201 0v1536h376l486-1166 496 1166h372V182h270V-23q-3-292-189-524l-209 60q35 80 49.5 114t37.5 100 32 122 9 117V0h-291v1113L1174 0H952L494 1117V0H201z"/><glyph unicode="ӏ" horiz-adv-x="759" d="M225 0v2048h309V0H225z"/><glyph unicode="Ӑ" horiz-adv-x="1971" d="m70 0 737 2048h357L1901 0h-328l-187 542H586L398 0H70zm476 2568h245q0-83 47.5-136.5T986 2378q99 0 147.5 54t48.5 136h246q0-170-120-275t-322-105q-200 0-320 105t-120 275zM676 802h620l-302 874h-16z"/><glyph unicode="ӑ" horiz-adv-x="1603" d="M129 434q0 73 18 133.5t47.5 104T270 750t93.5 58 111 40.5 119 27T718 893q32 4 89 10 67 7 97 11t73 11 60 15 37 21 26 30 6 41v7q0 132-74.5 203.5T814 1314q-140 0-230-61t-127-153l-281 64q36 102 101.5 179T427 1465.5t180 68 203 22.5q81 0 156.5-12t158-48.5T1267 1402t99.5-155.5T1406 1020V0h-292v210h-12q-23-46-60.5-87t-92-77.5-132.5-58T648-34q-148 0-264 53T198.5 179.5 129 434zm257 1622h245q0-83 47.5-136.5T826 1866q99 0 147.5 54t48.5 136h246q0-170-120-275t-322-105q-200 0-320 105t-120 275zm36-1626q0-108 80-166t211-58q179 0 286.5 102.5T1107 554v198q-9-9-27.5-17t-49.5-16-54-13-68-12-61-9.5-63-8.5l-47-6q-70-9-123-25t-98.5-43-69.5-70.5T422 430z"/><glyph unicode="Ӓ" horiz-adv-x="1971" d="m70 0 737 2048h357L1901 0h-328l-187 542H586L398 0H70zm445 2463q0 73 52.5 124t124.5 51q75 0 125.5-50.5T868 2463q0-71-51-122.5T692 2289q-71 0-124 52t-53 122zM676 802h620l-302 874h-16zm427 1661q0 73 52.5 124t124.5 51q75 0 125.5-50.5T1456 2463q0-71-51-122.5t-125-51.5q-71 0-124 52t-53 122z"/><glyph unicode="ӓ" horiz-adv-x="1603" d="M129 434q0 73 18 133.5t47.5 104T270 750t93.5 58 111 40.5 119 27T718 893q32 4 89 10 67 7 97 11t73 11 60 15 37 21 26 30 6 41v7q0 132-74.5 203.5T814 1314q-140 0-230-61t-127-153l-281 64q36 102 101.5 179T427 1465.5t180 68 203 22.5q81 0 156.5-12t158-48.5T1267 1402t99.5-155.5T1406 1020V0h-292v210h-12q-23-46-60.5-87t-92-77.5-132.5-58T648-34q-148 0-264 53T198.5 179.5 129 434zm226 1517q0 73 52.5 124t124.5 51q75 0 125.5-50.5T708 1951q0-71-51-122.5T532 1777q-71 0-124 52t-53 122zm67-1521q0-108 80-166t211-58q179 0 286.5 102.5T1107 554v198q-9-9-27.5-17t-49.5-16-54-13-68-12-61-9.5-63-8.5l-47-6q-70-9-123-25t-98.5-43-69.5-70.5T422 430zm521 1521q0 73 52.5 124t124.5 51q75 0 125.5-50.5T1296 1951q0-71-51-122.5t-125-51.5q-71 0-124 52t-53 122z"/><glyph unicode="Ӕ" horiz-adv-x="2826" d="m70 0 954 2048h1613v-266h-975v-624h908V893h-908V266h987V0H1353v542H655L410 0H70zm703 802h580v957h-147z"/><glyph unicode="ӕ" horiz-adv-x="2594" d="M129 434q0 73 18 133.5t47.5 104T270 750t94 57.5 111 40T593.5 875 718 893q31 4 88 10 98 11 139.5 17.5t87 20 59.5 35 14 56.5v7q0 131-74.5 203T814 1314q-140 0-230-61.5T457 1100l-281 64q48 135 147 225t221 128.5 268 38.5q65 0 126-9.5t129.5-32.5 127.5-71.5 97-117.5q174 231 489 231 108 0 205-26.5t185-86 152-147.5 101.5-219 37.5-293V678H1369q6-218 124-340t312-122q129 0 221.5 56T2159 435l283-51q-51-189-220.5-302T1811-31q-199 0-350 80t-224 221h-11q-51-130-211.5-217T656-34q-152 0-270 53.5T198.5 180 129 434zm293-4q0-108 80-166t211-58q179 0 286.5 102.5T1107 554v198q-9-9-27.5-17t-49.5-16-54-13-68-12-61-9.5-63-8.5l-47-6q-70-9-123-25t-98.5-43-69.5-70.5T422 430zm948 472h798q-1 178-107 292.5T1783 1309q-118 0-211-57t-144-148.5-58-201.5z"/><glyph unicode="Ӗ" horiz-adv-x="1698" d="M225 0v2048h1284v-266H534v-624h908V893H534V266h987V0H225zm202 2568h245q0-83 47.5-136.5T867 2378q99 0 147.5 54t48.5 136h246q0-170-120-275t-322-105q-200 0-320 105t-120 275z"/><glyph unicode="ӗ" d="M132 758q0 175 51 323.5t143 253 225 163 291 58.5q107 0 204.5-26.5t185-86T1383 1296t101.5-219 37.5-293V678H430q6-219 123.5-340.5T866 216q129 0 221.5 56T1220 435l283-51q-52-190-222-302.5T863-31q-224 0-390 97.5t-253.5 276T132 758zm259 1298h245q0-83 47.5-136.5T831 1866q99 0 147.5 54t48.5 136h246q0-170-120-275t-322-105q-200 0-320 105t-120 275zm40-1154h798q-1 178-107 292.5T844 1309q-176 0-290-118.5T431 902z"/><glyph unicode="Ә" horiz-adv-x="1963" d="M132 900v192h1362q-2 117-24.5 218.5t-71 191-121 152.5-180.5 99.5-243 36.5q-226 0-475-96l-69 259q79 42 231 82.5t333 40.5q185 0 340-49.5t268.5-139 192.5-214 117.5-276.5 38.5-324V923q0-277-110-493.5t-311-337T951-28q-380 0-599.5 249T132 900zm334-113q0-116 29-211.5t86-168 150-113T945 254q125 0 225 43.5T1336 419t105 181.5 49 229.5H466v-43z"/><glyph unicode="ә" d="M132 752v106h1092q-6 219-123.5 340.5T788 1320q-129 0-221.5-56T434 1101l-283 51q52 190 222 302.5T791 1567q224 0 390-97.5t253.5-276T1522 778q0-175-51-323.5t-143-253-225-163T812-20Q705-20 607.5 6.5t-185 86T271 240 169.5 459 132 752zm293-118q1-178 107-292.5T810 227q176 0 290 118.5T1223 634H425z"/><glyph unicode="Ӛ" horiz-adv-x="1963" d="M132 900v192h1362q-2 117-24.5 218.5t-71 191-121 152.5-180.5 99.5-243 36.5q-226 0-475-96l-69 259q79 42 231 82.5t333 40.5q185 0 340-49.5t268.5-139 192.5-214 117.5-276.5 38.5-324V923q0-277-110-493.5t-311-337T951-28q-380 0-599.5 249T132 900zm334-113q0-116 29-211.5t86-168 150-113T945 254q125 0 225 43.5T1336 419t105 181.5 49 229.5H466v-43zm43 1676q0 73 52.5 124t124.5 51q75 0 125.5-50.5T862 2463q0-71-51-122.5T686 2289q-71 0-124 52t-53 122zm588 0q0 73 52.5 124t124.5 51q75 0 125.5-50.5T1450 2463q0-71-51-122.5t-125-51.5q-71 0-124 52t-53 122z"/><glyph unicode="ӛ" d="M132 752v106h1092q-6 219-123.5 340.5T788 1320q-129 0-221.5-56T434 1101l-283 51q52 190 222 302.5T791 1567q224 0 390-97.5t253.5-276T1522 778q0-175-51-323.5t-143-253-225-163T812-20Q705-20 607.5 6.5t-185 86T271 240 169.5 459 132 752zm228 1199q0 73 52.5 124t124.5 51q75 0 125.5-50.5T713 1951q0-71-51-122.5T537 1777q-71 0-124 52t-53 122zm65-1317q1-178 107-292.5T810 227q176 0 290 118.5T1223 634H425zm523 1317q0 73 52.5 124t124.5 51q75 0 125.5-50.5T1301 1951q0-71-51-122.5t-125-51.5q-71 0-124 52t-53 122z"/><glyph unicode="Ӝ" horiz-adv-x="2800" d="m78 0 656 1072-610 976h378l508-886h237v886h306v-886h244l504 886h377l-608-978L2722 0h-361l-515 874h-293V0h-306v874H957L435 0H78zm851 2463q0 73 52.5 124t124.5 51q75 0 125.5-50.5T1282 2463q0-71-51-122.5t-125-51.5q-71 0-124 52t-53 122zm588 0q0 73 52.5 124t124.5 51q75 0 125.5-50.5T1870 2463q0-71-51-122.5t-125-51.5q-71 0-124 52t-53 122z"/><glyph unicode="ӝ" horiz-adv-x="2376" d="m103 0 595 786-588 750h348l475-638h107v638h299V898h104l475 638h348l-585-750L2273 0h-355l-479 640h-100V0h-299v640H940L458 0H103zm614 1951q0 73 52.5 124t124.5 51q75 0 125.5-50.5T1070 1951q0-71-51-122.5T894 1777q-71 0-124 52t-53 122zm588 0q0 73 52.5 124t124.5 51q75 0 125.5-50.5T1658 1951q0-71-51-122.5t-125-51.5q-71 0-124 52t-53 122z"/><glyph unicode="Ӟ" horiz-adv-x="1814" d="M187 534h314q9-134 123.5-215T908 238q182 0 298 93t116 241q0 157-119.5 253.5T874 922H701v252h173q171 0 278.5 90t106.5 238q1 142-94 229t-251 87-268-82.5T529 1516H230q5 163 98 291.5T576 2006t342 70q144 0 265.5-45t203-121 126.5-177.5 45-214.5q1-171-94.5-291T1206 1065v-16q203-31 316-161t112-326q0-168-93-303T1282 48 910-28q-311 0-512 156T187 534zm256 1929q0 73 52.5 124t124.5 51q75 0 125.5-50.5T796 2463q0-71-51-122.5T620 2289q-71 0-124 52t-53 122zm588 0q0 73 52.5 124t124.5 51q75 0 125.5-50.5T1384 2463q0-71-51-122.5t-125-51.5q-71 0-124 52t-53 122z"/><glyph unicode="ӟ" horiz-adv-x="1422" d="M110 406h306q7-93 85-144.5T708 210q137 0 224 58t87 170q0 105-76 169t-203 64H490v235h250q123 0 188 56t65 147q0 95-68 152t-187 57q-122 0-203-54.5T450 1123H148q3 127 78 226t204.5 153 292.5 54q254 0 406-119.5t152-310.5q0-123-73-205t-199-118v-16q134-9 219.5-109.5T1314 427q0-138-78-243T1022 24 711-31Q452-31 284.5 88T110 406zm137 1545q0 73 52.5 124t124.5 51q75 0 125.5-50.5T600 1951q0-71-51-122.5T424 1777q-71 0-124 52t-53 122zm588 0q0 73 52.5 124t124.5 51q75 0 125.5-50.5T1188 1951q0-71-51-122.5t-125-51.5q-71 0-124 52t-53 122z"/><glyph unicode="Ӡ" horiz-adv-x="1794" d="M165 534h313q14-139 127.5-217.5T889 238q183 0 298 92t115 258q0 79-28 145.5T1190.5 853 1041 936t-216 30H642v234l492 568v15H266v265h1272v-224l-548-628v-16q186-12 329-95t219.5-215.5T1615 578q0-175-93.5-313.5T1261.5 49 886-28q-301 0-503.5 153T165 534z"/><glyph unicode="ӡ" horiz-adv-x="1794" d="M165 22h313q14-139 127.5-217.5T889-274q183 0 298 92t115 258q0 79-28 145.5T1190.5 341 1041 424t-216 30H642v234l492 568v15H266v265h1272v-224L990 684v-16q186-12 329-95t219.5-215.5T1615 66q0-175-93.5-313.5t-260-215.5T886-540q-301 0-503.5 153T165 22z"/><glyph unicode="Ӣ" horiz-adv-x="2103" d="M225 0v2048h306V544h19l1042 1504h286V0h-309v1502h-19L510 0H225zm353 2350v210h949v-210H578z"/><glyph unicode="ӣ" horiz-adv-x="1694" d="M201 0v1536h293V419l677 1117h322V0h-293v1118L526 0H201zm171 1838v210h949v-210H372z"/><glyph unicode="Ӥ" horiz-adv-x="2103" d="M225 0v2048h306V544h19l1042 1504h286V0h-309v1502h-19L510 0H225zm356 2463q0 73 52.5 124t124.5 51q75 0 125.5-50.5T934 2463q0-71-51-122.5T758 2289q-71 0-124 52t-53 122zm588 0q0 73 52.5 124t124.5 51q75 0 125.5-50.5T1522 2463q0-71-51-122.5t-125-51.5q-71 0-124 52t-53 122z"/><glyph unicode="ӥ" horiz-adv-x="1694" d="M201 0v1536h293V419l677 1117h322V0h-293v1118L526 0H201zm175 1951q0 73 52.5 124t124.5 51q75 0 125.5-50.5T729 1951q0-71-51-122.5T553 1777q-71 0-124 52t-53 122zm588 0q0 73 52.5 124t124.5 51q75 0 125.5-50.5T1317 1951q0-71-51-122.5t-125-51.5q-71 0-124 52t-53 122z"/><glyph unicode="Ӧ" horiz-adv-x="2163" d="M159 1024q0 241 69.5 440T421 1796.5 713.5 2003t368.5 73q198 0 367.5-73t292.5-206.5 192.5-332.5 69.5-440-69.5-440T1742 251.5 1449.5 45 1082-28q-199 0-368.5 73T421 252 228.5 584.5 159 1024zm307 0q0-183 46.5-330t129-242.5 195-146.5 245.5-51 245 51 195 146.5T1651.5 694t46.5 330-46.5 330-129.5 242.5-195 146.5-245 51-245.5-51-195-146.5-129-242.5-46.5-330zm145 1439q0 73 52.5 124t124.5 51q75 0 125.5-50.5T964 2463q0-71-51-122.5T788 2289q-71 0-124 52t-53 122zm588 0q0 73 52.5 124t124.5 51q75 0 125.5-50.5T1552 2463q0-71-51-122.5t-125-51.5q-71 0-124 52t-53 122z"/><glyph unicode="ӧ" horiz-adv-x="1696" d="M132 761q0 359 196 577t520 218 520-218 196-577q0-235-88-415T1225 67.5 848-31 471 67.5 220 346t-88 415zm245 1190q0 73 52.5 124t124.5 51q75 0 125.5-50.5T730 1951q0-71-51-122.5T554 1777q-71 0-124 52t-53 122zm57-1189q0-113 25.5-209.5T535 381t130.5-118T849 220q102 0 182.5 43t130 118 75 171.5T1262 762q0 112-25.5 209t-75 172.5-130 119T849 1306q-103 0-183.5-43.5t-130.5-119T459.5 971 434 762zm531 1189q0 73 52.5 124t124.5 51q75 0 125.5-50.5T1318 1951q0-71-51-122.5t-125-51.5q-71 0-124 52t-53 122z"/><glyph unicode="Ө" horiz-adv-x="2163" d="M159 1024q0 241 69.5 440T421 1796.5 713.5 2003t368.5 73q198 0 367.5-73t292.5-206.5 192.5-332.5 69.5-440-69.5-440T1742 251.5 1449.5 45 1082-28q-199 0-368.5 73T421 252 228.5 584.5 159 1024zm312-120q29-309 195.5-479.5T1082 254q248 0 415 170.5T1693 904H471zm0 240h1222q-29 309-196 479.5T1082 1794q-249 0-415.5-170.5T471 1144z"/><glyph unicode="ө" horiz-adv-x="1696" d="M132 761q0 359 196 577t520 218 520-218 196-577q0-235-88-415T1225 67.5 848-31 471 67.5 220 346t-88 415zm308-103q11-94 41.5-172.5t80-138.5 123-93.5T849 220q177 0 281 121t126 317H440zm1 220h814q-25 191-128.5 309.5T849 1306q-176 0-279.5-118.5T441 878z"/><glyph unicode="Ӫ" horiz-adv-x="2163" d="M159 1024q0 241 69.5 440T421 1796.5 713.5 2003t368.5 73q198 0 367.5-73t292.5-206.5 192.5-332.5 69.5-440-69.5-440T1742 251.5 1449.5 45 1082-28q-199 0-368.5 73T421 252 228.5 584.5 159 1024zm312-120q29-309 195.5-479.5T1082 254q248 0 415 170.5T1693 904H471zm0 240h1222q-29 309-196 479.5T1082 1794q-249 0-415.5-170.5T471 1144zm140 1319q0 73 52.5 124t124.5 51q75 0 125.5-50.5T964 2463q0-71-51-122.5T788 2289q-71 0-124 52t-53 122zm588 0q0 73 52.5 124t124.5 51q75 0 125.5-50.5T1552 2463q0-71-51-122.5t-125-51.5q-71 0-124 52t-53 122z"/><glyph unicode="ӫ" horiz-adv-x="1696" d="M132 761q0 359 196 577t520 218 520-218 196-577q0-235-88-415T1225 67.5 848-31 471 67.5 220 346t-88 415zm245 1190q0 73 52.5 124t124.5 51q75 0 125.5-50.5T730 1951q0-71-51-122.5T554 1777q-71 0-124 52t-53 122zm63-1293q11-94 41.5-172.5t80-138.5 123-93.5T849 220q177 0 281 121t126 317H440zm1 220h814q-25 191-128.5 309.5T849 1306q-176 0-279.5-118.5T441 878zm524 1073q0 73 52.5 124t124.5 51q75 0 125.5-50.5T1318 1951q0-71-51-122.5t-125-51.5q-71 0-124 52t-53 122z"/><glyph unicode="Ӭ" horiz-adv-x="1916" d="M159 1386q15 151 70 275.5t149 218 235 145 317 51.5q251 0 438.5-117t288-331.5T1757 1128V915q0-285-99-498.5t-282.5-329T947-28q-181 0-325 51T382.5 166 231 380t-71 270h314q27-209 138-312.5T947 234q119 0 212.5 48t153 134 92.5 200 38 252H689v262h755q-1 315-135.5 497.5T930 1810q-216 0-323.5-107.5T474 1386H159zm328 1077q0 73 52.5 124t124.5 51q75 0 125.5-50.5T840 2463q0-71-51-122.5T664 2289q-71 0-124 52t-53 122zm588 0q0 73 52.5 124t124.5 51q75 0 125.5-50.5T1428 2463q0-71-51-122.5t-125-51.5q-71 0-124 52t-53 122z"/><glyph unicode="ӭ" horiz-adv-x="1535" d="M132 542h282q0-123 93.5-215T729 234q66 0 123.5 24t99.5 64 74.5 94.5 51.5 115 27 125.5H586v230h518q-11 82-39.5 153.5t-74 129.5-113 92-148.5 35q-121-2-218-80.5T414 1028H132q0 141 82 263.5T434 1486t295 72q158 0 287.5-61.5t213-167 128.5-244 45-295.5v-50q0-158-45-296.5t-128.5-244T1017 33 729-28q-260 0-428.5 161.5T132 542zm163 1409q0 73 52.5 124t124.5 51q75 0 125.5-50.5T648 1951q0-71-51-122.5T472 1777q-71 0-124 52t-53 122zm588 0q0 73 52.5 124t124.5 51q75 0 125.5-50.5T1236 1951q0-71-51-122.5t-125-51.5q-71 0-124 52t-53 122z"/><glyph unicode="Ӯ" horiz-adv-x="1801" d="M67 2048h328L932 864l478 1184h324L1026 355q-31-71-57.5-119.5T898 133t-94.5-86T678-6.5 510-28H370v272h123q106 0 166.5 51T758 438l29 73zm354 302v210h949v-210H421z"/><glyph unicode="ӯ" horiz-adv-x="1595" d="M80 1536h320L789 344h16l389 1192h321L882-205Q746-576 390-576q-130 0-204 33l72 245q83-22 146-19.5T517.5-268 605-122l37 102zm242 302v210h949v-210H322z"/><glyph unicode="Ӱ" horiz-adv-x="1801" d="M67 2048h328L932 864l478 1184h324L1026 355q-31-71-57.5-119.5T898 133t-94.5-86T678-6.5 510-28H370v272h123q106 0 166.5 51T758 438l29 73zm358 415q0 73 52.5 124t124.5 51q75 0 125.5-50.5T778 2463q0-71-51-122.5T602 2289q-71 0-124 52t-53 122zm588 0q0 73 52.5 124t124.5 51q75 0 125.5-50.5T1366 2463q0-71-51-122.5t-125-51.5q-71 0-124 52t-53 122z"/><glyph unicode="ӱ" horiz-adv-x="1595" d="M80 1536h320L789 344h16l389 1192h321L882-205Q746-576 390-576q-130 0-204 33l72 245q83-22 146-19.5T517.5-268 605-122l37 102zm246 415q0 73 52.5 124t124.5 51q75 0 125.5-50.5T679 1951q0-71-51-122.5T503 1777q-71 0-124 52t-53 122zm588 0q0 73 52.5 124t124.5 51q75 0 125.5-50.5T1267 1951q0-71-51-122.5t-125-51.5q-71 0-124 52t-53 122z"/><glyph unicode="Ӳ" horiz-adv-x="1801" d="M67 2048h328L932 864l478 1184h324L1026 355q-31-71-57.5-119.5T898 133t-94.5-86T678-6.5 510-28H370v272h123q106 0 166.5 51T758 438l29 73zm448 171 238 421h293l-307-421H515zm445 0 311 421h296l-368-421H960z"/><glyph unicode="ӳ" horiz-adv-x="1595" d="M80 1536h320L789 344h16l389 1192h321L882-205Q746-576 390-576q-130 0-204 33l72 245q83-22 146-19.5T517.5-268 605-122l37 102zm336 171 238 421h293l-307-421H416zm445 0 311 421h296l-368-421H861z"/><glyph unicode="Ӵ" horiz-adv-x="2059" d="M266 1372v676h305v-676q0-203 104.5-287.5T990 1000q268 0 514 66v982h306V0h-306v802q-234-67-514-67-172 0-303 35.5t-226.5 111-145 198.5-49.5 292zm301 1091q0 73 52.5 124t124.5 51q75 0 125.5-50.5T920 2463q0-71-51-122.5T744 2289q-71 0-124 52t-53 122zm588 0q0 73 52.5 124t124.5 51q75 0 125.5-50.5T1508 2463q0-71-51-122.5t-125-51.5q-71 0-124 52t-53 122z"/><glyph unicode="ӵ" horiz-adv-x="1632" d="M201 1037v502h291v-502q0-158 86-233.5T822 728q159 0 320 43v765h292V0h-292v511q-161-41-320-41-293 0-457 143t-164 424zm144 914q0 73 52.5 124t124.5 51q75 0 125.5-50.5T698 1951q0-71-51-122.5T522 1777q-71 0-124 52t-53 122zm588 0q0 73 52.5 124t124.5 51q75 0 125.5-50.5T1286 1951q0-71-51-122.5t-125-51.5q-71 0-124 52t-53 122z"/><glyph unicode="Ӷ" horiz-adv-x="1626" d="M225 0v2048h1277v-266H534V245h290v-740H528V0H225z"/><glyph unicode="ӷ" horiz-adv-x="1298" d="M201 0v1536h982v-258H496V239h291v-740H491V0H201z"/><glyph unicode="Ӹ" horiz-adv-x="2436" d="M233 0v2048h310v-826h457q339 0 528-162t188-439q1-280-189.5-450.5T1000 0H233zm310 260h457q96 0 175.5 30t130 81 78 116.5T1411 625q0 145-109.5 241T1000 962H543V260zm245 2116q0 73 52.5 124t124.5 51q75 0 125.5-50.5T1141 2376q0-71-51-122.5T965 2202q-71 0-124 52t-53 122zm588 0q0 73 52.5 124t124.5 51q75 0 125.5-50.5T1729 2376q0-71-51-122.5t-125-51.5q-71 0-124 52t-53 122zM1905 0v2048h309V0h-309z"/><glyph unicode="ӹ" horiz-adv-x="2176" d="M201 0v1536h293v-528h378q277 0 431.5-137.5T1458 507q0-223-155.5-365T872 0H201zm293 258h378q129 0 212 67.5t83 172.5q0 111-83 181.5T872 750H494V258zm123 1693q0 73 52.5 124t124.5 51q75 0 125.5-50.5T970 1951q0-71-51-122.5T794 1777q-71 0-124 52t-53 122zm588 0q0 73 52.5 124t124.5 51q75 0 125.5-50.5T1558 1951q0-71-51-122.5t-125-51.5q-71 0-124 52t-53 122zM1676 0v1536h299V0h-299z"/><glyph unicode="Ӻ" horiz-adv-x="1626" d="M-81 960v207h306v881h1277v-266H534v-615h304V960H534V270h292V-95q0-233-122.5-369T359-600q-95 0-169 20l20 260q46-19 134-19 83 0 134.5 65T530-95V0H225v960H-81z"/><glyph unicode="ӻ" horiz-adv-x="1298" d="m-140-580 20 260q46-19 134-19 83 0 134.5 65T200-95v365h1v414h-310v207h310v645h982v-258H496V891h314V684H496V-95q0-233-122.5-369T29-600q-95 0-169 20z"/><glyph unicode="Ӽ" horiz-adv-x="1876" d="m78 0 653 1024L82 2048h358l490-801h16l490 801h358l-638-1024 473-754h275V-95q0-233-122.5-369T1437-600q-95 0-169 20l20 260q46-19 134-19 83 0 134.5 65T1608-95V0h-170L946 790h-16L438 0H78z"/><glyph unicode="ӽ" horiz-adv-x="1532" d="m103 0 475 768-469 768h328l331-575 334 575h327L953 768l283-453q82-132 124.5-238.5T1398-151q-3-92-34.5-172T1276-465.5 1131.5-564 934-600q-95 0-169 20l20 260q18-8 61.5-14t67.5-6q89 0 149.5 75T1105-60q-10 93-101 239L768 551 431 0H103z"/><glyph unicode="Ӿ" horiz-adv-x="1876" d="m78 0 589 923H478v207h186L82 2048h358l490-801h16l490 801h358l-572-918h175V923h-178L1798 0h-360L946 790h-16L438 0H78z"/><glyph unicode="ӿ" horiz-adv-x="1552" d="m103 0 415 667H316v207h200l-407 662h328l339-598 342 598h327l-413-662h203V667h-205L1449 0h-327L776 574 431 0H103z"/><glyph horiz-adv-x="1357"/><glyph horiz-adv-x="2714"/><glyph horiz-adv-x="1357"/><glyph horiz-adv-x="2714"/><glyph horiz-adv-x="904"/><glyph horiz-adv-x="678"/><glyph horiz-adv-x="452"/><glyph horiz-adv-x="452"/><glyph horiz-adv-x="339"/><glyph horiz-adv-x="542"/><glyph horiz-adv-x="150"/><glyph unicode="‐" horiz-adv-x="1304" d="M198 736v259h908V736H198z"/><glyph unicode="‑" horiz-adv-x="1304" d="M198 736v259h908V736H198z"/><glyph unicode="‒" horiz-adv-x="1304" d="M198 736v259h908V736H198z"/><glyph unicode="–" horiz-adv-x="1408" d="M0 736v259h1408V736H0z"/><glyph unicode="—" horiz-adv-x="2816" d="M0 736v259h2816V736H0z"/><glyph unicode="‘" horiz-adv-x="601" d="M142 1408v192q0 129 71 272t184 234l148-106q-70-102-108.5-197.5T398 1603v-195H142z"/><glyph unicode="’" horiz-adv-x="561" d="M56 1456q69 101 107.5 196t38.5 201v195h256v-192q0-130-70-272.5T204 1350z"/><glyph unicode="‚" horiz-adv-x="601" d="M53-336q69 101 107.5 196T199 61v195h256V64q0-130-70-272.5T201-442z"/><glyph unicode="“" horiz-adv-x="1110" d="M142 1408v192q0 129 71 272t184 234l148-106q-70-102-108.5-197.5T398 1603v-195H142zm510 0v192q0 129 71 272t184 234l148-106q-70-102-108.5-197.5T908 1603v-195H652z"/><glyph unicode="”" horiz-adv-x="1110" d="M56 1456q69 101 107.5 196t38.5 201v195h256v-192q0-130-70-272.5T204 1350zm509 0q69 101 107.5 196t38.5 201v195h256v-192q0-130-70-272.5T713 1350z"/><glyph unicode="„" horiz-adv-x="1110" d="M54-336q69 101 107.5 196T200 61v195h256V64q0-130-70-272.5T202-442zm509 0q69 101 107.5 196T709 61v195h256V64q0-130-70-272.5T711-442z"/><glyph unicode="…" horiz-adv-x="2291" d="M201 181q0 82 59 140.5T401 380t141-58.5T601 181q0-83-59-141.5T401-19q-83 0-141.5 58.5T201 181zm747 0q0 82 59 140.5t141 58.5 141-58.5 59-140.5q0-83-59-141.5T1148-19q-83 0-141.5 58.5T948 181zm748 0q0 82 59 140.5t141 58.5 141-58.5 59-140.5q0-83-59-141.5T1896-19q-83 0-141.5 58.5T1696 181z"/><glyph horiz-adv-x="542"/><glyph unicode="‹" horiz-adv-x="1040" d="M180 820v28l404 600h267L471 834l380-614H584z"/><glyph unicode="›" horiz-adv-x="1040" d="m173 220 380 614-380 614h267l404-600v-28L440 220H173z"/><glyph horiz-adv-x="678"/><glyph unicode="€" horiz-adv-x="1892" d="m75 716 75 208h179q-3 48-3 99t3 101H75l75 206h205q71 350 292.5 548t536.5 198q317 0 545-203l-118-253q-202 173-427 173-189 0-326-118.5T665 1330h820l-95-206H634q-3-48-3-101 0-51 3-99h672l-97-208H665q56-225 193-343t326-118q223 0 419 163l121-252q-105-95-245-144.5T1184-28q-315 0-536.5 197T355 716H75z"/><glyph unicode="™" horiz-adv-x="1744" d="M112 1922v126h595v-126H483v-610H336v610H112zm723-610v736h178l213-522 212 522h178v-736h-147v474l-203-474h-80l-204 475v-475H835z"/></font>
</defs>
</svg>
