<svg width="69" height="45" viewBox="0 0 69 45" fill="none" xmlns="http://www.w3.org/2000/svg">
<path d="M34.5497 0.47728C44.3827 0.47728 54.2106 0.47728 64.0335 0.47728C66.6609 0.47728 68.3115 1.57841 68.7961 3.65158C68.9403 4.35594 69.0064 5.07416 68.9929 5.7931C68.9929 16.931 68.9929 28.0891 68.9929 39.2675C68.9929 43.0646 67.5543 44.5834 63.7458 44.5834C44.2414 44.5834 24.7369 44.5834 5.23246 44.5834C1.5148 44.5834 0.0231966 43.0646 0.015625 39.3739C0.015625 28.1752 0.015625 16.974 0.015625 5.77031C0.015625 2.01127 1.52995 0.507657 5.31575 0.500062C15.0453 0.431716 24.7975 0.47728 34.5497 0.47728ZM34.5497 1.85939H5.53532C2.43097 1.85939 1.4618 2.81624 1.45423 5.88422C1.45423 12.6125 1.45423 19.3434 1.45423 26.0767C1.45423 30.6787 1.45423 35.2731 1.45423 39.8751C1.45423 41.9255 2.41582 42.9127 4.48287 43.1329C4.90804 43.1748 5.33541 43.19 5.76247 43.1785C24.9439 43.1785 44.1101 43.1785 63.2612 43.1785C63.8932 43.1685 64.5235 43.1101 65.1465 43.0038C65.7481 42.955 66.3126 42.6927 66.7386 42.264C67.1647 41.8353 67.4243 41.2683 67.471 40.6648C67.5593 40.0767 67.6024 39.4826 67.5997 38.8878C67.5997 28.0284 67.5997 17.1689 67.5997 6.30949C67.6026 5.58694 67.5443 4.86546 67.4256 4.15279C67.3625 3.6115 67.1225 3.10638 66.7431 2.71624C66.3637 2.3261 65.8662 2.07288 65.3283 1.99608C64.6509 1.87729 63.9638 1.82389 63.2764 1.83661L34.5497 1.85939Z" fill="black"/>
<path d="M30.991 30.8535H26.6752L29.3707 14.2378H33.6865L30.991 30.8535ZM23.0484 14.1998L18.937 25.5909L18.4449 23.1304L16.9987 15.6655C16.9168 15.1978 16.6591 14.7795 16.2787 14.4969C15.8983 14.2143 15.4243 14.0889 14.9544 14.1467H8.13993L8.05664 14.4277C9.65915 14.8229 11.1914 15.4632 12.5996 16.3262L16.3324 30.8535H20.8299L27.6898 14.1998H23.0484ZM56.9768 30.8535H60.9367L57.4841 14.1998H54.0163C53.5961 14.1662 53.1762 14.2682 52.818 14.4909C52.4597 14.7136 52.1819 15.0453 52.0249 15.4377L45.5891 30.8535H50.0866L50.9876 28.3855H56.4619L56.9768 30.8535ZM52.2294 24.9758L54.5008 18.7563L55.7804 24.9758H52.2294ZM45.9298 18.2323L46.5431 14.6631C45.2971 14.2184 43.9886 13.9749 42.6664 13.9417C40.5237 13.9417 35.4431 14.8757 35.4431 19.4397C35.4431 23.7303 41.402 23.7835 41.402 26.0389C41.402 28.2944 36.0564 27.8919 34.2847 26.4718L33.6487 30.2005C35.1887 30.85 36.8468 31.1707 38.5172 31.1421C41.4625 31.1421 45.8995 29.6233 45.8995 25.4466C45.8995 21.1332 39.8801 20.7307 39.8801 18.8474C39.8801 16.9641 44.0823 17.2147 45.9374 18.2323H45.9298Z" fill="#2767AF"/>
<path d="M18.4524 23.1683L16.9987 15.6654C16.9168 15.1977 16.6591 14.7794 16.2787 14.4968C15.8983 14.2142 15.4243 14.0888 14.9544 14.1466H8.13993L8.05664 14.4276C10.3994 15.0221 12.5852 16.1208 14.4622 17.6474C16.256 19.1011 17.6329 21.0063 18.4524 23.1683V23.1683Z" fill="#E7A640"/>
</svg>
