<svg xmlns="http://www.w3.org/2000/svg"><defs><font id="poppinslight" horiz-adv-x="1382"><font-face units-per-em="2048" ascent="1638" descent="-410"/><glyph horiz-adv-x="0"/><glyph horiz-adv-x="682"/><glyph horiz-adv-x="0"/><glyph horiz-adv-x="0"/><glyph horiz-adv-x="561"/><glyph horiz-adv-x="561"/><glyph horiz-adv-x="561"/><glyph horiz-adv-x="561"/><glyph unicode="!" horiz-adv-x="567" d="M180 96q0 45 30 75t75 30q43 0 72.5-30T387 96t-29.5-75.5T285-10q-45 0-75 30.5T180 96zm21 1336h155L338 379H217z"/><glyph unicode="&quot;" horiz-adv-x="540" d="M76 1628h141l-20-395H96zm246 0h141l-19-395H344z"/><glyph unicode="#" horiz-adv-x="1662" d="M72 438v127h352l80 379H184v127h348l95 445h137l-94-445h454l95 445h137l-94-445h297V944h-326l-80-379h293V438h-320L1032 0H895l94 438H535L440 0H303l94 438H72zm489 127h455l80 379H641z"/><glyph unicode="$" horiz-adv-x="1222" d="M123 1067q0 162 112.5 267.5T541 1448v172h90v-174q170-16 272.5-110.5T1024 1100H872q-12 76-74.5 141.5T631 1323V776q133-35 218-72.5T991.5 588t57.5-211q0-96-47.5-183.5T860 49 631-14v-164h-90v166Q359 4 246 107.5T125 365h154q8-92 74.5-167T541 106v568q-137 37-220 73.5T180.5 861 123 1067zm145 6q0-115 71-173t202-97v526q-123-6-198-71.5T268 1073zm363-971q131 9 202.5 83.5T905 371q0 117-70.5 176T631 647V102z"/><glyph unicode="%" horiz-adv-x="1486" d="M88 1161q0 131 81 212t206 81q127 0 208-81t81-212q0-133-81-214t-208-81q-125 0-206 81t-81 214zm117 0q0-96 46-149.5T375 958t125 53.5 47 149.5q0 94-47 147.5T375 1362t-124-52.5-46-148.5zM250 0l842 1434h143L395 0H250zm575 272q0 134 81 214.5t206 80.5 206-80.5 81-214.5q0-133-81-214t-206-81-206 81-81 214zm115 0q0-94 47-147t125-53 124 52 46 148-46 148.5-124 52.5-125-53-47-148z"/><glyph unicode="&amp;" horiz-adv-x="1472" d="M80 410q0 152 86 264t252 176q-72 80-104.5 148.5T281 1147q0 137 98 222t262 85q154 0 250-88t90-229H838q2 92-56.5 145T635 1335q-94 0-152.5-52T424 1149q0-66 36-127t113-145l471-478q29 39 78 123l131 219h154l-156-268q-55-96-110-172L1440 0h-187l-194 199Q955 84 836 29.5T567-25q-143 0-253.5 54.5t-172 153T80 410zm143 4q0-90 44-161t122-112 178-41q121 0 216.5 47.5T965 295L508 758Q223 654 223 414z"/><glyph unicode="'" horiz-adv-x="301" d="M76 1628h149l-24-395H100z"/><glyph unicode="(" horiz-adv-x="860" d="M193 756q0 354 114.5 657T629 1913h149v-15q-219-215-332.5-514T332 756q0-326 108.5-617T758-367v-14H606Q414-190 303.5 108T193 756z"/><glyph unicode=")" horiz-adv-x="860" d="M82 1898v15h149q207-197 322-500t115-657q0-350-111-648T254-381H102v14q209 215 317.5 506T528 756q0 330-113.5 628.5T82 1898z"/><glyph unicode="*" horiz-adv-x="960" d="m121 989 291 131-289 129 59 107 267-178-25 321h121l-27-321 264 178 58-105-289-131 291-131-60-106-264 176 25-322H424l22 322-264-178z"/><glyph unicode="+" horiz-adv-x="1341" d="M150 696v123h454v461h133V819h457V696H737V236H604v460H150z"/><glyph unicode="," horiz-adv-x="354" d="m-16-299 151 537h160L82-299h-98z"/><glyph unicode="-" horiz-adv-x="1062" d="M61 698v121h797V698H61z"/><glyph unicode="." horiz-adv-x="372" d="M84 96q0 45 29.5 75t74.5 30q43 0 73-30t30-75-30-75.5T188-10q-45 0-74.5 30.5T84 96z"/><glyph unicode="/" horiz-adv-x="903" d="m94-340 561 2265h146L236-340H94z"/><glyph unicode="0" horiz-adv-x="1261" d="M133 748q0 352 108.5 546.5T631 1489t389-194.5T1128 748q0-358-108.5-555T631-4Q348-4 240.5 192.5T133 748zm141 0q0-197 27-329t104.5-212T631 127q147 0 225 80t104.5 212T987 748q0 190-26.5 321T856 1280t-225 80-225-80-105-211-27-321z"/><glyph unicode="1" horiz-adv-x="598" d="M63 1339v129h349V0H266v1339H63z"/><glyph unicode="2" horiz-adv-x="1171" d="M104 10v103q377 282 583 506.5T893 1059q0 141-70.5 226T592 1370q-156 0-241-97t-95-259H117q12 227 140 353t335 126q199 0 321.5-111.5T1036 1065q0-248-205.5-480.5T324 131h757V10H104z"/><glyph unicode="3" horiz-adv-x="1198" d="M102 418h140q18-137 114.5-222T610 111q156 0 239 81.5T932 401q0 311-449 312h-45v121h47q418 0 418 272 0 119-77.5 191.5T604 1370q-139 0-230-72.5T266 1094H127q14 186 144 293.5T608 1495q137 0 235.5-49T992 1312t50-192q0-129-75.5-223T752 780v-10q145-29 231-126t86-255q0-176-117.5-287.5T610-10q-213 0-350 111.5T102 418z"/><glyph unicode="4" horiz-adv-x="1255" d="M70 348v109l745 1003h170V473h219V348H985V0H844v348H70zm166 125h614v830z"/><glyph unicode="5" horiz-adv-x="1263" d="M147 399h142q27-135 123-208.5T649 117q178 0 269.5 105.5T1010 502q0 170-92.5 265T653 862q-119 0-209-55T311 657H176v813h883v-124H309V821q51 72 149.5 118T672 985q168 0 274.5-68.5t153.5-178 47-234.5q0-143-54.5-259t-166-183.5T649-6Q438-6 307 103.5T147 399z"/><glyph unicode="6" horiz-adv-x="1288" d="M147 739q0 758 521 758 197 0 309.5-107.5T1110 1110H977q-45 266-309 266-201 0-301.5-155.5T274 711q41 123 157 193.5T696 975q215 0 341-132t126-364q0-135-52-244.5t-159.5-175T684-6Q379-6 263 188.5T147 739zm146-237q0-166 98-276.5T678 115q158 0 252 96t94 262q0 178-92 278.5T670 852q-97 0-183-39T347 695t-54-193z"/><glyph unicode="7" horiz-adv-x="1091" d="M53 1343v123h959v-110L440 0H295l577 1343H53z"/><glyph unicode="8" horiz-adv-x="1277" d="M119 389q0 141 80 239.5T418 762q-127 41-193.5 129T158 1104q0 111 56 198t164.5 137 260.5 50 260.5-50 164.5-137.5 56-197.5q0-123-66.5-213T860 762q139-35 219-133.5t80-239.5q0-131-64.5-228.5T912.5 10 639-43 365.5 10t-182 150.5T119 389zm139 4q0-147 102.5-231T639 78q174 0 276.5 85T1018 393q0 152-105.5 228.5T639 698t-274.5-75.5T258 393zm39 694q0-127 94-202.5T639 809t248 76 94 202q0 136-92 209.5T639 1370t-250-72.5-92-210.5z"/><glyph unicode="9" horiz-adv-x="1280" d="M141 1010q0 137 53.5 247.5t162 174T623 1495q291 0 405.5-189.5T1143 762q0-383-114-575.5T639-6Q436-6 323.5 103.5T190 391h134q22-133 102-204.5T645 115q193 0 286 150.5t85 498.5q-39-113-148.5-177.5T616 522q-215 0-345 129t-130 359zm138 4q0-172 94-270.5T639 645q96 0 177 40t130 118 49 186q0 168-95 276.5T627 1374q-158 0-253-98t-95-262z"/><glyph unicode=":" horiz-adv-x="378" d="M84 96q0 45 29.5 75t74.5 30q43 0 73-30t30-75-30-75.5T188-10q-45 0-74.5 30.5T84 96zm0 891q0 45 29.5 75t74.5 30q43 0 73-30t30-75-30-75.5-73-30.5q-45 0-74.5 30.5T84 987z"/><glyph unicode=";" horiz-adv-x="464" d="m33-299 151 537h160L131-299H33zM135 989q0 45 29.5 75t74.5 30q43 0 73-30t30-75-30-75.5-73-30.5q-45 0-74.5 30.5T135 989z"/><glyph unicode="&lt;" horiz-adv-x="1032" d="m145 758 514 475h183L326 758l516-475H659z"/><glyph unicode="=" horiz-adv-x="1384" d="M170 489v121h1044V489H170zm0 416v123h1044V905H170z"/><glyph unicode="&gt;" horiz-adv-x="1007" d="m160 283 516 475-516 475h182l514-475-514-475H160z"/><glyph unicode="?" horiz-adv-x="1048" d="M70 1044q0 123 56 214.5T281.5 1400t228.5 50q131 0 232.5-51T900 1252.5t56-220.5q0-221-136-324.5T449 604l-7-225H319l-8 328h54q211 0 332.5 66.5T819 1032q0 135-85 215t-224 80-221-75.5-82-207.5H70zM276 96q0 45 30 75t75 30q43 0 72.5-30T483 96t-29.5-75.5T381-10q-45 0-75 30.5T276 96z"/><glyph unicode="@" horiz-adv-x="2052" d="M154 279q0 285 130 519t360 369.5 517 135.5q221 0 389-86.5t258-241 90-354.5q0-160-51-305.5T1700 79t-225-91q-100 0-152.5 54T1266 190q-63-94-161.5-148T895-12q-156 0-243 94t-87 256q0 152 63.5 284T805 833.5t256 79.5q102 0 173-45t101-131l27 152h125l-105-596q-6-37-6-68 0-137 119-137 88 0 152.5 80t98.5 202 34 242q0 180-77 312.5t-220.5 203T1143 1198q-246 0-444.5-121T387 749.5 274 293q-2-279 168-433.5T907-295q186 0 338 70l23-101q-180-74-391-73-215 0-379 83T244-79.5 154 279zm544 79q0-119 61.5-188.5T936 100q92 0 170 49.5T1234 287t62 200q4 37 4 54 0 115-62 187.5T1061 801q-109 0-191-63.5t-127-165T698 358z"/><glyph unicode="A" horiz-adv-x="1335" d="m66 0 522 1413h162L1270 0h-152L993 340H342L217 0H66zm319 459h565l-282 774z"/><glyph unicode="B" horiz-adv-x="1222" d="M164 0v1432h481q217 0 331-100.5t114-260.5q0-133-72-216T834 739q120-22 204-122.5t84-233.5q0-109-54-196T909.5 50 659 0H164zm143 121h342q156 0 243 73.5T979 397t-91 206-245 77H307V121zm0 678h334q145 0 224 68.5t79 189.5q0 119-79 186.5T635 1311H307V799z"/><glyph unicode="C" horiz-adv-x="1579" d="M98 717q0 211 92.5 378t252 260 356.5 93q240 0 410.5-113.5T1458 1014h-168q-61 145-187 227t-304 82q-158 0-284-73.5t-197.5-212T246 717t71.5-319.5 197.5-211T799 113q178 0 304 80.5T1290 418h168q-78-205-250-317.5T799-12q-197 0-356.5 93t-252 259T98 717z"/><glyph unicode="D" horiz-adv-x="1445" d="M164 0v1432h424q237 0 407-86t260.5-248 90.5-385q0-221-90.5-382T995 85 588 0H164zm143 119h281q299 0 455.5 156.5T1200 713q0 283-156.5 441.5T588 1313H307V119z"/><glyph unicode="E" horiz-adv-x="1030" d="M164 0v1434h747v-119H307V780h543V662H307V119h604V0H164z"/><glyph unicode="F" horiz-adv-x="1009" d="M164 0v1432h774v-119H307V778h533V659H307V0H164z"/><glyph unicode="G" horiz-adv-x="1601" d="M98 717q0 211 93.5 378t255 260 360.5 93q229 0 401-114.5t250-319.5h-168q-61 141-187 222t-296 81q-160 0-287-74t-200.5-210T246 717t73.5-317.5 200.5-211T807 115q150 0 269.5 64.5t192 184T1352 643H750v117h753V655q-10-188-102-340.5T1154 74 807-14q-199 0-360.5 93t-255 260T98 717z"/><glyph unicode="H" horiz-adv-x="1390" d="M164 0v1432h143V788h776v644h144V0h-144v670H307V0H164z"/><glyph unicode="I" horiz-adv-x="468" d="M164 0v1432h143V0H164z"/><glyph unicode="J" horiz-adv-x="1021" d="M76 377h145q2-117 58.5-190.5T457 113q115 0 170 67.5T682 348v1084h143V348q0-164-100-263T457-14Q283-14 179.5 91.5T76 377z"/><glyph unicode="K" horiz-adv-x="1163" d="M164 0v1432h143V762l621 670h182L440 717 1116 0H928L307 662V0H164z"/><glyph unicode="L" horiz-adv-x="862" d="M164 0v1432h143V117h514V0H164z"/><glyph unicode="M" horiz-adv-x="1724" d="M164 0v1413h151L862 188l547 1225h154V0h-144v1128L915 0H811L307 1124V0H164z"/><glyph unicode="N" horiz-adv-x="1404" d="M164 0v1432h143l793-1203v1203h143V0h-143L307 1204V0H164z"/><glyph unicode="O" horiz-adv-x="1613" d="M98 717q0 211 93.5 378t255 260 360.5 93q201 0 362.5-93t254-260 92.5-378-92.5-378-254-260T807-14q-199 0-360.5 93t-255 260T98 717zm148 0q0-182 73.5-320.5t200.5-212T807 111t287 73.5 200.5 212T1368 717t-73.5 319.5-200.5 211-287 73.5-287-73.5-200.5-211T246 717z"/><glyph unicode="P" horiz-adv-x="1155" d="M164 0v1432h432q240 0 361.5-113t121.5-299q0-184-120.5-297T596 610H307V0H164zm143 733h289q336 0 336 287 0 143-80 217t-256 74H307V733z"/><glyph unicode="Q" horiz-adv-x="1615" d="M98 717q0 211 93.5 378t255 260 360.5 93q201 0 362.5-93t254-260 92.5-378q0-217-96.5-386T1155 72l383-353h-192L1026 16Q925-14 814-14h-7q-199 0-360.5 93t-255 260T98 717zm148 0q0-182 73.5-320.5t200.5-212T807 111t287 73.5 200.5 212T1368 717t-73.5 319.5-200.5 211-287 73.5-287-73.5-200.5-211T246 717z"/><glyph unicode="R" horiz-adv-x="1202" d="M164 0v1432h430q240 0 363.5-115t123.5-301q0-156-89-265.5T729 608L1098 0H926L571 598H307V0H164zm143 715h289q168 0 253 82t85 219q0 141-82 218t-258 77H307V715z"/><glyph unicode="S" horiz-adv-x="1171" d="M115 369h151q10-104 92-183.5T598 106q145 0 230 75t85 190q0 92-47 148t-116.5 84T557 664q-143 39-227 75.5T186.5 854 127 1065q0 111 57.5 198t162 136 239.5 49q199 0 320.5-97.5T1047 1100H891q-14 88-96 156.5T573 1325q-129 0-215-68.5T272 1069q0-90 47.5-145.5t118-84T629 778q139-39 225-76.5T999.5 586t59.5-209q0-100-53.5-190.5T847.5 41 598-14q-141 0-248.5 49t-169 137T115 369z"/><glyph unicode="T" horiz-adv-x="1064" d="M61 1313v119h940v-119H604V0H461v1313H61z"/><glyph unicode="U" horiz-adv-x="1353" d="M158 532v900h143V530q0-213 101.5-315T680 113t275.5 101 99.5 316v902h143V532q0-272-144.5-409T678-14 302.5 123 158 532z"/><glyph unicode="V" horiz-adv-x="1349" d="M49 1432h156L674 156l473 1276h151L756 0H592z"/><glyph unicode="W" horiz-adv-x="1955" d="M53 1432h154L535 176l366 1256h160l356-1256 330 1256h154L1495 0h-160L975 1221 606 0 451-2z"/><glyph unicode="X" horiz-adv-x="1198" d="m84 0 432 721-432 711h160l362-596 350 596h160L680 715 1114 0H954L590 598 244 0H84z"/><glyph unicode="Y" horiz-adv-x="1155" d="M45 1432h162l373-744 370 744h160L651 557V0H508v557z"/><glyph unicode="Z" horiz-adv-x="1075" d="M88 0v115l721 1190H100v127h877v-115L256 127h731V0H88z"/><glyph unicode="[" horiz-adv-x="751" d="M244-381v2294h315v-119H379V-260h180v-121H244z"/><glyph unicode="\" horiz-adv-x="1234" d="M207 1925h145l664-2265H874z"/><glyph unicode="]" horiz-adv-x="751" d="M193-260h180v2054H193v119h315V-381H193v121z"/><glyph unicode="^" horiz-adv-x="1241" d="m78 350 479 1063h129l479-1063h-149l-393 883-398-883H78z"/><glyph unicode="_" horiz-adv-x="1380" d="M176-72h1043v-133H176v133z"/><glyph unicode="`" horiz-adv-x="532" d="M49 1448v129l420-262v-111z"/><glyph unicode="a" d="M98 561q0 172 69 302t190.5 201 275.5 71q160 0 275.5-74T1075 872v246h144V0h-144v248q-53-115-168.5-189.5T631-16q-152 0-273.5 71.5T167 258 98 561zm146 0q0-137 54-240.5T446.5 163 659 109q115 0 210.5 55T1020 321.5t55 237.5-55 237.5-150.5 158T659 1010q-119 0-213-53.5t-148-155T244 561z"/><glyph unicode="b" d="M164 0v1516h141V870q55 117 171 191t274 74q154 0 274.5-71t189-201 68.5-302-68.5-303T1023 55.5 750-16q-160 0-276 72.5T305 246V0H164zm141 559q0-135 55.5-237.5T511 164t210-55q119 0 213 54t148.5 157.5T1137 561q0 139-54.5 240.5T934 956.5 721 1010q-115 0-210-55.5t-150.5-158T305 559z"/><glyph unicode="c" horiz-adv-x="1255" d="M98 559q0 174 70 304t192.5 201 280.5 71q207 0 341-102.5T1155 754h-154q-29 121-124 189.5T641 1012q-113 0-203-51.5T296 808t-52-249q0-147 52-249.5t142-154T641 104q141 0 236.5 69T1001 365h154q-39-172-174-276.5T641-16q-158 0-280.5 70.5T168 255 98 559z"/><glyph unicode="d" d="M98 561q0 172 70 302t191.5 201 275.5 71q147 0 266-72t174-186v639h144V0h-144v250q-51-117-167.5-191.5T633-16q-154 0-275.5 71.5T167 258 98 561zm146 0q0-137 54-240.5T446.5 163 659 109q115 0 210.5 55T1020 321.5t55 237.5-55 237.5-150.5 158T659 1010q-119 0-213-53.5t-148-155T244 561z"/><glyph unicode="e" horiz-adv-x="1273" d="M98 559q0 174 70 305t194.5 201 284.5 70 280-70 184.5-187.5T1176 616q-1-73-5-112H244q6-127 61-217t145.5-136.5T647 104q139 0 234.5 68T1008 354h151q-41-164-175-267T647-16q-158 0-282.5 70.5T169 255 98 559zm146 62h786v9q0 118-50 204-52 88-142 133t-197 45q-160 0-272.5-102.5T244 621z"/><glyph unicode="f" horiz-adv-x="665" d="M45 997v121h156v78q0 182 93 268t302 86v-123q-139 0-195.5-53T344 1196v-78h260V997H344V0H201v997H45z"/><glyph unicode="g" d="M98 561q0 172 69 302t190.5 201 275.5 71q158 0 274.5-74T1075 874v244h144V-29q0-154-67-272.5t-185.5-183T696-549q-215 0-357 102.5T162-168h141q37-117 140.5-186.5T696-424q109 0 195 46t135 136 49 213v277q-53-115-168.5-189.5T633-16q-154 0-275.5 71.5T167 258 98 561zm146 0q0-137 54-240.5T446.5 163 659 109q115 0 210.5 55T1020 321.5t55 237.5-55 237.5-150.5 158T659 1010q-119 0-213-53.5t-148-155T244 561z"/><glyph unicode="h" horiz-adv-x="1296" d="M164 0v1516h143V928q53 100 156.5 155.5T696 1139q127 0 228.5-53.5t160-163T1143 655V0h-142v639q0 182-91 278.5T662 1014q-162 0-258.5-102.5T307 610V0H164z"/><glyph unicode="i" horiz-adv-x="468" d="M131 1436q0 45 31 74.5t74 29.5 73.5-29.5T340 1436t-30.5-76-73.5-31-74 31-31 76zM164 0v1118h143V0H164z"/><glyph unicode="j" horiz-adv-x="479" d="M-55-406h78q80 0 114.5 34T172-258v1376h143V-264q0-135-67.5-199.5T45-528H-55v122zm196 1842q0 45 31 74.5t74 29.5 72.5-29.5T348 1436t-29.5-76-72.5-31-74 31-31 76z"/><glyph unicode="k" horiz-adv-x="983" d="M164 0v1516h143V618l451 500h200L428 561 963 0H768L307 502V0H164z"/><glyph unicode="l" horiz-adv-x="468" d="M164 0v1516h143V0H164z"/><glyph unicode="m" horiz-adv-x="2093" d="M164 0v1118h143V926q53 104 151.5 158.5T678 1139q145 0 254.5-70T1092 864q45 133 154.5 204t248.5 71q197 0 320.5-124T1939 655V0h-141v639q0 182-88 278.5t-240 96.5q-158 0-252-104.5T1124 606V0H983v639q0 182-88 278.5T653 1014q-158 0-252-104.5T307 606V0H164z"/><glyph unicode="n" horiz-adv-x="1296" d="M164 0v1118h143V928q53 102 153.5 156.5T688 1139q201 0 328-124t127-360V0h-142v639q0 182-91 278.5T662 1014q-162 0-258.5-102.5T307 610V0H164z"/><glyph unicode="o" horiz-adv-x="1314" d="M98 559q0 174 74 304t201 201 284 71q158 0 286-71t201-201 73-304q0-172-74-303T940 54.5 653-16q-157 0-283 70.5T171 255 98 559zm146 0q0-147 56-248.5T449.5 159 653 109q111 0 205 50t152.5 151.5T1069 559t-57.5 248.5-151.5 152-205 50.5-205-50.5T300 808t-56-249z"/><glyph unicode="p" d="M164-528v1646h141V872q53 113 169 188t276 75q152 0 273.5-71t190-201 68.5-302-68.5-303T1023 55.5 750-16q-158 0-275 74.5T305 246v-774H164zM305 559q0-135 55.5-237.5T511 164t210-55q119 0 213 54t148.5 157.5T1137 561q0 139-54.5 240.5T934 956.5 721 1010q-115 0-210-55.5t-150.5-158T305 559z"/><glyph unicode="q" d="M98 561q0 172 70 302t191.5 201 275.5 71q158 0 274.5-75T1075 872v246h144V-528h-144v774q-49-113-166.5-187.5T631-16q-152 0-273.5 71.5T167 258 98 561zm146 0q0-137 54-240.5T446.5 163 659 109q115 0 210.5 55T1020 321.5t55 237.5-55 237.5-150.5 158T659 1010q-119 0-213-53.5t-148-155T244 561z"/><glyph unicode="r" horiz-adv-x="741" d="M164 0v1118h143V920q47 104 144.5 161.5T690 1139V989h-39q-156 0-250-84t-94-280V0H164z"/><glyph unicode="s" horiz-adv-x="1044" d="M98 315h148q10-94 89-152.5T547 104q117 0 183.5 55.5T797 297q0 57-37 94t-93.5 58.5T514 496q-125 33-203 65.5t-132 97T125 831q0 82 49 152t139 111 205 41q180 0 291-91.5T928 793H784q-6 98-76.5 158.5T514 1012q-109 0-176.5-51.5T270 834q0-66 40-108t99.5-65.5T569 608q121-33 193-63.5t123-90T938 297q0-90-49-160.5T752 25 549-16q-193 0-314.5 89T98 315z"/><glyph unicode="t" horiz-adv-x="729" d="M49 997v121h156v281h145v-281h307V997H350V303q0-102 39-141t137-39h131V0H504Q352 0 278.5 70.5T205 303v694H49z"/><glyph unicode="u" horiz-adv-x="1296" d="M154 465v653h141V481q0-182 91-278.5T635 106q162 0 258 102.5T989 510v608h144V0H989v197Q940 93 837.5 37.5T608-18q-201 0-327.5 123.5T154 465z"/><glyph unicode="v" horiz-adv-x="1120" d="M31 1118h153l377-979 377 979h152L641 0H479z"/><glyph unicode="w" horiz-adv-x="1669" d="M31 1118h145l279-973 313 973h143l310-975 276 975h141L1288 0h-143L836 938 526 0H381z"/><glyph unicode="x" horiz-adv-x="942" d="m31 0 360 559-356 559h162l284-444 277 444h149L551 565 911 0H750L461 451 182 0H31z"/><glyph unicode="y" horiz-adv-x="1116" d="M31 1118h157l381-954 369 954h147L422-526H272L489 6z"/><glyph unicode="z" horiz-adv-x="903" d="M76 0v119l575 880H86v119h729V999L240 119h585V0H76z"/><glyph unicode="{" horiz-adv-x="845" d="M176 707v116q215 49 215 240 0 94-22 262-2 18-12.5 113.5T346 1614q0 147 80 222t217 75h102v-125h-77q-90 0-136.5-43T485 1604q0-72 10.5-163t12.5-112q23-172 22-270 0-113-56-189.5T301 766v-4q117-27 173-103.5T530 469q0-96-22-268-2-23-12.5-114T485-76q0-96 46.5-139T668-258h77v-125H643q-137 0-217 75T346-86q0 80 10.5 175T369 205q23 170 22 260 0 190-215 242z"/><glyph unicode="|" horiz-adv-x="534" d="M197-205v1823h143V-205H197z"/><glyph unicode="}" horiz-adv-x="845" d="M100-258h78q90 0 136 43t46 139q0 72-10 163t-12 114q-23 172-23 268 0 113 56.5 189.5T545 762v4q-117 27-173.5 103.5T315 1059q0 98 23 270 2 20 12 111.5t10 163.5q0 96-46 139t-136 43h-78v125h103q137 0 217-75t80-222q0-80-10.5-175.5T477 1325q-23-168-22-262 0-190 215-240V707q-215-52-215-242 0-90 22-260 2-20 12.5-115.5T500-86q0-147-80-222t-217-75H100v125z"/><glyph unicode="~" horiz-adv-x="997" d="M78 526q22 131 86.5 198T332 791q55 0 98-19.5t98-56.5q53-33 83-47.5t65-14.5q55 0 91 37t44 98h109q-43-264-254-264-51 0-91 18.5T475 598q-49 33-81 48.5T324 662q-53 0-90-38t-48-98H78z"/><glyph unicode="¢" horiz-adv-x="1314" d="M129 541q0 219 124 361t339 159v196h90v-194q184-10 301-112.5T1122 690H987q-25 119-115 186.5T645 944q-166 0-272.5-105.5T266 541q0-193 106.5-297.5T645 139q137 0 227.5 67.5T987 393h135q-23-158-139.5-260T682 20v-204h-90V23Q377 39 253 180.5T129 541z"/><glyph unicode="£" horiz-adv-x="1220" d="M94 643v102h197q-31 90-47.5 157T227 1051q0 123 53.5 217T431 1414t222 52q203 0 313.5-116.5T1090 1053H958q-8 131-86.5 212T653 1346q-125 0-208-75t-83-227q0-74 17.5-139T430 745h397V643H465q27-98 27-162 0-104-38-192T338 119h754V-2H209l-25 86q88 100 130 185t42 208q0 74-28 166H94z"/><glyph unicode="¥" horiz-adv-x="1198" d="M70 1432h161l371-744 371 744h162L782 762h303V655l-358-2-51-96v-96h409V352H676V0H532v352H123v109h409v96l-51 96-358 2v107h301z"/><glyph unicode="¨" horiz-adv-x="645" d="M72 1370q0 39 27.5 66.5T166 1464t66.5-27.5T260 1370t-27.5-66.5T166 1276t-66.5 27.5T72 1370zm315 0q0 39 27.5 66.5T481 1464t65.5-27.5T573 1370t-26.5-66.5T481 1276t-66.5 27.5T387 1370z"/><glyph unicode="©" horiz-adv-x="1630" d="M109 717q0 211 89 374.5t249.5 256T815 1440t367.5-92.5 250-256T1522 717t-89.5-376-250-257T815-8 447.5 84 198 341t-89 376zm73 0q0-193 78-341.5T481.5 144 815 61t333.5 83T1370 375.5t78 341.5-78 341-220 231-335 83q-192 0-334.5-83T260 1057.5 182 717zm191 2q0-147 59.5-256T592 297t223-57q152 0 265.5 83T1233 547h-133q-33-98-106.5-149.5T815 346q-135 0-224 97.5T502 717t89 274.5 224 98.5q100 0 177-52.5T1100 887h133q-39 147-151.5 228T815 1196q-123 0-223-57.5t-159.5-166T373 719z"/><glyph unicode="«" horiz-adv-x="890" d="m92 604 203 359h145L231 604l209-358H295zm348 0 203 359h145L580 604l208-358H643z"/><glyph unicode="­" horiz-adv-x="1062" d="M61 698v121h797V698H61z"/><glyph unicode="®" horiz-adv-x="1028" d="M111 1038q0 117 52 211t144 147.5 209 53.5 208-53.5T867.5 1249t52.5-211-52.5-210T724 682t-208-53-209 53-144 146.5-52 209.5zm73 0q0-150 91.5-246T516 696q148 0 239 96.5t91 245.5q0 150-91 246t-239 96q-150 0-241-96t-91-246zm172-217v441h191q68 0 107.5-36t39.5-98q0-51-28.5-84.5T586 999l123-176-105-2-112 174h-48V821h-88zm88 248h97q29 0 47 14.5t18 42.5q0 29-18.5 42.5T541 1182h-97v-113z"/><glyph unicode="´" horiz-adv-x="518" d="M49 1204v111l420 262v-129z"/><glyph unicode="¸" horiz-adv-x="542" d="M49-432h176q76 0 112 25.5t36 78.5q0 98-148 99h-94V14h100v-151q121 4 192-46t71-145q0-92-66-146t-174-54H49v96z"/><glyph unicode="»" horiz-adv-x="890" d="m102 246 209 358-209 359h146l203-359-203-358H102zm349 0 208 358-208 359h145l203-359-203-358H451z"/><glyph unicode="ˆ" horiz-adv-x="647" d="M49 1237v117l275 168 274-168v-117l-274 172z"/><glyph unicode="˚" horiz-adv-x="507" d="M45 1454q0 92 60.5 148.5T254 1659q90 0 149.5-56.5T463 1454t-59.5-148.5T254 1249q-88 0-148.5 56.5T45 1454zm90 0q0-55 34-90t85-35 86 35 35 90q0 57-35 91t-86 34-85-34-34-91z"/><glyph unicode="˜" horiz-adv-x="684" d="M49 1241q12 92 59.5 141.5T229 1432q37 0 63.5-13.5T356 1380q31-23 53.5-34t49.5-11q35 0 59.5 23.5T549 1427h86q-8-90-58.5-140T453 1237q-39 0-67 13.5t-64 39.5q-29 23-50.5 33t-48.5 10q-74 0-86-92H49z"/><glyph horiz-adv-x="962"/><glyph horiz-adv-x="1925"/><glyph horiz-adv-x="962"/><glyph horiz-adv-x="1925"/><glyph horiz-adv-x="641"/><glyph horiz-adv-x="481"/><glyph horiz-adv-x="320"/><glyph horiz-adv-x="320"/><glyph horiz-adv-x="240"/><glyph horiz-adv-x="385"/><glyph horiz-adv-x="106"/><glyph unicode="‐" horiz-adv-x="1062" d="M61 698v121h797V698H61z"/><glyph unicode="‑" horiz-adv-x="1062" d="M61 698v121h797V698H61z"/><glyph unicode="‒" horiz-adv-x="1062" d="M61 698v121h797V698H61z"/><glyph unicode="–" horiz-adv-x="1329" d="M133 698v121h1063V698H133z"/><glyph unicode="—" horiz-adv-x="1738" d="M133 698v121h1473V698H133z"/><glyph unicode="‘" horiz-adv-x="403" d="m49 989 178 443h105L215 989H49z"/><glyph unicode="’" horiz-adv-x="403" d="m63 989 119 443h166L168 989H63z"/><glyph unicode="‚" horiz-adv-x="327" d="m-16-246 118 443h166L88-246H-16z"/><glyph unicode="“" horiz-adv-x="700" d="m49 989 178 443h105L215 989H49zm297 0 180 443h105L512 989H346z"/><glyph unicode="”" horiz-adv-x="700" d="m63 989 119 443h166L168 989H63zm297 0 119 443h166L465 989H360z"/><glyph unicode="„" horiz-adv-x="628" d="m-16-246 118 443h166L88-246H-16zm303 0 116 443h166L391-246H287z"/><glyph unicode="…" horiz-adv-x="1081" d="M84 96q0 45 29.5 75t74.5 30q43 0 73-30t30-75-30-75.5T188-10q-45 0-74.5 30.5T84 96zm358 0q0 45 29.5 75t74.5 30q43 0 73-30t30-75-30-75.5T546-10q-45 0-74.5 30.5T442 96zm359 0q0 45 29.5 75t74.5 30q43 0 73-30t30-75-30-75.5T905-10q-45 0-74.5 30.5T801 96z"/><glyph horiz-adv-x="385"/><glyph unicode="‹" horiz-adv-x="542" d="m92 604 203 359h145L231 604l209-358H295z"/><glyph unicode="›" horiz-adv-x="542" d="m102 246 209 358-209 359h146l203-359-203-358H102z"/><glyph horiz-adv-x="481"/><glyph unicode="€" horiz-adv-x="1675" d="M47 489v103h191q-8 55-9 125 0 55 7 106H47v103h209q39 156 136 274.5t235.5 183T930 1448q238 0 409.5-113.5T1589 1014h-168q-61 143-187 224t-304 81q-188 0-329.5-105.5T406 926h526V823H383q-6-51-6-106 0-59 10-125h545V489H412q57-174 195-273t323-99q178 0 304 79.5T1421 418h168q-80-205-251-317.5T930-12q-242 0-423 136T260 489H47z"/><glyph unicode="™" horiz-adv-x="1544" d="M55 1348v94h488v-94H356l2-627H240l2 627H55zm600-627v721h146l246-582 253 582h140V721h-109l-2 551-242-551h-86l-239 557V721H655z"/><glyph unicode="◼" horiz-adv-x="1116" d="M0 0v1116h1116V0H0z"/></font>
</defs>
</svg>
