<svg xmlns="http://www.w3.org/2000/svg"><defs><font id="intersemi_bold" horiz-adv-x="1213"><font-face units-per-em="2048" ascent="1638" descent="-410"/><glyph horiz-adv-x="0"/><glyph horiz-adv-x="682"/><glyph horiz-adv-x="508"/><glyph horiz-adv-x="508"/><glyph horiz-adv-x="508"/><glyph unicode="!" horiz-adv-x="632" d="M457 1489 433 438H199l-23 1051h281zM316-16q-67 0-114 46.5T156 144q-1 65 46 112t114 47q65 0 112-47t48-112q-1-66-48-113T316-16z"/><glyph unicode="&quot;" horiz-adv-x="810" d="M317 1489V941H116v548h201zm375 0V941H491v548h201z"/><glyph unicode="#" horiz-adv-x="1317" d="m697 0 63 384H440L377 0H173l63 384H25l35 204h210l51 314H112l33 203h209l63 384h204l-63-384h320l63 384h204l-64-384h211l-34-203h-210l-51-314h209l-34-204H964L900 0H697zM473 588h320l51 314H524z"/><glyph unicode="$" horiz-adv-x="1329" d="M612-186v165Q375-7 237.5 113T93 440h266q7-100 75.5-158.5T612 211v438l-83 22q-397 102-397 400-1 180 133.5 299T612 1507v169h120v-168q216-14 348-131.5t136-296.5H956q-9 83-68 135t-156 64V864l67-17q90-21 163.5-54t137.5-83 100-124.5 36-167.5q-1-188-134-306T732-21v-165H612zm120 398q107 14 170.5 69.5T967 420q-1 76-59.5 121T732 618V212zM612 895v382q-96-13-150.5-64.5T406 1087t56-119.5T612 895z"/><glyph unicode="%" horiz-adv-x="1728" d="M929 279v79q0 136 85 228.5t230 92.5q149 0 232-91.5t83-229.5v-79q0-136-84-228t-231-92-231 92-84 228zm-757 853v78q0 137 84.5 229t230.5 92q149 0 231.5-91.5T801 1210v-78q0-137-83.5-228.5T487 812q-148 0-231.5 92T172 1132zM254 0l1024 1489h182L436 0H254zm865 358v-79q0-65 30-109t95-44 94 43.5 29 109.5v79q0 67-28.5 111t-94.5 44q-64 0-94.5-45T1119 358zm-756 852v-78q0-65 29.5-109.5T487 978t94 44 29 110v78q0 67-28.5 111t-94.5 44q-64 0-94-45t-30-110z"/><glyph unicode="&amp;" horiz-adv-x="1357" d="M580-22Q356-22 222.5 96T89 396q0 64 19.5 119T168 618t86.5 87.5T369 792q-73 91-113 173.5T216 1140q0 161 108 264.5T607 1508q171 0 274.5-98.5T985 1169q0-195-198-339l-94-69 272-319q63 118 63 260h226q0-274-130-447L1343 0h-286l-95 109q-75-65-176.5-98T580-22zm239 295L510 627l-24-18q-70-51-104-105t-34-97q0-90 66.5-151T588 195q122 0 231 78zM559 921l84 58q60 39 89 81t29 98q0 52-42 93t-109 41q-69 0-114-46.5T451 1136q0-83 108-215z"/><glyph unicode="'" horiz-adv-x="436" d="M317 1489V941H116v548h201z"/><glyph unicode="(" horiz-adv-x="805" d="M201 607q0 534 288 925h248q-112-145-187-407t-75-518 75-516.5T737-316H489Q201 75 201 607z"/><glyph unicode=")" horiz-adv-x="805" d="M605 607q0-533-288-924H69Q181-171 256 90t75 517-75 517-187 407h248q288-391 288-924z"/><glyph unicode="*" horiz-adv-x="1112" d="m468 652 16 294-247-162-89 154 264 133-264 132 89 154 247-162-16 294h176l-16-294 248 162 88-154-264-132 264-133-88-154-248 162 16-294H468z"/><glyph unicode="+" horiz-adv-x="1377" d="M575 88v389H185v228h390v390h228V705h389V477H803V88H575z"/><glyph unicode="," horiz-adv-x="604" d="m444 204-9-80Q415-59 299-364H121q1 4 10.5 43t14 59 14 63 15.5 76 13 76.5T200 39t7 83l5 82h232z"/><glyph unicode="-" horiz-adv-x="954" d="M812 729V512H142v217h670z"/><glyph unicode="." horiz-adv-x="594" d="M297-16q-67 0-114 46.5T137 144q-1 65 46 112t114 47q65 0 112-47t48-112q-1-66-48-113T297-16z"/><glyph unicode="/" horiz-adv-x="775" d="M743 1559 263-224H33l480 1783h230z"/><glyph unicode="0" horiz-adv-x="1365" d="M683-28q-270 0-422 203T109 743q1 364 153 565.5T683 1510q270 0 422-202t152-565q0-366-152-569T683-28zm0 227q142 0 222 140t80 404q-1 262-81 402t-221 140-220.5-139.5T382 743q-1-264 79.5-404T683 199z"/><glyph unicode="1" horiz-adv-x="984" d="M738 1489V0H468v1227h-8l-349-223v248l370 237h257z"/><glyph unicode="2" horiz-adv-x="1272" d="M132 0v195l517 507q123 125 173 200t50 162q0 103-69.5 165T625 1291q-111 0-178-66.5T380 1044H124q0 210 140.5 338T628 1510t363-122 140-310q0-128-78-251.5T761 497L505 236v-11h648V0H132z"/><glyph unicode="3" horiz-adv-x="1334" d="M667-20q-155 0-278.5 53.5T194.5 184 121 405h273q5-90 81.5-144.5T666 206q120 0 197 62t76 160q1 103-80 166t-220 63H508v208h131q116 0 189 59.5t72 156.5q1 94-62.5 152T670 1291q-106 0-180.5-56T412 1088H152q3 122 72 219t186.5 150 260.5 53q218 0 354.5-119.5T1161 1097q1-123-72.5-209T892 775v-11q155-22 240.5-115.5T1217 414q0-124-70.5-223.5t-196-155T667-20z"/><glyph unicode="4" horiz-adv-x="1363" d="M105 276v215l632 998h336V498h191V276h-191V0H816v276H105zm714 222v686h-12L382 510v-12h437z"/><glyph unicode="5" horiz-adv-x="1295" d="M650-20q-218 0-363.5 120T136 405h262q7-91 78.5-149T650 198q120 0 197.5 80T924 483q1 126-78.5 207.5T643 773q-66 1-131-25t-103-67l-244 40 78 768h864v-225H466l-43-395h9q43 50 119 82t164 32q204 0 337-139.5T1185 489q0-223-149.5-366T650-20z"/><glyph unicode="6" horiz-adv-x="1327" d="M678-20q-74 0-141.5 16t-133 50-118 91.5-92.5 135T131 460t-22 243q0 379 157 593t427 214q207 0 345-118.5t163-303.5H935q-21 87-84.5 137.5T693 1276q-154 0-237.5-133.5T371 772h10q53 96 152.5 151T753 978q197 0 330-138t132-347q1-224-149-369T678-20zm-2 218q118 0 198 83.5T953 487q1 121-77 203t-196 82q-117 0-198-84.5T400 485q1-119 79.5-203T676 198z"/><glyph unicode="7" horiz-adv-x="1202" d="m187 0 633 1254v10H85v225h1015v-230L467 0H187z"/><glyph unicode="8" horiz-adv-x="1322" d="M662-20Q419-20 263 98.5T108 399q-1 138 88.5 243.5T419 770v10q-114 25-185.5 117.5T163 1111q0 114 64 205t178 142.5 257 51.5q215 0 356-113.5t142-285.5q-1-121-72-213.5T904 780v-10q131-22 220.5-127.5T1215 399q-1-182-156.5-300.5T662-20zm0 208q125 0 200 63.5T938 418q-1 106-79 175t-197 69q-121 0-199.5-68.5T385 418q-1-103 75-166.5T662 188zm0 678q102 0 168 61t67 158q-1 96-66 155t-169 59q-106 0-171.5-59T426 1085q-1-96 65.5-157.5T662 866z"/><glyph unicode="9" horiz-adv-x="1327" d="M649 1510q90 0 169.5-22.5t154-75.5 127.5-133 85.5-205 32.5-283q1-381-156.5-596T634-20Q426-20 288.5 99T127 406h265q21-90 83.5-141.5T634 213q154 0 237.5 133.5T956 721h-10q-54-96-152.5-150.5T574 516q-197 0-329 136.5T112 999q0 222 149 367t388 144zm1-218q-118 0-197-83t-79-204q1-121 78-202.5T647 721q117 0 199 85t81 201q0 116-80 200.5T650 1292z"/><glyph unicode=":" horiz-adv-x="594" d="M297-16q-67 0-114 46.5T137 144q-1 65 46 112t114 47q65 0 112-47t48-112q-1-66-48-113T297-16zm0 798q-67 0-114 46.5T137 942q-1 65 46 111.5t114 46.5q65 0 112-46.5T457 942q-1-66-48-113t-112-47z"/><glyph unicode=";" horiz-adv-x="604" d="m444 204-9-80Q415-59 299-364H121q1 4 10.5 43t14 59 14 63 15.5 76 13 76.5T200 39t7 83l5 82h232zM324 782q-67 0-114 46.5T164 942q-1 65 46 111.5t114 46.5q65 0 112-46.5T484 942q-1-66-48-113t-112-47z"/><glyph unicode="&lt;" horiz-adv-x="1377" d="M191 487v209l995 460V897L487 598v-13l699-300V27z"/><glyph unicode="=" horiz-adv-x="1377" d="M205 246v225h968V246H205zm0 465v225h968V711H205z"/><glyph unicode="&gt;" horiz-adv-x="1377" d="M1186 487 191 27v258l699 300v13L191 897v259l995-460V487z"/><glyph unicode="?" horiz-adv-x="1114" d="M387 438v19q0 126 26 208.5T479 791t112 88q156 97 156 227 0 84-58 136.5T546 1295q-83 0-143-53t-65-150H79q5 199 137 308.5T548 1510q210 0 339.5-108.5T1017 1110q0-226-218-356-62-38-97.5-76t-54-91.5T629 457v-19H387zM514-16q-67 0-114 46.5T354 144q-1 65 46 112t114 47q65 0 112-47t48-112q-1-66-48-113T514-16z"/><glyph unicode="@" horiz-adv-x="2046" d="M1071-417q-457 0-706 244T115 516q0 289 112.5 503t329 331 514.5 117q208 0 377-65t280-179.5T1898.5 954t59.5-334q2-609-402-624-110-6-178.5 36.5T1296 157h-9q-27-68-117.5-113T960 5q-183 8-297.5 146.5T548 525q0 113 33.5 206t90 154T798 983t148 47q113 16 208-17t113-84h10v81h203V318q1-55 27-88.5t72-33.5q86 0 124.5 104.5T1741 632q0 152-50.5 273T1549 1104t-214.5 119.5T1065 1265q-175 0-313-54.5t-227.5-154-136-235.5T342 519q0-354 191-542.5T1084-212q110 0 220.5 23.5T1486-138l62-185q-73-38-208-66t-269-28zm-51 631q135 0 194 79t57 242q-1 151-58 218.5T1022 821q-119 0-187-79.5T766 534q0-66 13.5-121t42-101 79-72 119.5-26z"/><glyph unicode="A" horiz-adv-x="1482" d="M338 0H50l525 1489h333L1433 0h-288l-124 367H461zm196 584h414l-201 600h-12z"/><glyph unicode="B" horiz-adv-x="1346" d="M147 0v1489h570q234 0 358.5-106.5T1200 1103q0-129-72-209.5T940 786v-14q128-6 223-106t95-260q0-182-130.5-294T750 0H147zm270 225h290q141 0 209 54t68 148q0 102-73.5 168.5T714 662H417V225zm0 631h267q107 0 176.5 58t69.5 154q0 89-62.5 144T689 1267H417V856z"/><glyph unicode="C" horiz-adv-x="1522" d="M1422 987h-272q-23 131-119.5 206T796 1268q-187 0-301.5-138T380 745q0-250 114.5-386.5T795 222q136 0 233 72t122 201l272-2q-15-107-66.5-200t-131-163T1033 20 791-20q-197 0-350.5 90T198 335t-89 410q0 177 52 322t143 241.5 216 149 271 52.5q252 0 424.5-139.5T1422 987z"/><glyph unicode="D" horiz-adv-x="1483" d="M652 0H147v1489h515q333 0 523-197.5T1375 746q0-349-191.5-547.5T652 0zM417 233h222q468 0 468 513 0 510-460 510H417V233z"/><glyph unicode="E" horiz-adv-x="1244" d="M147 0v1489h969v-226H417V859h648V633H417V226h704V0H147z"/><glyph unicode="F" horiz-adv-x="1199" d="M147 0v1489h954v-226H417V859h619V633H417V0H147z"/><glyph unicode="G" horiz-adv-x="1546" d="M1145 1014q-37 120-127 187t-223 67q-185 0-300-138T380 746q0-248 115-386t306-138q168 0 267.5 94T1171 569H828v211h604V601q0-189-81.5-330.5T1126 54.5 799-20q-311 0-500.5 206.5T109 743q0 176 52 321.5T304 1307t216 150 271 53q246 0 420-138t209-358h-275z"/><glyph unicode="H" horiz-adv-x="1523" d="M147 0v1489h270V859h690v630h270V0h-270v633H417V0H147z"/><glyph unicode="I" horiz-adv-x="562" d="M417 1489V0H147v1489h270z"/><glyph unicode="J" horiz-adv-x="1148" d="M735 1489h267V442q-1-214-132.5-338T521-20Q317-20 188.5 88.5T60 396h268q1-90 57-142.5T532 201q97 0 149.5 62T735 442v1047z"/><glyph unicode="K" horiz-adv-x="1386" d="M147 0v1489h270V805h18l581 684h329L769 821 1351 0h-325L582 639 417 444V0H147z"/><glyph unicode="L" horiz-adv-x="1159" d="M147 0v1489h270V226h656V0H147z"/><glyph unicode="M" horiz-adv-x="1856" d="M147 1489h330L919 410h18l442 1079h330V0h-259v1023h-14L1025 4H831L420 1025h-14V0H147v1489z"/><glyph unicode="N" horiz-adv-x="1517" d="M1371 1489V0h-240L429 1015h-12V0H147v1489h241l701-1015h14v1015h268z"/><glyph unicode="O" horiz-adv-x="1586" d="M1478 745q0-177-52-322t-144-241.5-217-149T793-20 521 32.5t-216.5 149T161 423t-52 322 52 322 143.5 241.5 216.5 149 272 52.5 272-52.5 217-149 144-241.5 52-322zm-271 0q0 249-113.5 386T793 1268q-186 0-299.5-137.5T380 745t113.5-385.5T793 222q187 0 300.5 137T1207 745z"/><glyph unicode="P" horiz-adv-x="1317" d="M147 0v1489h558q250 0 388-136.5T1231 996q0-221-138.5-357T702 503H417V0H147zm270 725h248q145 0 218 73t73 198q0 124-73 196t-219 72H417V725z"/><glyph unicode="Q" horiz-adv-x="1588" d="M1478 745q0-198-63.5-352.5T1236 137l206-265h-262L1057 28Q936-20 793-20q-147 0-272 52.5t-216.5 149T161 423t-52 322 52 322 143.5 241.5 216.5 149 272 52.5 272-52.5 217-149 144-241.5 52-322zM702 500h244l127-164q134 140 134 409 0 249-113.5 386T793 1268q-186 0-299.5-137.5T380 745t113.5-385.5T793 222q56 0 110 14z"/><glyph unicode="R" horiz-adv-x="1332" d="M147 0v1489h558q251 0 388.5-129t137.5-347q0-152-68.5-260.5T963 591L1285 0H984L692 545H417V0H147zm270 769h248q291 0 291 244 0 251-292 251H417V769z"/><glyph unicode="S" horiz-adv-x="1329" d="M956 1080q-10 95-84.5 148T676 1281q-124 0-196.5-54T406 1087q0-44 21-79.5t60.5-59 79.5-39 92-27.5l140-35q90-21 163.5-54t137.5-83 100-124.5 36-167.5q-1-200-151-320.5T671-23Q409-23 255 98.5T93 440h266q8-113 93-172.5T669 208t214.5 58.5T967 420q-1 81-67.5 127T699 627l-170 44q-397 102-397 400 0 129 71 229.5t195.5 155T679 1510q236 0 384.5-120t152.5-310H956z"/><glyph unicode="T" horiz-adv-x="1351" d="M81 1263v226h1189v-226H809V0H542v1263H81z"/><glyph unicode="U" horiz-adv-x="1502" d="M1086 1489h270V516q0-241-166.5-390T751-23 313 126 147 516v973h270V539q0-142 91-231.5T751 218q151 0 243 89.5t92 231.5v950z"/><glyph unicode="V" horiz-adv-x="1482" d="M346 1489 734 317h15l387 1172h297L908 0H575L50 1489h296z"/><glyph unicode="W" horiz-adv-x="2061" d="M460 0 40 1489h290L599 395h13l287 1094h264l287-1095h13l269 1095h290L1601 0h-266l-298 1045h-12L727 0H460z"/><glyph unicode="X" horiz-adv-x="1413" d="m372 1489 328-545h12l329 545h308L890 745 1356 0h-312L712 542h-12L369 0H57l471 745-465 744h309z"/><glyph unicode="Y" horiz-adv-x="1442" d="M45 1489h305l364-658h15l364 658h305L856 556V0H587v556z"/><glyph unicode="Z" horiz-adv-x="1336" d="M119 0v168l764 1095H115v226h1102v-168L455 226h767V0H119z"/><glyph unicode="[" horiz-adv-x="805" d="M225-316v1848h526v-203H479V-115h272v-201H225z"/><glyph unicode="\" horiz-adv-x="775" d="M513-224 33 1559h230L743-224H513z"/><glyph unicode="]" horiz-adv-x="805" d="M580 1531V-317H55v202h272v1444H55v202h525z"/><glyph unicode="^" horiz-adv-x="985" d="m72 815 305 637h232l304-637H700l-202 447h-11L287 815H72z"/><glyph unicode="_" horiz-adv-x="958" d="M961 0v-210H-1V0h962z"/><glyph unicode="`" horiz-adv-x="1018" d="m522 1264-223 332h258l162-332H522z"/><glyph unicode="a" horiz-adv-x="1176" d="M457-23q-166 0-270 88T83 313q0 73 24 129.5t62 92.5 95.5 61 114 37T507 653q13 1 37 4 154 16 192 31 47 19 47 65v5q0 83-49 127.5T594 930t-149.5-40T365 788l-246 35q43 150 168.5 229.5T593 1132q67 0 129-11.5t122.5-39.5 104.5-70.5 71-110 27-152.5V0H793v153h-8Q745 76 662.5 26.5T457-23zm68 194q116 0 187.5 67T784 401v131q-33-27-241-54-206-30-206-160 0-71 51.5-109T525 171z"/><glyph unicode="b" horiz-adv-x="1290" d="M147 0v1489h263V932h11q99 200 319 200 201 0 331-152.5T1201 557q0-269-128.5-423T741-20q-221 0-320 196h-15V0H147zm258 559q0-165 69.5-264T668 196q127 0 196 100.5T933 559q0 161-68.5 259T668 916q-125 0-194-96t-69-261z"/><glyph unicode="c" horiz-adv-x="1182" d="M623-22q-247 0-391.5 159.5T87 554q0 258 145.5 418T621 1132q204 0 335-110t145-292H849q-16 85-74 137t-150 52q-123 0-197-96.5T354 559q0-170 73.5-268T625 193q88 0 147.5 50T849 382h252q-15-181-143-292.5T623-22z"/><glyph unicode="d" horiz-adv-x="1290" d="M550-20q-203 0-332 154T89 557q0 270 130.5 422.5T551 1132q220 0 319-200h11v557h264V0H886v176h-16Q771-20 550-20zm73 216q124 0 193.5 99T886 559t-69 261-194 96q-128 0-196.5-98T358 559q0-162 69-262.5T623 196z"/><glyph unicode="e" d="M630-22q-252 0-397.5 155T87 552q0 260 145 420t384 160q106 0 196.5-34T974 997t112-177.5 41-252.5v-80H348q1-142 78.5-223T633 183q86 0 148 37t89 107l246-27q-36-148-165-235T630-22zM349 664h525q-1 115-71.5 189T620 927q-115 0-190-76t-81-187z"/><glyph unicode="f" horiz-adv-x="772" d="M701 1117V913H469V0H206v913H41v204h165v106q0 162 98 249t251 87q115 0 200-30l-53-204q-50 16-98 16-71 0-103-34t-32-102v-88h232z"/><glyph unicode="g" horiz-adv-x="1280" d="M621-442q-203 0-329 78.5T128-160l237 57q69-140 260-140 119 0 189 57t70 175v212h-13Q778 16 550 16q-98 0-181 34.5t-146 101-98.5 172T89 562q0 134 36 243t98.5 180T370 1094t181 38q221 0 320-200h15v185h259V-18q0-207-144-315.5T621-442zm2 665q125 0 194 90t69 251q0 162-69 257t-194 95q-127 0-196-97t-69-255 68.5-249.5T623 223z"/><glyph unicode="h" horiz-adv-x="1255" d="M399 655V0H135v1489h258V927h13q84 205 332 205 177 0 281-110.5T1123 711V0H860v671q0 113-58 175.5T640 909q-108 0-174.5-67.5T399 655z"/><glyph unicode="i" horiz-adv-x="533" d="M135 0v1117h264V0H135zm133 1276q-63 0-108 41.5T115 1418t45 101 108 42 107.5-42 44.5-101-44.5-100.5T268 1276z"/><glyph unicode="j" horiz-adv-x="533" d="M135 1117h264V-64q0-178-100.5-266.5T10-419q-16 0-54 2v214q15-1 38-1 74 0 107.5 36T135-60v1177zm131 159q-63 0-108 41.5T113 1418t45 101 108 42 107.5-42 44.5-101-44.5-100.5T266 1276z"/><glyph unicode="k" horiz-adv-x="1165" d="M135 0v1489h264V668h18l401 449h308L693 635 1151 0H836L495 478l-96-103V0H135z"/><glyph unicode="l" horiz-adv-x="533" d="M399 1489V0H135v1489h264z"/><glyph unicode="m" horiz-adv-x="1838" d="M135 0v1117h252V927h13q36 96 116.5 150.5T708 1132q112 0 190.5-54.5T1010 927h12q37 94 126 149.5t209 55.5q158 0 253.5-100t95.5-282V0h-264v709q0 99-53 150t-137 51q-94 0-148.5-58.5T1049 697V0H791v720q0 86-51.5 138T604 910q-86 0-145.5-65T399 679V0H135z"/><glyph unicode="n" horiz-adv-x="1248" d="M399 655V0H135v1117h252V927h13q39 96 125 150.5t208 54.5q176 0 280-111.5T1116 711V0H852v671q0 112-57.5 175T635 909q-106 0-171-67.5T399 655z"/><glyph unicode="o" horiz-adv-x="1245" d="M623-22q-244 0-390 158T87 554q0 261 146 419.5T623 1132t389.5-158.5T1158 554q0-260-145.5-418T623-22zm1 211q128 0 197.5 103T891 555q0 161-69.5 264.5T624 923q-130 0-200-103.5T354 555t70-263.5T624 189z"/><glyph unicode="p" horiz-adv-x="1279" d="M135-419v1536h259V932h15q99 200 320 200 201 0 331-152.5T1190 557q0-269-129-423T729-20q-221 0-320 196h-10v-595H135zm258 978q0-165 69.5-264T656 196q127 0 196 100.5T921 559q0 161-68.5 259T656 916q-125 0-194-96t-69-261z"/><glyph unicode="q" horiz-adv-x="1279" d="M881-419v595h-11Q771-20 550-20q-203 0-332 154T89 557q0 270 130.5 422.5T551 1132q220 0 319-200h16v185h259V-419H881zM623 196q124 0 193.5 99T886 559t-69 261-194 96q-128 0-196.5-98T358 559q0-162 69-262.5T623 196z"/><glyph unicode="r" horiz-adv-x="812" d="M135 0v1117h256V931h11q30 96 104.5 149t171.5 53q52 0 94-7V884q-49 15-122 15-109 0-180-68t-71-174V0H135z"/><glyph unicode="s" horiz-adv-x="1124" d="m1018 822-240-26q-16 60-68.5 99.5T572 935q-83 0-138-36t-54-92q-1-49 36-79.5T537 678l191-41q159-35 236-109t78-193q-1-159-134-258T565-22q-204 0-329 86T86 305l257 24q35-152 221-152 93 0 150.5 38t57.5 96q0 94-150 127l-191 40q-316 65-314 315-1 154 124 246.5t328 92.5q192 0 306.5-82.5T1018 822z"/><glyph unicode="t" horiz-adv-x="778" d="M693 1117V913H473V336q0-74 31.5-101.5T592 207q40 0 77 10l44-206q-74-24-154-26-155-5-253 75t-97 232v621H51v204h158v268h264v-268h220z"/><glyph unicode="u" horiz-adv-x="1245" d="M847 470v647h264V0H855v199h-11q-40-97-127.5-155.5T508-15Q340-15 237.5 96.5T135 406v711h264V447q0-106 57-169t153-63q95 0 166.5 67.5T847 470z"/><glyph unicode="v" horiz-adv-x="1179" d="M1133 1117 735 0H444L47 1117h280l257-830h12l257 830h280z"/><glyph unicode="w" horiz-adv-x="1714" d="M366 0 50 1117h269l196-785h10l201 785h265l201-781h11l193 781h269L1349 0h-274L865 755h-15L641 0H366z"/><glyph unicode="x" horiz-adv-x="1152" d="m351 1117 225-412 229 412h279L747 559 1089 0H812L576 402 342 0H63l340 559-332 558h280z"/><glyph unicode="y" horiz-adv-x="1179" d="M299-419q-105 0-172 28l61 205q58-16 102.5-16.5t79.5 28T429-84l23 61L47 1117h279l257-844h12l258 844h280L686-135Q585-419 299-419z"/><glyph unicode="z" horiz-adv-x="1150" d="M121 0v167l576 722v10H140v218h879V937L471 228v-10h567V0H121z"/><glyph unicode="{" horiz-adv-x="805" d="M751-316q-92 0-160 10t-127.5 36.5T367-198 309.5-82.5 289 85v185q0 116-49.5 165.5T68 485v244q122 0 171.5 50T289 945v185q0 97 20.5 167.5T367 1413t96 72 127.5 37 160.5 10v-203q-123 0-167-50.5T540 1109V871q0-95-53-159t-189-91v-28q137-27 189.5-90T540 345V106q0-119 44-170t167-51v-201z"/><glyph unicode="|" horiz-adv-x="733" d="M489 1969V-480H244v2449h245z"/><glyph unicode="}" horiz-adv-x="805" d="M55 1531q116 0 196-17t142.5-60.5T486 1330t30-201V945q0-116 50-166t172-50V485q-122 0-172-49.5T516 270V84q0-97-20.5-167.5T438-199t-96-71.5T215-307 55-317v202q123 0 167 50.5T266 105v239q0 46 10.5 82t36.5 69.5 75 58.5 120 39v28q-71 14-120 39t-75 58.5-36.5 69.5-10.5 82v238q0 119-44 170t-167 51v202z"/><glyph unicode="~" horiz-adv-x="1377" d="M161 415q-6 191 79 294t226 103q70 0 131.5-29.5T740 682q50-44 79-61t65-17q57 0 91 43.5t32 127.5h210q5-191-80.5-293T912 380q-72 0-134.5 29.5T636 508q-54 47-80.5 63T493 587q-57 0-90-42t-32-130H161z"/><glyph unicode="¢" horiz-adv-x="1182" d="M559 0v171q-219 22-345.5 178T87 744q0 241 127.5 397.5T559 1319v170h119v-170q182-16 296-123.5T1101 920H849q-13 71-57.5 120T678 1104V388q67 14 112 61.5T849 572h252q-13-168-126-277.5T678 170V0H559zm0 391v710q-95-25-150-117.5T354 748q0-145 54.5-238.5T559 391z"/><glyph unicode="£" horiz-adv-x="1347" d="M1191 0H141v226h82q34 4 54 38t26 73.5 5 85.5l-5 165H136v221h159l-8 249q-4 108 30.5 195t98 142.5 148 85T745 1510q218 0 345-125t107-309l-252 21q6 93-50.5 142T752 1288q-87 0-145-59t-57-171l9-249h336V588H567l6-153q6-132-60-209h678V0z"/><glyph unicode="¥" horiz-adv-x="1155" d="m311 1489 267-623 266 623h283L781 759h233V596H708V471h306V308H708V0H441v308H121v163h320v125H121v163h253L29 1489h282z"/><glyph unicode="¨" horiz-adv-x="1133" d="M349 1281q-57 0-99 41t-42 96q0 58 41.5 98t99.5 40q59 0 99.5-40t40.5-98q0-56-40.5-96.5T349 1281zm436 0q-57 0-99 41t-42 96q0 58 41.5 98t99.5 40q59 0 99.5-40t40.5-98q0-56-40.5-96.5T785 1281z"/><glyph unicode="©" horiz-adv-x="1873" d="M937-23Q729-23 552 80T272 360 169 745q0 156 61 298.5t164 245T639 1452t298 61q209 0 385.5-103t279.5-279.5T1705 745t-102.5-385.5T1323 80 937-23zm0 217q150 0 277 74t200 200.5 73 275.5q0 150-74 277t-200 200.5-276 73.5q-112 0-213.5-43.5T548 1134 430 958t-44-214q0-149 73.5-275.5t201-200.5T937 194zM525 745q0 173 122.5 295T943 1162q151 0 263.5-95.5T1337 828h-202q-13 61-67.5 100.5T943 968q-92 0-157.5-65.5T720 745q0-93 65.5-158.5T943 521q69 0 119.5 39t63.5 101h203q-18-143-127-238.5T943 327q-173 0-295.5 122.5T525 745z"/><glyph unicode="«" horiz-adv-x="1223" d="M1100 160H863L569 596v21l294 436h237L823 607zm-444 0H419L125 596v21l294 436h237L380 607z"/><glyph unicode="­" horiz-adv-x="954" d="M812 729V512H142v217h670z"/><glyph unicode="®" horiz-adv-x="1363" d="M682 346q-158 0-292 78T178 636t-78 292 78 292 212 212 292 78 292-78 212-212 78-292-78-292-212-212-292-78zm0 149q179 0 306 127t127 306-127 306-306 127-306-127-127-306 127-306 306-127zM473 666v537h266q72 0 125.5-47.5T918 1027q0-101-86-154l105-207H791l-86 181h-99V666H473zm133 277h94q31 0 54 22.5t23 61.5-22 58.5-52 19.5h-97V943z"/><glyph unicode="´" horiz-adv-x="1018" d="m394 1264 163 332h258l-224-332H394z"/><glyph unicode="¸" horiz-adv-x="693" d="M277 6h143l-12-62q73-11 118.5-55T572-231q1-104-93.5-166.5T214-460l-3 130q182 0 183 92 1 45-34 67.5T246-140z"/><glyph unicode="»" horiz-adv-x="1227" d="m563 160 276 447-276 446h237l294-436v-21L800 160H563zm-448 0 276 447-276 446h237l294-436v-21L352 160H115z"/><glyph unicode="ˆ" horiz-adv-x="1074" d="m685 1251-148 186-147-186H159v10l275 314h206l276-314v-10H685z"/><glyph unicode="˚" horiz-adv-x="737" d="M369 1239q-106 0-180 70t-74 171q0 102 74.5 174.5T369 1727q106 0 179-72.5t73-174.5q0-101-73-171t-179-70zm0 123q52 0 87 35t35 83q0 49-35 85.5t-87 35.5q-51 0-86.5-36.5T247 1480t35.5-83.5T369 1362z"/><glyph unicode="˜" horiz-adv-x="1024" d="m298 1253-159 4q0 127 66 201.5t166 74.5q32 0 62.5-10t48-19.5T527 1475q70-45 111-45t65.5 31 25.5 80l156-6q-1-126-66.5-200T653 1260q-36 0-68.5 10t-48.5 19.5-44 29.5q-22 16-33 23t-31.5 14.5-41.5 7.5q-39 0-63.5-31t-24.5-80z"/><glyph unicode="Ѐ" horiz-adv-x="1244" d="M147 0v1489h969v-226H417V859h648V633H417V226h704V0H147zm388 1636-223 333h258l162-333H535z"/><glyph unicode="Ё" horiz-adv-x="1244" d="M147 0v1489h969v-226H417V859h648V633H417V226h704V0H147zm268 1654q-57 0-99.5 41t-42.5 96q0 58 42 97.5t100 39.5q59 0 99-39.5t40-97.5q0-56-40.5-96.5T415 1654zm436 0q-57 0-99 41t-42 96q0 58 41.5 97.5T851 1928q59 0 99.5-39.5T991 1791q0-55-40.5-96t-99.5-41z"/><glyph unicode="Ђ" horiz-adv-x="1713" d="M1270 1489v-226H809V862q137 33 259 33 166 0 290-50t195-153.5 71-250.5q0-210-139-335.5T1061-16l-1 212q139 0 215 62.5t76 174.5q0 117-79.5 186.5T1056 689q-112 0-247-29V0H542v1263H81v226h1189z"/><glyph unicode="Ѓ" horiz-adv-x="1186" d="M1105 1489v-226H417V0H147v1489h958zm-573 147 163 333h258l-224-333H532z"/><glyph unicode="Є" horiz-adv-x="1405" d="M716-20q-274 0-440.5 190T109 673v107q0 329 169 529.5T724 1510q250 0 407.5-137T1305 999h-269q-7 130-94.5 207T724 1283q-149 0-244.5-120.5T375 843h505V619H375q8-187 101-302t240-115q132 0 221.5 76t97.5 203h270q-13-232-172.5-366.5T716-20z"/><glyph unicode="Ѕ" horiz-adv-x="1329" d="M956 1080q-10 95-84.5 148T676 1281q-124 0-196.5-54T406 1087q0-44 21-79.5t60.5-59 79.5-39 92-27.5l140-35q90-21 163.5-54t137.5-83 100-124.5 36-167.5q-1-200-151-320.5T671-23Q409-23 255 98.5T93 440h266q8-113 93-172.5T669 208t214.5 58.5T967 420q-1 81-67.5 127T699 627l-170 44q-397 102-397 400 0 129 71 229.5t195.5 155T679 1510q236 0 384.5-120t152.5-310H956z"/><glyph unicode="І" horiz-adv-x="562" d="M417 1489V0H147v1489h270z"/><glyph unicode="Ї" horiz-adv-x="562" d="M417 1489V0H147v1489h270zM65 1654q-57 0-99 41t-42 96q0 58 41.5 97.5T65 1928q59 0 99-39.5t40-97.5q0-56-40.5-96.5T65 1654zm436 0q-57 0-99 41t-42 96q0 58 41.5 97.5T501 1928q59 0 99.5-39.5T641 1791q0-55-40.5-96t-99.5-41z"/><glyph unicode="Ј" horiz-adv-x="1148" d="M735 1489h267V442q-1-214-132.5-338T521-20Q317-20 188.5 88.5T60 396h268q1-90 57-142.5T532 201q97 0 149.5 62T735 442v1047z"/><glyph unicode="Љ" horiz-adv-x="2276" d="M78 0v225l40 1q59 2 98.5 25.5t72 86.5 50 177.5T362 808l26 681h965V914h287q255 0 401-122t146-328q0-209-146.5-336.5T1640 0h-558v1267H641l-25-543q-10-205-37-339.5T496.5 162t-139-125T148 0H78zm1275 695V221h287q130 0 205 71.5t75 174.5q0 98-74.5 163T1640 695h-287z"/><glyph unicode="Њ" horiz-adv-x="2301" d="M147 0v1489h270V914h690v575h270V914h288q255 0 401-122t146-328q0-209-146.5-336.5T1665 0h-558v695H417V0H147zm1230 695V221h288q130 0 205 71.5t75 174.5q0 98-74.5 163T1665 695h-288z"/><glyph unicode="Ћ" horiz-adv-x="1860" d="M1221 1489v-221H767V923q154 38 335 38 267 0 412.5-115.5T1660 486V0h-264v486q0 137-71.5 195T1102 739q-180 0-335-36V0H501v1268H81v221h1140z"/><glyph unicode="Ќ" horiz-adv-x="1386" d="M147 0v1489h270V805h18l581 684h329L769 821 1351 0h-325L582 639 417 444V0H147zm446 1636 163 333h258l-223-333H593z"/><glyph unicode="Ѝ" horiz-adv-x="1517" d="M147 1489h268V474h13l701 1015h242V0h-270v1015h-12L386 0H147v1489zm516 147-223 333h258l162-333H663z"/><glyph unicode="Ў" horiz-adv-x="1342" d="M280-20v227h85q82 0 125 34t68 103l19 50L45 1489h282l371-797 321 797h278L783 275q-24-54-45.5-92t-56-79T608 38 512-3.5 386-20H280zm532 1893h197q0-128-92.5-206.5T668 1588q-155 0-247.5 78.5T329 1873h195q0-58 35.5-96t108.5-38 108 38 36 96z"/><glyph unicode="Џ" horiz-adv-x="1482" d="M147 0v1489h264V224h658v1265h267V0H874v-361H609V0H147z"/><glyph unicode="А" horiz-adv-x="1482" d="M338 0H50l525 1489h333L1433 0h-288l-124 367H461zm196 584h414l-201 600h-12z"/><glyph unicode="Б" horiz-adv-x="1339" d="M147 0v1489h958v-226H417V914h287q255 0 401-122t146-328q0-208-147-336T704 0H147zm270 221h287q130 0 205 71.5T984 467q0 98-74.5 163T704 695H417V221z"/><glyph unicode="В" horiz-adv-x="1346" d="M147 0v1489h570q234 0 358.5-106.5T1200 1103q0-129-72-209.5T940 786v-14q128-6 223-106t95-260q0-182-130.5-294T750 0H147zm270 225h290q141 0 209 54t68 148q0 102-73.5 168.5T714 662H417V225zm0 631h267q107 0 176.5 58t69.5 154q0 89-62.5 144T689 1267H417V856z"/><glyph unicode="Г" horiz-adv-x="1186" d="M1105 1489v-226H417V0H147v1489h958z"/><glyph unicode="Д" horiz-adv-x="1589" d="M50-359v579h100q85 67 139 213.5T360 860l39 629h952V220h166v-578h-259V0H309v-359H50zm414 579h628v1043H642l-23-403q-25-426-155-640z"/><glyph unicode="Е" horiz-adv-x="1244" d="M147 0v1489h969v-226H417V859h648V633H417V226h704V0H147z"/><glyph unicode="Ж" horiz-adv-x="2129" d="M1197 1489V860h172l346 629h329l-439-706L2072 0h-319l-346 610h-210V0H932v610H726L374 0H57l473 783-446 706h331l352-629h165v629h265z"/><glyph unicode="З" horiz-adv-x="1334" d="M667-20q-155 0-278.5 53.5T194.5 184 121 405h273q5-90 81.5-144.5T666 206q120 0 197 62t76 160q1 103-80 166t-220 63H508v208h131q116 0 189 59.5t72 156.5q1 94-62.5 152T670 1291q-106 0-180.5-56T412 1088H152q3 122 72 219t186.5 150 260.5 53q218 0 354.5-119.5T1161 1097q1-123-72.5-209T892 775v-11q155-22 240.5-115.5T1217 414q0-124-70.5-223.5t-196-155T667-20z"/><glyph unicode="И" horiz-adv-x="1517" d="M147 1489h268V474h13l701 1015h242V0h-270v1015h-12L386 0H147v1489z"/><glyph unicode="Й" horiz-adv-x="1517" d="M147 1489h268V474h13l701 1015h242V0h-270v1015h-12L386 0H147v1489zm756 384h197q0-128-92.5-206.5T759 1588q-155 0-247.5 78.5T420 1873h196q0-58 35-96t108-38 108 38 36 96z"/><glyph unicode="К" horiz-adv-x="1407" d="M1039 0 549 651H417V0H147v1489h270V877h67l530 612h332L758 810 1372 0h-333z"/><glyph unicode="Л" horiz-adv-x="1483" d="M50 0v224l42 2q65 3 108 34.5t72 102T315.5 539 336 808l25 681h976V0h-264v1268H612l-23-544q-7-153-23.5-264T516 258.5 431 113 303 29 123 0H50z"/><glyph unicode="М" horiz-adv-x="1856" d="M147 1489h330L919 410h18l442 1079h330V0h-259v1023h-14L1025 4H831L420 1025h-14V0H147v1489z"/><glyph unicode="Н" horiz-adv-x="1523" d="M147 0v1489h270V859h690v630h270V0h-270v633H417V0H147z"/><glyph unicode="О" horiz-adv-x="1586" d="M1478 745q0-177-52-322t-144-241.5-217-149T793-20 521 32.5t-216.5 149T161 423t-52 322 52 322 143.5 241.5 216.5 149 272 52.5 272-52.5 217-149 144-241.5 52-322zm-271 0q0 249-113.5 386T793 1268q-186 0-299.5-137.5T380 745t113.5-385.5T793 222q187 0 300.5 137T1207 745z"/><glyph unicode="П" horiz-adv-x="1537" d="M1362 1489V0h-267v1265H443V0H175v1489h1187z"/><glyph unicode="Р" horiz-adv-x="1317" d="M147 0v1489h558q250 0 388-136.5T1231 996q0-221-138.5-357T702 503H417V0H147zm270 725h248q145 0 218 73t73 198q0 124-73 196t-219 72H417V725z"/><glyph unicode="С" horiz-adv-x="1522" d="M1422 987h-272q-23 131-119.5 206T796 1268q-187 0-301.5-138T380 745q0-250 114.5-386.5T795 222q136 0 233 72t122 201l272-2q-15-107-66.5-200t-131-163T1033 20 791-20q-197 0-350.5 90T198 335t-89 410q0 177 52 322t143 241.5 216 149 271 52.5q252 0 424.5-139.5T1422 987z"/><glyph unicode="Т" horiz-adv-x="1351" d="M81 1263v226h1189v-226H809V0H542v1263H81z"/><glyph unicode="У" horiz-adv-x="1342" d="M280-20v227h85q82 0 125 34t68 103l19 50L45 1489h282l371-797 321 797h278L783 275q-24-54-45.5-92t-56-79T608 38 512-3.5 386-20H280z"/><glyph unicode="Ф" horiz-adv-x="1719" d="M710 1324h21v192h260v-192h20q264 0 431.5-166.5T1610 721q0-264-167.5-428T1011 129h-20V-61H731v190h-21q-265 0-433 162.5T109 720q0 270 168.5 437T710 1324zm0-229q-161 0-253.5-98T364 720q0-172 93-267t253-95h21v737h-21zm281 0V358h21q160 0 251 95.5t91 267.5q0 179-90.5 276.5T1012 1095h-21z"/><glyph unicode="Х" horiz-adv-x="1413" d="m372 1489 328-545h12l329 545h308L890 745 1356 0h-312L712 542h-12L369 0H57l471 745-465 744h309z"/><glyph unicode="Ц" horiz-adv-x="1597" d="m1525 225-20-577h-261V0H147v1489h259V224h669v1265h261V225h189z"/><glyph unicode="Ч" horiz-adv-x="1531" d="M191 1489h264v-485q0-137 71.5-195T750 751q180 0 335 36v702h266V0h-266v567q-158-39-335-39-267 0-413 116t-146 360v485z"/><glyph unicode="Ш" horiz-adv-x="2081" d="M186 1489h266V224h459v1265h264V224h456v1265h264V0H186v1489z"/><glyph unicode="Щ" horiz-adv-x="2123" d="m2052 216-21-567h-249V0H186v1489h266V224h459v1265h264V224h456v1265h264V216h157z"/><glyph unicode="Ъ" horiz-adv-x="1677" d="M81 1273v216h672V914h288q255 0 401-122t146-328q0-209-146.5-336.5T1041 0H483v1273H81zm672-578V221h288q130 0 205 71.5t75 174.5q0 98-74.5 163T1041 695H753z"/><glyph unicode="Ы" horiz-adv-x="1800" d="M420 914h288q255 0 401-122t146-328q0-209-146.5-336.5T708 0H150v1489h270V914zm1234 575V0h-270v1489h270zM420 695V221h288q130 0 205 71.5T988 467q0 98-74.5 163T708 695H420z"/><glyph unicode="Ь" horiz-adv-x="1370" d="M420 914h288q255 0 401-122t146-328q0-209-146.5-336.5T708 0H150v1489h270V914zm0-219V221h288q130 0 205 71.5T988 467q0 98-74.5 163T708 695H420z"/><glyph unicode="Э" horiz-adv-x="1413" d="M111 481h271q13-141 90-211t228-70q160 0 242 110t92 307H525v222h511q-5 213-93 329.5T693 1285q-155 0-227-72t-86-214H109q11 111 52.5 203t112 161.5 178 108T693 1510q280 0 446-189.5T1305 812V673q0-319-163-506T700-20q-264 0-417 137T111 481z"/><glyph unicode="Ю" horiz-adv-x="2133" d="M417 1489V831h241q16 210 109 365t240.5 234.5T1339 1510q147 0 272-52.5t216.5-149T1971 1067t52-322-52-322-143.5-241.5-216.5-149T1339-20q-270 0-455.5 169.5T662 615H417V0H147v1489h270zm1335-744q0 249-113 386t-300 137q-186 0-299.5-137.5T926 745t113.5-385.5T1339 222q187 0 300 137t113 386z"/><glyph unicode="Я" horiz-adv-x="1392" d="M1247 0H976v545H701L409 0H108l322 591q-131 53-199.5 161.5T162 1013q0 218 137 347t388 129h560V0zM976 769v495H729q-291 0-291-251 0-244 289-244h249z"/><glyph unicode="а" horiz-adv-x="1176" d="M457-23q-166 0-270 88T83 313q0 73 24 129.5t62 92.5 95.5 61 114 37T507 653q13 1 37 4 154 16 192 31 47 19 47 65v5q0 83-49 127.5T594 930t-149.5-40T365 788l-246 35q43 150 168.5 229.5T593 1132q67 0 129-11.5t122.5-39.5 104.5-70.5 71-110 27-152.5V0H793v153h-8Q745 76 662.5 26.5T457-23zm68 194q116 0 187.5 67T784 401v131q-33-27-241-54-206-30-206-160 0-71 51.5-109T525 171z"/><glyph unicode="б" horiz-adv-x="1240" d="m1031 1530 91-170q-67-58-157.5-73.5T679 1267q-185-4-273-101T298 857h13q52 103 146 156.5t222 53.5q212 0 342-140t130-387q0-259-143-410.5T621-22q-248 0-390 161.5T89 603v100q0 778 583 786 37 1 104 1 76 0 109.5 1t77 10.5 68.5 28.5zM623 189q121 0 191 92t70 251q0 155-70 241.5T621 860t-193.5-86.5T356 532q0-158 71.5-250.5T623 189z"/><glyph unicode="в" horiz-adv-x="1170" d="M135 0v1117h469q199 0 314-80t115-220q0-93-64-152.5T791 584q132-11 214.5-88t82.5-193q0-140-108.5-221.5T676 0H135zm247 207h294q73 0 114.5 34.5T832 336q0 69-41.5 108.5T676 484H382V207zm0 448h227q80 0 126 34t46 94q0 57-47.5 90T604 906H382V655z"/><glyph unicode="г" horiz-adv-x="949" d="M874 1117V901H393V0H135v1117h739z"/><glyph unicode="д" horiz-adv-x="1341" d="M36-324v541h89q66 50 95.5 171.5T268 726l32 391h808V217h173v-541h-255V0H295v-324H36zm360 541h460v688H529l-18-179q-16-197-40.5-316.5T396 217z"/><glyph unicode="е" d="M630-22q-252 0-397.5 155T87 552q0 260 145 420t384 160q106 0 196.5-34T974 997t112-177.5 41-252.5v-80H348q1-142 78.5-223T633 183q86 0 148 37t89 107l246-27q-36-148-165-235T630-22zM349 664h525q-1 115-71.5 189T620 927q-115 0-190-76t-81-187z"/><glyph unicode="ж" horiz-adv-x="1762" d="m63 0 412 577-409 540h304l318-450h63v450h263V667h61l318 450h304l-407-540L1700 0h-310l-318 451h-58V0H751v451h-59L373 0H63z"/><glyph unicode="з" horiz-adv-x="1056" d="M73 306h262q4-62 56-96.5T527 175q89 0 145.5 39T729 327q0 68-50 110t-132 42H376v186h171q79 0 123 37.5t44 96.5q0 63-45 100.5T546 937q-79 0-131-35.5T361 810H102q3 144 125 233t307 89q195 0 310-86t115-228q0-89-55.5-149T749 583v-11q101-6 168-78.5T984 310q0-152-127-242T528-22q-198 0-324 88T73 306z"/><glyph unicode="и" horiz-adv-x="1241" d="m389 356 447 761h271V0H852v761L407 0H135v1117h254V356z"/><glyph unicode="й" horiz-adv-x="1241" d="m389 356 447 761h271V0H852v761L407 0H135v1117h254V356zm375 1145h197q0-128-92.5-206.5T620 1216q-155 0-247.5 78.5T281 1501h196q0-58 35-96t108-38 108 38 36 96z"/><glyph unicode="к" horiz-adv-x="1165" d="M135 0v1117h264V666h96l336 451h317L734 569 1152 0H833L527 421H399V0H135z"/><glyph unicode="л" horiz-adv-x="1228" d="m58 0-1 217h38q59 0 93 37t52 123.5T264 623l20 494h814V0H844v901H523l-18-360q-13-281-99.5-411T140 0H58z"/><glyph unicode="м" horiz-adv-x="1560" d="m778 306 332 811h320V0h-252v761L871 0H687L389 753V0H135v1117h320z"/><glyph unicode="н" horiz-adv-x="1205" d="M389 1117V668h433v449h253V0H822v452H389V0H135v1117h254z"/><glyph unicode="о" horiz-adv-x="1245" d="M623-22q-244 0-390 158T87 554q0 261 146 419.5T623 1132t389.5-158.5T1158 554q0-260-145.5-418T623-22zm1 211q128 0 197.5 103T891 555q0 161-69.5 264.5T624 923q-130 0-200-103.5T354 555t70-263.5T624 189z"/><glyph unicode="п" d="M135 0v1117h944V0H825v901H387V0H135z"/><glyph unicode="р" horiz-adv-x="1279" d="M135-419v1536h259V932h15q99 200 320 200 201 0 331-152.5T1190 557q0-269-129-423T729-20q-221 0-320 196h-10v-595H135zm258 978q0-165 69.5-264T656 196q127 0 196 100.5T921 559q0 161-68.5 259T656 916q-125 0-194-96t-69-261z"/><glyph unicode="с" horiz-adv-x="1182" d="M623-22q-247 0-391.5 159.5T87 554q0 258 145.5 418T621 1132q204 0 335-110t145-292H849q-16 85-74 137t-150 52q-123 0-197-96.5T354 559q0-170 73.5-268T625 193q88 0 147.5 50T849 382h252q-15-181-143-292.5T623-22z"/><glyph unicode="т" horiz-adv-x="1126" d="M74 901v216h978V901H690V0H436v901H74z"/><glyph unicode="у" horiz-adv-x="1179" d="M299-419q-105 0-172 28l61 205q58-16 102.5-16.5t79.5 28T429-84l23 61L47 1117h279l257-844h12l258 844h280L686-135Q585-419 299-419z"/><glyph unicode="ф" horiz-adv-x="1548" d="M642-380v358q-247 0-401 159.5T87 554q0 258 154 418t401 160v357h264v-357q247 0 401-160t154-418q0-257-154-416.5T906-22v-358H642zm0 571v728q-135 0-210.5-104T356 554q0-156 76-259.5T642 191zm264 0q91 0 156.5 50t97 130.5T1191 554q0 157-75 261T906 919V191z"/><glyph unicode="х" horiz-adv-x="1152" d="m351 1117 225-412 229 412h279L747 559 1089 0H812L576 402 342 0H63l340 559-332 558h280z"/><glyph unicode="ц" horiz-adv-x="1330" d="M1079 1117V196h170v-555H992V0H135v1117h254V216h438v901h252z"/><glyph unicode="ч" horiz-adv-x="1198" d="M1068 1117V0H815v354q-97-23-196-23-230 0-357 103.5T135 746v373h252V746q0-106 56.5-152.5T619 547q96 0 196 25v545h253z"/><glyph unicode="ш" horiz-adv-x="1729" d="M135 1117h254V217h351v900h254V217h351v900h254V0H135v1117z"/><glyph unicode="щ" horiz-adv-x="1885" d="m1813 216-22-536h-248V0H135v1117h254V217h351v900h254V217h351v900h254V216h214z"/><glyph unicode="ъ" horiz-adv-x="1409" d="M617 753h254q210 0 329-102.5T1320 377q-1-169-120.5-273T871 0H364v900H68v217h549V753zm0-216V216h254q86 0 141.5 44t55.5 113q0 72-55.5 118T871 537H617z"/><glyph unicode="ы" horiz-adv-x="1629" d="M389 753h254q210 0 329-102.5T1092 377q-1-169-120.5-273T643 0H135v1117h254V753zM1231 0v1117h263V0h-263zM389 537V216h254q86 0 141 44t55 113q0 72-55 118t-141 46H389z"/><glyph unicode="ь" horiz-adv-x="1181" d="M389 753h254q210 0 329-102.5T1092 377q-1-169-120.5-273T643 0H135v1117h254V753zm0-216V216h254q86 0 141 44t55 113q0 72-55 118t-141 46H389z"/><glyph unicode="э" horiz-adv-x="1124" d="M534 915q-84-1-144.5-52T329 736H87q0 110 60.5 202t163 144 223.5 52q158 0 274-76.5T980.5 855t56.5-283v-31q0-158-56.5-283.5T808.5 56 534-20Q336-20 211.5 98T87 407h242q0-85 58.5-145.5T534 200q73 0 127.5 41T743 341t36 132H440v174h338q-15 116-76 191.5T534 915z"/><glyph unicode="ю" horiz-adv-x="1688" d="M332 1117V660h210q28 215 167 343.5t354 128.5q240 0 383-159t144-417q-1-259-144-418.5T1063-22q-212 0-350.5 126.5T543 443H332V0H68v1117h264zm731-921q70 0 123 27.5t85 77 48 113.5 16 142q0 161-68 260.5T1063 916q-93 0-156-48.5T816 740t-28-184 28-184 91-127.5 156-48.5z"/><glyph unicode="я" horiz-adv-x="1172" d="M796 0v420H562L333 0H74l250 460q-101 42-155.5 119.5T115 762q-1 162 118.5 258.5T557 1117h485V0H796zm0 612v291H557q-89 0-139-41t-49-106q-1-65 46.5-104.5T548 612h248z"/><glyph unicode="ѐ" d="M630-22q-252 0-397.5 155T87 552q0 260 145 420t384 160q106 0 196.5-34T974 997t112-177.5 41-252.5v-80H348q1-142 78.5-223T633 183q86 0 148 37t89 107l246-27q-36-148-165-235T630-22zM349 664h525q-1 115-71.5 189T620 927q-115 0-190-76t-81-187zm163 600-223 332h258l162-332H512z"/><glyph unicode="ё" d="M630-22q-252 0-397.5 155T87 552q0 260 145 420t384 160q106 0 196.5-34T974 997t112-177.5 41-252.5v-80H348q1-142 78.5-223T633 183q86 0 148 37t89 107l246-27q-36-148-165-235T630-22zM349 664h525q-1 115-71.5 189T620 927q-115 0-190-76t-81-187zm42 617q-57 0-99 41t-42 96q0 58 41.5 98t99.5 40q59 0 99.5-40t40.5-98q0-56-40.5-96.5T391 1281zm437 0q-57 0-99 41t-42 96q0 58 41.5 98t99.5 40q59 0 99-39.5t40-98.5q0-56-40.5-96.5T828 1281z"/><glyph unicode="ђ" horiz-adv-x="1258" d="M399 655V0H135v1211H-84v166h219v112h258v-112h219v-166H393V927h13q84 205 332 205 177 0 281-110.5T1123 711V-86q0-90-27-156t-76.5-103.5T908-401t-138-18q-89 0-138 10v206q44-6 69-6 159 0 159 123v757q0 113-58 175.5T640 909q-108 0-174.5-67.5T399 655z"/><glyph unicode="ѓ" horiz-adv-x="949" d="M874 1117V901H393V0H135v1117h739zm-472 147 163 332h258l-224-332H402z"/><glyph unicode="є" horiz-adv-x="1160" d="M657 637V463H317q19-125 87-196t179-71q89 0 147 46t80 125l250-32q-32-161-160-259T583-22q-241 0-383.5 161T57 559q0 255 143 414t383 159q190 0 320-100t160-267l-249-33q-22 84-79 134t-152 50q-114 0-183-74.5T315 637h342z"/><glyph unicode="ѕ" horiz-adv-x="1124" d="m1018 822-240-26q-16 60-68.5 99.5T572 935q-83 0-138-36t-54-92q-1-49 36-79.5T537 678l191-41q159-35 236-109t78-193q-1-159-134-258T565-22q-204 0-329 86T86 305l257 24q35-152 221-152 93 0 150.5 38t57.5 96q0 94-150 127l-191 40q-316 65-314 315-1 154 124 246.5t328 92.5q192 0 306.5-82.5T1018 822z"/><glyph unicode="і" horiz-adv-x="533" d="M135 0v1117h264V0H135zm133 1276q-63 0-108 41.5T115 1418t45 101 108 42 107.5-42 44.5-101-44.5-100.5T268 1276z"/><glyph unicode="ї" horiz-adv-x="533" d="M135 0v1117h264V0H135zM50 1281q-57 0-99 41t-42 96q0 58 41.5 98t99.5 40q59 0 99.5-40t40.5-98q0-56-41-96.5T50 1281zm437 0q-57 0-99.5 41t-42.5 96q0 58 42 98t100 40q59 0 99-39.5t40-98.5q0-56-40.5-96.5T487 1281z"/><glyph unicode="ј" horiz-adv-x="533" d="M135 1117h264V-64q0-178-100.5-266.5T10-419q-16 0-54 2v214q15-1 38-1 74 0 107.5 36T135-60v1177zm131 159q-63 0-108 41.5T113 1418t45 101 108 42 107.5-42 44.5-101-44.5-100.5T266 1276z"/><glyph unicode="љ" horiz-adv-x="1930" d="m99 0-2 217h39q59 0 93 37t52 123.5T305 623l19 494h814V753h254q210 0 329-102.5T1841 377q-1-169-120.5-273T1392 0H884v901H566l-20-360q-15-282-101.5-411.5T180 0H99zm1039 537V216h254q86 0 141 44t55 113q0 72-55 118t-141 46h-254z"/><glyph unicode="њ" horiz-adv-x="1868" d="M135 0v1117h254V695h433v422h254V736h254q212 0 330-95t119-264q-1-169-120.5-273T1330 0H822v479H389V0H135zm941 520V216h254q86 0 141 44t56 113q-1 71-54.5 109T1330 520h-254z"/><glyph unicode="ћ" horiz-adv-x="1255" d="M399 655V0H135v1211H-84v166h219v112h258v-112h219v-166H393V927h13q84 205 332 205 177 0 281-110.5T1123 711V0H860v671q0 113-58 175.5T640 909q-108 0-174.5-67.5T399 655z"/><glyph unicode="ќ" horiz-adv-x="1165" d="M135 0v1117h264V666h96l336 451h317L734 569 1152 0H833L527 421H399V0H135zm346 1264 163 332h258l-223-332H481z"/><glyph unicode="ѝ" horiz-adv-x="1241" d="m389 356 447 761h271V0H852v761L407 0H135v1117h254V356zm135 908-224 332h259l162-332H524z"/><glyph unicode="ў" horiz-adv-x="1179" d="M299-419q-105 0-172 28l61 205q58-16 102.5-16.5t79.5 28T429-84l23 61L47 1117h279l257-844h12l258 844h280L686-135Q585-419 299-419zm433 1920h197q0-128-92.5-206.5T588 1216q-155 0-247.5 78.5T249 1501h196q0-58 35-96t108-38 108 38 36 96z"/><glyph unicode="џ" d="M1079 1117V0H735v-359H478V0H135v1117h254V216h438v901h252z"/><glyph unicode="Ѡ" horiz-adv-x="1946" d="M147 449v1040h270V449q0-119 56.5-182T626 204q101 0 157 62.5T839 449v1040h268V449q0-120 54-182.5t152-62.5q100 0 158.5 63t58.5 182v1040h270V449q0-223-136-346T1313-20q-223 0-339 152Q856-20 626-20q-140 0-247 52T209.5 191.5 147 449z"/><glyph unicode="ѡ" horiz-adv-x="1745" d="M135 423v694h254V423q0-108 47-167.5T560 196q89 0 140.5 58T752 423v694h253V423q0-112 46.5-169.5T1183 196q81 0 129.5 58.5T1361 423v694h254V423q0-213-118.5-328T1183-20q-206 0-306 145Q771-20 560-20 369-20 252 95T135 423z"/><glyph unicode="Ѣ" horiz-adv-x="1370" d="M-38 1097v166h188v226h270v-226h239v-166H420V914h288q255 0 401-122t146-328q0-209-146.5-336.5T708 0H150v1097H-38zm458-402V221h288q130 0 205 71.5T988 467q0 98-74.5 163T708 695H420z"/><glyph unicode="ѣ" horiz-adv-x="1260" d="M762 1265v-177H468V753h254q210 0 329-102.5T1171 377q-1-169-120.5-273T722 0H214v1088H41v177h173v374h254v-374h294zM468 537V216h254q86 0 141 44t56 113q-1 73-56 118.5T722 537H468z"/><glyph unicode="Ѥ" horiz-adv-x="2026" d="M1389 855V639H908q23-205 129.5-310.5T1305 223q131 0 227 68.5T1660 489l266-27q-51-224-219.5-353T1305-20q-273 0-455 176T639 639H417V0H147v1489h270V855h222q30 304 212.5 479.5T1305 1510q232 0 401-129t221-358l-263-27q-33 130-130 200.5t-229 70.5q-160 0-266.5-104.5T908 855h481z"/><glyph unicode="ѥ" horiz-adv-x="1696" d="M1180 631V452H816q20-120 88-188t177-68q88 0 146.5 45.5T1308 367l249-32q-32-161-160-259t-316-98q-215 0-353.5 129.5T560 452H381V0H118v1117h263V631h175q21 226 161.5 363.5T1080 1132q189 0 319-100t160-267l-248-33q-22 85-79 134.5T1081 916q-115 0-185-76t-85-209h369z"/><glyph unicode="Ѧ" horiz-adv-x="1445" d="M1095 0 956 422H837V0H596v422H491L351 0H57l526 1489h283L1388 0h-293zM890 623l-166 505-167-505h333z"/><glyph unicode="ѧ" horiz-adv-x="1258" d="M914 0 812 273h-88V0H528v273h-81L345 0H69l424 1102h268L1190 0H914zM601 688l-87-233h229l-87 233-28 119z"/><glyph unicode="Ѩ" horiz-adv-x="2024" d="M388 1489V623h413l306 866h282L1911 0h-292l-139 422h-120V0h-241v422h-105L874 0H580l150 423H388V0H118v1489h270zm692-866h334l-167 506z"/><glyph unicode="ѩ" horiz-adv-x="1695" d="m1385 0-100 273h-104V0h-180v273h-92L810 0H537l104 275H391V0H127v1117h264V455h320l250 662h270L1658 0h-273zM975 455h243l-91 248-30 128-32-128z"/><glyph unicode="Ѫ" horiz-adv-x="1831" d="M409 0H129v345q0 238 133.5 348.5T667 804l-402 685h1333l-402-685q118-3 207.5-28t158.5-78 105-141.5 36-211.5V0h-282v345q-1 129-60.5 180.5T1165 577h-99V0H788v577H668q-132 0-196-49.5T409 345V0zm523 838 229 422H700z"/><glyph unicode="ѫ" horiz-adv-x="1534" d="M394 0H122v176q-1 211 102.5 314T527 609l-302 508h1100l-302-509q190-18 289.5-122t99.5-310V0h-270v176q0 128-48.5 178T933 404h-25V0H639v404h-35q-110 0-160.5-49T394 176V0zm383 625 155 309H623z"/><glyph unicode="Ѭ" horiz-adv-x="2482" d="M423 1489V804h848l-401 685h1332l-401-685q118-3 207.5-28t158-78T2271 556.5t36-211.5V0h-282v345q0 129-59.5 180.5T1769 577h-98V0h-279v577h-119q-132 0-195.5-49.5T1014 345V0H735v345q0 143 48 240H423V0H153v1489h270zm1113-650 230 421h-461z"/><glyph unicode="ѭ" horiz-adv-x="2102" d="M387 1117V612h676l-302 505h1100l-302-508q190-18 290-122.5T1949 176V0h-270v176q0 128-49 178t-160 50h-26V0h-269v404h-34q-110 0-160.5-49T930 176V0H659v176q0 142 47 236H387V0H124v1117h263zm926-492 156 309h-310z"/><glyph unicode="Ѯ" horiz-adv-x="1149" d="M209 1489h278q245 0 381.5-98t136.5-280q1-124-62-214T762 759q138-42 210-131.5t73-223.5q-1-196-139.5-310T539-20h-58q-62 0-92-27t-30-73q0-99 150-164l-84-164q-143 37-229 130T110-84t94.5 213T468 201h58q116 0 182.5 59.5T775 425q0 110-75.5 164.5T481 644H335v223h151q126 0 188 56.5t61 151.5q0 193-248 193H209v221zm270 424 163-152 164 152h215v-10l-299-280H563l-301 280v10h217z"/><glyph unicode="ѯ" horiz-adv-x="1048" d="M116 1117h277q234 0 362-76t127-216q-2-171-182-251 220-63 221-253 1-150-125-245.5T457-20h-51q-66 0-101-25t-34-74q-2-99 139-165l-83-152q-136 48-214.5 141.5T32-86q-1 128 86 196.5T370 179h54q109 0 167.5 38.5T650 331q-1 148-251 148H242v177h162q98 0 152.5 37T610 796q-1 63-54 92.5T393 918H116v199zm235 425 162-151 166 151h215v-11l-301-279H434l-301 279v11h218z"/><glyph unicode="Ѱ" horiz-adv-x="1660" d="M1247 1489h267V978q0-260-147.5-414T969 386V0H703v385q-255 21-405.5 175.5T147 978v511h264V978q0-160 76-254t216-115v880h266V609q278 41 278 369v511z"/><glyph unicode="ѱ" horiz-adv-x="1607" d="M135 1117h254V589q0-173 82.5-266T697 205v912h253V208q109 21 181 78.5T1233.5 420t30.5 171q-2 121-34 262.5t-82 263.5h242q55-95 91-236t36-290q0-91-18-171t-60.5-155T1332 133.5 1170.5 38 950-14v-463H697v462Q429 13 282 163T135 592v525z"/><glyph unicode="Ѳ" horiz-adv-x="1586" d="M1478 745q0-177-52-322t-144-241.5-217-149T793-20 521 32.5t-216.5 149T161 423t-52 322 52 322 143.5 241.5 216.5 149 272 52.5 272-52.5 217-149 144-241.5 52-322zM793 222q168 0 277.5 111.5T1201 650H385q21-205 130.5-316.5T793 222zm408 617q-21 206-131 317.5T793 1268t-277-111.5T385 839h816z"/><glyph unicode="ѳ" horiz-adv-x="1245" d="M623-22q-244 0-390 158T87 554q0 261 146 419.5T623 1132t389.5-158.5T1158 554q0-260-145.5-418T623-22zm1 211q111 0 178.5 78T886 473H359q16-129 84-206.5T624 189zM360 644h525q-18 126-85 202.5T624 923q-111 0-178.5-76.5T360 644z"/><glyph unicode="Ѵ" horiz-adv-x="1519" d="M1033 1171q56 176 140.5 257.5T1399 1510h69v-240h-31q-50 0-75-29.5t-51-100.5L908 0H575L50 1489h296L734 317h15z"/><glyph unicode="ѵ" horiz-adv-x="1257" d="M47 1117h280l257-830h12l178 564q43 147 128 214t196 67q63 0 113-16l-20-216q-33 10-59 10-43 0-67.5-29.5T1015 780L735 0H444z"/><glyph unicode="Ѷ" horiz-adv-x="1519" d="M1033 1171q56 176 140.5 257.5T1399 1510h69v-240h-31q-50 0-75-29.5t-51-100.5L908 0H575L50 1489h296L734 317h15zm-536 465-232 333h267l162-333H497zm343 0-163 333h260l96-333H840z"/><glyph unicode="ѷ" horiz-adv-x="1257" d="M47 1117h280l257-830h12l178 564q43 147 128 214t196 67q63 0 113-16l-20-216q-33 10-59 10-43 0-67.5-29.5T1015 780L735 0H444zm320 147-232 332h266l163-332H367zm343 0-163 332h260l96-332H710z"/><glyph unicode="Ѹ" horiz-adv-x="2767" d="M1478 745q0-177-52-322t-144-241.5-217-149T793-20 521 32.5t-216.5 149T161 423t-52 322 52 322 143.5 241.5 216.5 149 272 52.5 272-52.5 217-149 144-241.5 52-322zm-271 0q0 249-113.5 386T793 1268q-186 0-299.5-137.5T380 745t113.5-385.5T793 222q187 0 300.5 137T1207 745zm679-1164q-105 0-172 28l61 205q58-16 102.5-16.5t79.5 28 59 90.5l23 61-406 1140h280l257-844h12l258 844h280L2273-135q-101-284-387-284z"/><glyph unicode="ѹ" horiz-adv-x="2386" d="M623-22q-244 0-390 158T87 554q0 261 146 419.5T623 1132t389.5-158.5T1158 554q0-260-145.5-418T623-22zm882-397q-104 0-171 28l61 205q58-16 102.5-16.5t79.5 28 59 90.5l22 61-405 1140h279l258-844h11l259 844h280L1892-135q-101-284-387-284zM624 189q128 0 197.5 103T891 555q0 161-69.5 264.5T624 923q-130 0-200-103.5T354 555t70-263.5T624 189z"/><glyph unicode="Ѻ" horiz-adv-x="1557" d="M872 1657v-153q257-32 416-234.5T1447 743q0-323-158.5-524.5T872-15v-153H687v153Q560 1 454.5 60T272 214 152 445t-43 298q0 325 159.5 527T687 1504v153h185zm0-1272V232q141 31 223.5 159.5T1179 743q-1 222-83.5 352.5T872 1257v-153H687v153q-142-32-225.5-162T378 743t83.5-351T687 232v153h185z"/><glyph unicode="ѻ" horiz-adv-x="1266" d="M691 1208v-81q207-26 328-181t120-390q1-235-120-390.5T691-17v-104H513v107Q315 19 200 173T85 556t115 382.5T513 1124v84h178zm0-887V207q97 27 145.5 120.5T885 556t-48.5 228.5T691 905V776H513v123q-87-33-130-124t-44-219q1-129 44-219.5T513 213v108h178z"/><glyph unicode="Ѽ" horiz-adv-x="2022" d="M663 1457v-226q-92 0-145.5-65T464 972V465q0-131 53.5-196T663 204q103 0 158.5 62T877 449v367h269V449q0-121 55.5-183t158.5-62q93 0 147 65.5t54 195.5v507q0 129-54 194t-147 65v226q214 0 347-126.5T1840 972V465q0-233-132.5-359T1360-20q-228 0-348 156Q892-20 663-20q-104 0-191 31t-152 90.5T218.5 254 182 465v507q0 232 133.5 358.5T663 1457zm781 264h26l-47-134h-26q-59 0-146.5 30.5T1081 1678t-129 30q-50 0-78.5-25t-28.5-76v-20H708v37q0 109 62.5 163.5T947 1842q52 0 115-19t113.5-41.5 124-41.5 144.5-19zm-476-430-84 55q72 88 72 151v96h171v-101q0-55-50.5-113T968 1291z"/><glyph unicode="ѽ" horiz-adv-x="1636" d="M1095 884v214q195 0 317.5-117.5T1535 647V431q0-216-116.5-333.5T1114-20q-193 0-294 148Q717-20 522-20 335-20 219.5 97.5T103 431v216q1 216 123 333.5T544 1098V884q-80 0-130-60t-51-177V431q1-116 45-175.5T522 196q78 0 123 58t44 169v178h260V423q0-110 43.5-168.5T1114 196q72 0 117.5 59t44.5 176v216q1 116-50 176.5T1095 884zm171 495h38v-134h-41q-100 0-198 30t-173 59.5-120 29.5q-49 0-77.5-24.5T665 1263v-18H530v36q0 110 62.5 163.5T769 1498q52 0 114.5-18.5t113-41 124-41T1266 1379zM796 950l-85 55q69 84 69 151v96h174v-101q0-53-50.5-112.5T796 950z"/><glyph unicode="Ѿ" horiz-adv-x="1944" d="M839 1472h268V449q0-120 54-182.5t152-62.5q100 0 159.5 63t59.5 182v1023h266V449q0-150-64.5-257.5T1561 32t-248-52q-222 0-340 153Q853-20 626-20q-140 0-247 52T209.5 191.5 147 449v1023h270V449q0-119 56.5-182T626 204q101 0 157 62.5T839 449v1023zm37 239H534v129h884l3-129h-361v-128H876v128z"/><glyph unicode="ѿ" horiz-adv-x="1745" d="M735 1082h271V423q0-227 170-227 158 0 160 227v659h271V423q0-212-118.5-327.5T1176-20q-204 0-307 145Q760-20 552-20 361-20 244 95T127 423v659h272V423q-1-110 38.5-168.5T552 196q89 0 136 57.5T735 423v659zm28 246H446v129h839l4-129H948v-125H763v125z"/><glyph unicode="Ҁ" horiz-adv-x="1345" d="M860 204v-571H580v354Q365 20 237.5 181T110 583v322q0 276 154 440.5T688 1510q248 0 398-134t150-368H956q0 135-72 205.5T687 1284q-151 0-225-99t-74-279V583q0-173 78.5-276T681 204h179z"/><glyph unicode="ҁ" horiz-adv-x="1153" d="M775 196v-565H503v357Q312 21 207.5 169T103 525v38q0 164 56.5 291.5T331 1057t273 75q202 0 325.5-119.5T1052 687H797q0 105-53 167t-146 62q-61 0-106-28.5t-70-79T385 697t-12-134v-38q0-65 11.5-121t37-104 73-76T606 196h169z"/><glyph unicode="҂" horiz-adv-x="1347" d="M846 809 635 448l297-172-75-128-296 172L377 0H199l229 399-294 171 71 128 300-171 205 360-296 169 76 131 297-172 186 326h175L917 937l300-172-77-125z"/><glyph unicode="҃" horiz-adv-x="0" d="M-236 1312h-556v-125h-181l1 238h557v108h179v-221z"/><glyph unicode="҄" horiz-adv-x="0" d="M-963 1437h28q74 0 149 18.5t126 41 114.5 41T-429 1556q116 0 179.5-53.5T-185 1341v-38h-139v18q-1 51-30 76.5t-78 25.5q-38 0-95-18.5t-110-41.5-134-41.5-161-18.5h-31v134z"/><glyph unicode="҅" horiz-adv-x="0" d="m-500 1305-169 196v138h193l-3-155 62-111z"/><glyph unicode="҆" horiz-adv-x="0" d="m-388 1501-168-196-84 68 60 111-3 155h195v-138z"/><glyph unicode="҇" horiz-adv-x="0" d="M-371 1437h164v-134h-178q-38 0-74 12.5t-67 30-64 35-80.5 30T-772 1423q-53 0-93-26t-40-76v-18h-139v38q0 99 76 157t209 58q72 0 135-18.5t99.5-41 78-41 75.5-18.5z"/><glyph unicode="҈" horiz-adv-x="0" d="M-1290 989h-118q0 84 58.5 136.5t157.5 52.5q98 0 157-52.5t59-136.5h-116q0 45-24.5 73.5t-75.5 28.5-74.5-28.5-23.5-73.5zm1187 0h-117q0 84 57.5 136.5T-7 1178q99 0 158.5-52.5T211 989H95q0 45-24.5 73.5T-7 1091q-50 0-73-28.5t-23-73.5zM-703-317h-116q0 84 58.5 136.5T-604-128q99 0 157.5-52.5T-388-317h-115q0 43-25 72.5t-76 29.5q-50 0-74.5-29.5T-703-317zm-599 285h-116q0 83 59 136t155 53q98 0 157-53t59-136h-116q0 43-24.5 72.5T-1204 70q-50 0-74-29.5t-24-72.5zm1187 0h-116q0 83 59 136t157 53q97 0 155.5-52.5T199-32H86q0 43-25 72.5T-15 70q-50 0-75-29.5T-115-32zm-593 1300h-117q0 82 59 134.5t157 52.5 156.5-52.5T-394 1268h-114q0 42-25 70.5t-76 28.5-75-28-24-71zm-763-779h-116q0 82 58 134t156 52 157-52 59-134h-115q0 42-24.5 70.5T-1373 588q-50 0-74-28.5t-24-70.5zm1557 0H-30q0 82 59 134t156 52q98 0 156.5-52T400 489H286q0 43-25 71t-76 28q-49 0-74-28.5T86 489z"/><glyph unicode="҉" horiz-adv-x="0" d="M365 422 12 492v139l14 12 339-122v-99zm-1556 0-338 122v99l352-70V433zM9-239-192 61l98 99h18L77-166zm-702-174 71 352h141l11-15-126-337h-97zm12 1539-12 14 124 338h99l-73-352h-138zm546-221-99 99 1 14 330 154 70-69zM-1260-148l-71 67 300 200 99-99-1-14zm168 1009-151 329 66 67 202-300-100-96h-17z"/><glyph unicode="Ҋ" horiz-adv-x="1517" d="M147 1489h268V474h13l701 1015h242V151h221V-10q0-111-43-216.5T1430-412l-158 59q4 9 19.5 41.5t21 45T1330-225t17 47.5 12 45.5 9.5 53.5T1371-24V0h-270v1015h-12L386 0H147v1489zm756 384h197q0-128-92.5-206.5T759 1588q-155 0-247.5 78.5T420 1873h196q0-58 35-96t108-38 108 38 36 96z"/><glyph unicode="ҋ" horiz-adv-x="1409" d="m389 356 447 761h271V151h221V-10q0-111-43-216.5T1166-412l-158 59q4 9 19.5 41.5t21 45T1066-225t17 47.5 12 45.5 9.5 53.5T1107-24V0H852v761L407 0H135v1117h254V356zm375 1145h197q0-128-92.5-206.5T620 1216q-155 0-247.5 78.5T281 1501h196q0-58 35-96t108-38 108 38 36 96z"/><glyph unicode="Ҍ" horiz-adv-x="1370" d="M-38 1097v166h188v226h270v-226h239v-166H420V914h288q255 0 401-122t146-328q0-209-146.5-336.5T708 0H150v1097H-38zm458-402V221h288q130 0 205 71.5T988 467q0 98-74.5 163T708 695H420z"/><glyph unicode="ҍ" horiz-adv-x="1260" d="M762 1457v-177H468V753h254q210 0 329-102.5T1171 377q-1-169-120.5-273T722 0H214v1280H41v177h173v182h254v-182h294zM468 537V216h254q86 0 141 44t56 113q-1 73-56 118.5T722 537H468z"/><glyph unicode="Ҏ" horiz-adv-x="1336" d="M151 0v1489h559q250 0 387.5-136.5T1235 996q0-133-52-238t-152-170l98-150-133-87-112 173q-81-21-178-21H421V0H151zm631 971 110-169q68 69 68 194 0 124-73 196t-219 72H421V725h249q36 0 80 7L649 887z"/><glyph unicode="ҏ" horiz-adv-x="1251" d="M140-419v1536h259V932h15q99 200 319 200 201 0 331-152.5T1194 557q0-293-153-451l86-101-110-94-94 110q-87-41-189-41-221 0-320 196h-11v-595H140zm609 866 116-136q61 96 61 248 0 161-69 259t-197 98q-125 0-193.5-96T398 559q0-166 69-264.5T660 196q53 0 97 19L639 353z"/><glyph unicode="Ґ" horiz-adv-x="1189" d="M147 0v1489h702v352h259v-578H417V0H147z"/><glyph unicode="ґ" horiz-adv-x="973" d="M900 1397V901H393V0H135v1117h518v280h247z"/><glyph unicode="Ғ" horiz-adv-x="1186" d="M1105 1489v-226H417V863h212V697H417V0H147v697H-68v166h215v626h958z"/><glyph unicode="ғ" horiz-adv-x="949" d="M874 1117V901H393V671h220V505H393V0H135v505H-84v166h219v446h739z"/><glyph unicode="Ҕ" horiz-adv-x="1361" d="M1105 1489v-226H417V833h240q290 0 453-145t162-436q0-92-18.5-175t-60-158.5-102.5-130-152-87T736-331l-1 206q65 0 115 23t80.5 59.5 49.5 86 26 97 7 99.5q1 377-356 377H417V0H147v1489h958z"/><glyph unicode="ҕ" horiz-adv-x="1159" d="M874 1117V901H393V662h88q164 0 289.5-56T968 439t72-263q2-154-101.5-280.5T658-285l-99 182Q660-64 723 8.5T787 176q1 127-84 199.5T481 448h-88V0H135v1117h739z"/><glyph unicode="Җ" horiz-adv-x="2129" d="M1197 1489V860h172l346 629h329l-439-706 350-587h222v-555h-258V0h-166l-346 610h-210V0H932v610H726L374 0H57l473 783-446 706h331l352-629h165v629h265z"/><glyph unicode="җ" horiz-adv-x="1762" d="m63 0 412 577-409 540h304l318-450h63v450h263V667h61l318 450h304l-407-540 271-381h258v-555h-258V0h-171l-318 451h-58V0H751v451h-59L373 0H63z"/><glyph unicode="Ҙ" horiz-adv-x="1334" d="m740-17-8-39q73-11 118.5-55T896-231q1-104-93.5-166.5T538-460l-3 130q183 0 184 92 1 45-34.5 67.5T570-140l26 123Q388 1 257 116T121 405h273q5-90 81.5-144.5T666 206q120 0 197 62t76 160q1 103-80 166t-220 63H508v208h131q116 0 189 59.5t72 156.5q1 94-62.5 152T670 1291q-106 0-180.5-56T412 1088H152q3 122 72 219t186.5 150 260.5 53q218 0 354.5-119.5T1161 1097q1-123-72.5-209T892 775v-11q155-22 240.5-115.5T1217 414q1-173-132-292T740-17z"/><glyph unicode="ҙ" horiz-adv-x="1056" d="M73 306h262q4-62 56-96.5T527 175q89 0 145.5 39T729 327q0 68-50 110t-132 42H376v186h171q79 0 123 37.5t44 96.5q0 63-45 100.5T546 937q-79 0-131-35.5T361 810H102q3 144 125 233t307 89q195 0 310-86t115-228q0-89-55.5-149T749 583v-11q101-6 168-78.5T984 310q0-138-107-226T595-19l-7-37q73-11 118-55t45-120q1-104-93.5-166.5T393-460l-2 130q182 0 183 92 1 45-34.5 67.5T425-140l27 122Q284-1 180.5 84.5T73 306z"/><glyph unicode="Қ" horiz-adv-x="1480" d="M1039 0 549 651H417V0H147v1489h270V877h67l530 612h332L758 810l459-606h189v-556h-258V0h-109z"/><glyph unicode="қ" horiz-adv-x="1327" d="M135 0v1117h264V666h96l336 451h317L734 569l273-373h248v-555H997V0H833L527 421H399V0H135z"/><glyph unicode="Ҝ" horiz-adv-x="1420" d="M514 1113h170V857h45l304 632h317L959 772 1384 0h-318L749 604h-65V376H514v228h-99V0H147v1489h268V857h99v256z"/><glyph unicode="ҝ" horiz-adv-x="1264" d="M135 0v1117h264V666h93v188h156V666h41l255 451h303L920 569 1251 0H946L719 421h-71V234H492v187h-93V0H135z"/><glyph unicode="Ҡ" horiz-adv-x="1668" d="M1268 0 777 651H645V0H375v1273H28v216h617V877h68l529 612h333L986 810 1600 0h-332z"/><glyph unicode="ҡ" horiz-adv-x="1510" d="M480 0v900H74v217h669V666h96l336 451h317l-413-548L1497 0h-319L872 421H743V0H480z"/><glyph unicode="Ң" horiz-adv-x="1689" d="M147 0v1489h270V859h690v630h270V196h247v-555h-257V0h-260v633H417V0H147z"/><glyph unicode="ң" horiz-adv-x="1402" d="M389 1117V668h433v449h253V196h255v-555h-257V0H822v452H389V0H135v1117h254z"/><glyph unicode="Ҥ" horiz-adv-x="2046" d="M1965 1489v-226h-588V0h-270v633H417V0H147v1489h270V859h690v630h858z"/><glyph unicode="ҥ" horiz-adv-x="1476" d="M1459 1117V901h-384V0H822v452H389V0H135v1117h254V668h433v449h637z"/><glyph unicode="Ҧ" horiz-adv-x="2296" d="M1316 1489V832h200q290 0 452.5-145.5T2130 250q0-92-18.5-175t-60-158T1949-213t-152-87-203-32l-1 205q80 0 137.5 34T1817-2.5t41.5 116T1871 239q1 376-355 376h-200V0h-268v1265H396V0H129v1489h1187z"/><glyph unicode="ҧ" horiz-adv-x="1893" d="M135 0v1117h944V668h145q263 0 421.5-126T1804 183q0-62-22-128t-66-132-120.5-121-174.5-83L1317-97q234 90 235 280 1 127-91.5 198T1224 452h-145V0H825v901H387V0H135z"/><glyph unicode="Ҩ" horiz-adv-x="1724" d="M1588 201V-17q-229 0-413 69-155-72-346-72-203 0-362 90.5T222.5 316 137 663v236q0 172 64 311t182.5 220 269.5 81v-235q-104 0-171.5-107T414 900V663q0-196 115-323t300-127q42 0 73 4-217 203-217 510v233q0 155 53.5 280T892 1437.5t228 72.5q203 0 330-164.5T1577 922V704q0-286-178-486 82-17 189-17zm-443 122q79 67 122.5 165.5T1311 704v246q0 149-52.5 237.5T1124 1276q-81 0-133.5-87T938 963V726q0-125 53.5-228.5T1145 323z"/><glyph unicode="ҩ" horiz-adv-x="1452" d="M1316 139V-23q-199 0-350 54-121-51-269-51-164 0-292 73.5t-197 201T139 540v116q0 206 115 340t300 134V911q-64-6-107-77.5T404 656V540q0-147 83.5-249.5T697 188q16 0 24 1-132 144-132 354v169q0 182 94.5 301T931 1132q158 0 255.5-131t97.5-329V508q0-208-136-352 80-17 168-17zM913 264q55 46 86.5 112.5T1031 519v168q0 100-34 161.5T909 910q-55 0-89-58.5T786 699V531q0-160 127-267z"/><glyph unicode="Ҫ" horiz-adv-x="1522" d="M1422 987h-272q-23 131-119.5 206T796 1268q-187 0-301.5-138T380 745q0-250 114.5-386.5T795 222q136 0 233 72t122 201l272-2q-30-207-182.5-350T854-18l-8-42q73-11 118-55.5t45-120.5q1-104-93-166t-264-62l-3 129q182 0 183 93 1 45-33.5 67T684-145l27 129Q442 12 275.5 214.5T109 745q0 177 52 322t143 241.5 216 149 271 52.5q252 0 424.5-139.5T1422 987z"/><glyph unicode="ҫ" horiz-adv-x="1182" d="m685-19-7-37q73-11 118-55t45-120q1-105-93-167t-264-62l-3 130q182 0 183 92 1 45-34 67.5T516-140l26 123Q330 9 208.5 164T87 554q0 258 145.5 418T621 1132q204 0 335-110t145-292H849q-16 85-74 137t-150 52q-123 0-197-96.5T354 559q0-170 73.5-268T625 193q88 0 147.5 50T849 382h252q-13-166-124-275T685-19z"/><glyph unicode="Ҭ" horiz-adv-x="1351" d="M81 1263v226h1189v-226H809V196h249v-555H801V0H542v1263H81z"/><glyph unicode="ҭ" horiz-adv-x="1126" d="M74 901v216h978V901H690V193h253v-556H686V0H436v901H74z"/><glyph unicode="Ү" horiz-adv-x="1442" d="M45 1489h305l364-658h15l364 658h305L856 556V0H587v556z"/><glyph unicode="ү" horiz-adv-x="1111" d="M47 1117h271l242-798 235 798h270L683 14v-433H430V14z"/><glyph unicode="Ұ" horiz-adv-x="1442" d="M45 1489h305l364-658h15l364 658h305L920 665h149V499H856V0H587v499H372v166h151z"/><glyph unicode="ұ" horiz-adv-x="1111" d="M47 1117h271l242-798 235 798h270L740 177h165V10H683v-429H430V10H209v167h164z"/><glyph unicode="Ҳ" horiz-adv-x="1413" d="m372 1489 328-545h12l329 545h308L890 745l343-549h204v-555h-257V0h-136L712 542h-12L369 0H57l471 745-465 744h309z"/><glyph unicode="ҳ" horiz-adv-x="1152" d="m351 1117 225-412 229 412h279L747 559l222-363h212v-555H924V0H812L576 402 342 0H63l340 559-332 558h280z"/><glyph unicode="Ҵ" horiz-adv-x="1889" d="M1059 1489v-216H698V224h669v1265h261V225h189l-19-577h-262V0H439v1273H81v216h978z"/><glyph unicode="ҵ" horiz-adv-x="1498" d="M816 1117V900H581V216h438v901h252V216h156l-20-536h-249V0H327v900H93v217h723z"/><glyph unicode="Ҷ" horiz-adv-x="1531" d="M191 1489h264v-485q0-137 71.5-195T750 751q180 0 335 36v702h266V196h253v-555h-257V0h-262v567q-158-39-335-39-267 0-413 116t-146 360v485z"/><glyph unicode="ҷ" horiz-adv-x="1394" d="M1068 1117V193h254v-556h-257V0H815v354q-97-23-196-23-230 0-357 103.5T135 746v373h252V746q0-106 56.5-152.5T619 547q96 0 196 25v545h253z"/><glyph unicode="Ҹ" horiz-adv-x="1540" d="M831 1049V753q142 8 254 34v702h266V0h-266v567q-121-29-254-37V300H662v232q-226 18-348.5 133.5T191 1004v485h264v-485q0-116 51-174.5T662 756v293h169z"/><glyph unicode="ҹ" horiz-adv-x="1198" d="M685 820V550q68 6 130 22v545h253V0H815v354q-64-14-130-20V191H516v146q-183 22-282 123.5T135 746v373h252V746q0-80 31.5-125.5T516 558v262h169z"/><glyph unicode="Һ" horiz-adv-x="1531" d="M1340 0h-264v486q0 137-71.5 195T782 739q-180 0-335-36V0H181v1489h266V923q154 38 335 38 267 0 412.5-115.5T1340 486V0z"/><glyph unicode="һ" horiz-adv-x="1255" d="M399 655V0H135v1489h258V927h13q84 205 332 205 177 0 281-110.5T1123 711V0H860v671q0 113-58 175.5T640 909q-108 0-174.5-67.5T399 655z"/><glyph unicode="Ҽ" horiz-adv-x="1723" d="M115 1089h195q0-169 134-216 1 289 163 462.5t431 173.5q268 0 420-188t152-520V651H708v-49q0-182 106-283.5T1117 217q174 0 359 67l50-224q-66-37-182-60t-234-23q-311 0-488.5 166.5T444 602v69q-156 25-242.5 134.5T115 1089zm593-219h637v38q0 169-81.5 264.5T1039 1268q-152 0-241.5-107.5T708 870z"/><glyph unicode="ҽ" horiz-adv-x="1548" d="M48 879h201q1-102 42.5-155.5T425 665q31 213 170.5 340T946 1132q106 0 196.5-34T1304 997t112-177.5 41-252.5v-80H679q1-142 78.5-223T964 183q86 0 147.5 37t88.5 107l246-27q-36-148-165-235T960-22q-235 0-378 136.5T420 487q-183 7-277.5 108.5T48 879zm631-215h525q-1 115-71.5 189T950 927q-115 0-190-76t-81-187z"/><glyph unicode="Ҿ" horiz-adv-x="1723" d="M115 1089h195q0-169 134-216 1 289 163 462.5t431 173.5q268 0 420-188t152-520V651H708v-49q0-182 106-283.5T1117 217q174 0 359 67l50-224q-114-65-330-80v-443H939V-9Q704 34 574 194T444 602v69q-156 25-242.5 134.5T115 1089zm593-219h637v38q0 169-81.5 264.5T1039 1268q-152 0-241.5-107.5T708 870z"/><glyph unicode="ҿ" horiz-adv-x="1548" d="M48 879h201q1-102 42.5-155.5T425 665q31 213 170.5 340T946 1132q106 0 196.5-34T1304 997t112-177.5 41-252.5v-80H679q1-142 78.5-223T964 183q86 0 147.5 37t88.5 107l246-27q-33-138-148.5-223.5T1007-20l-7-36q73-11 118.5-55t45.5-120q1-104-93.5-166.5T806-460l-3 130q182 0 183 92 1 45-34 67.5T838-140l27 125Q670 12 553.5 144.5T420 487q-183 7-277.5 108.5T48 879zm631-215h525q-1 115-71.5 189T950 927q-115 0-190-76t-81-187z"/><glyph unicode="Ӏ" horiz-adv-x="562" d="M417 1489V0H147v1489h270z"/><glyph unicode="Ӂ" horiz-adv-x="2129" d="M1197 1489V860h172l346 629h329l-439-706L2072 0h-319l-346 610h-210V0H932v610H726L374 0H57l473 783-446 706h331l352-629h165v629h265zm12 384h197q0-128-92.5-206.5T1065 1588q-155 0-247.5 78.5T726 1873h195q0-58 35.5-96t108.5-38 108 38 36 96z"/><glyph unicode="ӂ" horiz-adv-x="1762" d="m63 0 412 577-409 540h304l318-450h63v450h263V667h61l318 450h304l-407-540L1700 0h-310l-318 451h-58V0H751v451h-59L373 0H63zm962 1501h198q0-128-93-206.5T881 1216q-155 0-247 78.5T543 1501h195q0-58 35-96t108-38 108 38 36 96z"/><glyph unicode="Ӄ" horiz-adv-x="1410" d="M147 0v1489h264V863h126l451 626h323L807 817q237-30 369.5-180T1310 247q1-272-144-427.5T767-336l-3 213q130 0 205 96.5t77 263.5q1 179-93 281.5T694 621H411V0H147z"/><glyph unicode="ӄ" horiz-adv-x="1250" d="M135 0v1117h264V666h96l336 451h317L764 602q183-41 288.5-157T1158 163q0-154-105-279T777-292L676-106Q779-76 842-2.5T906 161q1 116-89.5 188T578 421H399V0H135z"/><glyph unicode="Ӆ" horiz-adv-x="1483" d="M50 0v224l42 2q65 3 108 34.5t72 102T315.5 539 336 808l25 681h976V151h219V-10q0-110-43.5-216T1393-412l-157 59q4 9 19.5 41.5t21 45T1294-225t17 47.5 12 45.5 9.5 53.5T1335-24V0h-262v1268H612l-23-544q-7-153-23.5-264T516 258.5 431 113 303 29 123 0H50z"/><glyph unicode="ӆ" horiz-adv-x="1400" d="m58 0-1 217h38q59 0 93 37t52 123.5T264 623l20 494h814V151h221V-10q0-111-43-216.5T1157-412l-158 59q4 9 19.5 41.5t21 45T1057-225t17 47.5 12 45.5 9.5 53.5T1098-24V0H844v901H523l-18-360q-13-281-99.5-411T140 0H58z"/><glyph unicode="Ӈ" horiz-adv-x="1523" d="M147 0v1489h270V859h690v630h270V-88q0-51-10.5-96.5T1327-277t-73.5-80.5-119-55T964-434q-77 0-109 9v217q40-6 77-6 175 0 175 140v707H417V0H147z"/><glyph unicode="ӈ" horiz-adv-x="1205" d="M389 1117V668h433v449h253V-60q0-183-97.5-279.5T704-436q-82 0-140 14l14 213q35-11 104-11 62 0 101 41.5T822-60v512H389V0H135v1117h254z"/><glyph unicode="Ӊ" horiz-adv-x="1664" d="M147 0v1489h270V859h690v630h270V151h222V-10q0-110-43.5-216T1436-412l-157 59q3 5 20 41.5t21 45.5 17 40.5 17 48 11 45 9.5 54.5 2.5 54V0h-270v633H417V0H147z"/><glyph unicode="ӊ" horiz-adv-x="1377" d="M389 1117V668h433v449h253V0H822v452H389V0H135v1117h254zm908-966V-10q0-111-43-216.5T1135-412l-158 59q4 9 19.5 41.5t21 45T1035-225t17 47.5 12 45.5 9.5 53.5T1076-24v175h221z"/><glyph unicode="Ӌ" horiz-adv-x="1531" d="M191 1489h264v-485q0-137 71.5-195T750 751q180 0 335 36v702h266V196h253v-555h-257V0h-262v567q-158-39-335-39-267 0-413 116t-146 360v485z"/><glyph unicode="ӌ" horiz-adv-x="1198" d="M1068 1117V0H815v-363H558v556h257v161q-97-23-196-23-230 0-357 103.5T135 746v373h252V746q0-106 56.5-152.5T619 547q96 0 196 25v545h253z"/><glyph unicode="Ӎ" horiz-adv-x="1945" d="M147 1489h330L919 410h18l442 1079h330V0h-259v1023h-14L1025 4H831L420 1025h-14V0H147v1489zM1931 151V-10q0-111-43-216.5T1769-412l-158 59q4 9 19.5 41.5t21 45T1669-225t17 47.5 12 45.5 9.5 53.5T1710-24v175h221z"/><glyph unicode="ӎ" horiz-adv-x="1732" d="m778 306 332 811h320V0h-252v761L871 0H687L389 753V0H135v1117h320zm874-155V-10q0-110-43.5-216T1489-412l-157 59q4 9 19.5 41.5t21 45T1390-225t17 47.5 12 45.5 9.5 53.5T1431-24v175h221z"/><glyph unicode="ӏ" horiz-adv-x="562" d="M417 1489V0H147v1489h270z"/><glyph unicode="Ӑ" horiz-adv-x="1482" d="M338 0H50l525 1489h333L1433 0h-288l-124 367H461zm196 584h414l-201 600h-12zm351 1289h197q0-128-92.5-206.5T741 1588q-155 0-247.5 78.5T402 1873h196q0-58 35-96t108-38 108 38 36 96z"/><glyph unicode="ӑ" horiz-adv-x="1176" d="M457-23q-166 0-270 88T83 313q0 73 24 129.5t62 92.5 95.5 61 114 37T507 653q13 1 37 4 154 16 192 31 47 19 47 65v5q0 83-49 127.5T594 930t-149.5-40T365 788l-246 35q43 150 168.5 229.5T593 1132q67 0 129-11.5t122.5-39.5 104.5-70.5 71-110 27-152.5V0H793v153h-8Q745 76 662.5 26.5T457-23zm291 1524h197q0-128-92.5-206.5T604 1216q-155 0-247.5 78.5T265 1501h196q0-58 35-96t108-38 108 38 36 96zM525 171q116 0 187.5 67T784 401v131q-33-27-241-54-206-30-206-160 0-71 51.5-109T525 171z"/><glyph unicode="Ӓ" horiz-adv-x="1482" d="M338 0H50l525 1489h333L1433 0h-288l-124 367H461zm196 584h414l-201 600h-12zm-10 1070q-57 0-99 41t-42 96q0 58 41.5 97.5T524 1928q59 0 99-39.5t40-97.5q0-56-40.5-96.5T524 1654zm436 0q-57 0-99 41t-42 96q0 58 41.5 97.5T960 1928q59 0 99.5-39.5t40.5-97.5q0-55-41-96t-99-41z"/><glyph unicode="ӓ" horiz-adv-x="1176" d="M457-23q-166 0-270 88T83 313q0 73 24 129.5t62 92.5 95.5 61 114 37T507 653q13 1 37 4 154 16 192 31 47 19 47 65v5q0 83-49 127.5T594 930t-149.5-40T365 788l-246 35q43 150 168.5 229.5T593 1132q67 0 129-11.5t122.5-39.5 104.5-70.5 71-110 27-152.5V0H793v153h-8Q745 76 662.5 26.5T457-23zm68 194q116 0 187.5 67T784 401v131q-33-27-241-54-206-30-206-160 0-71 51.5-109T525 171zM387 1281q-57 0-99 41t-42 96q0 58 41.5 98t99.5 40q59 0 99.5-40t40.5-98q0-56-40.5-96.5T387 1281zm436 0q-57 0-99 41t-42 96q0 58 41.5 98t99.5 40q59 0 99.5-40t40.5-98q0-56-40.5-96.5T823 1281z"/><glyph unicode="Ӕ" horiz-adv-x="2082" d="m50 0 666 1489h1237v-226h-698V859h648V633h-648V226h704V0H985v367H506L347 0H50zm550 584h385v645H879z"/><glyph unicode="ӕ" horiz-adv-x="1878" d="M1308-22q-141 0-250 56T896 190h-8Q847 96 729.5 36.5T468-23q-174 0-279.5 88T83 313q0 73 24 129.5t62 92.5 96 61 114.5 37T507 653h4l1 1h8l1 1h8l2 1q163 17 203 32 49 19 49 65v5q0 82-49 127t-140 45-149.5-40T365 788l-246 35q43 151 168.5 230t308.5 79q48 0 92.5-7.5t90.5-24 85.5-48.5 65.5-77q127 157 351 157 105 0 195.5-34t162-101 112-177.5T1791 567v-80h-777q2-142 79.5-223t205.5-81q86 0 148 37t88 107l246-27q-36-147-163.5-234.5T1308-22zM525 171q116 0 187.5 67T784 401v131q-33-27-241-54-206-30-206-160 0-71 51.5-109T525 171zm490 493h524q-1 115-72 189t-183 74q-114 0-188.5-76.5T1015 664z"/><glyph unicode="Ӗ" horiz-adv-x="1244" d="M147 0v1489h969v-226H417V859h648V633H417V226h704V0H147zm629 1873h197q0-128-92.5-206.5T632 1588q-155 0-247.5 78.5T293 1873h196q0-58 35-96t108-38 108 38 36 96z"/><glyph unicode="ӗ" d="M630-22q-252 0-397.5 155T87 552q0 260 145 420t384 160q106 0 196.5-34T974 997t112-177.5 41-252.5v-80H348q1-142 78.5-223T633 183q86 0 148 37t89 107l246-27q-36-148-165-235T630-22zm123 1523h197q0-128-92.5-206.5T609 1216q-155 0-247.5 78.5T270 1501h195q0-58 35.5-96t108.5-38 108 38 36 96zM349 664h525q-1 115-71.5 189T620 927q-115 0-190-76t-81-187z"/><glyph unicode="Ә" horiz-adv-x="1438" d="M635 1510q170 0 306.5-53.5t226-149T1304 1081t47-288V659q0-197-81-352T1041 66 704-20q-288 0-452 181.5T87 660v155h983q-3 97-30 177t-80 142.5-140.5 97T617 1266q-168 0-360-64l-50 225q60 29 179.5 56t248.5 27zm432-919H367v-31q1-154 85-247t245-93q165 0 259.5 101T1067 591z"/><glyph unicode="ә" d="M584 1139q252 0 397.5-155T1127 565q0-260-145-420T598-15q-106 0-196.5 34T240 120 128 297.5 87 550v81h778q-1 142-78.5 222.5T580 934q-86 0-147.5-37T344 790L98 817q36 148 165 235t321 87zm281-686H340q1-115 71.5-188.5T594 191q115 0 190 76t81 186z"/><glyph unicode="Ӛ" horiz-adv-x="1438" d="M635 1510q170 0 306.5-53.5t226-149T1304 1081t47-288V659q0-197-81-352T1041 66 704-20q-288 0-452 181.5T87 660v155h983q-3 97-30 177t-80 142.5-140.5 97T617 1266q-168 0-360-64l-50 225q60 29 179.5 56t248.5 27zm432-919H367v-31q1-154 85-247t245-93q165 0 259.5 101T1067 591zM501 1654q-57 0-99 41t-42 96q0 58 41.5 97.5T501 1928q59 0 99.5-39.5T641 1791q0-55-40.5-96t-99.5-41zm436 0q-57 0-99 41t-42 96q0 58 41.5 97.5T937 1928q59 0 99.5-39.5t40.5-97.5q0-55-40.5-96t-99.5-41z"/><glyph unicode="ӛ" d="M584 1139q252 0 397.5-155T1127 565q0-260-145-420T598-15q-106 0-196.5 34T240 120 128 297.5 87 550v81h778q-1 142-78.5 222.5T580 934q-86 0-147.5-37T344 790L98 817q36 148 165 235t321 87zm281-686H340q1-115 71.5-188.5T594 191q115 0 190 76t81 186zm-474 828q-57 0-99 41t-42 96q0 58 41.5 98t99.5 40q59 0 99.5-40t40.5-98q0-56-40.5-96.5T391 1281zm437 0q-57 0-99 41t-42 96q0 58 41.5 98t99.5 40q59 0 99-39.5t40-98.5q0-56-40.5-96.5T828 1281z"/><glyph unicode="Ӝ" horiz-adv-x="2129" d="M1197 1489V860h172l346 629h329l-439-706L2072 0h-319l-346 610h-210V0H932v610H726L374 0H57l473 783-446 706h331l352-629h165v629h265zm-350 165q-57 0-99 41t-42 96q0 58 41.5 97.5T847 1928q59 0 99.5-39.5T987 1791q0-55-40.5-96t-99.5-41zm437 0q-57 0-99 41t-42 96q0 58 41.5 97.5t99.5 39.5q59 0 99-39.5t40-97.5q0-56-40.5-96.5T1284 1654z"/><glyph unicode="ӝ" horiz-adv-x="1762" d="m63 0 412 577-409 540h304l318-450h63v450h263V667h61l318 450h304l-407-540L1700 0h-310l-318 451h-58V0H751v451h-59L373 0H63zm601 1281q-57 0-99 41t-42 96q0 58 41.5 98t99.5 40q59 0 99.5-40t40.5-98q0-56-41-96.5t-99-40.5zm436 0q-57 0-99 41t-42 96q0 58 41.5 98t99.5 40q59 0 99.5-40t40.5-98q0-56-41-96.5t-99-40.5z"/><glyph unicode="Ӟ" horiz-adv-x="1334" d="M667-20q-155 0-278.5 53.5T194.5 184 121 405h273q5-90 81.5-144.5T666 206q120 0 197 62t76 160q1 103-80 166t-220 63H508v208h131q116 0 189 59.5t72 156.5q1 94-62.5 152T670 1291q-106 0-180.5-56T412 1088H152q3 122 72 219t186.5 150 260.5 53q218 0 354.5-119.5T1161 1097q1-123-72.5-209T892 775v-11q155-22 240.5-115.5T1217 414q0-124-70.5-223.5t-196-155T667-20zM454 1654q-57 0-99 41t-42 96q0 58 41.5 97.5T454 1928q59 0 99-39.5t40-97.5q0-56-40.5-96.5T454 1654zm436 0q-57 0-99 41t-42 96q0 58 41.5 97.5T890 1928q59 0 99.5-39.5t40.5-97.5q0-55-41-96t-99-41z"/><glyph unicode="ӟ" horiz-adv-x="1056" d="M73 306h262q4-62 56-96.5T527 175q89 0 145.5 39T729 327q0 68-50 110t-132 42H376v186h171q79 0 123 37.5t44 96.5q0 63-45 100.5T546 937q-79 0-131-35.5T361 810H102q3 144 125 233t307 89q195 0 310-86t115-228q0-89-55.5-149T749 583v-11q101-6 168-78.5T984 310q0-152-127-242T528-22q-198 0-324 88T73 306zm241 975q-57 0-99 41t-42 96q0 58 41.5 98t99.5 40q59 0 99.5-40t40.5-98q0-56-41-96.5t-99-40.5zm437 0q-57 0-99.5 41t-42.5 96q0 58 42 98t100 40q59 0 99-39.5t40-98.5q0-56-40.5-96.5T751 1281z"/><glyph unicode="Ӡ" horiz-adv-x="1324" d="M109 405h273q8-93 84-146t190-53q121 0 197 61.5T929 436t-80 176-234 69H468v195l344 378v10H183v225h970v-194L753 864v-12q213-18 333-139t120-290q0-195-156-319T654-20Q422-20 270 96T109 405z"/><glyph unicode="ӡ" horiz-adv-x="1324" d="M109 33h273q8-93 84.5-146.5T656-167q121 0 197 62t76 169-80 176-234 69H468v194l344 378v11H183v225h970V922L753 492v-12q213-18 333-139.5T1206 50q0-195-156-319T654-393q-232 0-384 116.5T109 33z"/><glyph unicode="Ӣ" horiz-adv-x="1517" d="M147 1489h268V474h13l701 1015h242V0h-270v1015h-12L386 0H147v1489zm962 373v-161H409v161h700z"/><glyph unicode="ӣ" horiz-adv-x="1241" d="m389 356 447 761h271V0H852v761L407 0H135v1117h254V356zm581 1133v-160H271v160h699z"/><glyph unicode="Ӥ" horiz-adv-x="1517" d="M147 1489h268V474h13l701 1015h242V0h-270v1015h-12L386 0H147v1489zm395 165q-57 0-99 41t-42 96q0 58 41.5 97.5T542 1928q59 0 99-39.5t40-97.5q0-56-40.5-96.5T542 1654zm436 0q-57 0-99 41t-42 96q0 58 41.5 97.5T978 1928q59 0 99.5-39.5t40.5-97.5q0-55-41-96t-99-41z"/><glyph unicode="ӥ" horiz-adv-x="1241" d="m389 356 447 761h271V0H852v761L407 0H135v1117h254V356zm14 925q-57 0-99 41t-42 96q0 58 41.5 98t99.5 40q59 0 99.5-40t40.5-98q0-56-40.5-96.5T403 1281zm436 0q-57 0-99 41t-42 96q0 58 41.5 98t99.5 40q59 0 99.5-40t40.5-98q0-56-40.5-96.5T839 1281z"/><glyph unicode="Ӧ" horiz-adv-x="1586" d="M1478 745q0-177-52-322t-144-241.5-217-149T793-20 521 32.5t-216.5 149T161 423t-52 322 52 322 143.5 241.5 216.5 149 272 52.5 272-52.5 217-149 144-241.5 52-322zm-271 0q0 249-113.5 386T793 1268q-186 0-299.5-137.5T380 745t113.5-385.5T793 222q187 0 300.5 137T1207 745zm-631 909q-57 0-99 41t-42 96q0 58 41.5 97.5T576 1928q59 0 99.5-39.5T716 1791q0-55-41-96t-99-41zm436 0q-57 0-99 41t-42 96q0 58 41.5 97.5t99.5 39.5q59 0 99.5-39.5t40.5-97.5q0-55-41-96t-99-41z"/><glyph unicode="ӧ" horiz-adv-x="1245" d="M623-22q-244 0-390 158T87 554q0 261 146 419.5T623 1132t389.5-158.5T1158 554q0-260-145.5-418T623-22zm1 211q128 0 197.5 103T891 555q0 161-69.5 264.5T624 923q-130 0-200-103.5T354 555t70-263.5T624 189zM405 1281q-57 0-99 41t-42 96q0 58 41.5 98t99.5 40q59 0 99.5-40t40.5-98q0-56-40.5-96.5T405 1281zm436 0q-57 0-99 41t-42 96q0 58 41.5 98t99.5 40q59 0 99.5-40t40.5-98q0-56-40.5-96.5T841 1281z"/><glyph unicode="Ө" horiz-adv-x="1586" d="M1478 745q0-177-52-322t-144-241.5-217-149T793-20 521 32.5t-216.5 149T161 423t-52 322 52 322 143.5 241.5 216.5 149 272 52.5 272-52.5 217-149 144-241.5 52-322zM793 222q168 0 277.5 111.5T1201 650H385q21-205 130.5-316.5T793 222zm408 617q-21 206-131 317.5T793 1268t-277-111.5T385 839h816z"/><glyph unicode="ө" horiz-adv-x="1245" d="M623-22q-244 0-390 158T87 554q0 261 146 419.5T623 1132t389.5-158.5T1158 554q0-260-145.5-418T623-22zm1 211q111 0 178.5 78T886 473H359q16-129 84-206.5T624 189zM360 644h525q-18 126-85 202.5T624 923q-111 0-178.5-76.5T360 644z"/><glyph unicode="Ӫ" horiz-adv-x="1586" d="M1478 745q0-177-52-322t-144-241.5-217-149T793-20 521 32.5t-216.5 149T161 423t-52 322 52 322 143.5 241.5 216.5 149 272 52.5 272-52.5 217-149 144-241.5 52-322zM793 222q168 0 277.5 111.5T1201 650H385q21-205 130.5-316.5T793 222zm408 617q-21 206-131 317.5T793 1268t-277-111.5T385 839h816zm-625 815q-57 0-99 41t-42 96q0 58 41.5 97.5T576 1928q59 0 99.5-39.5T716 1791q0-55-41-96t-99-41zm436 0q-57 0-99 41t-42 96q0 58 41.5 97.5t99.5 39.5q59 0 99.5-39.5t40.5-97.5q0-55-41-96t-99-41z"/><glyph unicode="ӫ" horiz-adv-x="1245" d="M623-22q-244 0-390 158T87 554q0 261 146 419.5T623 1132t389.5-158.5T1158 554q0-260-145.5-418T623-22zm1 211q111 0 178.5 78T886 473H359q16-129 84-206.5T624 189zM360 644h525q-18 126-85 202.5T624 923q-111 0-178.5-76.5T360 644zm45 637q-57 0-99 41t-42 96q0 58 41.5 98t99.5 40q59 0 99.5-40t40.5-98q0-56-40.5-96.5T405 1281zm436 0q-57 0-99 41t-42 96q0 58 41.5 98t99.5 40q59 0 99.5-40t40.5-98q0-56-40.5-96.5T841 1281z"/><glyph unicode="Ӭ" horiz-adv-x="1413" d="M111 481h271q13-141 90-211t228-70q160 0 242 110t92 307H525v222h511q-5 213-93 329.5T693 1285q-155 0-227-72t-86-214H109q11 111 52.5 203t112 161.5 178 108T693 1510q280 0 446-189.5T1305 812V673q0-319-163-506T700-20q-264 0-417 137T111 481zm378 1173q-57 0-99 41t-42 96q0 58 41.5 97.5T489 1928q59 0 99-39.5t40-97.5q0-56-40.5-96.5T489 1654zm436 0q-57 0-99 41t-42 96q0 58 41.5 97.5T925 1928q59 0 99.5-39.5t40.5-97.5q0-55-40.5-96t-99.5-41z"/><glyph unicode="ӭ" horiz-adv-x="1124" d="M534 915q-84-1-144.5-52T329 736H87q0 110 60.5 202t163 144 223.5 52q158 0 274-76.5T980.5 855t56.5-283v-31q0-158-56.5-283.5T808.5 56 534-20Q336-20 211.5 98T87 407h242q0-85 58.5-145.5T534 200q73 0 127.5 41T743 341t36 132H440v174h338q-15 116-76 191.5T534 915zm-191 366q-57 0-99 41t-42 96q0 58 41.5 98t99.5 40q59 0 99.5-40t40.5-98q0-56-40.5-96.5T343 1281zm437 0q-57 0-99 41t-42 96q0 58 41.5 98t99.5 40q59 0 99-39.5t40-98.5q0-56-40.5-96.5T780 1281z"/><glyph unicode="Ӯ" horiz-adv-x="1342" d="M280-20v227h85q82 0 125 34t68 103l19 50L45 1489h282l371-797 321 797h278L783 275q-24-54-45.5-92t-56-79T608 38 512-3.5 386-20H280zm738 1882v-161H319v161h699z"/><glyph unicode="ӯ" horiz-adv-x="1179" d="M299-419q-105 0-172 28l61 205q58-16 102.5-16.5t79.5 28T429-84l23 61L47 1117h279l257-844h12l258 844h280L686-135Q585-419 299-419zm640 1908v-160H239v160h700z"/><glyph unicode="Ӱ" horiz-adv-x="1342" d="M280-20v227h85q82 0 125 34t68 103l19 50L45 1489h282l371-797 321 797h278L783 275q-24-54-45.5-92t-56-79T608 38 512-3.5 386-20H280zm170 1674q-57 0-99 41t-42 96q0 58 41.5 97.5T450 1928q59 0 99.5-39.5T590 1791q0-55-41-96t-99-41zm437 0q-57 0-99.5 41t-42.5 96q0 58 42 97.5t100 39.5q59 0 99-39.5t40-97.5q0-56-40.5-96.5T887 1654z"/><glyph unicode="ӱ" horiz-adv-x="1179" d="M299-419q-105 0-172 28l61 205q58-16 102.5-16.5t79.5 28T429-84l23 61L47 1117h279l257-844h12l258 844h280L686-135Q585-419 299-419zm72 1700q-57 0-99 41t-42 96q0 58 41.5 98t99.5 40q59 0 99.5-40t40.5-98q0-56-40.5-96.5T371 1281zm436 0q-57 0-99 41t-42 96q0 58 41.5 98t99.5 40q59 0 99.5-40t40.5-98q0-56-40.5-96.5T807 1281z"/><glyph unicode="Ӳ" horiz-adv-x="1342" d="M280-20v227h85q82 0 125 34t68 103l19 50L45 1489h282l371-797 321 797h278L783 275q-24-54-45.5-92t-56-79T608 38 512-3.5 386-20H280zm439 1636 229 304h238l-270-304H719zm-349 0 184 304h237l-230-304H370z"/><glyph unicode="ӳ" horiz-adv-x="1179" d="M299-419q-105 0-172 28l61 205q58-16 102.5-16.5t79.5 28T429-84l23 61L47 1117h279l257-844h12l258 844h280L686-135Q585-419 299-419zm340 1663 229 304h239l-271-304H639zm-348 0 184 304h237l-231-304H291z"/><glyph unicode="Ӵ" horiz-adv-x="1531" d="M191 1489h264v-485q0-137 71.5-195T750 751q180 0 335 36v702h266V0h-266v567q-158-39-335-39-267 0-413 116t-146 360v485zm362 165q-57 0-99 41t-42 96q0 58 41.5 97.5T553 1928q59 0 99-39.5t40-97.5q0-56-40.5-96.5T553 1654zm436 0q-57 0-99 41t-42 96q0 58 41.5 97.5T989 1928q59 0 99.5-39.5t40.5-97.5q0-55-40.5-96t-99.5-41z"/><glyph unicode="ӵ" horiz-adv-x="1198" d="M1068 1117V0H815v354q-97-23-196-23-230 0-357 103.5T135 746v373h252V746q0-106 56.5-152.5T619 547q96 0 196 25v545h253zm-686 164q-57 0-99 41t-42 96q0 58 41.5 98t99.5 40q59 0 99-39.5t40-98.5q0-56-40.5-96.5T382 1281zm436 0q-57 0-99 41t-42 96q0 58 41.5 98t99.5 40q59 0 99.5-40t40.5-98q0-56-41-96.5t-99-40.5z"/><glyph unicode="Ӷ" horiz-adv-x="1186" d="M1105 1489v-226H417V196h252v-555H412V0H147v1489h958z"/><glyph unicode="ӷ" horiz-adv-x="949" d="M874 1117V901H393V193h254v-556H389V0H135v1117h739z"/><glyph unicode="Ӹ" horiz-adv-x="1850" d="M428 914h288q255 0 401-122t146-328q0-209-146.5-336.5T716 0H158v1489h270V914zm1234 575V0h-270v1489h270zM428 695V221h288q130 0 205 71.5T996 467q0 98-74.5 163T716 695H428zm298 896q-57 0-99 41t-42 96q0 58 41.5 97.5T726 1865q59 0 99-39.5t40-97.5q0-56-40.5-96.5T726 1591zm436 0q-57 0-99 41t-42 96q0 58 41.5 97.5t99.5 39.5q59 0 99.5-39.5t40.5-97.5q0-56-41-96.5t-99-40.5z"/><glyph unicode="ӹ" horiz-adv-x="1629" d="M389 753h254q210 0 329-102.5T1092 377q-1-169-120.5-273T643 0H135v1117h254V753zM1231 0v1117h263V0h-263zM389 537V216h254q86 0 141 44t55 113q0 72-55 118t-141 46H389zm208 744q-57 0-99 41t-42 96q0 58 41.5 98t99.5 40q59 0 99.5-40t40.5-98q0-56-40.5-96.5T597 1281zm436 0q-57 0-99 41t-42 96q0 58 41.5 98t99.5 40q59 0 99.5-40t40.5-98q0-56-40.5-96.5T1033 1281z"/><glyph unicode="Ӻ" horiz-adv-x="1186" d="M1105 1489v-226H417V863h212V697H417V235h251V-48q0-182-96.5-285T301-436q-79 0-136 14l15 215q36-13 99-13 60 0 96 45t36 127V0H147v697H-68v166h215v626h958z"/><glyph unicode="ӻ" horiz-adv-x="949" d="M874 1117V901H393V671h220V505H393V-48q0-182-97-285T25-436q-79 0-136 14l15 215q36-13 100-13 60 0 95.5 45T135-48v553H-84v166h219v446h739z"/><glyph unicode="Ӽ" horiz-adv-x="1413" d="m372 1489 328-545h12l329 545h308L890 745l319-510h248V-48q0-182-96.5-285T1090-436q-79 0-136 14l15 215q36-13 99-13 60 0 96 45t36 127V0h-156L712 542h-12L369 0H57l471 745-465 744h309z"/><glyph unicode="ӽ" horiz-adv-x="1122" d="m63 0 335 559-327 558h280l213-380 218 380h278L729 559l184-304 3.5-7 4.5-7q41-68 62-107.5t42-109 17-133.5q-8-140-102.5-233.5T679-436q-80 0-136 14l14 215q35-14 91-14 63 0 104.5 45T787-49q-1 37-17.5 77T713 132L564 368 342 0H63z"/><glyph unicode="Ӿ" horiz-adv-x="1413" d="m372 1489 328-545h12l329 545h308L944 832h111V665H940L1356 0h-312L712 542h-12L369 0H57l421 665H358v167h115L63 1489h309z"/><glyph unicode="ӿ" horiz-adv-x="1152" d="m351 1117 225-412 229 412h279L799 646h125V479H796L1089 0H812L576 402 342 0H63l292 479H227v167h124L71 1117h280z"/><glyph horiz-adv-x="984"/><glyph horiz-adv-x="1969"/><glyph horiz-adv-x="984"/><glyph horiz-adv-x="1969"/><glyph horiz-adv-x="656"/><glyph horiz-adv-x="492"/><glyph horiz-adv-x="328"/><glyph horiz-adv-x="328"/><glyph horiz-adv-x="246"/><glyph horiz-adv-x="393"/><glyph horiz-adv-x="109"/><glyph unicode="‐" horiz-adv-x="954" d="M812 729V512H142v217h670z"/><glyph unicode="‑" horiz-adv-x="954" d="M812 729V512H142v217h670z"/><glyph unicode="‒" horiz-adv-x="954" d="M812 729V512H142v217h670z"/><glyph unicode="–" horiz-adv-x="1024" d="M1024 729V512H0v217h1024z"/><glyph unicode="—" horiz-adv-x="2048" d="M2048 729V512H0v217h2048z"/><glyph unicode="‘" horiz-adv-x="466" d="M108 1024v148q-1 95 52.5 200T295 1543l122-80q-100-151-99-289v-150H108z"/><glyph unicode="’" horiz-adv-x="437" d="M359 1489v-148q0-96-53-199T172 971l-123 79q100 151 100 290v149h210z"/><glyph unicode="‚" horiz-adv-x="466" d="M357 186V38q0-96-53-199T170-332L48-253Q148-102 148 36v150h209z"/><glyph unicode="“" horiz-adv-x="835" d="M108 1024v148q-1 95 52.5 200T295 1543l122-80q-100-151-99-289v-150H108zm369 0v148q-1 95 52.5 200T664 1543l122-80q-100-151-99-289v-150H477z"/><glyph unicode="”" horiz-adv-x="834" d="M359 1489v-148q0-96-53-199T172 971l-123 79q100 151 100 290v149h210zm368 0v-148q0-96-53-199T540 971l-123 79q100 151 100 290v149h210z"/><glyph unicode="„" horiz-adv-x="834" d="M356 186V38q0-96-53-199T169-332L47-253Q147-102 147 36v150h209zm368 0V38q0-96-53-199T537-332l-122 79Q515-102 515 36v150h209z"/><glyph unicode="…" horiz-adv-x="1650" d="M302-16q-67 0-114 46.5T142 144q-1 65 46 112t114 47q65 0 112-47t48-112q-1-66-48-113T302-16zm529 0q-67 0-114 46.5T671 144q-1 65 46 112t114 47q65 0 112-47t48-112q-1-66-48-113T831-16zm528 0q-67 0-114 46.5T1199 144q-1 65 46 112t114 47q65 0 112-47t48-112q-1-66-48-113t-112-47z"/><glyph horiz-adv-x="393"/><glyph unicode="‹" horiz-adv-x="779" d="M656 160H419L125 596v21l294 436h237L380 607z"/><glyph unicode="›" horiz-adv-x="779" d="m115 160 276 447-276 446h237l294-436v-21L352 160H115z"/><glyph horiz-adv-x="492"/><glyph unicode="€" horiz-adv-x="1390" d="m1092 972-70-155H513q-2-48-2-74 0-25 2-71h445l-75-157H537q38-146 127-219t215-73q154 0 289 109l103-216Q1114-20 879-20q-233 0-397 141T265 515H57l57 157h130q-2 46-2 71 0 26 2 74H57l57 155h151q53 253 217 395.5T879 1510q228 0 397-141l-102-217q-146 115-295 115-125 0-214.5-74.5T537 972h555z"/><glyph unicode="™" horiz-adv-x="1291" d="m876 954-133 324V954H621v535h146l143-366 144 366h145V954h-121v325L943 954h-67zm-632 0v434H81v101h447v-101H365V954H244z"/><glyph unicode="◼" horiz-adv-x="1116" d="M0 1116h1116V0H0v1116z"/></font>
</defs>
</svg>
