<svg xmlns="http://www.w3.org/2000/svg"><defs><font id="poppinssemibold" horiz-adv-x="1388"><font-face units-per-em="2048" ascent="1638" descent="-410"/><glyph horiz-adv-x="0"/><glyph horiz-adv-x="682"/><glyph horiz-adv-x="0"/><glyph horiz-adv-x="0"/><glyph horiz-adv-x="487"/><glyph horiz-adv-x="487"/><glyph horiz-adv-x="487"/><glyph horiz-adv-x="487"/><glyph unicode="!" horiz-adv-x="724" d="M186 154q0 72 50.5 120T365 322q76 0 125-48.5T539 154q0-72-49.5-120T365-14q-78 0-128.5 48T186 154zm17 1300h309l-33-989H238z"/><glyph unicode="&quot;" horiz-adv-x="745" d="M76 1634h246l-25-434H102zm346 0h248l-27-434H449z"/><glyph unicode="#" horiz-adv-x="1816" d="M53 348v256h365l67 316H178v256h363l71 340h271l-72-340h373l71 340h273l-72-340h262V920h-317l-68-316h260V348h-315L1204 0H932l74 348H633L559 0H289l73 348H53zm635 256h373l67 316H756z"/><glyph unicode="$" horiz-adv-x="1339" d="M109 399h307q12-147 151-178v391q-147 37-237 74T174.5 805 109 1028q0 178 128 291t330 129v166h131v-166q197-16 314.5-118.5T1145 1047H836q-6 59-42 103t-96 62V825q154-39 243-74.5T1095.5 634t65.5-222q0-107-54-200T947.5 58.5 698-12v-166H567v168Q362 8 237.5 113.5T109 399zm299 643q0-67 40.5-109T567 864v355q-74-10-116.5-55.5T408 1042zm290-825q78 14 122 63.5T864 399q0 68-43 109t-123 67V217z"/><glyph unicode="%" horiz-adv-x="1697" d="M76 1126q0 156 91 244t234 88 234.5-88 91.5-244q0-158-91-245.5T401 793q-143 0-234 88t-91 245zm211 0q0-162 112-161 55 0 86 39.5t31 121.5q0 160-117 160-112 0-112-160zM307 0l803 1434h281L586 0H307zm668 309q0 158 91 245t234 87 232.5-87 89.5-245-89-246-233-88q-145 0-235 88.5T975 309zm207 0q0-162 116-162 115 0 115 162 0 160-115 160-116 0-116-160z"/><glyph unicode="&amp;" horiz-adv-x="1593" d="M72 414q0 141 79.5 253.5T387 850q-55 68-79.5 130T283 1114q0 98 51 177t146 124 222 45q129 0 221.5-49t137.5-131 39-182H821q2 68-32.5 103.5T694 1237q-57 0-95-34t-38-87q0-51 31-101t100-124l361-356q4 4 6 8l4 8 117 194h299l-144-251q-41-80-88-152L1593 0h-352l-156 154Q886-24 600-25q-158 0-277.5 54.5t-185 154T72 414zm282 16q0-92 70-154.5T608 213q168 0 297 119L553 680q-199-88-199-250z"/><glyph unicode="'" horiz-adv-x="399" d="M76 1634h246l-25-434H102z"/><glyph unicode="(" horiz-adv-x="993" d="M219 729q0 350 115 658.5T668 1892h288v-26q-225-215-342.5-516T496 729q0-311 111.5-601T926-375v-28H637Q438-211 328.5 88T219 729z"/><glyph unicode=")" horiz-adv-x="993" d="M37 1866v26h289q219-197 333.5-505T774 729q0-342-109.5-641T356-403H68v28q207 213 318.5 503T498 729q0 319-118 620.5T37 1866z"/><glyph unicode="*" horiz-adv-x="1060" d="m139 1030 267 96-265 93 105 188 227-180-47 284h215l-49-284 225 178 103-184-267-97 267-96-107-190-221 182 47-283H426l45 283-219-186z"/><glyph unicode="+" horiz-adv-x="1380" d="M168 604v250h387v397h270V854h387V604H825V207H555v397H168z"/><glyph unicode="," horiz-adv-x="520" d="m31-274 133 575h291L215-274H31z"/><glyph unicode="-" horiz-adv-x="1193" d="M145 610v242h869V610H145z"/><glyph unicode="." horiz-adv-x="532" d="M90 154q0 72 50 120t128 48q76 0 125-48.5T442 154q0-72-49-120T268-14q-78 0-128 48T90 154z"/><glyph unicode="/" horiz-adv-x="995" d="m76-371 553 2310h280L356-371H76z"/><glyph unicode="0" horiz-adv-x="1323" d="M109 766q0 354 128 555t425 201 424.5-201T1214 766q0-356-128-559T662 4Q365 4 237 207T109 766zm282 0q0-156 18.5-261.5t78-170T662 270t174 64.5 77.5 170T932 766q0 152-19.5 255t-78 168.5T662 1255q-115 0-173.5-65.5t-78-168.5T391 766z"/><glyph unicode="1" horiz-adv-x="741" d="M74 1229v264h493V0H272v1229H74z"/><glyph unicode="2" horiz-adv-x="1175" d="M90 1026q8 246 146.5 373T588 1526q233 0 358-124t125-327q0-160-86-305T788.5 517.5 500 258h604V20H92v213l107 91q197 164 313.5 273.5t194 228T784 1059q0 104-49 163.5T584 1282t-157.5-68.5T369 1026H90z"/><glyph unicode="3" horiz-adv-x="1226" d="M92 451h279q4-100 68.5-161T616 229q104 0 161 58.5T834 438q0 123-78 176.5T514 668h-59v235h59q291 0 291 195 0 88-52.5 137T602 1284q-96 0-148.5-52T393 1100H113q10 205 144 316.5T610 1528q150 0 256.5-52.5T1027 1334t54-201q0-129-66.5-218.5T856 795v-9q119-37 185.5-131t66.5-241q0-123-56.5-219.5T885.5 44 623-10q-231 0-377 116.5T92 451z"/><glyph unicode="4" horiz-adv-x="1353" d="M96 291v225l670 959h334V541h180V291h-180V0H813v291H96zm316 250h419v626z"/><glyph unicode="5" horiz-adv-x="1318" d="M162 422h278q18-82 83-131t165-49q121 0 182.5 75.5T932 518q0 127-62.5 193.5T686 778q-86 0-143.5-43T461 621H186v876h926v-252H449V895q43 53 122.5 87t169.5 34q164 0 268.5-72T1161 760.5t47-238.5q0-236-134-379T692 0Q459 0 319.5 116.5T162 422z"/><glyph unicode="6" horiz-adv-x="1310" d="M141 770q0 375 129 566.5T678 1528q215 0 333.5-117t137.5-291H883q-21 86-71 129t-144 43q-141 0-208-113.5T391 809q49 82 143.5 128T739 983q133 0 235.5-57.5t160-167T1192 496q0-145-58.5-259t-171-177.5T694-4Q481-4 359.5 90t-170 263T141 770zm277-270q0-121 68.5-190.5T680 240q111 0 175.5 67.5T920 489q0 119-62.5 189T674 748q-109 0-182.5-63.5T418 500z"/><glyph unicode="7" horiz-adv-x="1122" d="M72 1243v246h987v-213L514 0H223l549 1243H72z"/><glyph unicode="8" horiz-adv-x="1316" d="M119 424q0 129 63.5 224T358 791q-204 106-204 329 0 111 56 202t170 145.5 277 54.5q164 0 278-54.5t170-145.5 56-202q0-113-55-197.5T958 791q113-49 176.5-143.5T1198 424q0-139-70.5-242.5T934 22.5 657-33 381.5 22.5t-192 159T119 424zm276 12q0-102 71-166.5T657 205q121 0 191 65.5T918 436q0 109-72 169.5T657 666q-116 0-189-59.5T395 436zm39 641q0-92 62.5-147.5T657 874t162 56.5 64 148.5q0 101-60.5 156T657 1290q-102 0-162.5-55T434 1077z"/><glyph unicode="9" horiz-adv-x="1282" d="M133 1032q0 227 135 361.5T637 1528q291 0 410.5-186.5T1167 780q0-266-46-436T963.5 86 659-2Q507-2 401 56.5T238.5 210 174 420h266q17-90 75-138.5T672 233q127 0 184 105.5T913 694q-47-66-132-102.5T598 555q-131 0-236.5 54.5t-167 162T133 1032zm275 2q0-109 62-177.5T657 788q107 0 168.5 66t61.5 176q0 121-64.5 187.5T647 1284t-175-68.5-64-181.5z"/><glyph unicode=":" horiz-adv-x="538" d="M90 154q0 72 50 120t128 48q76 0 125-48.5T442 154q0-72-49-120T268-14q-78 0-128 48T90 154zm0 848q0 72 50 120t128 48q76 0 125-48.5t49-119.5q0-72-49-120t-125-48q-78 0-128 48t-50 120z"/><glyph unicode=";" horiz-adv-x="663" d="m84-274 133 575h291L268-274H84zm57 1268q0 72 50 120t128 48q76 0 125-48.5T493 994q0-72-49-120t-125-48q-78 0-128 48t-50 120z"/><glyph unicode="&lt;" horiz-adv-x="1196" d="m162 729 446 459h361L522 729l447-459H608z"/><glyph unicode="=" horiz-adv-x="1511" d="M197 358v250h1116V358H197zm0 492v250h1116V850H197z"/><glyph unicode="&gt;" horiz-adv-x="1161" d="m182 270 449 459-449 459h363l446-459-446-459H182z"/><glyph unicode="?" horiz-adv-x="1101" d="M72 1047q-2 125 53 223t162.5 153.5T541 1479q213 0 343-116t130-319q0-201-129-306T543 633l-8-158H283l-11 348h93q178 0 274 47.5t96 171.5q0 90-52 143.5T541 1239q-94 0-146.5-51T342 1047H72zm157-893q0 72 50.5 120T408 322q76 0 125-48.5T582 154q0-72-49.5-120T408-14q-78 0-128.5 48T229 154z"/><glyph unicode="@" horiz-adv-x="2152" d="M145 268q0 301 140.5 547T675 1202t558 141q237 0 411.5-88t267.5-247.5 93-368.5q0-168-58.5-317.5T1777.5 80 1516-12q-106 0-172 44t-84 126q-59-80-153.5-126T907-14q-156 0-244 93t-88 255q0 154 63.5 287T815 834.5t254 80.5q176 0 242-122l18 106h240l-96-553q-6-39-7-72 0-49 20.5-73.5T1556 176q74 0 124.5 69.5t76 174T1782 629q0 248-151.5 384T1202 1149q-236 0-426-113.5T478.5 726 371 291q0-254 150.5-391.5T948-238q199 0 350 72l41-188q-195-82-432-82-229 0-401 87T239.5-102.5 145 268zm689 113q0-84 40.5-133T997 199q74 0 135.5 43t97.5 114.5 36 153.5q0 86-47.5 139T1087 702q-76 0-133-46t-88.5-119.5T834 381z"/><glyph unicode="A" horiz-adv-x="1466" d="m53 0 514 1432h334L1415 0h-303l-94 272H449L354 0H53zm473 502h414l-207 598z"/><glyph unicode="B" horiz-adv-x="1316" d="M141 0v1430h590q145 0 250.5-47.5t160-131.5 54.5-190q0-125-66.5-209T952 733q121-22 199-120.5t78-225.5q0-115-56.5-202t-163-136T758 0H141zm287 233h289q104 0 162.5 49.5T938 422q0 92-61.5 144T711 618H428V233zm0 607h262q102 0 157.5 46t55.5 132-55 133-158 47H428V840z"/><glyph unicode="C" horiz-adv-x="1572" d="M72 717q0 211 95 378t260 260 370 93q240 0 420-123t251-340h-329q-49 102-138.5 153.5T795 1190q-125 0-222.5-58.5T421 966.5 367 717q0-141 54-249t151.5-166T795 244q117 0 206 52t138 155h329q-72-219-251-341T797-12q-205 0-370 93T167 340 72 717z"/><glyph unicode="D" horiz-adv-x="1468" d="M141 0v1430h500q225 0 396-88.5t264.5-251T1395 713t-93.5-376T1037 88 641 0H141zm287 244h203q225 0 348 122.5T1102 713q0 223-123 349t-348 126H428V244z"/><glyph unicode="E" horiz-adv-x="1089" d="M141 0v1432h830v-234H428V840h481V612H428V233h543V0H141z"/><glyph unicode="F" horiz-adv-x="1085" d="M141 0v1430h883v-232H428V831h457V604H428V0H141z"/><glyph unicode="G" horiz-adv-x="1572" d="M72 717q0 211 95 378t262 260 372 93q242 0 420-118t245-331h-329q-49 90-135.5 137.5T801 1184q-127 0-225.5-57.5T422 962.5 367 717q0-143 56-250t156.5-164T813 246q164 0 268.5 87T1219 575H727v220h774V545q-29-150-123-277T1135.5 64.5 803-12q-207 0-374 93T167 340 72 717z"/><glyph unicode="H" horiz-adv-x="1468" d="M141 0v1430h287V842h612v588h287V0h-287v608H428V0H141z"/><glyph unicode="I" horiz-adv-x="569" d="M141 0v1430h287V0H141z"/><glyph unicode="J" horiz-adv-x="1167" d="M74 436h286q2-92 44-143t122-51q78 0 119 49t41 135v1004h289V426q0-209-121-324.5T530-14q-205 0-330.5 118.5T74 436z"/><glyph unicode="K" horiz-adv-x="1357" d="M141 0v1430h287V788l520 642h346L705 721 1311 0H948L428 637V0H141z"/><glyph unicode="L" horiz-adv-x="940" d="M141 0v1430h287V227h471V0H141z"/><glyph unicode="M" horiz-adv-x="1841" d="M141 0v1430h326L922 367l454 1063h324V0h-287v930L1030 0H813L428 930V0H141z"/><glyph unicode="N" horiz-adv-x="1505" d="M141 0v1432h287l649-983v983h287V0h-287L428 981V0H141z"/><glyph unicode="O" horiz-adv-x="1607" d="M72 719q0 209 98 376t266 261 369 94q203 0 369.5-94t264-261 97.5-376q0-211-97.5-378t-265-261T805-14 436 80 170 341 72 719zm295 0q0-143 55-252t154.5-167T805 242t227 58 153.5 166.5T1241 719q0 143-55.5 250.5t-153.5 165-227 57.5-228.5-57.5-154.5-165T367 719z"/><glyph unicode="P" horiz-adv-x="1245" d="M141 0v1430h527q166 0 282.5-57.5t175-158T1184 987q0-115-54.5-215t-170-161.5T668 549H428V0H141zm287 780h227q119 0 176.5 54.5T889 987q0 209-234 209H428V780z"/><glyph unicode="Q" horiz-adv-x="1611" d="M72 719q0 209 98 376t266 261 369 94q203 0 369.5-94t264-261 97.5-376q0-190-81-347t-220-255l328-369h-357L989 8q-86-22-176-22h-8q-201 0-369 94T170 341 72 719zm295 0q0-144 55-252.5T576.5 300 805 242t227 58 153.5 166.5T1241 719q0 143-55.5 250.5t-153.5 165-227 57.5-228.5-57.5-154.5-165T367 719z"/><glyph unicode="R" horiz-adv-x="1312" d="M141 0v1430h537q166 0 282.5-58.5t175-158T1194 991q0-141-82-254.5T868 580L1210 0H879L563 557H428V0H141zm287 772h240q117 0 174 56.5T899 985q0 98-57.5 152.5T668 1192H428V772z"/><glyph unicode="S" horiz-adv-x="1247" d="M104 412h308q6-88 62-139.5T629 221q100 0 157.5 48T844 395q0 63-39 104.5t-97.5 65T547 616q-139 41-226.5 81T171 818t-62 216q0 127 63.5 221.5t178 144.5 261.5 50q221 0 359.5-107.5T1124 1042H809q-4 74-62.5 122T592 1212q-84 0-134-43t-50-125q0-57 37.5-95t94-61.5T698 834q139-41 227.5-82t152-123 63.5-215q0-115-59.5-213.5T907.5 44 635-14q-150 0-269.5 51T176 184.5 104 412z"/><glyph unicode="T" horiz-adv-x="1181" d="M66 1198v232h1048v-232H733V0H446v1198H66z"/><glyph unicode="U" horiz-adv-x="1427" d="M137 547v883h287V545q0-145 75.5-222T713 246q139 0 215 76.5t76 222.5v885h288V547q0-182-78.5-308t-211-189.5T709-14q-160 0-290 63.5T213 239t-76 308z"/><glyph unicode="V" horiz-adv-x="1456" d="M29 1430h307L729 293l391 1137h305L901 0H553z"/><glyph unicode="W" horiz-adv-x="2097" d="M45 1430h307L604 319l291 1111h319l275-1104 254 1104h309L1653 0h-338l-268 1018L766 0 430-2z"/><glyph unicode="X" horiz-adv-x="1404" d="M78 1430h330l309-480 278 480h324L870 711 1327 0H997L688 481 408 0H84l451 721z"/><glyph unicode="Y" horiz-adv-x="1302" d="M23 1430h323l307-654 305 654h320L795 498V0H508v498z"/><glyph unicode="Z" horiz-adv-x="1179" d="M102 0v221l639 967H102v242h975v-222L434 242h643V0H102z"/><glyph unicode="[" horiz-adv-x="1017" d="M276-403v2295h515v-233H547V-166h244v-237H276z"/><glyph unicode="\" horiz-adv-x="1548" d="M354 1939h279l586-2310H938z"/><glyph unicode="]" horiz-adv-x="1015" d="M225-166h244v1825H225v233h514V-403H225v237z"/><glyph unicode="^" horiz-adv-x="1392" d="m68 342 491 1092h275l491-1092h-295l-332 752-338-752H68z"/><glyph unicode="_" horiz-adv-x="1617" d="M219-82h1202v-272H219v272z"/><glyph unicode="`" horiz-adv-x="555" d="M20 1430v233l472-244v-205z"/><glyph unicode="a" d="M68 571q0 172 68.5 305.5t186 205T586 1153q127 0 222-51t153-129v162h288V0H961v166Q906 86 808.5 34T584-18q-143 0-261 73.5T136.5 263 68 571zm292 0q0-102 42-179t111-118 146-41q80 0 150 40t111 115 41 179q0 105-41 179.5T809 861t-150 40-147.5-39T402 748.5 360 571z"/><glyph unicode="b" d="M141 0v1516h287V969q55 82 152.5 133t222.5 51q145 0 263-71.5t186.5-204T1321 571t-68.5-308T1066 55.5 803-18q-127 0-222.5 50T428 162V0H141zm287 567q0-102 42-178t110.5-116T727 233q80 0 148.5 41T986 391t42 180q0 103-42 177.5T875.5 862 727 901q-78 0-146.5-40T470 745.5 428 567z"/><glyph unicode="c" horiz-adv-x="1232" d="M68 567q0 176 71.5 308.5t198.5 205 291 72.5q211 0 349-105.5T1163 752H854q-25 74-83 115.5T627 909q-123 0-195-89t-72-253q0-162 72-251t195-89q174 0 227 156h309q-47-184-186-292.5T629-18q-164 0-291 72.5T139.5 259 68 567z"/><glyph unicode="d" d="M68 571q0 172 68.5 305.5t187 205T588 1153q111 0 211-48t159-128v539h291V0H958v168Q905 84 809 33T586-18q-143 0-262 73.5T136.5 263 68 571zm292 0q0-102 42-179t111-118 146-41q80 0 150 40t111 115 41 179q0 105-41 179.5T809 861t-150 40-147.5-39T402 748.5 360 571z"/><glyph unicode="e" horiz-adv-x="1263" d="M68 567q0 176 71.5 309.5t200.5 205 297 71.5q162 0 290-69.5T1125.5 886t70.5-294q0-62-8-111H358q10-123 86-192.5T631 219q160 0 227 137h309q-49-164-188-269T637-18q-164 0-294 72.5T140.5 260 68 567zm292 107h539q-2 111-80 177.5T629 918q-106 0-179-65t-90-179z"/><glyph unicode="f" horiz-adv-x="706" d="M43 899v236h129v57q0 209 119 307 112 92 331 92h27v-241h-11q-95 0-134-35-41-37-41-133v-47h199V899H463V0H172v899H43z"/><glyph unicode="g" d="M68 571q0 172 68.5 305.5t186 205T586 1153q127 0 223-50t152-130v162h288V-8q0-158-63.5-282T995-486.5 688-559q-242 0-396.5 112.5T117-139h284q23-78 97.5-124T680-309q125 0 203 74.5T961-8v176Q906 88 808.5 35T586-18q-143 0-262 73.5T136.5 263 68 571zm292 0q0-102 42-179t111-118 146-41q80 0 150 40t111 115 41 179q0 105-41 179.5T809 861t-150 40-147.5-39T402 748.5 360 571z"/><glyph unicode="h" horiz-adv-x="1353" d="M141 0v1516h287V993q55 74 147.5 116t204.5 42q129 0 229.5-56.5t157-166T1223 666V0H936v627q0 135-67.5 207.5T684 907q-119 0-187.5-72.5T428 627V0H141z"/><glyph unicode="i" horiz-adv-x="569" d="M111 1438q0 72 50 120t126 48 126-48.5 50-119.5q0-72-50.5-120T287 1270q-76 0-126 48t-50 120zM141 0v1135h287V0H141z"/><glyph unicode="j" horiz-adv-x="569" d="M-59-297h82q66 0 92 25.5t26 83.5v1323h287V-186q0-188-93-271.5T68-541H-59v244zm168 1735q0 72 50 120t128 48q76 0 125-48.5t49-119.5q0-72-49.5-120T287 1270q-78 0-128 48t-50 120z"/><glyph unicode="k" horiz-adv-x="1196" d="M141 0v1516h287V653l381 482h373L682 565 1186 0H813L428 483V0H141z"/><glyph unicode="l" horiz-adv-x="569" d="M141 0v1516h287V0H141z"/><glyph unicode="m" horiz-adv-x="2146" d="M141 0v1135h287V997q55 72 142 113t192 41q133 0 237.5-56.5T1161 934q55 98 160.5 157.5T1550 1151q209 0 337-128t128-357V0h-286v627q0 133-68 203.5T1477 901q-117 0-185.5-70.5T1223 627V0H936v627q0 133-67.5 203.5T684 901q-119 0-187.5-70.5T428 627V0H141z"/><glyph unicode="n" horiz-adv-x="1353" d="M141 0v1135h287V993q57 74 146.5 116t195.5 42q203 0 328-128t125-357V0H936v627q0 135-67.5 207.5T684 907q-119 0-187.5-72.5T428 627V0H141z"/><glyph unicode="o" horiz-adv-x="1306" d="M70 567q0 174 76.5 307.5t209.5 206 297 72.5 297-72.5 210-206 77-307.5-79-307T945 54.5 645-18q-164 0-295 72.5T144.5 260 70 567zm290 0q0-162 81-249t204-87q78 0 146.5 38T901 383t41 184q0 162-85 249t-208 87-206-87-83-249z"/><glyph unicode="p" d="M141-541v1676h287V971q55 78 152.5 130t222.5 52q145 0 263-71.5t186.5-204T1321 571t-68.5-308T1066 55.5 803-18q-125 0-220.5 51T428 162v-703H141zM428 567q0-102 42-178t110.5-116T727 233q80 0 148.5 41T986 391t42 180q0 103-42 177.5T875.5 862 727 901q-78 0-146.5-40T470 745.5 428 567z"/><glyph unicode="q" d="M68 569q0 170 70.5 302.5t191.5 206 266 73.5q121 0 214-46t151-118v148h288V-541H961v697Q904 82 807.5 33T590-16q-143 0-263 74.5T137.5 266 68 569zm292 0q0-104 43-181t112-116 144-39q78 0 146.5 39t112 115T961 567q0 105-43.5 180.5T805.5 862 659 901q-76 0-144.5-39T403 748.5 360 569z"/><glyph unicode="r" horiz-adv-x="827" d="M141 0v1135h287V958q55 91 144.5 142t203.5 51V850h-76q-135 0-203.5-63.5T428 565V0H141z"/><glyph unicode="s" horiz-adv-x="1116" d="M80 358h289q8-66 64-108.5T573 207q82 0 128.5 32.5T748 324q0 55-56.5 82.5T512 467q-127 31-208 63.5t-139.5 100T106 813q0 94 54.5 172t156 123 238.5 45q203 0 323.5-101.5T1012 778H737q-6 68-56 108t-134 40q-78 0-120-29t-42-80q0-57 57.5-87T621 670q123-31 202.5-64t138-101.5T1022 324q0-98-54.5-176T812 26 575-18q-139 0-249.5 50t-175 136T80 358z"/><glyph unicode="t" horiz-adv-x="794" d="M51 899v236h135v280h289v-280h254V899H475V350q0-57 27.5-82.5T596 242h133V0H549Q187 0 186 352v547H51z"/><glyph unicode="u" horiz-adv-x="1353" d="M131 469v666h287V510q0-135 67.5-208T670 229q119 0 186.5 73T924 510v625h288V0H924v143Q869 69 779.5 27.5T586-14q-133 0-235.5 56t-161 165.5T131 469z"/><glyph unicode="v" horiz-adv-x="1226" d="M20 1135h308l286-871 287 871h305L786 0H438z"/><glyph unicode="w" horiz-adv-x="1728" d="M14 1135h291l201-865 217 865h303l213-863 201 863h274L1382 0h-309L866 793 659 0H348z"/><glyph unicode="x" horiz-adv-x="1105" d="M16 1135h324l231-351 209 351h307L715 569 1092 0H768L535 352 328 0H20l371 569z"/><glyph unicode="y" horiz-adv-x="1239" d="M10 1135h322l293-793 297 793h305L524-537H219L465 29z"/><glyph unicode="z" horiz-adv-x="989" d="M78 0v231l495 668H80v236h823V903L403 236h506V0H78z"/><glyph unicode="{" horiz-adv-x="1040" d="M225 633v223q98 8 148.5 53t50.5 121q0 86-18 248-20 193-21 281 0 160 95 248.5t253 88.5h141v-241h-86q-127 0-126-121 0-57 16-229 2-20 10-115.5t8-169.5q0-109-53-180.5T481 748v-5q109-23 162-93t53-181q0-70-8-165t-10-120Q662 12 662-43q0-63 30.5-92t95.5-29h86v-244H733q-158 0-253 89.5T385-70q0 90 21 283 18 162 18 246 0 76-50 121t-149 53z"/><glyph unicode="|" horiz-adv-x="632" d="M172-248v1903h289V-248H172z"/><glyph unicode="}" horiz-adv-x="1040" d="M166-164h86q66 0 96.5 29T379-43q0 55-17 227-2 25-10 120t-8 165q0 111 53.5 181.5T559 743v5q-109 20-162 91.5T344 1020q0 74 8 169t10 116q16 172 17 229 0 121-127 121h-86v241h141q158 0 253-89t95-248q0-88-20-281-18-162-19-248 0-76 50.5-121T815 856V633q-98-8-148.5-53T616 459q0-84 19-246 20-193 20-283 0-160-95-249t-253-89H166v244z"/><glyph unicode="~" horiz-adv-x="1212" d="M66 459q34 198 128.5 292.5T430 846q61 0 111.5-19.5T649 770q47-29 81-43t71-14q53 0 89 32.5t44 98.5h213q-35-199-130-293t-237-94q-61 0-109 19.5T563 532q-51 29-82.5 43.5T412 590q-53 0-90-34t-48-97H66z"/><glyph unicode="¢" horiz-adv-x="1357" d="M113 528q0 221 124.5 366.5T590 1061v174h131v-174q180-16 300-118.5T1155 684H889q-47 145-230 145-127 0-200.5-79.5T385 528q0-141 73.5-221T659 227q93 0 151 38t79 108h266q-14-156-134-258.5T721-4v-174H590V-4Q363 16 238 161.5T113 528z"/><glyph unicode="£" horiz-adv-x="1339" d="M80 604v197h170q-41 139-41 252 0 139 60.5 240.5t169 154.5 249.5 53q227 0 347-126t126-322H897q-2 98-51 154.5T692 1264q-96 0-152.5-57.5T483 1030q0-53 11.5-105.5T528 801h385V604H580q4-33 4-49 0-88-34-175T446 223h725V-6H178l-45 147q92 90 135 183.5T311 557q0 14-4 47H80z"/><glyph unicode="¥" horiz-adv-x="1302" d="M23 1430h323l305-668 303 668h324L971 838h233V639l-338-4-71-137v-19h409V281H795V0H508v281H98v198h410v19l-72 139-338 2v199h234z"/><glyph unicode="¨" horiz-adv-x="692" d="M20 1405q0 57 39 97t97 40q57 0 97-40t40-97-40-96-97-39q-58 0-97 39t-39 96zm379 0q0 57 39 97t97 40q57 0 97-40t40-97-40-96-97-39q-58 0-97 39t-39 96z"/><glyph unicode="©" horiz-adv-x="1607" d="M86 717q0 213 91 380t254 260 374 93q209 0 371.5-93t254-260 91.5-380-91.5-380-254-260T805-16q-211 0-374 93T177 337 86 717zm113 0q0-188 73.5-330.5t211-221.5T805 86q182 0 319.5 79t211 221 73.5 331q0 190-73.5 332.5t-210 219.5-320.5 77-321.5-77-211-219.5T199 717zm153 2q0-139 58.5-245.5t161-164T803 252q158 0 272.5 87T1225 569H973q-23-57-65-87.5T797 451q-94 0-148.5 68.5T594 719t54 198.5T797 985q66 0 111.5-30.5T973 866h252q-35 147-148.5 232.5T803 1184q-129 0-231.5-57.5t-161-163T352 719z"/><glyph unicode="«" horiz-adv-x="1067" d="m92 604 180 359h273L356 604l189-358H272zm424 0 182 359h271L780 604l189-358H698z"/><glyph unicode="­" horiz-adv-x="1193" d="M145 610v242h869V610H145z"/><glyph unicode="®" horiz-adv-x="1056" d="M92 1016q0 127 56.5 226T304 1396.5t224 55.5 224.5-55.5 155-154.5 55.5-226q0-125-55.5-223.5T752.5 638 528 582t-224 56-155.5 154.5T92 1016zm113 0q0-150 88-240t235-90q148 0 237 91t89 239q0 150-89 241t-237 91q-147 0-235-91.5T205 1016zm143-213v438h215q72 0 115-40t43-103q0-45-21.5-78T639 971l106-168H586l-88 153h-13V803H348zm135 256h66q14 0 24.5 8t10.5 25q0 31-35 30h-66v-63z"/><glyph unicode="´" horiz-adv-x="512" d="M20 1214v205l472 244v-233z"/><glyph unicode="¸" horiz-adv-x="604" d="M20-373h244q49 0 75 14.5t26 51.5-26 50-75 13H137V14h180V-88q113 0 190-57.5T584-311q0-111-79-170.5T311-541H20v168z"/><glyph unicode="»" horiz-adv-x="1067" d="m102 246 187 358-187 359h271l182-359-182-358H102zm424 0 189 358-189 359h271l182-359-182-358H526z"/><glyph unicode="ˆ" horiz-adv-x="649" d="M20 1214v209l306 166 303-166v-209l-303 172z"/><glyph unicode="˚" horiz-adv-x="509" d="M16 1468q0 106 70 171t170 65q102 0 171-64.5t69-171.5q0-106-69-170.5T256 1233q-100 0-170 64.5T16 1468zm142 0q0-43 28.5-72.5T256 1366t69.5 29.5T354 1468q0 48-28.5 75.5T256 1571t-69.5-27.5T158 1468z"/><glyph unicode="˜" horiz-adv-x="780" d="M16 1243q19 135 85.5 201.5T270 1511q43 0 76-13t74-38q61-39 102-39 76 0 88 88h154q-18-135-85-201.5T510 1241q-43 0-76 13.5t-74 37.5q-59 41-102 41-76 0-90-90H16z"/><glyph horiz-adv-x="969"/><glyph horiz-adv-x="1939"/><glyph horiz-adv-x="969"/><glyph horiz-adv-x="1939"/><glyph horiz-adv-x="646"/><glyph horiz-adv-x="484"/><glyph horiz-adv-x="323"/><glyph horiz-adv-x="323"/><glyph horiz-adv-x="242"/><glyph horiz-adv-x="387"/><glyph horiz-adv-x="107"/><glyph unicode="‐" horiz-adv-x="1193" d="M145 610v242h869V610H145z"/><glyph unicode="‑" horiz-adv-x="1193" d="M145 610v242h869V610H145z"/><glyph unicode="‒" horiz-adv-x="1193" d="M145 610v242h869V610H145z"/><glyph unicode="–" horiz-adv-x="1437" d="M162 610v242h1114V610H162z"/><glyph unicode="—" horiz-adv-x="1898" d="M162 610v242h1575V610H162z"/><glyph unicode="‘" horiz-adv-x="563" d="m63 913 222 517h198L367 913H63z"/><glyph unicode="’" horiz-adv-x="563" d="m82 913 117 517h301L279 913H82z"/><glyph unicode="‚" horiz-adv-x="514" d="m29-213 116 516h304L227-213H29z"/><glyph unicode="“" horiz-adv-x="976" d="m63 913 222 517h198L367 913H63zm414 0 221 517h199L780 913H477z"/><glyph unicode="”" horiz-adv-x="976" d="m82 913 117 517h301L279 913H82zm414 0 116 517h301L692 913H496z"/><glyph unicode="„" horiz-adv-x="929" d="m31-213 116 516h302L227-213H31zm413 0 117 516h303L643-213H444z"/><glyph unicode="…" horiz-adv-x="1423" d="M90 154q0 72 50 120t128 48q76 0 125-48.5T442 154q0-72-49-120T268-14q-78 0-128 48T90 154zm449 0q0 72 50 120t128 48q76 0 125-48.5T891 154q0-72-49-120T717-14q-78 0-128 48t-50 120zm450 0q0 72 50 120t128 48q76 0 125-48.5t49-119.5q0-72-49-120t-125-48q-78 0-128 48t-50 120z"/><glyph horiz-adv-x="387"/><glyph unicode="‹" horiz-adv-x="647" d="m92 604 180 359h273L356 604l189-358H272z"/><glyph unicode="›" horiz-adv-x="647" d="m102 246 187 358-187 359h271l182-359-182-358H102z"/><glyph horiz-adv-x="484"/><glyph unicode="€" horiz-adv-x="1636" d="M47 473v170h141q-4 49-4 74 0 29 4 78H47v170h176q72 221 257.5 352T909 1448q240 0 419-123t251-340h-328q-51 98-139 148.5T907 1184q-125 0-222-57.5T535 965h393V795H483q-4-49-4-78 0-25 4-74h445V473H532q53-104 151.5-163.5T907 250q117 0 205 51t139 150h328q-72-219-251-341T909-12q-246 0-431 132T221 473H47z"/><glyph unicode="™" horiz-adv-x="1728" d="M51 1276v168h543v-168H430V723H215l2 553H51zm656-553v721h284l174-463 189 463h266V723h-199l-4 453-186-453h-146l-186 469V723H707z"/><glyph unicode="◼" horiz-adv-x="1136" d="M0 0v1137h1137V0H0z"/></font>
</defs>
</svg>
