<svg width="87" height="88" fill="none" xmlns="http://www.w3.org/2000/svg"><path fill-rule="evenodd" clip-rule="evenodd" d="M4.586 72.253c4.029 12.216 57.204 20.451 74.75-.905 6.205-9.049 8.504-31.671 0-47.055C75.793 17.883 68.412 9.207 56.06 5.29 27.861.313 13.2 2.384 2.796 27.46c-1.024 2.468-4.029 2.84-2.238-.452.665-1.224 1.298-2.596 1.972-4.056C6.836 13.615 12.79.704 39.5.312c12.98 0 37.15 1.81 46.55 32.578.895 17.645 1.074 30.133-3.581 38.458-2.53 4.525-8.057 13.121-29.542 15.384-22.828 2.403-42.97 0-49.236-12.217-.746-2.262-1.611-5.882.895-2.262ZM1.9 5.743c1.79-.725 3.73-2.715 4.477-3.62.298-.453.537-1.267-.896-.905-1.432.362-3.58 2.564-4.476 3.62-.447.603-.895 1.628.895.904Zm-.447 7.691c-.448 2.262 1.07 1.909 1.343 1.357C5.48 9.361 10.405 4.385 18.014 3.027c1.343-.24.691-1.768-1.343-1.357C9.957 3.027 4.14 7.1 1.453 13.434Zm84.15-9.954c-1.075-1.086-1.94-.754-2.239-.452-.358 1.086 1.045 1.659 1.79 1.81.597 0 1.523-.272.448-1.358ZM71.726 2.123c5.37.452 11.112 4.977 14.323 11.763.642 1.358 1.116 6.59.895 8.597-.22 2.006-1.492.453-1.79-.452-.135-.407-.238-1.271-.353-2.222-.14-1.165-.296-2.46-.543-3.208-1.1-3.337-6.266-9.954-12.98-12.669-2.238-.905-.895-1.96.448-1.81Zm12.98 85.061c-1.074.724-1.343 0-1.343-.452.15-.302.636-.774 1.79-1.357.604-.305 1.045 0 .896.452-.076.23-.269.633-1.343 1.357Zm-9.4-1.81c4.029-2.714 7.878-6.967 8.953-11.311.745-1.81 2.148-4.615 1.79.452-.358 5.068-6.714 10.86-9.4 12.217-.734.371-3.295.168-1.343-1.358ZM3.692 80.85c-2.149-1.086-1.492.15-.895.905.746.905 2.775 2.895 4.923 3.62 2.149.723 1.492-.302.896-.906-.746-.754-2.776-2.533-4.924-3.62ZM16.35 17.7C9.646 23.05 3.828 32.48 2.336 37.156 1.26 38.966.386 55.254 1.58 58.42c3.581 9.502 12.98 17.646 23.723 20.36 4.394 1.111 13.13 1.207 17.009.906 4.655-1.81 13.279-2.263 17.009-2.263 5.371 0 17.073-10.406 20.142-17.645 4.028-9.502.895-24.885-.448-28.053-2.76-6.511-10-12.838-14.551-16.817-.962-.84-1.804-1.575-2.458-2.186-5.818-5.43-18.351-7.692-25.96-6.787-4.477.533-11.19 4.977-19.695 11.764Zm-1.022 5.688C5.66 31.351 2.646 44.503 2.348 50.083c0 2.896.597 6.938.895 8.597 6.088 16.288 24.17 21.265 38.046 19.455 3.244-.423 6.38-1.358 8.591-2.018h.001c1.16-.346 2.066-.616 2.599-.697 16.83-2.533 23.723-12.819 25.065-17.645.895-2.715 2.328-10.135.895-18.098-1.315-7.316-6.499-11.943-11.287-16.217-1.727-1.541-3.402-3.037-4.826-4.596-5.371-5.882-17.457-11.312-24.17-8.597-1.091.44-2.11.822-3.105 1.194-5.13 1.918-9.6 3.59-19.724 11.927Zm21.933-7.692c3.133-1.357 18.437 1.254 26.856 11.312 4.924 5.882 6.714 9.049 7.61 12.669.447 2.865.805 10.316-1.343 17.193-2.686 8.597-12.086 11.312-17.457 12.669-1.784.45-5.74.427-8.588.41-1.44-.008-2.599-.015-3.05.042-.37.047-.725.239-1.2.494-1.056.57-2.702 1.456-6.409 1.769-5.371.452-18.352-6.787-23.275-14.479-2.089-2.865-5.013-10.859 0-19.908 5.013-9.05 10.444-11.915 12.533-12.216.324-.047 1.637-1.083 3.418-2.488 3.132-2.47 7.71-6.082 10.905-7.466ZM28.309 67.73c2.835.905 9.579 2.081 13.876-.453 1.383-.839 2.766-.64 4.677-.367 1.182.17 2.565.367 4.275.367 4.476 0 14.323-3.167 18.352-13.12 2.563-6.335 1.342-14.932-3.134-19.456-2.685-4.978-9.668-12.579-17.904-14.027-.844-.148-1.842-.437-2.938-.754-4.133-1.197-9.66-2.798-13.623 1.207-.23.195-.482.412-.755.645v.001c-3.1 2.658-8.787 7.534-12.226 8.403-3.58.905-8.952 11.311-8.952 12.216-.746 1.961-1.7 7.15.448 12.217 2.686 6.334 9.847 10.858 17.904 13.12Zm34.018-30.315c-2.238-5.882-9.4-11.764-14.771-13.12-1.434-.453-8.505-.906-10.295.904-1.432 1.448-6.565 4.223-8.952 5.43-6.266 2.714-7.162 4.072-8.952 8.144-2.622 5.963-1.79 10.406-.448 13.12 1.343 2.716 6.267 7.24 8.952 9.05 2.686 1.81 9.848 2.262 12.086.905 1.79-1.086 5.222-1.358 6.714-1.358 1.79.905 4.028 1.276 5.371.905 4.924-1.357 9.847-4.977 10.743-8.144 2.148-7.601.596-13.724-.448-15.836Zm-39.837 0c-5.505 6.36-2.387 14.027 0 17.194.448.905 2.328 3.257 6.267 5.429 3.938 2.172 10.593.905 13.428 0 1.79-.905 3.133-1.357 4.923-.452 2.149 1.085 3.283 1.055 3.581.904 2.238-.603 7.34-2.714 9.847-6.334 3.134-4.524 1.79-13.574.896-15.383-.896-1.81-8.505-10.407-15.219-11.764-5.371-1.086-10.593 1.96-12.533 3.62-1.641 1.451-3.47 2.238-5.273 3.012-2.13.915-4.22 1.814-5.917 3.774Zm8.057 0c1.641-.151 5.819-1.358 9.4-4.977 3.133-3.167 10.742.453 14.323 5.43 1.194 2.715 2.775 9.14-.448 13.12-3.274 4.046-5.365 4.206-7.476 4.367-.486.037-.973.074-1.476.159-.72.12-1.342.21-1.92.292-1.581.225-2.828.403-4.794 1.065-4.221 1.422-11.19-1.357-12.98-6.787-.299-1.81-.358-6.153 1.79-9.05 2.149-2.895 3.283-3.62 3.581-3.62Zm-2.686 14.479c-.596-1.96-1.432-6.515 0-9.05.558-.986 5.372-4.071 7.162-4.071.899 0 2.546-1.367 3.842-2.441.64-.531 1.194-.99 1.53-1.179 1.342-.754 4.744-1.81 7.608 0 4.297 2.715 6.267 5.43 5.82 13.121-.598 1.81-3.671 5.34-11.19 4.977-2.15 0-4.178.905-4.924 1.358-2.388.452-7.699.543-9.848-2.715Zm20.143-8.144c0-2.715-1.79-4.525-5.82-4.525-1.626 0-4.156 1.81-3.58 5.882.358 2.534 2.685 3.167 4.476 3.167 3.58 0 4.924-2.262 4.924-4.524Zm-1.343 0c0-1.81-2.686-2.715-4.029-2.715-2.238 0-3.312 2.715-3.133 3.62.228 1.152 3.309 2.383 4.028 2.262.896-.15 3.134-1.357 3.134-3.167Z" fill="#000"/></svg>