<svg xmlns="http://www.w3.org/2000/svg"><defs><font id="interbold" horiz-adv-x="1224"><font-face units-per-em="2048" ascent="1638" descent="-410"/><glyph horiz-adv-x="0"/><glyph horiz-adv-x="682"/><glyph horiz-adv-x="474"/><glyph horiz-adv-x="474"/><glyph horiz-adv-x="474"/><glyph unicode="!" horiz-adv-x="664" d="M494 1489 465 447H199l-29 1042h324zM332-19q-72 0-123.5 51T158 156q-1 71 50.5 122T332 329q70 0 122-51t53-122q-1-72-53-123.5T332-19z"/><glyph unicode="&quot;" horiz-adv-x="803" d="M323 1489V924H102v565h221zm376 0V924H478v565h221z"/><glyph unicode="#" horiz-adv-x="1330" d="m688 0 60 369H457L397 0H164l61 369H21l39 233h203l47 285H106l39 233h203l61 369h232l-60-369h291l60 369h233l-60-369h204l-39-233h-204l-46-285h203l-38-233H981L921 0H688zM496 602h291l46 285H543z"/><glyph unicode="$" horiz-adv-x="1341" d="M621-186v166Q371-6 228.5 119T81 468h305q7-96 69.5-153T621 246v383l-94 24q-407 97-406 406 0 124 63.5 222.5t177 157T621 1508v168h119v-168q224-15 360-137t139-310H937q-8 76-59 123.5T740 1243V881l73-18q208-46 327-153.5T1260 425q-1-194-138-313T740-20v-166H621zm119 433q93 13 147 61t55 118q-1 64-50.5 104.5T740 599V247zM621 911v331q-85-12-131-55.5T444 1080q-3-114 177-169z"/><glyph unicode="%" horiz-adv-x="1760" d="M936 279v79q0 140 88 235.5t240 95.5q154 0 241-94.5t87-236.5v-79q0-141-88-236t-240-95q-154 0-241 95t-87 236zm-764 853v78q0 141 88 236t239 95q155 0 242-94.5t87-236.5v-78q0-141-88-235.5T499 802t-240 94.5-87 235.5zM268 0l1024 1489h190L458 0H268zm880 358v-79q0-60 27.5-101.5T1264 136t88 41 27 102v79q0 145-115 145-60 0-88-42t-28-103zm-763 852v-78q0-61 27-102.5t87-41.5q61 0 88.5 41.5T615 1132v78q0 62-26.5 103.5T499 1355q-60 0-87-42.5T385 1210z"/><glyph unicode="&amp;" horiz-adv-x="1380" d="M580-22Q353-22 217.5 96.5T82 396q0 120 67.5 208T353 785q-141 179-141 342 0 164 113 273t293 109q174 0 280.5-101.5T1005 1158q0-201-198-344l-87-63 246-282q63 118 63 258h257q0-291-135-470L1375 0h-323l-91 100Q805-22 580-22zm214 309L512 601l-9-6q-120-88-120-182 0-81 59-133.5T596 227q101 0 198 60zM571 928l78 51q108 69 108 161 0 48-37.5 84.5T620 1260q-64-1-103.5-41t-39.5-98q0-43 23.5-88.5T571 928z"/><glyph unicode="'" horiz-adv-x="427" d="M323 1489V924H102v565h221z"/><glyph unicode="(" horiz-adv-x="837" d="M192 597q0 537 294 920h296q-115-145-191.5-404.5T514 597t76.5-515.5T782-324H486Q192 59 192 597z"/><glyph unicode=")" horiz-adv-x="837" d="M646 597q0-537-294-920H56Q171-178 247.5 81.5T324 597t-76.5 515.5T56 1518h296q294-383 294-921z"/><glyph unicode="*" horiz-adv-x="1156" d="m481 652 18 281-236-158-97 172 254 124-254 123 97 172 236-158-18 281h195l-19-281 236 158 98-172-254-123 254-124-98-172-236 158 19-281H481z"/><glyph unicode="+" horiz-adv-x="1392" d="M566 81v384H181v261h385v385h260V726h385V465H826V81H566z"/><glyph unicode="," horiz-adv-x="620" d="m460 204-8-80Q432-70 315-364H114q1 3 13 50.5t17.5 71 17 77.5 18 93.5 13 93T201 122l3 82h256z"/><glyph unicode="-" horiz-adv-x="960" d="M820 735V489H140v246h680z"/><glyph unicode="." horiz-adv-x="609" d="M305-19q-72 0-124 51.5T130 156q-1 71 51 122t124 51q70 0 121.5-51T479 156q-1-72-52.5-123.5T305-19z"/><glyph unicode="/" horiz-adv-x="798" d="M772 1559 292-224H25l480 1783h267z"/><glyph unicode="0" horiz-adv-x="1409" d="M705-33q-282 1-442.5 206T103 743q1 364 160.5 565.5T705 1510t442-202 159-565q-1-367-160-571.5T705-33zm0 261q131 0 206 131.5T985 743q0 248-75 378.5T705 1252t-205-130.5T424 743q-1-252 74.5-383.5T705 228z"/><glyph unicode="1" horiz-adv-x="1002" d="M769 1489V0H454v1191h-9L104 977v279l369 233h296z"/><glyph unicode="2" horiz-adv-x="1290" d="M121 0v227l530 491q114 110 161 178.5t47 151.5q0 97-64 154.5T631 1260q-103 0-165-61.5T405 1031H106q-1 218 145 348.5T633 1510q238 0 384-123t146-318q0-130-82-256.5T775 481L557 268v-11h626V0H121z"/><glyph unicode="3" horiz-adv-x="1350" d="M671-20q-245 0-403 123T106 421h317q4-81 74-131.5T672 239q108 0 177 55.5T917 439q1 91-73.5 148T644 644H505v231h139q108 0 175.5 54.5T886 1071q1 84-58 136.5T674 1260q-98 0-165.5-52T438 1073H136q2 126 73 226.5T402.5 1455t273.5 55q228 0 371-120.5t142-299.5q1-123-76.5-207.5T908 775v-11q162-21 249.5-113t86.5-233q1-191-160.5-314.5T671-20z"/><glyph unicode="4" horiz-adv-x="1388" d="M98 262v248l622 979h394V514h185V262h-185V0H813v262H98zm721 252v632h-12L415 526v-12h404z"/><glyph unicode="5" horiz-adv-x="1320" d="M665-20q-152 0-274 56.5t-192 157T126 421h305q5-86 72-140t162-54q111 0 182 73t71 189-72.5 190T660 754q-67 0-127.5-27T438 654l-280 50 70 785h911v-257H488l-39-373h9q40 56 120 92t176 36q202 0 335-138.5T1221 497q1-227-153.5-372T665-20z"/><glyph unicode="6" horiz-adv-x="1352" d="M692-20q-95 0-179.5 23.5t-162 78-133 136.5-88 208T97 711q1 373 164.5 586T703 1510q218 0 363-124t168-313H924q-18 78-77 122.5T703 1240q-143 0-219.5-125T406 769h10q50 98 150.5 154.5T791 980q198 0 328.5-136T1249 499q1-228-154-374T692-20zm-1 247q109 0 181.5 75.5T944 490q1 111-71 186.5T693 752t-181-76.5T438 489q0-110 72.5-186T691 227z"/><glyph unicode="7" horiz-adv-x="1218" d="m180 0 617 1222v10H78v257h1045v-261L505 0H180z"/><glyph unicode="8" horiz-adv-x="1353" d="M676-20q-251 0-414.5 120T99 401q-1 138 92 241.5T422 769v10q-119 24-194 116t-74 214q-1 173 147.5 287T676 1510t374-114 149-287q-1-123-75.5-214.5T932 779v-10q136-23 229-126.5t94-241.5q-1-181-164.5-301T676-20zm0 231q112 0 181.5 59.5T927 425q0 96-71.5 159T676 647q-109 0-179.5-62.5T426 425q0-95 69-154.5T676 211zm0 665q94 0 155 56t61 144q0 87-60.5 142T676 1273t-155-55-60-142q0-88 60-144t155-56z"/><glyph unicode="9" horiz-adv-x="1352" d="M660 1510q95 0 179.5-23.5t161.5-78 132.5-136 88.5-207 33-282.5q1-376-163-589.5T649-20q-219 0-364 124T118 420h310q18-81 76.5-126T649 249q144 0 220 125.5T946 724h-10q-49-98-150-154t-225-56q-198 0-327.5 135.5T103 993q0 149 69 266.5t196.5 184T660 1510zm2-247q-109 0-181.5-75.5T409 1002t71.5-184.5T659 743t182.5 76 73.5 184-73.5 184-179.5 76z"/><glyph unicode=":" horiz-adv-x="609" d="M305 763q-72 0-124 51t-51 123q-1 71 51 122.5t124 51.5q70 0 121.5-51.5T479 937q-1-72-52.5-123T305 763zm0-782q-72 0-124 51.5T130 156q-1 71 51 122t124 51q70 0 121.5-51T479 156q-1-72-52.5-123.5T305-19z"/><glyph unicode=";" horiz-adv-x="620" d="m460 204-8-80Q432-70 315-364H114q1 3 13 50.5t17.5 71 17 77.5 18 93.5 13 93T201 122l3 82h256zM331 763q-72 0-124 51t-51 123q-1 71 51 122.5t124 51.5q70 0 121.5-51.5T505 937q-1-72-52.5-123T331 763z"/><glyph unicode="&lt;" horiz-adv-x="1392" d="M184 468v256l1024 451V880L516 602v-13l692-278V17z"/><glyph unicode="=" horiz-adv-x="1392" d="M193 225v259h1005V225H193zm0 483v259h1005V708H193z"/><glyph unicode="&gt;" horiz-adv-x="1392" d="M1208 468 184 17v294l692 278v13L184 880v295l1024-451V468z"/><glyph unicode="?" horiz-adv-x="1152" d="M390 447v24q0 94 12 160t39 112.5 58 76 82 61.5q76 49 117.5 99t41.5 116q0 74-51.5 120.5T562 1263q-76 0-130-48.5T375 1081H78q3 141 70.5 239.5t173.5 144 242 45.5q221 0 357-107.5t136-295.5q0-122-57.5-208T833 748q-90-54-128.5-114T665 471v-24H390zM533-19q-72 0-123.5 51T359 156q-1 71 50.5 122T533 329q70 0 122-51t53-122q-1-72-53-123.5T533-19z"/><glyph unicode="@" horiz-adv-x="2110" d="M1099-429q-464 0-719 247T124 511q1 293 115.5 511.5T577 1362t531 121q213 0 387-64t290.5-179.5 179.5-277 63-354.5q0-137-24-246.5t-74.5-194-135.5-133T1594-20q-223-16-251 157h-9q-26-67-126-111T986-11Q803-1 682 136T560 519q0 121 35.5 219t95 160 129 98.5T965 1044q117 18 220-15t123-84h10v81h227V316q1-51 22.5-78t59.5-27q153 0 152 414 0 133-36.5 240t-99 177.5-150 118-184 68T1105 1249q-142 0-260.5-36t-203-101-143-156-87-201T383 519q1-345 189.5-528T1116-192q115 0 229 23t183 51l72-211q-72-41-212-70.5T1099-429zm-34 657q130 0 185.5 74.5T1304 530q-1 138-54.5 205T1064 802q-119 0-185.5-74T811 528q0-61 13.5-112.5t42-95 79-68T1065 228z"/><glyph unicode="A" horiz-adv-x="1531" d="M386 0H49l514 1489h406L1482 0h-337l-111 340H497zm191 585h378l-183 564h-12z"/><glyph unicode="B" horiz-adv-x="1353" d="M129 0v1489h597q240 0 367-104t127-277q0-127-74-210T951 788v-15q134-6 231-104.5t97-256.5q0-184-134.5-298T766 0H129zm315 257h257q128 0 190 49.5T953 443q0 93-66.5 151.5T708 653H444V257zm0 609h234q99 0 162 51t63 138q0 82-58 131t-161 49H444V866z"/><glyph unicode="C" horiz-adv-x="1540" d="M1444 968h-319q-18 122-104.5 192.5T804 1231q-175 0-278-128T423 745q0-234 102.5-360.5T802 258q127 0 214 66.5T1125 509l319-1q-13-104-62.5-198T1252 141.5t-198-118T797-20q-150 0-277 52T300.5 180t-145 241T103 745t53 324.5T302.5 1311t220 147.5T797 1510q263 0 440-144t207-398z"/><glyph unicode="D" horiz-adv-x="1489" d="M657 0H129v1489h533q337 0 530.5-198T1386 746q0-349-194-547.5T657 0zM444 270h200q214 0 321 115.5T1072 746q0 244-107 359t-320 115H444V270z"/><glyph unicode="E" horiz-adv-x="1254" d="M129 0v1489h1004v-259H444V875h637V615H444V260h692V0H129z"/><glyph unicode="F" horiz-adv-x="1197" d="M129 0v1489h987v-259H444V875h606V615H444V0H129z"/><glyph unicode="G" horiz-adv-x="1557" d="M1117 1008q-30 106-111 164.5T805 1231q-174 0-278-128T423 746q0-231 103-359.5T808 258q156 0 246.5 81t93.5 221H828v237h623V609q0-145-48-263.5T1270 147 1066 23.5 807-20q-318 0-511 206.5T103 743q0 177 53.5 323T304 1308.5t221.5 149T800 1510q252 0 429-140t208-362h-320z"/><glyph unicode="H" horiz-adv-x="1528" d="M129 0v1489h315V875h640v614h314V0h-314v615H444V0H129z"/><glyph unicode="I" horiz-adv-x="574" d="M444 1489V0H129v1489h315z"/><glyph unicode="J" horiz-adv-x="1167" d="M726 1489h311V451q-1-215-140.5-343T529-20Q426-20 339.5 7.5T187 88 84.5 225.5 48 419h313q1-88 51-137.5T545 232q87 0 133.5 56T726 451v1038z"/><glyph unicode="K" horiz-adv-x="1412" d="M129 0v1489h315V833h20l536 656h377L825 823 1384 0h-377L599 612 444 423V0H129z"/><glyph unicode="L" horiz-adv-x="1162" d="M129 0v1489h315V260h639V0H129z"/><glyph unicode="M" horiz-adv-x="1873" d="M129 1489h389L928 489h17l411 1000h388V0h-305v969h-13L1041 7H833L447 973h-12V0H129v1489z"/><glyph unicode="N" horiz-adv-x="1505" d="M1375 1489V0h-272L455 937h-11V0H129v1489h277l643-936h13v936h313z"/><glyph unicode="O" horiz-adv-x="1601" d="M1498 745q0-179-53.5-324.5t-147-241.5-221-147.5T801-20q-149 0-276.5 52T303 180 156 421.5 103 745q0 179 53 324.5T303 1311t221.5 147.5T801 1510q148 0 275.5-51.5t221-147.5 147-241.5T1498 745zm-319 0q0 233-102 359.5T801 1231q-175 0-276.5-126.5T423 745t101.5-360T801 258q174 0 276 127t102 360z"/><glyph unicode="P" horiz-adv-x="1326" d="M129 0v1489h588q249 0 391.5-139T1251 985q0-227-144.5-364.5T709 483H444V0H129zm315 735h214q131 0 200 67.5T927 985q0 114-68.5 180.5T657 1232H444V735z"/><glyph unicode="Q" horiz-adv-x="1602" d="M1498 745q0-194-61.5-347T1263 145l213-267h-294L1062 25Q946-20 801-20q-149 0-276.5 52T303 180 156 421.5 103 745q0 179 53 324.5T303 1311t221.5 147.5T801 1510q148 0 275.5-51.5t221-147.5 147-241.5T1498 745zM692 518h267l111-142q109 130 109 369 0 233-102 359.5T801 1231q-175 0-276.5-126.5T423 745t101.5-360T801 258q41 0 81 8z"/><glyph unicode="R" horiz-adv-x="1344" d="M129 0v1489h588q251 0 392.5-131t141.5-355q0-152-68-260.5T988 579L1304 0H956L674 528H444V0H129zm315 781h214q269 0 269 222 0 229-270 229H444V781z"/><glyph unicode="S" horiz-adv-x="1341" d="M937 1061q-9 88-75 137t-179 49-176-46.5-63-120.5q-1-74 61.5-116.5T679 895l134-32q208-46 327-153.5T1260 425q-1-206-154.5-326T681-21q-276 0-435 125.5T81 468h305q7-109 86-167t206-58q119 0 191 50.5T942 426q-1 71-62 113t-191 73l-162 41q-407 97-406 406-1 201 157.5 326T685 1510q247 0 399-124.5t155-324.5H937z"/><glyph unicode="T" horiz-adv-x="1368" d="M73 1230v259h1223v-259H840V0H529v1230H73z"/><glyph unicode="U" horiz-adv-x="1493" d="M1049 1489h315V522q0-244-169.5-393.5T747-21q-279 0-448.5 149T129 522v967h315V549q0-129 83.5-211T747 256t219 82 83 211v940z"/><glyph unicode="V" horiz-adv-x="1531" d="M399 1489 759 358h13l361 1131h349L969 0H563L49 1489h350z"/><glyph unicode="W" horiz-adv-x="2121" d="M465 0 39 1489h344L629 455h12l272 1034h295l271-1037h13l247 1037h344L1657 0h-307l-284 974h-11L772 0H465z"/><glyph unicode="X" horiz-adv-x="1463" d="m425 1489 300-507h12l302 507h355L940 745 1404 0h-362L737 508h-12L420 0H59l466 745-457 744h357z"/><glyph unicode="Y" horiz-adv-x="1483" d="M42 1489h353l340-641h14l340 641h352L898 527V0H585v527z"/><glyph unicode="Z" horiz-adv-x="1365" d="M113 0v187l744 1043H112v259h1140v-186L508 260h746V0H113z"/><glyph unicode="[" horiz-adv-x="837" d="M217-324v1841h574v-231H516V-92h275v-232H217z"/><glyph unicode="\" horiz-adv-x="798" d="M505-224 25 1559h267L772-224H505z"/><glyph unicode="]" horiz-adv-x="837" d="M621 1518V-323H47v231h274v1378H47v232h574z"/><glyph unicode="^" horiz-adv-x="998" d="m68 815 306 642h250l307-642H697l-192 434h-12L303 815H68z"/><glyph unicode="_" horiz-adv-x="976" d="M977 0v-235H-1V0h978z"/><glyph unicode="`" horiz-adv-x="1018" d="m511 1261-222 331h286l154-331H511z"/><glyph unicode="a" horiz-adv-x="1188" d="M442-21q-166 0-268.5 86T71 312q0 72 23 129t60.5 94 93.5 63 114 39 129 19l88.5 9 66.5 9 53.5 12 33.5 16 22.5 23 5.5 31v5q0 69-43 106.5T596 905q-80 0-131.5-35T397 777l-286 23q33 155 160 243.5t326 88.5q96 0 179.5-22.5t150.5-67 105.5-119T1071 753V0H777v155h-8Q726 73 643.5 26T442-21zm89 214q101 0 167 59t66 147v119q-39-27-216-50-181-25-181-146 0-62 45-95.5T531 193z"/><glyph unicode="b" horiz-adv-x="1301" d="M129 0v1489h310V929h10q17 38 41.5 70.5t62 64 92.5 50 122 18.5q93 0 174-36.5T1084.5 989t98.5-181 36-251q0-137-35-247t-96-181T944.5 20 766-18q-123 0-201 57T449 179h-14V0H129zm304 559q0-151 62.5-241T668 228q112 0 173.5 90.5T903 559q0 148-61.5 237T668 885t-173.5-87.5T433 559z"/><glyph unicode="c" horiz-adv-x="1202" d="M628-22q-254 0-401.5 158.5T79 554q0 260 148 419t400 159q218 0 354-117t146-311H835q-13 85-66.5 135.5T632 890q-110 0-174.5-87.5T393 559q0-159 64.5-247.5T632 223q81 0 135.5 49T835 409h292q-11-195-145-313T628-22z"/><glyph unicode="d" horiz-adv-x="1301" d="M535-18q-96 0-178.5 38T213 129t-96 181-35 247q0 140 36 251t99 181 144 106.5 174 36.5q67 0 122-18t92-50 61.5-64.5T852 929h10v560h309V0H865v179h-13Q814 96 736 39T535-18zm98 246q110 0 172.5 90T868 559t-61.5 238.5T633 885t-173-89-61-237q0-150 61.5-240.5T633 228z"/><glyph unicode="e" d="M633-22q-257 0-405.5 154.5T79 553q0 260 147.5 419.5T620 1132q112 0 206.5-36t166-105 112-178.5T1145 564v-85H385q0-125 68-197.5T638 209q78 0 134.5 33.5T852 339l287-19q-33-157-167-249.5T633-22zM385 671h469q-1 100-64.5 164.5T625 900t-168-66-72-163z"/><glyph unicode="f" horiz-adv-x="789" d="M724 1117V884H503V0H193v884H35v233h158v81q0 176 101 268.5t265 92.5q121 0 219-30l-54-233q-50 16-100 16-66 0-93.5-30t-27.5-90v-75h221z"/><glyph unicode="g" horiz-adv-x="1296" d="M627-442q-217 0-349.5 86.5T116-131l287 39q21-56 78-92t153-36q108 0 170.5 51.5T867-7v205h-13q-35-78-115-130T535 16q-96 0-177.5 33.5t-143.5 99-97 171T82 561q0 138 36 248.5t98.5 180 144 106T535 1132q67 0 122.5-18.5t93-50 62-64T854 929h11v188h308V-11q0-208-149.5-319.5T627-442zm6 691q112 0 173.5 82.5T868 562q0 149-61.5 236T633 885t-173-88.5T399 562q0-147 60.5-230T633 249z"/><glyph unicode="h" horiz-adv-x="1278" d="M433 646V0H124v1489h301V920h13q39 101 124 156.5t210 55.5q176 0 281.5-113T1158 711V0H848v656q1 103-51.5 160.5T649 874q-97 0-156-61t-60-167z"/><glyph unicode="i" horiz-adv-x="557" d="M124 0v1117h309V0H124zm155 1261q-69 0-118 46t-49 111 49 111 118 46 118.5-46.5T447 1418q0-65-49.5-111T279 1261z"/><glyph unicode="j" horiz-adv-x="557" d="M124 1117h309V-55q0-364-423-364-16 0-62 2v242q32-2 40-2 73 0 104.5 31T124-50v1167zm154 144q-69 0-118 46t-49 111 49 111 118 46 118.5-46.5T446 1418q0-65-49.5-111T278 1261z"/><glyph unicode="k" horiz-adv-x="1191" d="M124 0v1489h309V693h17l358 424h356L749 633 1185 0H822L517 450l-84-95V0H124z"/><glyph unicode="l" horiz-adv-x="557" d="M433 1489V0H124v1489h309z"/><glyph unicode="m" horiz-adv-x="1867" d="M124 0v1117h295V920h13q36 100 117.5 156t193.5 56q114 0 195.5-57.5T1047 920h11q35 97 125 154.5t212 57.5q159 0 255.5-101t96.5-280V0h-309v690q0 90-48 138t-125 48q-84 0-131.5-53T1086 682V0H785v697q0 82-46.5 130.5T615 876q-79 0-130.5-56.5T433 671V0H124z"/><glyph unicode="n" horiz-adv-x="1273" d="M433 646V0H124v1117h295V920h13q38 99 125.5 155.5T768 1132q176 0 280.5-113.5T1153 711V0H844v656q1 102-52.5 160T645 874q-95 0-153-61t-59-167z"/><glyph unicode="o" horiz-adv-x="1256" d="M628-22q-252 0-400.5 158T79 554q0 261 148.5 419.5T628 1132q253 0 401.5-158.5T1178 554q0-260-149-418T628-22zm2 240q111 0 172 93.5T863 556t-61 245-172 94q-114 0-175.5-94T393 556t61.5-244.5T630 218z"/><glyph unicode="p" horiz-adv-x="1295" d="M124-419v1536h305V929h14q17 38 41.5 70.5t62 64 92.5 50 122 18.5q93 0 174-36.5T1078.5 989t98.5-181 36-251q0-137-35-247t-96-181T938.5 20 760-18q-123 0-201 57T443 179h-10v-598H124zm303 978q0-151 62.5-241T662 228q112 0 173.5 90.5T897 559q0 148-61.5 237T662 885t-173.5-87.5T427 559z"/><glyph unicode="q" horiz-adv-x="1295" d="M862-419v598h-10Q814 96 736 39T535-18q-96 0-178.5 38T213 129t-96 181-35 247q0 140 36 251t99 181 144 106.5 174 36.5q67 0 122-18t92-50 61.5-64.5T852 929h13v188h306V-419H862zM633 228q110 0 172.5 90T868 559t-61.5 238.5T633 885t-173-89-61-237q0-150 61.5-240.5T633 228z"/><glyph unicode="r" horiz-adv-x="837" d="M124 0v1117h300V922h12q30 102 101.5 156.5T704 1133q53 0 97-11V847q-55 17-130 17-103 0-170.5-65T433 632V0H124z"/><glyph unicode="s" horiz-adv-x="1150" d="m1053 799-284-18q-12 57-60.5 94T583 912q-73 0-122.5-31T412 801q-1-41 32-68t109-44l203-40q163-33 242.5-107.5T1079 346q-1-164-140.5-266T581-22q-220 0-352.5 92T74 324l305 16q14-68 66.5-103.5T582 201q80 0 130.5 32t51.5 82q-1 82-144 111l-193 39q-163 33-243.5 113T104 784q-1 160 128 254t345 94q209 0 332-88t144-245z"/><glyph unicode="t" horiz-adv-x="795" d="M718 1117V884H508V343q0-61 26.5-85t77.5-24q27 0 77 10l49-230q-80-26-168-29-173-7-273 75t-99 243v581H45v233h153v268h310v-268h210z"/><glyph unicode="u" horiz-adv-x="1273" d="M840 476v641h310V0H852v203h-11Q803 102 714 43.5T502-15Q332-15 228.5 98.5T124 406v711h309V461q1-99 53.5-156.5T627 247q89 0 151.5 61T840 476z"/><glyph unicode="v" horiz-adv-x="1200" d="M1165 1117 775 0H425L35 1117h327l232-799h12l231 799h328z"/><glyph unicode="w" horiz-adv-x="1741" d="M344 0 40 1117h313l174-750h10l180 750h308l183-746h9l171 746h312L1397 0h-328L877 703h-14L671 0H344z"/><glyph unicode="x" horiz-adv-x="1175" d="m383 1117 205-390 210 390h318L792 559 1124 0H808L588 386 371 0H51l332 559-320 558h320z"/><glyph unicode="y" horiz-adv-x="1200" d="M315-419q-121 0-195 32l70 231q80-29 139-13t88 90l19 47L35 1117h326l231-820h12l233 820h328L731-121Q627-419 315-419z"/><glyph unicode="z" horiz-adv-x="1170" d="M118 0v185l547 677v8H137v247h901V916L524 255v-8h533V0H118z"/><glyph unicode="{" horiz-adv-x="837" d="M791-324q-68 0-120.5 3.5T563-306t-94.5 29.5T393-227t-58 73.5-35 102T287 84v161q0 114-50.5 163T63 457v280q123 0 173.5 49T287 949v161q0 76 13 135.5t35 102 58 73.5 75.5 49 94.5 29 107 14.5 121 3.5v-231q-123 0-165.5-47.5T583 1079V866q0-45-11-81t-38.5-70.5T453 654t-129-42v-29q76-16 129-42t80-61 38.5-71.5T583 327V115q0-112 42.5-159.5T791-92v-232z"/><glyph unicode="|" horiz-adv-x="765" d="M529 1969V-480H236v2449h293z"/><glyph unicode="}" horiz-adv-x="837" d="M47 1518q69 0 121-3.5t107-14.5 94.5-29 75.5-49 58-73.5 35-102 13-135.5V949q0-114 50.5-163T775 737V457q-123 0-173.5-49T551 245V84q0-76-13-135.5t-35-102-58-73.5-75.5-49-94.5-29-107-14.5T47-323v231q123 0 165.5 48T255 116v212q0 95 56 160t202 95v29q-76 16-128.5 42t-80 60.5-38.5 71-11 81.5v212q0 112-42.5 159.5T47 1286v232z"/><glyph unicode="~" horiz-adv-x="1392" d="M156 402q-7 203 78.5 315T471 829q70 0 132-28t140-98q34-30 50.5-43t40-23 47.5-10q54 0 86.5 42.5T998 796h237q7-203-79.5-315.5T921 368q-71 0-133.5 29.5T647 495q-51 45-76.5 60.5T511 571q-55 0-87-41.5T394 402H156z"/><glyph unicode="¢" horiz-adv-x="1202" d="M567 0v171q-228 19-358 175T79 744q0 243 131 399.5T567 1319v170h120v-170q194-17 312.5-131T1127 894H835q-11 70-49 117t-99 62V420q59 15 98 61t50 118h292q-11-181-128-297T687 170V0H567zm0 422v649q-81-24-127.5-108T393 748q0-133 46-217.5T567 422z"/><glyph unicode="£" horiz-adv-x="1375" d="M1226 0H144v260h95q79 18 75 172l-6 161H140v248h160l-8 227q-5 138 56 239.5t167.5 152T759 1510q224 0 351-119.5t119-310.5l-294 8q3 87-45 128t-126 41q-73 0-118-48.5T602 1068l9-227h327V593H620l5-144q4-118-57-189h658V0z"/><glyph unicode="¥" horiz-adv-x="1171" d="m352 1489 234-570 234 570h323L811 768h220V588H737V480h294V300H737V0H426v300H109v180h317v108H109v180h250L29 1489h323z"/><glyph unicode="¨" horiz-adv-x="1095" d="M326 1270q-63 0-108 43.5T173 1418t45 104.5 108 43.5 107-43 44-105q0-61-44-104.5T326 1270zm445 0q-63 0-108 43.5T618 1418t45 104.5 108 43.5 107-43 44-105q0-61-44-104.5T771 1270z"/><glyph unicode="©" horiz-adv-x="1873" d="M937-23Q729-23 552 80T272 360 169 745q0 156 61 298.5t164 245T639 1452t298 61q209 0 385.5-103t279.5-279.5T1705 745t-102.5-385.5T1323 80 937-23zm0 242q144 0 265 70.5t191 191 70 263.5q0 144-70.5 265T1201 1200.5 937 1271q-106 0-203.5-42t-168-112.5-112.5-168T411 744q0-142 70.5-263T673 289.5 937 219zM532 745q0 170 120.5 290T943 1155q149 0 259.5-95T1330 824h-216q-11 55-59.5 89.5T943 948q-84 0-144-59.5T739 745t60-143.5T943 542q63 0 108.5 34t56.5 89h216q-17-142-125-236t-256-94q-170 0-290.5 120T532 745z"/><glyph unicode="«" horiz-adv-x="1281" d="M1172 160H892L598 596v21l294 436h280L896 607zm-478 0H413L119 596v21l294 436h281L417 607z"/><glyph unicode="­" horiz-adv-x="960" d="M820 735V489H140v246h680z"/><glyph unicode="®" horiz-adv-x="1359" d="M679 346q-158 0-292 78T175 636 97 928t78 292 212 212 292 78 292-78 212-212 78-292q0-118-46-226t-124-186-185.5-124T679 346zm0 154q178 0 303.5 125T1108 928q0 177-125.5 302.5T679 1356q-177 0-302-125.5T252 928t125-302.5T679 500zM469 666v537h263q79 0 132.5-48t53.5-130q0-104-86-152l102-207H781l-83 181h-89V666H469zm140 282h87q33 0 54 20t21 57-21 56-53 19h-88V948z"/><glyph unicode="´" horiz-adv-x="1018" d="m388 1261 155 331h286l-222-331H388z"/><glyph unicode="¸" horiz-adv-x="766" d="M313 6h143l-12-63q78-12 124-57.5T615-234q1-110-100.5-173.5T231-471l-3 138q195 0 198 91 1 44-33.5 67.5T281-142z"/><glyph unicode="»" horiz-adv-x="1288" d="m589 160 276 447-276 446h281l294-436v-21L870 160H589zm-486 0 277 447-277 446h281l294-436v-21L384 160H103z"/><glyph unicode="ˆ" horiz-adv-x="1147" d="m720 1251-146 177-146-177H164v10l295 320h230l295-320v-10H720z"/><glyph unicode="˚" horiz-adv-x="786" d="M393 1237q-104 0-176.5 69.5T144 1476q0 99 73 170.5t176 71.5q102 0 175-71.5t73-170.5q0-100-72.5-169.5T393 1237zm0 130q47 1 80.5 33.5T507 1476q0 45-33.5 78t-80.5 33q-48-1-80.5-33.5T280 1476q0-44 32.5-76.5T393 1367z"/><glyph unicode="˜" horiz-adv-x="1024" d="m304 1255-172 2q0 134 66.5 210.5T368 1545q35 0 69.5-11.5t50.5-21 48-31.5q62-45 100-45 41 1 63.5 31t23.5 81l169-5q-1-134-67-210t-169-77q-38 0-72.5 11t-51 21.5T487 1320q-21 16-32.5 23.5t-30 14.5-36.5 7q-38 0-61-29.5t-23-80.5z"/><glyph unicode="Ѐ" horiz-adv-x="1254" d="M129 0v1489h1004v-259H444V875h637V615H444V260h692V0H129zm398 1633-222 331h286l154-331H527z"/><glyph unicode="Ё" horiz-adv-x="1254" d="M129 0v1489h1004v-259H444V875h637V615H444V260h692V0H129zm283 1642q-63 0-108 44t-45 105 45 104 108 43 107-43 44-104-44-105-107-44zm445 0q-63 0-108 44t-45 105 45 104 108 43 107-43 44-104-44-105-107-44z"/><glyph unicode="Ђ" horiz-adv-x="1742" d="M1296 1489v-259H840V868q137 27 248 27 258 0 415-114.5T1660 444q0-100-31-182t-98-148-184.5-101T1068-19l-1 239q133 0 203 56t70 157q0 107-72.5 170.5T1071 667q-101 0-231-24V0H529v1230H73v259h1223z"/><glyph unicode="Ѓ" horiz-adv-x="1190" d="M1118 1489v-259H444V0H129v1489h989zm-594 144 154 331h286l-221-331H524z"/><glyph unicode="Є" horiz-adv-x="1427" d="M727-20q-285 0-455 191T103 682v89q-1 337 169.5 538T728 1510q260 0 423-140t180-382h-308q-6 122-87.5 194T728 1254q-135 0-221-108t-97-290h464V603H410q11-170 96.5-271T727 231q125 0 206.5 69.5T1022 488h309q-11-236-174-372T727-20z"/><glyph unicode="Ѕ" horiz-adv-x="1341" d="M937 1061q-9 88-75 137t-179 49-176-46.5-63-120.5q-1-74 61.5-116.5T679 895l134-32q208-46 327-153.5T1260 425q-1-206-154.5-326T681-21q-276 0-435 125.5T81 468h305q7-109 86-167t206-58q119 0 191 50.5T942 426q-1 71-62 113t-191 73l-162 41q-407 97-406 406-1 201 157.5 326T685 1510q247 0 399-124.5t155-324.5H937z"/><glyph unicode="І" horiz-adv-x="574" d="M444 1489V0H129v1489h315z"/><glyph unicode="Ї" horiz-adv-x="574" d="M444 1489V0H129v1489h315zM66 1642q-63 0-108 44t-45 105 45 104 108 43 107-43 44-104-44-105-107-44zm445 0q-63 0-107.5 44T359 1791t44.5 104 107.5 43 107.5-43 44.5-104-44.5-105-107.5-44z"/><glyph unicode="Ј" horiz-adv-x="1167" d="M726 1489h311V451q-1-215-140.5-343T529-20Q426-20 339.5 7.5T187 88 84.5 225.5 48 419h313q1-88 51-137.5T545 232q87 0 133.5 56T726 451v1038z"/><glyph unicode="Љ" horiz-adv-x="2305" d="M97 0v255l38 2q58 2 96.5 25.5t71 84.5T353 541t24 286l24 662h1007V939h242q264 0 419-125.5T2223 476q1-213-155-344.5T1650 0h-556v1235H694l-24-516q-8-166-30.5-286T580 228.5t-95.5-134-133-72T175 0H97zm1311 690V253h242q122 0 192 65t69 161q1 92-68.5 151.5T1650 690h-242z"/><glyph unicode="Њ" horiz-adv-x="2295" d="M129 0v1489h315V939h640v550h314V939h242q264 0 419-125.5T2213 476q1-213-155-344.5T1640 0h-556v690H444V0H129zm1269 690V253h242q122 0 192 65t69 161q1 92-68.5 151.5T1640 690h-242z"/><glyph unicode="Ћ" horiz-adv-x="1869" d="M1217 1489v-252H787V939q140 28 296 28 279 0 435-120.5T1673 480V0h-306v480q0 128-67 182t-217 54q-155 0-296-27V0H479v1237H73v252h1144z"/><glyph unicode="Ќ" horiz-adv-x="1412" d="M129 0v1489h315V833h20l536 656h377L825 823 1384 0h-377L599 612 444 423V0H129zm464 1633 155 331h286l-222-331H593z"/><glyph unicode="Ѝ" horiz-adv-x="1505" d="M129 1489h315V553h12l644 936h275V0h-315v937h-11L402 0H129v1489zm517 144-222 331h286l155-331H646z"/><glyph unicode="Ў" horiz-adv-x="1374" d="M290-20v256h81q86 0 127.5 31.5T565 369l18 48L42 1489h326l351-733 293 733h321L820 292q-32-71-64-120.5T675.5 75t-117-71T402-20H290zm539 1899h216q-1-133-98.5-213.5T685 1585t-261.5 80.5T326 1879h214q-1-55 35-92.5t110-37.5q73 0 108.5 37t35.5 93z"/><glyph unicode="Џ" horiz-adv-x="1488" d="M129 0v1489h307V253h613v1236h309V0H897v-361H590V0H129z"/><glyph unicode="А" horiz-adv-x="1531" d="M386 0H49l514 1489h406L1482 0h-337l-111 340H497zm191 585h378l-183 564h-12z"/><glyph unicode="Б" horiz-adv-x="1333" d="M129 0v1489h989v-259H444V939h243q264 0 418.5-125.5T1260 476q0-213-155.5-344.5T687 0H129zm315 253h243q122 0 191.5 65T948 479q0 93-69 152t-192 59H444V253z"/><glyph unicode="В" horiz-adv-x="1353" d="M129 0v1489h597q240 0 367-104t127-277q0-127-74-210T951 788v-15q134-6 231-104.5t97-256.5q0-184-134.5-298T766 0H129zm315 257h257q128 0 190 49.5T953 443q0 93-66.5 151.5T708 653H444V257zm0 609h234q99 0 162 51t63 138q0 82-58 131t-161 49H444V866z"/><glyph unicode="Г" horiz-adv-x="1190" d="M1118 1489v-259H444V0H129v1489h989z"/><glyph unicode="Д" horiz-adv-x="1613" d="M49-359v610h101q56 40 95.5 103.5t71.5 191T361 860l43 629h985V251h163v-609h-303V0H351v-359H49zm464 610h574v979H687l-23-370q-28-407-151-609z"/><glyph unicode="Е" horiz-adv-x="1254" d="M129 0v1489h1004v-259H444V875h637V615H444V260h692V0H129z"/><glyph unicode="Ж" horiz-adv-x="2222" d="M1264 1489V876h166l326 613h386l-437-701L2164 0h-376l-315 585h-209V0H959v585H755L432 0H59l467 785-447 704h387l335-613h158v613h305z"/><glyph unicode="З" horiz-adv-x="1350" d="M671-20q-245 0-403 123T106 421h317q4-81 74-131.5T672 239q108 0 177 55.5T917 439q1 91-73.5 148T644 644H505v231h139q108 0 175.5 54.5T886 1071q1 84-58 136.5T674 1260q-98 0-165.5-52T438 1073H136q2 126 73 226.5T402.5 1455t273.5 55q228 0 371-120.5t142-299.5q1-123-76.5-207.5T908 775v-11q162-21 249.5-113t86.5-233q1-191-160.5-314.5T671-20z"/><glyph unicode="И" horiz-adv-x="1505" d="M129 1489h315V553h12l644 936h275V0h-315v937h-11L402 0H129v1489z"/><glyph unicode="Й" horiz-adv-x="1505" d="M129 1489h315V553h12l644 936h275V0h-315v937h-11L402 0H129v1489zm768 390h216q-1-133-98.5-213.5T753 1585t-261.5 80.5T394 1879h215q-1-56 34.5-93t109.5-37q73 0 108.5 37t35.5 93z"/><glyph unicode="К" horiz-adv-x="1449" d="M1031 0 552 635H444V0H129v1489h315V895h64l494 594h392L813 799 1421 0h-390z"/><glyph unicode="Л" horiz-adv-x="1495" d="M49 0v253l42 4q83 7 132 63t74 176 33 331l25 662h1011V0h-306v1237H647l-23-518q-9-194-36.5-324.5T503 173 355 41 130 0H49z"/><glyph unicode="М" horiz-adv-x="1873" d="M129 1489h389L928 489h17l411 1000h388V0h-305v969h-13L1041 7H833L447 973h-12V0H129v1489z"/><glyph unicode="Н" horiz-adv-x="1528" d="M129 0v1489h315V875h640v614h314V0h-314v615H444V0H129z"/><glyph unicode="О" horiz-adv-x="1601" d="M1498 745q0-179-53.5-324.5t-147-241.5-221-147.5T801-20q-149 0-276.5 52T303 180 156 421.5 103 745q0 179 53 324.5T303 1311t221.5 147.5T801 1510q148 0 275.5-51.5t221-147.5 147-241.5T1498 745zm-319 0q0 233-102 359.5T801 1231q-175 0-276.5-126.5T423 745t101.5-360T801 258q174 0 276 127t102 360z"/><glyph unicode="П" horiz-adv-x="1566" d="M1396 1489V0h-312v1233H482V0H171v1489h1225z"/><glyph unicode="Р" horiz-adv-x="1326" d="M129 0v1489h588q249 0 391.5-139T1251 985q0-227-144.5-364.5T709 483H444V0H129zm315 735h214q131 0 200 67.5T927 985q0 114-68.5 180.5T657 1232H444V735z"/><glyph unicode="С" horiz-adv-x="1540" d="M1444 968h-319q-18 122-104.5 192.5T804 1231q-175 0-278-128T423 745q0-234 102.5-360.5T802 258q127 0 214 66.5T1125 509l319-1q-13-104-62.5-198T1252 141.5t-198-118T797-20q-150 0-277 52T300.5 180t-145 241T103 745t53 324.5T302.5 1311t220 147.5T797 1510q263 0 440-144t207-398z"/><glyph unicode="Т" horiz-adv-x="1368" d="M73 1230v259h1223v-259H840V0H529v1230H73z"/><glyph unicode="У" horiz-adv-x="1374" d="M290-20v256h81q86 0 127.5 31.5T565 369l18 48L42 1489h326l351-733 293 733h321L820 292q-32-71-64-120.5T675.5 75t-117-71T402-20H290z"/><glyph unicode="Ф" horiz-adv-x="1768" d="M719 1329h16v187h299v-187h18q271 0 442-167.5T1665 719q0-266-171-429t-442-163h-18V-61H735v188h-16q-272 0-444 162.5T103 720q0 181 79.5 320.5t219.5 214 317 74.5zm0-263q-149 0-236.5-88.5T395 720q0-161 89-245.5T719 390h16v676h-16zm315 0V390h20q146 0 232 85t86 244q0 169-85.5 258t-232.5 89h-20z"/><glyph unicode="Х" horiz-adv-x="1463" d="m425 1489 300-507h12l302 507h355L940 745 1404 0h-362L737 508h-12L420 0H59l466 745-457 744h357z"/><glyph unicode="Ц" horiz-adv-x="1626" d="m1564 252-18-604h-299V0H129v1489h303V253h620v1236h306V252h206z"/><glyph unicode="Ч" horiz-adv-x="1566" d="M190 1489h306v-480q0-127 67-181t217-54q160 0 296 26v689h308V0h-308v551q-145-29-296-29-279 0-435 120.5T190 1009v480z"/><glyph unicode="Ш" horiz-adv-x="2148" d="M189 1489h308V253h427v1236h307V253h422v1236h306V0H189v1489z"/><glyph unicode="Щ" horiz-adv-x="2181" d="m2120 244-20-595h-286V0H189v1489h308V253h427v1236h307V253h422v1236h306V244h161z"/><glyph unicode="Ъ" horiz-adv-x="1682" d="M73 1244v245h712V939h243q264 0 419-125.5T1601 476q1-213-155-344.5T1028 0H471v1244H73zm712-554V253h243q122 0 192 65t69 161q1 92-68.5 151.5T1028 690H785z"/><glyph unicode="Ы" horiz-adv-x="1830" d="M449 939h243q264 0 419-125.5T1265 476q1-213-155-344.5T692 0H135v1489h314V939zm1251 550V0h-315v1489h315zM449 690V253h243q122 0 192 65t69 161q1 92-68.5 151.5T692 690H449z"/><glyph unicode="Ь" horiz-adv-x="1386" d="M449 939h243q264 0 419-125.5T1265 476q1-213-155-344.5T692 0H135v1489h314V939zm0-249V253h243q122 0 192 65t69 161q1 92-68.5 151.5T692 690H449z"/><glyph unicode="Э" horiz-adv-x="1434" d="M105 488h313q8-129 80.5-193T711 231q150 0 223 94t85 277H548v253h472q-18 400-311 400-151 0-216.5-66.5T417 988H103q11 112 53.5 206T272 1359t185 111 252 40q285 0 453.5-191.5T1331 803V682q0-325-166-513.5T711-20q-271 0-430.5 138.5T105 488z"/><glyph unicode="Ю" horiz-adv-x="2163" d="M444 1489V841h227q14 157 72 284t149.5 211 212 129 259.5 45q148 0 275.5-51.5t221-147.5 147-241.5T2061 745t-53.5-324.5-147-241.5-221-147.5T1364-20q-178 0-323 71T799.5 262.5 676 596H444V0H129v1489h315zm1298-744q0 233-102 359.5T1364 1231q-175 0-277-126.5T985 745t102-360 277-127q174 0 276 127t102 360z"/><glyph unicode="Я" horiz-adv-x="1402" d="M1273 0H959v528H729L447 0H99l316 579q-127 55-195 163.5T152 1003q0 224 141.5 355T686 1489h587V0zM959 781v451H746q-270 0-270-229 0-222 269-222h214z"/><glyph unicode="а" horiz-adv-x="1188" d="M442-21q-166 0-268.5 86T71 312q0 72 23 129t60.5 94 93.5 63 114 39 129 19l88.5 9 66.5 9 53.5 12 33.5 16 22.5 23 5.5 31v5q0 69-43 106.5T596 905q-80 0-131.5-35T397 777l-286 23q33 155 160 243.5t326 88.5q96 0 179.5-22.5t150.5-67 105.5-119T1071 753V0H777v155h-8Q726 73 643.5 26T442-21zm89 214q101 0 167 59t66 147v119q-39-27-216-50-181-25-181-146 0-62 45-95.5T531 193z"/><glyph unicode="б" horiz-adv-x="1258" d="m1052 1527 95-202q-66-55-155-71t-281-19q-193-2-281.5-92.5T321 845h11q105 215 368 215 216 0 346-140t130-383q0-256-147-407.5T630-22q-257 0-402.5 161T82 601v92q0 790 619 796h90q79 0 113 1t78 10 70 27zM631 218q107 0 168.5 83T861 527q0 142-61.5 220T630 825q-109 0-170.5-78T397 527q0-144 62.5-226.5T631 218z"/><glyph unicode="в" horiz-adv-x="1180" d="M124 0v1117h476q209 0 328-79t119-223q0-90-67.5-150.5T791 583q148-11 232.5-88t84.5-190q0-144-113.5-224.5T673 0H124zm288 232h261q65 0 102 31t37 85q0 59-37.5 93.5T673 476H412V232zm0 425h195q69 0 108.5 30t39.5 83q0 51-41.5 80.5T600 880H412V657z"/><glyph unicode="г" horiz-adv-x="953" d="M889 1117V873H425V0H124v1117h765z"/><glyph unicode="д" horiz-adv-x="1373" d="M36-327v573h86q35 22 59.5 71t39 126.5 22 142T258 752l29 365h857V246h173v-573h-295V0H339v-327H36zm395 573h421v633H551l-12-127q-14-194-37.5-313T431 246z"/><glyph unicode="е" d="M633-22q-257 0-405.5 154.5T79 553q0 260 147.5 419.5T620 1132q112 0 206.5-36t166-105 112-178.5T1145 564v-85H385q0-125 68-197.5T638 209q78 0 134.5 33.5T852 339l287-19q-33-157-167-249.5T633-22zM385 671h469q-1 100-64.5 164.5T625 900t-168-66-72-163z"/><glyph unicode="ж" horiz-adv-x="1797" d="m51 0 390 581-388 536h354l290-437h48v437h310V680h46l290 437h354l-388-536L1747 0h-362l-287 436h-43V0H745v436h-44L412 0H51z"/><glyph unicode="з" horiz-adv-x="1078" d="M66 316h301q2-55 48.5-87T538 197q79 0 129 36t50 101q0 61-44 98.5T556 470H395v203h161q70 0 109.5 32.5T705 790q0 57-40.5 91.5T556 916q-69 0-114-31.5T395 804H96q1 98 60.5 173.5t160.5 115 226 39.5q205 0 323.5-84.5T985 817q0-88-58-148.5T764 583v-11q106-7 177-77.5t71-184.5q0-153-131-242.5T540-22q-206 0-337 89T66 316z"/><glyph unicode="и" horiz-adv-x="1251" d="m420 409 402 708h305V0H832v711L431 0H124v1117h296V409z"/><glyph unicode="й" horiz-adv-x="1251" d="m420 409 402 708h305V0H832v711L431 0H124v1117h296V409zm349 1098h216q-1-133-98.5-213.5T625 1213t-262 80.5-98 213.5h215q-1-55 35-92.5t110-37.5q73 0 108.5 37t35.5 93z"/><glyph unicode="к" horiz-adv-x="1199" d="M124 0v1117h309V684h88l304 433h363L793 563 1193 0H825L549 396H433V0H124z"/><glyph unicode="л" horiz-adv-x="1238" d="m58 0-1 246h37q80 0 116 83.5T254 623l18 494h849V0H826v873H551l-18-341q-14-278-108-405T151 0H58z"/><glyph unicode="м" horiz-adv-x="1572" d="m784 343 303 774h369V0h-292v711L887 0H681L420 686V0H124v1117h366z"/><glyph unicode="н" horiz-adv-x="1211" d="M420 1117V682h381v435h294V0H801v439H420V0H124v1117h296z"/><glyph unicode="о" horiz-adv-x="1256" d="M628-22q-252 0-400.5 158T79 554q0 261 148.5 419.5T628 1132q253 0 401.5-158.5T1178 554q0-260-149-418T628-22zm2 240q111 0 172 93.5T863 556t-61 245-172 94q-114 0-175.5-94T393 556t61.5-244.5T630 218z"/><glyph unicode="п" d="M124 0v1117h976V0H804v873H416V0H124z"/><glyph unicode="р" horiz-adv-x="1295" d="M124-419v1536h305V929h14q17 38 41.5 70.5t62 64 92.5 50 122 18.5q93 0 174-36.5T1078.5 989t98.5-181 36-251q0-137-35-247t-96-181T938.5 20 760-18q-123 0-201 57T443 179h-10v-598H124zm303 978q0-151 62.5-241T662 228q112 0 173.5 90.5T897 559q0 148-61.5 237T662 885t-173.5-87.5T427 559z"/><glyph unicode="с" horiz-adv-x="1202" d="M628-22q-254 0-401.5 158.5T79 554q0 260 148 419t400 159q218 0 354-117t146-311H835q-13 85-66.5 135.5T632 890q-110 0-174.5-87.5T393 559q0-159 64.5-247.5T632 223q81 0 135.5 49T835 409h292q-11-195-145-313T628-22z"/><glyph unicode="т" horiz-adv-x="1142" d="M65 873v244h1013V873H718V0H423v873H65z"/><glyph unicode="у" horiz-adv-x="1200" d="M315-419q-121 0-195 32l70 231q80-29 139-13t88 90l19 47L35 1117h326l231-820h12l233 820h328L731-121Q627-419 315-419z"/><glyph unicode="ф" horiz-adv-x="1625" d="M658-380v358q-256 0-417.5 160.5T79 554q0 257 161 417.5T658 1132v357h309v-357q257 0 418.5-160.5T1547 554q0-255-161.5-415.5T967-22v-358H658zm309 600q122 0 192 94.5t70 239.5-70 240.5T967 890V220zm-309 0v670q-121 0-191-95.5T397 554t70.5-239.5T658 220z"/><glyph unicode="х" horiz-adv-x="1175" d="m383 1117 205-390 210 390h318L792 559 1124 0H808L588 386 371 0H51l332 559-320 558h320z"/><glyph unicode="ц" horiz-adv-x="1345" d="M1100 1117V214h179v-573H977V0H124v1117h296V244h388v873h292z"/><glyph unicode="ч" horiz-adv-x="1210" d="M1093 1117V0H799v337q-85-16-158-16-249 0-383 102T124 737v382h292V737q0-96 50.5-134.5T641 564q74 0 158 19v534h294z"/><glyph unicode="ш" horiz-adv-x="1758" d="M124 1117h296V246h315v871h296V246h314v871h296V0H124v1117z"/><glyph unicode="щ" horiz-adv-x="1940" d="m1879 244-22-564h-285V0H124v1117h296V246h315v871h296V246h314v871h296V244h238z"/><glyph unicode="ъ" horiz-adv-x="1444" d="M660 774h232q220 0 344.5-105.5T1362 385q-1-176-126-280.5T892 0H364v871H77v246h583V774zm0-244V244h232q78 0 128 39t51 100q-1 65-51 106t-128 41H660z"/><glyph unicode="ы" horiz-adv-x="1675" d="M420 774h232q220 0 344.5-105.5T1122 385q-1-176-126-280.5T652 0H124v1117h296V774zM1242 0v1117h310V0h-310zM420 530V244h232q78 0 128 39t51 100q-1 65-51 106t-128 41H420z"/><glyph unicode="ь" horiz-adv-x="1204" d="M420 774h232q220 0 344.5-105.5T1122 385q-1-176-126-280.5T652 0H124v1117h296V774zm0-244V244h232q78 0 128 39t51 100q-1 65-51 106t-128 41H420z"/><glyph unicode="э" horiz-adv-x="1133" d="M537 886q-79-1-129.5-45.5T357 724H79q0 180 131 295.5T537 1135q164 0 283-76t177-202 58-286v-27q0-121-34-223t-97.5-178.5T760.5 23 537-20Q331-20 205 98.5T79 420h278q0-80 49.5-134T537 231q99 1 150.5 67T753 467H453v183h300q-13 105-65 170t-151 66z"/><glyph unicode="ю" horiz-adv-x="1700" d="M375 1117V676h172q32 208 172.5 332t356.5 124q246 0 391.5-158.5T1613 558q0-258-145.5-419T1076-22q-213 0-353.5 123T548 430H375V0H65v1117h310zm701-889q123 0 182 89t60 241q-1 152-60 239.5T1076 885q-124 0-184.5-87.5T832 558q-1-152 59.5-241t184.5-89z"/><glyph unicode="я" horiz-adv-x="1184" d="M778 0v403H580L365 0H68l241 450q-100 44-155 122t-54 179q-1 165 126.5 265.5T569 1117h498V0H778zm0 612v262H569q-82 0-128-38t-45-94q-1-57 43.5-93.5T566 612h212z"/><glyph unicode="ѐ" d="M633-22q-257 0-405.5 154.5T79 553q0 260 147.5 419.5T620 1132q112 0 206.5-36t166-105 112-178.5T1145 564v-85H385q0-125 68-197.5T638 209q78 0 134.5 33.5T852 339l287-19q-33-157-167-249.5T633-22zM385 671h469q-1 100-64.5 164.5T625 900t-168-66-72-163zm121 590-222 331h286l155-331H506z"/><glyph unicode="ё" d="M633-22q-257 0-405.5 154.5T79 553q0 260 147.5 419.5T620 1132q112 0 206.5-36t166-105 112-178.5T1145 564v-85H385q0-125 68-197.5T638 209q78 0 134.5 33.5T852 339l287-19q-33-157-167-249.5T633-22zM385 671h469q-1 100-64.5 164.5T625 900t-168-66-72-163zm6 599q-63 0-107.5 43.5T239 1418t44.5 104.5T391 1566t107.5-43.5T543 1418t-44.5-104.5T391 1270zm445 0q-63 0-107.5 43.5T684 1418t44.5 104.5T836 1566t107.5-43.5T988 1418t-44.5-104.5T836 1270z"/><glyph unicode="ђ" horiz-adv-x="1281" d="M433 646V0H124v1198H-90v182h214v109h301v-109h211v-182H425V920h13q39 101 124 156.5t210 55.5q176 0 281.5-113T1158 711V-68q0-351-383-351-81 0-159 10v237q50-6 76-6 156 0 156 110v724q1 103-51.5 160.5T649 874q-97 0-156-61t-60-167z"/><glyph unicode="ѓ" horiz-adv-x="953" d="M889 1117V873H425V0H124v1117h765zm-494 144 154 331h287l-222-331H395z"/><glyph unicode="є" horiz-adv-x="1187" d="M681 646V465H371q16-112 75.5-174.5T607 228q159 0 206 159l288-47q-36-164-169.5-263T607-22q-247 0-393 161.5T68 559q0 255 146 414t393 159q196 0 330.5-102T1105 756l-287-48q-46 177-211 177-102 0-162-63t-75-176h311z"/><glyph unicode="ѕ" horiz-adv-x="1150" d="m1053 799-284-18q-12 57-60.5 94T583 912q-73 0-122.5-31T412 801q-1-41 32-68t109-44l203-40q163-33 242.5-107.5T1079 346q-1-164-140.5-266T581-22q-220 0-352.5 92T74 324l305 16q14-68 66.5-103.5T582 201q80 0 130.5 32t51.5 82q-1 82-144 111l-193 39q-163 33-243.5 113T104 784q-1 160 128 254t345 94q209 0 332-88t144-245z"/><glyph unicode="і" horiz-adv-x="557" d="M124 0v1117h309V0H124zm155 1261q-69 0-118 46t-49 111 49 111 118 46 118.5-46.5T447 1418q0-65-49.5-111T279 1261z"/><glyph unicode="ї" horiz-adv-x="557" d="M124 0v1117h309V0H124zM57 1270q-63 0-107.5 43.5T-95 1418t44.5 104.5T57 1566t107.5-43.5T209 1418t-44.5-104.5T57 1270zm446 0q-63 0-108 43.5T350 1418t45 104.5 108 43.5 107-43 44-105q0-61-44-104.5T503 1270z"/><glyph unicode="ј" horiz-adv-x="557" d="M124 1117h309V-55q0-364-423-364-16 0-62 2v242q32-2 40-2 73 0 104.5 31T124-50v1167zm154 144q-69 0-118 46t-49 111 49 111 118 46 118.5-46.5T446 1418q0-65-49.5-111T278 1261z"/><glyph unicode="љ" horiz-adv-x="1950" d="m102 0-2 246h37q80 0 116 83.5T297 623l19 494h850V774h232q220 0 344.5-105.5T1868 385q-1-176-126-280.5T1398 0H870v873H595l-18-341q-16-278-109-405T195 0h-93zm1064 530V244h232q78 0 128 39t51 100q-1 65-51 106t-128 41h-232z"/><glyph unicode="њ" horiz-adv-x="1881" d="M124 0v1117h296V701h381v416h296V762h232q221 0 345-100t125-277q-1-176-126-280.5T1329 0H801v457H420V0H124zm973 519V244h232q78 0 128 39t51 100q-1 64-50 100t-129 36h-232z"/><glyph unicode="ћ" horiz-adv-x="1278" d="M433 646V0H124v1198H-90v182h214v109h301v-109h211v-182H425V920h13q39 101 124 156.5t210 55.5q176 0 281.5-113T1158 711V0H848v656q1 103-51.5 160.5T649 874q-97 0-156-61t-60-167z"/><glyph unicode="ќ" horiz-adv-x="1199" d="M124 0v1117h309V684h88l304 433h363L793 563 1193 0H825L549 396H433V0H124zm363 1261 154 331h287l-222-331H487z"/><glyph unicode="ѝ" horiz-adv-x="1251" d="m420 409 402 708h305V0H832v711L431 0H124v1117h296V409zm98 852-222 331h286l155-331H518z"/><glyph unicode="ў" horiz-adv-x="1200" d="M315-419q-121 0-195 32l70 231q80-29 139-13t88 90l19 47L35 1117h326l231-820h12l233 820h328L731-121Q627-419 315-419zm428 1926h216q-1-133-98.5-213.5T599 1213t-262 80.5-98 213.5h215q-1-55 35-92.5t110-37.5q73 0 108.5 37t35.5 93z"/><glyph unicode="џ" d="M1100 1117V0H761v-359H462V0H124v1117h296V244h388v873h292z"/><glyph unicode="Ѡ" horiz-adv-x="2012" d="M129 476v1013h315V476q0-118 52.5-180.5T648 233t151 61.5T851 476v1013h311V476q0-120 51-181.5t150-61.5q100 0 152.5 62t52.5 181v1013h315V476q0-157-69-271T1628.5 35.5 1363-20q-233 0-356 158Q881-20 648-20q-231 0-375 130T129 476z"/><glyph unicode="ѡ" horiz-adv-x="1800" d="M124 461v656h296V461q0-113 41.5-175.5T580 223q89 0 135 60.5T761 461v656h294V461q0-238 170-238 79 0 121 61t42 177v656h296V461q0-230-126-355.5T1225-20q-209 0-319 148Q794-20 580-20q-205 0-330.5 125T124 461z"/><glyph unicode="Ѣ" horiz-adv-x="1386" d="M-41 1091v182h176v216h314v-216h236v-182H449V939h243q264 0 419-125.5T1265 476q1-213-155-344.5T692 0H135v1091H-41zm490-401V253h243q122 0 192 65t69 161q1 92-68.5 151.5T692 690H449z"/><glyph unicode="ѣ" horiz-adv-x="1293" d="M777 1271v-186H509V774h232q220 0 345-105.5T1212 385q-1-175-126.5-280T741 0H214v1085H52v186h162v351h295v-351h268zM509 530V244h232q78 0 128 39t51 100q-1 65-51 106t-128 41H509z"/><glyph unicode="Ѥ" horiz-adv-x="2066" d="M1418 864V618H985q24-180 118-269t237-89q119 0 205 60.5T1665 500l307-40q-57-224-226.5-352T1340-20q-271 0-453.5 169.5T670 618H444V0H129v1489h315V864h226q33 302 216 474t454 172q233 0 404.5-128.5T1974 1023l-304-41q-33 121-120.5 184t-209.5 63q-143 0-237-91T985 864h433z"/><glyph unicode="ѥ" horiz-adv-x="1712" d="M1208 637V449H883q19-105 77-163t156-58q82 0 133.5 43t72.5 116l289-47q-37-164-170.5-263T1116-22q-219 0-359.5 128.5T585 449H428V0H118v1117h310V637h154q23 224 165 359.5t369 135.5q196 0 330.5-102T1615 756l-287-48q-46 177-212 177-104 0-163.5-65.5T879 637h329z"/><glyph unicode="Ѧ" horiz-adv-x="1522" d="M1121 0 985 416H885V0H623v416h-85L402 0H68l527 1489h334L1454 0h-333zM913 631l-152 464-152-464h304z"/><glyph unicode="ѧ" horiz-adv-x="1333" d="m933 0-94 265h-80V0H563v265h-66L403 0H91l417 1112h316L1245 0H933zM636 653l-70-195h203l-69 195-32 144z"/><glyph unicode="Ѩ" horiz-adv-x="2112" d="M432 1489V631h418l303 858h335L2013 0h-333l-137 416h-99V0h-261v416h-86L961 0H627l148 417H432V0H118v1489h314zm736-858h305l-153 464z"/><glyph unicode="ѩ" horiz-adv-x="1769" d="m1439 0-95 265h-89V0h-186v265h-72L903 0H594l101 269H430V0H121v1117h309V458h335l246 659h318L1748 0h-309zm-374 458h211l-72 201-33 150-34-150z"/><glyph unicode="Ѫ" horiz-adv-x="1915" d="M463 0H147v333q-1 235 132.5 349T691 799l-399 690h1371l-401-691q117-5 206-31.5t158-79.5 105.5-142 36.5-212V0h-318v333q-1 114-56 160.5T1209 540h-79V0H815v540H708q-124 0-185-43.5T463 333V0zm514 855 199 375H777z"/><glyph unicode="ѫ" horiz-adv-x="1563" d="M426 0H119v185q-1 203 101 305t299 121l-302 506h1146l-303-508q187-21 285-123t99-301V0h-305v185q-1 110-45 154.5T949 384h-9V0H636v384h-19q-99 0-145.5-42.5T426 185V0zm367 636 139 286H656z"/><glyph unicode="Ѭ" horiz-adv-x="2518" d="M449 1489V797h812q30 2 47 2l-399 690h1372l-402-691q116-5 205.5-31.5T2243 687t105.5-142 36.5-212V0h-317v333q0 114-56 160.5T1826 540h-79V0h-314v540h-108q-60 0-102-8.5t-75.5-30.5-50-63.5T1081 333V0H764v333q0 126 37 215H449V0H135v1489h314zm1145-635 199 376h-400z"/><glyph unicode="ѭ" horiz-adv-x="2136" d="M422 1117V615h652l-299 502h1146l-303-508q187-22 285-123.5t98-300.5V0h-305v185q0 110-44 154.5T1506 384h-9V0h-304v384h-18q-99 0-145-42.5T984 185V0H676v185q0 122 38 209H422V0H112v1117h310zm928-481 139 286h-275z"/><glyph unicode="Ѯ" horiz-adv-x="1171" d="M224 1489h266q262 0 399.5-94.5T1028 1114q0-127-62-219T787 755q141-42 215-130.5t74-221.5q0-194-142-308.5T555-20h-62q-56 0-84.5-25T380-113q0-92 147-153l-86-182q-157 32-247.5 130T103-70q0 149 96 225.5T469 232h67q109 0 171.5 53T770 433q0 191-280 191H343v255h154q112 0 169 50.5t57 136.5q-1 86-57.5 128.5T490 1237H224v252zm283 427 157-140 156 140h253v-11l-314-282H569l-319 282v11h257z"/><glyph unicode="ѯ" horiz-adv-x="1099" d="M140 1117h264q254 0 385-72t130-218q-2-174-181-254 228-65 229-252 1-150-129.5-245.5T486-20h-51q-64 0-97.5-24T305-113q0-94 128-153l-82-165q-143 45-226 142.5T41-68q-1 129 86 198t250 69h60q109 0 166 36t56 105q-1 135-237 135H258v184h173q87 0 134.5 34.5T612 788q-1 59-50 84t-158 25H140v220zm266 426 157-139 158 139h253v-9l-317-282H468l-319 282v9h257z"/><glyph unicode="Ѱ" horiz-adv-x="1693" d="M1255 1489h309v-486q0-266-149.5-423T1009 399V0H702v397q-264 19-418.5 177T129 1003v486h307v-486q0-308 266-352v838h307V650q120 18 183 102.5t63 250.5v486z"/><glyph unicode="ѱ" horiz-adv-x="1645" d="M124 1117h296V586q0-295 274-350v881h294V239q282 61 282 363-2 119-32.5 259t-78.5 256h270q58-92 96.5-231t38.5-284q0-92-18.5-173t-61-156.5-107.5-133T1212.5 42 988-12v-465H694v465Q423 18 273.5 166.5T124 589v528z"/><glyph unicode="Ѳ" horiz-adv-x="1601" d="M1498 745q0-179-53.5-324.5t-147-241.5-221-147.5T801-20q-149 0-276.5 52T303 180 156 421.5 103 745q0 179 53 324.5T303 1311t221.5 147.5T801 1510q148 0 275.5-51.5t221-147.5 147-241.5T1498 745zm-325 102q-21 185-119.5 284.5T801 1231t-253-99.5T428 847h745zM801 258q153 0 252 100t120 285H428q21-185 120-285t253-100z"/><glyph unicode="ѳ" horiz-adv-x="1256" d="M628-22q-252 0-400.5 158T79 554q0 261 148.5 419.5T628 1132q253 0 401.5-158.5T1178 554q0-260-149-418T628-22zm2 240q94 0 152 67t75 182H399q17-115 76-182t155-67zM400 650h457q-18 113-76.5 179T630 895q-95 0-153.5-66T400 650z"/><glyph unicode="Ѵ" horiz-adv-x="1561" d="M1028 1151q58 188 152.5 273.5T1433 1510h79v-278h-36q-47 0-73-27.5t-48-90.5L969 0H563L49 1489h350L759 358h13z"/><glyph unicode="ѵ" horiz-adv-x="1267" d="M35 1117h327l232-799h12l153 518q42 156 138 226t224 70q62 0 112-13l-18-245q-27 8-55 8-49 0-73.5-32T1033 733L775 0H425z"/><glyph unicode="Ѷ" horiz-adv-x="1561" d="M1028 1151q58 188 152.5 273.5T1433 1510h79v-278h-36q-47 0-73-27.5t-48-90.5L969 0H563L49 1489h350L759 358h13zm-527 482-227 331h291l155-331H501zm359 0-155 331h282l88-331H860z"/><glyph unicode="ѷ" horiz-adv-x="1267" d="M35 1117h327l232-799h12l153 518q42 156 138 226t224 70q62 0 112-13l-18-245q-27 8-55 8-49 0-73.5-32T1033 733L775 0H425zm320 144-227 331h291l155-331H355zm359 0-155 331h282l88-331H714z"/><glyph unicode="Ѹ" horiz-adv-x="2800" d="M1498 745q0-179-53.5-324.5t-147-241.5-221-147.5T801-20q-149 0-276.5 52T303 180 156 421.5 103 745q0 179 53 324.5T303 1311t221.5 147.5T801 1510q148 0 275.5-51.5t221-147.5 147-241.5T1498 745zm418-1164q-121 0-195 32l70 231q80-29 139.5-13t88.5 90l18 47-401 1149h326l231-820h12l234 820h328L2332-121q-104-298-416-298zM1179 745q0 233-102 359.5T801 1231q-175 0-276.5-126.5T423 745t101.5-360T801 258q174 0 276 127t102 360z"/><glyph unicode="ѹ" horiz-adv-x="2418" d="M628-22q-252 0-400.5 158T79 554q0 261 148.5 419.5T628 1132q253 0 401.5-158.5T1178 554q0-260-149-418T628-22zm907-397q-121 0-195 32l69 231q80-29 139.5-13t88.5 90l18 47-400 1149h325l232-820h11l234 820h328L1951-121q-104-298-416-298zM630 218q111 0 172 93.5T863 556t-61 245-172 94q-114 0-175.5-94T393 556t61.5-244.5T630 218z"/><glyph unicode="Ѻ" horiz-adv-x="1555" d="M876 1651v-148q258-33 417-234t160-526q-1-325-160-524.5T876-15v-149H683v149Q556 2 450 60.5t-183.5 153T146 444t-43 299q0 164 43 300t120.5 231.5 183.5 154 233 75.5v147h193zm0-1234V272q123 31 192 147.5t69 323.5q0 206-69.5 324T876 1217v-148H683v148q-123-32-194-150.5T419 743q-1-207 70-323.5T683 272v145h193z"/><glyph unicode="ѻ" horiz-adv-x="1255" d="M697 1209v-82q214-25 336.5-179.5T1156 558q0-236-123-392T697-17v-107H531v108Q323 13 202.5 169T81 558q1 233 121 386.5T531 1126v83h166zm0-856V239q84 26 124 109.5T860 558q2 265-163 316V748H531v123q-154-56-154-313 0-259 154-315v110h166z"/><glyph unicode="Ѽ" horiz-adv-x="2108" d="M702 1457v-256q-94 0-147-60.5T502 956V481q0-126 53.5-187T702 233q201 0 201 243v340h301V476q0-120 51.5-181.5T1407 233q94 0 147 61.5t53 186.5v475q0 124-53 184.5t-147 60.5v256q230 0 373.5-132T1924 956V481q0-239-143.5-370T1407-20q-226 0-352 152Q929-20 702-20q-150 0-265.5 56T253 206.5 185 481v475q0 237 143.5 369T702 1457zm801 243h18l-70-133h-18q-44 0-206.5 61t-223.5 61q-49 0-78.5-25.5T895 1588v-21H758v38q0 109 62 163.5t176 54.5q53 0 117.5-19t117.5-42.5 127-42.5 145-19zm-496-425-85 55q71 87 71 151v96h175v-101q0-55-51-113.5t-110-87.5z"/><glyph unicode="ѽ" horiz-adv-x="1714" d="M1122 859v242q138 0 245.5-52.5T1538 888t63-258V451q0-150-59-258T1382.5 32.5 1152-20q-191 0-293 149Q755-20 563-20q-199 0-323.5 123.5T115 451v179q0 223 133.5 347T596 1101V859q-83 0-132.5-57.5T414 630V451q0-114 41-171t108-57q73 0 111.5 61T713 461v151h290V461q1-115 39.5-176.5T1152 223q69 0 111 57t42 171v179q0 114-50 171.5T1122 859zm192 508h35v-134h-38q-79 0-159.5 18.5T1017 1293t-111.5 41.5T811 1353q-48 0-77-25t-29-77v-18H569v37q1 110 63 163.5t176 53.5q52 0 116-18.5t116-41.5 127-41.5 147-18.5zM825 947l-85 55q70 84 69 151v96h177v-101q1-53-51-112t-110-89z"/><glyph unicode="Ѿ" horiz-adv-x="2008" d="M851 1463h311V476q0-120 51-181.5t150-61.5q100 0 153 62t53 181v987h310V476q0-235-143.5-365.5T1363-20q-231 0-357 158Q880-20 648-20q-231 0-375 130T129 476v987h315V476q0-118 52.5-180.5T648 233t151 61.5T851 476v987zm54 248H548v138h917l3-138h-378v-128H905v128z"/><glyph unicode="ѿ" horiz-adv-x="1879" d="M789 1082h306V461q-2-238 164-238 151 0 151 238v621h308V461q-1-230-126.5-355.5T1259-20q-210 0-319 147Q825-20 615-20q-206 0-332 125.5T158 461v621h307V461q0-238 150-238 172 0 174 238v621zm13 237H482v138h848l5-138H989v-125H802v125z"/><glyph unicode="Ҁ" horiz-adv-x="1371" d="M900 233v-591H586v346Q369 22 243 180.5T117 577v334q0 275 153 437t430 162q254 0 405.5-133t151.5-375H940q0 129-64 191t-178 62q-141 0-203.5-88T432 912V577q0-159 68.5-251.5T695 233h205z"/><glyph unicode="ҁ" horiz-adv-x="1176" d="M819 223v-584H512v349Q315 21 209 168T103 528v35q0 166 57 293t175 201.5 282 74.5q209 0 334.5-120T1077 675H788q1 99-44.5 156T611 888q-204 0-204-325v-35q0-305 212-305h200z"/><glyph unicode="҂" horiz-adv-x="1375" d="M862 809 648 448l300-172-75-128-299 172L388 0H208l231 399-296 171 71 128 302-171 208 360-300 169 78 131 299-172 190 326h176L933 937l303-172-77-125z"/><glyph unicode="҃" horiz-adv-x="0" d="M-247 1312h-561v-125h-183l2 238h563l-2 108h181v-221z"/><glyph unicode="҄" horiz-adv-x="0" d="M-986 1437h21q74 0 150.5 18.5t130 41 118.5 41 119 18.5q117 0 181.5-53.5T-201 1341v-38h-141v18q0 51-29 76.5t-78 25.5q-38 0-97-18.5t-114-41.5-138-41.5-164-18.5h-24v134z"/><glyph unicode="҅" horiz-adv-x="0" d="m-498 1308-171 193v147h196l-3-164 61-108z"/><glyph unicode="҆" horiz-adv-x="0" d="m-403 1501-169-193-85 68 59 108-1 164h196v-147z"/><glyph unicode="҇" horiz-adv-x="0" d="M-400 1437h167v-134h-182q-38 0-74 12.5t-67 30-64.5 35-81 30T-804 1423q-54 0-94.5-26t-40.5-76v-18h-140v38q0 99 77 157t211 58q73 0 136.5-18.5t100-41 78.5-41 76-18.5z"/><glyph unicode="҈" horiz-adv-x="0" d="M-127 989h-118q0 84 59 136.5t158 52.5q100 0 159.5-52.5T191 989H74q0 45-24.5 73.5T-28 1091q-51 0-75-29t-24-73zm-1198 0h-118q0 84 59 136.5t159 52.5q99 0 158-52.5t59-136.5h-116q0 45-24 73.5t-77 28.5q-51 0-75.5-28.5T-1325 989zm593-1306h-116q0 84 58.5 136.5T-632-128q100 0 158.5-52.5T-415-317h-114q0 43-25.5 72.5T-632-215q-50 0-75-29t-25-73zm-605 285h-116q0 83 59 136t157 53 157.5-53 59.5-136h-116q0 44-24.5 73t-76.5 29q-50 0-75-30t-25-72zm1199 0h-117q0 83 59.5 136T-37 157q98 0 157-52.5T179-32H65q0 43-25.5 72.5T-37 70t-76-29.5-25-72.5zm-1370 521h-117q0 82 59 134t158 52q100 0 158.5-52t58.5-134h-114q0 42-25.5 70.5T-1408 588q-50 0-75-28.5t-25-70.5zm1573 0H-52q0 82 59.5 134T164 675q100 0 159.5-52T383 489H267q0 43-25 71t-78 28q-49 0-74-28.5T65 489zm-802 779h-117q0 82 59 134.5t159 52.5q98 0 157-52.5t59-134.5h-114q0 42-25.5 70.5T-636 1367t-76-28.5-25-70.5z"/><glyph unicode="҉" horiz-adv-x="0" d="m-1206 422-342 122v99l357-70V433zm1571 0L9 492v139l14 12 342-122v-99zM5-239-198 61l100 99h17L74-166zm-708-174 71 352h142l11-15-127-337h-97zm11 1539-11 14 126 338h98l-72-352h-141zm553-221-101 99 1 14 334 154 70-69zM-1276-148l-72 67 302 200 102-99-2-14zm169 1009-152 329 68 67 203-300-101-96h-18z"/><glyph unicode="Ҋ" horiz-adv-x="1505" d="M129 1489h315V553h12l644 936h275V169h248V-4q1-117-50.5-230.5T1436-426l-165 73 20 40q28 53 42.5 85t28 89T1375-23V0h-315v937h-11L402 0H129v1489zm768 390h216q-1-133-98.5-213.5T753 1585t-261.5 80.5T394 1879h215q-1-56 34.5-93t109.5-37q73 0 108.5 37t35.5 93z"/><glyph unicode="ҋ" horiz-adv-x="1441" d="m420 409 402 708h305V169h248V-4q1-117-50.5-230.5T1188-426l-165 73 20 40q28 53 42.5 85t28 89T1127-23V0H832v711L431 0H124v1117h296V409zm349 1098h216q-1-133-98.5-213.5T625 1213t-262 80.5-98 213.5h215q-1-55 35-92.5t110-37.5q73 0 108.5 37t35.5 93z"/><glyph unicode="Ҍ" horiz-adv-x="1386" d="M-41 1091v182h176v216h314v-216h236v-182H449V939h243q264 0 419-125.5T1265 476q1-213-155-344.5T692 0H135v1091H-41zm490-401V253h243q122 0 192 65t69 161q1 92-68.5 151.5T692 690H449z"/><glyph unicode="ҍ" horiz-adv-x="1293" d="M777 1457v-186H509V774h232q220 0 345-105.5T1212 385q-1-175-126.5-280T741 0H214v1271H52v186h162v165h295v-165h268zM509 530V244h232q78 0 128 39t51 100q-1 65-51 106t-128 41H509z"/><glyph unicode="Ҏ" horiz-adv-x="1354" d="M137 0v1489h587q249 0 391.5-139T1258 985q0-142-58.5-252T1031 559l98-150-133-85-115 177q-75-18-165-18H452V0H137zm623 978 111-170q63 66 63 177 0 114-68.5 180.5T664 1232H452V735h213q30 0 62 5l-99 154z"/><glyph unicode="ҏ" horiz-adv-x="1253" d="M131-419v1536h305V929h14q17 38 41.5 70.5t62 64 92.5 50 122 18.5q93 0 174-36.5T1085.5 989t98.5-181 36-251q0-310-168-467l75-89-107-87-85 101q-78-33-168-33-123 0-201 57T450 179h-9v-598H131zm598 895 121-145q54 86 54 228 0 148-61.5 237T669 885t-173.5-87.5T434 559t62.5-241T669 228q44 0 77 13L623 389z"/><glyph unicode="Ґ" horiz-adv-x="1195" d="M129 0v1489h695v362h299v-621H444V0H129z"/><glyph unicode="ґ" horiz-adv-x="989" d="M924 1399V873H425V0H124v1117h517v282h283z"/><glyph unicode="Ғ" horiz-adv-x="1190" d="M1118 1489v-259H444V876h204V694H444V0H129v694H-78v182h207v613h989z"/><glyph unicode="ғ" horiz-adv-x="953" d="M889 1117V873H425V693h213V511H425V0H124v511H-88v182h212v424h765z"/><glyph unicode="Ҕ" horiz-adv-x="1405" d="M1118 1489v-259H444V836h257q141 0 254.5-35.5t196-106 127-183.5 44.5-262q0-87-17.5-169t-60-161-106-138T977-314t-221-36l1 231q67 0 117 25t78 62 45 87 21.5 91.5 4.5 84.5q1 360-322 360H444V0H129v1489h989z"/><glyph unicode="ҕ" horiz-adv-x="1185" d="M889 1117V873H425V668h62q266 0 425-125.5T1072 179q2-146-99-272T692-285L564-89Q775 11 778 179q1 121-79 185t-212 64h-62V0H124v1117h765z"/><glyph unicode="Җ" horiz-adv-x="2222" d="M1264 1489V876h166l326 613h386l-437-701 334-574h258v-573h-301V0h-208l-315 585h-209V0H959v585H755L432 0H59l467 785-447 704h387l335-613h158v613h305z"/><glyph unicode="җ" horiz-adv-x="1797" d="m51 0 390 581-388 536h354l290-437h48v437h310V680h46l290 437h354l-388-536 247-367h295v-573h-301V0h-213l-287 436h-43V0H745v436h-44L412 0H51z"/><glyph unicode="Ҙ" horiz-adv-x="1350" d="m747-17-7-40q78-12 124-57.5T911-234q1-110-100.5-173.5T527-471l-3 138q194 0 197 91 1 44-33.5 67.5T576-142l28 125Q384 0 247 120T106 421h317q4-81 74-131.5T672 239q108 0 177 55.5T917 439q1 91-73.5 148T644 644H505v231h139q108 0 175.5 54.5T886 1071q1 84-58 136.5T674 1260q-98 0-165.5-52T438 1073H136q2 126 73 226.5T402.5 1455t273.5 55q228 0 371-120.5t142-299.5q1-123-76.5-207.5T908 775v-11q162-21 249.5-113t86.5-233q1-176-137-295.5T747-17z"/><glyph unicode="ҙ" horiz-adv-x="1078" d="M66 316h301q2-55 48.5-87T538 197q79 0 129 36t50 101q0 61-44 98.5T556 470H395v203h161q70 0 109.5 32.5T705 790q0 57-40.5 91.5T556 916q-69 0-114-31.5T395 804H96q1 98 60.5 173.5t160.5 115 226 39.5q205 0 323.5-84.5T985 817q0-88-58-148.5T764 583v-11q106-7 177-77.5t71-184.5q0-141-111-228T607-20l-8-37q78-12 124-57.5T770-234q1-110-100.5-173.5T386-471l-3 138q195 0 198 91 1 44-33.5 67.5T436-142l27 124Q286-2 178.5 85T66 316z"/><glyph unicode="Қ" horiz-adv-x="1516" d="M1031 0 552 635H444V0H129v1489h315V895h64l494 594h392L813 799l437-575h201v-573h-301V0h-119z"/><glyph unicode="қ" horiz-adv-x="1389" d="M124 0v1117h309V684h88l304 433h363L793 563l248-349h288v-573h-301V0H825L549 396H433V0H124z"/><glyph unicode="Ҝ" horiz-adv-x="1456" d="M530 1133h174V876h33l283 613h371l-390-702L1429 0h-377L761 583h-57V357H530v226h-89V0H129v1489h312V876h89v257z"/><glyph unicode="ҝ" horiz-adv-x="1304" d="M124 0v1117h309V684h88v179h155V684h43l219 433h355L985 563 1297 0H939L745 396h-69V217H521v179h-88V0H124z"/><glyph unicode="Ҡ" horiz-adv-x="1738" d="M1271 0 792 635H684V0H369v1244H33v245h651V895h64l494 594h392l-581-690L1661 0h-390z"/><glyph unicode="ҡ" horiz-adv-x="1546" d="M471 0v871H65v246h716V684h87l304 433h364l-395-554L1540 0h-368L897 396H781V0H471z"/><glyph unicode="Ң" horiz-adv-x="1749" d="M129 0v1489h315V875h640v614h314V214h294v-573h-301V0h-307v615H444V0H129z"/><glyph unicode="ң" horiz-adv-x="1454" d="M420 1117V682h381v435h294V214h298v-573h-301V0H801v439H420V0H124v1117h296z"/><glyph unicode="Ҥ" horiz-adv-x="2061" d="M1988 1489v-259h-590V0h-314v615H444V0H129v1489h315V875h640v614h904z"/><glyph unicode="ҥ" horiz-adv-x="1479" d="M1468 1117V873h-373V0H801v439H420V0H124v1117h296V682h381v435h667z"/><glyph unicode="Ҧ" horiz-adv-x="2334" d="M1355 1489V835h196q141 0 254-35.5T2001 693t127-184 44-262q0-87-17.5-168.5t-60-161-106-138-162-94.5-220.5-36l1 230q67 0 117 25t78 62 45 87.5 21.5 92 4.5 84.5q1 359-322 359h-196V0h-311v1233H441V0H130v1489h1225z"/><glyph unicode="ҧ" horiz-adv-x="1896" d="M124 0v1117h976V679h111q181 0 315-53t211.5-164.5T1815 189q0-63-22.5-128.5t-66.5-130-120-120-173-88.5L1304-80q108 52 163 114t56 155q1 119-85 182.5T1211 435h-111V0H804v873H416V0H124z"/><glyph unicode="Ҩ" horiz-adv-x="1754" d="M1633 230V-12q-231 0-421 68-163-76-363-76-160 0-296.5 52T322 174.5 175 390t-53 267v254q0 168 68 304.5t193 216 285 79.5v-265q-97 0-159-95t-62-239V657q0-182 110-297.5T849 244q19 0 53 2-202 200-202 493v221q0 155 54 280t156 197.5 233 72.5q212 0 346-169.5T1623 905V716q0-272-165-472 84-14 175-14zm-461 134q67 64 104 155t37 197v228q0 141-44 221.5t-118 80.5q-73 0-118-77t-45-206V737q0-113 47-208.5T1172 364z"/><glyph unicode="ҩ" horiz-adv-x="1532" d="M1380 135V-29q-211 0-365 54-123-45-270-45-262 0-426 154T155 524v132q0 206 124 340t322 134V881q-60-9-97.5-70T466 656V524q0-126 76.5-216.5T737 213Q636 344 636 525v191q0 178 98 297t255 119q165 0 267.5-133T1360 666V484q0-196-142-335 76-14 162-14zM949 276q55 41 86 100.5t31 125.5v185q-1 87-31 139.5T956 879t-79.5-50.5T846 695V511q0-138 103-235z"/><glyph unicode="Ҫ" horiz-adv-x="1540" d="M1444 968h-319q-18 122-104.5 192.5T804 1231q-175 0-278-128T423 745q0-234 102.5-360.5T802 258q127 0 214 66.5T1125 509l319-1q-12-99-57.5-189t-118-162-179-119T857-18l-7-41q78-12 124-57.5t47-119.5q1-110-100.5-173.5T637-473l-3 138q195 0 198 91 1 44-33.5 68T687-143l28 127Q441 12 272 213T103 745q0 179 53 324.5T302.5 1311t220 147.5T797 1510q263 0 440-144t207-398z"/><glyph unicode="ҫ" horiz-adv-x="1202" d="m694-19-7-38q78-12 123.5-57.5T857-234q1-110-100.5-173.5T473-471l-2 138q194 0 197 91 1 44-33.5 67.5T523-142l28 125Q330 8 204.5 162.5T79 554q0 260 148 419t400 159q218 0 354-117t146-311H835q-13 85-66.5 135.5T632 890q-110 0-174.5-87.5T393 559q0-159 64.5-247.5T632 223q81 0 135.5 49T835 409h292q-10-179-125-294.5T694-19z"/><glyph unicode="Ҭ" horiz-adv-x="1368" d="M73 1230v259h1223v-259H840V214h289v-573H828V0H529v1230H73z"/><glyph unicode="ҭ" horiz-adv-x="1142" d="M65 873v244h1013V873H718V212h294v-573H711V0H423v873H65z"/><glyph unicode="Ү" horiz-adv-x="1483" d="M42 1489h353l340-641h14l340 641h352L898 527V0H585v527z"/><glyph unicode="ү" horiz-adv-x="1120" d="M35 1117h313l218-772 207 772h312L708 9v-428H414V9z"/><glyph unicode="Ұ" horiz-adv-x="1483" d="M42 1489h353l340-641h14l340 641h352L977 667h127V484H898V0H585v484H378v183h128z"/><glyph unicode="ұ" horiz-adv-x="1120" d="M35 1117h313l218-772 207 772h312L772 199h152V16H710l-2-7v-428H414V9l-2 7H199v183h150z"/><glyph unicode="Ҳ" horiz-adv-x="1463" d="m425 1489 300-507h12l302 507h355L940 745l331-531h227v-573h-301V0h-155L737 508h-12L420 0H59l466 745-457 744h357z"/><glyph unicode="ҳ" horiz-adv-x="1175" d="m383 1117 205-390 210 390h318L792 559l205-345h236v-573H932V0H808L588 386 371 0H51l332 559-320 558h320z"/><glyph unicode="Ҵ" horiz-adv-x="1909" d="M1062 1489v-245H716V253h619v1236h306V252h207l-18-604h-300V0H413v1244H73v245h989z"/><glyph unicode="ҵ" horiz-adv-x="1514" d="M822 1117V871H606V244h388v873h293V244h166l-18-564h-286V0H310v871H93v246h729z"/><glyph unicode="Ҷ" horiz-adv-x="1566" d="M190 1489h306v-480q0-127 67-181t217-54q160 0 296 26v689h308V214h296v-573h-301V0h-303v551q-145-29-296-29-279 0-435 120.5T190 1009v480z"/><glyph unicode="ҷ" horiz-adv-x="1450" d="M1093 1117V212h296v-573h-301V0H799v337q-85-16-158-16-249 0-383 102T124 737v382h292V737q0-96 50.5-134.5T641 564q74 0 158 19v534h294z"/><glyph unicode="Ҹ" horiz-adv-x="1572" d="M848 1066V775q130 7 228 25v689h308V0h-308v551q-93-20-228-27V294H676v233q-233 21-360 140.5T190 1009v480h306v-480q0-103 43.5-157T676 782v284h172z"/><glyph unicode="ҹ" horiz-adv-x="1210" d="M694 833V567q44 3 105 16v534h294V0H799v337q-42-8-105-14V170H520v157q-396 48-396 410v382h292V737q0-69 24.5-107t79.5-53v256h174z"/><glyph unicode="Һ" horiz-adv-x="1566" d="M1377 0h-306v480q0 127-67.5 181.5T786 716q-155 0-296-27V0H183v1489h307V939q140 28 296 28 279 0 435.5-120.5T1377 480V0z"/><glyph unicode="һ" horiz-adv-x="1278" d="M433 646V0H124v1489h301V920h13q39 101 124 156.5t210 55.5q176 0 281.5-113T1158 711V0H848v656q1 103-51.5 160.5T649 874q-97 0-156-61t-60-167z"/><glyph unicode="Ҽ" horiz-adv-x="1752" d="M109 1094h210q0-164 122-209 1 184 78.5 326t218 220 322.5 78q276 0 430.5-188T1645 798V631H747v-32q0-166 100-255.5t293-89.5q186 0 371 61l50-261q-66-34-189-55.5T1130-23q-322 0-505.5 165.5T441 599v58q-157 26-244.5 140.5T109 1094zm638-208h593v41q0 143-74 224t-205 81q-141 0-227-94t-87-252z"/><glyph unicode="ҽ" horiz-adv-x="1576" d="M45 889h224q0-102 38-156t125-61q33 211 175.5 335.5T965 1132q112 0 206.5-36t166-105 112-178.5T1490 564v-85H729q0-125 68.5-197.5T983 209q78 0 134.5 33.5T1197 339l287-19q-33-157-167.5-249.5T977-22q-238 0-384 134T426 480q-187 9-283.5 113.5T45 889zm684-218h470q-1 100-64.5 164.5T970 900t-168.5-66T729 671z"/><glyph unicode="Ҿ" horiz-adv-x="1752" d="M109 1094h210q0-164 122-209 1 184 78.5 326t218 220 322.5 78q276 0 430.5-188T1645 798V631H747v-32q0-166 100-255.5t293-89.5q186 0 371 61l50-261q-115-58-328-73v-464H932V-4Q698 43 569.5 200T441 599v58q-157 26-244.5 140.5T109 1094zm638-208h593v41q0 143-74 224t-205 81q-141 0-227-94t-87-252z"/><glyph unicode="ҿ" horiz-adv-x="1576" d="M45 889h224q0-102 38-156t125-61q33 211 175.5 335.5T965 1132q112 0 206.5-36t166-105 112-178.5T1490 564v-85H729q0-125 68.5-197.5T983 209q78 0 134.5 33.5T1197 339l287-19q-31-147-151-237.5T1028-20l-6-37q78-12 124-57.5t47-119.5q1-110-100.5-173.5T809-471l-3 138q195 0 198 91 1 44-34 67.5T858-142l28 126Q686 9 565.5 139.5T426 480q-187 9-283.5 113.5T45 889zm684-218h470q-1 100-64.5 164.5T970 900t-168.5-66T729 671z"/><glyph unicode="Ӏ" horiz-adv-x="574" d="M444 1489V0H129v1489h315z"/><glyph unicode="Ӂ" horiz-adv-x="2222" d="M1264 1489V876h166l326 613h386l-437-701L2164 0h-376l-315 585h-209V0H959v585H755L432 0H59l467 785-447 704h387l335-613h158v613h305zm-9 390h216q-1-133-98.5-213.5T1111 1585t-261.5 80.5T752 1879h215q-1-56 34.5-93t109.5-37q73 0 108.5 37t35.5 93z"/><glyph unicode="ӂ" horiz-adv-x="1797" d="m51 0 390 581-388 536h354l290-437h48v437h310V680h46l290 437h354l-388-536L1747 0h-362l-287 436h-43V0H745v436h-44L412 0H51zm992 1507h216q-1-133-98.5-213.5T899 1213t-261.5 80.5T540 1507h214q-1-55 35-92.5t110-37.5q73 0 108.5 37t35.5 93z"/><glyph unicode="Ӄ" horiz-adv-x="1420" d="M129 0v1489h307V876h104l419 613h371L844 808q232-33 362-181t131-383q1-280-152-440T764-356l-1 240q123 0 195 92t73 252q2 170-82.5 267T714 592H436V0H129z"/><glyph unicode="ӄ" horiz-adv-x="1280" d="M124 0v1117h309V684h88l304 433h363L818 590q176-45 275.5-159.5T1193 154q0-149-103-275.5T814-310L685-103Q782-71 840.5-1.5T900 153q1 110-84 176.5T588 396H433V0H124z"/><glyph unicode="Ӆ" horiz-adv-x="1495" d="M49 0v253l42 4q83 7 132 63t74 176 33 331l25 662h1011V169h243V-4q1-117-50-230.5T1423-426l-166 73q3 7 10 20t11 20q28 53 42.5 85t28 89T1362-23V0h-302v1237H647l-23-518q-9-194-36.5-324.5T503 173 355 41 130 0H49z"/><glyph unicode="ӆ" horiz-adv-x="1435" d="m58 0-1 246h37q80 0 116 83.5T254 623l18 494h849V169h248V-4q1-117-50.5-230.5T1182-426l-165 73 20 40q28 53 42.5 85t28 89T1121-23V0H826v873H551l-18-341q-14-278-108-405T151 0H58z"/><glyph unicode="Ӈ" horiz-adv-x="1528" d="M129 0v1489h315V875h640v614h314V-72q0-34-4-65t-16.5-69-33-70-57-63.5-84.5-53-118.5-35T927-441q-85 0-115 8v251q7 0 40.5-3t47.5-3q184 0 184 134v669H444V0H129z"/><glyph unicode="ӈ" horiz-adv-x="1211" d="M420 1117V682h381v435h294V-45q0-192-104-291.5T701-436q-89 0-153 14l14 241q46-12 106-12 61 0 97 37.5T801-45v484H420V0H124v1117h296z"/><glyph unicode="Ӊ" horiz-adv-x="1701" d="M129 0v1489h315V875h640v614h314V169h247V-4q1-117-50.5-230.5T1458-426l-165 73 20 40q28 54 42.5 85t28.5 88.5T1398-23V0h-314v615H444V0H129z"/><glyph unicode="ӊ" horiz-adv-x="1409" d="M420 1117V682h381v435h294V169h247V-4q1-117-50.5-230.5T1155-426l-165 73 20 40q28 54 42.5 85t28.5 88.5T1095-23V0H801v439H420V0H124v1117h296z"/><glyph unicode="Ӌ" horiz-adv-x="1566" d="M190 1489h306v-480q0-127 67-181t217-54q160 0 296 26v689h308V214h296v-573h-301V0h-303v551q-145-29-296-29-279 0-435 120.5T190 1009v480z"/><glyph unicode="ӌ" horiz-adv-x="1210" d="M1093 1117V0H799v-361H498v573h301v125q-85-16-158-16-249 0-383 102T124 737v382h292V737q0-96 50.5-134.5T641 564q74 0 158 19v534h294z"/><glyph unicode="Ӎ" horiz-adv-x="2008" d="M129 1489h389L928 489h17l411 1000h388V169h247V-4q1-117-50.5-230.5T1804-426l-165 73 20 40q28 53 42.5 85t28 89T1743-23V0h-304v969h-13L1041 7H833L447 973h-12V0H129v1489z"/><glyph unicode="ӎ" horiz-adv-x="1770" d="m784 343 303 774h369V169h247V-4q1-117-50.5-230.5T1516-426l-165 73 20 40q28 53 42.5 85t28 89T1455-23V0h-291v711L887 0H681L420 686V0H124v1117h366z"/><glyph unicode="ӏ" horiz-adv-x="574" d="M444 1489V0H129v1489h315z"/><glyph unicode="Ӑ" horiz-adv-x="1531" d="M386 0H49l514 1489h406L1482 0h-337l-111 340H497zm524 1879h216q-1-133-98.5-213.5T766 1585t-261.5 80.5T407 1879h214q-1-55 35-92.5t110-37.5q73 0 108.5 37t35.5 93zM577 585h378l-183 564h-12z"/><glyph unicode="ӑ" horiz-adv-x="1188" d="M442-21q-166 0-268.5 86T71 312q0 72 23 129t60.5 94 93.5 63 114 39 129 19l88.5 9 66.5 9 53.5 12 33.5 16 22.5 23 5.5 31v5q0 69-43 106.5T596 905q-80 0-131.5-35T397 777l-286 23q33 155 160 243.5t326 88.5q96 0 179.5-22.5t150.5-67 105.5-119T1071 753V0H777v155h-8Q726 73 643.5 26T442-21zm311 1528h216q-1-133-98.5-213.5T609 1213t-262 80.5-98 213.5h215q-1-55 35-92.5t110-37.5q73 0 108.5 37t35.5 93zM531 193q101 0 167 59t66 147v119q-39-27-216-50-181-25-181-146 0-62 45-95.5T531 193z"/><glyph unicode="Ӓ" horiz-adv-x="1531" d="M386 0H49l514 1489h406L1482 0h-337l-111 340H497zm191 585h378l-183 564h-12zm-33 1057q-63 0-108 44t-45 105 45 104 108 43 107-43 44-104-44-105-107-44zm445 0q-63 0-108 44t-45 105 45 104 108 43 107-43 44-104-44-105-107-44z"/><glyph unicode="ӓ" horiz-adv-x="1188" d="M442-21q-166 0-268.5 86T71 312q0 72 23 129t60.5 94 93.5 63 114 39 129 19l88.5 9 66.5 9 53.5 12 33.5 16 22.5 23 5.5 31v5q0 69-43 106.5T596 905q-80 0-131.5-35T397 777l-286 23q33 155 160 243.5t326 88.5q96 0 179.5-22.5t150.5-67 105.5-119T1071 753V0H777v155h-8Q726 73 643.5 26T442-21zm89 214q101 0 167 59t66 147v119q-39-27-216-50-181-25-181-146 0-62 45-95.5T531 193zM387 1270q-63 0-108 43.5T234 1418t45 104.5 108 43.5 107-43 44-105q0-61-44-104.5T387 1270zm445 0q-63 0-108 43.5T679 1418t45 104.5 108 43.5 107-43 44-105q0-61-44-104.5T832 1270z"/><glyph unicode="Ӕ" horiz-adv-x="2109" d="m49 0 638 1489h1301v-259h-688V875h637V615h-637V260h691V0H985v340H535L395 0H49zm587 585h349v595H881z"/><glyph unicode="ӕ" horiz-adv-x="1871" d="M1299-22q-138 0-245.5 53.5T892 183h-8Q840 90 722 34.5T460-21q-178 0-283.5 86T71 312q0 72 23 129t61 94 93.5 63T362 637t129 19q59 6 88.5 9.5t67 9.5 53.5 12 33 16 22.5 22.5T761 756v5q0 69-43 106.5T596 905q-80 0-131.5-35T397 777l-286 23q34 156 161 244t330 88q101 0 186.5-35T921 986q128 146 346 146 112 0 207-36t166.5-105 112-178.5T1793 564v-85h-762q0-124 68.5-197t184.5-73q78 0 135 33.5t81 96.5l285-19q-33-156-165-249t-321-93zM531 193q101 0 167 59t66 147v119q-39-27-216-50-181-25-181-146 0-62 45-95.5T531 193zm500 478h470q-1 100-64.5 164.5T1273 900q-102 0-169.5-66T1031 671z"/><glyph unicode="Ӗ" horiz-adv-x="1254" d="M129 0v1489h1004v-259H444V875h637V615H444V260h692V0H129zm648 1879h216q-1-133-98.5-213.5T633 1585t-261.5 80.5T274 1879h215q-1-56 34.5-93t109.5-37q73 0 108.5 37t35.5 93z"/><glyph unicode="ӗ" d="M633-22q-257 0-405.5 154.5T79 553q0 260 147.5 419.5T620 1132q112 0 206.5-36t166-105 112-178.5T1145 564v-85H385q0-125 68-197.5T638 209q78 0 134.5 33.5T852 339l287-19q-33-157-167-249.5T633-22zm124 1529h216q-1-133-98.5-213.5T613 1213t-261.5 80.5T254 1507h214q-1-55 35-92.5t110-37.5q73 0 108.5 37t35.5 93zM385 671h469q-1 100-64.5 164.5T625 900t-168-66-72-163z"/><glyph unicode="Ә" horiz-adv-x="1450" d="M633 1510q174 0 314-51.5t233-145 142.5-223.5 49.5-286V647q0-193-82.5-345T1057 65 717-20q-299 0-468 182.5T79 666v169h974q-7 181-115.5 288T613 1230q-180 0-373-58l-52 261q62 28 190.5 52.5T633 1510zm417-932H395v-30q1-134 81-212.5T707 257q150 0 238 86.5T1050 578z"/><glyph unicode="ә" d="M591 1139q257 0 405.5-154.5T1145 564q0-260-147.5-419.5T604-15q-112 0-206.5 36t-166 105-112 178.5T79 553v85h760v1q0 125-68 197t-185 72q-78 0-134.5-33.5T372 778L85 797q33 157 167 249.5t339 92.5zm248-693H370q1-100 64.5-164.5T599 217t168 66 72 163z"/><glyph unicode="Ӛ" horiz-adv-x="1450" d="M633 1510q174 0 314-51.5t233-145 142.5-223.5 49.5-286V647q0-193-82.5-345T1057 65 717-20q-299 0-468 182.5T79 666v169h974q-7 181-115.5 288T613 1230q-180 0-373-58l-52 261q62 28 190.5 52.5T633 1510zm417-932H395v-30q1-134 81-212.5T707 257q150 0 238 86.5T1050 578zM503 1642q-63 0-108 44t-45 105 45 104 108 43 107-43 44-104-44-105-107-44zm445 0q-63 0-108 44t-45 105 45 104 108 43 107-43 44-104-44-105-107-44z"/><glyph unicode="ӛ" d="M591 1139q257 0 405.5-154.5T1145 564q0-260-147.5-419.5T604-15q-112 0-206.5 36t-166 105-112 178.5T79 553v85h760v1q0 125-68 197t-185 72q-78 0-134.5-33.5T372 778L85 797q33 157 167 249.5t339 92.5zm248-693H370q1-100 64.5-164.5T599 217t168 66 72 163zm-448 824q-63 0-107.5 43.5T239 1418t44.5 104.5T391 1566t107.5-43.5T543 1418t-44.5-104.5T391 1270zm445 0q-63 0-107.5 43.5T684 1418t44.5 104.5T836 1566t107.5-43.5T988 1418t-44.5-104.5T836 1270z"/><glyph unicode="Ӝ" horiz-adv-x="2222" d="M1264 1489V876h166l326 613h386l-437-701L2164 0h-376l-315 585h-209V0H959v585H755L432 0H59l467 785-447 704h387l335-613h158v613h305zm-375 153q-63 0-107.5 44T737 1791t44.5 104 107.5 43 107.5-43 44.5-104-44.5-105-107.5-44zm446 0q-63 0-108 44t-45 105 45 104 108 43 107-43 44-104-44-105-107-44z"/><glyph unicode="ӝ" horiz-adv-x="1797" d="m51 0 390 581-388 536h354l290-437h48v437h310V680h46l290 437h354l-388-536L1747 0h-362l-287 436h-43V0H745v436h-44L412 0H51zm626 1270q-63 0-108 43.5T524 1418t45 104.5 108 43.5 107-43 44-105q0-61-44-104.5T677 1270zm445 0q-63 0-108 43.5T969 1418t45 104.5 108 43.5 107-43 44-105q0-61-44-104.5t-107-43.5z"/><glyph unicode="Ӟ" horiz-adv-x="1350" d="M671-20q-245 0-403 123T106 421h317q4-81 74-131.5T672 239q108 0 177 55.5T917 439q1 91-73.5 148T644 644H505v231h139q108 0 175.5 54.5T886 1071q1 84-58 136.5T674 1260q-98 0-165.5-52T438 1073H136q2 126 73 226.5T402.5 1455t273.5 55q228 0 371-120.5t142-299.5q1-123-76.5-207.5T908 775v-11q162-21 249.5-113t86.5-233q1-191-160.5-314.5T671-20zM457 1642q-63 0-108 44t-45 105 45 104 108 43 107-43 44-104-44-105-107-44zm445 0q-63 0-108 44t-45 105 45 104 108 43 107-43 44-104-44-105-107-44z"/><glyph unicode="ӟ" horiz-adv-x="1078" d="M66 316h301q2-55 48.5-87T538 197q79 0 129 36t50 101q0 61-44 98.5T556 470H395v203h161q70 0 109.5 32.5T705 790q0 57-40.5 91.5T556 916q-69 0-114-31.5T395 804H96q1 98 60.5 173.5t160.5 115 226 39.5q205 0 323.5-84.5T985 817q0-88-58-148.5T764 583v-11q106-7 177-77.5t71-184.5q0-153-131-242.5T540-22q-206 0-337 89T66 316zm254 954q-63 0-108 43.5T167 1418t45 104.5 108 43.5 107-43 44-105q0-61-44-104.5T320 1270zm445 0q-63 0-108 43.5T612 1418t45 104.5 108 43.5 107-43 44-105q0-61-44-104.5T765 1270z"/><glyph unicode="Ӡ" horiz-adv-x="1343" d="M97 421h318q6-83 76.5-132.5T665 239q109 0 177 56t68 150q0 96-73 155.5T630 660H469v219l330 343v10H172v257h1014v-226L786 858v-11q91-9 166.5-37t128-68 88.5-92 52.5-108.5T1238 424q0-130-75-232T957.5 35 664-20q-246 0-403 121.5T97 421z"/><glyph unicode="ӡ" horiz-adv-x="1343" d="M97 49h318q6-83 76.5-132.5T665-133q109 0 177 56t68 150q0 96-72.5 155T630 287H469v219l330 343v11H172v257h1014V890L786 486v-12q114-11 202.5-50.5t142-98T1211 198t27-146q0-130-75-232T957.5-337.5 664-393q-246 0-403 122T97 49z"/><glyph unicode="Ӣ" horiz-adv-x="1505" d="M129 1489h315V553h12l644 936h275V0h-315v937h-11L402 0H129v1489zm979 373v-168H399v168h709z"/><glyph unicode="ӣ" horiz-adv-x="1251" d="m420 409 402 708h305V0H832v711L431 0H124v1117h296V409zm559 1080v-168H271v168h708z"/><glyph unicode="Ӥ" horiz-adv-x="1505" d="M129 1489h315V553h12l644 936h275V0h-315v937h-11L402 0H129v1489zm403 153q-63 0-108 44t-45 105 45 104 108 43 107-43 44-104-44-105-107-44zm445 0q-63 0-108 44t-45 105 45 104 108 43 107-43 44-104-44-105-107-44z"/><glyph unicode="ӥ" horiz-adv-x="1251" d="m420 409 402 708h305V0H832v711L431 0H124v1117h296V409zm-17 861q-63 0-108 43.5T250 1418t45 104.5 108 43.5 107-43 44-105q0-61-44-104.5T403 1270zm445 0q-63 0-108 43.5T695 1418t45 104.5 108 43.5 107-43 44-105q0-61-44-104.5T848 1270z"/><glyph unicode="Ӧ" horiz-adv-x="1601" d="M1498 745q0-179-53.5-324.5t-147-241.5-221-147.5T801-20q-149 0-276.5 52T303 180 156 421.5 103 745q0 179 53 324.5T303 1311t221.5 147.5T801 1510q148 0 275.5-51.5t221-147.5 147-241.5T1498 745zm-319 0q0 233-102 359.5T801 1231q-175 0-276.5-126.5T423 745t101.5-360T801 258q174 0 276 127t102 360zm-600 897q-63 0-108 44t-45 105 45 104 108 43 107-43 44-104-44-105-107-44zm445 0q-63 0-108 44t-45 105 45 104 108 43 107-43 44-104-44-105-107-44z"/><glyph unicode="ӧ" horiz-adv-x="1256" d="M628-22q-252 0-400.5 158T79 554q0 261 148.5 419.5T628 1132q253 0 401.5-158.5T1178 554q0-260-149-418T628-22zm2 240q111 0 172 93.5T863 556t-61 245-172 94q-114 0-175.5-94T393 556t61.5-244.5T630 218zM407 1270q-63 0-108 43.5T254 1418t45 104.5 108 43.5 107-43 44-105q0-61-44-104.5T407 1270zm445 0q-63 0-108 43.5T699 1418t45 104.5 108 43.5 107-43 44-105q0-61-44-104.5T852 1270z"/><glyph unicode="Ө" horiz-adv-x="1601" d="M1498 745q0-179-53.5-324.5t-147-241.5-221-147.5T801-20q-149 0-276.5 52T303 180 156 421.5 103 745q0 179 53 324.5T303 1311t221.5 147.5T801 1510q148 0 275.5-51.5t221-147.5 147-241.5T1498 745zm-325 102q-21 185-119.5 284.5T801 1231t-253-99.5T428 847h745zM801 258q153 0 252 100t120 285H428q21-185 120-285t253-100z"/><glyph unicode="ө" horiz-adv-x="1256" d="M628-22q-252 0-400.5 158T79 554q0 261 148.5 419.5T628 1132q253 0 401.5-158.5T1178 554q0-260-149-418T628-22zm2 240q94 0 152 67t75 182H399q17-115 76-182t155-67zM400 650h457q-18 113-76.5 179T630 895q-95 0-153.5-66T400 650z"/><glyph unicode="Ӫ" horiz-adv-x="1601" d="M1498 745q0-179-53.5-324.5t-147-241.5-221-147.5T801-20q-149 0-276.5 52T303 180 156 421.5 103 745q0 179 53 324.5T303 1311t221.5 147.5T801 1510q148 0 275.5-51.5t221-147.5 147-241.5T1498 745zm-325 102q-21 185-119.5 284.5T801 1231t-253-99.5T428 847h745zM801 258q153 0 252 100t120 285H428q21-185 120-285t253-100zM579 1642q-63 0-108 44t-45 105 45 104 108 43 107-43 44-104-44-105-107-44zm445 0q-63 0-108 44t-45 105 45 104 108 43 107-43 44-104-44-105-107-44z"/><glyph unicode="ӫ" horiz-adv-x="1256" d="M628-22q-252 0-400.5 158T79 554q0 261 148.5 419.5T628 1132q253 0 401.5-158.5T1178 554q0-260-149-418T628-22zm2 240q94 0 152 67t75 182H399q17-115 76-182t155-67zM400 650h457q-18 113-76.5 179T630 895q-95 0-153.5-66T400 650zm7 620q-63 0-108 43.5T254 1418t45 104.5 108 43.5 107-43 44-105q0-61-44-104.5T407 1270zm445 0q-63 0-108 43.5T699 1418t45 104.5 108 43.5 107-43 44-105q0-61-44-104.5T852 1270z"/><glyph unicode="Ӭ" horiz-adv-x="1434" d="M105 488h313q8-129 80.5-193T711 231q150 0 223 94t85 277H548v253h472q-18 400-311 400-151 0-216.5-66.5T417 988H103q11 112 53.5 206T272 1359t185 111 252 40q285 0 453.5-191.5T1331 803V682q0-325-166-513.5T711-20q-271 0-430.5 138.5T105 488zm390 1154q-63 0-108 44t-45 105 45 104 108 43 107-43 44-104-44-105-107-44zm445 0q-63 0-108 44t-45 105 45 104 108 43 107-43 44-104-44-105-107-44z"/><glyph unicode="ӭ" horiz-adv-x="1133" d="M537 886q-79-1-129.5-45.5T357 724H79q0 180 131 295.5T537 1135q164 0 283-76t177-202 58-286v-27q0-121-34-223t-97.5-178.5T760.5 23 537-20Q331-20 205 98.5T79 420h278q0-80 49.5-134T537 231q99 1 150.5 67T753 467H453v183h300q-13 105-65 170t-151 66zm-194 384q-63 0-107.5 43.5T191 1418t44.5 104.5T343 1566t107.5-43.5T495 1418t-44.5-104.5T343 1270zm445 0q-63 0-107.5 43.5T636 1418t44.5 104.5T788 1566t107.5-43.5T940 1418t-44.5-104.5T788 1270z"/><glyph unicode="Ӯ" horiz-adv-x="1374" d="M290-20v256h81q86 0 127.5 31.5T565 369l18 48L42 1489h326l351-733 293 733h321L820 292q-32-71-64-120.5T675.5 75t-117-71T402-20H290zm749 1882v-168H330v168h709z"/><glyph unicode="ӯ" horiz-adv-x="1200" d="M315-419q-121 0-195 32l70 231q80-29 139-13t88 90l19 47L35 1117h326l231-820h12l233 820h328L731-121Q627-419 315-419zm637 1908v-168H244v168h708z"/><glyph unicode="Ӱ" horiz-adv-x="1374" d="M290-20v256h81q86 0 127.5 31.5T565 369l18 48L42 1489h326l351-733 293 733h321L820 292q-32-71-64-120.5T675.5 75t-117-71T402-20H290zm173 1662q-63 0-107.5 44T311 1791t44.5 104 107.5 43 107.5-43 44.5-104-44.5-105-107.5-44zm445 0q-63 0-107.5 44T756 1791t44.5 104 107.5 43 107.5-43 44.5-104-44.5-105-107.5-44z"/><glyph unicode="ӱ" horiz-adv-x="1200" d="M315-419q-121 0-195 32l70 231q80-29 139-13t88 90l19 47L35 1117h326l231-820h12l233 820h328L731-121Q627-419 315-419zm62 1689q-63 0-108 43.5T224 1418t45 104.5 108 43.5 107-43 44-105q0-61-44-104.5T377 1270zm445 0q-63 0-108 43.5T669 1418t45 104.5 108 43.5 107-43 44-105q0-61-44-104.5T822 1270z"/><glyph unicode="Ӳ" horiz-adv-x="1374" d="M290-20v256h81q86 0 127.5 31.5T565 369l18 48L42 1489h326l351-733 293 733h321L820 292q-32-71-64-120.5T675.5 75t-117-71T402-20H290zm449 1639 230 301h262l-273-301H739zm-373 0 194 301h260l-237-301H366z"/><glyph unicode="ӳ" horiz-adv-x="1200" d="M315-419q-121 0-195 32l70 231q80-29 139-13t88 90l19 47L35 1117h326l231-820h12l233 820h328L731-121Q627-419 315-419zm337 1666 231 301h262l-274-301H652zm-373 0 194 301h261l-238-301H279z"/><glyph unicode="Ӵ" horiz-adv-x="1566" d="M190 1489h306v-480q0-127 67-181t217-54q160 0 296 26v689h308V0h-308v551q-145-29-296-29-279 0-435 120.5T190 1009v480zm374 153q-63 0-107.5 44T412 1791t44.5 104 107.5 43 107.5-43 44.5-104-44.5-105-107.5-44zm445 0q-63 0-107.5 44T857 1791t44.5 104 107.5 43 107.5-43 44.5-104-44.5-105-107.5-44z"/><glyph unicode="ӵ" horiz-adv-x="1210" d="M1093 1117V0H799v337q-85-16-158-16-249 0-383 102T124 737v382h292V737q0-96 50.5-134.5T641 564q74 0 158 19v534h294zm-710 153q-63 0-107.5 43.5T231 1418t44.5 104.5T383 1566t107.5-43.5T535 1418t-44.5-104.5T383 1270zm445 0q-63 0-107.5 43.5T676 1418t44.5 104.5T828 1566t107.5-43.5T980 1418t-44.5-104.5T828 1270z"/><glyph unicode="Ӷ" horiz-adv-x="1190" d="M1118 1489v-259H444V214h295v-573H438V0H129v1489h989z"/><glyph unicode="ӷ" horiz-adv-x="953" d="M889 1117V873H425V212h296v-573H420V0H124v1117h765z"/><glyph unicode="Ӹ" horiz-adv-x="1928" d="M462 939h242q264 0 419-125.5T1277 476q1-213-155-344.5T704 0H148v1489h314V939zm1251 550V0h-315v1489h315zM462 690V253h242q122 0 192 65t69 161q1 92-68.5 151.5T704 690H462zm287 890q-63 0-108 43.5T596 1728t45 104.5 108 43.5 107-43 44-105q0-61-44-104.5T749 1580zm445 0q-63 0-108 43.5t-45 104.5 45 104.5 108 43.5 107-43 44-105q0-61-44-104.5t-107-43.5z"/><glyph unicode="ӹ" horiz-adv-x="1675" d="M420 774h232q220 0 344.5-105.5T1122 385q-1-176-126-280.5T652 0H124v1117h296V774zM1242 0v1117h310V0h-310zM420 530V244h232q78 0 128 39t51 100q-1 65-51 106t-128 41H420zm196 740q-63 0-108 43.5T463 1418t45 104.5 108 43.5 107-43 44-105q0-61-44-104.5T616 1270zm445 0q-63 0-108 43.5T908 1418t45 104.5 108 43.5 107-43 44-105q0-61-44-104.5t-107-43.5z"/><glyph unicode="Ӻ" horiz-adv-x="1190" d="M1118 1489v-259H444V876h204V694H444V274h293V-28q0-195-104.5-301.5T342-436q-87 0-149 14l14 242q43-13 101-13 60 0 94 42.5T436-28V0H129v694H-78v182h207v613h989z"/><glyph unicode="ӻ" horiz-adv-x="953" d="M889 1117V873H425V693h213V511H425V-28q0-195-104.5-301.5T30-436q-87 0-149 14l14 242q43-13 101-13 60 0 94 42.5T124-28v539H-88v182h212v424h765z"/><glyph unicode="Ӽ" horiz-adv-x="1463" d="m425 1489 300-507h12l302 507h355L940 745l293-471h297V-28q0-195-104.5-301.5T1135-436q-87 0-149 14l15 242q43-13 101-13 60 0 93.5 42.5T1229-28V0h-187L737 508h-12L420 0H59l466 745-457 744h357z"/><glyph unicode="ӽ" horiz-adv-x="1131" d="m51 0 325 559-313 558h320l187-342 193 342h318L764 559l164-278q7-12 23-40 39-66 59.5-105t41-110 15.5-135q-10-140-111-233.5T677-436q-87 0-149 14l15 242q49-15 89-15 61 0 99.5 36T769-55q3 35-13 75.5T695 135L570 336 371 0H51z"/><glyph unicode="Ӿ" horiz-adv-x="1463" d="m425 1489 300-507h12l302 507h355L999 841h93V658h-99L1404 0h-362L737 508h-12L420 0H59l412 658H367v183h99L68 1489h357z"/><glyph unicode="ӿ" horiz-adv-x="1175" d="m383 1117 205-390 210 390h318L847 655h103V472H844L1124 0H808L588 386 371 0H51l280 472H224v183h103L63 1117h320z"/><glyph horiz-adv-x="984"/><glyph horiz-adv-x="1969"/><glyph horiz-adv-x="984"/><glyph horiz-adv-x="1969"/><glyph horiz-adv-x="656"/><glyph horiz-adv-x="492"/><glyph horiz-adv-x="328"/><glyph horiz-adv-x="328"/><glyph horiz-adv-x="246"/><glyph horiz-adv-x="393"/><glyph horiz-adv-x="109"/><glyph unicode="‐" horiz-adv-x="960" d="M820 735V489H140v246h680z"/><glyph unicode="‑" horiz-adv-x="960" d="M820 735V489H140v246h680z"/><glyph unicode="‒" horiz-adv-x="960" d="M820 735V489H140v246h680z"/><glyph unicode="–" horiz-adv-x="1024" d="M1024 735V489H0v246h1024z"/><glyph unicode="—" horiz-adv-x="2048" d="M2048 735V489H0v246h2048z"/><glyph unicode="‘" horiz-adv-x="496" d="M113 1024v157q0 97 55 203t133 169l137-81q-93-145-93-289v-159H113z"/><glyph unicode="’" horiz-adv-x="466" d="M383 1489v-157q0-97-54-200.5T195 961l-137 80q93 146 93 290v158h232z"/><glyph unicode="‚" horiz-adv-x="496" d="M382 186V29q0-97-54.5-201T193-343L57-262q92 145 92 290v158h233z"/><glyph unicode="“" horiz-adv-x="863" d="M113 1024v157q0 97 55 203t133 169l137-81q-93-145-93-289v-159H113zm367 0v157q0 97 55 203t133 169l137-81q-92-144-92-289v-159H480z"/><glyph unicode="”" horiz-adv-x="861" d="M383 1489v-157q0-97-54-200.5T195 961l-137 80q93 146 93 290v158h232zm365 0v-157q0-97-54-200.5T560 961l-137 80q93 146 93 290v158h232z"/><glyph unicode="„" horiz-adv-x="861" d="M380 186V29q0-97-54.5-201T191-343L55-262q92 145 92 290v158h233zm365 0V29q0-97-54.5-201T556-343l-136 81q92 145 92 290v158h233z"/><glyph unicode="…" horiz-adv-x="1636" d="M312-19q-72 0-124 51.5T137 156q-1 71 51 122t124 51q70 0 122-51t53-122q-1-72-53-123.5T312-19zm513 0q-72 0-124 51.5T650 156q-1 71 51 122t124 51q70 0 121.5-51T999 156q-1-72-52.5-123.5T825-19zm513 0q-72 0-123.5 51T1164 156q-1 71 50.5 122t123.5 51q70 0 122-51t53-122q-1-72-53-123.5T1338-19z"/><glyph horiz-adv-x="393"/><glyph unicode="‹" horiz-adv-x="802" d="M694 160H413L119 596v21l294 436h281L417 607z"/><glyph unicode="›" horiz-adv-x="802" d="m103 160 277 447-277 446h281l294-436v-21L384 160H103z"/><glyph horiz-adv-x="492"/><glyph unicode="€" horiz-adv-x="1405" d="m1104 977-72-160H565q-2-46-2-74 0-25 2-71h400l-79-163H591q71-249 305-249 139 0 275 100l118-249Q1131-20 896-20q-238 0-404.5 139T271 509H60l59 163h130q-2 46-2 71 0 26 2 74H60l59 160h152q54 252 221 392.5T896 1510q229 0 397-135l-116-249q-146 103-281 103-234 0-305-252h513z"/><glyph unicode="™" horiz-adv-x="1314" d="m891 954-121 303V954H636v535h160l133-353 132 353h161V954h-135v301L967 954h-76zm-647 0v424H81v111h462v-111H380V954H244z"/><glyph unicode="◼" horiz-adv-x="1116" d="M0 1116h1116V0H0v1116z"/></font>
</defs>
</svg>
