<?xml version="1.0" standalone="no"?>
<!DOCTYPE svg PUBLIC "-//W3C//DTD SVG 1.1//EN" "http://www.w3.org/Graphics/SVG/1.1/DTD/svg11.dtd" >
<svg xmlns="http://www.w3.org/2000/svg" xmlns:xlink="http://www.w3.org/1999/xlink" version="1.1">
<metadata></metadata>
<defs>
<font id="intersemi_bold" horiz-adv-x="1213" >
<font-face units-per-em="2048" ascent="1638" descent="-410" />
<missing-glyph horiz-adv-x="508" />
<glyph horiz-adv-x="0" />
<glyph horiz-adv-x="682" />
<glyph unicode=" "  horiz-adv-x="508" />
<glyph unicode="&#x09;" horiz-adv-x="508" />
<glyph unicode="&#xa0;" horiz-adv-x="508" />
<glyph unicode="!" horiz-adv-x="632" d="M457 1489l-24 -1051h-234l-23 1051h281zM316 -16q-67 0 -114 46.5t-46 113.5q-1 65 46 112t114 47q65 0 112 -47t48 -112q-1 -66 -48 -113t-112 -47z" />
<glyph unicode="&#x22;" horiz-adv-x="810" d="M317 1489v-548h-201v548h201zM692 1489v-548h-201v548h201z" />
<glyph unicode="#" horiz-adv-x="1317" d="M697 0l63 384h-320l-63 -384h-204l63 384h-211l35 204h210l51 314h-209l33 203h209l63 384h204l-63 -384h320l63 384h204l-64 -384h211l-34 -203h-210l-51 -314h209l-34 -204h-208l-64 -384h-203zM473 588h320l51 314h-320z" />
<glyph unicode="$" horiz-adv-x="1329" d="M612 -186v165q-237 14 -374.5 134t-144.5 327h266q7 -100 75.5 -158.5t177.5 -70.5v438l-83 22q-397 102 -397 400q-1 180 133.5 299t346.5 137v169h120v-168q216 -14 348 -131.5t136 -296.5h-260q-9 83 -68 135t-156 64v-415l67 -17q90 -21 163.5 -54t137.5 -83 t100 -124.5t36 -167.5q-1 -188 -134 -306t-370 -133v-165h-120zM732 212q107 14 170.5 69.5t64.5 138.5q-1 76 -59.5 121t-175.5 77v-406zM612 895v382q-96 -13 -150.5 -64.5t-55.5 -125.5t56 -119.5t150 -72.5z" />
<glyph unicode="%" horiz-adv-x="1728" d="M929 279v79q0 136 85 228.5t230 92.5q149 0 232 -91.5t83 -229.5v-79q0 -136 -84 -228t-231 -92t-231 92t-84 228zM172 1132v78q0 137 84.5 229t230.5 92q149 0 231.5 -91.5t82.5 -229.5v-78q0 -137 -83.5 -228.5t-230.5 -91.5q-148 0 -231.5 92t-83.5 228zM254 0 l1024 1489h182l-1024 -1489h-182zM1119 358v-79q0 -65 30 -109t95 -44t94 43.5t29 109.5v79q0 67 -28.5 111t-94.5 44q-64 0 -94.5 -45t-30.5 -110zM363 1210v-78q0 -65 29.5 -109.5t94.5 -44.5t94 44t29 110v78q0 67 -28.5 111t-94.5 44q-64 0 -94 -45t-30 -110z" />
<glyph unicode="&#x26;" horiz-adv-x="1357" d="M580 -22q-224 0 -357.5 118t-133.5 300q0 64 19.5 119t59.5 103t86.5 87.5t114.5 86.5q-73 91 -113 173.5t-40 174.5q0 161 108 264.5t283 103.5q171 0 274.5 -98.5t103.5 -240.5q0 -195 -198 -339l-94 -69l272 -319q63 118 63 260h226q0 -274 -130 -447l219 -255h-286 l-95 109q-75 -65 -176.5 -98t-205.5 -33zM819 273l-309 354l-24 -18q-70 -51 -104 -105t-34 -97q0 -90 66.5 -151t173.5 -61q122 0 231 78zM559 921l84 58q60 39 89 81t29 98q0 52 -42 93t-109 41q-69 0 -114 -46.5t-45 -109.5q0 -83 108 -215z" />
<glyph unicode="'" horiz-adv-x="436" d="M317 1489v-548h-201v548h201z" />
<glyph unicode="(" horiz-adv-x="805" d="M201 607q0 534 288 925h248q-112 -145 -187 -407t-75 -518t75 -516.5t187 -406.5h-248q-288 391 -288 923z" />
<glyph unicode=")" horiz-adv-x="805" d="M605 607q0 -533 -288 -924h-248q112 146 187 407t75 517t-75 517t-187 407h248q288 -391 288 -924z" />
<glyph unicode="*" horiz-adv-x="1112" d="M468 652l16 294l-247 -162l-89 154l264 133l-264 132l89 154l247 -162l-16 294h176l-16 -294l248 162l88 -154l-264 -132l264 -133l-88 -154l-248 162l16 -294h-176z" />
<glyph unicode="+" horiz-adv-x="1377" d="M575 88v389h-390v228h390v390h228v-390h389v-228h-389v-389h-228z" />
<glyph unicode="," horiz-adv-x="604" d="M444 204l-9 -80q-20 -183 -136 -488h-178q1 4 10.5 43t14 59t14 63t15.5 76t13 76.5t12 85.5t7 83l5 82h232z" />
<glyph unicode="-" horiz-adv-x="954" d="M812 729v-217h-670v217h670z" />
<glyph unicode="." horiz-adv-x="594" d="M297 -16q-67 0 -114 46.5t-46 113.5q-1 65 46 112t114 47q65 0 112 -47t48 -112q-1 -66 -48 -113t-112 -47z" />
<glyph unicode="/" horiz-adv-x="775" d="M743 1559l-480 -1783h-230l480 1783h230z" />
<glyph unicode="0" horiz-adv-x="1365" d="M683 -28q-270 0 -422 203t-152 568q1 364 153 565.5t421 201.5q270 0 422 -202t152 -565q0 -366 -152 -569t-422 -202zM683 199q142 0 222 140t80 404q-1 262 -81 402t-221 140t-220.5 -139.5t-80.5 -402.5q-1 -264 79.5 -404t221.5 -140z" />
<glyph unicode="1" horiz-adv-x="984" d="M738 1489v-1489h-270v1227h-8l-349 -223v248l370 237h257z" />
<glyph unicode="2" horiz-adv-x="1272" d="M132 0v195l517 507q123 125 173 200t50 162q0 103 -69.5 165t-177.5 62q-111 0 -178 -66.5t-67 -180.5h-256q0 210 140.5 338t363.5 128t363 -122t140 -310q0 -128 -78 -251.5t-292 -329.5l-256 -261v-11h648v-225h-1021z" />
<glyph unicode="3" horiz-adv-x="1334" d="M667 -20q-155 0 -278.5 53.5t-194 150.5t-73.5 221h273q5 -90 81.5 -144.5t190.5 -54.5q120 0 197 62t76 160q1 103 -80 166t-220 63h-131v208h131q116 0 189 59.5t72 156.5q1 94 -62.5 152t-167.5 58q-106 0 -180.5 -56t-77.5 -147h-260q3 122 72 219t186.5 150 t260.5 53q218 0 354.5 -119.5t135.5 -293.5q1 -123 -72.5 -209t-196.5 -113v-11q155 -22 240.5 -115.5t84.5 -234.5q0 -124 -70.5 -223.5t-196 -155t-283.5 -55.5z" />
<glyph unicode="4" horiz-adv-x="1363" d="M105 276v215l632 998h336v-991h191v-222h-191v-276h-257v276h-711zM819 498v686h-12l-425 -674v-12h437z" />
<glyph unicode="5" horiz-adv-x="1295" d="M650 -20q-218 0 -363.5 120t-150.5 305h262q7 -91 78.5 -149t173.5 -58q120 0 197.5 80t76.5 205q1 126 -78.5 207.5t-202.5 82.5q-66 1 -131 -25t-103 -67l-244 40l78 768h864v-225h-641l-43 -395h9q43 50 119 82t164 32q204 0 337 -139.5t133 -354.5 q0 -223 -149.5 -366t-385.5 -143z" />
<glyph unicode="6" horiz-adv-x="1327" d="M678 -20q-74 0 -141.5 16t-133 50t-118 91.5t-92.5 135t-62 187.5t-22 243q0 379 157 593t427 214q207 0 345 -118.5t163 -303.5h-266q-21 87 -84.5 137.5t-157.5 50.5q-154 0 -237.5 -133.5t-84.5 -370.5h10q53 96 152.5 151t219.5 55q197 0 330 -138t132 -347 q1 -224 -149 -369t-388 -144zM676 198q118 0 198 83.5t79 205.5q1 121 -77 203t-196 82q-117 0 -198 -84.5t-82 -202.5q1 -119 79.5 -203t196.5 -84z" />
<glyph unicode="7" horiz-adv-x="1202" d="M187 0l633 1254v10h-735v225h1015v-230l-633 -1259h-280z" />
<glyph unicode="8" horiz-adv-x="1322" d="M662 -20q-243 0 -399 118.5t-155 300.5q-1 138 88.5 243.5t222.5 127.5v10q-114 25 -185.5 117.5t-70.5 213.5q0 114 64 205t178 142.5t257 51.5q215 0 356 -113.5t142 -285.5q-1 -121 -72 -213.5t-184 -117.5v-10q131 -22 220.5 -127.5t90.5 -243.5 q-1 -182 -156.5 -300.5t-396.5 -118.5zM662 188q125 0 200 63.5t76 166.5q-1 106 -79 175t-197 69q-121 0 -199.5 -68.5t-77.5 -175.5q-1 -103 75 -166.5t202 -63.5zM662 866q102 0 168 61t67 158q-1 96 -66 155t-169 59q-106 0 -171.5 -59t-64.5 -155q-1 -96 65.5 -157.5 t170.5 -61.5z" />
<glyph unicode="9" horiz-adv-x="1327" d="M649 1510q90 0 169.5 -22.5t154 -75.5t127.5 -133t85.5 -205t32.5 -283q1 -381 -156.5 -596t-427.5 -215q-208 0 -345.5 119t-161.5 307h265q21 -90 83.5 -141.5t158.5 -51.5q154 0 237.5 133.5t84.5 374.5h-10q-54 -96 -152.5 -150.5t-219.5 -54.5q-197 0 -329 136.5 t-133 346.5q0 222 149 367t388 144zM650 1292q-118 0 -197 -83t-79 -204q1 -121 78 -202.5t195 -81.5q117 0 199 85t81 201q0 116 -80 200.5t-197 84.5z" />
<glyph unicode=":" horiz-adv-x="594" d="M297 -16q-67 0 -114 46.5t-46 113.5q-1 65 46 112t114 47q65 0 112 -47t48 -112q-1 -66 -48 -113t-112 -47zM297 782q-67 0 -114 46.5t-46 113.5q-1 65 46 111.5t114 46.5q65 0 112 -46.5t48 -111.5q-1 -66 -48 -113t-112 -47z" />
<glyph unicode=";" horiz-adv-x="604" d="M444 204l-9 -80q-20 -183 -136 -488h-178q1 4 10.5 43t14 59t14 63t15.5 76t13 76.5t12 85.5t7 83l5 82h232zM324 782q-67 0 -114 46.5t-46 113.5q-1 65 46 111.5t114 46.5q65 0 112 -46.5t48 -111.5q-1 -66 -48 -113t-112 -47z" />
<glyph unicode="&#x3c;" horiz-adv-x="1377" d="M191 487v209l995 460v-259l-699 -299v-13l699 -300v-258z" />
<glyph unicode="=" horiz-adv-x="1377" d="M205 246v225h968v-225h-968zM205 711v225h968v-225h-968z" />
<glyph unicode="&#x3e;" horiz-adv-x="1377" d="M1186 487l-995 -460v258l699 300v13l-699 299v259l995 -460v-209z" />
<glyph unicode="?" horiz-adv-x="1114" d="M387 438v19q0 126 26 208.5t66 125.5t112 88q156 97 156 227q0 84 -58 136.5t-143 52.5q-83 0 -143 -53t-65 -150h-259q5 199 137 308.5t332 109.5q210 0 339.5 -108.5t129.5 -291.5q0 -226 -218 -356q-62 -38 -97.5 -76t-54 -91.5t-18.5 -129.5v-19h-242zM514 -16 q-67 0 -114 46.5t-46 113.5q-1 65 46 112t114 47q65 0 112 -47t48 -112q-1 -66 -48 -113t-112 -47z" />
<glyph unicode="@" horiz-adv-x="2046" d="M1071 -417q-457 0 -706 244t-250 689q0 289 112.5 503t329 331t514.5 117q208 0 377 -65t280 -179.5t170.5 -268.5t59.5 -334q2 -609 -402 -624q-110 -6 -178.5 36.5t-81.5 124.5h-9q-27 -68 -117.5 -113t-209.5 -39q-183 8 -297.5 146.5t-114.5 373.5q0 113 33.5 206 t90 154t126.5 98t148 47q113 16 208 -17t113 -84h10v81h203v-692q1 -55 27 -88.5t72 -33.5q86 0 124.5 104.5t37.5 331.5q0 152 -50.5 273t-141.5 199t-214.5 119.5t-269.5 41.5q-175 0 -313 -54.5t-227.5 -154t-136 -235.5t-46.5 -302q0 -354 191 -542.5t551 -188.5 q110 0 220.5 23.5t181.5 50.5l62 -185q-73 -38 -208 -66t-269 -28zM1020 214q135 0 194 79t57 242q-1 151 -58 218.5t-191 67.5q-119 0 -187 -79.5t-69 -207.5q0 -66 13.5 -121t42 -101t79 -72t119.5 -26z" />
<glyph unicode="A" horiz-adv-x="1482" d="M338 0h-288l525 1489h333l525 -1489h-288l-124 367h-560zM534 584h414l-201 600h-12z" />
<glyph unicode="B" horiz-adv-x="1346" d="M147 0v1489h570q234 0 358.5 -106.5t124.5 -279.5q0 -129 -72 -209.5t-188 -107.5v-14q128 -6 223 -106t95 -260q0 -182 -130.5 -294t-377.5 -112h-603zM417 225h290q141 0 209 54t68 148q0 102 -73.5 168.5t-196.5 66.5h-297v-437zM417 856h267q107 0 176.5 58t69.5 154 q0 89 -62.5 144t-178.5 55h-272v-411z" />
<glyph unicode="C" horiz-adv-x="1522" d="M1422 987h-272q-23 131 -119.5 206t-234.5 75q-187 0 -301.5 -138t-114.5 -385q0 -250 114.5 -386.5t300.5 -136.5q136 0 233 72t122 201l272 -2q-15 -107 -66.5 -200t-131 -163t-191.5 -110t-242 -40q-197 0 -350.5 90t-242.5 265t-89 410q0 177 52 322t143 241.5 t216 149t271 52.5q252 0 424.5 -139.5t206.5 -383.5z" />
<glyph unicode="D" horiz-adv-x="1483" d="M652 0h-505v1489h515q333 0 523 -197.5t190 -545.5q0 -349 -191.5 -547.5t-531.5 -198.5zM417 233h222q468 0 468 513q0 510 -460 510h-230v-1023z" />
<glyph unicode="E" horiz-adv-x="1244" d="M147 0v1489h969v-226h-699v-404h648v-226h-648v-407h704v-226h-974z" />
<glyph unicode="F" horiz-adv-x="1199" d="M147 0v1489h954v-226h-684v-404h619v-226h-619v-633h-270z" />
<glyph unicode="G" horiz-adv-x="1546" d="M1145 1014q-37 120 -127 187t-223 67q-185 0 -300 -138t-115 -384q0 -248 115 -386t306 -138q168 0 267.5 94t102.5 253h-343v211h604v-179q0 -189 -81.5 -330.5t-224.5 -216t-327 -74.5q-311 0 -500.5 206.5t-189.5 556.5q0 176 52 321.5t143 242.5t216 150t271 53 q246 0 420 -138t209 -358h-275z" />
<glyph unicode="H" horiz-adv-x="1523" d="M147 0v1489h270v-630h690v630h270v-1489h-270v633h-690v-633h-270z" />
<glyph unicode="I" horiz-adv-x="562" d="M417 1489v-1489h-270v1489h270z" />
<glyph unicode="J" horiz-adv-x="1148" d="M735 1489h267v-1047q-1 -214 -132.5 -338t-348.5 -124q-204 0 -332.5 108.5t-128.5 307.5h268q1 -90 57 -142.5t147 -52.5q97 0 149.5 62t53.5 179v1047z" />
<glyph unicode="K" horiz-adv-x="1386" d="M147 0v1489h270v-684h18l581 684h329l-576 -668l582 -821h-325l-444 639l-165 -195v-444h-270z" />
<glyph unicode="L" horiz-adv-x="1159" d="M147 0v1489h270v-1263h656v-226h-926z" />
<glyph unicode="M" horiz-adv-x="1856" d="M147 1489h330l442 -1079h18l442 1079h330v-1489h-259v1023h-14l-411 -1019h-194l-411 1021h-14v-1025h-259v1489z" />
<glyph unicode="N" horiz-adv-x="1517" d="M1371 1489v-1489h-240l-702 1015h-12v-1015h-270v1489h241l701 -1015h14v1015h268z" />
<glyph unicode="O" horiz-adv-x="1586" d="M1478 745q0 -177 -52 -322t-144 -241.5t-217 -149t-272 -52.5t-272 52.5t-216.5 149t-143.5 241.5t-52 322t52 322t143.5 241.5t216.5 149t272 52.5t272 -52.5t217 -149t144 -241.5t52 -322zM1207 745q0 249 -113.5 386t-300.5 137q-186 0 -299.5 -137.5t-113.5 -385.5 t113.5 -385.5t299.5 -137.5q187 0 300.5 137t113.5 386z" />
<glyph unicode="P" horiz-adv-x="1317" d="M147 0v1489h558q250 0 388 -136.5t138 -356.5q0 -221 -138.5 -357t-390.5 -136h-285v-503h-270zM417 725h248q145 0 218 73t73 198q0 124 -73 196t-219 72h-247v-539z" />
<glyph unicode="Q" horiz-adv-x="1588" d="M1478 745q0 -198 -63.5 -352.5t-178.5 -255.5l206 -265h-262l-123 156q-121 -48 -264 -48q-147 0 -272 52.5t-216.5 149t-143.5 241.5t-52 322t52 322t143.5 241.5t216.5 149t272 52.5t272 -52.5t217 -149t144 -241.5t52 -322zM702 500h244l127 -164q134 140 134 409 q0 249 -113.5 386t-300.5 137q-186 0 -299.5 -137.5t-113.5 -385.5t113.5 -385.5t299.5 -137.5q56 0 110 14z" />
<glyph unicode="R" horiz-adv-x="1332" d="M147 0v1489h558q251 0 388.5 -129t137.5 -347q0 -152 -68.5 -260.5t-199.5 -161.5l322 -591h-301l-292 545h-275v-545h-270zM417 769h248q291 0 291 244q0 251 -292 251h-247v-495z" />
<glyph unicode="S" horiz-adv-x="1329" d="M956 1080q-10 95 -84.5 148t-195.5 53q-124 0 -196.5 -54t-73.5 -140q0 -44 21 -79.5t60.5 -59t79.5 -39t92 -27.5l140 -35q90 -21 163.5 -54t137.5 -83t100 -124.5t36 -167.5q-1 -200 -151 -320.5t-414 -120.5q-262 0 -416 121.5t-162 341.5h266q8 -113 93 -172.5 t217 -59.5t214.5 58.5t83.5 153.5q-1 81 -67.5 127t-200.5 80l-170 44q-397 102 -397 400q0 129 71 229.5t195.5 155t280.5 54.5q236 0 384.5 -120t152.5 -310h-260z" />
<glyph unicode="T" horiz-adv-x="1351" d="M81 1263v226h1189v-226h-461v-1263h-267v1263h-461z" />
<glyph unicode="U" horiz-adv-x="1502" d="M1086 1489h270v-973q0 -241 -166.5 -390t-438.5 -149t-438 149t-166 390v973h270v-950q0 -142 91 -231.5t243 -89.5q151 0 243 89.5t92 231.5v950z" />
<glyph unicode="V" horiz-adv-x="1482" d="M346 1489l388 -1172h15l387 1172h297l-525 -1489h-333l-525 1489h296z" />
<glyph unicode="W" horiz-adv-x="2061" d="M460 0l-420 1489h290l269 -1094h13l287 1094h264l287 -1095h13l269 1095h290l-421 -1489h-266l-298 1045h-12l-298 -1045h-267z" />
<glyph unicode="X" horiz-adv-x="1413" d="M372 1489l328 -545h12l329 545h308l-459 -744l466 -745h-312l-332 542h-12l-331 -542h-312l471 745l-465 744h309z" />
<glyph unicode="Y" horiz-adv-x="1442" d="M45 1489h305l364 -658h15l364 658h305l-542 -933v-556h-269v556z" />
<glyph unicode="Z" horiz-adv-x="1336" d="M119 0v168l764 1095h-768v226h1102v-168l-762 -1095h767v-226h-1103z" />
<glyph unicode="[" horiz-adv-x="805" d="M225 -316v1848h526v-203h-272v-1444h272v-201h-526z" />
<glyph unicode="\" horiz-adv-x="775" d="M513 -224l-480 1783h230l480 -1783h-230z" />
<glyph unicode="]" horiz-adv-x="805" d="M580 1531v-1848h-525v202h272v1444h-272v202h525z" />
<glyph unicode="^" horiz-adv-x="985" d="M72 815l305 637h232l304 -637h-213l-202 447h-11l-200 -447h-215z" />
<glyph unicode="_" horiz-adv-x="958" d="M961 0v-210h-962v210h962z" />
<glyph unicode="`" horiz-adv-x="1018" d="M522 1264l-223 332h258l162 -332h-197z" />
<glyph unicode="a" horiz-adv-x="1176" d="M457 -23q-166 0 -270 88t-104 248q0 73 24 129.5t62 92.5t95.5 61t114 37t128.5 20q13 1 37 4q154 16 192 31q47 19 47 65v5q0 83 -49 127.5t-140 44.5t-149.5 -40t-79.5 -102l-246 35q43 150 168.5 229.5t305.5 79.5q67 0 129 -11.5t122.5 -39.5t104.5 -70.5t71 -110 t27 -152.5v-748h-254v153h-8q-40 -77 -122.5 -126.5t-205.5 -49.5zM525 171q116 0 187.5 67t71.5 163v131q-33 -27 -241 -54q-206 -30 -206 -160q0 -71 51.5 -109t136.5 -38z" />
<glyph unicode="b" horiz-adv-x="1290" d="M147 0v1489h263v-557h11q99 200 319 200q201 0 331 -152.5t130 -422.5q0 -269 -128.5 -423t-331.5 -154q-221 0 -320 196h-15v-176h-259zM405 559q0 -165 69.5 -264t193.5 -99q127 0 196 100.5t69 262.5q0 161 -68.5 259t-196.5 98q-125 0 -194 -96t-69 -261z" />
<glyph unicode="c" horiz-adv-x="1182" d="M623 -22q-247 0 -391.5 159.5t-144.5 416.5q0 258 145.5 418t388.5 160q204 0 335 -110t145 -292h-252q-16 85 -74 137t-150 52q-123 0 -197 -96.5t-74 -263.5q0 -170 73.5 -268t197.5 -98q88 0 147.5 50t76.5 139h252q-15 -181 -143 -292.5t-335 -111.5z" />
<glyph unicode="d" horiz-adv-x="1290" d="M550 -20q-203 0 -332 154t-129 423q0 270 130.5 422.5t331.5 152.5q220 0 319 -200h11v557h264v-1489h-259v176h-16q-99 -196 -320 -196zM623 196q124 0 193.5 99t69.5 264t-69 261t-194 96q-128 0 -196.5 -98t-68.5 -259q0 -162 69 -262.5t196 -100.5z" />
<glyph unicode="e" d="M630 -22q-252 0 -397.5 155t-145.5 419q0 260 145 420t384 160q106 0 196.5 -34t161.5 -101t112 -177.5t41 -252.5v-80h-779q1 -142 78.5 -223t206.5 -81q86 0 148 37t89 107l246 -27q-36 -148 -165 -235t-321 -87zM349 664h525q-1 115 -71.5 189t-182.5 74 q-115 0 -190 -76t-81 -187z" />
<glyph unicode="f" horiz-adv-x="772" d="M701 1117v-204h-232v-913h-263v913h-165v204h165v106q0 162 98 249t251 87q115 0 200 -30l-53 -204q-50 16 -98 16q-71 0 -103 -34t-32 -102v-88h232z" />
<glyph unicode="g" horiz-adv-x="1280" d="M621 -442q-203 0 -329 78.5t-164 203.5l237 57q69 -140 260 -140q119 0 189 57t70 175v212h-13q-93 -185 -321 -185q-98 0 -181 34.5t-146 101t-98.5 172t-35.5 238.5q0 134 36 243t98.5 180t146.5 109t181 38q221 0 320 -200h15v185h259v-1135q0 -207 -144 -315.5 t-380 -108.5zM623 223q125 0 194 90t69 251q0 162 -69 257t-194 95q-127 0 -196 -97t-69 -255t68.5 -249.5t196.5 -91.5z" />
<glyph unicode="h" horiz-adv-x="1255" d="M399 655v-655h-264v1489h258v-562h13q84 205 332 205q177 0 281 -110.5t104 -310.5v-711h-263v671q0 113 -58 175.5t-162 62.5q-108 0 -174.5 -67.5t-66.5 -186.5z" />
<glyph unicode="i" horiz-adv-x="533" d="M135 0v1117h264v-1117h-264zM268 1276q-63 0 -108 41.5t-45 100.5t45 101t108 42t107.5 -42t44.5 -101t-44.5 -100.5t-107.5 -41.5z" />
<glyph unicode="j" horiz-adv-x="533" d="M135 1117h264v-1181q0 -178 -100.5 -266.5t-288.5 -88.5q-16 0 -54 2v214q15 -1 38 -1q74 0 107.5 36t33.5 108v1177zM266 1276q-63 0 -108 41.5t-45 100.5t45 101t108 42t107.5 -42t44.5 -101t-44.5 -100.5t-107.5 -41.5z" />
<glyph unicode="k" horiz-adv-x="1165" d="M135 0v1489h264v-821h18l401 449h308l-433 -482l458 -635h-315l-341 478l-96 -103v-375h-264z" />
<glyph unicode="l" horiz-adv-x="533" d="M399 1489v-1489h-264v1489h264z" />
<glyph unicode="m" horiz-adv-x="1838" d="M135 0v1117h252v-190h13q36 96 116.5 150.5t191.5 54.5q112 0 190.5 -54.5t111.5 -150.5h12q37 94 126 149.5t209 55.5q158 0 253.5 -100t95.5 -282v-750h-264v709q0 99 -53 150t-137 51q-94 0 -148.5 -58.5t-54.5 -154.5v-697h-258v720q0 86 -51.5 138t-135.5 52 q-86 0 -145.5 -65t-59.5 -166v-679h-264z" />
<glyph unicode="n" horiz-adv-x="1248" d="M399 655v-655h-264v1117h252v-190h13q39 96 125 150.5t208 54.5q176 0 280 -111.5t103 -309.5v-711h-264v671q0 112 -57.5 175t-159.5 63q-106 0 -171 -67.5t-65 -186.5z" />
<glyph unicode="o" horiz-adv-x="1245" d="M623 -22q-244 0 -390 158t-146 418q0 261 146 419.5t390 158.5t389.5 -158.5t145.5 -419.5q0 -260 -145.5 -418t-389.5 -158zM624 189q128 0 197.5 103t69.5 263q0 161 -69.5 264.5t-197.5 103.5q-130 0 -200 -103.5t-70 -264.5t70 -263.5t200 -102.5z" />
<glyph unicode="p" horiz-adv-x="1279" d="M135 -419v1536h259v-185h15q99 200 320 200q201 0 331 -152.5t130 -422.5q0 -269 -129 -423t-332 -154q-221 0 -320 196h-10v-595h-264zM393 559q0 -165 69.5 -264t193.5 -99q127 0 196 100.5t69 262.5q0 161 -68.5 259t-196.5 98q-125 0 -194 -96t-69 -261z" />
<glyph unicode="q" horiz-adv-x="1279" d="M881 -419v595h-11q-99 -196 -320 -196q-203 0 -332 154t-129 423q0 270 130.5 422.5t331.5 152.5q220 0 319 -200h16v185h259v-1536h-264zM623 196q124 0 193.5 99t69.5 264t-69 261t-194 96q-128 0 -196.5 -98t-68.5 -259q0 -162 69 -262.5t196 -100.5z" />
<glyph unicode="r" horiz-adv-x="812" d="M135 0v1117h256v-186h11q30 96 104.5 149t171.5 53q52 0 94 -7v-242q-49 15 -122 15q-109 0 -180 -68t-71 -174v-657h-264z" />
<glyph unicode="s" horiz-adv-x="1124" d="M1018 822l-240 -26q-16 60 -68.5 99.5t-137.5 39.5q-83 0 -138 -36t-54 -92q-1 -49 36 -79.5t121 -49.5l191 -41q159 -35 236 -109t78 -193q-1 -159 -134 -258t-343 -99q-204 0 -329 86t-150 241l257 24q35 -152 221 -152q93 0 150.5 38t57.5 96q0 94 -150 127l-191 40 q-316 65 -314 315q-1 154 124 246.5t328 92.5q192 0 306.5 -82.5t142.5 -227.5z" />
<glyph unicode="t" horiz-adv-x="778" d="M693 1117v-204h-220v-577q0 -74 31.5 -101.5t87.5 -27.5q40 0 77 10l44 -206q-74 -24 -154 -26q-155 -5 -253 75t-97 232v621h-158v204h158v268h264v-268h220z" />
<glyph unicode="u" horiz-adv-x="1245" d="M847 470v647h264v-1117h-256v199h-11q-40 -97 -127.5 -155.5t-208.5 -58.5q-168 0 -270.5 111.5t-102.5 309.5v711h264v-670q0 -106 57 -169t153 -63q95 0 166.5 67.5t71.5 187.5z" />
<glyph unicode="v" horiz-adv-x="1179" d="M1133 1117l-398 -1117h-291l-397 1117h280l257 -830h12l257 830h280z" />
<glyph unicode="w" horiz-adv-x="1714" d="M366 0l-316 1117h269l196 -785h10l201 785h265l201 -781h11l193 781h269l-316 -1117h-274l-210 755h-15l-209 -755h-275z" />
<glyph unicode="x" horiz-adv-x="1152" d="M351 1117l225 -412l229 412h279l-337 -558l342 -559h-277l-236 402l-234 -402h-279l340 559l-332 558h280z" />
<glyph unicode="y" horiz-adv-x="1179" d="M299 -419q-105 0 -172 28l61 205q58 -16 102.5 -16.5t79.5 28t59 90.5l23 61l-405 1140h279l257 -844h12l258 844h280l-447 -1252q-101 -284 -387 -284z" />
<glyph unicode="z" horiz-adv-x="1150" d="M121 0v167l576 722v10h-557v218h879v-180l-548 -709v-10h567v-218h-917z" />
<glyph unicode="{" horiz-adv-x="805" d="M751 -316q-92 0 -160 10t-127.5 36.5t-96.5 71.5t-57.5 115.5t-20.5 167.5v185q0 116 -49.5 165.5t-171.5 49.5v244q122 0 171.5 50t49.5 166v185q0 97 20.5 167.5t57.5 115.5t96 72t127.5 37t160.5 10v-203q-123 0 -167 -50.5t-44 -169.5v-238q0 -95 -53 -159t-189 -91 v-28q137 -27 189.5 -90t52.5 -158v-239q0 -119 44 -170t167 -51v-201z" />
<glyph unicode="|" horiz-adv-x="733" d="M489 1969v-2449h-245v2449h245z" />
<glyph unicode="}" horiz-adv-x="805" d="M55 1531q116 0 196 -17t142.5 -60.5t92.5 -123.5t30 -201v-184q0 -116 50 -166t172 -50v-244q-122 0 -172 -49.5t-50 -165.5v-186q0 -97 -20.5 -167.5t-57.5 -115.5t-96 -71.5t-127 -36.5t-160 -10v202q123 0 167 50.5t44 169.5v239q0 46 10.5 82t36.5 69.5t75 58.5 t120 39v28q-71 14 -120 39t-75 58.5t-36.5 69.5t-10.5 82v238q0 119 -44 170t-167 51v202z" />
<glyph unicode="~" horiz-adv-x="1377" d="M161 415q-6 191 79 294t226 103q70 0 131.5 -29.5t142.5 -100.5q50 -44 79 -61t65 -17q57 0 91 43.5t32 127.5h210q5 -191 -80.5 -293t-224.5 -102q-72 0 -134.5 29.5t-141.5 98.5q-54 47 -80.5 63t-62.5 16q-57 0 -90 -42t-32 -130h-210z" />
<glyph unicode="&#xa2;" horiz-adv-x="1182" d="M559 0v171q-219 22 -345.5 178t-126.5 395q0 241 127.5 397.5t344.5 177.5v170h119v-170q182 -16 296 -123.5t127 -275.5h-252q-13 71 -57.5 120t-113.5 64v-716q67 14 112 61.5t59 122.5h252q-13 -168 -126 -277.5t-297 -124.5v-170h-119zM559 391v710 q-95 -25 -150 -117.5t-55 -235.5q0 -145 54.5 -238.5t150.5 -118.5z" />
<glyph unicode="&#xa3;" horiz-adv-x="1347" d="M1191 0h-1050v226h82q34 4 54 38t26 73.5t5 85.5l-5 165h-167v221h159l-8 249q-4 108 30.5 195t98 142.5t148 85t181.5 29.5q218 0 345 -125t107 -309l-252 21q6 93 -50.5 142t-142.5 49q-87 0 -145 -59t-57 -171l9 -249h336v-221h-328l6 -153q6 -132 -60 -209h678v-226z " />
<glyph unicode="&#xa5;" horiz-adv-x="1155" d="M311 1489l267 -623l266 623h283l-346 -730h233v-163h-306v-125h306v-163h-306v-308h-267v308h-320v163h320v125h-320v163h253l-345 730h282z" />
<glyph unicode="&#xa8;" horiz-adv-x="1133" d="M349 1281q-57 0 -99 41t-42 96q0 58 41.5 98t99.5 40q59 0 99.5 -40t40.5 -98q0 -56 -40.5 -96.5t-99.5 -40.5zM785 1281q-57 0 -99 41t-42 96q0 58 41.5 98t99.5 40q59 0 99.5 -40t40.5 -98q0 -56 -40.5 -96.5t-99.5 -40.5z" />
<glyph unicode="&#xa9;" horiz-adv-x="1873" d="M937 -23q-208 0 -385 103t-280 280t-103 385q0 156 61 298.5t164 245t245 163.5t298 61q209 0 385.5 -103t279.5 -279.5t103 -385.5t-102.5 -385.5t-279.5 -279.5t-386 -103zM937 194q150 0 277 74t200 200.5t73 275.5q0 150 -74 277t-200 200.5t-276 73.5 q-112 0 -213.5 -43.5t-175.5 -117.5t-118 -176t-44 -214q0 -149 73.5 -275.5t201 -200.5t276.5 -74zM525 745q0 173 122.5 295t295.5 122q151 0 263.5 -95.5t130.5 -238.5h-202q-13 61 -67.5 100.5t-124.5 39.5q-92 0 -157.5 -65.5t-65.5 -157.5q0 -93 65.5 -158.5 t157.5 -65.5q69 0 119.5 39t63.5 101h203q-18 -143 -127 -238.5t-259 -95.5q-173 0 -295.5 122.5t-122.5 295.5z" />
<glyph unicode="&#xab;" horiz-adv-x="1223" d="M1100 160h-237l-294 436v21l294 436h237l-277 -446zM656 160h-237l-294 436v21l294 436h237l-276 -446z" />
<glyph unicode="&#xad;" horiz-adv-x="954" d="M812 729v-217h-670v217h670z" />
<glyph unicode="&#xae;" horiz-adv-x="1363" d="M682 346q-158 0 -292 78t-212 212t-78 292t78 292t212 212t292 78t292 -78t212 -212t78 -292t-78 -292t-212 -212t-292 -78zM682 495q179 0 306 127t127 306t-127 306t-306 127t-306 -127t-127 -306t127 -306t306 -127zM473 666v537h266q72 0 125.5 -47.5t53.5 -128.5 q0 -101 -86 -154l105 -207h-146l-86 181h-99v-181h-133zM606 943h94q31 0 54 22.5t23 61.5t-22 58.5t-52 19.5h-97v-162z" />
<glyph unicode="&#xb4;" horiz-adv-x="1018" d="M394 1264l163 332h258l-224 -332h-197z" />
<glyph unicode="&#xb8;" horiz-adv-x="693" d="M277 6h143l-12 -62q73 -11 118.5 -55t45.5 -120q1 -104 -93.5 -166.5t-264.5 -62.5l-3 130q182 0 183 92q1 45 -34 67.5t-114 30.5z" />
<glyph unicode="&#xbb;" horiz-adv-x="1227" d="M563 160l276 447l-276 446h237l294 -436v-21l-294 -436h-237zM115 160l276 447l-276 446h237l294 -436v-21l-294 -436h-237z" />
<glyph unicode="&#x2c6;" horiz-adv-x="1074" d="M685 1251l-148 186l-147 -186h-231v10l275 314h206l276 -314v-10h-231z" />
<glyph unicode="&#x2da;" horiz-adv-x="737" d="M369 1239q-106 0 -180 70t-74 171q0 102 74.5 174.5t179.5 72.5q106 0 179 -72.5t73 -174.5q0 -101 -73 -171t-179 -70zM369 1362q52 0 87 35t35 83q0 49 -35 85.5t-87 35.5q-51 0 -86.5 -36.5t-35.5 -84.5t35.5 -83.5t86.5 -34.5z" />
<glyph unicode="&#x2dc;" horiz-adv-x="1024" d="M298 1253l-159 4q0 127 66 201.5t166 74.5q32 0 62.5 -10t48 -19.5t45.5 -28.5q70 -45 111 -45t65.5 31t25.5 80l156 -6q-1 -126 -66.5 -200t-165.5 -75q-36 0 -68.5 10t-48.5 19.5t-44 29.5q-22 16 -33 23t-31.5 14.5t-41.5 7.5q-39 0 -63.5 -31t-24.5 -80z" />
<glyph unicode="&#x400;" horiz-adv-x="1244" d="M147 0v1489h969v-226h-699v-404h648v-226h-648v-407h704v-226h-974zM535 1636l-223 333h258l162 -333h-197z" />
<glyph unicode="&#x401;" horiz-adv-x="1244" d="M147 0v1489h969v-226h-699v-404h648v-226h-648v-407h704v-226h-974zM415 1654q-57 0 -99.5 41t-42.5 96q0 58 42 97.5t100 39.5q59 0 99 -39.5t40 -97.5q0 -56 -40.5 -96.5t-98.5 -40.5zM851 1654q-57 0 -99 41t-42 96q0 58 41.5 97.5t99.5 39.5q59 0 99.5 -39.5 t40.5 -97.5q0 -55 -40.5 -96t-99.5 -41z" />
<glyph unicode="&#x402;" horiz-adv-x="1713" d="M1270 1489v-226h-461v-401q137 33 259 33q166 0 290 -50t195 -153.5t71 -250.5q0 -210 -139 -335.5t-424 -121.5l-1 212q139 0 215 62.5t76 174.5q0 117 -79.5 186.5t-215.5 69.5q-112 0 -247 -29v-660h-267v1263h-461v226h1189z" />
<glyph unicode="&#x403;" horiz-adv-x="1186" d="M1105 1489v-226h-688v-1263h-270v1489h958zM532 1636l163 333h258l-224 -333h-197z" />
<glyph unicode="&#x404;" horiz-adv-x="1405" d="M716 -20q-274 0 -440.5 190t-166.5 503v107q0 329 169 529.5t446 200.5q250 0 407.5 -137t173.5 -374h-269q-7 130 -94.5 207t-217.5 77q-149 0 -244.5 -120.5t-104.5 -319.5h505v-224h-505q8 -187 101 -302t240 -115q132 0 221.5 76t97.5 203h270 q-13 -232 -172.5 -366.5t-416.5 -134.5z" />
<glyph unicode="&#x405;" horiz-adv-x="1329" d="M956 1080q-10 95 -84.5 148t-195.5 53q-124 0 -196.5 -54t-73.5 -140q0 -44 21 -79.5t60.5 -59t79.5 -39t92 -27.5l140 -35q90 -21 163.5 -54t137.5 -83t100 -124.5t36 -167.5q-1 -200 -151 -320.5t-414 -120.5q-262 0 -416 121.5t-162 341.5h266q8 -113 93 -172.5 t217 -59.5t214.5 58.5t83.5 153.5q-1 81 -67.5 127t-200.5 80l-170 44q-397 102 -397 400q0 129 71 229.5t195.5 155t280.5 54.5q236 0 384.5 -120t152.5 -310h-260z" />
<glyph unicode="&#x406;" horiz-adv-x="562" d="M417 1489v-1489h-270v1489h270z" />
<glyph unicode="&#x407;" horiz-adv-x="562" d="M417 1489v-1489h-270v1489h270zM65 1654q-57 0 -99 41t-42 96q0 58 41.5 97.5t99.5 39.5q59 0 99 -39.5t40 -97.5q0 -56 -40.5 -96.5t-98.5 -40.5zM501 1654q-57 0 -99 41t-42 96q0 58 41.5 97.5t99.5 39.5q59 0 99.5 -39.5t40.5 -97.5q0 -55 -40.5 -96t-99.5 -41z" />
<glyph unicode="&#x408;" horiz-adv-x="1148" d="M735 1489h267v-1047q-1 -214 -132.5 -338t-348.5 -124q-204 0 -332.5 108.5t-128.5 307.5h268q1 -90 57 -142.5t147 -52.5q97 0 149.5 62t53.5 179v1047z" />
<glyph unicode="&#x409;" horiz-adv-x="2276" d="M78 0v225l40 1q59 2 98.5 25.5t72 86.5t50 177.5t23.5 292.5l26 681h965v-575h287q255 0 401 -122t146 -328q0 -209 -146.5 -336.5t-400.5 -127.5h-558v1267h-441l-25 -543q-10 -205 -37 -339.5t-82.5 -222.5t-139 -125t-209.5 -37h-70zM1353 695v-474h287 q130 0 205 71.5t75 174.5q0 98 -74.5 163t-205.5 65h-287z" />
<glyph unicode="&#x40a;" horiz-adv-x="2301" d="M147 0v1489h270v-575h690v575h270v-575h288q255 0 401 -122t146 -328q0 -209 -146.5 -336.5t-400.5 -127.5h-558v695h-690v-695h-270zM1377 695v-474h288q130 0 205 71.5t75 174.5q0 98 -74.5 163t-205.5 65h-288z" />
<glyph unicode="&#x40b;" horiz-adv-x="1860" d="M1221 1489v-221h-454v-345q154 38 335 38q267 0 412.5 -115.5t145.5 -359.5v-486h-264v486q0 137 -71.5 195t-222.5 58q-180 0 -335 -36v-703h-266v1268h-420v221h1140z" />
<glyph unicode="&#x40c;" horiz-adv-x="1386" d="M147 0v1489h270v-684h18l581 684h329l-576 -668l582 -821h-325l-444 639l-165 -195v-444h-270zM593 1636l163 333h258l-223 -333h-198z" />
<glyph unicode="&#x40d;" horiz-adv-x="1517" d="M147 1489h268v-1015h13l701 1015h242v-1489h-270v1015h-12l-703 -1015h-239v1489zM663 1636l-223 333h258l162 -333h-197z" />
<glyph unicode="&#x40e;" horiz-adv-x="1342" d="M280 -20v227h85q82 0 125 34t68 103l19 50l-532 1095h282l371 -797l321 797h278l-514 -1214q-24 -54 -45.5 -92t-56 -79t-73.5 -66t-96 -41.5t-126 -16.5h-106zM812 1873h197q0 -128 -92.5 -206.5t-248.5 -78.5q-155 0 -247.5 78.5t-91.5 206.5h195q0 -58 35.5 -96 t108.5 -38t108 38t36 96z" />
<glyph unicode="&#x40f;" horiz-adv-x="1482" d="M147 0v1489h264v-1265h658v1265h267v-1489h-462v-361h-265v361h-462z" />
<glyph unicode="&#x410;" horiz-adv-x="1482" d="M338 0h-288l525 1489h333l525 -1489h-288l-124 367h-560zM534 584h414l-201 600h-12z" />
<glyph unicode="&#x411;" horiz-adv-x="1339" d="M147 0v1489h958v-226h-688v-349h287q255 0 401 -122t146 -328q0 -208 -147 -336t-400 -128h-557zM417 221h287q130 0 205 71.5t75 174.5q0 98 -74.5 163t-205.5 65h-287v-474z" />
<glyph unicode="&#x412;" horiz-adv-x="1346" d="M147 0v1489h570q234 0 358.5 -106.5t124.5 -279.5q0 -129 -72 -209.5t-188 -107.5v-14q128 -6 223 -106t95 -260q0 -182 -130.5 -294t-377.5 -112h-603zM417 225h290q141 0 209 54t68 148q0 102 -73.5 168.5t-196.5 66.5h-297v-437zM417 856h267q107 0 176.5 58t69.5 154 q0 89 -62.5 144t-178.5 55h-272v-411z" />
<glyph unicode="&#x413;" horiz-adv-x="1186" d="M1105 1489v-226h-688v-1263h-270v1489h958z" />
<glyph unicode="&#x414;" horiz-adv-x="1589" d="M50 -359v579h100q85 67 139 213.5t71 426.5l39 629h952v-1269h166v-578h-259v358h-949v-359h-259zM464 220h628v1043h-450l-23 -403q-25 -426 -155 -640z" />
<glyph unicode="&#x415;" horiz-adv-x="1244" d="M147 0v1489h969v-226h-699v-404h648v-226h-648v-407h704v-226h-974z" />
<glyph unicode="&#x416;" horiz-adv-x="2129" d="M1197 1489v-629h172l346 629h329l-439 -706l467 -783h-319l-346 610h-210v-610h-265v610h-206l-352 -610h-317l473 783l-446 706h331l352 -629h165v629h265z" />
<glyph unicode="&#x417;" horiz-adv-x="1334" d="M667 -20q-155 0 -278.5 53.5t-194 150.5t-73.5 221h273q5 -90 81.5 -144.5t190.5 -54.5q120 0 197 62t76 160q1 103 -80 166t-220 63h-131v208h131q116 0 189 59.5t72 156.5q1 94 -62.5 152t-167.5 58q-106 0 -180.5 -56t-77.5 -147h-260q3 122 72 219t186.5 150 t260.5 53q218 0 354.5 -119.5t135.5 -293.5q1 -123 -72.5 -209t-196.5 -113v-11q155 -22 240.5 -115.5t84.5 -234.5q0 -124 -70.5 -223.5t-196 -155t-283.5 -55.5z" />
<glyph unicode="&#x418;" horiz-adv-x="1517" d="M147 1489h268v-1015h13l701 1015h242v-1489h-270v1015h-12l-703 -1015h-239v1489z" />
<glyph unicode="&#x419;" horiz-adv-x="1517" d="M147 1489h268v-1015h13l701 1015h242v-1489h-270v1015h-12l-703 -1015h-239v1489zM903 1873h197q0 -128 -92.5 -206.5t-248.5 -78.5q-155 0 -247.5 78.5t-91.5 206.5h196q0 -58 35 -96t108 -38t108 38t36 96z" />
<glyph unicode="&#x41a;" horiz-adv-x="1407" d="M1039 0l-490 651h-132v-651h-270v1489h270v-612h67l530 612h332l-588 -679l614 -810h-333z" />
<glyph unicode="&#x41b;" horiz-adv-x="1483" d="M50 0v224l42 2q65 3 108 34.5t72 102t43.5 176.5t20.5 269l25 681h976v-1489h-264v1268h-461l-23 -544q-7 -153 -23.5 -264t-49.5 -201.5t-85 -145.5t-128 -84t-180 -29h-73z" />
<glyph unicode="&#x41c;" horiz-adv-x="1856" d="M147 1489h330l442 -1079h18l442 1079h330v-1489h-259v1023h-14l-411 -1019h-194l-411 1021h-14v-1025h-259v1489z" />
<glyph unicode="&#x41d;" horiz-adv-x="1523" d="M147 0v1489h270v-630h690v630h270v-1489h-270v633h-690v-633h-270z" />
<glyph unicode="&#x41e;" horiz-adv-x="1586" d="M1478 745q0 -177 -52 -322t-144 -241.5t-217 -149t-272 -52.5t-272 52.5t-216.5 149t-143.5 241.5t-52 322t52 322t143.5 241.5t216.5 149t272 52.5t272 -52.5t217 -149t144 -241.5t52 -322zM1207 745q0 249 -113.5 386t-300.5 137q-186 0 -299.5 -137.5t-113.5 -385.5 t113.5 -385.5t299.5 -137.5q187 0 300.5 137t113.5 386z" />
<glyph unicode="&#x41f;" horiz-adv-x="1537" d="M1362 1489v-1489h-267v1265h-652v-1265h-268v1489h1187z" />
<glyph unicode="&#x420;" horiz-adv-x="1317" d="M147 0v1489h558q250 0 388 -136.5t138 -356.5q0 -221 -138.5 -357t-390.5 -136h-285v-503h-270zM417 725h248q145 0 218 73t73 198q0 124 -73 196t-219 72h-247v-539z" />
<glyph unicode="&#x421;" horiz-adv-x="1522" d="M1422 987h-272q-23 131 -119.5 206t-234.5 75q-187 0 -301.5 -138t-114.5 -385q0 -250 114.5 -386.5t300.5 -136.5q136 0 233 72t122 201l272 -2q-15 -107 -66.5 -200t-131 -163t-191.5 -110t-242 -40q-197 0 -350.5 90t-242.5 265t-89 410q0 177 52 322t143 241.5 t216 149t271 52.5q252 0 424.5 -139.5t206.5 -383.5z" />
<glyph unicode="&#x422;" horiz-adv-x="1351" d="M81 1263v226h1189v-226h-461v-1263h-267v1263h-461z" />
<glyph unicode="&#x423;" horiz-adv-x="1342" d="M280 -20v227h85q82 0 125 34t68 103l19 50l-532 1095h282l371 -797l321 797h278l-514 -1214q-24 -54 -45.5 -92t-56 -79t-73.5 -66t-96 -41.5t-126 -16.5h-106z" />
<glyph unicode="&#x424;" horiz-adv-x="1719" d="M710 1324h21v192h260v-192h20q264 0 431.5 -166.5t167.5 -436.5q0 -264 -167.5 -428t-431.5 -164h-20v-190h-260v190h-21q-265 0 -433 162.5t-168 428.5q0 270 168.5 437t432.5 167zM710 1095q-161 0 -253.5 -98t-92.5 -277q0 -172 93 -267t253 -95h21v737h-21zM991 1095 v-737h21q160 0 251 95.5t91 267.5q0 179 -90.5 276.5t-251.5 97.5h-21z" />
<glyph unicode="&#x425;" horiz-adv-x="1413" d="M372 1489l328 -545h12l329 545h308l-459 -744l466 -745h-312l-332 542h-12l-331 -542h-312l471 745l-465 744h309z" />
<glyph unicode="&#x426;" horiz-adv-x="1597" d="M1525 225l-20 -577h-261v352h-1097v1489h259v-1265h669v1265h261v-1264h189z" />
<glyph unicode="&#x427;" horiz-adv-x="1531" d="M191 1489h264v-485q0 -137 71.5 -195t223.5 -58q180 0 335 36v702h266v-1489h-266v567q-158 -39 -335 -39q-267 0 -413 116t-146 360v485z" />
<glyph unicode="&#x428;" horiz-adv-x="2081" d="M186 1489h266v-1265h459v1265h264v-1265h456v1265h264v-1489h-1709v1489z" />
<glyph unicode="&#x429;" horiz-adv-x="2123" d="M2052 216l-21 -567h-249v351h-1596v1489h266v-1265h459v1265h264v-1265h456v1265h264v-1273h157z" />
<glyph unicode="&#x42a;" horiz-adv-x="1677" d="M81 1273v216h672v-575h288q255 0 401 -122t146 -328q0 -209 -146.5 -336.5t-400.5 -127.5h-558v1273h-402zM753 695v-474h288q130 0 205 71.5t75 174.5q0 98 -74.5 163t-205.5 65h-288z" />
<glyph unicode="&#x42b;" horiz-adv-x="1800" d="M420 914h288q255 0 401 -122t146 -328q0 -209 -146.5 -336.5t-400.5 -127.5h-558v1489h270v-575zM1654 1489v-1489h-270v1489h270zM420 695v-474h288q130 0 205 71.5t75 174.5q0 98 -74.5 163t-205.5 65h-288z" />
<glyph unicode="&#x42c;" horiz-adv-x="1370" d="M420 914h288q255 0 401 -122t146 -328q0 -209 -146.5 -336.5t-400.5 -127.5h-558v1489h270v-575zM420 695v-474h288q130 0 205 71.5t75 174.5q0 98 -74.5 163t-205.5 65h-288z" />
<glyph unicode="&#x42d;" horiz-adv-x="1413" d="M111 481h271q13 -141 90 -211t228 -70q160 0 242 110t92 307h-509v222h511q-5 213 -93 329.5t-250 116.5q-155 0 -227 -72t-86 -214h-271q11 111 52.5 203t112 161.5t178 108t241.5 38.5q280 0 446 -189.5t166 -508.5v-139q0 -319 -163 -506t-442 -187q-264 0 -417 137 t-172 364z" />
<glyph unicode="&#x42e;" horiz-adv-x="2133" d="M417 1489v-658h241q16 210 109 365t240.5 234.5t331.5 79.5q147 0 272 -52.5t216.5 -149t143.5 -241.5t52 -322t-52 -322t-143.5 -241.5t-216.5 -149t-272 -52.5q-270 0 -455.5 169.5t-221.5 465.5h-245v-615h-270v1489h270zM1752 745q0 249 -113 386t-300 137 q-186 0 -299.5 -137.5t-113.5 -385.5t113.5 -385.5t299.5 -137.5q187 0 300 137t113 386z" />
<glyph unicode="&#x42f;" horiz-adv-x="1392" d="M1247 0h-271v545h-275l-292 -545h-301l322 591q-131 53 -199.5 161.5t-68.5 260.5q0 218 137 347t388 129h560v-1489zM976 769v495h-247q-291 0 -291 -251q0 -244 289 -244h249z" />
<glyph unicode="&#x430;" horiz-adv-x="1176" d="M457 -23q-166 0 -270 88t-104 248q0 73 24 129.5t62 92.5t95.5 61t114 37t128.5 20q13 1 37 4q154 16 192 31q47 19 47 65v5q0 83 -49 127.5t-140 44.5t-149.5 -40t-79.5 -102l-246 35q43 150 168.5 229.5t305.5 79.5q67 0 129 -11.5t122.5 -39.5t104.5 -70.5t71 -110 t27 -152.5v-748h-254v153h-8q-40 -77 -122.5 -126.5t-205.5 -49.5zM525 171q116 0 187.5 67t71.5 163v131q-33 -27 -241 -54q-206 -30 -206 -160q0 -71 51.5 -109t136.5 -38z" />
<glyph unicode="&#x431;" horiz-adv-x="1240" d="M1031 1530l91 -170q-67 -58 -157.5 -73.5t-285.5 -19.5q-185 -4 -273 -101t-108 -309h13q52 103 146 156.5t222 53.5q212 0 342 -140t130 -387q0 -259 -143 -410.5t-387 -151.5q-248 0 -390 161.5t-142 463.5v100q0 778 583 786q37 1 104 1q76 0 109.5 1t77 10.5 t68.5 28.5zM623 189q121 0 191 92t70 251q0 155 -70 241.5t-193 86.5t-193.5 -86.5t-71.5 -241.5q0 -158 71.5 -250.5t195.5 -92.5z" />
<glyph unicode="&#x432;" horiz-adv-x="1170" d="M135 0v1117h469q199 0 314 -80t115 -220q0 -93 -64 -152.5t-178 -80.5q132 -11 214.5 -88t82.5 -193q0 -140 -108.5 -221.5t-303.5 -81.5h-541zM382 207h294q73 0 114.5 34.5t41.5 94.5q0 69 -41.5 108.5t-114.5 39.5h-294v-277zM382 655h227q80 0 126 34t46 94 q0 57 -47.5 90t-129.5 33h-222v-251z" />
<glyph unicode="&#x433;" horiz-adv-x="949" d="M874 1117v-216h-481v-901h-258v1117h739z" />
<glyph unicode="&#x434;" horiz-adv-x="1341" d="M36 -324v541h89q66 50 95.5 171.5t47.5 337.5l32 391h808v-900h173v-541h-255v324h-731v-324h-259zM396 217h460v688h-327l-18 -179q-16 -197 -40.5 -316.5t-74.5 -192.5z" />
<glyph unicode="&#x435;" d="M630 -22q-252 0 -397.5 155t-145.5 419q0 260 145 420t384 160q106 0 196.5 -34t161.5 -101t112 -177.5t41 -252.5v-80h-779q1 -142 78.5 -223t206.5 -81q86 0 148 37t89 107l246 -27q-36 -148 -165 -235t-321 -87zM349 664h525q-1 115 -71.5 189t-182.5 74 q-115 0 -190 -76t-81 -187z" />
<glyph unicode="&#x436;" horiz-adv-x="1762" d="M63 0l412 577l-409 540h304l318 -450h63v450h263v-450h61l318 450h304l-407 -540l410 -577h-310l-318 451h-58v-451h-263v451h-59l-319 -451h-310z" />
<glyph unicode="&#x437;" horiz-adv-x="1056" d="M73 306h262q4 -62 56 -96.5t136 -34.5q89 0 145.5 39t56.5 113q0 68 -50 110t-132 42h-171v186h171q79 0 123 37.5t44 96.5q0 63 -45 100.5t-123 37.5q-79 0 -131 -35.5t-54 -91.5h-259q3 144 125 233t307 89q195 0 310 -86t115 -228q0 -89 -55.5 -149t-154.5 -86v-11 q101 -6 168 -78.5t67 -183.5q0 -152 -127 -242t-329 -90q-198 0 -324 88t-131 240z" />
<glyph unicode="&#x438;" horiz-adv-x="1241" d="M389 356l447 761h271v-1117h-255v761l-445 -761h-272v1117h254v-761z" />
<glyph unicode="&#x439;" horiz-adv-x="1241" d="M389 356l447 761h271v-1117h-255v761l-445 -761h-272v1117h254v-761zM764 1501h197q0 -128 -92.5 -206.5t-248.5 -78.5q-155 0 -247.5 78.5t-91.5 206.5h196q0 -58 35 -96t108 -38t108 38t36 96z" />
<glyph unicode="&#x43a;" horiz-adv-x="1165" d="M135 0v1117h264v-451h96l336 451h317l-414 -548l418 -569h-319l-306 421h-128v-421h-264z" />
<glyph unicode="&#x43b;" horiz-adv-x="1228" d="M58 0l-1 217h38q59 0 93 37t52 123.5t24 245.5l20 494h814v-1117h-254v901h-321l-18 -360q-13 -281 -99.5 -411t-265.5 -130h-82z" />
<glyph unicode="&#x43c;" horiz-adv-x="1560" d="M778 306l332 811h320v-1117h-252v761l-307 -761h-184l-298 753v-753h-254v1117h320z" />
<glyph unicode="&#x43d;" horiz-adv-x="1205" d="M389 1117v-449h433v449h253v-1117h-253v452h-433v-452h-254v1117h254z" />
<glyph unicode="&#x43e;" horiz-adv-x="1245" d="M623 -22q-244 0 -390 158t-146 418q0 261 146 419.5t390 158.5t389.5 -158.5t145.5 -419.5q0 -260 -145.5 -418t-389.5 -158zM624 189q128 0 197.5 103t69.5 263q0 161 -69.5 264.5t-197.5 103.5q-130 0 -200 -103.5t-70 -264.5t70 -263.5t200 -102.5z" />
<glyph unicode="&#x43f;" d="M135 0v1117h944v-1117h-254v901h-438v-901h-252z" />
<glyph unicode="&#x440;" horiz-adv-x="1279" d="M135 -419v1536h259v-185h15q99 200 320 200q201 0 331 -152.5t130 -422.5q0 -269 -129 -423t-332 -154q-221 0 -320 196h-10v-595h-264zM393 559q0 -165 69.5 -264t193.5 -99q127 0 196 100.5t69 262.5q0 161 -68.5 259t-196.5 98q-125 0 -194 -96t-69 -261z" />
<glyph unicode="&#x441;" horiz-adv-x="1182" d="M623 -22q-247 0 -391.5 159.5t-144.5 416.5q0 258 145.5 418t388.5 160q204 0 335 -110t145 -292h-252q-16 85 -74 137t-150 52q-123 0 -197 -96.5t-74 -263.5q0 -170 73.5 -268t197.5 -98q88 0 147.5 50t76.5 139h252q-15 -181 -143 -292.5t-335 -111.5z" />
<glyph unicode="&#x442;" horiz-adv-x="1126" d="M74 901v216h978v-216h-362v-901h-254v901h-362z" />
<glyph unicode="&#x443;" horiz-adv-x="1179" d="M299 -419q-105 0 -172 28l61 205q58 -16 102.5 -16.5t79.5 28t59 90.5l23 61l-405 1140h279l257 -844h12l258 844h280l-447 -1252q-101 -284 -387 -284z" />
<glyph unicode="&#x444;" horiz-adv-x="1548" d="M642 -380v358q-247 0 -401 159.5t-154 416.5q0 258 154 418t401 160v357h264v-357q247 0 401 -160t154 -418q0 -257 -154 -416.5t-401 -159.5v-358h-264zM642 191v728q-135 0 -210.5 -104t-75.5 -261q0 -156 76 -259.5t210 -103.5zM906 191q91 0 156.5 50t97 130.5 t31.5 182.5q0 157 -75 261t-210 104v-728z" />
<glyph unicode="&#x445;" horiz-adv-x="1152" d="M351 1117l225 -412l229 412h279l-337 -558l342 -559h-277l-236 402l-234 -402h-279l340 559l-332 558h280z" />
<glyph unicode="&#x446;" horiz-adv-x="1330" d="M1079 1117v-921h170v-555h-257v359h-857v1117h254v-901h438v901h252z" />
<glyph unicode="&#x447;" horiz-adv-x="1198" d="M1068 1117v-1117h-253v354q-97 -23 -196 -23q-230 0 -357 103.5t-127 311.5v373h252v-373q0 -106 56.5 -152.5t175.5 -46.5q96 0 196 25v545h253z" />
<glyph unicode="&#x448;" horiz-adv-x="1729" d="M135 1117h254v-900h351v900h254v-900h351v900h254v-1117h-1464v1117z" />
<glyph unicode="&#x449;" horiz-adv-x="1885" d="M1813 216l-22 -536h-248v320h-1408v1117h254v-900h351v900h254v-900h351v900h254v-901h214z" />
<glyph unicode="&#x44a;" horiz-adv-x="1409" d="M617 753h254q210 0 329 -102.5t120 -273.5q-1 -169 -120.5 -273t-328.5 -104h-507v900h-296v217h549v-364zM617 537v-321h254q86 0 141.5 44t55.5 113q0 72 -55.5 118t-141.5 46h-254z" />
<glyph unicode="&#x44b;" horiz-adv-x="1629" d="M389 753h254q210 0 329 -102.5t120 -273.5q-1 -169 -120.5 -273t-328.5 -104h-508v1117h254v-364zM1231 0v1117h263v-1117h-263zM389 537v-321h254q86 0 141 44t55 113q0 72 -55 118t-141 46h-254z" />
<glyph unicode="&#x44c;" horiz-adv-x="1181" d="M389 753h254q210 0 329 -102.5t120 -273.5q-1 -169 -120.5 -273t-328.5 -104h-508v1117h254v-364zM389 537v-321h254q86 0 141 44t55 113q0 72 -55 118t-141 46h-254z" />
<glyph unicode="&#x44d;" horiz-adv-x="1124" d="M534 915q-84 -1 -144.5 -52t-60.5 -127h-242q0 110 60.5 202t163 144t223.5 52q158 0 274 -76.5t172.5 -202.5t56.5 -283v-31q0 -158 -56.5 -283.5t-172 -201.5t-274.5 -76q-198 0 -322.5 118t-124.5 309h242q0 -85 58.5 -145.5t146.5 -61.5q73 0 127.5 41t81.5 100 t36 132h-339v174h338q-15 116 -76 191.5t-168 76.5z" />
<glyph unicode="&#x44e;" horiz-adv-x="1688" d="M332 1117v-457h210q28 215 167 343.5t354 128.5q240 0 383 -159t144 -417q-1 -259 -144 -418.5t-383 -159.5q-212 0 -350.5 126.5t-169.5 338.5h-211v-443h-264v1117h264zM1063 196q70 0 123 27.5t85 77t48 113.5t16 142q0 161 -68 260.5t-204 99.5q-93 0 -156 -48.5 t-91 -127.5t-28 -184t28 -184t91 -127.5t156 -48.5z" />
<glyph unicode="&#x44f;" horiz-adv-x="1172" d="M796 0v420h-234l-229 -420h-259l250 460q-101 42 -155.5 119.5t-53.5 182.5q-1 162 118.5 258.5t323.5 96.5h485v-1117h-246zM796 612v291h-239q-89 0 -139 -41t-49 -106q-1 -65 46.5 -104.5t132.5 -39.5h248z" />
<glyph unicode="&#x450;" d="M630 -22q-252 0 -397.5 155t-145.5 419q0 260 145 420t384 160q106 0 196.5 -34t161.5 -101t112 -177.5t41 -252.5v-80h-779q1 -142 78.5 -223t206.5 -81q86 0 148 37t89 107l246 -27q-36 -148 -165 -235t-321 -87zM349 664h525q-1 115 -71.5 189t-182.5 74 q-115 0 -190 -76t-81 -187zM512 1264l-223 332h258l162 -332h-197z" />
<glyph unicode="&#x451;" d="M630 -22q-252 0 -397.5 155t-145.5 419q0 260 145 420t384 160q106 0 196.5 -34t161.5 -101t112 -177.5t41 -252.5v-80h-779q1 -142 78.5 -223t206.5 -81q86 0 148 37t89 107l246 -27q-36 -148 -165 -235t-321 -87zM349 664h525q-1 115 -71.5 189t-182.5 74 q-115 0 -190 -76t-81 -187zM391 1281q-57 0 -99 41t-42 96q0 58 41.5 98t99.5 40q59 0 99.5 -40t40.5 -98q0 -56 -40.5 -96.5t-99.5 -40.5zM828 1281q-57 0 -99 41t-42 96q0 58 41.5 98t99.5 40q59 0 99 -39.5t40 -98.5q0 -56 -40.5 -96.5t-98.5 -40.5z" />
<glyph unicode="&#x452;" horiz-adv-x="1258" d="M399 655v-655h-264v1211h-219v166h219v112h258v-112h219v-166h-219v-284h13q84 205 332 205q177 0 281 -110.5t104 -310.5v-797q0 -90 -27 -156t-76.5 -103.5t-111.5 -55.5t-138 -18q-89 0 -138 10v206q44 -6 69 -6q159 0 159 123v757q0 113 -58 175.5t-162 62.5 q-108 0 -174.5 -67.5t-66.5 -186.5z" />
<glyph unicode="&#x453;" horiz-adv-x="949" d="M874 1117v-216h-481v-901h-258v1117h739zM402 1264l163 332h258l-224 -332h-197z" />
<glyph unicode="&#x454;" horiz-adv-x="1160" d="M657 637v-174h-340q19 -125 87 -196t179 -71q89 0 147 46t80 125l250 -32q-32 -161 -160 -259t-317 -98q-241 0 -383.5 161t-142.5 420q0 255 143 414t383 159q190 0 320 -100t160 -267l-249 -33q-22 84 -79 134t-152 50q-114 0 -183 -74.5t-85 -204.5h342z" />
<glyph unicode="&#x455;" horiz-adv-x="1124" d="M1018 822l-240 -26q-16 60 -68.5 99.5t-137.5 39.5q-83 0 -138 -36t-54 -92q-1 -49 36 -79.5t121 -49.5l191 -41q159 -35 236 -109t78 -193q-1 -159 -134 -258t-343 -99q-204 0 -329 86t-150 241l257 24q35 -152 221 -152q93 0 150.5 38t57.5 96q0 94 -150 127l-191 40 q-316 65 -314 315q-1 154 124 246.5t328 92.5q192 0 306.5 -82.5t142.5 -227.5z" />
<glyph unicode="&#x456;" horiz-adv-x="533" d="M135 0v1117h264v-1117h-264zM268 1276q-63 0 -108 41.5t-45 100.5t45 101t108 42t107.5 -42t44.5 -101t-44.5 -100.5t-107.5 -41.5z" />
<glyph unicode="&#x457;" horiz-adv-x="533" d="M135 0v1117h264v-1117h-264zM50 1281q-57 0 -99 41t-42 96q0 58 41.5 98t99.5 40q59 0 99.5 -40t40.5 -98q0 -56 -41 -96.5t-99 -40.5zM487 1281q-57 0 -99.5 41t-42.5 96q0 58 42 98t100 40q59 0 99 -39.5t40 -98.5q0 -56 -40.5 -96.5t-98.5 -40.5z" />
<glyph unicode="&#x458;" horiz-adv-x="533" d="M135 1117h264v-1181q0 -178 -100.5 -266.5t-288.5 -88.5q-16 0 -54 2v214q15 -1 38 -1q74 0 107.5 36t33.5 108v1177zM266 1276q-63 0 -108 41.5t-45 100.5t45 101t108 42t107.5 -42t44.5 -101t-44.5 -100.5t-107.5 -41.5z" />
<glyph unicode="&#x459;" horiz-adv-x="1930" d="M99 0l-2 217h39q59 0 93 37t52 123.5t24 245.5l19 494h814v-364h254q210 0 329 -102.5t120 -273.5q-1 -169 -120.5 -273t-328.5 -104h-508v901h-318l-20 -360q-15 -282 -101.5 -411.5t-264.5 -129.5h-81zM1138 537v-321h254q86 0 141 44t55 113q0 72 -55 118t-141 46 h-254z" />
<glyph unicode="&#x45a;" horiz-adv-x="1868" d="M135 0v1117h254v-422h433v422h254v-381h254q212 0 330 -95t119 -264q-1 -169 -120.5 -273t-328.5 -104h-508v479h-433v-479h-254zM1076 520v-304h254q86 0 141 44t56 113q-1 71 -54.5 109t-142.5 38h-254z" />
<glyph unicode="&#x45b;" horiz-adv-x="1255" d="M399 655v-655h-264v1211h-219v166h219v112h258v-112h219v-166h-219v-284h13q84 205 332 205q177 0 281 -110.5t104 -310.5v-711h-263v671q0 113 -58 175.5t-162 62.5q-108 0 -174.5 -67.5t-66.5 -186.5z" />
<glyph unicode="&#x45c;" horiz-adv-x="1165" d="M135 0v1117h264v-451h96l336 451h317l-414 -548l418 -569h-319l-306 421h-128v-421h-264zM481 1264l163 332h258l-223 -332h-198z" />
<glyph unicode="&#x45d;" horiz-adv-x="1241" d="M389 356l447 761h271v-1117h-255v761l-445 -761h-272v1117h254v-761zM524 1264l-224 332h259l162 -332h-197z" />
<glyph unicode="&#x45e;" horiz-adv-x="1179" d="M299 -419q-105 0 -172 28l61 205q58 -16 102.5 -16.5t79.5 28t59 90.5l23 61l-405 1140h279l257 -844h12l258 844h280l-447 -1252q-101 -284 -387 -284zM732 1501h197q0 -128 -92.5 -206.5t-248.5 -78.5q-155 0 -247.5 78.5t-91.5 206.5h196q0 -58 35 -96t108 -38t108 38 t36 96z" />
<glyph unicode="&#x45f;" d="M1079 1117v-1117h-344v-359h-257v359h-343v1117h254v-901h438v901h252z" />
<glyph unicode="&#x460;" horiz-adv-x="1946" d="M147 449v1040h270v-1040q0 -119 56.5 -182t152.5 -63q101 0 157 62.5t56 182.5v1040h268v-1040q0 -120 54 -182.5t152 -62.5q100 0 158.5 63t58.5 182v1040h270v-1040q0 -223 -136 -346t-351 -123q-223 0 -339 152q-118 -152 -348 -152q-140 0 -247 52t-169.5 159.5 t-62.5 257.5z" />
<glyph unicode="&#x461;" horiz-adv-x="1745" d="M135 423v694h254v-694q0 -108 47 -167.5t124 -59.5q89 0 140.5 58t51.5 169v694h253v-694q0 -112 46.5 -169.5t131.5 -57.5q81 0 129.5 58.5t48.5 168.5v694h254v-694q0 -213 -118.5 -328t-313.5 -115q-206 0 -306 145q-106 -145 -317 -145q-191 0 -308 115t-117 328z " />
<glyph unicode="&#x462;" horiz-adv-x="1370" d="M-38 1097v166h188v226h270v-226h239v-166h-239v-183h288q255 0 401 -122t146 -328q0 -209 -146.5 -336.5t-400.5 -127.5h-558v1097h-188zM420 695v-474h288q130 0 205 71.5t75 174.5q0 98 -74.5 163t-205.5 65h-288z" />
<glyph unicode="&#x463;" horiz-adv-x="1260" d="M762 1265v-177h-294v-335h254q210 0 329 -102.5t120 -273.5q-1 -169 -120.5 -273t-328.5 -104h-508v1088h-173v177h173v374h254v-374h294zM468 537v-321h254q86 0 141 44t56 113q-1 73 -56 118.5t-141 45.5h-254z" />
<glyph unicode="&#x464;" horiz-adv-x="2026" d="M1389 855v-216h-481q23 -205 129.5 -310.5t267.5 -105.5q131 0 227 68.5t128 197.5l266 -27q-51 -224 -219.5 -353t-401.5 -129q-273 0 -455 176t-211 483h-222v-639h-270v1489h270v-634h222q30 304 212.5 479.5t453.5 175.5q232 0 401 -129t221 -358l-263 -27 q-33 130 -130 200.5t-229 70.5q-160 0 -266.5 -104.5t-130.5 -307.5h481z" />
<glyph unicode="&#x465;" horiz-adv-x="1696" d="M1180 631v-179h-364q20 -120 88 -188t177 -68q88 0 146.5 45.5t80.5 125.5l249 -32q-32 -161 -160 -259t-316 -98q-215 0 -353.5 129.5t-167.5 344.5h-179v-452h-263v1117h263v-486h175q21 226 161.5 363.5t362.5 137.5q189 0 319 -100t160 -267l-248 -33 q-22 85 -79 134.5t-151 49.5q-115 0 -185 -76t-85 -209h369z" />
<glyph unicode="&#x466;" horiz-adv-x="1445" d="M1095 0l-139 422h-119v-422h-241v422h-105l-140 -422h-294l526 1489h283l522 -1489h-293zM890 623l-166 505l-167 -505h333z" />
<glyph unicode="&#x467;" horiz-adv-x="1258" d="M914 0l-102 273h-88v-273h-196v273h-81l-102 -273h-276l424 1102h268l429 -1102h-276zM601 688l-87 -233h229l-87 233l-28 119z" />
<glyph unicode="&#x468;" horiz-adv-x="2024" d="M388 1489v-866h413l306 866h282l522 -1489h-292l-139 422h-120v-422h-241v422h-105l-140 -422h-294l150 423h-342v-423h-270v1489h270zM1080 623h334l-167 506z" />
<glyph unicode="&#x469;" horiz-adv-x="1695" d="M1385 0l-100 273h-104v-273h-180v273h-92l-99 -273h-273l104 275h-250v-275h-264v1117h264v-662h320l250 662h270l427 -1117h-273zM975 455h243l-91 248l-30 128l-32 -128z" />
<glyph unicode="&#x46a;" horiz-adv-x="1831" d="M409 0h-280v345q0 238 133.5 348.5t404.5 110.5l-402 685h1333l-402 -685q118 -3 207.5 -28t158.5 -78t105 -141.5t36 -211.5v-345h-282v345q-1 129 -60.5 180.5t-195.5 51.5h-99v-577h-278v577h-120q-132 0 -196 -49.5t-63 -182.5v-345zM932 838l229 422h-461z" />
<glyph unicode="&#x46b;" horiz-adv-x="1534" d="M394 0h-272v176q-1 211 102.5 314t302.5 119l-302 508h1100l-302 -509q190 -18 289.5 -122t99.5 -310v-176h-270v176q0 128 -48.5 178t-160.5 50h-25v-404h-269v404h-35q-110 0 -160.5 -49t-49.5 -179v-176zM777 625l155 309h-309z" />
<glyph unicode="&#x46c;" horiz-adv-x="2482" d="M423 1489v-685h848l-401 685h1332l-401 -685q118 -3 207.5 -28t158 -78t104.5 -141.5t36 -211.5v-345h-282v345q0 129 -59.5 180.5t-196.5 51.5h-98v-577h-279v577h-119q-132 0 -195.5 -49.5t-63.5 -182.5v-345h-279v345q0 143 48 240h-360v-585h-270v1489h270zM1536 839 l230 421h-461z" />
<glyph unicode="&#x46d;" horiz-adv-x="2102" d="M387 1117v-505h676l-302 505h1100l-302 -508q190 -18 290 -122.5t100 -310.5v-176h-270v176q0 128 -49 178t-160 50h-26v-404h-269v404h-34q-110 0 -160.5 -49t-50.5 -179v-176h-271v176q0 142 47 236h-319v-412h-263v1117h263zM1313 625l156 309h-310z" />
<glyph unicode="&#x46e;" horiz-adv-x="1149" d="M209 1489h278q245 0 381.5 -98t136.5 -280q1 -124 -62 -214t-181 -138q138 -42 210 -131.5t73 -223.5q-1 -196 -139.5 -310t-366.5 -114h-58q-62 0 -92 -27t-30 -73q0 -99 150 -164l-84 -164q-143 37 -229 130t-86 234t94.5 213t263.5 72h58q116 0 182.5 59.5t66.5 164.5 q0 110 -75.5 164.5t-218.5 54.5h-146v223h151q126 0 188 56.5t61 151.5q0 193 -248 193h-278v221zM479 1913l163 -152l164 152h215v-10l-299 -280h-159l-301 280v10h217z" />
<glyph unicode="&#x46f;" horiz-adv-x="1048" d="M116 1117h277q234 0 362 -76t127 -216q-2 -171 -182 -251q220 -63 221 -253q1 -150 -125 -245.5t-339 -95.5h-51q-66 0 -101 -25t-34 -74q-2 -99 139 -165l-83 -152q-136 48 -214.5 141.5t-80.5 208.5q-1 128 86 196.5t252 68.5h54q109 0 167.5 38.5t58.5 113.5 q-1 148 -251 148h-157v177h162q98 0 152.5 37t53.5 103q-1 63 -54 92.5t-163 29.5h-277v199zM351 1542l162 -151l166 151h215v-11l-301 -279h-159l-301 279v11h218z" />
<glyph unicode="&#x470;" horiz-adv-x="1660" d="M1247 1489h267v-511q0 -260 -147.5 -414t-397.5 -178v-386h-266v385q-255 21 -405.5 175.5t-150.5 417.5v511h264v-511q0 -160 76 -254t216 -115v880h266v-880q278 41 278 369v511z" />
<glyph unicode="&#x471;" horiz-adv-x="1607" d="M135 1117h254v-528q0 -173 82.5 -266t225.5 -118v912h253v-909q109 21 181 78.5t102.5 133.5t30.5 171q-2 121 -34 262.5t-82 263.5h242q55 -95 91 -236t36 -290q0 -91 -18 -171t-60.5 -155t-106.5 -131.5t-161.5 -95.5t-220.5 -52v-463h-253v462q-268 28 -415 178 t-147 429v525z" />
<glyph unicode="&#x472;" horiz-adv-x="1586" d="M1478 745q0 -177 -52 -322t-144 -241.5t-217 -149t-272 -52.5t-272 52.5t-216.5 149t-143.5 241.5t-52 322t52 322t143.5 241.5t216.5 149t272 52.5t272 -52.5t217 -149t144 -241.5t52 -322zM793 222q168 0 277.5 111.5t130.5 316.5h-816q21 -205 130.5 -316.5 t277.5 -111.5zM1201 839q-21 206 -131 317.5t-277 111.5t-277 -111.5t-131 -317.5h816z" />
<glyph unicode="&#x473;" horiz-adv-x="1245" d="M623 -22q-244 0 -390 158t-146 418q0 261 146 419.5t390 158.5t389.5 -158.5t145.5 -419.5q0 -260 -145.5 -418t-389.5 -158zM624 189q111 0 178.5 78t83.5 206h-527q16 -129 84 -206.5t181 -77.5zM360 644h525q-18 126 -85 202.5t-176 76.5q-111 0 -178.5 -76.5 t-85.5 -202.5z" />
<glyph unicode="&#x474;" horiz-adv-x="1519" d="M1033 1171q56 176 140.5 257.5t225.5 81.5h69v-240h-31q-50 0 -75 -29.5t-51 -100.5l-403 -1140h-333l-525 1489h296l388 -1172h15z" />
<glyph unicode="&#x475;" horiz-adv-x="1257" d="M47 1117h280l257 -830h12l178 564q43 147 128 214t196 67q63 0 113 -16l-20 -216q-33 10 -59 10q-43 0 -67.5 -29.5t-49.5 -100.5l-280 -780h-291z" />
<glyph unicode="&#x476;" horiz-adv-x="1519" d="M1033 1171q56 176 140.5 257.5t225.5 81.5h69v-240h-31q-50 0 -75 -29.5t-51 -100.5l-403 -1140h-333l-525 1489h296l388 -1172h15zM497 1636l-232 333h267l162 -333h-197zM840 1636l-163 333h260l96 -333h-193z" />
<glyph unicode="&#x477;" horiz-adv-x="1257" d="M47 1117h280l257 -830h12l178 564q43 147 128 214t196 67q63 0 113 -16l-20 -216q-33 10 -59 10q-43 0 -67.5 -29.5t-49.5 -100.5l-280 -780h-291zM367 1264l-232 332h266l163 -332h-197zM710 1264l-163 332h260l96 -332h-193z" />
<glyph unicode="&#x478;" horiz-adv-x="2767" d="M1478 745q0 -177 -52 -322t-144 -241.5t-217 -149t-272 -52.5t-272 52.5t-216.5 149t-143.5 241.5t-52 322t52 322t143.5 241.5t216.5 149t272 52.5t272 -52.5t217 -149t144 -241.5t52 -322zM1207 745q0 249 -113.5 386t-300.5 137q-186 0 -299.5 -137.5t-113.5 -385.5 t113.5 -385.5t299.5 -137.5q187 0 300.5 137t113.5 386zM1886 -419q-105 0 -172 28l61 205q58 -16 102.5 -16.5t79.5 28t59 90.5l23 61l-406 1140h280l257 -844h12l258 844h280l-447 -1252q-101 -284 -387 -284z" />
<glyph unicode="&#x479;" horiz-adv-x="2386" d="M623 -22q-244 0 -390 158t-146 418q0 261 146 419.5t390 158.5t389.5 -158.5t145.5 -419.5q0 -260 -145.5 -418t-389.5 -158zM1505 -419q-104 0 -171 28l61 205q58 -16 102.5 -16.5t79.5 28t59 90.5l22 61l-405 1140h279l258 -844h11l259 844h280l-448 -1252 q-101 -284 -387 -284zM624 189q128 0 197.5 103t69.5 263q0 161 -69.5 264.5t-197.5 103.5q-130 0 -200 -103.5t-70 -264.5t70 -263.5t200 -102.5z" />
<glyph unicode="&#x47a;" horiz-adv-x="1557" d="M872 1657v-153q257 -32 416 -234.5t159 -526.5q0 -323 -158.5 -524.5t-416.5 -233.5v-153h-185v153q-127 16 -232.5 75t-182.5 154t-120 231t-43 298q0 325 159.5 527t418.5 234v153h185zM872 385v-153q141 31 223.5 159.5t83.5 351.5q-1 222 -83.5 352.5t-223.5 161.5 v-153h-185v153q-142 -32 -225.5 -162t-83.5 -352t83.5 -351t225.5 -160v153h185z" />
<glyph unicode="&#x47b;" horiz-adv-x="1266" d="M691 1208v-81q207 -26 328 -181t120 -390q1 -235 -120 -390.5t-328 -182.5v-104h-178v107q-198 33 -313 187t-115 383t115 382.5t313 185.5v84h178zM691 321v-114q97 27 145.5 120.5t48.5 228.5t-48.5 228.5t-145.5 120.5v-129h-178v123q-87 -33 -130 -124t-44 -219 q1 -129 44 -219.5t130 -123.5v108h178z" />
<glyph unicode="&#x47c;" horiz-adv-x="2022" d="M663 1457v-226q-92 0 -145.5 -65t-53.5 -194v-507q0 -131 53.5 -196t145.5 -65q103 0 158.5 62t55.5 183v367h269v-367q0 -121 55.5 -183t158.5 -62q93 0 147 65.5t54 195.5v507q0 129 -54 194t-147 65v226q214 0 347 -126.5t133 -358.5v-507q0 -233 -132.5 -359 t-347.5 -126q-228 0 -348 156q-120 -156 -349 -156q-104 0 -191 31t-152 90.5t-101.5 152.5t-36.5 211v507q0 232 133.5 358.5t347.5 126.5zM1444 1721h26l-47 -134h-26q-59 0 -146.5 30.5t-169.5 60.5t-129 30q-50 0 -78.5 -25t-28.5 -76v-20h-137v37q0 109 62.5 163.5 t176.5 54.5q52 0 115 -19t113.5 -41.5t124 -41.5t144.5 -19zM968 1291l-84 55q72 88 72 151v96h171v-101q0 -55 -50.5 -113t-108.5 -88z" />
<glyph unicode="&#x47d;" horiz-adv-x="1636" d="M1095 884v214q195 0 317.5 -117.5t122.5 -333.5v-216q0 -216 -116.5 -333.5t-304.5 -117.5q-193 0 -294 148q-103 -148 -298 -148q-187 0 -302.5 117.5t-116.5 333.5v216q1 216 123 333.5t318 117.5v-214q-80 0 -130 -60t-51 -177v-216q1 -116 45 -175.5t114 -59.5 q78 0 123 58t44 169v178h260v-178q0 -110 43.5 -168.5t121.5 -58.5q72 0 117.5 59t44.5 176v216q1 116 -50 176.5t-131 60.5zM1266 1379h38v-134h-41q-100 0 -198 30t-173 59.5t-120 29.5q-49 0 -77.5 -24.5t-29.5 -76.5v-18h-135v36q0 110 62.5 163.5t176.5 53.5 q52 0 114.5 -18.5t113 -41t124 -41t145.5 -18.5zM796 950l-85 55q69 84 69 151v96h174v-101q0 -53 -50.5 -112.5t-107.5 -88.5z" />
<glyph unicode="&#x47e;" horiz-adv-x="1944" d="M839 1472h268v-1023q0 -120 54 -182.5t152 -62.5q100 0 159.5 63t59.5 182v1023h266v-1023q0 -150 -64.5 -257.5t-172.5 -159.5t-248 -52q-222 0 -340 153q-120 -153 -347 -153q-140 0 -247 52t-169.5 159.5t-62.5 257.5v1023h270v-1023q0 -119 56.5 -182t152.5 -63 q101 0 157 62.5t56 182.5v1023zM876 1711h-342v129h884l3 -129h-361v-128h-184v128z" />
<glyph unicode="&#x47f;" horiz-adv-x="1745" d="M735 1082h271v-659q0 -227 170 -227q158 0 160 227v659h271v-659q0 -212 -118.5 -327.5t-312.5 -115.5q-204 0 -307 145q-109 -145 -317 -145q-191 0 -308 115t-117 328v659h272v-659q-1 -110 38.5 -168.5t114.5 -58.5q89 0 136 57.5t47 169.5v659zM763 1328h-317v129 h839l4 -129h-341v-125h-185v125z" />
<glyph unicode="&#x480;" horiz-adv-x="1345" d="M860 204v-571h-280v354q-215 33 -342.5 194t-127.5 402v322q0 276 154 440.5t424 164.5q248 0 398 -134t150 -368h-280q0 135 -72 205.5t-197 70.5q-151 0 -225 -99t-74 -279v-323q0 -173 78.5 -276t214.5 -103h179z" />
<glyph unicode="&#x481;" horiz-adv-x="1153" d="M775 196v-565h-272v357q-191 33 -295.5 181t-104.5 356v38q0 164 56.5 291.5t171.5 202.5t273 75q202 0 325.5 -119.5t122.5 -325.5h-255q0 105 -53 167t-146 62q-61 0 -106 -28.5t-70 -79t-37 -111.5t-12 -134v-38q0 -65 11.5 -121t37 -104t73 -76t111.5 -28h169z" />
<glyph unicode="&#x482;" horiz-adv-x="1347" d="M846 809l-211 -361l297 -172l-75 -128l-296 172l-184 -320h-178l229 399l-294 171l71 128l300 -171l205 360l-296 169l76 131l297 -172l186 326h175l-231 -404l300 -172l-77 -125z" />
<glyph unicode="&#x483;" horiz-adv-x="0" d="M-236 1312h-556v-125h-181l1 238h557v108h179v-221z" />
<glyph unicode="&#x484;" horiz-adv-x="0" d="M-963 1437h28q74 0 149 18.5t126 41t114.5 41t116.5 18.5q116 0 179.5 -53.5t64.5 -161.5v-38h-139v18q-1 51 -30 76.5t-78 25.5q-38 0 -95 -18.5t-110 -41.5t-134 -41.5t-161 -18.5h-31v134z" />
<glyph unicode="&#x485;" horiz-adv-x="0" d="M-500 1305l-169 196v138h193l-3 -155l62 -111z" />
<glyph unicode="&#x486;" horiz-adv-x="0" d="M-388 1501l-168 -196l-84 68l60 111l-3 155h195v-138z" />
<glyph unicode="&#x487;" horiz-adv-x="0" d="M-371 1437h164v-134h-178q-38 0 -74 12.5t-67 30t-64 35t-80.5 30t-101.5 12.5q-53 0 -93 -26t-40 -76v-18h-139v38q0 99 76 157t209 58q72 0 135 -18.5t99.5 -41t78 -41t75.5 -18.5z" />
<glyph unicode="&#x488;" horiz-adv-x="0" d="M-1290 989h-118q0 84 58.5 136.5t157.5 52.5q98 0 157 -52.5t59 -136.5h-116q0 45 -24.5 73.5t-75.5 28.5t-74.5 -28.5t-23.5 -73.5zM-103 989h-117q0 84 57.5 136.5t155.5 52.5q99 0 158.5 -52.5t59.5 -136.5h-116q0 45 -24.5 73.5t-77.5 28.5q-50 0 -73 -28.5 t-23 -73.5zM-703 -317h-116q0 84 58.5 136.5t156.5 52.5q99 0 157.5 -52.5t58.5 -136.5h-115q0 43 -25 72.5t-76 29.5q-50 0 -74.5 -29.5t-24.5 -72.5zM-1302 -32h-116q0 83 59 136t155 53q98 0 157 -53t59 -136h-116q0 43 -24.5 72.5t-75.5 29.5q-50 0 -74 -29.5t-24 -72.5 zM-115 -32h-116q0 83 59 136t157 53q97 0 155.5 -52.5t58.5 -136.5h-113q0 43 -25 72.5t-76 29.5q-50 0 -75 -29.5t-25 -72.5zM-708 1268h-117q0 82 59 134.5t157 52.5t156.5 -52.5t58.5 -134.5h-114q0 42 -25 70.5t-76 28.5t-75 -28t-24 -71zM-1471 489h-116q0 82 58 134 t156 52t157 -52t59 -134h-115q0 42 -24.5 70.5t-76.5 28.5q-50 0 -74 -28.5t-24 -70.5zM86 489h-116q0 82 59 134t156 52q98 0 156.5 -52t58.5 -134h-114q0 43 -25 71t-76 28q-49 0 -74 -28.5t-25 -70.5z" />
<glyph unicode="&#x489;" horiz-adv-x="0" d="M365 422l-353 70v139l14 12l339 -122v-99zM-1191 422l-338 122v99l352 -70v-140zM9 -239l-201 300l98 99h18l153 -326zM-693 -413l71 352h141l11 -15l-126 -337h-97zM-681 1126l-12 14l124 338h99l-73 -352h-138zM-135 905l-99 99l1 14l330 154l70 -69zM-1260 -148 l-71 67l300 200l99 -99l-1 -14zM-1092 861l-151 329l66 67l202 -300l-100 -96h-17z" />
<glyph unicode="&#x48a;" horiz-adv-x="1517" d="M147 1489h268v-1015h13l701 1015h242v-1338h221v-161q0 -111 -43 -216.5t-119 -185.5l-158 59q4 9 19.5 41.5t21 45t17.5 41.5t17 47.5t12 45.5t9.5 53.5t2.5 54.5v24h-270v1015h-12l-703 -1015h-239v1489zM903 1873h197q0 -128 -92.5 -206.5t-248.5 -78.5 q-155 0 -247.5 78.5t-91.5 206.5h196q0 -58 35 -96t108 -38t108 38t36 96z" />
<glyph unicode="&#x48b;" horiz-adv-x="1409" d="M389 356l447 761h271v-966h221v-161q0 -111 -43 -216.5t-119 -185.5l-158 59q4 9 19.5 41.5t21 45t17.5 41.5t17 47.5t12 45.5t9.5 53.5t2.5 54.5v24h-255v761l-445 -761h-272v1117h254v-761zM764 1501h197q0 -128 -92.5 -206.5t-248.5 -78.5q-155 0 -247.5 78.5 t-91.5 206.5h196q0 -58 35 -96t108 -38t108 38t36 96z" />
<glyph unicode="&#x48c;" horiz-adv-x="1370" d="M-38 1097v166h188v226h270v-226h239v-166h-239v-183h288q255 0 401 -122t146 -328q0 -209 -146.5 -336.5t-400.5 -127.5h-558v1097h-188zM420 695v-474h288q130 0 205 71.5t75 174.5q0 98 -74.5 163t-205.5 65h-288z" />
<glyph unicode="&#x48d;" horiz-adv-x="1260" d="M762 1457v-177h-294v-527h254q210 0 329 -102.5t120 -273.5q-1 -169 -120.5 -273t-328.5 -104h-508v1280h-173v177h173v182h254v-182h294zM468 537v-321h254q86 0 141 44t56 113q-1 73 -56 118.5t-141 45.5h-254z" />
<glyph unicode="&#x48e;" horiz-adv-x="1336" d="M151 0v1489h559q250 0 387.5 -136.5t137.5 -356.5q0 -133 -52 -238t-152 -170l98 -150l-133 -87l-112 173q-81 -21 -178 -21h-285v-503h-270zM782 971l110 -169q68 69 68 194q0 124 -73 196t-219 72h-247v-539h249q36 0 80 7l-101 155z" />
<glyph unicode="&#x48f;" horiz-adv-x="1251" d="M140 -419v1536h259v-185h15q99 200 319 200q201 0 331 -152.5t130 -422.5q0 -293 -153 -451l86 -101l-110 -94l-94 110q-87 -41 -189 -41q-221 0 -320 196h-11v-595h-263zM749 447l116 -136q61 96 61 248q0 161 -69 259t-197 98q-125 0 -193.5 -96t-68.5 -261 q0 -166 69 -264.5t193 -98.5q53 0 97 19l-118 138z" />
<glyph unicode="&#x490;" horiz-adv-x="1189" d="M147 0v1489h702v352h259v-578h-691v-1263h-270z" />
<glyph unicode="&#x491;" horiz-adv-x="973" d="M900 1397v-496h-507v-901h-258v1117h518v280h247z" />
<glyph unicode="&#x492;" horiz-adv-x="1186" d="M1105 1489v-226h-688v-400h212v-166h-212v-697h-270v697h-215v166h215v626h958z" />
<glyph unicode="&#x493;" horiz-adv-x="949" d="M874 1117v-216h-481v-230h220v-166h-220v-505h-258v505h-219v166h219v446h739z" />
<glyph unicode="&#x494;" horiz-adv-x="1361" d="M1105 1489v-226h-688v-430h240q290 0 453 -145t162 -436q0 -92 -18.5 -175t-60 -158.5t-102.5 -130t-152 -87t-203 -32.5l-1 206q65 0 115 23t80.5 59.5t49.5 86t26 97t7 99.5q1 377 -356 377h-240v-617h-270v1489h958z" />
<glyph unicode="&#x495;" horiz-adv-x="1159" d="M874 1117v-216h-481v-239h88q164 0 289.5 -56t197.5 -167t72 -263q2 -154 -101.5 -280.5t-280.5 -180.5l-99 182q101 39 164 111.5t64 167.5q1 127 -84 199.5t-222 72.5h-88v-448h-258v1117h739z" />
<glyph unicode="&#x496;" horiz-adv-x="2129" d="M1197 1489v-629h172l346 629h329l-439 -706l350 -587h222v-555h-258v359h-166l-346 610h-210v-610h-265v610h-206l-352 -610h-317l473 783l-446 706h331l352 -629h165v629h265z" />
<glyph unicode="&#x497;" horiz-adv-x="1762" d="M63 0l412 577l-409 540h304l318 -450h63v450h263v-450h61l318 450h304l-407 -540l271 -381h258v-555h-258v359h-171l-318 451h-58v-451h-263v451h-59l-319 -451h-310z" />
<glyph unicode="&#x498;" horiz-adv-x="1334" d="M740 -17l-8 -39q73 -11 118.5 -55t45.5 -120q1 -104 -93.5 -166.5t-264.5 -62.5l-3 130q183 0 184 92q1 45 -34.5 67.5t-114.5 30.5l26 123q-208 18 -339 133t-136 289h273q5 -90 81.5 -144.5t190.5 -54.5q120 0 197 62t76 160q1 103 -80 166t-220 63h-131v208h131 q116 0 189 59.5t72 156.5q1 94 -62.5 152t-167.5 58q-106 0 -180.5 -56t-77.5 -147h-260q3 122 72 219t186.5 150t260.5 53q218 0 354.5 -119.5t135.5 -293.5q1 -123 -72.5 -209t-196.5 -113v-11q155 -22 240.5 -115.5t84.5 -234.5q1 -173 -132 -292t-345 -139z" />
<glyph unicode="&#x499;" horiz-adv-x="1056" d="M73 306h262q4 -62 56 -96.5t136 -34.5q89 0 145.5 39t56.5 113q0 68 -50 110t-132 42h-171v186h171q79 0 123 37.5t44 96.5q0 63 -45 100.5t-123 37.5q-79 0 -131 -35.5t-54 -91.5h-259q3 144 125 233t307 89q195 0 310 -86t115 -228q0 -89 -55.5 -149t-154.5 -86v-11 q101 -6 168 -78.5t67 -183.5q0 -138 -107 -226t-282 -103l-7 -37q73 -11 118 -55t45 -120q1 -104 -93.5 -166.5t-264.5 -62.5l-2 130q182 0 183 92q1 45 -34.5 67.5t-114.5 30.5l27 122q-168 17 -271.5 102.5t-107.5 221.5z" />
<glyph unicode="&#x49a;" horiz-adv-x="1480" d="M1039 0l-490 651h-132v-651h-270v1489h270v-612h67l530 612h332l-588 -679l459 -606h189v-556h-258v352h-109z" />
<glyph unicode="&#x49b;" horiz-adv-x="1327" d="M135 0v1117h264v-451h96l336 451h317l-414 -548l273 -373h248v-555h-258v359h-164l-306 421h-128v-421h-264z" />
<glyph unicode="&#x49c;" horiz-adv-x="1420" d="M514 1113h170v-256h45l304 632h317l-391 -717l425 -772h-318l-317 604h-65v-228h-170v228h-99v-604h-268v1489h268v-632h99v256z" />
<glyph unicode="&#x49d;" horiz-adv-x="1264" d="M135 0v1117h264v-451h93v188h156v-188h41l255 451h303l-327 -548l331 -569h-305l-227 421h-71v-187h-156v187h-93v-421h-264z" />
<glyph unicode="&#x4a0;" horiz-adv-x="1668" d="M1268 0l-491 651h-132v-651h-270v1273h-347v216h617v-612h68l529 612h333l-589 -679l614 -810h-332z" />
<glyph unicode="&#x4a1;" horiz-adv-x="1510" d="M480 0v900h-406v217h669v-451h96l336 451h317l-413 -548l418 -569h-319l-306 421h-129v-421h-263z" />
<glyph unicode="&#x4a2;" horiz-adv-x="1689" d="M147 0v1489h270v-630h690v630h270v-1293h247v-555h-257v359h-260v633h-690v-633h-270z" />
<glyph unicode="&#x4a3;" horiz-adv-x="1402" d="M389 1117v-449h433v449h253v-921h255v-555h-257v359h-251v452h-433v-452h-254v1117h254z" />
<glyph unicode="&#x4a4;" horiz-adv-x="2046" d="M1965 1489v-226h-588v-1263h-270v633h-690v-633h-270v1489h270v-630h690v630h858z" />
<glyph unicode="&#x4a5;" horiz-adv-x="1476" d="M1459 1117v-216h-384v-901h-253v452h-433v-452h-254v1117h254v-449h433v449h637z" />
<glyph unicode="&#x4a6;" horiz-adv-x="2296" d="M1316 1489v-657h200q290 0 452.5 -145.5t161.5 -436.5q0 -92 -18.5 -175t-60 -158t-102.5 -130t-152 -87t-203 -32l-1 205q80 0 137.5 34t86.5 90.5t41.5 116t12.5 125.5q1 376 -355 376h-200v-615h-268v1265h-652v-1265h-267v1489h1187z" />
<glyph unicode="&#x4a7;" horiz-adv-x="1893" d="M135 0v1117h944v-449h145q263 0 421.5 -126t158.5 -359q0 -62 -22 -128t-66 -132t-120.5 -121t-174.5 -83l-104 184q234 90 235 280q1 127 -91.5 198t-236.5 71h-145v-452h-254v901h-438v-901h-252z" />
<glyph unicode="&#x4a8;" horiz-adv-x="1724" d="M1588 201v-218q-229 0 -413 69q-155 -72 -346 -72q-203 0 -362 90.5t-244.5 245.5t-85.5 347v236q0 172 64 311t182.5 220t269.5 81v-235q-104 0 -171.5 -107t-67.5 -269v-237q0 -196 115 -323t300 -127q42 0 73 4q-217 203 -217 510v233q0 155 53.5 280t153.5 197.5 t228 72.5q203 0 330 -164.5t127 -423.5v-218q0 -286 -178 -486q82 -17 189 -17zM1145 323q79 67 122.5 165.5t43.5 215.5v246q0 149 -52.5 237.5t-134.5 88.5q-81 0 -133.5 -87t-52.5 -226v-237q0 -125 53.5 -228.5t153.5 -174.5z" />
<glyph unicode="&#x4a9;" horiz-adv-x="1452" d="M1316 139v-162q-199 0 -350 54q-121 -51 -269 -51q-164 0 -292 73.5t-197 201t-69 285.5v116q0 206 115 340t300 134v-219q-64 -6 -107 -77.5t-43 -177.5v-116q0 -147 83.5 -249.5t209.5 -102.5q16 0 24 1q-132 144 -132 354v169q0 182 94.5 301t247.5 119 q158 0 255.5 -131t97.5 -329v-164q0 -208 -136 -352q80 -17 168 -17zM913 264q55 46 86.5 112.5t31.5 142.5v168q0 100 -34 161.5t-88 61.5q-55 0 -89 -58.5t-34 -152.5v-168q0 -160 127 -267z" />
<glyph unicode="&#x4aa;" horiz-adv-x="1522" d="M1422 987h-272q-23 131 -119.5 206t-234.5 75q-187 0 -301.5 -138t-114.5 -385q0 -250 114.5 -386.5t300.5 -136.5q136 0 233 72t122 201l272 -2q-30 -207 -182.5 -350t-385.5 -161l-8 -42q73 -11 118 -55.5t45 -120.5q1 -104 -93 -166t-264 -62l-3 129q182 0 183 93 q1 45 -33.5 67t-114.5 30l27 129q-269 28 -435.5 230.5t-166.5 530.5q0 177 52 322t143 241.5t216 149t271 52.5q252 0 424.5 -139.5t206.5 -383.5z" />
<glyph unicode="&#x4ab;" horiz-adv-x="1182" d="M685 -19l-7 -37q73 -11 118 -55t45 -120q1 -105 -93 -167t-264 -62l-3 130q182 0 183 92q1 45 -34 67.5t-114 30.5l26 123q-212 26 -333.5 181t-121.5 390q0 258 145.5 418t388.5 160q204 0 335 -110t145 -292h-252q-16 85 -74 137t-150 52q-123 0 -197 -96.5t-74 -263.5 q0 -170 73.5 -268t197.5 -98q88 0 147.5 50t76.5 139h252q-13 -166 -124 -275t-292 -126z" />
<glyph unicode="&#x4ac;" horiz-adv-x="1351" d="M81 1263v226h1189v-226h-461v-1067h249v-555h-257v359h-259v1263h-461z" />
<glyph unicode="&#x4ad;" horiz-adv-x="1126" d="M74 901v216h978v-216h-362v-708h253v-556h-257v363h-250v901h-362z" />
<glyph unicode="&#x4ae;" horiz-adv-x="1442" d="M45 1489h305l364 -658h15l364 658h305l-542 -933v-556h-269v556z" />
<glyph unicode="&#x4af;" horiz-adv-x="1111" d="M47 1117h271l242 -798l235 798h270l-382 -1103v-433h-253v433z" />
<glyph unicode="&#x4b0;" horiz-adv-x="1442" d="M45 1489h305l364 -658h15l364 658h305l-478 -824h149v-166h-213v-499h-269v499h-215v166h151z" />
<glyph unicode="&#x4b1;" horiz-adv-x="1111" d="M47 1117h271l242 -798l235 798h270l-325 -940h165v-167h-222v-429h-253v429h-221v167h164z" />
<glyph unicode="&#x4b2;" horiz-adv-x="1413" d="M372 1489l328 -545h12l329 545h308l-459 -744l343 -549h204v-555h-257v359h-136l-332 542h-12l-331 -542h-312l471 745l-465 744h309z" />
<glyph unicode="&#x4b3;" horiz-adv-x="1152" d="M351 1117l225 -412l229 412h279l-337 -558l222 -363h212v-555h-257v359h-112l-236 402l-234 -402h-279l340 559l-332 558h280z" />
<glyph unicode="&#x4b4;" horiz-adv-x="1889" d="M1059 1489v-216h-361v-1049h669v1265h261v-1264h189l-19 -577h-262v352h-1097v1273h-358v216h978z" />
<glyph unicode="&#x4b5;" horiz-adv-x="1498" d="M816 1117v-217h-235v-684h438v901h252v-901h156l-20 -536h-249v320h-831v900h-234v217h723z" />
<glyph unicode="&#x4b6;" horiz-adv-x="1531" d="M191 1489h264v-485q0 -137 71.5 -195t223.5 -58q180 0 335 36v702h266v-1293h253v-555h-257v359h-262v567q-158 -39 -335 -39q-267 0 -413 116t-146 360v485z" />
<glyph unicode="&#x4b7;" horiz-adv-x="1394" d="M1068 1117v-924h254v-556h-257v363h-250v354q-97 -23 -196 -23q-230 0 -357 103.5t-127 311.5v373h252v-373q0 -106 56.5 -152.5t175.5 -46.5q96 0 196 25v545h253z" />
<glyph unicode="&#x4b8;" horiz-adv-x="1540" d="M831 1049v-296q142 8 254 34v702h266v-1489h-266v567q-121 -29 -254 -37v-230h-169v232q-226 18 -348.5 133.5t-122.5 338.5v485h264v-485q0 -116 51 -174.5t156 -73.5v293h169z" />
<glyph unicode="&#x4b9;" horiz-adv-x="1198" d="M685 820v-270q68 6 130 22v545h253v-1117h-253v354q-64 -14 -130 -20v-143h-169v146q-183 22 -282 123.5t-99 285.5v373h252v-373q0 -80 31.5 -125.5t97.5 -62.5v262h169z" />
<glyph unicode="&#x4ba;" horiz-adv-x="1531" d="M1340 0h-264v486q0 137 -71.5 195t-222.5 58q-180 0 -335 -36v-703h-266v1489h266v-566q154 38 335 38q267 0 412.5 -115.5t145.5 -359.5v-486z" />
<glyph unicode="&#x4bb;" horiz-adv-x="1255" d="M399 655v-655h-264v1489h258v-562h13q84 205 332 205q177 0 281 -110.5t104 -310.5v-711h-263v671q0 113 -58 175.5t-162 62.5q-108 0 -174.5 -67.5t-66.5 -186.5z" />
<glyph unicode="&#x4bc;" horiz-adv-x="1723" d="M115 1089h195q0 -169 134 -216q1 289 163 462.5t431 173.5q268 0 420 -188t152 -520v-150h-902v-49q0 -182 106 -283.5t303 -101.5q174 0 359 67l50 -224q-66 -37 -182 -60t-234 -23q-311 0 -488.5 166.5t-177.5 458.5v69q-156 25 -242.5 134.5t-86.5 283.5zM708 870h637 v38q0 169 -81.5 264.5t-224.5 95.5q-152 0 -241.5 -107.5t-89.5 -290.5z" />
<glyph unicode="&#x4bd;" horiz-adv-x="1548" d="M48 879h201q1 -102 42.5 -155.5t133.5 -58.5q31 213 170.5 340t350.5 127q106 0 196.5 -34t161.5 -101t112 -177.5t41 -252.5v-80h-778q1 -142 78.5 -223t206.5 -81q86 0 147.5 37t88.5 107l246 -27q-36 -148 -165 -235t-321 -87q-235 0 -378 136.5t-162 372.5 q-183 7 -277.5 108.5t-94.5 283.5zM679 664h525q-1 115 -71.5 189t-182.5 74q-115 0 -190 -76t-81 -187z" />
<glyph unicode="&#x4be;" horiz-adv-x="1723" d="M115 1089h195q0 -169 134 -216q1 289 163 462.5t431 173.5q268 0 420 -188t152 -520v-150h-902v-49q0 -182 106 -283.5t303 -101.5q174 0 359 67l50 -224q-114 -65 -330 -80v-443h-257v454q-235 43 -365 203t-130 408v69q-156 25 -242.5 134.5t-86.5 283.5zM708 870h637 v38q0 169 -81.5 264.5t-224.5 95.5q-152 0 -241.5 -107.5t-89.5 -290.5z" />
<glyph unicode="&#x4bf;" horiz-adv-x="1548" d="M48 879h201q1 -102 42.5 -155.5t133.5 -58.5q31 213 170.5 340t350.5 127q106 0 196.5 -34t161.5 -101t112 -177.5t41 -252.5v-80h-778q1 -142 78.5 -223t206.5 -81q86 0 147.5 37t88.5 107l246 -27q-33 -138 -148.5 -223.5t-290.5 -96.5l-7 -36q73 -11 118.5 -55 t45.5 -120q1 -104 -93.5 -166.5t-264.5 -62.5l-3 130q182 0 183 92q1 45 -34 67.5t-114 30.5l27 125q-195 27 -311.5 159.5t-133.5 342.5q-183 7 -277.5 108.5t-94.5 283.5zM679 664h525q-1 115 -71.5 189t-182.5 74q-115 0 -190 -76t-81 -187z" />
<glyph unicode="&#x4c0;" horiz-adv-x="562" d="M417 1489v-1489h-270v1489h270z" />
<glyph unicode="&#x4c1;" horiz-adv-x="2129" d="M1197 1489v-629h172l346 629h329l-439 -706l467 -783h-319l-346 610h-210v-610h-265v610h-206l-352 -610h-317l473 783l-446 706h331l352 -629h165v629h265zM1209 1873h197q0 -128 -92.5 -206.5t-248.5 -78.5q-155 0 -247.5 78.5t-91.5 206.5h195q0 -58 35.5 -96 t108.5 -38t108 38t36 96z" />
<glyph unicode="&#x4c2;" horiz-adv-x="1762" d="M63 0l412 577l-409 540h304l318 -450h63v450h263v-450h61l318 450h304l-407 -540l410 -577h-310l-318 451h-58v-451h-263v451h-59l-319 -451h-310zM1025 1501h198q0 -128 -93 -206.5t-249 -78.5q-155 0 -247 78.5t-91 206.5h195q0 -58 35 -96t108 -38t108 38t36 96z" />
<glyph unicode="&#x4c3;" horiz-adv-x="1410" d="M147 0v1489h264v-626h126l451 626h323l-504 -672q237 -30 369.5 -180t133.5 -390q1 -272 -144 -427.5t-399 -155.5l-3 213q130 0 205 96.5t77 263.5q1 179 -93 281.5t-259 102.5h-283v-621h-264z" />
<glyph unicode="&#x4c4;" horiz-adv-x="1250" d="M135 0v1117h264v-451h96l336 451h317l-384 -515q183 -41 288.5 -157t105.5 -282q0 -154 -105 -279t-276 -176l-101 186q103 30 166 103.5t64 163.5q1 116 -89.5 188t-238.5 72h-179v-421h-264z" />
<glyph unicode="&#x4c5;" horiz-adv-x="1483" d="M50 0v224l42 2q65 3 108 34.5t72 102t43.5 176.5t20.5 269l25 681h976v-1338h219v-161q0 -110 -43.5 -216t-119.5 -186l-157 59q4 9 19.5 41.5t21 45t17.5 41.5t17 47.5t12 45.5t9.5 53.5t2.5 54.5v24h-262v1268h-461l-23 -544q-7 -153 -23.5 -264t-49.5 -201.5 t-85 -145.5t-128 -84t-180 -29h-73z" />
<glyph unicode="&#x4c6;" horiz-adv-x="1400" d="M58 0l-1 217h38q59 0 93 37t52 123.5t24 245.5l20 494h814v-966h221v-161q0 -111 -43 -216.5t-119 -185.5l-158 59q4 9 19.5 41.5t21 45t17.5 41.5t17 47.5t12 45.5t9.5 53.5t2.5 54.5v24h-254v901h-321l-18 -360q-13 -281 -99.5 -411t-265.5 -130h-82z" />
<glyph unicode="&#x4c7;" horiz-adv-x="1523" d="M147 0v1489h270v-630h690v630h270v-1577q0 -51 -10.5 -96.5t-39.5 -92.5t-73.5 -80.5t-119 -55t-170.5 -21.5q-77 0 -109 9v217q40 -6 77 -6q175 0 175 140v707h-690v-633h-270z" />
<glyph unicode="&#x4c8;" horiz-adv-x="1205" d="M389 1117v-449h433v449h253v-1177q0 -183 -97.5 -279.5t-273.5 -96.5q-82 0 -140 14l14 213q35 -11 104 -11q62 0 101 41.5t39 118.5v512h-433v-452h-254v1117h254z" />
<glyph unicode="&#x4c9;" horiz-adv-x="1664" d="M147 0v1489h270v-630h690v630h270v-1338h222v-161q0 -110 -43.5 -216t-119.5 -186l-157 59q3 5 20 41.5t21 45.5t17 40.5t17 48t11 45t9.5 54.5t2.5 54v24h-270v633h-690v-633h-270z" />
<glyph unicode="&#x4ca;" horiz-adv-x="1377" d="M389 1117v-449h433v449h253v-1117h-253v452h-433v-452h-254v1117h254zM1297 151v-161q0 -111 -43 -216.5t-119 -185.5l-158 59q4 9 19.5 41.5t21 45t17.5 41.5t17 47.5t12 45.5t9.5 53.5t2.5 54.5v175h221z" />
<glyph unicode="&#x4cb;" horiz-adv-x="1531" d="M191 1489h264v-485q0 -137 71.5 -195t223.5 -58q180 0 335 36v702h266v-1293h253v-555h-257v359h-262v567q-158 -39 -335 -39q-267 0 -413 116t-146 360v485z" />
<glyph unicode="&#x4cc;" horiz-adv-x="1198" d="M1068 1117v-1117h-253v-363h-257v556h257v161q-97 -23 -196 -23q-230 0 -357 103.5t-127 311.5v373h252v-373q0 -106 56.5 -152.5t175.5 -46.5q96 0 196 25v545h253z" />
<glyph unicode="&#x4cd;" horiz-adv-x="1945" d="M147 1489h330l442 -1079h18l442 1079h330v-1489h-259v1023h-14l-411 -1019h-194l-411 1021h-14v-1025h-259v1489zM1931 151v-161q0 -111 -43 -216.5t-119 -185.5l-158 59q4 9 19.5 41.5t21 45t17.5 41.5t17 47.5t12 45.5t9.5 53.5t2.5 54.5v175h221z" />
<glyph unicode="&#x4ce;" horiz-adv-x="1732" d="M778 306l332 811h320v-1117h-252v761l-307 -761h-184l-298 753v-753h-254v1117h320zM1652 151v-161q0 -110 -43.5 -216t-119.5 -186l-157 59q4 9 19.5 41.5t21 45t17.5 41.5t17 47.5t12 45.5t9.5 53.5t2.5 54.5v175h221z" />
<glyph unicode="&#x4cf;" horiz-adv-x="562" d="M417 1489v-1489h-270v1489h270z" />
<glyph unicode="&#x4d0;" horiz-adv-x="1482" d="M338 0h-288l525 1489h333l525 -1489h-288l-124 367h-560zM534 584h414l-201 600h-12zM885 1873h197q0 -128 -92.5 -206.5t-248.5 -78.5q-155 0 -247.5 78.5t-91.5 206.5h196q0 -58 35 -96t108 -38t108 38t36 96z" />
<glyph unicode="&#x4d1;" horiz-adv-x="1176" d="M457 -23q-166 0 -270 88t-104 248q0 73 24 129.5t62 92.5t95.5 61t114 37t128.5 20q13 1 37 4q154 16 192 31q47 19 47 65v5q0 83 -49 127.5t-140 44.5t-149.5 -40t-79.5 -102l-246 35q43 150 168.5 229.5t305.5 79.5q67 0 129 -11.5t122.5 -39.5t104.5 -70.5t71 -110 t27 -152.5v-748h-254v153h-8q-40 -77 -122.5 -126.5t-205.5 -49.5zM748 1501h197q0 -128 -92.5 -206.5t-248.5 -78.5q-155 0 -247.5 78.5t-91.5 206.5h196q0 -58 35 -96t108 -38t108 38t36 96zM525 171q116 0 187.5 67t71.5 163v131q-33 -27 -241 -54q-206 -30 -206 -160 q0 -71 51.5 -109t136.5 -38z" />
<glyph unicode="&#x4d2;" horiz-adv-x="1482" d="M338 0h-288l525 1489h333l525 -1489h-288l-124 367h-560zM534 584h414l-201 600h-12zM524 1654q-57 0 -99 41t-42 96q0 58 41.5 97.5t99.5 39.5q59 0 99 -39.5t40 -97.5q0 -56 -40.5 -96.5t-98.5 -40.5zM960 1654q-57 0 -99 41t-42 96q0 58 41.5 97.5t99.5 39.5 q59 0 99.5 -39.5t40.5 -97.5q0 -55 -41 -96t-99 -41z" />
<glyph unicode="&#x4d3;" horiz-adv-x="1176" d="M457 -23q-166 0 -270 88t-104 248q0 73 24 129.5t62 92.5t95.5 61t114 37t128.5 20q13 1 37 4q154 16 192 31q47 19 47 65v5q0 83 -49 127.5t-140 44.5t-149.5 -40t-79.5 -102l-246 35q43 150 168.5 229.5t305.5 79.5q67 0 129 -11.5t122.5 -39.5t104.5 -70.5t71 -110 t27 -152.5v-748h-254v153h-8q-40 -77 -122.5 -126.5t-205.5 -49.5zM525 171q116 0 187.5 67t71.5 163v131q-33 -27 -241 -54q-206 -30 -206 -160q0 -71 51.5 -109t136.5 -38zM387 1281q-57 0 -99 41t-42 96q0 58 41.5 98t99.5 40q59 0 99.5 -40t40.5 -98q0 -56 -40.5 -96.5 t-99.5 -40.5zM823 1281q-57 0 -99 41t-42 96q0 58 41.5 98t99.5 40q59 0 99.5 -40t40.5 -98q0 -56 -40.5 -96.5t-99.5 -40.5z" />
<glyph unicode="&#x4d4;" horiz-adv-x="2082" d="M50 0l666 1489h1237v-226h-698v-404h648v-226h-648v-407h704v-226h-974v367h-479l-159 -367h-297zM600 584h385v645h-106z" />
<glyph unicode="&#x4d5;" horiz-adv-x="1878" d="M1308 -22q-141 0 -250 56t-162 156h-8q-41 -94 -158.5 -153.5t-261.5 -59.5q-174 0 -279.5 88t-105.5 248q0 73 24 129.5t62 92.5t96 61t114.5 37t127.5 20h1h1h1h1l1 1h1h1h1h1h1h1h1h1l1 1h1h1h1h1h1h1h1h1l2 1q163 17 203 32q49 19 49 65v5q0 82 -49 127t-140 45 t-149.5 -40t-79.5 -102l-246 35q43 151 168.5 230t308.5 79q48 0 92.5 -7.5t90.5 -24t85.5 -48.5t65.5 -77q127 157 351 157q105 0 195.5 -34t162 -101t112 -177.5t40.5 -252.5v-80h-777q2 -142 79.5 -223t205.5 -81q86 0 148 37t88 107l246 -27q-36 -147 -163.5 -234.5 t-309.5 -87.5zM525 171q116 0 187.5 67t71.5 163v131q-33 -27 -241 -54q-206 -30 -206 -160q0 -71 51.5 -109t136.5 -38zM1015 664h524q-1 115 -72 189t-183 74q-114 0 -188.5 -76.5t-80.5 -186.5z" />
<glyph unicode="&#x4d6;" horiz-adv-x="1244" d="M147 0v1489h969v-226h-699v-404h648v-226h-648v-407h704v-226h-974zM776 1873h197q0 -128 -92.5 -206.5t-248.5 -78.5q-155 0 -247.5 78.5t-91.5 206.5h196q0 -58 35 -96t108 -38t108 38t36 96z" />
<glyph unicode="&#x4d7;" d="M630 -22q-252 0 -397.5 155t-145.5 419q0 260 145 420t384 160q106 0 196.5 -34t161.5 -101t112 -177.5t41 -252.5v-80h-779q1 -142 78.5 -223t206.5 -81q86 0 148 37t89 107l246 -27q-36 -148 -165 -235t-321 -87zM753 1501h197q0 -128 -92.5 -206.5t-248.5 -78.5 q-155 0 -247.5 78.5t-91.5 206.5h195q0 -58 35.5 -96t108.5 -38t108 38t36 96zM349 664h525q-1 115 -71.5 189t-182.5 74q-115 0 -190 -76t-81 -187z" />
<glyph unicode="&#x4d8;" horiz-adv-x="1438" d="M635 1510q170 0 306.5 -53.5t226 -149t136.5 -226.5t47 -288v-134q0 -197 -81 -352t-229 -241t-337 -86q-288 0 -452 181.5t-165 498.5v155h983q-3 97 -30 177t-80 142.5t-140.5 97t-202.5 34.5q-168 0 -360 -64l-50 225q60 29 179.5 56t248.5 27zM1067 591h-700v-31 q1 -154 85 -247t245 -93q165 0 259.5 101t110.5 270z" />
<glyph unicode="&#x4d9;" d="M584 1139q252 0 397.5 -155t145.5 -419q0 -260 -145 -420t-384 -160q-106 0 -196.5 34t-161.5 101t-112 177.5t-41 252.5v81h778q-1 142 -78.5 222.5t-206.5 80.5q-86 0 -147.5 -37t-88.5 -107l-246 27q36 148 165 235t321 87zM865 453h-525q1 -115 71.5 -188.5 t182.5 -73.5q115 0 190 76t81 186z" />
<glyph unicode="&#x4da;" horiz-adv-x="1438" d="M635 1510q170 0 306.5 -53.5t226 -149t136.5 -226.5t47 -288v-134q0 -197 -81 -352t-229 -241t-337 -86q-288 0 -452 181.5t-165 498.5v155h983q-3 97 -30 177t-80 142.5t-140.5 97t-202.5 34.5q-168 0 -360 -64l-50 225q60 29 179.5 56t248.5 27zM1067 591h-700v-31 q1 -154 85 -247t245 -93q165 0 259.5 101t110.5 270zM501 1654q-57 0 -99 41t-42 96q0 58 41.5 97.5t99.5 39.5q59 0 99.5 -39.5t40.5 -97.5q0 -55 -40.5 -96t-99.5 -41zM937 1654q-57 0 -99 41t-42 96q0 58 41.5 97.5t99.5 39.5q59 0 99.5 -39.5t40.5 -97.5 q0 -55 -40.5 -96t-99.5 -41z" />
<glyph unicode="&#x4db;" d="M584 1139q252 0 397.5 -155t145.5 -419q0 -260 -145 -420t-384 -160q-106 0 -196.5 34t-161.5 101t-112 177.5t-41 252.5v81h778q-1 142 -78.5 222.5t-206.5 80.5q-86 0 -147.5 -37t-88.5 -107l-246 27q36 148 165 235t321 87zM865 453h-525q1 -115 71.5 -188.5 t182.5 -73.5q115 0 190 76t81 186zM391 1281q-57 0 -99 41t-42 96q0 58 41.5 98t99.5 40q59 0 99.5 -40t40.5 -98q0 -56 -40.5 -96.5t-99.5 -40.5zM828 1281q-57 0 -99 41t-42 96q0 58 41.5 98t99.5 40q59 0 99 -39.5t40 -98.5q0 -56 -40.5 -96.5t-98.5 -40.5z" />
<glyph unicode="&#x4dc;" horiz-adv-x="2129" d="M1197 1489v-629h172l346 629h329l-439 -706l467 -783h-319l-346 610h-210v-610h-265v610h-206l-352 -610h-317l473 783l-446 706h331l352 -629h165v629h265zM847 1654q-57 0 -99 41t-42 96q0 58 41.5 97.5t99.5 39.5q59 0 99.5 -39.5t40.5 -97.5q0 -55 -40.5 -96 t-99.5 -41zM1284 1654q-57 0 -99 41t-42 96q0 58 41.5 97.5t99.5 39.5q59 0 99 -39.5t40 -97.5q0 -56 -40.5 -96.5t-98.5 -40.5z" />
<glyph unicode="&#x4dd;" horiz-adv-x="1762" d="M63 0l412 577l-409 540h304l318 -450h63v450h263v-450h61l318 450h304l-407 -540l410 -577h-310l-318 451h-58v-451h-263v451h-59l-319 -451h-310zM664 1281q-57 0 -99 41t-42 96q0 58 41.5 98t99.5 40q59 0 99.5 -40t40.5 -98q0 -56 -41 -96.5t-99 -40.5zM1100 1281 q-57 0 -99 41t-42 96q0 58 41.5 98t99.5 40q59 0 99.5 -40t40.5 -98q0 -56 -41 -96.5t-99 -40.5z" />
<glyph unicode="&#x4de;" horiz-adv-x="1334" d="M667 -20q-155 0 -278.5 53.5t-194 150.5t-73.5 221h273q5 -90 81.5 -144.5t190.5 -54.5q120 0 197 62t76 160q1 103 -80 166t-220 63h-131v208h131q116 0 189 59.5t72 156.5q1 94 -62.5 152t-167.5 58q-106 0 -180.5 -56t-77.5 -147h-260q3 122 72 219t186.5 150 t260.5 53q218 0 354.5 -119.5t135.5 -293.5q1 -123 -72.5 -209t-196.5 -113v-11q155 -22 240.5 -115.5t84.5 -234.5q0 -124 -70.5 -223.5t-196 -155t-283.5 -55.5zM454 1654q-57 0 -99 41t-42 96q0 58 41.5 97.5t99.5 39.5q59 0 99 -39.5t40 -97.5q0 -56 -40.5 -96.5 t-98.5 -40.5zM890 1654q-57 0 -99 41t-42 96q0 58 41.5 97.5t99.5 39.5q59 0 99.5 -39.5t40.5 -97.5q0 -55 -41 -96t-99 -41z" />
<glyph unicode="&#x4df;" horiz-adv-x="1056" d="M73 306h262q4 -62 56 -96.5t136 -34.5q89 0 145.5 39t56.5 113q0 68 -50 110t-132 42h-171v186h171q79 0 123 37.5t44 96.5q0 63 -45 100.5t-123 37.5q-79 0 -131 -35.5t-54 -91.5h-259q3 144 125 233t307 89q195 0 310 -86t115 -228q0 -89 -55.5 -149t-154.5 -86v-11 q101 -6 168 -78.5t67 -183.5q0 -152 -127 -242t-329 -90q-198 0 -324 88t-131 240zM314 1281q-57 0 -99 41t-42 96q0 58 41.5 98t99.5 40q59 0 99.5 -40t40.5 -98q0 -56 -41 -96.5t-99 -40.5zM751 1281q-57 0 -99.5 41t-42.5 96q0 58 42 98t100 40q59 0 99 -39.5t40 -98.5 q0 -56 -40.5 -96.5t-98.5 -40.5z" />
<glyph unicode="&#x4e0;" horiz-adv-x="1324" d="M109 405h273q8 -93 84 -146t190 -53q121 0 197 61.5t76 168.5t-80 176t-234 69h-147v195l344 378v10h-629v225h970v-194l-400 -431v-12q213 -18 333 -139t120 -290q0 -195 -156 -319t-396 -124q-232 0 -384 116t-161 309z" />
<glyph unicode="&#x4e1;" horiz-adv-x="1324" d="M109 33h273q8 -93 84.5 -146.5t189.5 -53.5q121 0 197 62t76 169t-80 176t-234 69h-147v194l344 378v11h-629v225h970v-195l-400 -430v-12q213 -18 333 -139.5t120 -290.5q0 -195 -156 -319t-396 -124q-232 0 -384 116.5t-161 309.5z" />
<glyph unicode="&#x4e2;" horiz-adv-x="1517" d="M147 1489h268v-1015h13l701 1015h242v-1489h-270v1015h-12l-703 -1015h-239v1489zM1109 1862v-161h-700v161h700z" />
<glyph unicode="&#x4e3;" horiz-adv-x="1241" d="M389 356l447 761h271v-1117h-255v761l-445 -761h-272v1117h254v-761zM970 1489v-160h-699v160h699z" />
<glyph unicode="&#x4e4;" horiz-adv-x="1517" d="M147 1489h268v-1015h13l701 1015h242v-1489h-270v1015h-12l-703 -1015h-239v1489zM542 1654q-57 0 -99 41t-42 96q0 58 41.5 97.5t99.5 39.5q59 0 99 -39.5t40 -97.5q0 -56 -40.5 -96.5t-98.5 -40.5zM978 1654q-57 0 -99 41t-42 96q0 58 41.5 97.5t99.5 39.5 q59 0 99.5 -39.5t40.5 -97.5q0 -55 -41 -96t-99 -41z" />
<glyph unicode="&#x4e5;" horiz-adv-x="1241" d="M389 356l447 761h271v-1117h-255v761l-445 -761h-272v1117h254v-761zM403 1281q-57 0 -99 41t-42 96q0 58 41.5 98t99.5 40q59 0 99.5 -40t40.5 -98q0 -56 -40.5 -96.5t-99.5 -40.5zM839 1281q-57 0 -99 41t-42 96q0 58 41.5 98t99.5 40q59 0 99.5 -40t40.5 -98 q0 -56 -40.5 -96.5t-99.5 -40.5z" />
<glyph unicode="&#x4e6;" horiz-adv-x="1586" d="M1478 745q0 -177 -52 -322t-144 -241.5t-217 -149t-272 -52.5t-272 52.5t-216.5 149t-143.5 241.5t-52 322t52 322t143.5 241.5t216.5 149t272 52.5t272 -52.5t217 -149t144 -241.5t52 -322zM1207 745q0 249 -113.5 386t-300.5 137q-186 0 -299.5 -137.5t-113.5 -385.5 t113.5 -385.5t299.5 -137.5q187 0 300.5 137t113.5 386zM576 1654q-57 0 -99 41t-42 96q0 58 41.5 97.5t99.5 39.5q59 0 99.5 -39.5t40.5 -97.5q0 -55 -41 -96t-99 -41zM1012 1654q-57 0 -99 41t-42 96q0 58 41.5 97.5t99.5 39.5q59 0 99.5 -39.5t40.5 -97.5q0 -55 -41 -96 t-99 -41z" />
<glyph unicode="&#x4e7;" horiz-adv-x="1245" d="M623 -22q-244 0 -390 158t-146 418q0 261 146 419.5t390 158.5t389.5 -158.5t145.5 -419.5q0 -260 -145.5 -418t-389.5 -158zM624 189q128 0 197.5 103t69.5 263q0 161 -69.5 264.5t-197.5 103.5q-130 0 -200 -103.5t-70 -264.5t70 -263.5t200 -102.5zM405 1281 q-57 0 -99 41t-42 96q0 58 41.5 98t99.5 40q59 0 99.5 -40t40.5 -98q0 -56 -40.5 -96.5t-99.5 -40.5zM841 1281q-57 0 -99 41t-42 96q0 58 41.5 98t99.5 40q59 0 99.5 -40t40.5 -98q0 -56 -40.5 -96.5t-99.5 -40.5z" />
<glyph unicode="&#x4e8;" horiz-adv-x="1586" d="M1478 745q0 -177 -52 -322t-144 -241.5t-217 -149t-272 -52.5t-272 52.5t-216.5 149t-143.5 241.5t-52 322t52 322t143.5 241.5t216.5 149t272 52.5t272 -52.5t217 -149t144 -241.5t52 -322zM793 222q168 0 277.5 111.5t130.5 316.5h-816q21 -205 130.5 -316.5 t277.5 -111.5zM1201 839q-21 206 -131 317.5t-277 111.5t-277 -111.5t-131 -317.5h816z" />
<glyph unicode="&#x4e9;" horiz-adv-x="1245" d="M623 -22q-244 0 -390 158t-146 418q0 261 146 419.5t390 158.5t389.5 -158.5t145.5 -419.5q0 -260 -145.5 -418t-389.5 -158zM624 189q111 0 178.5 78t83.5 206h-527q16 -129 84 -206.5t181 -77.5zM360 644h525q-18 126 -85 202.5t-176 76.5q-111 0 -178.5 -76.5 t-85.5 -202.5z" />
<glyph unicode="&#x4ea;" horiz-adv-x="1586" d="M1478 745q0 -177 -52 -322t-144 -241.5t-217 -149t-272 -52.5t-272 52.5t-216.5 149t-143.5 241.5t-52 322t52 322t143.5 241.5t216.5 149t272 52.5t272 -52.5t217 -149t144 -241.5t52 -322zM793 222q168 0 277.5 111.5t130.5 316.5h-816q21 -205 130.5 -316.5 t277.5 -111.5zM1201 839q-21 206 -131 317.5t-277 111.5t-277 -111.5t-131 -317.5h816zM576 1654q-57 0 -99 41t-42 96q0 58 41.5 97.5t99.5 39.5q59 0 99.5 -39.5t40.5 -97.5q0 -55 -41 -96t-99 -41zM1012 1654q-57 0 -99 41t-42 96q0 58 41.5 97.5t99.5 39.5 q59 0 99.5 -39.5t40.5 -97.5q0 -55 -41 -96t-99 -41z" />
<glyph unicode="&#x4eb;" horiz-adv-x="1245" d="M623 -22q-244 0 -390 158t-146 418q0 261 146 419.5t390 158.5t389.5 -158.5t145.5 -419.5q0 -260 -145.5 -418t-389.5 -158zM624 189q111 0 178.5 78t83.5 206h-527q16 -129 84 -206.5t181 -77.5zM360 644h525q-18 126 -85 202.5t-176 76.5q-111 0 -178.5 -76.5 t-85.5 -202.5zM405 1281q-57 0 -99 41t-42 96q0 58 41.5 98t99.5 40q59 0 99.5 -40t40.5 -98q0 -56 -40.5 -96.5t-99.5 -40.5zM841 1281q-57 0 -99 41t-42 96q0 58 41.5 98t99.5 40q59 0 99.5 -40t40.5 -98q0 -56 -40.5 -96.5t-99.5 -40.5z" />
<glyph unicode="&#x4ec;" horiz-adv-x="1413" d="M111 481h271q13 -141 90 -211t228 -70q160 0 242 110t92 307h-509v222h511q-5 213 -93 329.5t-250 116.5q-155 0 -227 -72t-86 -214h-271q11 111 52.5 203t112 161.5t178 108t241.5 38.5q280 0 446 -189.5t166 -508.5v-139q0 -319 -163 -506t-442 -187q-264 0 -417 137 t-172 364zM489 1654q-57 0 -99 41t-42 96q0 58 41.5 97.5t99.5 39.5q59 0 99 -39.5t40 -97.5q0 -56 -40.5 -96.5t-98.5 -40.5zM925 1654q-57 0 -99 41t-42 96q0 58 41.5 97.5t99.5 39.5q59 0 99.5 -39.5t40.5 -97.5q0 -55 -40.5 -96t-99.5 -41z" />
<glyph unicode="&#x4ed;" horiz-adv-x="1124" d="M534 915q-84 -1 -144.5 -52t-60.5 -127h-242q0 110 60.5 202t163 144t223.5 52q158 0 274 -76.5t172.5 -202.5t56.5 -283v-31q0 -158 -56.5 -283.5t-172 -201.5t-274.5 -76q-198 0 -322.5 118t-124.5 309h242q0 -85 58.5 -145.5t146.5 -61.5q73 0 127.5 41t81.5 100 t36 132h-339v174h338q-15 116 -76 191.5t-168 76.5zM343 1281q-57 0 -99 41t-42 96q0 58 41.5 98t99.5 40q59 0 99.5 -40t40.5 -98q0 -56 -40.5 -96.5t-99.5 -40.5zM780 1281q-57 0 -99 41t-42 96q0 58 41.5 98t99.5 40q59 0 99 -39.5t40 -98.5q0 -56 -40.5 -96.5 t-98.5 -40.5z" />
<glyph unicode="&#x4ee;" horiz-adv-x="1342" d="M280 -20v227h85q82 0 125 34t68 103l19 50l-532 1095h282l371 -797l321 797h278l-514 -1214q-24 -54 -45.5 -92t-56 -79t-73.5 -66t-96 -41.5t-126 -16.5h-106zM1018 1862v-161h-699v161h699z" />
<glyph unicode="&#x4ef;" horiz-adv-x="1179" d="M299 -419q-105 0 -172 28l61 205q58 -16 102.5 -16.5t79.5 28t59 90.5l23 61l-405 1140h279l257 -844h12l258 844h280l-447 -1252q-101 -284 -387 -284zM939 1489v-160h-700v160h700z" />
<glyph unicode="&#x4f0;" horiz-adv-x="1342" d="M280 -20v227h85q82 0 125 34t68 103l19 50l-532 1095h282l371 -797l321 797h278l-514 -1214q-24 -54 -45.5 -92t-56 -79t-73.5 -66t-96 -41.5t-126 -16.5h-106zM450 1654q-57 0 -99 41t-42 96q0 58 41.5 97.5t99.5 39.5q59 0 99.5 -39.5t40.5 -97.5q0 -55 -41 -96 t-99 -41zM887 1654q-57 0 -99.5 41t-42.5 96q0 58 42 97.5t100 39.5q59 0 99 -39.5t40 -97.5q0 -56 -40.5 -96.5t-98.5 -40.5z" />
<glyph unicode="&#x4f1;" horiz-adv-x="1179" d="M299 -419q-105 0 -172 28l61 205q58 -16 102.5 -16.5t79.5 28t59 90.5l23 61l-405 1140h279l257 -844h12l258 844h280l-447 -1252q-101 -284 -387 -284zM371 1281q-57 0 -99 41t-42 96q0 58 41.5 98t99.5 40q59 0 99.5 -40t40.5 -98q0 -56 -40.5 -96.5t-99.5 -40.5z M807 1281q-57 0 -99 41t-42 96q0 58 41.5 98t99.5 40q59 0 99.5 -40t40.5 -98q0 -56 -40.5 -96.5t-99.5 -40.5z" />
<glyph unicode="&#x4f2;" horiz-adv-x="1342" d="M280 -20v227h85q82 0 125 34t68 103l19 50l-532 1095h282l371 -797l321 797h278l-514 -1214q-24 -54 -45.5 -92t-56 -79t-73.5 -66t-96 -41.5t-126 -16.5h-106zM719 1616l229 304h238l-270 -304h-197zM370 1616l184 304h237l-230 -304h-191z" />
<glyph unicode="&#x4f3;" horiz-adv-x="1179" d="M299 -419q-105 0 -172 28l61 205q58 -16 102.5 -16.5t79.5 28t59 90.5l23 61l-405 1140h279l257 -844h12l258 844h280l-447 -1252q-101 -284 -387 -284zM639 1244l229 304h239l-271 -304h-197zM291 1244l184 304h237l-231 -304h-190z" />
<glyph unicode="&#x4f4;" horiz-adv-x="1531" d="M191 1489h264v-485q0 -137 71.5 -195t223.5 -58q180 0 335 36v702h266v-1489h-266v567q-158 -39 -335 -39q-267 0 -413 116t-146 360v485zM553 1654q-57 0 -99 41t-42 96q0 58 41.5 97.5t99.5 39.5q59 0 99 -39.5t40 -97.5q0 -56 -40.5 -96.5t-98.5 -40.5zM989 1654 q-57 0 -99 41t-42 96q0 58 41.5 97.5t99.5 39.5q59 0 99.5 -39.5t40.5 -97.5q0 -55 -40.5 -96t-99.5 -41z" />
<glyph unicode="&#x4f5;" horiz-adv-x="1198" d="M1068 1117v-1117h-253v354q-97 -23 -196 -23q-230 0 -357 103.5t-127 311.5v373h252v-373q0 -106 56.5 -152.5t175.5 -46.5q96 0 196 25v545h253zM382 1281q-57 0 -99 41t-42 96q0 58 41.5 98t99.5 40q59 0 99 -39.5t40 -98.5q0 -56 -40.5 -96.5t-98.5 -40.5zM818 1281 q-57 0 -99 41t-42 96q0 58 41.5 98t99.5 40q59 0 99.5 -40t40.5 -98q0 -56 -41 -96.5t-99 -40.5z" />
<glyph unicode="&#x4f6;" horiz-adv-x="1186" d="M1105 1489v-226h-688v-1067h252v-555h-257v359h-265v1489h958z" />
<glyph unicode="&#x4f7;" horiz-adv-x="949" d="M874 1117v-216h-481v-708h254v-556h-258v363h-254v1117h739z" />
<glyph unicode="&#x4f8;" horiz-adv-x="1850" d="M428 914h288q255 0 401 -122t146 -328q0 -209 -146.5 -336.5t-400.5 -127.5h-558v1489h270v-575zM1662 1489v-1489h-270v1489h270zM428 695v-474h288q130 0 205 71.5t75 174.5q0 98 -74.5 163t-205.5 65h-288zM726 1591q-57 0 -99 41t-42 96q0 58 41.5 97.5t99.5 39.5 q59 0 99 -39.5t40 -97.5q0 -56 -40.5 -96.5t-98.5 -40.5zM1162 1591q-57 0 -99 41t-42 96q0 58 41.5 97.5t99.5 39.5q59 0 99.5 -39.5t40.5 -97.5q0 -56 -41 -96.5t-99 -40.5z" />
<glyph unicode="&#x4f9;" horiz-adv-x="1629" d="M389 753h254q210 0 329 -102.5t120 -273.5q-1 -169 -120.5 -273t-328.5 -104h-508v1117h254v-364zM1231 0v1117h263v-1117h-263zM389 537v-321h254q86 0 141 44t55 113q0 72 -55 118t-141 46h-254zM597 1281q-57 0 -99 41t-42 96q0 58 41.5 98t99.5 40q59 0 99.5 -40 t40.5 -98q0 -56 -40.5 -96.5t-99.5 -40.5zM1033 1281q-57 0 -99 41t-42 96q0 58 41.5 98t99.5 40q59 0 99.5 -40t40.5 -98q0 -56 -40.5 -96.5t-99.5 -40.5z" />
<glyph unicode="&#x4fa;" horiz-adv-x="1186" d="M1105 1489v-226h-688v-400h212v-166h-212v-462h251v-283q0 -182 -96.5 -285t-270.5 -103q-79 0 -136 14l15 215q36 -13 99 -13q60 0 96 45t36 127v48h-264v697h-215v166h215v626h958z" />
<glyph unicode="&#x4fb;" horiz-adv-x="949" d="M874 1117v-216h-481v-230h220v-166h-220v-553q0 -182 -97 -285t-271 -103q-79 0 -136 14l15 215q36 -13 100 -13q60 0 95.5 45t35.5 127v553h-219v166h219v446h739z" />
<glyph unicode="&#x4fc;" horiz-adv-x="1413" d="M372 1489l328 -545h12l329 545h308l-459 -744l319 -510h248v-283q0 -182 -96.5 -285t-270.5 -103q-79 0 -136 14l15 215q36 -13 99 -13q60 0 96 45t36 127v48h-156l-332 542h-12l-331 -542h-312l471 745l-465 744h309z" />
<glyph unicode="&#x4fd;" horiz-adv-x="1122" d="M63 0l335 559l-327 558h280l213 -380l218 380h278l-331 -558l184 -304l3.5 -7t4.5 -7q41 -68 62 -107.5t42 -109t17 -133.5q-8 -140 -102.5 -233.5t-260.5 -93.5q-80 0 -136 14l14 215q35 -14 91 -14q63 0 104.5 45t34.5 127q-1 37 -17.5 77t-56.5 104l-149 236 l-222 -368h-279z" />
<glyph unicode="&#x4fe;" horiz-adv-x="1413" d="M372 1489l328 -545h12l329 545h308l-405 -657h111v-167h-115l416 -665h-312l-332 542h-12l-331 -542h-312l421 665h-120v167h115l-410 657h309z" />
<glyph unicode="&#x4ff;" horiz-adv-x="1152" d="M351 1117l225 -412l229 412h279l-285 -471h125v-167h-128l293 -479h-277l-236 402l-234 -402h-279l292 479h-128v167h124l-280 471h280z" />
<glyph unicode="&#x2000;" horiz-adv-x="984" />
<glyph unicode="&#x2001;" horiz-adv-x="1969" />
<glyph unicode="&#x2002;" horiz-adv-x="984" />
<glyph unicode="&#x2003;" horiz-adv-x="1969" />
<glyph unicode="&#x2004;" horiz-adv-x="656" />
<glyph unicode="&#x2005;" horiz-adv-x="492" />
<glyph unicode="&#x2006;" horiz-adv-x="328" />
<glyph unicode="&#x2007;" horiz-adv-x="328" />
<glyph unicode="&#x2008;" horiz-adv-x="246" />
<glyph unicode="&#x2009;" horiz-adv-x="393" />
<glyph unicode="&#x200a;" horiz-adv-x="109" />
<glyph unicode="&#x2010;" horiz-adv-x="954" d="M812 729v-217h-670v217h670z" />
<glyph unicode="&#x2011;" horiz-adv-x="954" d="M812 729v-217h-670v217h670z" />
<glyph unicode="&#x2012;" horiz-adv-x="954" d="M812 729v-217h-670v217h670z" />
<glyph unicode="&#x2013;" horiz-adv-x="1024" d="M1024 729v-217h-1024v217h1024z" />
<glyph unicode="&#x2014;" horiz-adv-x="2048" d="M2048 729v-217h-2048v217h2048z" />
<glyph unicode="&#x2018;" horiz-adv-x="466" d="M108 1024v148q-1 95 52.5 200t134.5 171l122 -80q-100 -151 -99 -289v-150h-210z" />
<glyph unicode="&#x2019;" horiz-adv-x="437" d="M359 1489v-148q0 -96 -53 -199t-134 -171l-123 79q100 151 100 290v149h210z" />
<glyph unicode="&#x201a;" horiz-adv-x="466" d="M357 186v-148q0 -96 -53 -199t-134 -171l-122 79q100 151 100 289v150h209z" />
<glyph unicode="&#x201c;" horiz-adv-x="835" d="M108 1024v148q-1 95 52.5 200t134.5 171l122 -80q-100 -151 -99 -289v-150h-210zM477 1024v148q-1 95 52.5 200t134.5 171l122 -80q-100 -151 -99 -289v-150h-210z" />
<glyph unicode="&#x201d;" horiz-adv-x="834" d="M359 1489v-148q0 -96 -53 -199t-134 -171l-123 79q100 151 100 290v149h210zM727 1489v-148q0 -96 -53 -199t-134 -171l-123 79q100 151 100 290v149h210z" />
<glyph unicode="&#x201e;" horiz-adv-x="834" d="M356 186v-148q0 -96 -53 -199t-134 -171l-122 79q100 151 100 289v150h209zM724 186v-148q0 -96 -53 -199t-134 -171l-122 79q100 151 100 289v150h209z" />
<glyph unicode="&#x2026;" horiz-adv-x="1650" d="M302 -16q-67 0 -114 46.5t-46 113.5q-1 65 46 112t114 47q65 0 112 -47t48 -112q-1 -66 -48 -113t-112 -47zM831 -16q-67 0 -114 46.5t-46 113.5q-1 65 46 112t114 47q65 0 112 -47t48 -112q-1 -66 -48 -113t-112 -47zM1359 -16q-67 0 -114 46.5t-46 113.5q-1 65 46 112 t114 47q65 0 112 -47t48 -112q-1 -66 -48 -113t-112 -47z" />
<glyph unicode="&#x202f;" horiz-adv-x="393" />
<glyph unicode="&#x2039;" horiz-adv-x="779" d="M656 160h-237l-294 436v21l294 436h237l-276 -446z" />
<glyph unicode="&#x203a;" horiz-adv-x="779" d="M115 160l276 447l-276 446h237l294 -436v-21l-294 -436h-237z" />
<glyph unicode="&#x205f;" horiz-adv-x="492" />
<glyph unicode="&#x20ac;" horiz-adv-x="1390" d="M1092 972l-70 -155h-509q-2 -48 -2 -74q0 -25 2 -71h445l-75 -157h-346q38 -146 127 -219t215 -73q154 0 289 109l103 -216q-157 -136 -392 -136q-233 0 -397 141t-217 394h-208l57 157h130q-2 46 -2 71q0 26 2 74h-187l57 155h151q53 253 217 395.5t397 142.5 q228 0 397 -141l-102 -217q-146 115 -295 115q-125 0 -214.5 -74.5t-127.5 -220.5h555z" />
<glyph unicode="&#x2122;" horiz-adv-x="1291" d="M876 954l-133 324v-324h-122v535h146l143 -366l144 366h145v-535h-121v325l-135 -325h-67zM244 954v434h-163v101h447v-101h-163v-434h-121z" />
<glyph unicode="&#x25fc;" horiz-adv-x="1116" d="M0 1116h1116v-1116h-1116v1116z" />
</font>
</defs>
</svg>
