<svg width="69" height="44" fill="none" xmlns="http://www.w3.org/2000/svg"><g clip-path="url(#a)"><path d="M34.55.038h29.484c2.627 0 4.277 1.098 4.762 3.166a9.72 9.72 0 0 1 .197 2.136v33.388c0 3.787-1.439 5.302-5.247 5.302H5.232c-3.717 0-5.209-1.515-5.216-5.196V5.317c0-3.75 1.514-5.249 5.3-5.256C15.046-.008 24.797.038 34.55.038Zm0 1.378H5.535c-3.104 0-4.073.955-4.08 4.015v33.903c0 2.045.96 3.03 3.028 3.25.425.041.852.056 1.28.045H63.26c.632-.01 1.262-.068 1.886-.174a2.536 2.536 0 0 0 2.324-2.333c.088-.587.131-1.18.129-1.773V5.855a12.75 12.75 0 0 0-.174-2.151 2.462 2.462 0 0 0-2.098-2.151 10.756 10.756 0 0 0-2.052-.16l-28.726.023Z" fill="#000"/><path fill-rule="evenodd" clip-rule="evenodd" d="M49.881 32.646v-1.924c.25.037.504.052.758.045 1.097 0 1.696-.462 2.059-1.65 0 0 .204-.705.204-.713l-4.164-11.589h2.574l2.93 9.423h.039l2.937-9.423h2.499l-4.331 12.18c-.992 2.802-2.135 3.711-4.543 3.711a7.87 7.87 0 0 1-.97-.06h.008Zm-31.043-18.58c.64-.773.958-1.764.886-2.765a3.846 3.846 0 0 0-2.544 1.318 3.651 3.651 0 0 0-.909 2.651 3.185 3.185 0 0 0 2.567-1.204Zm.878 1.401c-1.416-.09-2.62.803-3.301.803s-1.711-.758-2.832-.758a4.178 4.178 0 0 0-3.551 2.16c-1.514 2.62-.401 6.513 1.075 8.657.757 1.053 1.59 2.22 2.726 2.181 1.136-.038 1.514-.704 2.817-.704 1.302 0 1.688.704 2.831.681 1.144-.022 1.924-1.06 2.643-2.12.51-.75.91-1.57 1.189-2.432a3.839 3.839 0 0 1-2.325-3.446 3.91 3.91 0 0 1 1.863-3.28 4.045 4.045 0 0 0-3.15-1.712l.015-.03Zm12.334-2.954a4.973 4.973 0 0 1 5.225 5.219 5.04 5.04 0 0 1-5.3 5.234h-3.408v5.423h-2.483V12.483l5.966.03Zm-3.483 8.385h2.825c2.142 0 3.361-1.151 3.361-3.159 0-2.007-1.219-3.143-3.354-3.143h-2.847v6.302h.015Zm9.351 4.204c0-2.023 1.515-3.273 4.3-3.424l3.166-.19v-.886c0-1.287-.863-2.06-2.317-2.06-1.454 0-2.234.66-2.446 1.697H38.35c.128-2.09 1.915-3.636 4.77-3.636 2.854 0 4.604 1.515 4.604 3.787v7.999h-2.272v-1.901h-.045a4.143 4.143 0 0 1-3.657 2.098c-2.272 0-3.847-1.409-3.847-3.484h.015Zm7.466-1.046v-.916l-2.847.182c-1.416.098-2.219.72-2.219 1.712s.833 1.674 2.113 1.674a2.773 2.773 0 0 0 2.938-2.652h.015Z" fill="#010101"/></g><defs><clipPath id="a"><path fill="#fff" d="M0 0h69v44H0z"/></clipPath></defs></svg>