<svg width="66" height="66" fill="none" xmlns="http://www.w3.org/2000/svg"><path d="M33 0C14.803 0 0 14.804 0 33c0 18.196 14.803 33 33 33s33-14.804 33-33C66 14.804 51.197 0 33 0Zm0 63.25C16.32 63.25 2.75 49.68 2.75 33S16.32 2.75 33 2.75 63.25 16.32 63.25 33 49.68 63.25 33 63.25Z" fill="#FF4E4E"/><path d="M26.125 13.75h-8.25a4.13 4.13 0 0 0-4.125 4.125v8.25a4.13 4.13 0 0 0 4.125 4.125h8.25a4.13 4.13 0 0 0 4.125-4.125v-8.25a4.13 4.13 0 0 0-4.125-4.125ZM27.5 26.125c0 .759-.618 1.375-1.375 1.375h-8.25a1.377 1.377 0 0 1-1.375-1.375v-8.25c0-.759.617-1.375 1.375-1.375h8.25c.757 0 1.375.616 1.375 1.375v8.25ZM48.125 13.75h-8.25a4.13 4.13 0 0 0-4.125 4.125v8.25a4.13 4.13 0 0 0 4.125 4.125h8.25a4.13 4.13 0 0 0 4.125-4.125v-8.25a4.13 4.13 0 0 0-4.125-4.125ZM49.5 26.125c0 .759-.618 1.375-1.375 1.375h-8.25a1.377 1.377 0 0 1-1.375-1.375v-8.25c0-.759.618-1.375 1.375-1.375h8.25c.757 0 1.375.616 1.375 1.375v8.25ZM26.125 35.75h-8.25a4.13 4.13 0 0 0-4.125 4.125v8.25a4.13 4.13 0 0 0 4.125 4.125h8.25a4.13 4.13 0 0 0 4.125-4.125v-8.25a4.13 4.13 0 0 0-4.125-4.125ZM27.5 48.125c0 .759-.618 1.375-1.375 1.375h-8.25a1.377 1.377 0 0 1-1.375-1.375v-8.25c0-.759.617-1.375 1.375-1.375h8.25c.757 0 1.375.616 1.375 1.375v8.25ZM48.125 35.75h-8.25a4.13 4.13 0 0 0-4.125 4.125v8.25a4.13 4.13 0 0 0 4.125 4.125h8.25a4.13 4.13 0 0 0 4.125-4.125v-8.25a4.13 4.13 0 0 0-4.125-4.125ZM49.5 48.125c0 .759-.618 1.375-1.375 1.375h-8.25a1.377 1.377 0 0 1-1.375-1.375v-8.25c0-.759.618-1.375 1.375-1.375h8.25c.757 0 1.375.616 1.375 1.375v8.25Z" fill="#FF4E4E"/></svg>