<svg xmlns="http://www.w3.org/2000/svg"><defs><font id="poppinsextralight" horiz-adv-x="1378"><font-face units-per-em="2048" ascent="1638" descent="-410"/><glyph horiz-adv-x="0"/><glyph horiz-adv-x="682"/><glyph horiz-adv-x="0"/><glyph horiz-adv-x="0"/><glyph horiz-adv-x="577"/><glyph horiz-adv-x="577"/><glyph horiz-adv-x="577"/><glyph horiz-adv-x="577"/><glyph unicode="!" horiz-adv-x="514" d="M178 74q0 35 22.5 57.5T258 154q33 0 55.5-22.5T336 74t-22.5-57.5T258-6q-35 0-57.5 22.5T178 74zm23 1364h102L293 350h-80z"/><glyph unicode="&quot;" horiz-adv-x="471" d="M78 1626h104l-18-381H98zm211 0h102l-16-381h-68z"/><glyph unicode="#" horiz-adv-x="1591" d="M78 473v82h346l84 393H184v82h340l105 486h90l-105-486h484l104 486h90l-104-486h311v-82h-328l-84-393h306v-82h-324L969 0h-90l100 473H496L395 0h-90l101 473H78zm436 82h483l84 393H598z"/><glyph unicode="$" horiz-adv-x="1159" d="M123 1090q0 102 48 184t141.5 130 222.5 48v178h65v-180q164-16 262.5-108.5T983 1122h-96q-18 84-90 158t-197 90V766q131-37 215-76t140.5-117.5T1012 362q0-94-44-180T830.5 41 600-14v-164h-65v166Q359 4 248 107.5T127 354h96q12-98 91-184T535 68v630q-135 39-217 76T179.5 887 123 1090zm94 4q0-95 42-154t108.5-93T535 784v590q-145-2-231.5-74.5T217 1094zM600 63q154 3 237 86.5T920 358q0 139-83 207T600 678V63z"/><glyph unicode="%" horiz-adv-x="1409" d="M88 1176q0 122 78 200t196 78q119 0 197-78t78-200q0-123-78-201t-197-78-196.5 78T88 1176zm80 0q0-96 54-155.5T362 961t140.5 59 54.5 156q0 98-54 156.5T362 1391q-86 0-140-58.5T168 1176zM229 0l852 1438h97L324 0h-95zm543 260q0 123 78 201t197 78 195.5-78 76.5-201-77-200.5T1047-18q-119 0-197 77.5T772 260zm78 0q0-96 54-154.5T1044 47q88 0 142.5 58.5T1241 260q0 98-54 156.5T1044 475q-86 0-140-58.5T850 260z"/><glyph unicode="&amp;" horiz-adv-x="1425" d="M84 408q0 154 87 265t253 175q-80 84-116 156.5T272 1159q0 131 93.5 213t244.5 82q90 0 166-37t119-104.5 43-157.5h-92q0 102-69.5 161.5T608 1376q-109 0-176-60.5T365 1159q0-72 36.5-136.5T518 877l522-537q57 82 129 201l115 198h98l-139-241q-73-129-141-219L1372 0h-117l-206 211Q945 90 827 33.5T559-23q-137 0-245.5 54.5t-169 152T84 408zm92 2q0-100 49-180t136.5-125.5T559 59q131 0 232.5 51.5T987 274L483 786l-6-2Q176 673 176 410z"/><glyph unicode="'" horiz-adv-x="272" d="M78 1626h115l-23-381h-66z"/><glyph unicode="(" horiz-adv-x="776" d="M158 760q0 358 114.5 659T582 1913h98v-10q-211-213-321.5-511T248 760q0-332 108.5-625T670-371v-10h-99Q383-188 270.5 107.5T158 760z"/><glyph unicode=")" horiz-adv-x="776" d="M96 1903v10h99q195-193 309-494t114-659q0-356-112.5-652T205-381h-99v10q205 213 313.5 506T528 760q0 334-110.5 632T96 1903z"/><glyph unicode="*" horiz-adv-x="919" d="m115 973 299 145-295 146 39 71 280-174-14 334h82l-14-334 278 174 39-71-295-146 299-145-41-72-280 172 14-336h-82l14 336-280-174z"/><glyph unicode="+" horiz-adv-x="1273" d="M115 729v78h477v483h88V807h479v-78H680V246h-88v483H115z"/><glyph unicode="," horiz-adv-x="292" d="m-33-309 156 524h106L37-309h-70z"/><glyph unicode="-" horiz-adv-x="987" d="M-4 729v80h770v-80H-4z"/><glyph unicode="." horiz-adv-x="305" d="M74 74q0 35 22.5 57.5T154 154q33 0 55-22.5T231 74t-22.5-57.5T154-6q-35 0-57.5 22.5T74 74z"/><glyph unicode="/" horiz-adv-x="819" d="m78-330 565 2249h94L170-330H78z"/><glyph unicode="0" horiz-adv-x="1232" d="M137 735q0 355 102.5 546.5T616 1473q272 0 375-191.5T1094 735q0-358-102.5-551.5T616-10q-274 0-376.5 193.5T137 735zm92 0q0-209 30-351t115-226 242-84q158 0 243 84t115 226 30 351q0 205-30 346.5T859 1306t-243 83-242.5-83T259 1081.5 229 735z"/><glyph unicode="1" horiz-adv-x="530" d="M47 1372v84h303V0h-92v1372H47z"/><glyph unicode="2" horiz-adv-x="1167" d="M102 6v62q385 266 607.5 513.5T932 1057q0 150-79 244t-257 94-272.5-108.5T217 999h-90q14 225 139 350.5T596 1475q186 0 306-104.5t120-311.5q0-256-234.5-516T252 84h817V6H102z"/><glyph unicode="3" horiz-adv-x="1187" d="M106 412h91q25-152 131-247t280-95q176 0 267.5 88T967 385q0 168-128 252t-366 84h-39v80h41q463 2 463 303 0 131-87 211t-245 80q-154 0-259-81t-126-239h-90q19 187 144.5 293.5T608 1475q133 0 227.5-48.5T979 1296t49-186q0-131-80-226.5T705 770v-12q158-25 254-121t96-258q0-172-114-281.5T608-12Q401-12 267 98.5T106 412z"/><glyph unicode="4" horiz-adv-x="1214" d="M55 369v71l781 1010h104V449h234v-80H940V0h-90v369H55zm109 80h688v890z"/><glyph unicode="5" horiz-adv-x="1239" d="M145 395h91q31-158 137-240.5T635 72q199 0 299 115.5T1034 492q0 184-101.5 288.5T643 885q-129 0-230.5-57.5T256 670h-86v786h874v-82H258V786q55 78 161.5 128.5T651 965q166 0 271.5-67T1075 724.5t47-230.5q0-139-51-253T910.5 58.5 635-10Q434-10 304 99.5T145 395z"/><glyph unicode="6" horiz-adv-x="1271" d="M145 717q0 367 122 563.5T662 1477q190 0 299.5-105.5T1094 1090h-88q-23 147-109 228t-235 81q-211 0-323-156T227 739l2-80q33 141 158 224.5T678 967q221 0 346-133.5T1149 469q0-131-49-239.5t-155.5-174T678-10q-307 0-420 193.5T145 717zm101-215q0-115 46-214.5T434 128t240-60q176 0 280.5 106.5T1059 467q0 201-104.5 310.5T664 887q-105 0-201-43T306.5 714 246 502z"/><glyph unicode="7" horiz-adv-x="1058" d="M37 1374v80h942v-74L406 0h-95l582 1374H37z"/><glyph unicode="8" horiz-adv-x="1261" d="M117 375q0 147 87 246.5T442 752q-143 36-214.5 126.5T156 1096q0 168 126 272.5T631 1473t349-104.5 126-272.5q0-125-71.5-216.5T819 752q154-33 241-131.5t87-245.5q0-195-138.5-308.5T631-47Q391-47 254 66.5T117 375zm88 2q0-162 115.5-254T631 31t309.5 92T1055 377q0 168-119 251t-305 83q-187 0-306.5-82T205 377zm41 710q0-141 104.5-222T631 784t280.5 82 104.5 224q0 145-104.5 225T631 1395t-280.5-79T246 1087z"/><glyph unicode="9" horiz-adv-x="1269" d="M133 997q0 205 118 341.5T606 1475q299 0 410.5-190.5T1128 754q0-375-116.5-570.5T621-12Q428-12 317.5 95.5T186 381h88q21-150 110-231.5T625 68q207 0 314.5 153.5T1047 719l-3 80q-31-135-152.5-215T608 504q-221 0-348 131T133 997zm88 0q0-199 104.5-307T618 582q105 0 199 44t152.5 130 58.5 209q0 117-45 215t-140 157.5-237 59.5q-174 0-279.5-107.5T221 997z"/><glyph unicode=":" horiz-adv-x="307" d="M74 74q0 35 22.5 57.5T154 154q33 0 55-22.5T231 74t-22.5-57.5T154-6q-35 0-57.5 22.5T74 74zm0 909q0 35 22.5 57.5T154 1063q33 0 55-22.5t22-57.5-22.5-57.5T154 903q-35 0-57.5 22.5T74 983z"/><glyph unicode=";" horiz-adv-x="376" d="m12-309 156 524h106L82-309H12zM129 987q0 35 22.5 57.5T209 1067q33 0 55-22.5t22-57.5-22.5-57.5T209 907q-35 0-57.5 22.5T129 987z"/><glyph unicode="&lt;" horiz-adv-x="905" d="m113 768 540 481h117L229 768l541-479H653z"/><glyph unicode="=" horiz-adv-x="1269" d="M127 535v79h1016v-79H127zm0 389v80h1016v-80H127z"/><glyph unicode="&gt;" horiz-adv-x="894" d="m121 289 541 479-541 481h117l540-481-540-479H121z"/><glyph unicode="?" horiz-adv-x="1017" d="M63 1057q0 121 55.5 211t154 137 221.5 47q127 0 226-51t155.5-143.5T932 1042q0-432-522-436l-4-262h-78l-6 332h40q219 0 350.5 75.5T844 1042q0 152-96.5 242T496 1374q-158 0-251-86t-93-231H63zM287 74q0 35 22.5 57.5T367 154q33 0 55-22.5T444 74t-22.5-57.5T367-6q-35 0-57.5 22.5T287 74z"/><glyph unicode="@" horiz-adv-x="2023" d="M158 285q0 281 127 510t350 362 502 133q217 0 381.5-86t256-239.5T1866 612q0-160-48.5-303T1679 77t-213-89q-98 0-146 60.5T1276 209q-61-104-162.5-162.5T897-12q-154 0-241 94t-87 254q0 150 62.5 279.5T807 824t254 79q111 0 185.5-53T1348 696l30 181h82l-104-601q-6-33-6-65 0-72 33.5-113t97.5-41q92 0 161.5 82T1749 347t37 255q0 188-81 327.5T1474.5 1145t-350.5 76q-248 0-450.5-124t-318-336T240 297q0-193 79.5-331t228-211.5T893-319q182 0 338 67l14-70q-174-70-373-69-211 0-372.5 83T248-72.5 158 285zm499 63q0-131 70-208t195-77q94 0 176 48.5T1236 251t73 214q8 41 8 86 0 125-66.5 201.5T1057 829q-119 0-210-68.5t-140.5-179T657 348z"/><glyph unicode="A" horiz-adv-x="1284" d="m63 0 529 1405h102L1221 0h-101L983 369H301L164 0H63zm267 446h624l-311 838z"/><glyph unicode="B" horiz-adv-x="1185" d="M168 0v1438h448q215 0 325-99.5t110-257.5q0-137-74-222T788 743q125-22 210-122.5t85-235.5q0-111-52-198T875.5 50 625 0H168zm92 80h358q175 0 274 83t99 228q0 143-101.5 228.5T612 705H260V80zm0 704h361q162 0 248.5 77t86.5 212q0 131-86 207t-260 76H260V784z"/><glyph unicode="C" horiz-adv-x="1576" d="M111 717q0 213 89 380t245.5 261 351.5 94q246 0 413.5-114.5T1456 1016h-106q-61 164-203.5 259T797 1370q-166 0-301.5-79t-213-227.5T205 717q0-197 77.5-343.5t213-226T797 68q207 0 349 95t204 259h106q-78-207-246-321.5T797-14q-195 0-351.5 93T200 339t-89 378z"/><glyph unicode="D" horiz-adv-x="1441" d="M168 0v1438h403q365 0 562.5-190.5T1331 717t-197.5-528.5T571 0H168zm92 78h311q326 0 496 169t170 470q0 303-170 473t-496 170H260V78z"/><glyph unicode="E" horiz-adv-x="1005" d="M168 0v1438h727v-78H260V760h574v-78H260V78h635V0H168z"/><glyph unicode="F" horiz-adv-x="985" d="M168 0v1438h741v-78H260V760h567v-78H260V0h-92z"/><glyph unicode="G" horiz-adv-x="1611" d="M111 717q0 213 90 380t249.5 260 358.5 93q231 0 400-115.5t247-320.5h-106q-61 162-203.5 258T809 1368q-170 0-307-80t-217-227.5T205 717q0-197 80-344.5t217-226T809 68q164 0 297 73.5T1319 351t88 319H766v78h735v-62q-6-201-96-360.5T1159.5 76 809-14q-199 0-358.5 93T201 339t-90 378z"/><glyph unicode="H" horiz-adv-x="1361" d="M168 0v1438h92V774h840v664h92V0h-92v696H260V0h-92z"/><glyph unicode="I" horiz-adv-x="430" d="M168 0v1438h92V0h-92z"/><glyph unicode="J" horiz-adv-x="948" d="M70 367h92q0-131 63.5-215T426 68q131 0 189.5 74.5T674 322v1116h94V322q0-150-92-243T426-14Q260-14 165 87T70 367z"/><glyph unicode="K" horiz-adv-x="1087" d="M168 0v1438h92V754l662 684h118L340 717 1042 0H922L260 678V0h-92z"/><glyph unicode="L" horiz-adv-x="835" d="M168 0v1438h92V78h535V0H168z"/><glyph unicode="M" horiz-adv-x="1679" d="M168 0v1407h98L840 121l573 1286h96V0h-92v1214L877 0h-74L260 1214V0h-92z"/><glyph unicode="N" horiz-adv-x="1366" d="M168 0v1436h92l844-1282v1282h92V0h-92L260 1286V0h-92z"/><glyph unicode="O" horiz-adv-x="1617" d="M111 717q0 213 90 380t249.5 260 358.5 93 358.5-93 249.5-260 90-380q0-211-90-379T1167.5 77 809-16 450.5 77 201 338t-90 379zm94 0q0-197 80-344.5t217-227T809 66t307 79.5 216 227 79 344.5q0 199-79 346t-216 227-307 80-307-80-217-227.5T205 717z"/><glyph unicode="P" horiz-adv-x="1118" d="M168 0v1438h399q238 0 354.5-109.5T1038 1032q0-190-118.5-295.5T567 631H260V0h-92zm92 713h307q379 0 379 319 0 158-90 241t-289 83H260V713z"/><glyph unicode="Q" horiz-adv-x="1619" d="M111 717q0 213 90 380t249.5 260 358.5 93 358.5-93 249.5-260 90-380q0-227-103.5-401.5T1124 53l406-346h-131L1034 18Q928-16 815-16h-6q-199 0-358.5 93T201 338t-90 379zm94 0q0-197 80-344.5t217-227T809 66t307 79.5 216 227 79 344.5q0 199-79 346t-216 227-307 80-307-80-217-227.5T205 717z"/><glyph unicode="R" horiz-adv-x="1148" d="M168 0v1438h395q240 0 359.5-113t119.5-299q0-166-93-273.5T678 621L1055 0H944L575 612H260V0h-92zm92 690h307q190 0 284.5 92t94.5 244q0 330-383 330H260V690z"/><glyph unicode="S" horiz-adv-x="1134" d="M111 354h96q16-113 105-200.5T584 66q106 0 185 38.5T891 211t43 149q0 104-50 166t-125 92.5T557 684q-139 37-224 74T189.5 871.5 131 1081q0 102 54.5 187.5T340 1403t231 49q190 0 307-94t140-232h-98q-12 55-54.5 112.5t-119 95.5-183.5 38q-143 0-241.5-79T223 1083q0-104 51.5-166.5t126-94T602 758q141-39 224-75t141.5-112.5T1026 362q0-96-51-182T824.5 40 584-14q-140 0-244 49T177.5 168 111 354z"/><glyph unicode="T" horiz-adv-x="1013" d="M51 1360v78h912v-78H553V0h-92v1360H51z"/><glyph unicode="U" horiz-adv-x="1320" d="M160 541v897h92V539q0-244 110.5-357.5T664 68q188 0 296.5 112.5T1069 539v899h92V541q0-281-135-418T664-14 298.5 124 160 541z"/><glyph unicode="V" horiz-adv-x="1308" d="M55 1438h101L653 109l502 1329h98L705 0H602z"/><glyph unicode="W" horiz-adv-x="1902" d="M63 1438h99L506 129l395 1309h103l391-1317 346 1317h100L1444 0h-101L950 1294 551 0h-96z"/><glyph unicode="X" horiz-adv-x="1112" d="M72 1438h104l383-639 377 639h104L606 719 1038 0H934L547 645 176 0H74l426 725z"/><glyph unicode="Y" horiz-adv-x="1107" d="M53 1438h105l397-770 395 770h105L602 582V0h-92v582z"/><glyph unicode="Z" horiz-adv-x="1036" d="M80 0v78l756 1276H100v84h842v-80L186 82h770V0H80z"/><glyph unicode="[" horiz-adv-x="614" d="M209-379v2292h254v-78H297V-301h166v-78H209z"/><glyph unicode="\" horiz-adv-x="1103" d="M135 1919h94L922-330h-93z"/><glyph unicode="]" horiz-adv-x="614" d="M152-301h165v2136H152v78h254V-379H152v78z"/><glyph unicode="^" horiz-adv-x="1185" d="m80 352 475 1053h76l475-1053h-94l-416 934-422-934H80z"/><glyph unicode="_" horiz-adv-x="1234" d="M129-68h985v-84H129v84z"/><glyph unicode="`" horiz-adv-x="540" d="M66 1456v90l401-268v-76z"/><glyph unicode="a" d="M111 557q0 172 68.5 301T370 1056.5t277 69.5q176 0 299-86t172-219v291h92V0h-92v293q-49-135-173-222T647-16q-156 0-277.5 70.5T179.5 255 111 557zm94 0q0-152 57-262.5T422.5 125 659 66q129 0 234.5 60t165 172 59.5 259q0 145-60.5 257t-165 172.5T659 1047q-135 0-237.5-58.5T262 819.5 205 557z"/><glyph unicode="b" d="M168 0v1516h92V819q51 135 174 221t297 86q156 0 277.5-69.5T1199 858t69-301-69-302-190.5-200.5T731-16q-174 0-298 86T260 291V0h-92zm92 557q0-147 59.5-259t164-172T717 66q135 0 238.5 59t161 170 57.5 262q0 152-57.5 262.5t-161 169T717 1047q-129 0-233.5-60.5T319.5 814 260 557z"/><glyph unicode="c" horiz-adv-x="1271" d="M111 557q0 174 68.5 303T370 1057.5t279 68.5q209 0 343-104t167-281h-96q-27 143-138.5 225.5T649 1049q-123 0-223-54.5t-160.5-166T205 557q0-162 60.5-272.5t160.5-166T649 63q164 0 275.5 82T1063 371h96q-33-174-168-280.5T649-16q-158 0-279.5 69.5T179.5 253 111 557z"/><glyph unicode="d" d="M111 557q0 172 68.5 301T370 1056.5t277 69.5q170 0 295-85t176-220v695h92V0h-92v295q-49-137-172-224T647-16q-156 0-277.5 70.5T179.5 255 111 557zm94 0q0-152 57-262.5T422.5 125 659 66q129 0 234.5 60t165 172 59.5 259q0 145-60.5 257t-165 172.5T659 1047q-135 0-237.5-58.5T262 819.5 205 557z"/><glyph unicode="e" horiz-adv-x="1280" d="M111 557q0 174 68.5 303T371 1057.5t280 68.5q160 0 278-68.5t179-182 61-244.5q0-74-4-111H205q4-150 65.5-252T432 114.5 651 63q164 0 274.5 81T1065 365h96q-33-170-168-275.5T651-16q-156 0-278.5 69.5T180.5 253 111 557zm94 39h872q1 14 1 27 0 129-53 223-58 102-158.5 152.5T649 1049t-216-50.5-161.5-153T205 596z"/><glyph unicode="f" horiz-adv-x="659" d="M43 1030v82h168v78q0 174 88 259t289 85v-82q-160 0-222.5-61.5T303 1190v-78h289v-82H303V0h-92v1030H43z"/><glyph unicode="g" d="M111 557q0 172 68.5 301T370 1056.5t277 69.5q176 0 299-85t172-218v289h92V-35q0-154-67.5-269.5t-182-178T705-545q-209 0-346.5 100.5T178-174h92q41-133 154-212t281-79q117 0 211 52.5T1064-263t54 228v326q-49-133-173-220T647-16q-156 0-277.5 70.5T179.5 255 111 557zm94 0q0-152 57-262.5T422.5 125 659 66q129 0 234.5 60t165 172 59.5 259q0 145-60.5 257t-165 172.5T659 1047q-135 0-237.5-58.5T262 819.5 205 557z"/><glyph unicode="h" horiz-adv-x="1275" d="M168 0v1516h92V877q47 125 157.5 191.5T672 1135q196 0 321-122t125-362V0h-90v645q0 199-100.5 304.5T655 1055q-180 0-287.5-115T260 600V0h-92z"/><glyph unicode="i" horiz-adv-x="430" d="M137 1440q0 35 22.5 57.5T215 1520t55.5-22.5T293 1440q0-37-22.5-58.5T215 1360t-55.5 21.5T137 1440zM168 0v1112h92V0h-92z"/><glyph unicode="j" horiz-adv-x="444" d="M-53-442h76q86 0 123.5 35.5T184-279v1391h92V-287q0-119-58-178T33-524h-86v82zm205 1882q0 35 22.5 57.5T229 1520q33 0 56.5-22.5T309 1440t-23.5-57.5T229 1360q-32 0-54.5 21.5T152 1440z"/><glyph unicode="k" horiz-adv-x="894" d="M168 0v1516h92V608l477 504h129L328 559 872 0H745L260 510V0h-92z"/><glyph unicode="l" horiz-adv-x="430" d="M168 0v1516h92V0h-92z"/><glyph unicode="m" horiz-adv-x="2074" d="M168 0v1112h92V870q47 131 152.5 198t242.5 67q152 0 261.5-79T1067 823q39 154 151.5 233t264.5 79q190 0 311-122t121-362V0h-90v645q0 199-95.5 304.5T1468 1055q-172 0-276.5-119T1087 592V0h-90v645q0 199-95 304.5T641 1055q-172 0-276.5-119T260 592V0h-92z"/><glyph unicode="n" horiz-adv-x="1275" d="M168 0v1112h92V877q47 125 156.5 191.5T670 1135q198 0 323-122t125-362V0h-90v645q0 199-100.5 304.5T655 1055q-180 0-287.5-115T260 600V0h-92z"/><glyph unicode="o" horiz-adv-x="1320" d="M111 557q0 172 71.5 302T380 1057.5t282 68.5 280.5-68.5 195-197.5 70.5-303-71.5-304T939 53.5 657-16q-155 0-280 69.5T181.5 253 111 557zm94 0q0-162 62.5-272.5t166-164.5T657 66q121 0 226.5 54t169 164.5T1116 557q0 160-63.5 270.5t-168 165T659 1047t-224-54.5-166.5-165T205 557z"/><glyph unicode="p" d="M168-524v1636h92V819q47 135 171 221t300 86q156 0 277.5-69.5T1199 858t69-301-69-302-190.5-200.5T731-16q-174 0-298 87T260 291v-815h-92zm92 1081q0-147 59.5-259t164-172T717 66q135 0 238.5 59t161 170 57.5 262q0 152-57.5 262.5t-161 169T717 1047q-129 0-233.5-60.5T319.5 814 260 557z"/><glyph unicode="q" d="M111 557q0 172 68.5 301T370 1056.5t277 69.5q176 0 300-86t171-219v291h92V-524h-92v815q-47-133-172-220T645-16q-154 0-275.5 70.5T179.5 255 111 557zm94 0q0-152 57-262.5T422.5 125 659 66q129 0 234.5 60t165 172 59.5 259q0 145-60.5 257t-165 172.5T659 1047q-135 0-237.5-58.5T262 819.5 205 557z"/><glyph unicode="r" horiz-adv-x="716" d="M168 0v1112h92V883q41 123 145.5 187.5T672 1135v-97h-31q-164 0-272.5-93T260 641V0h-92z"/><glyph unicode="s" horiz-adv-x="1017" d="M102 299h95q10-109 99-172.5T539 63q127 0 201.5 65T815 287q0 66-40 107.5t-99.5 64T514 508q-123 33-198.5 64.5t-129 95T133 838q0 78 47 144.5t131 105 191 38.5q174 0 281.5-87T899 799h-92q-6 111-86 180.5T500 1049q-119 0-197-61.5T225 838q0-78 44-126t108.5-74T549 584q117-31 187.5-60.5t119.5-86T905 287q0-86-47-156T727 22.5 539-16q-187 0-304.5 81.5T102 299z"/><glyph unicode="t" horiz-adv-x="710" d="M45 1032v80h168v283h92v-283h330v-80H305V297q0-123 45-169t160-46h125V0H496Q351 0 282 68.5T213 297v735H45z"/><glyph unicode="u" horiz-adv-x="1275" d="M158 465v647h90V471q0-199 100.5-304.5T621 61q180 0 287.5 115T1016 516v596h92V0h-92v242Q969 115 859.5 48.5T608-18q-199 0-324.5 121.5T158 465z"/><glyph unicode="v" horiz-adv-x="1087" d="M35 1112h100L545 100l409 1012h99L592 0h-96z"/><glyph unicode="w" horiz-adv-x="1656" d="M35 1112h96L430 104l356 1008h88l355-1003 299 1003h94L1272 0h-88L829 985 473 0h-88z"/><glyph unicode="x" horiz-adv-x="897" d="m37 0 358 561-354 551h104l310-479 303 479h96L500 559 860 0H756L442 489 135 0H37z"/><glyph unicode="y" horiz-adv-x="1073" d="M35 1112h100L553 102l389 1010h94L389-522h-94L502 0z"/><glyph unicode="z" horiz-adv-x="868" d="M70 0v78l610 956H84v78h700v-78L172 78h627V0H70z"/><glyph unicode="{" horiz-adv-x="724" d="M129 721v84q133 37 178 107.5t45 160.5q0 94-26 258-2 16-14.5 108.5T299 1616q0 150 77 220.5t216 70.5h82v-82h-70q-104 0-158.5-50.5T391 1612q0-63 8.5-140t18.5-149q10-66 17-133.5t7-118.5q0-117-58-196.5T205 766v-4q121-29 179-110t58-197q0-51-7-119t-17-133q-10-72-18.5-149T391-86q0-113 54.5-163T604-299h70v-82h-82q-139 0-216 70.5T299-90q0 84 12.5 176T326 195q27 164 26 258 0 90-45 160.5T129 721z"/><glyph unicode="|" horiz-adv-x="462" d="M184-190v1796h92V-190h-92z"/><glyph unicode="}" horiz-adv-x="724" d="M51-299h70q104 0 158.5 50T334-86q0 63-8.5 140T307 203q-10 66-17 133t-7 119q0 117 58 197.5T520 762v4q-121 29-179 108.5T283 1071q0 51 7 118.5t17 133.5q10 72 18.5 148.5T334 1612q0 113-54.5 163T121 1825H51v82h82q139 0 216-71t77-220q0-84-12.5-176T399 1331q-27-164-26-258 0-90 45-160.5T596 805v-84q-133-37-178-107.5T373 453q0-94 26-258 2-16 14.5-108.5T426-90q0-150-77-220.5T133-381H51v82z"/><glyph unicode="~" horiz-adv-x="921" d="M80 549q43 223 215 223 51 0 93-19.5t97-56.5q49-33 81-48t67-15q57 0 91 38t42 99h76q-35-221-213-221-49 0-89 18.5T444 623q-49 33-82.5 49T289 688q-55 0-90-40t-45-99H80z"/><glyph unicode="¢" horiz-adv-x="1259" d="M127 547q0 221 125 359t334 153v209h65v-207q186-6 306-110.5T1102 680h-88q-25 139-127.5 221T631 983q-115 0-209-49T271.5 786.5 215 547t56.5-239.5T422 161t209-48q153 0 255.5 80.5T1014 416h88q-25-166-144.5-271.5T651 33v-221h-65V35Q377 49 252 187.5T127 547z"/><glyph unicode="£" horiz-adv-x="1163" d="M98 657v70h211q-37 94-57.5 170T231 1061q0 117 51.5 208T426 1411t213 51q188 0 300-113.5t128-287.5h-86q-12 141-103.5 231T639 1382q-135 0-226-81.5T322 1059q0-82 19-151.5T399 727h396v-70H424q39-113 39-204 0-107-39-195T301 80h760V-2H219l-18 63q90 106 133 187.5T377 444q0 94-43 213H98z"/><glyph unicode="¥" horiz-adv-x="1175" d="M90 1438h107l395-768 395 768h105L721 735h328v-71l-367-2-43-80V465h410v-74H639V0h-92v391H137v74h410v117l-43 80-367 2v71h328z"/><glyph unicode="¨" horiz-adv-x="649" d="M100 1358q0 33 22.5 55.5T178 1436q31 0 54.5-22.5T256 1358t-23.5-55.5T178 1280q-33 0-55.5 22.5T100 1358zm295 0q0 33 22.5 55.5T473 1436t54.5-22.5T549 1358t-21.5-55.5T473 1280t-55.5 22.5T395 1358z"/><glyph unicode="©" horiz-adv-x="1636" d="M115 719q0 209 89 372.5t248.5 256T819 1440t367-92.5 248-256 88-372.5-88-373-248-256T819-2 452.5 90 204 346t-89 373zm57 0q0-193 79-344.5T477.5 137 819 51q195 0 341.5 86t225 237.5T1464 719t-78.5 344-225 236-341.5 85q-194 0-341.5-85T251 1062.5 172 719zm209 2q0-152 59.5-261.5T601 293t222-57q147 0 261 82.5T1239 549h-88q-37-115-125-177.5T823 309q-96 0-178 47T515 495.5 467 717q0 131 48 224t130 140 178 47q113 0 203-62t125-177h88q-41 150-153.5 231.5T823 1202q-121 0-222-56T440.5 980 381 721z"/><glyph unicode="«" horiz-adv-x="829" d="m92 604 211 359h100L188 604l215-358H303zm324 0 211 359h100L510 604l217-358H627z"/><glyph unicode="­" horiz-adv-x="987" d="M-4 729v80h770v-80H-4z"/><glyph unicode="®" horiz-adv-x="1011" d="M115 1053q0 113 50 204t139 143 202 52q112 0 201.5-52T847 1256.5t50-203.5q0-113-50-205T707.5 703.5 506 651q-113 0-202 52.5T165 848t-50 205zm57 0q0-98 42-178t118-125 174-45 175 45 119 124.5 42 178.5q0 98-42 177t-119 124-175 45q-150 0-242-97.5T172 1053zm186-219v438h181q66 0 103.5-33t37.5-94q0-53-33-87t-88-40l131-182-76-2-127 184h-63V834h-66zm66 239h108q84 0 84 72 0 35-22.5 52t-61.5 17H424v-141z"/><glyph unicode="´" horiz-adv-x="532" d="M66 1202v76l401 268v-90z"/><glyph unicode="¸" horiz-adv-x="526" d="M66-457h149q88 0 126 31t38 90q0 113-164 113h-86V14h72v-174q125 6 192.5-40T461-336q0-86-60.5-137T231-524H66v67z"/><glyph unicode="»" horiz-adv-x="829" d="m102 246 217 358-217 359h103l209-359-209-358H102zm324 0 217 358-217 359h100l211-359-211-358H426z"/><glyph unicode="ˆ" horiz-adv-x="657" d="M66 1253v78l264 168 262-168v-78l-262 168z"/><glyph unicode="˚" horiz-adv-x="520" d="M63 1448q0 90 57.5 143.5T260 1645q84 0 140.5-53.5T457 1448q0-88-56.5-141.5T260 1253q-82 0-139.5 53.5T63 1448zm66 2q0-61 37-99t94-38 94 38 37 99-37 98-94 37-94-37-37-98z"/><glyph unicode="˜" horiz-adv-x="659" d="M66 1239q10 78 50 121t101 43q35 0 61.5-13.5T338 1350q31-25 52.5-36t51.5-11q35 0 59.5 24.5T532 1397h62q-6-74-49-118t-105-44q-39 0-66.5 14.5T311 1290q-29 23-49 34t-47 11q-76 0-88-96H66z"/><glyph horiz-adv-x="959"/><glyph horiz-adv-x="1919"/><glyph horiz-adv-x="959"/><glyph horiz-adv-x="1919"/><glyph horiz-adv-x="639"/><glyph horiz-adv-x="479"/><glyph horiz-adv-x="319"/><glyph horiz-adv-x="319"/><glyph horiz-adv-x="239"/><glyph horiz-adv-x="383"/><glyph horiz-adv-x="106"/><glyph unicode="‐" horiz-adv-x="987" d="M-4 729v80h770v-80H-4z"/><glyph unicode="‑" horiz-adv-x="987" d="M-4 729v80h770v-80H-4z"/><glyph unicode="‒" horiz-adv-x="987" d="M-4 729v80h770v-80H-4z"/><glyph unicode="–" horiz-adv-x="1259" d="M109 729v80h1044v-80H109z"/><glyph unicode="—" horiz-adv-x="1652" d="M109 729v80h1435v-80H109z"/><glyph unicode="‘" horiz-adv-x="352" d="m47 1018 160 420h69l-114-420H47z"/><glyph unicode="’" horiz-adv-x="352" d="m63 1018 113 420h117l-160-420H63z"/><glyph unicode="‚" horiz-adv-x="262" d="M-31-266 84 152h117L41-266h-72z"/><glyph unicode="“" horiz-adv-x="608" d="m47 1018 160 420h69l-114-420H47zm256 0 160 420h72l-115-420H303z"/><glyph unicode="”" horiz-adv-x="608" d="m63 1018 113 420h117l-160-420H63zm256 0 115 420h117l-160-420h-72z"/><glyph unicode="„" horiz-adv-x="524" d="M-33-266 82 152h117L39-266h-72zm264 0 115 418h115L301-266h-70z"/><glyph unicode="…" horiz-adv-x="954" d="M74 74q0 35 22.5 57.5T154 154q33 0 55-22.5T231 74t-22.5-57.5T154-6q-35 0-57.5 22.5T74 74zm328 0q0 35 22.5 57.5T482 154q33 0 55-22.5T559 74t-22.5-57.5T482-6q-35 0-57.5 22.5T402 74zm327 0q0 35 22.5 57.5T809 154q33 0 55-22.5T886 74t-22.5-57.5T809-6q-35 0-57.5 22.5T729 74z"/><glyph horiz-adv-x="383"/><glyph unicode="‹" horiz-adv-x="505" d="m92 604 211 359h100L188 604l215-358H303z"/><glyph unicode="›" horiz-adv-x="505" d="m102 246 217 358-217 359h103l209-359-209-358H102z"/><glyph horiz-adv-x="479"/><glyph unicode="€" horiz-adv-x="1695" d="M45 504v69h213q-12 68-12 144 0 68 8 119H45v69h221q35 164 129 288t232.5 191.5T932 1452q246 0 412.5-114.5T1589 1016h-104q-63 162-204.5 257T932 1368q-211 0-365.5-123T362 905h574v-69H350q-8-49-8-119 0-76 12-144h582v-69H369q55-203 207.5-318.5T932 70q207 0 348 95t205 257h104q-78-207-244.5-321.5T932-14q-160 0-295 64.5t-230.5 181T272 504H45z"/><glyph unicode="™" horiz-adv-x="1476" d="M57 1374v68h480v-68H338V721h-78v653H57zm588-653v721h94l277-625 278 625h90V721h-75v586l-265-586h-61l-264 590V721h-74z"/><glyph unicode="◼" horiz-adv-x="1116" d="M0 0v1116h1116V0H0z"/></font>
</defs>
</svg>
