<svg xmlns="http://www.w3.org/2000/svg"><defs><font id="poppinsextrabold" horiz-adv-x="1392"><font-face units-per-em="2048" ascent="1638" descent="-410"/><glyph horiz-adv-x="0"/><glyph horiz-adv-x="682"/><glyph horiz-adv-x="0"/><glyph horiz-adv-x="0"/><glyph horiz-adv-x="391"/><glyph horiz-adv-x="391"/><glyph horiz-adv-x="391"/><glyph horiz-adv-x="391"/><glyph unicode="!" horiz-adv-x="866" d="M199 190q0 90 64.5 149.5T434 399q104 0 169-59t65-150q0-88-64.5-147T434-16q-106 0-170.5 58T199 190zm16 1328h436l-47-977H262z"/><glyph unicode="&quot;" horiz-adv-x="923" d="M86 1642h324l-25-466H115zm426 0h324l-27-466H541z"/><glyph unicode="#" horiz-adv-x="1882" d="M31 283v364h372l52 234H166v364h366l58 271h373l-58-271h314l57 271h375l-58-271h244V881h-321l-52-234h238V283h-316L1327 0H952l60 283H698L639 0H266l60 283H31zm745 364h314l51 234H827z"/><glyph unicode="$" horiz-adv-x="1353" d="M76 1032q0 129 68.5 224.5T332 1404t266 60v166h129v-166q227-16 361.5-130.5T1237 1018H805q-8 94-78 125V883l51-17q147-41 244.5-85T1190 650t70-228q0-117-62.5-214T1015 51.5 727-14v-164H598v168Q373 10 230.5 127T80 444h428q8-104 90-137v262q-172 47-270.5 87t-175 130.5T76 1032zm428 19q0-74 94-121v225q-94-16-94-104zm223-754q49 10 78 40t29 75q0 72-107 116V297z"/><glyph unicode="%" horiz-adv-x="1851" d="M53 1112q0 174 98.5 266t258.5 92q158 0 256-92t98-266q0-172-98.5-265T410 754q-158 0-257.5 93T53 1112zm271 0q0-123 84-123 41 0 64.5 31t23.5 92-23.5 92-64.5 31q-84 0-84-123zM346 0l776 1448h385L731 0H346zm744 338q0 172 99 265t257 93 255-93 97-265q0-174-97-267.5T1446-23t-257 93.5-99 267.5zm268 0q0-125 86-125 39 0 62.5 31.5T1530 338q0 59-23.5 91t-62.5 32q-86 0-86-123z"/><glyph unicode="&amp;" horiz-adv-x="1667" d="M74 420q0 131 68.5 238.5T348 834q-51 66-73.5 125T252 1085q0 106 55 194.5t163 141 255 52.5q150 0 254-54.5t156.5-143.5 50.5-194H815q0 47-26.5 72t-65.5 25q-41 0-68.5-24t-27.5-64q0-72 102-175l338-329q18 37 39 88l41 74h397l-59-115q-74-176-162-297L1667 0h-453l-116 111Q903-22 633-23q-170 0-296 55.5t-194.5 156T74 420zm387 35q0-66 53-111t145-45q109 0 193 47L567 618q-53-33-79.5-75.5T461 455z"/><glyph unicode="'" horiz-adv-x="497" d="M86 1642h324l-25-466H115z"/><glyph unicode="(" horiz-adv-x="962" d="M145 696q0 354 114 660.5T575 1851h394v-36q-209-211-325-507T528 696q0-311 114-604t316-504v-37H567Q371-260 258 43T145 696z"/><glyph unicode=")" horiz-adv-x="962" d="M-6 1815v36h393q203-188 316.5-494T817 696q0-350-112.5-653T395-449H4v37Q207-201 320.5 92T434 696q0 315-115.5 611.5T-6 1815z"/><glyph unicode="*" horiz-adv-x="1122" d="m162 1053 239 82-235 73 127 228 201-172-60 256h268l-57-256 201 174 127-228-240-82 240-77-135-238-193 178 55-254H438l54 254-189-182z"/><glyph unicode="+" horiz-adv-x="1206" d="M80 524v363h332v342h385V887h329V524H797V184H412v340H80z"/><glyph unicode="," horiz-adv-x="643" d="m74-254 106 598h367L328-254H74z"/><glyph unicode="-" horiz-adv-x="1183" d="M74 543v334h927V543H74z"/><glyph unicode="." horiz-adv-x="616" d="M74 190q0 90 64.5 149.5T309 399q104 0 169-59t65-150q0-88-64.5-147T309-16q-106 0-170.5 58T74 190z"/><glyph unicode="/" horiz-adv-x="872" d="m-27-395 547 2345h387L360-395H-27z"/><glyph unicode="0" horiz-adv-x="1345" d="M80 770q0 352 143.5 555T674 1528t451.5-203T1270 770q0-356-143.5-559T674 8 222.5 211 80 770zm395 0q0-188 38-285.5T674 387t160.5 97.5T872 770q0 184-38.5 281.5T674 1149t-160-97.5T475 770z"/><glyph unicode="1" horiz-adv-x="792" d="M37 1120v377h631V0H248v1120H37z"/><glyph unicode="2" horiz-adv-x="1165" d="M63 993q6 182 80 302t193 176.5 264 56.5q252 0 375-125t123-324q0-213-142.5-399T600 346h512V20H68v302q198 155 325 267.5T606 822t86 229q0 66-29.5 102.5T575 1190q-59 0-91.5-50T453 993H63z"/><glyph unicode="3" horiz-adv-x="1249" d="M82 492h391q-4-82 35-127.5T625 319q59 0 93 37t34 99q0 78-50.5 114.5T539 606h-72v326h70q78-2 132 25.5t54 111.5q0 63-30.5 95t-84.5 32q-59 0-86.5-42T489 1051H98q8 231 143.5 355T618 1530q158 0 269.5-54.5t169-147.5 57.5-210q0-139-67.5-222T893 784v-8q248-92 248-352 0-129-59.5-227.5T909.5 43 641-12q-256 0-404.5 124T82 492z"/><glyph unicode="4" horiz-adv-x="1415" d="M104 246v332l629 897h441V594h157V246h-157V0H768v246H104zm412 348h283v428z"/><glyph unicode="5" horiz-adv-x="1341" d="M182 461h391q6-47 41-82t103-35q72 0 108.5 49T862 524q0 80-39 122t-112 42q-55 0-89-27.5T582 592H190v905h979v-354H555V915q39 41 106.5 66t149.5 25q147 0 246.5-68T1204 759.5t47-241.5q0-242-137-380T733 0Q563 0 439 58.5t-189.5 163T182 461z"/><glyph unicode="6" horiz-adv-x="1300" d="M117 748q0 401 131 589.5T670 1526q236 0 357.5-132t135.5-327H791q-15 70-47.5 102.5T647 1202q-96 0-134-90t-40-283q41 63 119 100.5T764 967q199 0 318.5-123T1202 492q0-152-62.5-265.5t-180-175T682-10q-317 0-441 197.5T117 748zm385-250q0-80 43-123t123-43q74 0 115.5 42T825 494q0 76-42 118.5T666 655q-72 0-118-41t-46-116z"/><glyph unicode="7" horiz-adv-x="1071" d="M47 1151v344h991v-297L547 0H135l496 1151H47z"/><glyph unicode="8" horiz-adv-x="1337" d="M104 449q0 125 55.5 217T322 813q-183 100-183 313 0 111 58.5 202T375 1473.5t293 54.5 292.5-54.5 177-145.5 58.5-202q0-109-48-187.5T1014 813q106-55 161.5-147.5T1231 449q0-150-76-257.5t-204-163T668-27q-156 0-284 55.5t-204 163T104 449zm390 22q0-74 47-121t127-47 126 47 46 121q0 78-47.5 124T668 641q-78 0-126-46t-48-124zm38 592q0-70 38-109t98-39q59 0 97 39t38 109q0 72-37 111.5t-98 39.5q-59 0-97.5-40.5T532 1063z"/><glyph unicode="9" horiz-adv-x="1241" d="M84 1028q0 152 63.5 265.5t181 175T604 1530q313 0 437-189.5T1165 791q0-403-119.5-602T635-10q-158 0-271.5 64.5t-174 170T121 453h375q24-140 151-140 92 0 126 87t34 280q-41-59-115-94t-166-35q-197 0-319.5 123T84 1028zm377-8q0-72 42-115t120-43q71 0 112 42t41 114q0 82-42 123t-116 41-115.5-42-41.5-120z"/><glyph unicode=":" horiz-adv-x="618" d="M74 190q0 90 64.5 149.5T309 399q104 0 169-59t65-150q0-88-64.5-147T309-16q-106 0-170.5 58T74 190zm0 823q0 90 64.5 149.5T309 1222q104 0 169-59t65-150q0-88-64.5-147T309 807q-106 0-170.5 58T74 1013z"/><glyph unicode=";" horiz-adv-x="749" d="m121-254 106 598h367L375-254H121zm21 1243q0 90 64.5 149.5T377 1198q104 0 169-59t65-150q0-88-64.5-147T377 783q-106 0-170.5 58T142 989z"/><glyph unicode="&lt;" horiz-adv-x="1073" d="m78 707 393 448h504L582 707l393-447H471z"/><glyph unicode="=" horiz-adv-x="1353" d="M90 252v360h1174V252H90zm0 547v362h1174V799H90z"/><glyph unicode="&gt;" horiz-adv-x="1062" d="m86 260 393 447-393 448h502l393-448-393-447H86z"/><glyph unicode="?" horiz-adv-x="1101" d="M47 1098q-4 125 52.5 228.5t171 163.5 282.5 60q223 0 358.5-114.5T1047 1108q0-186-124-294.5T596 700l-10-149H231l-12 407h148q139 0 212.5 32t73.5 114q0 55-29.5 87t-80.5 32q-57 0-87-34t-30-91H47zm129-908q0 90 64.5 149.5T412 399q104 0 168.5-59T645 190q0-88-64.5-147T412-16q-107 0-171.5 58T176 190z"/><glyph unicode="@" horiz-adv-x="2260" d="M154 276q0 317 149.5 570.5T713 1243t581 143q244 0 429.5-93t285.5-262 100-388q0-180-62-328.5T1862 78t-293-88q-111 0-185.5 42T1278 152q-53-80-140-123T942-14q-152 0-236.5 88T621 319q0 147 59 278.5T844.5 808t236.5 79q86 0 143.5-34t82.5-93l20 114h315l-83-483q-6-31-7-57 0-84 74-84 90 0 137 112.5t47 268.5q0 150-66.5 260T1552 1060.5t-295 59.5q-227 0-412.5-109.5T554 714.5 449 305q0-240 139-377t389-137q207 0 371 72l65-254q-205-90-463-90-240 0-420 93T252-123t-98 399zm807 117q0-57 29.5-91t82.5-34q70 0 123 60.5t53 146.5q0 59-30.5 95t-83.5 36q-74 0-124-62.5T961 393z"/><glyph unicode="A" horiz-adv-x="1546" d="m16 0 527 1444h463L1530 0h-424l-78 236H516L438 0H16zm602 543h310l-156 467z"/><glyph unicode="B" horiz-adv-x="1374" d="M115 0v1444h692q221 0 347-98.5t126-276.5q0-127-66.5-212T1036 741q127-28 202-125.5t75-222.5q0-184-127-288.5T829 0H115zm401 324h234q151 0 151 127 0 66-40 100.5T748 586H516V324zm0 546h203q151 0 151 123 0 131-151 131H516V870z"/><glyph unicode="C" horiz-adv-x="1552" d="M66 725q0 213 89 380t252.5 260 376.5 93q270 0 454.5-144.5T1477 922h-433q-39 82-107.5 125T778 1090q-139 0-222-99.5T473 725q0-168 83-267.5T778 358q90 0 159 43t107 125h433q-53-248-237.5-392T784-10q-213 0-376.5 93T155 343 66 725z"/><glyph unicode="D" horiz-adv-x="1505" d="M115 0v1444h571q227 0 398-91t263.5-255 92.5-375q0-209-93.5-373T1082 93 686 0H115zm401 354h139q176 0 276.5 96.5T1032 723q0 178-100.5 275.5T655 1096H516V354z"/><glyph unicode="E" horiz-adv-x="1122" d="M115 0v1444h923v-322H516V887h461V582H516V322h522V0H115z"/><glyph unicode="F" horiz-adv-x="1148" d="M115 0v1444h979v-320H516V870h426V565H516V0H115z"/><glyph unicode="G" horiz-adv-x="1550" d="M66 725q0 213 91 380t257 260 383 93q272 0 450-131t221-358h-432q-35 57-95 87.5T799 1087q-152 0-239-98t-87-264q0-186 93-283.5T838 344q211 0 301 191H735v288h750V434q-47-115-138.5-215T1116 54.5 799-10q-217 0-384 93T157 343 66 725z"/><glyph unicode="H" horiz-adv-x="1521" d="M115 0v1444h401V901h490v543h401V0h-401v580H516V0H115z"/><glyph unicode="I" horiz-adv-x="630" d="M115 0v1444h401V0H115z"/><glyph unicode="J" horiz-adv-x="1196" d="M37 518h397q2-170 125-170 111 0 111 139v957h401V487q0-244-132-372.5T575-14q-246 0-392 137T37 518z"/><glyph unicode="K" horiz-adv-x="1486" d="M115 0v1444h401V821l449 623h462L897 743 1454 0H969L516 633V0H115z"/><glyph unicode="L" horiz-adv-x="1005" d="M115 0v1444h401V307h449V0H115z"/><glyph unicode="M" horiz-adv-x="1914" d="M115 0v1444h485l363-938 354 938h483V0h-401v797L1126 0H791L516 803V0H115z"/><glyph unicode="N" horiz-adv-x="1566" d="M115 0v1444h401l535-817v817h401V0h-401L516 807V0H115z"/><glyph unicode="O" horiz-adv-x="1611" d="M66 727q0 213 99 382t269 263 373 94q205 0 374-94t267-263 98-382-98-382-268-264-373-95-373 95-269 264-99 382zm409 0q0-170 88-269.5T807 358q154 0 243 100.5t89 268.5q0 172-89 271.5T807 1098q-156 0-244-99.5T475 727z"/><glyph unicode="P" horiz-adv-x="1302" d="M115 0v1444h600q174 0 296-61.5t183-170 61-249.5q0-132-60-239.5t-182-172T715 487H516V0H115zm401 807h160q170 0 170 156 0 157-168 157H516V807z"/><glyph unicode="Q" horiz-adv-x="1613" d="M66 727q0 213 99 382t269 263 373 94q205 0 374-94t267-263 98-382q0-178-71.5-328.5T1278 147l305-389h-479L944-2q-68-12-137-12-203 0-373 95T165 345 66 727zm409 0q0-170 88-269.5T807 358q154 0 243 100.5t89 268.5q0 172-89 271.5T807 1098q-156 0-244-99.5T475 727z"/><glyph unicode="R" horiz-adv-x="1353" d="M115 0v1444h633q174 0 294.5-60.5t182-166T1286 981q0-147-81-259T969 563L1294 0H846L559 532h-43V0H115zm401 807h199q82 0 123 39t41 112q0 70-42 110t-122 40H516V807z"/><glyph unicode="S" horiz-adv-x="1269" d="M72 449h428q6-76 45-111t100-35q55 0 91 27.5t36 77.5q0 63-59.5 98T520 584q-141 47-228 91T140.5 804 76 1026q0 139 69.5 238.5T338 1415t278 51q252 0 402.5-117.5T1180 1018H743q-2 66-39.5 98.5T606 1149q-45 0-73.5-26.5T504 1047q0-41 31.5-71t79-51.5T754 870q137-47 226-93t153.5-129 64.5-210q0-129-64.5-231.5T947 45 659-14q-251 0-413 119.5T72 449z"/><glyph unicode="T" horiz-adv-x="1236" d="M35 1124v320h1167v-320H817V0H416v1124H35z"/><glyph unicode="U" horiz-adv-x="1458" d="M109 606v838h399V606q0-117 54-180.5T727 362t167 65 56 179v838h402V606q0-199-84-339T1039.5 56.5 719-14 404.5 56.5t-217 210T109 606z"/><glyph unicode="V" horiz-adv-x="1529" d="M8 1444h430L766 401l326 1043h428L1022 0H508z"/><glyph unicode="W" horiz-adv-x="2203" d="M55 1444h434l168-987 228 987h440l221-979 168 979h434L1794 0h-494l-198 885L899 0H406z"/><glyph unicode="X" horiz-adv-x="1513" d="M25 1444h473l272-397 234 397h456L997 717 1491 0h-473L737 408 498 0H41l469 739z"/><glyph unicode="Y" horiz-adv-x="1435" d="M8 1444h459l254-557 254 557h452L920 459V0H516v459z"/><glyph unicode="Z" horiz-adv-x="1255" d="M102 0v305l594 815H102v324h1051v-305L553 326h600V0H102z"/><glyph unicode="[" horiz-adv-x="1069" d="M221-449v2300h697v-323H598V-123h320v-326H221z"/><glyph unicode="\" horiz-adv-x="1720" d="M393 1950h385l520-2345H913z"/><glyph unicode="]" horiz-adv-x="1067" d="M150-123h319v1651H150v323h696V-449H150v326z"/><glyph unicode="^" horiz-adv-x="1501" d="m57 334 498 1114h395l496-1114h-402L754 989 459 334H57z"/><glyph unicode="_" horiz-adv-x="1581" d="M137-86h1327v-389H137v389z"/><glyph unicode="`" horiz-adv-x="628" d="M20 1427v304l512-232v-272z"/><glyph unicode="a" d="M49 575q0 179 64.5 312t176 204.5T539 1163q119 0 204.5-47T877 989v160h401V0H877v160Q830 80 742.5 33T539-14q-137 0-249 71.5T113.5 263 49 575zm410 0q0-111 59.5-175T668 336q88 0 148.5 63.5T877 575q0 111-60.5 174.5T668 813q-90 0-149.5-62.5T459 575z"/><glyph unicode="b" d="M115 0v1516h401V989q47 82 133 128t203 46q137 0 248.5-71.5t176-204.5 64.5-312q0-178-64.5-312t-176-205.5T852-14q-117 0-203 46T516 160V0H115zm401 575q0-113 60.5-176T725 336t148.5 64.5T934 575q0 113-60.5 175.5T725 813t-148.5-63.5T516 575z"/><glyph unicode="c" horiz-adv-x="1243" d="M49 575q0 179 74 312t206 204.5 302 71.5q219 0 368.5-119.5T1192 709H766q-37 112-141 112h-2q-76 0-120-62.5T459 575t44-184 120-63q109 0 143 112h426q-43-213-192.5-333.5T631-14q-170 0-302 71.5T123 262 49 575z"/><glyph unicode="d" d="M49 575q0 179 64.5 312t177 204.5T541 1163q111 0 197.5-46T874 991v525h404V0H874v160Q827 80 741 33T539-14q-137 0-249 71.5T113.5 263 49 575zm410 0q0-111 59.5-175T668 336q88 0 148.5 63.5T877 575q0 111-60.5 174.5T668 813q-90 0-149.5-62.5T459 575z"/><glyph unicode="e" horiz-adv-x="1261" d="M49 575q0 180 74 312.5t206 204 304 71.5q170 0 301-69.5T1138.5 894t73.5-306q0-47-6-94H446q6-94 52.5-140.5T616 307q100 0 144 90h428q-27-119-103.5-212T891 39 633-14q-170 0-302 71.5T124 262 49 575zm400 113h354q0 74-49 116t-123 42-121-40-61-118z"/><glyph unicode="f" horiz-adv-x="763" d="M27 815v334h125v10q0 221 130 339t373 118q49 0 76-2v-342q-16 2-45 2-66 0-96.5-30t-34.5-95h180V815H555V0H152v815H27z"/><glyph unicode="g" d="M49 575q0 178 64.5 311.5t176 205T539 1163q116 0 203-47t135-127v160h401V12q0-162-61.5-292T1025-487.5 696-565q-266 0-425.5 125T88-100h395q12-55 61.5-86T672-217q205 0 205 229v148Q830 80 742.5 33T539-14q-137 0-249 71.5T113.5 263 49 575zm410 0q0-111 59.5-175T668 336q88 0 148.5 63.5T877 575q0 111-60.5 174.5T668 813q-90 0-149.5-62.5T459 575z"/><glyph unicode="h" horiz-adv-x="1404" d="M115 0v1516h401V985q53 78 144.5 126t209.5 48q197 0 312.5-132T1298 670V0H897v616q0 98-51 154.5T709 827q-90 0-141.5-56T516 616V0H115z"/><glyph unicode="i" horiz-adv-x="630" d="M82 1460q0 90 64.5 149.5T317 1669q104 0 169-59.5t65-149.5q0-88-64.5-146.5T317 1255q-106 0-170.5 58.5T82 1460zM115 0v1149h401V0H115z"/><glyph unicode="j" horiz-adv-x="628" d="M-68-207h86q51 0 74 20.5t23 67.5v1268h401V-113q0-436-438-436H-68v342zM80 1460q0 90 64.5 149.5T315 1669q104 0 169-59.5t65-149.5q0-88-64.5-146.5T315 1255q-106 0-170.5 58.5T80 1460z"/><glyph unicode="k" horiz-adv-x="1325" d="M115 0v1516h401V698l318 451h481L862 571 1323 0H834L516 471V0H115z"/><glyph unicode="l" horiz-adv-x="630" d="M115 0v1516h401V0H115z"/><glyph unicode="m" horiz-adv-x="2185" d="M115 0v1149h401V997q53 74 138 118t196 44q127 0 226.5-55T1233 948q61 94 161.5 152.5T1616 1159q217 0 341-131t124-358V0h-402v616q0 92-51 143.5T1489 811t-139.5-51-51.5-144V0H897v616q0 92-50 143.5T709 811q-90 0-141.5-51T516 616V0H115z"/><glyph unicode="n" horiz-adv-x="1404" d="M115 0v1149h401V985q53 78 143.5 126t206.5 48q199 0 315.5-132T1298 670V0H897v616q0 98-51 154.5T709 827q-90 0-141.5-56T516 616V0H115z"/><glyph unicode="o" horiz-adv-x="1302" d="M49 575q0 178 79 311.5t215 205 308 71.5 308.5-71.5 215-204.5 78.5-312q0-178-78.5-312t-216-205.5T649-14 341 57.5 127 262 49 575zm410 0q0-119 53-180t137-61 140.5 62.5T846 575q0 117-56.5 178.5T651 815t-137-61.5T459 575z"/><glyph unicode="p" d="M115-549v1698h401V989q47 80 133 127t203 47q137 0 248.5-71.5t176-204.5 64.5-312q0-178-64.5-312t-176-205.5T852-14q-117 0-202 47T516 160v-709H115zM516 575q0-113 60.5-176T725 336t148.5 64.5T934 575q0 113-60.5 175.5T725 813t-148.5-63.5T516 575z"/><glyph unicode="q" d="M49 569q0 170 70.5 304.5t188.5 210 257 75.5q201 0 312-127v117h401V-549H877v684Q751-14 565-14h-2q-139 0-257 73.5T118.5 266 49 569zm410 0q0-117 63.5-175T668 336q80 0 144.5 61.5T877 575q0 115-64.5 175.5T668 811t-144.5-62.5T459 569z"/><glyph unicode="r" horiz-adv-x="915" d="M115 0v1149h401V946q68 98 164 155.5t207 57.5V731H774q-131 0-194.5-51T516 502V0H115z"/><glyph unicode="s" horiz-adv-x="1163" d="M55 387h389q8-55 51.5-86T602 270q49 0 78 20.5t29 53.5q0 43-47.5 63.5T506 453q-123 25-205 55.5t-142.5 100T98 797q0 102 55.5 185t163 132 258.5 49q225 0 354.5-110.5T1079 762H717q-10 55-48 85t-102 30q-49 0-74.5-18.5T467 807q0-41 47-62.5T666 700q125-27 207.5-59.5t145-105T1081 338q0-100-58-180T857.5 32 604-14q-155 0-277 52T134 181 55 387z"/><glyph unicode="t" horiz-adv-x="862" d="M37 815v334h141v278h404v-278h209V815H582V430q0-47 21.5-67.5T676 342h117V0H618Q178 0 178 436v379H37z"/><glyph unicode="u" horiz-adv-x="1404" d="M106 481v668h400V532q0-98 52-154t138-56q88 0 139.5 56T887 532v617h403V0H887v164Q836 86 745.5 38T539-10q-201 0-317 132T106 481z"/><glyph unicode="v" horiz-adv-x="1329" d="M18 1149h428l220-770 215 770h428L913 0H414z"/><glyph unicode="w" horiz-adv-x="1812" d="M4 1149h399l129-762 170 762h431l176-764 127 764h376L1520 0h-451L909 696 743 0H295z"/><glyph unicode="x" horiz-adv-x="1286" d="M4 1149h451l207-289 165 289h441L877 563 1282 0H831L625 289 461 0H20l383 596z"/><glyph unicode="y" horiz-adv-x="1341" d="M-10 1149h446l242-651 233 651h441L623-547H186L461 49z"/><glyph unicode="z" horiz-adv-x="1038" d="M53 0v317l457 498H57v334h912V831L496 334h489V0H53z"/><glyph unicode="{" horiz-adv-x="1007" d="M156 539v325q102 2 146 37t44 105q0 49-20 196-10 63-18.5 132t-8.5 122q0 188 115.5 292.5T727 1853h152v-325h-74q-66 0-94.5-29t-28.5-86q0-39 16-182 18-184 19-240 0-117-54.5-192.5T498 702v-4q111-20 165-96t54-192q0-55-19-240-16-143-16-184 0-55 28.5-84t94.5-29h74v-326H727q-197 0-312.5 104.5T299-55q0 53 8 121.5T326 199q20 147 20 194 0 139-190 146z"/><glyph unicode="|" horiz-adv-x="567" d="M82-281v1964h403V-281H82z"/><glyph unicode="}" horiz-adv-x="1007" d="M129-127h74q66 0 94.5 28.5T326-14q0 41-17 184-18 184-18 240 0 117 54 192.5T510 698v4q-111 20-165 96t-54 193q0 55 18 240 16 143 17 182 0 57-29 86t-94 29h-74v325h152q197 0 312.5-104T709 1456q0-53-8.5-121.5T682 1202q-20-147-20-196 0-70 44-105t146-37V539q-190-7-190-146 0-47 20-194 10-63 18.5-132T709-55q0-188-116-293T281-453H129v326z"/><glyph unicode="~" horiz-adv-x="1380" d="M49 397q41 254 155.5 374T494 891q70 0 125-20.5T748 811q55-29 88.5-42t68.5-13q55 0 86 32.5t41 104.5h299q-39-252-156.5-372T885 401q-70 0-125 20.5T633 479q-51 29-87 43.5T473 537q-55 0-86-33t-43-107H49z"/><glyph unicode="¢" horiz-adv-x="1239" d="M63 522q0 231 131.5 371.5T557 1055v159h127v-159q190-14 320.5-124T1147 639H778q-16 47-55 70.5T631 733q-88 0-136.5-56T446 520q0-98 48.5-153.5T631 311q53 0 94 24.5t53 70.5h369q-12-182-142.5-293T684-12v-160H557v160Q326 8 194.5 148.5T63 522z"/><glyph unicode="£" horiz-adv-x="1374" d="M70 575v269h161q-37 133-36 256 0 141 64.5 243.5t179 156.5 263.5 54q244 0 378-132t147-345H856q-10 150-141 150-70 0-105-43t-35-127q0-41 10.5-86T621 844h358V575H666q-6-72-37-144.5T535 303h698V-10H145L92 182q98 80 144.5 171T287 575H70z"/><glyph unicode="¥" horiz-adv-x="1435" d="M8 1444h459l254-610 254 610h452l-280-545h180V633h-317l-52-101h369V268H920V0H516v268H104v264h373l-51 101H104v266h185z"/><glyph unicode="¨" horiz-adv-x="802" d="M20 1432q0 72 46.5 118.5T182 1597q72 0 119-47t47-118q0-70-47-116t-119-46q-69 0-115.5 46T20 1432zm437 0q0 72 46 118.5t115 46.5q70 0 117-47t47-118q0-70-47-116t-117-46q-69 0-115 46t-46 116z"/><glyph unicode="©" horiz-adv-x="1587" d="M70 729q0 215 91 383t256 261 378 93 376.5-93 255-261 91.5-383-91.5-384-255-264T795-14 417 81 161 345 70 729zm133 0q0-186 71.5-325.5t205.5-216T795 111q180 0 314 76.5t205.5 217T1386 729t-71.5 323.5-205.5 215-314 75.5q-181 0-315-75.5t-205.5-214T203 729zm137-2q0-137 58.5-240.5t163-160T799 270q166 0 285.5 96.5T1231 623H893q-31-86-109-86-59 0-93 48t-34 142 34 142.5 93 48.5q43 0 70-24t39-63h338q-27 162-146.5 257.5T799 1184q-133 0-237.5-56.5t-163-160T340 727z"/><glyph unicode="«" horiz-adv-x="1204" d="m92 604 166 359h367L455 604l170-358H258zm492 0 166 359h366L946 604l170-358H750z"/><glyph unicode="­" horiz-adv-x="1183" d="M74 543v334h927V543H74z"/><glyph unicode="®" horiz-adv-x="1048" d="M72 1020q0 129 58 231.5T291.5 1411t234.5 57 233.5-57 161-159.5T979 1020q0-131-58.5-233.5t-161-160T526 569t-234.5 57.5-161.5 160T72 1020zm131 0q0-145 88-236.5T526 692q146 0 233 91t87 237q0 147-87 236.5T526 1346q-147 0-235-89.5T203 1020zm131-211v432h237q72 0 115-38t43-101q0-43-20.5-76T653 977l99-168H580l-78 149h-13V809H334zm151 250h54q31 0 30 28 0 29-30 29h-54v-57z"/><glyph unicode="´" horiz-adv-x="552" d="M20 1227v272l512 232v-304z"/><glyph unicode="¸" horiz-adv-x="671" d="M20-340h287q68 0 68 43t-68 43H147V14h238v-80q100 0 183-59t83-182q0-125-88-184.5T354-551H20v211z"/><glyph unicode="»" horiz-adv-x="1204" d="m102 246 172 358-172 359h369l164-359-164-358H102zm492 0 172 358-172 359h369l163-359-163-358H594z"/><glyph unicode="ˆ" horiz-adv-x="696" d="M20 1227v268l330 158 326-158v-268l-326 164z"/><glyph unicode="˚" horiz-adv-x="557" d="M18 1479q0 119 75 189.5t188 70.5q111 0 185.5-71t74.5-189q0-117-75-187.5T281 1221q-113 0-188 70.5T18 1479zm166 2q0-43 28-71t69-28 67.5 28 26.5 71-26.5 70.5T281 1579t-69-27.5-28-70.5z"/><glyph unicode="˜" horiz-adv-x="888" d="M4 1235q57 334 307 334 47 0 85-14.5t87-41.5q35-18 59.5-28t49.5-10q76 0 90 94h203q-29-174-108-253t-199-79q-45 0-82 13.5t-90 39.5q-35 18-59.5 28.5T297 1329q-74 0-92-94H4z"/><glyph horiz-adv-x="975"/><glyph horiz-adv-x="1950"/><glyph horiz-adv-x="975"/><glyph horiz-adv-x="1950"/><glyph horiz-adv-x="650"/><glyph horiz-adv-x="487"/><glyph horiz-adv-x="325"/><glyph horiz-adv-x="325"/><glyph horiz-adv-x="243"/><glyph horiz-adv-x="390"/><glyph horiz-adv-x="108"/><glyph unicode="‐" horiz-adv-x="1183" d="M74 543v334h927V543H74z"/><glyph unicode="‑" horiz-adv-x="1183" d="M74 543v334h927V543H74z"/><glyph unicode="‒" horiz-adv-x="1183" d="M74 543v334h927V543H74z"/><glyph unicode="–" horiz-adv-x="1411" d="M129 543v334h1155V543H129z"/><glyph unicode="—" horiz-adv-x="1910" d="M129 543v334h1655V543H129z"/><glyph unicode="‘" horiz-adv-x="708" d="m90 866 236 578h266l-98-578H90z"/><glyph unicode="’" horiz-adv-x="708" d="m115 866 98 578h405L383 866H115z"/><glyph unicode="‚" horiz-adv-x="667" d="m70-217 98 577h403L336-217H70z"/><glyph unicode="“" horiz-adv-x="1218" d="m90 866 236 578h266l-98-578H90zm510 0 236 578h266l-98-578H600z"/><glyph unicode="”" horiz-adv-x="1218" d="m115 866 98 578h405L383 866H115zm510 0 98 578h405L893 866H625z"/><glyph unicode="„" horiz-adv-x="1175" d="m74-217 98 577h403L340-217H74zm504 0 98 577h403L844-217H578z"/><glyph unicode="…" horiz-adv-x="1669" d="M74 190q0 90 64.5 149.5T309 399q104 0 169-59t65-150q0-88-64.5-147T309-16q-106 0-170.5 58T74 190zm528 0q0 90 64.5 149.5T837 399q104 0 169-59t65-150q0-88-64.5-147T837-16q-106 0-170.5 58T602 190zm527 0q0 90 64.5 149.5T1364 399q104 0 169-59t65-150q0-88-64.5-147T1364-16q-106 0-170.5 58T1129 190z"/><glyph horiz-adv-x="390"/><glyph unicode="‹" horiz-adv-x="727" d="m92 604 166 359h367L455 604l170-358H258z"/><glyph unicode="›" horiz-adv-x="727" d="m102 246 172 358-172 359h369l164-359-164-358H102z"/><glyph horiz-adv-x="487"/><glyph unicode="€" horiz-adv-x="1624" d="M37 492v192h115v41q0 31 2 45H37v195h147q66 227 247 360t439 133q270 0 455.5-144.5T1565 922h-435q-37 80-106.5 122.5T864 1087q-78 0-138-31.5T625 965h299V770H563q-2-14-2-45 0-27 2-41h361V492H621q41-63 103-97.5T864 360q90 0 160 43t106 123h435q-53-248-238.5-392T870-10q-260 0-442 135T182 492H37z"/><glyph unicode="™" horiz-adv-x="1873" d="M59 1217v231h627v-231H514V731H229l2 486H59zm727-486v717h385l123-367 150 367h354V731h-260l-8 375-154-375h-190l-152 399V731H786z"/><glyph unicode="◼" horiz-adv-x="1146" d="M0 0v1147h1147V0H0z"/></font>
</defs>
</svg>
