<svg width="70" height="69" fill="none" xmlns="http://www.w3.org/2000/svg"><path d="m5.953 45.476 1.427-.464-1.427.464ZM2.46 26.07l1.443.411-1.443-.41Zm14.588-14.74-.881-1.213.881 1.213ZM2.816 24.974l1.409.516-1.409-.516Zm12.65 38.931-.837 1.245.837-1.245Zm-.933-.677-.926 1.18.926-1.18Zm49.513-17.752-1.426-.464 1.426.464Zm-8.579 17.752.926 1.18-.926-1.18Zm-.933.678.837 1.244-.837-1.245Zm-1.582-52.577.881-1.213-.881 1.213Zm14.232 13.645-1.409.516 1.409-.516Zm.356 1.097-1.443.411 1.443-.41ZM35.577 2.011l-.055 1.499.055-1.5Zm-1.154 0 .055 1.499-.055-1.5ZM33.5 58.059a1.5 1.5 0 0 0 3 0h-3Zm3-6.291a1.5 1.5 0 0 0-3 0h3Zm11.084 14.429.18 1.489-.18-1.49ZM7.38 45.012c-1.612-4.962-2.783-8.571-3.4-11.516-.609-2.91-.643-5.028-.077-7.014l-2.886-.822c-.747 2.625-.637 5.277.027 8.451.658 3.14 1.89 6.928 3.483 11.828l2.853-.927Zm8.787-34.896c-4.169 3.028-7.393 5.368-9.77 7.522-2.403 2.177-4.051 4.258-4.99 6.82l2.818 1.032c.71-1.94 1.983-3.633 4.186-5.629 2.23-2.02 5.298-4.251 9.519-7.318l-1.763-2.427ZM3.903 26.482c.095-.334.202-.665.322-.992l-2.817-1.031a16.98 16.98 0 0 0-.39 1.201l2.885.822Zm.624 19.457c1.592 4.9 2.821 8.69 4.135 11.616 1.328 2.959 2.798 5.169 4.945 6.853l1.851-2.36c-1.624-1.275-2.842-3.01-4.06-5.721-1.231-2.745-2.406-6.353-4.018-11.315l-2.853.927ZM16.302 62.66c-.288-.194-.57-.398-.844-.613l-1.85 2.361c.33.26.672.508 1.021.742l1.673-2.49ZM62.62 45.012c-1.612 4.962-2.787 8.57-4.019 11.315-1.217 2.712-2.434 4.446-4.06 5.72l1.852 2.361c2.147-1.684 3.617-3.894 4.945-6.853 1.314-2.926 2.543-6.715 4.135-11.616l-2.853-.927Zm-8.078 17.035c-.274.215-.556.42-.844.613l1.673 2.49c.35-.234.69-.482 1.022-.742l-1.851-2.36ZM52.07 12.543c4.221 3.067 7.29 5.299 9.519 7.318 2.203 1.996 3.476 3.69 4.186 5.629l2.817-1.031c-.938-2.563-2.586-4.644-4.989-6.821-2.377-2.154-5.601-4.494-9.77-7.522l-1.763 2.427Zm13.403 33.396c1.592-4.9 2.825-8.688 3.483-11.828.664-3.174.774-5.826.027-8.45l-2.886.821c.566 1.986.532 4.105-.078 7.014-.616 2.945-1.787 6.554-3.4 11.516l2.854.927Zm.302-20.45c.12.328.227.659.322.993l2.886-.822a17.225 17.225 0 0 0-.39-1.201l-2.818 1.03ZM53.833 10.117c-4.168-3.029-7.39-5.372-10.172-6.967C40.847 1.536 38.359.612 35.63.512l-.11 2.998c2.064.075 4.068.763 6.648 2.241 2.61 1.497 5.68 3.725 9.901 6.792l1.763-2.427ZM17.93 12.543c4.221-3.067 7.292-5.295 9.901-6.792 2.58-1.478 4.584-2.166 6.647-2.241l-.11-2.998c-2.727.1-5.215 1.024-8.029 2.637-2.782 1.595-6.004 3.938-10.172 6.967l1.763 2.427ZM35.632.512a16.649 16.649 0 0 0-1.264 0l.11 2.998c.348-.013.696-.013 1.044 0l.11-2.998Zm10.452 51.255v12.584h3V51.767h-3ZM23.916 64.352V51.767h-3v12.584h3ZM35 40.684c6.121 0 11.084 4.962 11.084 11.084h3c0-7.779-6.306-14.084-14.084-14.084v3Zm0-3c-7.778 0-14.084 6.305-14.084 14.084h3c0-6.122 4.963-11.084 11.084-11.084v-3Zm1.5 20.375v-6.291h-3v6.291h3ZM35 68.08c5.385 0 9.497.003 12.764-.393l-.36-2.978c-3.046.369-6.944.371-12.404.371v3Zm12.764-.393c3.02-.366 5.446-1.084 7.607-2.536l-1.673-2.49c-1.636 1.1-3.556 1.716-6.295 2.048l.361 2.978Zm-1.68-3.335v1.846h3V64.35h-3ZM35 65.08c-5.46 0-9.358-.002-12.403-.371l-.361 2.978c3.267.396 7.379.393 12.764.393v-3Zm-12.403-.371c-2.74-.332-4.659-.948-6.295-2.048l-1.673 2.49c2.161 1.453 4.587 2.17 7.607 2.536l.36-2.978Zm-1.68-.357v1.846h3V64.35h-3Z" fill="#ED553B"/></svg>