<svg xmlns="http://www.w3.org/2000/svg"><defs><font id="montserratmedium" horiz-adv-x="1169"><font-face units-per-em="2048" ascent="1638" descent="-410"/><glyph horiz-adv-x="0"/><glyph horiz-adv-x="550"/><glyph horiz-adv-x="0"/><glyph horiz-adv-x="0"/><glyph horiz-adv-x="550"/><glyph horiz-adv-x="550"/><glyph horiz-adv-x="550"/><glyph unicode="!" horiz-adv-x="548" d="M141 119q0 55 39 93t96 38 94.5-38 37.5-93-38-93-94-38q-57 0-96 37.5T141 119zm19 1315h231l-39-981H197z"/><glyph unicode="&quot;" horiz-adv-x="800" d="M129 1434h172l-14-553H141zm371 0h172l-14-553H512z"/><glyph unicode="#" horiz-adv-x="1439" d="M55 369v149h301l52 397H121v150h305l45 369h145l-45-369h385l45 369h146l-45-369h282V915h-301l-49-397h285V369h-303L971 0H825l45 369H483L438 0H293l45 369H55zm447 149h387l49 397H553z"/><glyph unicode="$" horiz-adv-x="1271" d="m84 164 76 160q74-68 186.5-112T582 160v475q-143 35-238.5 76t-160 120.5T119 1040q0 162 117.5 274.5T582 1446v233h131v-231q117-4 226.5-37t188.5-88l-67-164q-166 104-348 115V797q150-37 246-77t162.5-119 66.5-210q0-162-122-274.5T713-14v-232H582v232Q432-6 298 42T84 164zm235 885q0-88 68-137.5T582 829v443q-131-16-197-76.5T319 1049zm394-887q137 12 205.5 70.5T987 379q0 90-70.5 138T713 602V162z"/><glyph unicode="%" horiz-adv-x="1726" d="M76 1055q0 174 92 282.5T410 1446t240.5-107.5T741 1055t-91-283.5T410 664q-150 0-242 108.5T76 1055zm133 0q0-127 54-201t147-74q94 0 147 73t53 202-53 201.5-147 72.5q-92 0-146.5-73.5T209 1055zM295 0l979 1434h158L453 0H295zm690 379q0 176 91 283.5T1317 770t242-108.5 92-282.5-92.5-282.5T1317-12q-150 0-241 107.5T985 379zm131 0q0-129 53.5-202t147.5-73q92 0 146.5 74t54.5 201-54.5 200.5T1317 653q-94 0-147.5-72.5T1116 379z"/><glyph unicode="&amp;" horiz-adv-x="1404" d="M92 356q0 131 81 232.5T440 797q-94 94-133 169.5T268 1124q0 145 105.5 233.5T655 1446q164 0 260.5-80t96.5-219q0-109-71-195T707 772l354-352q61 117 88 260l158-51q-37-188-125-328l192-192-110-132-191 191Q883-16 594-16q-143 0-258 47T156.5 163 92 356zm193 21q0-102 89-166t232-64q213 1 350 136L549 688q-147-82-205.5-152.5T285 377zm166 751q0-55 29.5-106T596 883q141 80 195.5 137t54.5 125q0 72-50.5 115T655 1303q-96 0-150-48.5T451 1128z"/><glyph unicode="'" horiz-adv-x="430" d="M129 1434h172l-14-553H141z"/><glyph unicode="(" horiz-adv-x="690" d="M195 561q0 281 63.5 527.5T438 1520h187q-123-215-180.5-450.5T387 561q0-272 57.5-507.5T625-397H438Q322-209 258.5 36T195 561z"/><glyph unicode=")" horiz-adv-x="692" d="M66-397Q189-182 247 53.5T305 561t-58.5 508T66 1520h186q119-184 182.5-430T498 561q0-281-63.5-526.5T252-397H66z"/><glyph unicode="*" horiz-adv-x="819" d="m39 1001 246 138-246 135 63 115 248-146-2 277h123l-2-277 248 146 63-115-243-135 243-138-63-112-248 145 2-278H348l2 278-248-145z"/><glyph unicode="+" horiz-adv-x="1191" d="M137 635v162h373v368h172V797h373V635H682V268H510v367H137z"/><glyph unicode="," horiz-adv-x="464" d="M98 129q0 61 39 100t99 39q57 0 95-40t38-99q0-31-7.5-59.5T334-18l-96-285H109L184 2q-39 14-62.5 48T98 129z"/><glyph unicode="-" horiz-adv-x="784" d="M117 477v170h551V477H117z"/><glyph unicode="." horiz-adv-x="464" d="M94 129q0 59 41 99t98 40 96.5-39T369 129 329 28t-96-40q-57 0-98 40T94 129z"/><glyph unicode="/" horiz-adv-x="720" d="m-57-205 675 1929h179L121-205H-57z"/><glyph unicode="0" horiz-adv-x="1366" d="M98 717q0 227 76 393t208 253 302 87q168 0 300-87t208-253 76-393-76-393T984 71 684-16q-170 0-302 87T174 323.5 98 717zm205 0q0-268 103.5-409.5T684 166q172 0 275.5 141.5T1063 717t-103.5 409.5T684 1268q-174 0-277.5-141.5T303 717z"/><glyph unicode="1" horiz-adv-x="757" d="M16 1255v179h527V0H340v1255H16z"/><glyph unicode="2" horiz-adv-x="1175" d="M29 1233q84 102 220 159.5t304 57.5q225 0 358-107.5t133-291.5q0-115-49-217.5T809 600L371 178h735V0H76v139l583 563q106 102 143.5 177t37.5 151q0 113-79 175.5T535 1268q-238 0-367-156z"/><glyph unicode="3" horiz-adv-x="1171" d="m10 158 94 161q74-70 189-111.5T537 166q160 0 248.5 67.5T874 420t-88 184.5T520 670H406v143l360 442H76v179h946v-140L647 831q211-20 321.5-129.5T1079 422q0-123-61.5-222.5T834.5 42 537-16q-154 0-295.5 46T10 158z"/><glyph unicode="4" horiz-adv-x="1370" d="M78 352v144l733 938h221L330 528h551v312h192V528h273V352h-273V0H874v352H78z"/><glyph unicode="5" horiz-adv-x="1175" d="m35 158 94 161q74-70 188.5-111.5T559 166q162 0 251 68.5T899 422q0 129-98.5 195.5T465 684H139l76 750h809v-179H387l-39-393h160q307 0 451.5-115.5T1104 430q0-127-60.5-228.5T861 42 561-16q-152 0-293 46T35 158z"/><glyph unicode="6" horiz-adv-x="1263" d="M98 698q0 240 85 409t237.5 256 355.5 87q104 0 196.5-21.5T1133 1366l-78-160q-102 68-275 68-223 0-350-138.5T303 733q0-33 2-51 61 92 169 140t243 48q141 0 252.5-53t175-152.5T1208 436q0-135-66.5-237.5T959.5 40 700-16q-289 0-445.5 186T98 698zm254-272q0-76 40-138.5t117-100T692 150q142 0 230 75.5t88 202.5-89.5 202T682 705q-96 0-171-37T394 567.5 352 426z"/><glyph unicode="7" horiz-adv-x="1224" d="M61 999v435h1082v-140L563 0H346l567 1255H258V999H61z"/><glyph unicode="8" horiz-adv-x="1318" d="M90 406q0 123 64.5 211T342 752q-98 47-149.5 124.5T141 1061q0 119 64.5 207T387 1403t270 47q156 0 274-47t182.5-135 64.5-207q0-104-52.5-183T975 752q123-47 188.5-135.5T1229 406q0-129-69.5-224.5T960.5 35 657-16q-172 0-300 51T159.5 181 90 406zm205 6q0-121 96-191.5T657 150t268.5 70.5T1024 412q0 119-98.5 187.5T657 668t-266-69-96-187zm49 641q0-106 83-168t230-62q150 0 235 61.5t85 168.5q0 106-87 168.5T657 1284q-145 0-229-62.5T344 1053z"/><glyph unicode="9" horiz-adv-x="1263" d="M57 997q0 135 66.5 237.5t181.5 159 258 56.5q289 0 445.5-186.5T1165 735q0-240-85-408.5T842.5 71 487-16Q383-16 291 5.5T131 68l78 159q104-68 276-67 223 0 349.5 138T961 700v52q-61-92-170-140.5T547 563q-141 0-253 53.5T119.5 769 57 997zm199 9q0-127 88-202t238-75q96 0 171.5 37T871 866.5t42 141.5q0 76-39.5 138T757 1246t-186 38q-141 0-228-75.5T256 1006z"/><glyph unicode=":" horiz-adv-x="464" d="M94 129q0 59 41 99t98 40 96.5-39T369 129 329 28t-96-40q-57 0-98 40T94 129zm0 827q0 59 41 99t98 40 96.5-39T369 956t-40-101-96-40q-57 0-98 40T94 956z"/><glyph unicode=";" horiz-adv-x="464" d="M94 956q0 59 41 99t98 40 96.5-39T369 956t-40-101-96-40q-57 0-98 40T94 956zm4-827q0 61 39 100t99 39q57 0 95-40t38-99q0-31-7.5-59.5T334-18l-96-285H109L184 2q-39 14-62.5 48T98 129z"/><glyph unicode="&lt;" horiz-adv-x="1191" d="M137 629v176l918 362V997L328 717l727-281V266z"/><glyph unicode="=" horiz-adv-x="1191" d="M137 393v162h918V393H137zm0 486v161h918V879H137z"/><glyph unicode="&gt;" horiz-adv-x="1191" d="M137 266v170l729 281-729 280v170l918-362V629z"/><glyph unicode="?" horiz-adv-x="1173" d="M18 1221q86 111 220.5 170t310.5 59q223 0 354-97.5t131-267.5q0-84-27.5-148.5T940 829 836 727q-84-76-124-133t-40-141H467q0 82 27.5 144T562 702t106 103q82 72 120.5 124t38.5 126q0 100-77.5 160.5T535 1276q-240 0-367-162zM438 119q0 55 38 93t95 38 94-38 37-93-37.5-93T571-12q-57 0-95 37.5T438 119z"/><glyph unicode="@" horiz-adv-x="2117" d="M98 520q0 268 122 479t342 330 503 119q276 0 493.5-113.5t339-318.5T2019 549t-96-411.5T1655-12q-98 0-163 50t-83 144q-61-94-160.5-144T1020-12q-143 0-258 67.5t-179.5 187T518 514q0 150 64.5 269.5t179.5 186 258 66.5q119 0 215-44t160-130v166h178V291q0-76 32.5-112t84.5-36q90 0 140 105.5t50 298.5q0 227-102.5 400T1490 1216.5t-425 96.5q-242 0-427-100.5T350.5 932 248 520q0-233 101.5-413.5T634-175t423-101q100 0 204.5 22.5T1452-186l45-131q-90-47-209-72t-231-25q-281 0-499 120T219 39 98 520zm602-6q0-166 97.5-266.5T1049 147q100 0 179 45.5t125 128 46 193.5-46 194-125 127-179 44q-156 0-252.5-99.5T700 514z"/><glyph unicode="A" horiz-adv-x="1499" d="m-2 0 649 1434h203L1501 0h-215l-158 358H367L209 0H-2zm440 522h619l-309 703z"/><glyph unicode="B" horiz-adv-x="1550" d="M215 0v1434h643q246 0 380-98.5t134-272.5q0-113-52-195t-140-125q125-34 196.5-125.5T1448 387q0-186-140.5-286.5T899 0H215zm205 166h471q174 0 262 57.5t88 179.5q0 240-350 240H420V166zm0 643h420q158 0 242.5 58.5T1167 1038q0 113-85 171.5T840 1268H420V809z"/><glyph unicode="C" horiz-adv-x="1480" d="M98 717q0 209 98.5 376T469 1355t389 95q168 0 307.5-56.5T1403 1227l-133-129q-162 170-404 170-160 0-288.5-72T376 998t-73-281q0-156 73-282t202-197.5T866 166q240 0 404 172l133-129q-98-111-238.5-168T856-16q-215 0-388 95T196.5 341 98 717z"/><glyph unicode="D" horiz-adv-x="1691" d="M215 0v1434h604q227 0 403.5-90.5t273.5-253 97-373.5-97-374-273-253T819 0H215zm205 178h387q174 0 306 67.5T1317 435t72 282-72 281.5-204 189-306 67.5H420V178z"/><glyph unicode="E" horiz-adv-x="1372" d="M215 0v1434h1012v-179H420V815h719V641H420V178h835V0H215z"/><glyph unicode="F" horiz-adv-x="1300" d="M215 0v1434h1012v-179H420V756h719V580H420V0H215z"/><glyph unicode="G" horiz-adv-x="1581" d="M98 717q0 209 99.5 377T472 1356t394 94q172 0 312.5-56.5T1417 1229l-127-127q-172 166-416 166-164 0-293.5-71T377 1000t-74-283q0-156 74-282t204-197.5T872 166q193 0 336 92v467h197V166q-106-88-247.5-135T862-16q-217 0-391 95T197.5 341 98 717z"/><glyph unicode="H" horiz-adv-x="1662" d="M215 0v1434h205V817h823v617h205V0h-205v639H420V0H215z"/><glyph unicode="I" horiz-adv-x="634" d="M215 0v1434h205V0H215z"/><glyph unicode="J" horiz-adv-x="1050" d="m-18 190 118 140q119-170 299-170 121 0 183.5 73.5T645 451v804H127v179h721V461q0-238-113.5-357.5T399-16q-129 0-239.5 54T-18 190z"/><glyph unicode="K" horiz-adv-x="1472" d="M215 0v1434h205V633l778 801h234L819 788 1470 0h-239L682 637 420 371V0H215z"/><glyph unicode="L" horiz-adv-x="1216" d="M215 0v1434h205V178h776V0H215z"/><glyph unicode="M" horiz-adv-x="1955" d="M215 0v1434h168L981 426l590 1008h168l2-1434h-197l-2 1044-518-870h-94l-518 864V0H215z"/><glyph unicode="N" horiz-adv-x="1662" d="M215 0v1434h168l860-1069v1069h205V0h-168L420 1069V0H215z"/><glyph unicode="O" horiz-adv-x="1720" d="M98 717q0 207 99.5 375T471 1355t391 95q215 0 389-95t272.5-262 98.5-376-98.5-376T1251 79 862-16q-217 0-391 95T197.5 342 98 717zm205 0q0-156 73-282t201-197.5T862 166q158 0 284 71.5T1344.5 435t72.5 282-72.5 281.5T1146 1196t-284 72-285.5-72T376 998t-73-281z"/><glyph unicode="P" horiz-adv-x="1478" d="M215 0v1434h559q279 0 438.5-133.5T1372 934t-159.5-366.5T774 434H420V0H215zm205 612h348q195 0 297 83t102 239-102 238.5-297 82.5H420V612z"/><glyph unicode="Q" horiz-adv-x="1720" d="M98 717q0 207 99.5 375T471 1355t391 95q215 0 389-95t272.5-262 98.5-376q0-176-70.5-323.5t-198.5-248T1059 6q72-76 138.5-109.5T1333-137q152 0 262 123l97-117q-70-82-162-125t-199-43q-135 0-252.5 64.5T809-14Q606-4 443.5 94.5t-254 261T98 717zm205 0q0-156 73-282t201-197.5T862 166q156 0 283 71.5T1344.5 435t72.5 282-72.5 281.5T1145 1196t-283 72q-158 0-285.5-72T376 998t-73-281z"/><glyph unicode="R" horiz-adv-x="1488" d="M215 0v1434h559q279 0 438.5-133.5T1372 934q0-166-82-282.5T1057 481L1397 0h-223L864 440q-57-4-90-4H420V0H215zm205 610h348q195 0 297 84t102 240-102 238.5-297 82.5H420V610z"/><glyph unicode="S" horiz-adv-x="1271" d="m84 164 76 160q82-74 210-120t263-46q178 0 266 60.5T987 379q0 74-48 120t-118.5 70.5T621 625q-162 39-261.5 77.5T189.5 822 119 1040q0 115 60.5 207t183 147.5T668 1450q127 0 249.5-33t210.5-94l-67-164q-90 57-192.5 87T668 1276q-174 0-261.5-63.5T319 1049q0-74 49.5-120t122-72T688 803q162-39 260.5-78t169-119 70.5-215q0-113-61.5-206T940 38 633-16q-162 0-312.5 50T84 164z"/><glyph unicode="T" horiz-adv-x="1202" d="M8 1255v179h1186v-179H702V0H500v1255H8z"/><glyph unicode="U" horiz-adv-x="1619" d="M203 618v816h205V627q0-461 403-461 197 0 301.5 113.5T1217 627v807h198V618q0-309-159.5-471.5T809-16 362.5 147.5 203 618z"/><glyph unicode="V" horiz-adv-x="1458" d="M-2 1434h221L735 256l520 1178h205L831 0H629z"/><glyph unicode="W" horiz-adv-x="2306" d="M66 1434h210L664 268l403 1166h188l396-1172 395 1172h195L1761 0h-215l-391 1145L764 0H545z"/><glyph unicode="X" horiz-adv-x="1378" d="m27 0 538 735-506 699h234l401-551 398 551h223L809 741 1352 0h-236L686 592 262 0H27z"/><glyph unicode="Y" horiz-adv-x="1325" d="M-8 1434h219l459-756 460 756h203L764 496V0H561v500z"/><glyph unicode="Z" horiz-adv-x="1345" d="M88 0v139l901 1116H102v179h1158v-140L362 178h924V0H88z"/><glyph unicode="[" horiz-adv-x="681" d="M215-397v1917h428v-162H412V-236h231v-161H215z"/><glyph unicode="\" horiz-adv-x="720" d="M-78 1724h178L776-205H598z"/><glyph unicode="]" horiz-adv-x="681" d="M39-236h231v1594H39v162h428V-397H39v161z"/><glyph unicode="^" horiz-adv-x="1193" d="m154 291 362 852h164l360-852H883L598 981 311 291H154z"/><glyph unicode="_" horiz-adv-x="1024" d="M0 0h1024v-127H0V0z"/><glyph unicode="`" horiz-adv-x="1228" d="M240 1509h250l278-266H584z"/><glyph unicode="a" horiz-adv-x="1224" d="M102 307q0 143 104.5 230.5T539 625h311v39q0 127-74 194.5T559 926q-96 0-188-32t-156-85l-82 147q84 68 201 104t248 36q225 0 345-111t120-330V0H860v143Q811 67 720 27.5T504-12q-182 0-292 88T102 307zm195 8q0-82 63.5-129T537 139q112 0 194 50.5T850 332v151H547q-250 0-250-168z"/><glyph unicode="b" horiz-adv-x="1396" d="M186 0v1520h197V922q66 86 164 130t215 44q158 0 282.5-70T1240 831.5t71-288.5-71-290-195.5-195.5T762-12q-121 0-221.5 47T375 172V0H186zm195 543q0-113 47-200t131-135 186-48q105 0 188 48t131 135 48 200-48 199.5-131 134T745 924q-102 0-186-47.5T428 742t-47-199z"/><glyph unicode="c" d="M86 543q0 160 73.5 285.5t204 196.5 295.5 71q147 0 263-59.5T1102 864l-150-96q-51 78-126.5 117T657 924q-106 0-191-47.5T333 742t-48-199q0-115 48-202t133-134 191-47q92 0 168 39t127 116l150-94q-63-113-179-173T659-12q-165 0-295.5 71.5T159.5 257 86 543z"/><glyph unicode="d" horiz-adv-x="1396" d="M86 543q0 164 70.5 288.5T352 1026t283 70q117 0 215-44t164-130v598h196V0h-188v172Q956 82 856 35T635-12q-158 0-283 69.5T156.5 253 86 543zm199 0q0-113 48-200t131-135 187-48q103 0 187 48t131 135 47 200-47 199.5-131 134T651 924q-104 0-187-47.5T333 742t-48-199z"/><glyph unicode="e" horiz-adv-x="1253" d="M86 543q0 158 70.5 284.5T351 1025t280 71 277.5-71 190-198 68.5-290q0-23-4-60H283q18-143 125.5-230T676 160q195 0 313 131l109-127q-74-86-183.5-131T670-12q-172 0-305.5 70.5T158.5 256 86 543zm197 75h696q-16 137-111.5 224.5T631 930q-142 0-237-86T283 618z"/><glyph unicode="f" horiz-adv-x="722" d="M31 924v161h184v97q0 162 94 256t264 94q66 0 123.5-16.5T795 1468l-60-149q-68 51-151 51-176 0-176-190v-95h315V924H412V0H215v924H31z"/><glyph unicode="g" horiz-adv-x="1413" d="M86 571q0 154 71.5 274T355 1030.5t282 65.5q123 0 228.5-45T1038 918v167h187V147q0-285-141.5-421T662-410q-154 0-293.5 42T143-248l95 152q76-66 187.5-104T655-238q190 0 281.5 90.5T1028 127v86q-70-84-171-126T637 45q-156 0-282 66.5T157.5 298 86 571zm199 0q0-102 48-183t133-126 193-45q107 0 192 45t133 126 48 183q0 158-104.5 255.5T659 924q-166 0-270-97.5T285 571z"/><glyph unicode="h" horiz-adv-x="1394" d="M186 0v1520h197V932q61 78 160.5 121t222.5 43q207 0 329-120t122-351V0h-197v602q0 158-76 238t-217 80q-160 0-252-93.5T383 559V0H186z"/><glyph unicode="i" horiz-adv-x="571" d="M151 1421q0 53 38 91t96 38q57 0 95-35.5t38-89.5q0-55-38-93t-95-38q-58 0-96 37t-38 90zM186 0v1085h197V0H186z"/><glyph unicode="j" horiz-adv-x="581" d="m-188-344 63 151q61-51 160-51 78 0 120 48.5T197-53v1138h196V-49q0-168-90-264.5T47-410q-72 0-133 16.5T-188-344zm349 1765q0 53 38 91t96 38q57 0 95-35.5t38-89.5q0-55-38-93t-95-38q-58 0-96 37t-38 90z"/><glyph unicode="k" horiz-adv-x="1261" d="M186 0v1520h197V545l592 540h237L756 637 1257 0h-241L608 506 383 297V0H186z"/><glyph unicode="l" horiz-adv-x="571" d="M186 0v1520h197V0H186z"/><glyph unicode="m" horiz-adv-x="2164" d="M186 0v1085h189V924q59 84 155.5 128t219.5 44q127 0 225-51.5T1126 895q61 94 171 147.5t247 53.5q205 0 325-119t120-352V0h-197v602q0 158-72.5 238T1511 920q-150 0-237.5-93.5T1186 559V0H989v602q0 158-72.5 238T709 920q-150 0-238-93.5T383 559V0H186z"/><glyph unicode="n" horiz-adv-x="1394" d="M186 0v1085h189V922q59 84 160.5 129t230.5 45q207 0 329-120t122-351V0h-197v602q0 158-76 238t-217 80q-160 0-252-93.5T383 559V0H186z"/><glyph unicode="o" horiz-adv-x="1300" d="M86 543q0 160 72.5 285.5T360 1025t291 71 290-71 200.5-197 72.5-285q0-160-72.5-286T941 59.5 651-12 360 59.5 158.5 257 86 543zm199 0q0-113 48-200t131-135 187-48q105 0 188 48t130 135 47 200-47 199.5-130 134T651 924q-104 0-187-47.5T333 742t-48-199z"/><glyph unicode="p" horiz-adv-x="1396" d="M186-397v1482h189V913q66 90 166 136.5t221 46.5q158 0 282.5-70T1240 831.5t71-288.5-71-290-195.5-195.5T762-12q-117 0-214 45T383 164v-561H186zm195 940q0-113 47-200t131-135 186-48q105 0 188 48t131 135 48 200-48 199.5-131 134T745 924q-102 0-185-48.5T429 741t-48-198z"/><glyph unicode="q" horiz-adv-x="1396" d="M86 543q0 164 70.5 288.5T352 1026t283 70q121 0 221-46t166-137v172h188V-397h-196v561Q946 78 849 33T635-12q-158 0-283 69.5T156.5 253 86 543zm199 0q0-113 48-200t131-135 187-48q103 0 187 48t131 135 47 200-48 198.5-131 134T651 924q-104 0-187-47.5T333 742t-48-199z"/><glyph unicode="r" horiz-adv-x="839" d="M186 0v1085h189V903q51 94 151.5 143.5T770 1096V905q-16 2-45 2-160 0-251-95t-91-271V0H186z"/><glyph unicode="s" horiz-adv-x="1026" d="m49 115 82 155q72-51 174.5-81.5T512 158q258 0 258 147 0 49-35 78t-87 42-148 30q-131 20-214 46.5t-142.5 90T84 770q0 147 123 236.5t330 89.5q109 0 217-27t178-72l-84-155q-133 86-313 86-125 0-190.5-41T279 778q0-53 36.5-83.5t91-45T559 616q131-23 212-48t138.5-86.5T967 309q0-147-126-234T498-12q-133 0-256 35.5T49 115z"/><glyph unicode="t" horiz-adv-x="847" d="M31 924v161h184v238h197v-238h311V924H412V336q0-88 44-135t126-47q90 0 153 51l62-142Q754 26 690.5 7T559-12q-164 0-254 88t-90 252v596H31z"/><glyph unicode="u" horiz-adv-x="1386" d="M176 461v624h197V483q0-158 75.5-238.5T666 164q156 0 245.5 94t89.5 266v561h197V0h-186v164Q953 80 855.5 34T643-12q-217 0-342 119.5T176 461z"/><glyph unicode="v" horiz-adv-x="1144" d="M-4 1085h205l372-870 381 870h193L672 0H471z"/><glyph unicode="w" horiz-adv-x="1841" d="M12 1085h187l315-864 328 864h166l321-868 324 868h176L1423 0h-188L922 823 604 0H416z"/><glyph unicode="x" horiz-adv-x="1130" d="m29 0 428 555-408 530h219l299-391 297 391h215L670 555 1102 0H879L565 416 248 0H29z"/><glyph unicode="y" horiz-adv-x="1144" d="m-45-309 84 147q84-80 194-80 72 0 120 38t87 130l35 76L-4 1085h205l379-868 374 868h193L621-109q-70-166-163-233.5T233-410q-80 0-154.5 26T-45-309z"/><glyph unicode="z" horiz-adv-x="1067" d="M82 0v127l641 797H94v161h881V956L334 162h657V0H82z"/><glyph unicode="{" horiz-adv-x="718" d="M117 479v164h71q92 0 93 102v472q0 150 77.5 226.5T590 1520h90v-162h-51q-152 0-152-160V750q0-84-26.5-127T365 561q59-18 85.5-61T477 373V-76q0-160 152-160h51v-161h-90q-154 0-231.5 76.5T281-94v471q0 102-93 102h-71z"/><glyph unicode="|" horiz-adv-x="612" d="M215-397v1917h182V-397H215z"/><glyph unicode="}" horiz-adv-x="718" d="M39-236h49q156 0 156 160v449q0 86 25.5 128t84.5 60q-59 18-84.5 60.5T244 750v448q0 160-156 160H39v162h90q154 0 232.5-77t78.5-226V745q0-102 90-102h70V479h-70q-90 0-90-102V-94q0-150-78.5-226.5T129-397H39v161z"/><glyph unicode="~" horiz-adv-x="1191" d="M119 557q4 166 76.5 251T389 893q74 0 128-29.5T639 776q53-43 86-62.5t72-19.5q68 0 105.5 50.5T944 881h129q-4-168-76.5-253T803 543q-72 0-127 29.5T553 657q-51 43-85 63.5T395 741q-66 0-104.5-50T248 557H119z"/><glyph unicode="¢" d="M86 543q0 147 62.5 265t173 192.5T578 1092v239h131v-237q131-10 233-68.5T1102 864l-150-96q-86 131-243 152V164q157 20 243 151l150-94q-57-102-159.5-161.5T709-10v-236H578V-8Q435 8 323 83T148.5 276.5 86 543zm199 0q0-152 80.5-252.5T578 168v747q-131-25-212-125t-81-247z"/><glyph unicode="£" horiz-adv-x="1323" d="M61 0v178h224v471H61v135h224v134q0 162 70.5 281.5t206.5 185 327 65.5q125 0 222-24.5t181-77.5l-67-170q-133 90-355 90-188 0-285.5-90.5T487 920V784h545V649H487V178h775V0H61z"/><glyph unicode="¥" horiz-adv-x="1447" d="M-8 1434h217l518-725 520 725h209L889 639h368V522H825V356h432V240H825V0H623v240H190v116h433v166H190v117h371z"/><glyph unicode="¨" horiz-adv-x="1228" d="M320 1382q0 45 30.5 76t73.5 31 74-31 31-76-31-74.5-74-29.5-73.5 29.5T320 1382zm381 0q0 45 30.5 76t73.5 31 74-31 31-76-31-74.5-74-29.5-73.5 29.5T701 1382z"/><glyph unicode="©" horiz-adv-x="1642" d="M98 717q0 199 95.5 364.5t261.5 262 368 96.5q203 0 368-94.5t259-259 94-365.5-96-368-262-263T819-6 453.5 90t-260 262T98 717zm97 0q0-174 81.5-318.5t225-228.5T819 86q176 0 319.5 84T1365 399.5t83 321.5-81 319.5-223.5 225.5-320.5 82q-176 0-320.5-84t-226-228.5T195 717zm215 0q0 123 55 219t153.5 149.5T842 1139q106 0 194-45t138-121l-117-84q-74 111-217 110-119 0-197-77.5T565 717t78-205 197-78q143 0 217 111l117-82q-49-78-137.5-123T842 295q-125 0-223.5 53T465 497.5 410 717z"/><glyph unicode="«" horiz-adv-x="1032" d="m94 543 295 393h180L281 543l288-391H389zm393 0 295 393h180L674 543l288-391H782z"/><glyph unicode="­" horiz-adv-x="784" d="M117 477v170h551V477H117z"/><glyph unicode="®" horiz-adv-x="1642" d="M98 717q0 199 95.5 364.5t261.5 262 368 96.5q203 0 368-94.5t259-259 94-365.5-96-368-262-263T819-6 453.5 90t-260 262T98 717zm97 0q0-174 81.5-318.5t225-228.5T819 86q176 0 319.5 84T1365 399.5t83 321.5-81 319.5-223.5 225.5-320.5 82q-176 0-320.5-84t-226-228.5T195 717zm335-410v819h328q154 0 243-75.5t89-202.5q0-92-45-157.5T1018 596l186-289h-141L893 569H670V307H530zm138 377h180q98 0 152.5 43t54.5 121-54.5 120-152.5 42H668V684z"/><glyph unicode="´" horiz-adv-x="1228" d="m461 1243 279 266h249l-344-266H461z"/><glyph unicode="¸" horiz-adv-x="1228" d="m381-414 43 101q61-35 139-35 115 0 115 82 0 37-28.5 58.5T561-186h-55l51 200h113l-31-116q86-8 132-54.5T817-272q0-86-69.5-136.5T563-459q-106 0-182 45z"/><glyph unicode="»" horiz-adv-x="1032" d="m70 152 288 391L70 936h180l295-393-295-391H70zm393 0 288 391-288 393h180l295-393-295-391H463z"/><glyph unicode="ˆ" horiz-adv-x="1228" d="m248 1243 272 266h189l272-266H803l-188 158-189-158H248z"/><glyph unicode="˚" horiz-adv-x="1228" d="M387 1438q0 92 65.5 158.5T613 1663q96 0 161.5-66.5T840 1438t-65.5-156.5T613 1217q-95 0-160.5 64.5T387 1438zm92 0q0-57 38-96t96-39q59 0 97 38.5t38 96.5q0 59-39 98t-96 39-95.5-39-38.5-98z"/><glyph unicode="˜" horiz-adv-x="1228" d="M271 1260q4 115 58 182t142 67q49 0 87-21.5t87-62.5q35-29 55.5-42t43.5-13q45 0 73.5 33t30.5 90h111q-4-111-58.5-177.5T758 1249q-49 0-85 20.5t-89 61.5q-31 29-53.5 42t-44.5 13q-45 0-74-33.5t-31-92.5H271z"/><glyph unicode="Ѐ" horiz-adv-x="1361" d="M223 0v1434h1012v-179H428V815h719V641H428V178h835V0H223zm134 1817h250l278-267H701z"/><glyph unicode="Ё" horiz-adv-x="1361" d="M223 0v1434h1012v-179H428V815h719V641H428V178h835V0H223zm214 1690q0 45 30.5 75.5T541 1796t74-30.5 31-75.5-31-75-74-30-73.5 30-30.5 75zm381 0q0 45 30.5 75.5T922 1796t74-30.5 31-75.5-31-75-74-30-73.5 30-30.5 75z"/><glyph unicode="Ђ" horiz-adv-x="1705" d="M29 1255v179h1231v-179H721V795q219 75 409 75 229 0 363.5-113.5T1628 430q0-219-134-329.5T1153-10q-84 0-174 18l25 170q66-16 124-16 127 0 212 66.5t85 197.5q0 133-91 202.5T1092 698q-174 0-371-86V0H520v1255H29z"/><glyph unicode="Ѓ" horiz-adv-x="1183" d="M223 0v1434h940l-2-179H424L426 0H223zm299 1550 279 267h249l-344-267H522z"/><glyph unicode="Є" horiz-adv-x="1449" d="M109 717q0 209 94 376t258 262 369 95q176 0 319-57t240-168l-129-129q-162 170-420 170-137 0-250-60.5t-184.5-169T320 789h694V621H322q20-133 91.5-235.5t182.5-160T840 168q256 0 420 170l129-129q-96-111-240.5-168T830-16q-205 0-369 95T203 341t-94 376z"/><glyph unicode="Ѕ" horiz-adv-x="1302" d="m100 164 76 160q82-74 210-120t263-46q178 0 266 60.5t88 160.5q0 74-48 120t-118.5 70.5T637 625q-162 39-261.5 77.5T205.5 822 135 1040q0 115 60.5 207t183 147.5T684 1450q127 0 249.5-33t210.5-94l-67-164q-90 57-192.5 87T684 1276q-174 0-261.5-63.5T335 1049q0-74 49.5-120t122-72T704 803q162-39 260.5-78t169-119 70.5-215q0-113-61.5-206T956 38 649-16q-162 0-312.5 50T100 164z"/><glyph unicode="І" horiz-adv-x="649" d="M223 0v1434h203V0H223z"/><glyph unicode="Ї" horiz-adv-x="634" d="M23 1690q0 45 30.5 75.5T127 1796t74-30.5 31-75.5-31-75-74-30-73.5 30-30.5 75zM215 0v1434h205V0H215zm189 1690q0 45 30.5 75.5T508 1796t74-30.5 31-75.5-31-75-74-30-73.5 30-30.5 75z"/><glyph unicode="Ј" horiz-adv-x="1105" d="m37 190 118 140q119-170 299-170 121 0 183.5 73.5T700 451v804H182v179h721V461q0-238-113.5-357.5T454-16q-129 0-239.5 54T37 190z"/><glyph unicode="Љ" horiz-adv-x="2430" d="m27 0 14 182q33-8 65-8 88 0 141.5 70.5t80 212T362 829l23 605h1010V0h-201v1255H559l-14-419q-10-297-48-481.5T377 77 156-16Q93-16 27 0zm1167 0v1434h203V934h426q256 0 392-114.5T2351 481q0-236-146.5-358.5T1786 0h-592zm203 162h381q178 0 273.5 81t95.5 234q0 295-369 295h-381V162z"/><glyph unicode="Њ" horiz-adv-x="2416" d="M223 0v1434h203V860h797v574h200V868h422q238 0 368-110.5T2343 446q0-211-140.5-328.5T1817 0h-594v684H426V0H223zm1200 162h375q160 0 249 72.5t89 203.5q0 129-87 198t-251 69h-375V162z"/><glyph unicode="Ћ" horiz-adv-x="1724" d="M27 1255v179h1220v-179H717V780q219 84 409 84 232 0 365-120.5T1624 387V0h-201v360q0 156-90 239t-250 83q-158 0-366-90V0H516v1255H27z"/><glyph unicode="Ќ" horiz-adv-x="1456" d="M223 0v1434h201V811h303l451 623h219L885 739 1421 0h-233L723 631H424V0H223zm359 1550 279 267h249l-344-267H582z"/><glyph unicode="Ѝ" horiz-adv-x="1685" d="M223 0v1434h203V328l848 1106h188V0h-200v1104L412 0H223zm242 1817h250l278-267H809z"/><glyph unicode="Ў" horiz-adv-x="1415" d="M33 1434h219l465-910 477 910h203L760 252Q684 111 581.5 41T358-29q-94 0-192 43l53 164q76-27 135-26 135 0 224 143l32 51zm311 381h146q2-80 56-124t151-44q92 0 148.5 44t58.5 124h143q-2-133-93-207t-257-74q-168 0-259 72.5T344 1815z"/><glyph unicode="Џ" horiz-adv-x="1652" d="M223 0v1434h203V178h799v1256h202V0H920v-326H731V0H223z"/><glyph unicode="А" horiz-adv-x="1552" d="m25 0 649 1434h203L1528 0h-215l-158 358H394L236 0H25zm440 522h619l-309 703z"/><glyph unicode="Б" horiz-adv-x="1497" d="M223 0v1434h1082v-174H426V850h446q256 0 389.5-106.5T1395 436q0-211-144.5-323.5T838 0H223zm203 162h403q176 0 268.5 67.5T1190 428q0 260-361 260H426V162z"/><glyph unicode="В" horiz-adv-x="1529" d="M223 0v1434h617q236 0 367.5-95.5T1339 1065q0-117-58-199t-165-123q146-34 220.5-123.5T1411 391q0-186-136-288.5T879 0H223zm203 162h448q330 0 330 246 0 123-83 181t-247 58H426V162zm0 641h399q150 0 229 59.5t79 173.5q0 115-80 175.5T825 1272H426V803z"/><glyph unicode="Г" horiz-adv-x="1183" d="M223 0v1434h940l-2-179H424L426 0H223z"/><glyph unicode="Д" horiz-adv-x="1646" d="m27-313 2 491h69q135 8 190.5 214T356 973l15 461h1007V178h211v-491h-190V0H219l-2-313H27zm340 491h809v1077H547l-10-301q-11-303-48.5-501.5T367 178z"/><glyph unicode="Е" horiz-adv-x="1361" d="M223 0v1434h1012v-179H428V815h719V641H428V178h835V0H223z"/><glyph unicode="Ж" horiz-adv-x="2107" d="m39 0 473 745-438 689h219l383-623h278v623h201V811h275l385 623h219l-439-693L2068 0h-239l-402 631h-272V0H954v631H680L279 0H39z"/><glyph unicode="З" horiz-adv-x="1314" d="m66 156 71 151q94-74 211-110.5T584 160q172 0 288.5 72.5T989 432q0 109-88 167t-248 58H334v166h305q137 0 214 56.5t77 156.5q0 113-100.5 178.5T575 1280q-100 0-203.5-28.5T176 1165l-65 168q109 61 229.5 92t241.5 31q152 0 278.5-47t201.5-137 75-211q0-109-60.5-191T909 748q135-37 211-128.5t76-218.5-81-222T900 34 608-16q-143 0-284.5 43T66 156z"/><glyph unicode="И" horiz-adv-x="1685" d="M223 0v1434h203V328l848 1106h188V0h-200v1104L412 0H223z"/><glyph unicode="Й" horiz-adv-x="1685" d="M223 0v1434h203V328l848 1106h188V0h-200v1104L412 0H223zm264 1815h146q2-80 56-124t151-44q92 0 148.5 44t58.5 124h143q-2-133-93-207t-257-74q-168 0-259 72.5T487 1815z"/><glyph unicode="К" horiz-adv-x="1456" d="M223 0v1434h201V811h303l451 623h219L885 739 1421 0h-233L723 631H424V0H223z"/><glyph unicode="Л" horiz-adv-x="1617" d="m27 0 14 182q33-8 65-8 88 0 141.5 70.5t80 212T362 829l23 605h1010V0h-201v1255H559l-14-419q-10-297-48-481.5T377 77 156-16Q93-16 27 0z"/><glyph unicode="М" horiz-adv-x="1972" d="M223 0v1434h168L989 426l590 1008h168l2-1434h-197l-2 1044-518-870h-94l-518 864V0H223z"/><glyph unicode="Н" horiz-adv-x="1679" d="M223 0v1434h205V817h823v617h205V0h-205v639H428V0H223z"/><glyph unicode="О" horiz-adv-x="1736" d="M104 717q0 207 99.5 375T477 1355t391 95q215 0 389-95t272.5-262 98.5-376-98.5-376T1257 79 868-16q-217 0-391 95T203.5 342 104 717zm205 0q0-156 73-282t201-197.5T868 166q158 0 284 71.5T1350.5 435t72.5 282-72.5 281.5T1152 1196t-284 72-285.5-72T382 998t-73-281z"/><glyph unicode="П" horiz-adv-x="1681" d="M223 0v1434h1235V0h-201v1255H426V0H223z"/><glyph unicode="Р" horiz-adv-x="1462" d="M223 0v1434h559q279 0 438.5-133.5T1380 934t-159.5-366.5T782 434H428V0H223zm205 612h348q195 0 297 83t102 239-102 238.5-297 82.5H428V612z"/><glyph unicode="С" horiz-adv-x="1470" d="M106 717q0 209 98.5 376T477 1355t389 95q168 0 307.5-56.5T1411 1227l-133-129q-162 170-404 170-160 0-288.5-72T384 998t-73-281q0-156 73-282t202-197.5T874 166q240 0 404 172l133-129q-98-111-238.5-168T864-16q-215 0-388 95T204.5 341 106 717z"/><glyph unicode="Т" horiz-adv-x="1234" d="M27 1255v179h1181v-179H717V0H516v1255H27z"/><glyph unicode="У" horiz-adv-x="1415" d="M33 1434h219l465-910 477 910h203L760 252Q684 111 581.5 41T358-29q-94 0-192 43l53 164q76-27 135-26 135 0 224 143l32 51z"/><glyph unicode="Ф" horiz-adv-x="1896" d="M92 719q0 285 200 446.5T854 1341v146h190v-146q360-14 560-177t200-445q0-285-198.5-446.5T1044 98V-53H854V98q-362 14-562 176T92 719zm199 0q0-209 146.5-327T854 258v922q-274-16-418.5-133T291 719zm753-461q275 16 419.5 134T1608 721q0 207-146.5 324.5T1044 1180V258z"/><glyph unicode="Х" horiz-adv-x="1368" d="m35 0 522 737-487 697h235l375-525 375 525h239L809 745 1333 0h-241L680 571 270 0H35z"/><glyph unicode="Ц" horiz-adv-x="1697" d="M223 0v1434h203V178h799v1256h202V178h222v-504h-191V0H223z"/><glyph unicode="Ч" horiz-adv-x="1507" d="M111 969v465h200V991q0-160 97.5-246T684 659q199 0 397 91v684h203V0h-203v567q-227-88-419-88-262 0-406.5 127T111 969z"/><glyph unicode="Ш" horiz-adv-x="2242" d="M223 0v1434h203V178h596v1256h201V178h596v1256h200V0H223z"/><glyph unicode="Щ" horiz-adv-x="2293" d="M223 0v1434h203V178h596v1256h201V178h596v1256h200V0H223zm1591 0v178h420v-491h-188V0h-232z"/><glyph unicode="Ъ" horiz-adv-x="1695" d="M27 1255v179h635V934h425q256 0 391.5-114.5T1614 481q0-236-146.5-358.5T1049 0H459v1255H27zM662 162h382q179 0 272 81t93 234q0 295-365 295H662V162z"/><glyph unicode="Ы" horiz-adv-x="2033" d="M223 0v1434h203V934h426q256 0 392-114.5T1380 481q0-236-146.5-358.5T815 0H223zm203 162h381q178 0 273.5 81t95.5 234q0 295-369 295H426V162zM1607 0v1434h203V0h-203z"/><glyph unicode="Ь" horiz-adv-x="1460" d="M223 0v1434h203V934h426q256 0 392-114.5T1380 481q0-236-146.5-358.5T815 0H223zm203 162h381q178 0 273.5 81t95.5 234q0 295-369 295H426V162z"/><glyph unicode="Э" horiz-adv-x="1447" d="m59 209 129 129q162-170 420-170 137 0 250 60.5t184.5 169T1128 645H434v168h692q-20 133-91.5 235.5t-182.5 160-244 57.5q-256 0-420-170L59 1225q96 111 240.5 168t318.5 57q205 0 369-95t258-262 94-376-94-376T987 79 618-16q-176 0-319 57T59 209z"/><glyph unicode="Ю" horiz-adv-x="2250" d="M223 0v1434h203V819h264q23 182 122 325.5t255 224.5 344 81q207 0 373-95t261-262 95-376-95-376-261-262-373-95q-193 0-350.5 84T805 299 688 635H426V0H223zm668 717q0-158 68.5-283T1147 238.5t264-70.5q148 0 267.5 70.5t188 195.5 68.5 283-68.5 282.5-188 195.5-267.5 71q-145 0-264-71T959.5 999 891 717z"/><glyph unicode="Я" horiz-adv-x="1497" d="m119 0 317 455q-154 51-235.5 170.5T119 918q0 244 156.5 380T698 1434h576V0h-201v418H678q-37 0-55 2L336 0H119zm207 920q0-160 93-245t275-85h379v665H707q-184 0-282.5-86T326 920z"/><glyph unicode="а" horiz-adv-x="1206" d="M98 307q0 143 104.5 230.5T535 625h311v39q0 127-74 194.5T555 926q-96 0-188-32t-156-85l-82 147q84 68 201 104t248 36q225 0 345-111t120-330V0H856v143Q807 67 716 27.5T500-12q-182 0-292 88T98 307zm195 8q0-82 63.5-129T533 139q112 0 194 50.5T846 332v151H543q-250 0-250-168z"/><glyph unicode="б" horiz-adv-x="1355" d="M127 707q0 334 137 523t420 251l496 110 28-180-456-98q-213-47-317.5-160T315 829q70 104 180.5 162t247.5 58q152 0 271-68t185.5-187.5T1266 520q0-158-71-279.5t-199-189T705-16q-276 0-427 189T127 707zm223-193q0-106 46-189t128-130.5T709 147q104 0 185 47.5T1020 325t45 189q0 162-98.5 260T709 872q-160 0-259.5-98T350 514z"/><glyph unicode="в" horiz-adv-x="1257" d="M190 0v1085h504q193 0 301.5-72.5T1104 807q0-86-46-148.5T930 563q211-53 211-264 0-143-107.5-221T713 0H190zm193 152h315q123 0 184.5 38.5T944 311q0 84-56.5 125T711 477H383V152zm0 466h295q113 0 171 41t58 119q0 156-229 156H383V618z"/><glyph unicode="г" horiz-adv-x="999" d="M190 0v1085h799V913H387V0H190z"/><glyph unicode="д" horiz-adv-x="1359" d="M16 172h58q104 6 143 147.5T270 719l17 366h841V172h166v-424h-184V0H203v-252H16v424zm308 0h608v741H461l-10-208q-9-205-34.5-339.5T324 172z"/><glyph unicode="е" horiz-adv-x="1286" d="M90 543q0 158 70.5 284.5T355 1025t280 71 277.5-71 190-198 68.5-290q0-23-4-60H287q18-143 125.5-230T680 160q195 0 313 131l109-127q-74-86-183.5-131T674-12q-172 0-305.5 70.5T162.5 256 90 543zm197 75h696q-16 137-111.5 224.5T635 930q-142 0-237-86T287 618z"/><glyph unicode="ж" horiz-adv-x="1738" d="m27 0 372 561-344 524h209l293-458h213v458h197V627h213l293 458h210l-344-526L1712 0h-233l-301 459H967V0H770v459H559L260 0H27z"/><glyph unicode="з" horiz-adv-x="1114" d="m57 109 60 149q78-49 178-76.5T498 154q139 0 222 48t83 130q0 76-66.5 116.5T549 489H350v142h185q111 0 174 39t63 106q0 74-74.5 115T496 932q-162 0-342-84l-54 151q199 100 416 101 131 0 235.5-37t164-104.5T975 805q0-80-53.5-143.5T778 565q109-28 168.5-91.5T1006 315q0-96-66-170.5T758.5 28 500-14q-121 0-237 31.5T57 109z"/><glyph unicode="и" horiz-adv-x="1421" d="M190 0v1085h197V295l666 790h178V0h-197v791L371 0H190z"/><glyph unicode="й" horiz-adv-x="1421" d="M190 0v1085h197V295l666 790h178V0h-197v791L371 0H190zm187 1509h133q2-76 52-122t134-46 135.5 46.5T885 1509h137q-2-137-88-209.5T698 1227q-151 0-235 72.5T377 1509z"/><glyph unicode="к" horiz-adv-x="1224" d="M190 0v1085h197V627h229l353 458h211L768 563 1208 0H977L612 459H387V0H190z"/><glyph unicode="л" horiz-adv-x="1312" d="m10 2 13 166q27-6 49-6 82 0 123 71.5t53 170T270 684l19 401h833V0H926v913H459l-13-241q-10-219-38.5-365.5T313.5 72 131-16Q78-16 10 2z"/><glyph unicode="м" horiz-adv-x="1634" d="M190 0v1085h203l426-733 438 733h185V0h-178v793L858 123h-86L371 795V0H190z"/><glyph unicode="н" horiz-adv-x="1394" d="M190 0v1085h197V625h619v460h196V0h-196v455H387V0H190z"/><glyph unicode="о" horiz-adv-x="1312" d="M90 543q0 160 72.5 285.5T364 1025t291 71 290-71 200.5-197 72.5-285q0-160-72.5-286T945 59.5 655-12 364 59.5 162.5 257 90 543zm199 0q0-113 48-200t131-135 187-48q105 0 188 48t130 135 47 200-47 199.5-130 134T655 924q-104 0-187-47.5T337 742t-48-199z"/><glyph unicode="п" horiz-adv-x="1386" d="M190 0v1085h1006V0H999v913H387V0H190z"/><glyph unicode="р" horiz-adv-x="1409" d="M190-397v1482h189V913q66 90 166 136.5t221 46.5q158 0 282.5-70T1244 831.5t71-288.5-71-290-195.5-195.5T766-12q-117 0-214 45T387 164v-561H190zm195 940q0-113 47-200t131-135 186-48q105 0 188 48t131 135 48 200-48 199.5-131 134T749 924q-102 0-185-48.5T433 741t-48-198z"/><glyph unicode="с" d="M90 543q0 160 73.5 285.5t204 196.5 295.5 71q147 0 263-59.5T1106 864l-150-96q-51 78-126.5 117T661 924q-106 0-191-47.5T337 742t-48-199q0-115 48-202t133-134 191-47q92 0 168 39t127 116l150-94q-63-113-179-173T663-12q-165 0-295.5 71.5T163.5 257 90 543z"/><glyph unicode="т" horiz-adv-x="1009" d="M8 913v172h991V913H602V0H406v913H8z"/><glyph unicode="у" d="m-33-309 84 147q84-80 194-80 72 0 120 38t87 130l35 76L8 1085h205l379-868 374 868h193L633-109q-70-166-163-233.5T245-410q-80 0-154.5 26T-33-309z"/><glyph unicode="ф" horiz-adv-x="1648" d="M88 545q0 252 166 393t473 158v424h193v-424q305-16 473-158.5T1561 545q0-252-168-397.5T920-14v-383H727v383Q422 2 255 146.5T88 545zm195 0q0-174 111.5-272.5T727 160v762q-223-14-333.5-110.5T283 545zm637-387q446 35 446 387 0 172-112.5 267T920 922V158z"/><glyph unicode="х" horiz-adv-x="1107" d="m19 0 428 555-408 530h219l299-391 297 391h215L660 555 1092 0H869L555 416 238 0H19z"/><glyph unicode="ц" horiz-adv-x="1413" d="M190 0v1085h197V172h594v913h197V172h172v-432h-187V0H190z"/><glyph unicode="ч" horiz-adv-x="1247" d="M86 733v352h197V745q0-113 70.5-170T551 518q143 0 309 72v495h197V0H860v438q-176-82-350-82-203 0-313.5 94.5T86 733z"/><glyph unicode="ш" horiz-adv-x="1927" d="M190 0v1085h197V172h479v913h197V172h477v913h197V0H190z"/><glyph unicode="щ" horiz-adv-x="1927" d="M190 0v1085h197V172h479v913h197V172h477v913h197V0H190zm1342 0v172h366v-403h-184V0h-182z"/><glyph unicode="ъ" horiz-adv-x="1308" d="M8 913v172h529V719h294q201 0 308.5-93.5T1247 365q0-174-117.5-269.5T797 0H340v913H8zm529-763h254q127 0 192.5 55t65.5 164q0 104-64.5 154T791 573H537V150z"/><glyph unicode="ы" horiz-adv-x="1652" d="M190 0v1085h197V719l293-2q205-2 313.5-94.5T1102 362q0-176-118-271T647-2zm197 150 246-3q133-2 201.5 53.5T903 365q0 106-67.5 155T633 571l-246 4V150zM1264 0v1085h196V0h-196z"/><glyph unicode="ь" horiz-adv-x="1177" d="M190 0v1085h197V719l305-2q207-2 315.5-94.5T1116 362q0-176-117.5-271T662-2zm197 150 258-3q133-2 201.5 53.5T915 365q0 106-66.5 155T645 571l-258 4V150z"/><glyph unicode="э" horiz-adv-x="1177" d="m49 162 115 114q131-129 332-129 160 0 272.5 91.5T903 477H358v146h541q-27 141-137.5 228T496 938q-199 0-332-131L49 920q80 88 196.5 133t258.5 45q166 0 300-72t210-199 76-284q0-160-76-287T804 57.5 504-14q-143 0-259 45T49 162z"/><glyph unicode="ю" horiz-adv-x="1794" d="M190 0v1085h197V641h221q20 135 95 238.5t191 160 257 56.5q158 0 283-71t196.5-197 71.5-285q0-160-71.5-286T1434 59.5 1151-12q-143 0-260 59T699.5 214 606 459H387V0H190zm605 543q0-115 46-202t128-134 182-47 181 47 128 134 47 202q0 113-47 199.5t-128 134-181 47.5-182-47.5T841 742t-46-199z"/><glyph unicode="я" horiz-adv-x="1253" d="m98 0 264 371q-123 37-188 122t-65 212q0 186 126.5 283t350.5 97h475V0H885v344H547L309 0H98zm211 698q0-108 68.5-160.5T584 485h301v428H592q-283 0-283-215z"/><glyph unicode="ѐ" horiz-adv-x="1286" d="M90 543q0 158 70.5 284.5T355 1025t280 71 277.5-71 190-198 68.5-290q0-23-4-60H287q18-143 125.5-230T680 160q195 0 313 131l109-127q-74-86-183.5-131T674-12q-172 0-305.5 70.5T162.5 256 90 543zm168 966h250l278-266H602zm29-891h696q-16 137-111.5 224.5T635 930q-142 0-237-86T287 618z"/><glyph unicode="ё" horiz-adv-x="1286" d="M90 543q0 158 70.5 284.5T355 1025t280 71 277.5-71 190-198 68.5-290q0-23-4-60H287q18-143 125.5-230T680 160q195 0 313 131l109-127q-74-86-183.5-131T674-12q-172 0-305.5 70.5T162.5 256 90 543zm197 75h696q-16 137-111.5 224.5T635 930q-142 0-237-86T287 618zm51 764q0 45 30.5 76t73.5 31 74-31 31-76-31-74.5-74-29.5-73.5 29.5T338 1382zm381 0q0 45 30.5 76t73.5 31 74-31 31-76-31-74.5-74-29.5-73.5 29.5T719 1382z"/><glyph unicode="ђ" horiz-adv-x="1382" d="M-20 1231v139h213v150h186v-150h491v-139H379V922q59 84 160.5 129t230.5 45q207 0 330-120t123-351V-49q0-168-91.5-264.5T874-410q-70 0-132 16.5T639-344l63 151q63-51 160-51 80 0 122 49.5T1026-53v655q0 158-77 238t-218 80q-160 0-251-93.5T389 559V0H193v1231H-20z"/><glyph unicode="ѓ" horiz-adv-x="999" d="M190 0v1085h799V913H387V0H190zm252 1239 279 266h249l-344-266H442z"/><glyph unicode="є" horiz-adv-x="1181" d="M90 542q0 160 76 287t210 198.5 300 71.5q143 0 259-45t196-131l-115-114Q885 938 684 938q-160 0-272.5-91.5T277 608h545V462H281q27-141 137.5-228T684 147q199 0 332 131l115-113q-80-88-196.5-133T676-13q-166 0-300 72T166 258 90 542z"/><glyph unicode="ѕ" horiz-adv-x="1097" d="m88 115 82 155q72-51 174.5-81.5T551 158q258 0 258 147 0 49-35 78t-87 42-148 30q-131 20-214 46.5t-142.5 90T123 770q0 147 123 236.5t330 89.5q109 0 217-27t178-72l-84-155q-133 86-313 86-125 0-190.5-41T318 778q0-53 36.5-83.5t91-45T598 616q131-23 212-48t138.5-86.5T1006 309q0-147-126-234T537-12q-133 0-256 35.5T88 115z"/><glyph unicode="і" horiz-adv-x="579" d="M155 1421q0 53 38 91t96 38q57 0 95-35.5t38-89.5q0-55-38-93t-95-38q-58 0-96 37t-38 90zM190 0v1085h197V0H190z"/><glyph unicode="ї" horiz-adv-x="571" d="M37 1382q0 45 28.5 75t73.5 30q43 0 72-30t29-75-29-73.5-72-28.5q-45 0-73.5 29.5T37 1382zM186 0v1085h197V0H186zm144 1382q0 45 28.5 75t71.5 30q45 0 73.5-30t28.5-75-28.5-73.5T430 1280q-43 0-71.5 29.5T330 1382z"/><glyph unicode="ј" horiz-adv-x="581" d="m-192-344 63 151q61-51 160-51 78 0 120 48.5T193-53v1138h196V-49q0-168-90-264.5T43-410q-72 0-133 16.5T-192-344zm349 1765q0 53 38 91t96 38q57 0 95-35.5t38-89.5q0-55-38-93t-95-38q-58 0-96 37t-38 90z"/><glyph unicode="љ" horiz-adv-x="1912" d="m10 2 13 166q27-6 49-6 82 0 123 71.5t53 170T270 684l19 401h833V0H926v913H459l-13-241q-10-219-38.5-365.5T313.5 72 131-16Q78-16 10 2zm915-2v1085h197V719l305-2q207-2 315.5-94.5T1851 362q0-176-117.5-271T1397-2zm197 150 258-3q133-2 201.5 53.5T1650 365q0 106-66.5 155T1380 571l-258 4V150z"/><glyph unicode="њ" horiz-adv-x="1949" d="M190 0v1085h197V664h598v421h197V664h311q195 0 299-83t104-237q0-162-115.5-253T1460 0H985v494H387V0H190zm992 145h270q117 0 180.5 49.5T1696 332q0 84-62.5 128T1452 504h-270V145z"/><glyph unicode="ћ" horiz-adv-x="1380" d="M-74 1239v117h267v164h196v-164h488v-117H389V936q61 78 159.5 119t221.5 41q207 0 330-120t123-351V0h-197v602q0 158-77 238t-218 80q-160 0-251-93.5T389 559V0H193v1239H-74z"/><glyph unicode="ќ" horiz-adv-x="1224" d="M190 0v1085h197V627h229l353 458h211L768 563 1208 0H977L612 459H387V0H190zm287 1243 279 266h249l-344-266H477z"/><glyph unicode="ѝ" horiz-adv-x="1421" d="M190 0v1085h197V295l666 790h178V0h-197v791L371 0H190zm134 1509h250l278-266H668z"/><glyph unicode="ў" d="m-33-309 84 147q84-80 194-80 72 0 120 38t87 130l35 76L8 1085h205l379-868 374 868h193L633-109q-70-166-163-233.5T245-410q-80 0-154.5 26T-33-309zm269 1818h133q2-76 52-122t134-46 135.5 46.5T744 1509h137q-2-137-88-209.5T557 1227q-151 0-235 72.5T236 1509z"/><glyph unicode="џ" horiz-adv-x="1323" d="M190 0v1085h197V172h547v913h196V0H756v-260H569V0H190z"/><glyph unicode="Ѣ" horiz-adv-x="1660" d="M39 1137v151h383v232h201v-232h438v-151H623V926h434q256 0 389-115t133-338q0-227-144.5-350T1020 0H422v1137H39zm584-975h391q178 0 268 76.5t90 228.5q0 150-89 223.5T1014 764H623V162z"/><glyph unicode="ѣ" horiz-adv-x="1255" d="M0 989v144h268v387h197v-387h401V989H465V719l305-2q207-2 315.5-94.5T1194 362q0-176-119-271T737-2L268 0v989H0zm465-839 258-3q133-2 201.5 53.5T993 365q0 106-67.5 155T723 571l-258 4V150z"/><glyph unicode="Ѫ" horiz-adv-x="1843" d="m37 0 141 324q92 229 223 335.5T709 766l-502 532v136h1431v-129l-503-539h2q176 0 308-106.5T1667 324L1806 0h-211l-114 274q-129 340-391 340h-72V0H825v614h-67q-133 0-231.5-81.5T362 274L248 0H37zm399 1276 486-510 485 510H436z"/><glyph unicode="ѫ" horiz-adv-x="1441" d="m31 0 100 238q70 176 163 260t226 88L158 961v124h1118V961L911 586q139-2 234.5-85T1311 238L1411 0h-192l-80 195q-45 133-111.5 192T862 446h-59V0H633v446h-53q-98 0-166-60T301 195L225 0H31zm334 948 350-362h4l352 362H365z"/><glyph unicode="Ѳ" horiz-adv-x="1736" d="M104 717q0 207 99.5 375T477 1355t391 95q215 0 389-95t272.5-262 98.5-376-98.5-376T1257 79 868-16q-217 0-391 95T203.5 342 104 717zm71-82v162h1399V635H175zm134 82q0-156 73-282t201-197.5T868 166q158 0 284 71.5T1350.5 435t72.5 282-72.5 281.5T1152 1196t-284 72-285.5-72T382 998t-73-281z"/><glyph unicode="ѳ" horiz-adv-x="1331" d="M90 543q0 160 75 285.5T371 1025t295 71q163 0 294.5-71t206-197 74.5-285q0-160-74.5-286t-206-197.5T666-12q-164 0-295 71.5T165 257 90 543zm193-70q20-150 125.5-239T666 145q153 0 257.5 89.5T1049 473H283zm0 139h766q-20 150-125 239t-258 89q-154 0-258.5-89T283 612z"/><glyph unicode="Ѵ" horiz-adv-x="1558" d="M29 1434h223L721 297l301 829q59 170 145 249t219 79q66 0 146-18l-23-201q-49 12-88 12-82 0-135-56t-102-187L819 0H618z"/><glyph unicode="ѵ" horiz-adv-x="1220" d="M10 1085h217l357-833 229 608q47 129 110.5 185.5T1083 1102q57 0 129-19l-20-194q-43 12-76 12-49 0-78.5-38T967 725L682 0H485z"/><glyph unicode="Ҋ" horiz-adv-x="1742" d="M223 0v1434h203V328l848 1106h188V178h207l-145-491h-164l78 313h-176v1104L412 0H223zm264 1815h146q2-80 56-124t151-44q92 0 148 44t59 124h143q-2-133-93-207t-257-74q-168 0-259.5 72.5T487 1815z"/><glyph unicode="ҋ" horiz-adv-x="1466" d="M190 0v1085h197V295l666 790h178V172h172l-119-403h-160l60 231h-150v791L371 0H190zm177 1509h133q2-74 58-118.5t140-44.5 140.5 45 58.5 118h133q-4-127-97-202.5T698 1231q-141 0-234 75.5T367 1509z"/><glyph unicode="Ҍ" horiz-adv-x="1513" d="M63 1137v151h211v232h203v-232h438v-151H477V926h434q254 0 387.5-116T1432 473q0-227-144.5-350T872 0H274v1137H63zm414-975h389q178 0 268.5 76.5T1225 467q0 150-89 223.5T866 764H477V162z"/><glyph unicode="ҍ" horiz-adv-x="1241" d="M45 815v146h211v124h197V961h401V815H453V692l305-2q209-2 316.5-86T1182 354q0-176-118-267T725-2L256 0v815H45zm408-665 258-3q270-4 270 209 0 102-65.5 145.5T711 547l-258 2V150z"/><glyph unicode="Ҏ" horiz-adv-x="1501" d="M223 0v1434h561q279 0 437.5-134.5T1380 926q0-140-55-245.5T1165 510l189-246-113-92-213 279q-104-33-244-33H428V0H223zm205 594h348q72 0 133 12L702 877l113 92 234-307q127 86 127 264 0 160-102.5 244.5T776 1255H428V594z"/><glyph unicode="ҏ" horiz-adv-x="1431" d="M193-397v1482h188V858q59 117 163.5 177.5T795 1096q147 0 267-70t188.5-195.5T1319 541q0-125-42-230.5T1159 131l137-174-110-86-142 176Q931-12 795-12q-137 0-241.5 58T389 213v-610H193zm194 938q0-115 48-201t132-133 189-47q96 0 170 37L776 385l113 88 149-188q86 102 86 256 0 113-48 199.5t-132 135T756 924t-188.5-48.5T435 740t-48-199z"/><glyph unicode="Ґ" horiz-adv-x="1189" d="M223 0v1434h752v295h188v-474H426V0H223z"/><glyph unicode="ґ" horiz-adv-x="954" d="M190 0v1085h568v222h184V913H387V0H190z"/><glyph unicode="Ғ" horiz-adv-x="1265" d="M61 586v153h218v695h940l-2-179H479V739h600V586H481V0H279v586H61z"/><glyph unicode="ғ" horiz-adv-x="1056" d="M88 399v140h135v546h799V913H420V539h463V399H420V0H223v399H88z"/><glyph unicode="Ҕ" horiz-adv-x="1439" d="M223 0v1434h981v-179H426V717q195 96 383 96 152 0 273.5-63.5t191-182T1343 287q0-170-71.5-302T1074-221t-281-74q-72 0-138 14l35 170q51-10 90-10 102 0 184.5 49T1094 67.5t47 204.5q0 174-106.5 274.5T764 647q-170 0-338-108V0H223z"/><glyph unicode="ҕ" horiz-adv-x="1230" d="M190 0v1085h777V913H387V514q157 70 311 70 137 0 248-56.5t174.5-165T1184 106q0-152-65.5-269.5T934-345.5 659-410q-68 0-153 17l41 170q57-10 100-10 156 0 246 90t90 241q0 158-90 239t-229 81q-145 0-277-78V0H190z"/><glyph unicode="Җ" horiz-adv-x="2187" d="m39 0 473 745-438 689h219l383-623h278v623h201V811h275l385 623h219l-439-693L2068 0h-239l-402 631h-272V0H954v631H680L279 0H39zm1790 0v178h330v-491h-191V0h-139z"/><glyph unicode="җ" horiz-adv-x="1806" d="m27 0 372 561-344 524h209l293-458h213v458h197V627h213l293 458h210l-344-526L1712 0h-233l-301 459H967V0H770v459H559L260 0H27zm1452 0v168h315v-399h-178V0h-137z"/><glyph unicode="Ҙ" horiz-adv-x="1314" d="m66 156 71 151q94-74 211-110.5T584 160q172 0 288.5 72.5T989 432q0 109-88 167t-248 58H334v166h305q137 0 214 56.5t77 156.5q0 113-100.5 178.5T575 1280q-100 0-203.5-28.5T176 1165l-65 168q109 61 229.5 92t241.5 31q152 0 278.5-47t201.5-137 75-211q0-109-60.5-191T909 748q135-37 211-128.5t76-218.5-81-222T900 34 608-16q-143 0-284.5 43T66 156zM527 47h190v-360H527V47z"/><glyph unicode="ҙ" horiz-adv-x="1114" d="m57 109 60 149q78-49 178-76.5T498 154q139 0 222 48t83 130q0 76-66.5 116.5T549 489H350v142h185q111 0 174 39t63 106q0 74-74.5 115T496 932q-162 0-342-84l-54 151q199 100 416 101 131 0 235.5-37t164-104.5T975 805q0-80-53.5-143.5T778 565q109-29 168.5-92t59.5-158q0-127-110-215T608-8v-223H422v221Q322-2 227.5 28.5T57 109z"/><glyph unicode="Қ" horiz-adv-x="1546" d="M223 0v1434h201V811h303l451 623h219L885 739 1421 0h-233L723 631H424V0H223zm965 0v178h330v-491h-191V0h-139z"/><glyph unicode="қ" horiz-adv-x="1224" d="M190 0v1085h197V627h229l353 458h211L768 563 1208 0H977L612 459H387V0H190zm787 0v168h315v-399h-178V0H977z"/><glyph unicode="Ҝ" horiz-adv-x="1515" d="M223 0v1434h201V811h143v289h154V811h98l402 623h219L981 739 1479 0h-240L817 631h-96V344H567v287H424V0H223z"/><glyph unicode="ҝ" horiz-adv-x="1257" d="M186 0v1085h197V627h102v204h144V627h63l303 458h207L846 561 1233 0h-229L690 459h-61V258H485v201H383V0H186z"/><glyph unicode="Ҟ" horiz-adv-x="1501" d="M72 1108v145h196v181h201v-181h346v-145H469V811h303l451 623h219L930 739 1466 0h-233L768 631H469V0H268v1108H72z"/><glyph unicode="ҟ" horiz-adv-x="1222" d="M0 1231v141h193v148h196v-150h311v-139H389V627h225l355 458h211L768 561 1208 0H975L610 459H389V0H193v1231H0z"/><glyph unicode="Ҡ" horiz-adv-x="1693" d="M27 1255v179h635V811h303l450 623h219l-512-695L1659 0h-232L961 631H662V0H461v1255H27z"/><glyph unicode="ҡ" horiz-adv-x="1372" d="M8 915v170h529V627h227l352 458h213L918 563 1358 0h-232L762 459H537V0H340v915H8z"/><glyph unicode="Ң" horiz-adv-x="1734" d="M223 0v1434h205V817h823v617h205V0h-205v639H428V0H223zm1036 0v178h420v-491h-188V0h-232z"/><glyph unicode="ң" horiz-adv-x="1437" d="M190 0v1085h197V625h619v460h196V0h-196v455H387V0H190zm816 0v172h366v-403h-184V0h-182z"/><glyph unicode="Ҥ" horiz-adv-x="2226" d="M223 0v1434h205V817h823v617h205V0h-205v639H428V0H223zm1036 0v1434h940l-2-179h-737l2-1255h-203z"/><glyph unicode="ҥ" horiz-adv-x="1814" d="M190 0v1085h197V625h619v460h196V0h-196v455H387V0H190zm815 0v1085h799V913h-602V0h-197z"/><glyph unicode="Ҧ" horiz-adv-x="2449" d="M223 0v1434h1235V721q187 92 375 92 152 0 274.5-63.5t192.5-182 70-280.5q0-168-72-301t-198-207-279-74q-74 0-140 14l35 170q55-10 92-10 102 0 183.5 50.5T2120 69t47 203q0 172-104.5 271.5T1796 643q-166 0-338-102V0h-201v1255H426V0H223z"/><glyph unicode="ҧ" horiz-adv-x="1998" d="M190 0v1085h977V516q158 68 308 68 137 0 246.5-56.5t173-165T1958 106q0-152-65.5-269.5t-185.5-182-275-64.5q-68 0-154 17l41 170q57-10 102-10 156 0 246 90t90 241q0 158-91 239t-230 81q-141 0-269-74V0H971v913H387V0H190z"/><glyph unicode="Ҩ" horiz-adv-x="1994" d="M117 758q0 217 95 401t265 299l160-94q-147-102-231-265t-84-349q0-182 78.5-322.5t222-217.5T952 133q47 0 95 6-154 115-241 291t-87 387q0 190 71.5 336.5T990 1381t296 81q162 0 287-76.5t193.5-215T1835 852q0-221-104.5-410.5T1444 133q82-14 145-14 121 0 246 37l18-152q-141-37-274-37-182 0-342 66-154-53-322-53-233 0-414.5 98T218 353 117 758zm809 57q0-211 89-371.5T1262 199q172 80 269 244.5t97 383.5q0 211-92 332t-254 121q-164 0-260-126t-96-339z"/><glyph unicode="ҩ" horiz-adv-x="1650" d="M96 580q0 164 75 303t210 223l154-86q-117-84-179.5-198.5T293 573q0-133 60.5-233t172-154.5T782 131q29 0 43 2-109 88-169 213t-60 272q0 145 57.5 257t163 172.5T1061 1108q135 0 236.5-57.5t157.5-162 56-239.5q0-160-75.5-297T1225 123q43-6 90-6 96 0 196 24l13-143q-107-29-224-29-152 0-286 54-129-39-262-39-195 0-343.5 74.5T178 268 96 580zm692 43q0-148 68-261.5T1040 184q131 59 206 177t75 276q0 137-72.5 221T1059 942q-123 0-197-87t-74-232z"/><glyph unicode="Ҫ" horiz-adv-x="1470" d="M106 717q0 209 98.5 376T477 1355t389 95q168 0 307.5-56.5T1411 1227l-133-129q-162 170-404 170-160 0-288.5-72T384 998t-73-281q0-156 73-282t202-197.5T874 166q240 0 404 172l133-129q-98-111-238.5-168T864-16q-215 0-388 95T204.5 341 106 717zM738 47h190v-360H738V47z"/><glyph unicode="ҫ" d="M90 543q0 160 73.5 285.5t204 196.5 295.5 71q147 0 263-59.5T1106 864l-150-96q-51 78-126.5 117T661 924q-106 0-191-47.5T337 742t-48-199q0-115 48-202t133-134 191-47q92 0 168 39t127 116l150-94q-63-113-179-173T663-12q-165 0-295.5 71.5T163.5 257 90 543zM551 43h186v-274H551V43z"/><glyph unicode="Ҭ" horiz-adv-x="1234" d="M27 1255v179h1181v-179H717V0H516v1255H27zM516 0v178h420v-491H748V0H516z"/><glyph unicode="ҭ" horiz-adv-x="1009" d="M8 913v172h991V913H602V0H406v913H8zM406 0v172h366v-403H588V0H406z"/><glyph unicode="Ү" horiz-adv-x="1366" d="M12 1434h219l459-756 460 756h203L784 496V0H581v500z"/><glyph unicode="ү" horiz-adv-x="1175" d="M12 1085h207l373-868 381 868h190L686-4v-393H487V-4z"/><glyph unicode="Ұ" horiz-adv-x="1325" d="M-8 1434h219l459-756 460 756h203L764 496V0H561v500zM177 432v156h964V432H177z"/><glyph unicode="ұ" horiz-adv-x="1175" d="M12 1085h207l373-868 381 868h190L686-4v-393H487V-4zM144-60V80h882V-60H144z"/><glyph unicode="Ҳ" horiz-adv-x="1443" d="m35 0 522 737-487 697h235l375-525 375 525h239L809 745 1333 0h-241L680 571 270 0H35zm1057 0v178h330v-491h-191V0h-139z"/><glyph unicode="ҳ" horiz-adv-x="1107" d="m19 0 428 555-408 530h219l299-391 297 391h215L660 555 1092 0H869L555 416 238 0H19zm847 0v168h315v-399h-178V0H866z"/><glyph unicode="Ҵ" horiz-adv-x="1994" d="M29 1255v179h1124v-179H723V176h799v1256h202V176h222v-504h-191V-2H520v1257H29z"/><glyph unicode="ҵ" horiz-adv-x="1579" d="M10 913v172h912V913H604V172h549v913h197V172h155v-403h-184V0H408v913H10z"/><glyph unicode="Ҷ" horiz-adv-x="1562" d="M111 969v465h200V991q0-160 97.5-246T684 659q199 0 397 91v684h203V0h-203v567q-227-88-419-88-262 0-406.5 127T111 969zM1081 0v178h420v-491h-188V0h-232z"/><glyph unicode="ҷ" horiz-adv-x="1298" d="M86 733v352h197V745q0-113 70.5-170T551 518q143 0 309 72v495h197V0H860v438q-176-82-350-82-203 0-313.5 94.5T86 733zM860 0v172h366v-403h-184V0H860z"/><glyph unicode="Ҹ" horiz-adv-x="1507" d="M109 969v465h200V991q0-141 77-225t218-102v286h154V664q166 12 321 86v684h203V0h-203v567q-172-68-321-82V193H604v288q-238 12-366.5 139.5T109 969z"/><glyph unicode="ҹ" horiz-adv-x="1247" d="M84 733v352h197V745q0-100 55-156.5T492 522v213h145V524q109 16 221 66v495h197V0H858v438q-111-51-221-71V154H492v202q-195 4-301.5 98.5T84 733z"/><glyph unicode="Һ" horiz-adv-x="1507" d="M223 0v1434h203V866q227 88 420 88 262 0 406.5-127T1397 465V0h-201v442q0 160-97.5 246T823 774q-199 0-397-90V0H223z"/><glyph unicode="һ" horiz-adv-x="1380" d="M190 0v1520h197V932q61 78 160.5 121t222.5 43q207 0 329-120t122-351V0h-197v602q0 158-76 238t-217 80q-160 0-252-93.5T387 559V0H190z"/><glyph unicode="Ҽ" horiz-adv-x="2025" d="M66 946q0 117 59 230l192-39q-57-84-57-172 0-76 48-125t136-49h31q18 199 121.5 348T862 1369t348 81q199 0 366-90t266.5-256 99.5-381q-1-56-11-107H684q23-137 99.5-239.5T975 220t246-54q115 0 226.5 44T1655 340l147-133Q1677 96 1526.5 40T1221-16q-184 0-346 75.5t-268.5 219T477 616h-57q-166 0-260 93.5T66 946zm614-155h1049q-14 141-86 250.5t-186 169-247 59.5q-135 0-249.5-59.5t-189.5-169T680 791z"/><glyph unicode="ҽ" horiz-adv-x="1579" d="M43 707q0 80 47 178l164-35q-39-63-39-119 0-51 38-82t109-31h21q16 139 93 248t197 169.5 267 60.5q160 0 287-71t197.5-198 70.5-290q0-31-6-60H580q18-143 128.5-230T985 160q203 0 326 131l110-127q-76-86-188.5-131T981-12q-166 0-296 61.5t-209 173T383 477h-45q-141 0-218 62.5T43 707zm537-89h720q-16 137-115.5 224.5T940 930t-244.5-86T580 618z"/><glyph unicode="Ҿ" horiz-adv-x="2025" d="M66 946q0 117 59 230l192-39q-57-84-57-172 0-76 48-125t136-49h31q18 199 121.5 348T862 1369t348 81q199 0 366-90t266.5-256 99.5-381q-1-56-11-107H684q23-137 99.5-239.5T975 220t246-54q115 0 226.5 44T1655 340l147-133Q1677 96 1526.5 40T1221-16q-184 0-346 75.5t-268.5 219T477 616h-57q-166 0-260 93.5T66 946zm614-155h1049q-14 141-86 250.5t-186 169-247 59.5q-135 0-249.5-59.5t-189.5-169T680 791zm449-744h190v-360h-190V47z"/><glyph unicode="ҿ" horiz-adv-x="1579" d="M43 707q0 80 47 178l164-35q-39-63-39-119 0-51 38-82t109-31h21q16 139 93 248t197 169.5 267 60.5q160 0 287-71t197.5-198 70.5-290q0-31-6-60H580q18-143 128.5-230T985 160q203 0 326 131l110-127q-76-86-188.5-131T981-12q-166 0-296 61.5t-209 173T383 477h-45q-141 0-218 62.5T43 707zm537-89h720q-16 137-115.5 224.5T940 930t-244.5-86T580 618zM859 43h186v-274H859V43z"/><glyph unicode="Ӏ" horiz-adv-x="651" d="M223 0v1434h205V0H223z"/><glyph unicode="Ӂ" horiz-adv-x="2107" d="m39 0 473 745-438 689h219l383-623h278v623h201V811h275l385 623h219l-439-693L2068 0h-239l-402 631h-272V0H954v631H680L279 0H39zm665 1815h146q2-80 56-124t151-44q92 0 148.5 44t58.5 124h143q-2-133-93-207t-257-74q-168 0-259 72.5T704 1815z"/><glyph unicode="ӂ" horiz-adv-x="1738" d="m27 0 372 561-344 524h209l293-458h213v458h197V627h213l293 458h210l-344-526L1712 0h-233l-301 459H967V0H770v459H559L260 0H27zm520 1509h133q2-76 52-122t134-46 135.5 46.5T1055 1509h137q-2-137-88-209.5T868 1227q-151 0-235 72.5T547 1509z"/><glyph unicode="Ӄ" horiz-adv-x="1462" d="M223 0v1434h201V811h303l449 623h219L885 737q254-248 392-449.5T1415-70q0-160-91-252t-249-92q-125 0-241 62l53 155q78-41 147-41 74 0 117 46.5T1194-63q0 125-134 315T721 631H424V0H223z"/><glyph unicode="ӄ" horiz-adv-x="1224" d="M190 0v1085h197V629h231l351 456h211L780 578q187-168 289-339t102-321-91-239-242-89q-117 0-236 60l55 147q82-43 150-43 78 0 123 46t45 128q0 111-90 254.5T645 459H387V0H190z"/><glyph unicode="ӆ" horiz-adv-x="1357" d="m10 2 13 166q27-6 49-6 82 0 123 71.5t53 170T270 684l19 401h833V172h172l-118-403h-160l59 231H926v913H459l-13-241q-10-219-38.5-365.5T313.5 72 131-16Q78-16 10 2z"/><glyph unicode="Ӈ" horiz-adv-x="1669" d="M223 0v1434h203V807h819v627h201V-80q0-106-47-181t-125-113-168-38q-129 0-244 70l60 149q74-49 151-49 74 0 123 45t49 127v697H426V0H223z"/><glyph unicode="ӈ" horiz-adv-x="1406" d="M190 0v1085h197V625h631v460h196V-59q0-162-89-256.5T877-410q-70 0-133.5 17.5T637-342l61 149q61-51 152-51 80 0 124 49.5T1018-53v508H387V0H190z"/><glyph unicode="Ӊ" horiz-adv-x="1736" d="M223 0v1434h205V817h823v617h205V178h211l-145-491h-164l78 313h-185v639H428V0H223z"/><glyph unicode="ӊ" horiz-adv-x="1439" d="M190 0v1085h197V625h619v460h196V172h172l-119-403h-159l59 231h-149v455H387V0H190z"/><glyph unicode="Ӌ" horiz-adv-x="1499" d="M104 993v441h203v-418q0-152 96.5-234T676 700q201 0 397 86v648h203V0h-260v-313H825v491h248v432q-221-90-418-90-262 0-406.5 123T104 993z"/><glyph unicode="ӌ" horiz-adv-x="1241" d="M80 766v319h196V778q0-111 71-168t198-57q147 0 309 72v460h197V0H852v-231H666v395h188v307q-172-80-350-80-203 0-313.5 93.5T80 766z"/><glyph unicode="Ӎ" horiz-adv-x="2048" d="M223 0v1434h168L989 426l590 1008h168l2-1256h225l-145-491h-164l78 313h-191l-2 1044-518-870h-94l-518 864V0H223z"/><glyph unicode="ӎ" horiz-adv-x="1697" d="M190 0v1085h203l426-733 438 733h185V172h190l-119-403h-159l59 231h-149v793L858 123h-86L371 795V0H190z"/><glyph unicode="ӏ" horiz-adv-x="579" d="M190 0v1520h197V0H190z"/><glyph unicode="Ӑ" horiz-adv-x="1552" d="m25 0 649 1434h203L1528 0h-215l-158 358H394L236 0H25zm398 1815h146q2-80 56-124t151-44q92 0 148.5 44t58.5 124h143q-2-133-93-207t-257-74q-168 0-259 72.5T423 1815zm42-1293h619l-309 703z"/><glyph unicode="ӑ" horiz-adv-x="1206" d="M98 307q0 143 104.5 230.5T535 625h311v39q0 127-74 194.5T555 926q-96 0-188-32t-156-85l-82 147q84 68 201 104t248 36q225 0 345-111t120-330V0H856v143Q807 67 716 27.5T500-12q-182 0-292 88T98 307zm173 1202h133q2-76 52-122t134-46 135.5 46.5T779 1509h137q-2-137-88-209.5T592 1227q-151 0-235 72.5T271 1509zm22-1194q0-82 63.5-129T533 139q112 0 194 50.5T846 332v151H543q-250 0-250-168z"/><glyph unicode="Ӓ" horiz-adv-x="1552" d="m25 0 649 1434h203L1528 0h-215l-158 358H394L236 0H25zm440 522h619l-309 703zm17 1168q0 45 30.5 75.5T586 1796t74-30.5 31-75.5-31-75-74-30-73.5 30-30.5 75zm381 0q0 45 30.5 75.5T967 1796t74-30.5 31-75.5-31-75-74-30-73.5 30-30.5 75z"/><glyph unicode="ӓ" horiz-adv-x="1206" d="M98 307q0 143 104.5 230.5T535 625h311v39q0 127-74 194.5T555 926q-96 0-188-32t-156-85l-82 147q84 68 201 104t248 36q225 0 345-111t120-330V0H856v143Q807 67 716 27.5T500-12q-182 0-292 88T98 307zm195 8q0-82 63.5-129T533 139q112 0 194 50.5T846 332v151H543q-250 0-250-168zm4 1067q0 45 30.5 76t73.5 31 74-31 31-76-31-74.5-74-29.5-73.5 29.5T297 1382zm381 0q0 45 30.5 76t73.5 31 74-31 31-76-31-74.5-74-29.5-73.5 29.5T678 1382z"/><glyph unicode="Ӕ" horiz-adv-x="2142" d="m14 0 854 1434h1149v-179h-809V815h719V641h-719V178h838V0H1005v358H436L225 0H14zm518 522h473v733h-41z"/><glyph unicode="ӕ" horiz-adv-x="2037" d="M98 315q0 135 104.5 221.5T535 623h311v41q0 127-72.5 194.5T557 926q-98 0-190-32t-156-85l-82 147q84 68 201 104t246 36q301 0 403-193 72 90 179.5 141.5T1395 1096q154 0 277.5-71t193-195.5T1935 549q0-39-6-68h-884q16-145 122.5-233t270.5-88q190 0 313 131l111-127q-76-86-185.5-131T1432-12q-152 0-275 54T954 207Q891 92 776.5 40T520-12q-197 0-309.5 90T98 315zm195 4q0-86 64.5-133T537 139q143 0 226 74t83 199v69H543q-250 0-250-162zm754 304h694q-16 143-115.5 225T1393 930q-131 0-229.5-82T1047 623z"/><glyph unicode="Ӗ" horiz-adv-x="1361" d="M223 0v1434h1012v-179H428V815h719V641H428V178h835V0H223zm155 1815h146q2-80 56-124t151-44q92 0 148.5 44t58.5 124h143q-2-133-93-207t-257-74q-168 0-259 72.5T378 1815z"/><glyph unicode="ӗ" horiz-adv-x="1286" d="M90 543q0 158 70.5 284.5T355 1025t280 71 277.5-71 190-198 68.5-290q0-23-4-60H287q18-143 125.5-230T680 160q195 0 313 131l109-127q-74-86-183.5-131T674-12q-172 0-305.5 70.5T162.5 256 90 543zm197 75h696q-16 137-111.5 224.5T635 930q-142 0-237-86T287 618zm25 891h133q2-76 52-122t134-46 135.5 46.5T820 1509h137q-2-137-88-209.5T633 1227q-151 0-235 72.5T312 1509z"/><glyph unicode="Ә" horiz-adv-x="1685" d="M84 711q0 63 6 94h1278q-20 141-99 245.5t-199 161-257 56.5q-115 0-228.5-43T371 1094l-148 133q127 111 281.5 167t312.5 56q203 0 377-88t279.5-253T1579 721q0-219-102.5-387T1201 75 825-16 452.5 74t-269 255T84 711zm207-56q12-145 86-256.5t191.5-173T825 164q140 0 259.5 61.5t196.5 173 91 256.5H291z"/><glyph unicode="ә" horiz-adv-x="1284" d="M115 549q0 23 4 59h880q-18 143-125.5 230.5T606 926q-195 0-313-131L184 922q74 86 183.5 131t244.5 45q172 0 305.5-71t206-198 72.5-286q0-158-70.5-285T931 60.5 651-10 373.5 60.5 183.5 258 115 549zm188-82q16-137 111.5-224T651 156q142 0 237 86t111 225H303z"/><glyph unicode="Ӛ" horiz-adv-x="1685" d="M84 711q0 63 6 94h1278q-20 141-99 245.5t-199 161-257 56.5q-115 0-228.5-43T371 1094l-148 133q127 111 281.5 167t312.5 56q203 0 377-88t279.5-253T1579 721q0-219-102.5-387T1201 75 825-16 452.5 74t-269 255T84 711zm207-56q12-145 86-256.5t191.5-173T825 164q140 0 259.5 61.5t196.5 173 91 256.5H291zm260 1035q0 45 30.5 75.5T655 1796t74-30.5 31-75.5-31-75-74-30-73.5 30-30.5 75zm381 0q0 45 30.5 75.5t73.5 30.5 74-30.5 31-75.5-31-75-74-30-73.5 30-30.5 75z"/><glyph unicode="ӛ" horiz-adv-x="1284" d="M115 549q0 23 4 59h880q-18 143-125.5 230.5T606 926q-195 0-313-131L184 922q74 86 183.5 131t244.5 45q172 0 305.5-71t206-198 72.5-286q0-158-70.5-285T931 60.5 651-10 373.5 60.5 183.5 258 115 549zm188-82q16-137 111.5-224T651 156q142 0 237 86t111 225H303zm56 915q0 45 30.5 76t73.5 31 74-31 31-76-31-74.5-74-29.5-73.5 29.5T359 1382zm381 0q0 45 30.5 76t73.5 31 74-31 31-76-31-74.5-74-29.5-73.5 29.5T740 1382z"/><glyph unicode="Ӝ" horiz-adv-x="2107" d="m39 0 473 745-438 689h219l383-623h278v623h201V811h275l385 623h219l-439-693L2068 0h-239l-402 631h-272V0H954v631H680L279 0H39zm723 1690q0 45 30.5 75.5T866 1796t74-30.5 31-75.5-31-75-74-30-73.5 30-30.5 75zm381 0q0 45 30.5 75.5t73.5 30.5 74-30.5 31-75.5-31-75-74-30-73.5 30-30.5 75z"/><glyph unicode="ӝ" horiz-adv-x="1738" d="m27 0 372 561-344 524h209l293-458h213v458h197V627h213l293 458h210l-344-526L1712 0h-233l-301 459H967V0H770v459H559L260 0H27zm547 1382q0 45 30.5 76t73.5 31 74-31 31-76-31-74.5-74-29.5-73.5 29.5T574 1382zm381 0q0 45 30.5 76t73.5 31 74-31 31-76-31-74.5-74-29.5-73.5 29.5T955 1382z"/><glyph unicode="Ӟ" horiz-adv-x="1314" d="m66 156 71 151q94-74 211-110.5T584 160q172 0 288.5 72.5T989 432q0 109-88 167t-248 58H334v166h305q137 0 214 56.5t77 156.5q0 113-100.5 178.5T575 1280q-100 0-203.5-28.5T176 1165l-65 168q109 61 229.5 92t241.5 31q152 0 278.5-47t201.5-137 75-211q0-109-60.5-191T909 748q135-37 211-128.5t76-218.5-81-222T900 34 608-16q-143 0-284.5 43T66 156zm293 1534q0 45 30.5 75.5T463 1796t74-30.5 31-75.5-31-75-74-30-73.5 30-30.5 75zm381 0q0 45 30.5 75.5T844 1796t74-30.5 31-75.5-31-75-74-30-73.5 30-30.5 75z"/><glyph unicode="ӟ" horiz-adv-x="1114" d="m57 109 60 149q78-49 178-76.5T498 154q139 0 222 48t83 130q0 76-66.5 116.5T549 489H350v142h185q111 0 174 39t63 106q0 74-74.5 115T496 932q-162 0-342-84l-54 151q199 100 416 101 131 0 235.5-37t164-104.5T975 805q0-80-53.5-143.5T778 565q109-28 168.5-91.5T1006 315q0-96-66-170.5T758.5 28 500-14q-121 0-237 31.5T57 109zm187 1273q0 45 30.5 76t73.5 31 74-31 31-76-31-74.5-74-29.5-73.5 29.5T244 1382zm381 0q0 45 30.5 76t73.5 31 74-31 31-76-31-74.5-74-29.5-73.5 29.5T625 1382z"/><glyph unicode="Ӡ" horiz-adv-x="1275" d="m63 156 76 161q78-72 202-113.5T604 162q174 0 269.5 68.5T969 422q0 117-94.5 183.5T590 672H471v141l393 447H119v174h989v-140L698 829q232-14 355-123.5T1176 422q0-125-63.5-224.5T921 41 608-16q-166 0-312 46T63 156z"/><glyph unicode="ӡ" horiz-adv-x="1079" d="M-41-231 35-68q72-74 187.5-117.5T467-229q164 0 253 70.5T809 39q0 125-87 194.5T459 303H342v139l373 469H10v174h940V944L565 461q219-17 333-129.5T1012 39q0-127-60.5-229.5T770-352.5 475-412q-156 0-294 49.5T-41-231z"/><glyph unicode="Ӣ" horiz-adv-x="1685" d="M223 0v1434h203V328l848 1106h188V0h-200v1104L412 0H223zm283 1622v123h667v-123H506z"/><glyph unicode="ӣ" horiz-adv-x="1421" d="M190 0v1085h197V295l666 790h178V0h-197v791L371 0H190zm175 1315v123h667v-123H365z"/><glyph unicode="Ӥ" horiz-adv-x="1685" d="M223 0v1434h203V328l848 1106h188V0h-200v1104L412 0H223zm322 1690q0 45 30.5 75.5T649 1796t74-30.5 31-75.5-31-75-74-30-73.5 30-30.5 75zm381 0q0 45 30.5 75.5t73.5 30.5 74-30.5 31-75.5-31-75-74-30-73.5 30-30.5 75z"/><glyph unicode="ӥ" horiz-adv-x="1421" d="M190 0v1085h197V295l666 790h178V0h-197v791L371 0H190zm214 1382q0 45 30.5 76t73.5 31 74-31 31-76-31-74.5-74-29.5-73.5 29.5T404 1382zm381 0q0 45 30.5 76t73.5 31 74-31 31-76-31-74.5-74-29.5-73.5 29.5T785 1382z"/><glyph unicode="Ӧ" horiz-adv-x="1736" d="M104 717q0 207 99.5 375T477 1355t391 95q215 0 389-95t272.5-262 98.5-376-98.5-376T1257 79 868-16q-217 0-391 95T203.5 342 104 717zm205 0q0-156 73-282t201-197.5T868 166q158 0 284 71.5T1350.5 435t72.5 282-72.5 281.5T1152 1196t-284 72-285.5-72T382 998t-73-281zm265 973q0 45 30.5 75.5T678 1796t74-30.5 31-75.5-31-75-74-30-73.5 30-30.5 75zm381 0q0 45 30.5 75.5t73.5 30.5 74-30.5 31-75.5-31-75-74-30-73.5 30-30.5 75z"/><glyph unicode="ӧ" horiz-adv-x="1312" d="M90 543q0 160 72.5 285.5T364 1025t291 71 290-71 200.5-197 72.5-285q0-160-72.5-286T945 59.5 655-12 364 59.5 162.5 257 90 543zm199 0q0-113 48-200t131-135 187-48q105 0 188 48t130 135 47 200-47 199.5-130 134T655 924q-104 0-187-47.5T337 742t-48-199zm70 839q0 45 30.5 76t73.5 31 74-31 31-76-31-74.5-74-29.5-73.5 29.5T359 1382zm381 0q0 45 30.5 76t73.5 31 74-31 31-76-31-74.5-74-29.5-73.5 29.5T740 1382z"/><glyph unicode="Ө" horiz-adv-x="1736" d="M104 717q0 207 99.5 375T477 1355t391 95q215 0 389-95t272.5-262 98.5-376-98.5-376T1257 79 868-16q-217 0-391 95T203.5 342 104 717zm71-82v162h1399V635H175zm134 82q0-156 73-282t201-197.5T868 166q158 0 284 71.5T1350.5 435t72.5 282-72.5 281.5T1152 1196t-284 72-285.5-72T382 998t-73-281z"/><glyph unicode="ө" horiz-adv-x="1331" d="M90 543q0 160 75 285.5T371 1025t295 71q163 0 294.5-71t206-197 74.5-285q0-160-74.5-286t-206-197.5T666-12q-164 0-295 71.5T165 257 90 543zm193-70q20-150 125.5-239T666 145q153 0 257.5 89.5T1049 473H283zm0 139h766q-20 150-125 239t-258 89q-154 0-258.5-89T283 612z"/><glyph unicode="Ӫ" horiz-adv-x="1736" d="M104 717q0 207 99.5 375T477 1355t391 95q215 0 389-95t272.5-262 98.5-376-98.5-376T1257 79 868-16q-217 0-391 95T203.5 342 104 717zm71-82v162h1399V635H175zm134 82q0-156 73-282t201-197.5T868 166q158 0 284 71.5T1350.5 435t72.5 282-72.5 281.5T1152 1196t-284 72-285.5-72T382 998t-73-281zm265 973q0 45 30.5 75.5T678 1796t74-30.5 31-75.5-31-75-74-30-73.5 30-30.5 75zm381 0q0 45 30.5 75.5t73.5 30.5 74-30.5 31-75.5-31-75-74-30-73.5 30-30.5 75z"/><glyph unicode="ӫ" horiz-adv-x="1331" d="M90 543q0 160 75 285.5T371 1025t295 71q163 0 294.5-71t206-197 74.5-285q0-160-74.5-286t-206-197.5T666-12q-164 0-295 71.5T165 257 90 543zm193-70q20-150 125.5-239T666 145q153 0 257.5 89.5T1049 473H283zm0 139h766q-20 150-125 239t-258 89q-154 0-258.5-89T283 612zm88 770q0 45 30.5 76t73.5 31 74-31 31-76-31-74.5-74-29.5-73.5 29.5T371 1382zm381 0q0 45 30.5 76t73.5 31 74-31 31-76-31-74.5-74-29.5-73.5 29.5T752 1382z"/><glyph unicode="Ӭ" horiz-adv-x="1447" d="m59 209 129 129q162-170 420-170 137 0 250 60.5t184.5 169T1128 645H434v168h692q-20 133-91.5 235.5t-182.5 160-244 57.5q-256 0-420-170L59 1225q96 111 240.5 168t318.5 57q205 0 369-95t258-262 94-376-94-376T987 79 618-16q-176 0-319 57T59 209zm302 1481q0 45 30.5 75.5T465 1796t74-30.5 31-75.5-31-75-74-30-73.5 30-30.5 75zm381 0q0 45 30.5 75.5T846 1796t74-30.5 31-75.5-31-75-74-30-73.5 30-30.5 75z"/><glyph unicode="ӭ" horiz-adv-x="1177" d="m49 162 115 114q131-129 332-129 160 0 272.5 91.5T903 477H358v146h541q-27 141-137.5 228T496 938q-199 0-332-131L49 920q80 88 196.5 133t258.5 45q166 0 300-72t210-199 76-284q0-160-76-287T804 57.5 504-14q-143 0-259 45T49 162zm195 1220q0 45 30.5 76t73.5 31 74-31 31-76-31-74.5-74-29.5-73.5 29.5T244 1382zm381 0q0 45 30.5 76t73.5 31 74-31 31-76-31-74.5-74-29.5-73.5 29.5T625 1382z"/><glyph unicode="Ӯ" horiz-adv-x="1415" d="M33 1434h219l465-910 477 910h203L760 252Q684 111 581.5 41T358-29q-94 0-192 43l53 164q76-27 135-26 135 0 224 143l32 51zm330 188v123h667v-123H363z"/><glyph unicode="ӯ" d="m-33-309 84 147q84-80 194-80 72 0 120 38t87 130l35 76L8 1085h205l379-868 374 868h193L633-109q-70-166-163-233.5T245-410q-80 0-154.5 26T-33-309zm256 1624v123h667v-123H223z"/><glyph unicode="Ӱ" horiz-adv-x="1415" d="M33 1434h219l465-910 477 910h203L760 252Q684 111 581.5 41T358-29q-94 0-192 43l53 164q76-27 135-26 135 0 224 143l32 51zm369 256q0 45 30.5 75.5T506 1796t74-30.5 31-75.5-31-75-74-30-73.5 30-30.5 75zm381 0q0 45 30.5 75.5T887 1796t74-30.5 31-75.5-31-75-74-30-73.5 30-30.5 75z"/><glyph unicode="ӱ" d="m-33-309 84 147q84-80 194-80 72 0 120 38t87 130l35 76L8 1085h205l379-868 374 868h193L633-109q-70-166-163-233.5T245-410q-80 0-154.5 26T-33-309zm295 1691q0 45 30.5 76t73.5 31 74-31 31-76-31-74.5-74-29.5-73.5 29.5T262 1382zm381 0q0 45 30.5 76t73.5 31 74-31 31-76-31-74.5-74-29.5-73.5 29.5T643 1382z"/><glyph unicode="Ӳ" horiz-adv-x="1415" d="M33 1434h219l465-910 477 910h203L760 252Q684 111 581.5 41T358-29q-94 0-192 43l53 164q76-27 135-26 135 0 224 143l32 51zm401 116 185 267h209l-228-267H434zm359 0 182 267h207l-223-267H793z"/><glyph unicode="ӳ" d="m-33-309 84 147q84-80 194-80 72 0 120 38t87 130l35 76L8 1085h205l379-868 374 868h193L633-109q-70-166-163-233.5T245-410q-80 0-154.5 26T-33-309zm327 1552 185 266h209l-228-266H294zm359 0 182 266h207l-223-266H653z"/><glyph unicode="Ӵ" horiz-adv-x="1507" d="M111 969v465h200V991q0-160 97.5-246T684 659q199 0 397 91v684h203V0h-203v567q-227-88-419-88-262 0-406.5 127T111 969zm293 721q0 45 30.5 75.5T508 1796t74-30.5 31-75.5-31-75-74-30-73.5 30-30.5 75zm381 0q0 45 30.5 75.5T889 1796t74-30.5 31-75.5-31-75-74-30-73.5 30-30.5 75z"/><glyph unicode="ӵ" horiz-adv-x="1247" d="M86 733v352h197V745q0-113 70.5-170T551 518q143 0 309 72v495h197V0H860v438q-176-82-350-82-203 0-313.5 94.5T86 733zm185 649q0 45 30.5 76t73.5 31 74-31 31-76-31-74.5-74-29.5-73.5 29.5T271 1382zm381 0q0 45 30.5 76t73.5 31 74-31 31-76-31-74.5-74-29.5-73.5 29.5T652 1382z"/><glyph unicode="Ӷ" horiz-adv-x="1183" d="M223 0v178h420v-491H455V0H223zm0 0v1434h940l-2-179H424L426 0H223z"/><glyph unicode="ӷ" horiz-adv-x="999" d="M190 0v1085h799V913H387V0H190zm1 0v172h366v-403H373V0H191z"/><glyph unicode="Ӹ" horiz-adv-x="2033" d="M223 0v1434h203V934h426q256 0 392-114.5T1380 481q0-236-146.5-358.5T815 0H223zm203 162h381q178 0 273.5 81t95.5 234q0 295-369 295H426V162zm299 1528q0 45 30.5 75.5T829 1796t74-30.5 31-75.5-31-75-74-30-73.5 30-30.5 75zm381 0q0 45 30.5 75.5t73.5 30.5 74-30.5 31-75.5-31-75-74-30-73.5 30-30.5 75zM1607 0v1434h203V0h-203z"/><glyph unicode="ӹ" horiz-adv-x="1652" d="M190 0v1085h197V719l293-2q205-2 313.5-94.5T1102 362q0-176-118-271T647-2zm197 150 246-3q133-2 201.5 53.5T903 365q0 106-67.5 155T633 571l-246 4V150zm170 1232q0 45 30.5 76t73.5 31 74-31 31-76-31-74.5-74-29.5-73.5 29.5T557 1382zm381 0q0 45 30.5 76t73.5 31 74-31 31-76-31-74.5-74-29.5-73.5 29.5T938 1382zM1264 0v1085h196V0h-196z"/><glyph unicode="Ӻ" horiz-adv-x="1267" d="M59 588v151h220v695h942v-179H479V739h600V588H479V178h205V-82q0-154-95-241t-241-87q-129 0-248 70l60 145q74-49 153-49 78 0 125 48.5T485-57V0H279v588H59z"/><glyph unicode="ӻ" horiz-adv-x="1007" d="m27-340 57 145q72-53 158-53 80 0 123 50.5T408-51V0H240v446H68v140h172v499h716V913H436V586h432V446H436V172h168V-70q0-156-89-248t-249-92q-72 0-134 18.5T27-340z"/><glyph unicode="Ӽ" horiz-adv-x="1376" d="m29 0 536 735-506 699h236l397-549 393 549h226L811 745q53-65 78-98 154-190 237.5-304t137-223.5T1317-84q0-154-97.5-242T975-414q-123 0-240 62l51 143q74-41 146-41 76 0 120 46t44 128q0 111-101.5 262.5T686 592L264 0H29z"/><glyph unicode="ӽ" horiz-adv-x="1107" d="m23 0 423 555-403 530h221l295-387 295 387h217L674 565q162-192 244.5-300.5t125.5-198 43-172.5q0-139-94-221.5T754-410q-121 0-238 64l57 147q78-47 152-47t120 43 46 111q0 78-71.5 186.5T563 416L246 0H23z"/><glyph unicode="Ӿ" horiz-adv-x="1400" d="m53 0 465 653H193v154h335L88 1434h236l374-525 377 525h238L870 807h326V653H893L1354 0h-244L698 571 291 0H53z"/><glyph unicode="ӿ" horiz-adv-x="1165" d="m45 0 365 475H178v139h240L66 1085h227l293-393 299 393h211L737 614h252V475H760L1118 0H889L582 414 264 0H45z"/><glyph horiz-adv-x="908"/><glyph horiz-adv-x="1817"/><glyph horiz-adv-x="908"/><glyph horiz-adv-x="1817"/><glyph horiz-adv-x="605"/><glyph horiz-adv-x="454"/><glyph horiz-adv-x="302"/><glyph horiz-adv-x="302"/><glyph horiz-adv-x="227"/><glyph horiz-adv-x="363"/><glyph horiz-adv-x="100"/><glyph unicode="‐" horiz-adv-x="784" d="M117 477v170h551V477H117z"/><glyph unicode="‑" horiz-adv-x="784" d="M117 477v170h551V477H117z"/><glyph unicode="‒" horiz-adv-x="784" d="M117 477v170h551V477H117z"/><glyph unicode="–" horiz-adv-x="1024" d="M0 494v137h1024V494H0z"/><glyph unicode="—" horiz-adv-x="2048" d="M0 494v137h2048V494H0z"/><glyph unicode="‘" horiz-adv-x="464" d="M94 1087q0 29 7.5 59t29.5 87l96 287h129l-75-306q41-14 63.5-46.5T367 1087q0-61-39-100t-97-39q-59 0-98 40t-39 99z"/><glyph unicode="’" horiz-adv-x="464" d="M98 1393q0 61 39 100t99 39q57 0 95-40t38-99q0-31-6.5-60.5T336 1247l-98-286H109l75 305q-39 14-62.5 48T98 1393z"/><glyph unicode="‚" horiz-adv-x="464" d="M98 129q0 61 39 100t99 39q57 0 95-40t38-99q0-31-7.5-59.5T334-18l-96-285H109L184 2q-39 14-62.5 48T98 129z"/><glyph unicode="“" horiz-adv-x="851" d="M94 1087q0 29 7.5 59t29.5 87l96 287h129l-75-306q41-14 63.5-46.5T367 1087q0-61-39-100t-97-39q-59 0-98 40t-39 99zm387 0q0 29 7.5 59t29.5 87l96 287h129l-75-306q41-14 63.5-46.5T754 1087q0-61-39-100t-97-39q-59 0-98 40t-39 99z"/><glyph unicode="”" horiz-adv-x="851" d="M98 1393q0 61 39 100t99 39q57 0 95-40t38-99q0-31-6.5-60.5T336 1247l-98-286H109l75 305q-39 14-62.5 48T98 1393zm387 0q0 61 39 100t99 39q57 0 95-40t38-99q0-31-6.5-60.5T723 1247l-98-286H496l75 305q-39 14-62.5 48t-23.5 79z"/><glyph unicode="„" horiz-adv-x="851" d="M98 129q0 61 39 100t99 39q57 0 95-40t38-99q0-31-7.5-59.5T334-18l-96-285H109L184 2q-39 14-62.5 48T98 129zm387 0q0 61 39 100t99 39q57 0 95-40t38-99q0-31-7.5-59.5T721-18l-96-285H496L571 2q-39 14-62.5 48T485 129z"/><glyph unicode="…" horiz-adv-x="1415" d="M94 129q0 59 41 99t98 40 96.5-39T369 129 329 28t-96-40q-57 0-98 40T94 129zm475 0q0 59 41 99t98 40 96.5-39T844 129 804 28t-96-40q-57 0-98 40t-41 101zm475 0q0 59 41 99t98 40 96.5-39 39.5-100-40-101-96-40q-57 0-98 40t-41 101z"/><glyph horiz-adv-x="363"/><glyph unicode="‹" horiz-adv-x="638" d="m94 543 295 393h180L281 543l288-391H389z"/><glyph unicode="›" horiz-adv-x="638" d="m70 152 288 391L70 936h180l295-393-295-391H70z"/><glyph horiz-adv-x="454"/><glyph unicode="€" horiz-adv-x="1652" d="M61 518v115h213q-4 53-4 84t4 84H61v114h234q43 160 147.5 281t256 187.5T1028 1450q170 0 310.5-57.5T1575 1227l-131-129q-162 170-406 170-186 0-327.5-96.5T512 915h649V801H483q-6-39-6-84 0-43 6-84h678V518H512q57-160 198.5-256t327.5-96q242 0 406 172l131-129q-96-111-237.5-168T1028-16q-178 0-329.5 66.5t-256 187T295 518H61z"/><glyph unicode="™" horiz-adv-x="2107" d="M8 1313v121h766v-121H465V584H317v729H8zm891-729v850h121l379-582 370 582h121l2-850h-141l-2 596-319-496h-68l-322 485V584H899z"/><glyph unicode="◼" horiz-adv-x="1085" d="M0 0v1085h1085V0H0z"/></font>
</defs>
</svg>
