<svg xmlns="http://www.w3.org/2000/svg"><defs><font id="Icons" horiz-adv-x="1024"><font-face units-per-em="1024" ascent="960" descent="-64"/><glyph horiz-adv-x="512"/><glyph unicode="" glyph-name="account" horiz-adv-x="945" d="M472.615 960c-182.193 0-330.831-146.386-330.831-325.818 0-112.174 58.132-211.782 146.227-270.569C119.429 292.399-.001 127.63-.001-64h94.523c0 206.194 168.724 372.363 378.092 372.363S850.706 142.194 850.706-64h94.523c0 191.63-119.43 356.352-288.012 427.659 44.962 29.893 81.801 70.182 107.293 117.342 25.488 47.16 38.863 99.754 38.934 153.181C803.444 813.614 654.806 960 472.613 960zm0-93.091c131.056 0 236.308-103.656 236.308-232.727S603.672 401.454 472.615 401.454c-131.056 0-236.308 103.657-236.308 232.728s105.251 232.727 236.308 232.727z"/><glyph unicode="" glyph-name="arrow_down" horiz-adv-x="704" d="m672 338.663-49.949 58.629-235.34-276.358v817.425h-69.422V120.934L81.914 397.251 32 338.663 327.043-7.654 352-35.641l24.957 27.987L672 338.663z"/><glyph unicode="" glyph-name="arrow_right" horiz-adv-x="2048" d="M2029.254 402.745c24.992 24.994 24.992 65.516 0 90.51l-407.296 407.293c-24.992 24.994-65.51 24.994-90.509 0-24.992-24.994-24.992-65.516 0-90.51L1893.491 448 1531.449 85.958c-24.992-24.992-24.992-65.51 0-90.509 24.998-24.992 65.517-24.992 90.509 0l407.296 407.295zM0 384h1984v128H0V384z"/><glyph unicode="" glyph-name="bag" horiz-adv-x="945" d="M472.52 959.886c-108.126 0-196.878-88.753-196.878-196.878v-39.376H81.204l-2.441-36.935L39.387-22.067l-2.481-41.819h871.188l-2.442 41.858-39.377 708.764-2.481 36.896H669.399v39.376c0 108.125-88.753 196.878-196.879 196.878zm0-78.751a118.126 118.126 0 0 0 118.127-118.126v-39.376H354.393v39.376A118.127 118.127 0 0 0 472.52 881.135zM155.033 644.88h120.608V526.753h78.751V644.88h236.254V526.753h78.752V644.88h120.608L824.46 14.868H120.619l34.414 630.012z"/><glyph unicode="" glyph-name="blogger" d="M328.821 945.199A314.022 314.022 0 0 1 14.8 631.178V264.821a314.004 314.004 0 0 1 91.975-222.043 314.003 314.003 0 0 1 222.046-91.977h366.358a313.994 313.994 0 0 1 222.044 91.977 313.99 313.99 0 0 1 91.977 222.043v261.684a52.337 52.337 0 0 1-52.334 52.336h-52.341a52.338 52.338 0 0 0-37.01 15.329 52.36 52.36 0 0 0-15.323 37.007 314.035 314.035 0 0 1-91.977 222.046 314.018 314.018 0 0 1-222.046 91.975H328.822zm0-261.684h209.347c28.785 0 52.337-23.552 52.337-52.337s-23.551-52.337-52.337-52.337H328.821c-28.785 0-52.337 23.552-52.337 52.337s23.551 52.337 52.337 52.337zm0-366.358h366.358c28.786 0 52.338-23.551 52.338-52.337s-23.552-52.337-52.338-52.337H328.821c-28.785 0-52.337 23.552-52.337 52.337s23.551 52.337 52.337 52.337z"/><glyph unicode="" glyph-name="calendar" horiz-adv-x="1088" d="M544.001 149.335a42.686 42.686 0 0 1 23.704 7.187 42.668 42.668 0 0 1-15.38 77.325 42.659 42.659 0 0 1-24.652-2.432 42.656 42.656 0 0 1-26.338-39.418 42.664 42.664 0 0 1 42.667-42.663zm213.336 0a42.675 42.675 0 0 1 23.699 7.187 42.686 42.686 0 0 1 15.718 19.149c3.226 7.795 4.07 16.378 2.426 24.653s-5.709 15.878-11.674 21.843a42.662 42.662 0 0 1-46.503 9.248 42.68 42.68 0 0 1-19.149-15.712 42.68 42.68 0 0 1-7.187-23.706 42.65 42.65 0 0 1 12.499-30.17c8-8 18.848-12.493 30.17-12.493zm0 170.663a42.656 42.656 0 0 1 23.699 7.192 42.667 42.667 0 0 1 15.718 19.148c3.226 7.796 4.07 16.376 2.426 24.652s-5.709 15.878-11.674 21.846a42.681 42.681 0 0 1-46.503 9.249 42.686 42.686 0 0 1-19.149-15.715 42.691 42.691 0 0 1-7.187-23.704 42.651 42.651 0 0 1 12.499-30.17 42.657 42.657 0 0 1 30.17-12.498zm-213.336 0a42.667 42.667 0 1 1-35.476 66.372 42.67 42.67 0 0 1 35.477-66.372zm298.667 512.001h-42.669v42.667a42.67 42.67 0 0 1-12.493 30.17 42.673 42.673 0 0 1-30.17 12.497 42.652 42.652 0 0 1-30.17-12.497 42.651 42.651 0 0 1-12.499-30.17v-42.667H373.333v42.667a42.666 42.666 0 1 1-85.334 0v-42.667h-42.666a128 128 0 0 1-128-128V106.667a127.992 127.992 0 0 1 37.49-90.509 127.996 127.996 0 0 1 90.51-37.491h597.334a128 128 0 0 1 128 128v597.332c0 33.948-13.485 66.505-37.491 90.509s-56.563 37.491-90.509 37.491zm42.669-725.333a42.674 42.674 0 0 0-42.669-42.669H245.334c-11.316 0-22.168 4.499-30.17 12.499s-12.497 18.854-12.497 30.17v383.999h682.669V106.666zm0 469.333H202.668v128a42.666 42.666 0 0 0 42.667 42.667h42.666v-42.667a42.666 42.666 0 1 1 85.334 0v42.667h341.334v-42.667a42.651 42.651 0 0 1 12.499-30.17 42.656 42.656 0 0 1 30.17-12.497 42.676 42.676 0 0 1 30.17 12.497 42.67 42.67 0 0 1 12.493 30.17v42.667h42.669c11.315 0 22.17-4.495 30.17-12.497s12.499-18.854 12.499-30.17v-128zM330.668 319.998a42.67 42.67 0 0 1 30.17 72.838 42.663 42.663 0 0 1-46.498 9.249 42.662 42.662 0 0 1-26.339-39.419 42.666 42.666 0 0 1 42.667-42.668zm0-170.663a42.689 42.689 0 0 1 23.704 7.187 42.668 42.668 0 0 1-15.38 77.325 42.657 42.657 0 0 1-24.652-2.432 42.656 42.656 0 0 1-26.339-39.418 42.664 42.664 0 0 1 42.667-42.663z"/><glyph unicode="" glyph-name="check" horiz-adv-x="1280" d="M1212.161 858.879a85.338 85.338 0 0 1-93.404 18.679 85.333 85.333 0 0 1-27.77-18.679L455.253 222.292 188.159 490.24A87.203 87.203 0 1 1 66.986 364.801l327.68-327.68a85.29 85.29 0 0 1 27.77-18.679 85.316 85.316 0 0 1 65.635 0 85.32 85.32 0 0 1 27.768 18.679l696.32 696.32a85.347 85.347 0 0 1 20.303 96.956 85.34 85.34 0 0 1-20.303 28.483z"/><glyph unicode="" glyph-name="chevron_left" horiz-adv-x="640" d="M82.7 493.2c-25-25-25-65.6 0-90.6l384-384c25-25 65.6-25 90.6 0s25 65.6 0 90.6L218.5 448l338.6 338.8c25 25 25 65.6 0 90.6s-65.6 25-90.6 0l-384-384z"/><glyph unicode="" glyph-name="chevron_right" horiz-adv-x="640" d="M557.3 493.2c25-25 25-65.6 0-90.6l-384-384c-25-25-65.6-25-90.6 0s-25 65.6 0 90.6L421.5 448 82.9 786.8c-25 25-25 65.6 0 90.6s65.6 25 90.6 0l384-384z"/><glyph unicode="" glyph-name="facebook" horiz-adv-x="536" d="M398.983 936.477c-137.541 0-218.21-72.644-218.21-238.167V552.674H6.317V378.217h174.456V-40.477h174.456v418.694h139.565l34.889 174.457H355.229v116.118c0 62.35 20.342 93.229 78.854 93.229h95.6v167.303c-16.535 2.233-64.721 7.153-130.7 7.153z"/><glyph unicode="" glyph-name="instagram" horiz-adv-x="1088" d="M336.503 951.741c-162.617 0-296.246-133.446-296.246-296.246V240.502c0-162.618 133.446-296.243 296.246-296.243h414.991c162.618 0 296.25 133.446 296.25 296.243v414.947c0 162.663-133.446 296.292-296.25 296.292H336.503zm0-91.59h414.991a204.385 204.385 0 0 0 189.152-126.295 204.461 204.461 0 0 0 15.507-78.361V240.502c.032-26.886-5.235-53.517-15.507-78.362s-25.344-47.424-44.358-66.432c-19.008-19.014-41.587-34.086-66.432-44.358s-51.475-15.539-78.362-15.507H336.549a204.418 204.418 0 0 0-144.825 59.846 204.46 204.46 0 0 0-44.369 66.438 204.415 204.415 0 0 0-15.509 78.374v414.947a204.379 204.379 0 0 0 126.285 189.194 204.364 204.364 0 0 0 78.372 15.509zm477.96-100.198a41.271 41.271 0 0 1-15.904-3.109 41.29 41.29 0 0 1-13.491-8.989 41.344 41.344 0 0 1-12.096-29.392c0-23.081 18.413-41.491 41.491-41.491a41.293 41.293 0 0 1 15.917 3.096 41.226 41.226 0 0 1 13.504 8.986 41.152 41.152 0 0 1 8.998 13.492 41.288 41.288 0 0 1 3.117 15.917 41.269 41.269 0 0 1-3.117 15.917 41.168 41.168 0 0 1-8.998 13.491 41.21 41.21 0 0 1-13.504 8.986 41.293 41.293 0 0 1-15.917 3.096zm-270.464-37.185c-151.123 0-274.769-123.646-274.769-274.769 0-151.125 123.646-274.767 274.769-274.767S818.77 296.874 818.77 447.999c0 151.123-123.648 274.769-274.771 274.769zm0-91.59c101.798 0 183.181-81.377 183.181-183.179s-81.382-183.176-183.181-183.176c-101.802 0-183.18 81.375-183.18 183.176s81.377 183.179 183.18 183.179z"/><glyph unicode="" glyph-name="like" d="m451.6 34.522-5 4.6-350.4 325.4c-61.4 57-96.2 137-96.2 220.8v6.6c0 140.8 100 261.6 238.4 288 78.8 15.2 159.4-3 223.6-48.2 18-12.8 34.8-27.6 50-44.6 8.4 9.6 17.4 18.4 27 26.6 7.4 6.4 15 12.4 23 18 64.2 45.2 144.8 63.4 223.6 48.4 138.4-26.4 238.4-147.4 238.4-288.2v-6.6c0-83.8-34.8-163.8-96.2-220.8l-355.4-330c-16.4-15.2-38-23.8-60.4-23.8s-44 8.4-60.4 23.8zm26.6 646.4c-.8.6-1.4 1.4-2 2.2l-35.6 40-.2.2c-46.2 51.8-116 75.4-184 62.4-93.2-17.8-160.4-99-160.4-193.8v-6.6c0-57 23.8-111.6 65.6-150.4l350.4-325.4 350.4 325.4c41.8 38.8 65.6 93.4 65.6 150.4v6.6c0 94.6-67.2 176-160.2 193.8-68 13-138-10.8-184-62.4l-.2-.2-.2-.2-35.6-40c-.6-.8-1.4-1.4-2-2.2-9-9-21.2-14-33.8-14s-24.8 5-33.8 14z"/><glyph unicode="" glyph-name="linkedin" d="M152.191 951.741A120.942 120.942 0 0 1 31.156 830.843c0-66.86 54.175-122.272 120.898-122.272 66.815 0 121.036 55.411 121.036 122.18.012 15.884-3.106 31.615-9.176 46.294s-14.973 28.017-26.202 39.253a120.896 120.896 0 0 1-85.52 35.443zm590.386-320.563c-101.619 0-159.733-53.122-187.668-105.969h-2.931v91.727h-200.26V-55.74h208.687v332.973c0 87.741 6.595 172.553 115.171 172.553 107.027 0 108.582-100.061 108.582-178.095v-327.43h208.685V313.73c0 180.797-38.88 317.449-250.266 317.449zM47.779 616.981V-55.741h208.824v672.722H47.779z"/><glyph unicode="" glyph-name="loupe" d="M617.463 951.602c-219.461 0-398.15-178.682-398.15-398.133 0-40.363 5.992-79.299 17.162-115.986 25.543-83.896 25.184-182.581-36.837-244.585L20.263 13.579C4.438-2.242 4.432-27.893 20.249-43.725c15.824-15.832 41.489-15.838 57.318-.006l179.262 179.274c62.044 62.054 160.849 62.436 244.797 36.892a395.122 395.122 0 0 1 115.836-17.101c219.46 0 398.148 178.682 398.148 398.135 0 219.451-178.688 398.133-398.148 398.133zm0-79.627c176.378 0 318.521-142.133 318.521-318.507 0-176.376-142.143-318.507-318.521-318.507-176.381 0-318.52 142.131-318.52 318.507 0 176.373 142.139 318.507 318.52 318.507z"/><glyph unicode="" glyph-name="mark" horiz-adv-x="706" d="M352.999 928C169.004 928 19.308 778.305 19.308 594.31 19.308 363.045 353.327-32 353.327-32s333.365 406.419 333.365 626.31c0 183.995-149.691 333.69-333.693 333.69zm100.684-431.397c-27.765-27.754-64.219-41.634-100.684-41.634-36.456 0-72.925 13.88-100.675 41.634-55.518 55.511-55.518 145.841 0 201.358 26.882 26.894 62.642 41.707 100.675 41.707s73.788-14.818 100.684-41.707c55.515-55.517 55.515-145.847 0-201.358z"/><glyph unicode="" glyph-name="pen" d="m713.388 931.554 282.166-282.737-81.348-80.213-281.599 281.6 80.782 81.351zM28.446 5.406l369.778 368.068c-5.689 17.636-1.707 39.823 13.084 54.613 22.187 22.187 58.596 22.187 80.783 0 22.187-22.756 22.187-58.596 0-80.783-14.791-14.791-36.977-18.773-54.613-13.084L69.407-35.555l603.591 201.952 200.82 361.813-281.033 281.6-362.383-200.817L28.447 5.405z"/><glyph unicode="" glyph-name="phone" d="M343.926 538.492c35.092 35.092 35.092 92.188 0 127.28L220.513 789.186c-18.878 18.88-45.048 28.446-71.774 26.246-26.216-2.158-49.928-15.522-65.054-36.662a442.57 442.57 0 0 1-9.142-13.328l248.166-248.167 21.217 21.217zm509.259-381.973L729.769 279.931c-35.086 35.089-92.187 35.092-127.28 0l-21.217-21.217L829.449 10.537a442.482 442.482 0 0 1 13.319 9.155c21.139 15.124 34.502 38.837 36.663 65.051 2.202 26.733-7.366 52.893-26.245 71.776zM496.423 211.15c-24.04 0-46.64 9.359-63.638 26.358l-131.281 131.28c-16.998 16.998-26.362 39.601-26.362 63.642 0 13.657 3.03 26.842 8.754 38.806L43.892 711.243c-33.76-70.886-48.7-150.305-42.536-230.02 8.306-107.421 54.63-208.329 130.442-284.14l129.284-129.28C336.89-8.007 437.799-54.333 545.22-62.641A455.938 455.938 0 0 1 580.388-64c67.748 0 134.403 15.104 194.85 43.892L535.229 219.901c-11.96-5.724-25.149-8.752-38.806-8.752zm107.578 748.851c-16.568 0-30-13.432-30-30s13.431-30 30-30c198.502 0 360.001-161.496 360.001-360.001 0-16.568 13.431-30 30-30s30 13.431 30 30c0 231.589-188.413 420-420 420zm-.003-419.973s.003-.01.003-.027c0-16.568 13.431-30 30-30s30 13.431 30 30c0 33.085-26.918 60-60 60-16.568 0-30-13.418-30-29.986s13.428-29.986 29.996-29.986zm.003 119.973C670.168 660.001 724 606.168 724 540c0-16.568 13.431-30 30-30s30 13.431 30 30c0 99.253-80.746 180-179.999 180-16.568 0-30-13.432-30-30s13.431-30 30-30zm0 180c-16.568 0-30-13.432-30-30s13.431-30 30-30c132.335 0 239.998-107.664 239.998-240 0-16.568 13.435-30 30-30 16.568 0 30.003 13.431 30.003 30 0 165.42-134.581 300.001-300.001 300.001z"/><glyph unicode="" glyph-name="star" horiz-adv-x="1152" d="M576.017 960.039c18.4 0 35.2-10.4 43.2-27l137.2-282.6 306.4-45.2c18-2.6 33-15.2 38.6-32.6s1-36.2-11.8-49l-222.2-220.4 52.4-311.2c3-18-4.4-36.2-19.2-47s-34.6-12-50.6-3.4l-274 146.4-273.8-146.2c-16.2-8.6-35.8-7.4-50.6 3.4s-22.4 29-19.4 47l52.4 311.2-222.2 220.2c-13 12.8-17.4 31.8-11.8 49s20.6 29.8 38.6 32.6l306.4 45.2 137.2 282.6c8.2 16.6 24.8 27 43.2 27zm0-158-105-216.4c-7-14.2-20.4-24.2-36.2-26.6l-236.6-34.8 171.8-170.2c11-11 16.2-26.6 13.6-42l-40.6-239.4 210.4 112.4c14.2 7.6 31.2 7.6 45.2 0l210.4-112.4-40.4 239.2c-2.6 15.4 2.4 31 13.6 42l171.8 170.2-236.6 35c-15.6 2.4-29.2 12.2-36.2 26.6l-105.2 216.4z"/><glyph unicode="" glyph-name="star_filled" horiz-adv-x="1122" d="M1050.475 594.691 736.721 639.95 596.467 922.177a39.183 39.183 0 0 1-17.92 17.785c-19.524 9.567-43.247 1.595-53.009-17.785L385.281 639.95 71.529 594.691c-8.65-1.227-16.559-5.274-22.614-11.407-7.32-7.468-11.354-17.515-11.215-27.934s4.439-20.356 11.956-27.628L276.66 308.046 223.029-2.143a38.911 38.911 0 0 1 2.322-21.421 39.248 39.248 0 0 1 13.38-16.969 39.645 39.645 0 0 1 20.393-7.378 39.726 39.726 0 0 1 21.242 4.432l280.635 146.452L841.636-43.479c7.66-4.047 16.56-5.398 25.083-3.925 21.504 3.682 35.962 23.918 32.256 45.261l-53.633 310.189 227.006 219.676c6.178 6.01 10.255 13.86 11.493 22.446 3.335 21.465-11.742 41.334-33.368 44.524z"/><glyph unicode="" glyph-name="twitter" horiz-adv-x="1317" d="M1286.54 837.404a513.63 513.63 0 0 0-148.012-40.457A258.558 258.558 0 0 1 1251.79 939.46a519.188 519.188 0 0 0-163.555-62.594 257.707 257.707 0 0 1-445.909-176.219c0-20.254 2.251-39.88 6.804-58.669a730.468 730.468 0 0 0-531.271 269.273A255.669 255.669 0 0 1 82.95 781.613c0-89.339 45.376-168.263 114.67-214.476a256.18 256.18 0 0 0-116.711 32.344v-3.297A257.607 257.607 0 0 1 287.64 343.501 256.555 256.555 0 0 0 171.243 339a258.143 258.143 0 0 1 91.636-128.096 258.156 258.156 0 0 1 149.01-51.003 516.775 516.775 0 0 0-180.11-91.231A516.835 516.835 0 0 0 30.458 53.398 728.705 728.705 0 0 1 425.444-62.526c474.07 0 733.347 392.733 733.347 733.341 0 10.991-.424 22.296-.841 33.339a527.786 527.786 0 0 1 128.592 133.197v.053z"/></font>
</defs>
</svg>
