<svg width="69" height="45" fill="none" xmlns="http://www.w3.org/2000/svg"><path d="M34.55.477h29.484c2.627 0 4.277 1.101 4.762 3.175a9.8 9.8 0 0 1 .197 2.141v33.474c0 3.798-1.439 5.316-5.247 5.316H5.232c-3.717 0-5.209-1.518-5.216-5.21V5.77C.016 2.011 1.53.508 5.316.5 15.046.432 24.797.477 34.55.477Zm0 1.382H5.535c-3.104 0-4.073.957-4.08 4.025v33.991c0 2.05.96 3.038 3.028 3.258.425.042.852.057 1.28.045H63.26c.632-.01 1.262-.068 1.886-.174a2.533 2.533 0 0 0 1.592-.74 2.55 2.55 0 0 0 .732-1.6c.088-.587.131-1.181.129-1.776V6.309a12.814 12.814 0 0 0-.174-2.156 2.47 2.47 0 0 0-.683-1.437 2.458 2.458 0 0 0-1.415-.72 10.73 10.73 0 0 0-2.052-.16L34.55 1.86Z" fill="#000"/><path d="M30.991 30.854h-4.316l2.696-16.616h4.316L30.99 30.854ZM23.048 14.2l-4.111 11.39-.492-2.46-1.446-7.464a1.854 1.854 0 0 0-.72-1.17 1.843 1.843 0 0 0-1.325-.35H8.14l-.083.282a16.048 16.048 0 0 1 4.543 1.898l3.732 14.527h4.498L27.69 14.2h-4.642Zm33.929 16.654h3.96L57.484 14.2h-3.468a1.972 1.972 0 0 0-1.991 1.238l-6.436 15.415h4.498l.9-2.468h5.475l.515 2.468Zm-4.748-5.878 2.272-6.22 1.28 6.22h-3.552Zm-6.3-6.744.614-3.569a12.463 12.463 0 0 0-3.877-.721c-2.142 0-7.223.934-7.223 5.498 0 4.29 5.959 4.343 5.959 6.599 0 2.255-5.346 1.853-7.117.433l-.636 3.729a12 12 0 0 0 4.868.941c2.945 0 7.383-1.519 7.383-5.695 0-4.314-6.02-4.716-6.02-6.6 0-1.883 4.202-1.632 6.057-.615h-.007Z" fill="#2767AF"/><path d="M18.452 23.168 17 15.665a1.854 1.854 0 0 0-.72-1.168 1.843 1.843 0 0 0-1.325-.35H8.14l-.083.28a16.638 16.638 0 0 1 6.405 3.22 13.067 13.067 0 0 1 3.99 5.521Z" fill="#E7A640"/></svg>