<svg width="76" height="76" fill="none" xmlns="http://www.w3.org/2000/svg"><path d="M61.346 59.225a1.5 1.5 0 1 0-2.12 2.122l2.12-2.122ZM72.94 75.061a1.5 1.5 0 0 0 2.121-2.122l-2.12 2.122ZM26.981 13.978a1.5 1.5 0 1 0-.469-2.963l.47 2.963ZM11.015 26.512a1.5 1.5 0 1 0 2.963.47l-2.963-.47Zm48.21 34.835L72.94 75.06l2.121-2.122-13.714-13.714-2.12 2.122Zm-26.368.867C16.644 62.214 3.5 49.071 3.5 32.857h-3c0 17.87 14.487 32.357 32.357 32.357v-3Zm29.357-29.357c0 16.214-13.143 29.357-29.357 29.357v3c17.87 0 32.357-14.487 32.357-32.357h-3ZM32.857 3.5c16.214 0 29.357 13.144 29.357 29.357h3C65.214 14.987 50.727.5 32.857.5v3Zm0-3C14.987.5.5 14.987.5 32.857h3C3.5 16.644 16.644 3.5 32.857 3.5v-3Zm-6.345 10.515a18.643 18.643 0 0 0-15.497 15.497l2.963.47a15.643 15.643 0 0 1 13.003-13.004l-.469-2.963Z" fill="#ED553B"/></svg>