<svg xmlns="http://www.w3.org/2000/svg"><defs><font id="graphik_regularregular" horiz-adv-x="1284"><font-face units-per-em="2048" ascent="1675" descent="-373"/><glyph horiz-adv-x="0"/><glyph horiz-adv-x="682"/><glyph horiz-adv-x="542"/><glyph horiz-adv-x="542"/><glyph horiz-adv-x="542"/><glyph unicode="!" horiz-adv-x="585" d="M162 121q0 55 38.5 93t92.5 38 92.5-38 38.5-93-38.5-93T293-10t-92.5 38-38.5 93zm39 1343h188L360 414H229z"/><glyph unicode="&quot;" horiz-adv-x="768" d="M125 1464h184l-30-501H156zm334 0h184l-31-501H489z"/><glyph unicode="#" horiz-adv-x="1030" d="M61 578v143h193l39 270H119v144h194l49 329h140l-49-329h198l49 329h140l-49-329h178V991H770l-39-270h180V578H709l-54-375H516l53 375H371l-54-375H178l53 375H61zm332 143h199l39 270H432z"/><glyph unicode="$" d="M92 446h172q7-54 17-93.5t32.5-82T369 200t87.5-49T584 123v569q-106 20-182 48.5t-134.5 74-87 113T152 1085q0 161 120.5 272.5T584 1481v184h121v-186q185-17 295-119.5t130-280.5H971q-23 119-87.5 182T705 1339V827q118-21 199-50t141-77 88-118 28-168q0-175-128.5-296.5T705-16v-260H584v260Q482-9 401 19T266.5 89t-91 100T119 309.5 92 446zm221 656q0-52 10.5-88t39.5-69 83-56.5T584 848v493q-127-10-199-76t-72-163zm392-979q125 12 205.5 89T991 401q0 117-61 176.5T705 672V123z"/><glyph unicode="%" horiz-adv-x="1605" d="M70 1126q0 149 100 250t236 101q138 0 236.5-100t98.5-247q0-149-99.5-247.5T406 784q-134 0-235 98T70 1126zm155 2q0-102 48.5-156T406 918t132 55 48 157q0 98-48.5 155.5T406 1343t-132-56-49-159zM276 0l895 1464h156L432 0H276zm588 326q0 149 100 249.5T1200 676q138 0 237-99.5t99-246.5q0-149-100-247.5T1200-16q-134 0-235 98T864 326zm156 2q0-102 48-156.5t132-54.5 132 55.5 48 157.5q0 98-48.5 155.5T1200 543t-131.5-56-48.5-159z"/><glyph unicode="&amp;" horiz-adv-x="1404" d="M104 387q0 84 25 152.5t73.5 121T307 751t133 76q-129 167-129 310 0 106 52 184t132 115 175 37q136 0 227.5-85.5T989 1171q0-243-313-378l307-375 178 338h158l-240-457L1325 0h-207L973 176Q808-14 567-14 364-14 234 96.5T104 387zm172 16q0-131 79-204.5T573 125q179 0 312 160L520 729q-58-28-99-56.5T345.5 605t-52-89T276 403zm199 732q0-52 31-109t96-139q125 56 176 120t51 169q0 71-46 117t-119 46q-82 0-135.5-51T475 1135z"/><glyph unicode="'" horiz-adv-x="434" d="M125 1464h184l-30-501H156z"/><glyph unicode="(" horiz-adv-x="659" d="M109 639q0 288 93 525.5T449 1583h169q-154-192-242.5-420.5T287 639q0-294 88-522t243-420H449Q109 97 109 639z"/><glyph unicode=")" horiz-adv-x="659" d="M41-297q155 192 243.5 421T373 647t-88.5 521.5T41 1589h170q340-400 340-942 0-288-93-525.5T211-297H41z"/><glyph unicode="*" horiz-adv-x="864" d="m86 1208 45 138 242-99-15 275h150l-14-275 239 99 45-138-254-59 170-227-114-84-152 245-143-245-117 84 170 227z"/><glyph unicode="+" horiz-adv-x="1062" d="M74 629v143h383v414h149V772h383V629H606V215H457v414H74z"/><glyph unicode="," horiz-adv-x="577" d="m74-195 196 449 166-78-252-428z"/><glyph unicode="-" horiz-adv-x="684" d="M123 483v160h438V483H123z"/><glyph unicode="." horiz-adv-x="577" d="M158 121q0 55 38.5 93t92.5 38 92.5-38 38.5-93-38.5-93T289-10t-92.5 38-38.5 93z"/><glyph unicode="/" horiz-adv-x="825" d="m12-303 596 1892h156L168-303H12z"/><glyph unicode="0" horiz-adv-x="1394" d="M123 690v82q0 326 155 518.5T700 1483q266 0 419-194.5T1272 776v-82q0-324-150.5-518T705-18q-263 0-422.5 194.5T123 690zm182 2q0-273 106.5-418T705 129q191 0 289 144t98 423v82q0 258-104 409.5T700 1339q-187 0-291-148T305 774v-82z"/><glyph unicode="1" horiz-adv-x="817" d="M68 1053v166l340 245h165V0H395v1288z"/><glyph unicode="2" horiz-adv-x="1134" d="M39 0v41l582 612q104 111 157 213.5t53 210.5q0 123-69 192.5T569 1339q-268 0-309-325H94q17 217 142.5 343T569 1483q203 0 323-111.5t120-300.5q0-244-295-532L313 145h707V0H39z"/><glyph unicode="3" horiz-adv-x="1236" d="M82 432h164q13-139 100-223t252-84q167 0 250.5 75T932 408q0 284-309 284H512v150h102q275 0 275 250 0 109-68.5 177T623 1337q-136 0-223-75.5T299 1061H143q8 178 141.5 300T623 1483q102 0 186-32t139-85.5 85-123 30-146.5q0-224-232-320 133-35 208-127.5t75-240.5q0-196-144.5-311T594-18q-228 0-366 126.5T82 432z"/><glyph unicode="4" horiz-adv-x="1263" d="M80 307v58l670 1099h237V453h203V307H987V0H813v307H80zm225 146h508v876z"/><glyph unicode="5" horiz-adv-x="1202" d="M88 395h170q12-65 30.5-110.5T342 201t92.5-57T573 125q150 0 236 94.5T895 479q0 155-84 248.5T588 821q-122 0-203-35.5T242 680h-66v784h823v-153H324V864q108 101 299 101 200 0 327-132.5T1077 479q0-150-67.5-264.5T828.5 41 575-18Q348-18 226 94T88 395z"/><glyph unicode="6" horiz-adv-x="1267" d="M123 647v35q0 385 157 593t416 208q174 0 286.5-90.5T1124 1128H954q-26 106-88.5 157.5T684 1337q-171 0-275-151T299 752q54 91 153 144.5T676 950q214 0 346.5-137T1155 471q0-221-137.5-355T649-18q-117 0-208 34.5T291 110t-97.5 144.5-54.5 182T123 647zm188-160q0-175 93-270.5T649 121q145 0 234.5 93.5T973 463q0 159-88.5 253.5T647 811q-148 0-242-91t-94-233z"/><glyph unicode="7" horiz-adv-x="1075" d="M66 1321v143h964v-24L481 0H299l510 1321H66z"/><glyph unicode="8" horiz-adv-x="1243" d="M117 416q0 141 76 238t200 141q-105 40-163 120t-58 187q0 114 66.5 203t168 133.5T623 1483t216.5-45.5T1006 1304t65-198q0-107-60-185T846 797q131-47 205.5-143.5T1126 420q0-106-43.5-191.5T967 90.5 806.5 10 623-18q-92 0-180.5 27.5T280.5 89 162 226t-45 190zm182 6q0-138 94.5-216.5T623 127q140 0 230.5 78.5T944 426q0 139-90 215t-227 76q-138 0-233-77.5T299 422zm53 678q0-112 80-177t197-65q119 0 190.5 65.5T891 1104q0 105-76.5 172T623 1343q-117 0-194-66t-77-177z"/><glyph unicode="9" horiz-adv-x="1269" d="M113 995q0 221 137.5 355.5T618 1485q258 0 392.5-169T1145 829v-92q0-363-144-558T594-16q-200 0-320.5 98.5T123 360h172q26-113 97-172t206-59q177 0 274.5 147T973 711q-53-90-153.5-142.5T594 516q-212 0-346.5 135.5T113 995zm182 9q0-159 88.5-254T621 655q148 0 241.5 88T956 973q0 176-93 274.5T618 1346q-145 0-234-93.5T295 1004z"/><glyph unicode=":" horiz-adv-x="598" d="M168 121q0 55 38.5 93t92.5 38 92.5-38 38.5-93-38.5-93T299-10t-92.5 38-38.5 93zm0 608q0 55 38.5 93t92.5 38 92.5-38 38.5-93-38.5-93-92.5-38-92.5 38-38.5 93z"/><glyph unicode=";" horiz-adv-x="598" d="m43-195 197 449 166-78-252-428zm143 924q0 55 38.5 93t92.5 38 93-38 39-93-39-93-93-38-92.5 38-38.5 93z"/><glyph unicode="&lt;" horiz-adv-x="1032" d="M109 639v41l786 444V961L356 659l539-301V195z"/><glyph unicode="=" horiz-adv-x="991" d="M82 401v148h827V401H82zm0 369v148h827V770H82z"/><glyph unicode="&gt;" horiz-adv-x="1032" d="M137 195v163l539 301-539 302v163l787-444v-41z"/><glyph unicode="?" horiz-adv-x="1001" d="M76 1075q11 182 129.5 295T510 1483q101 0 178-28.5t122-77.5 67-108 22-126q0-44-13-86t-28-71.5-48-68.5-52-57.5-60-58.5q-45-43-69-68.5T575 667t-43.5-80-13.5-85v-88H367v102q0 40 7.5 76.5t26 72T433 724t46 59 47 50l52 52q49 49 76 80.5t50 78.5 23 93q0 95-54.5 149.5T508 1341q-115 0-188-72t-84-194H76zm231-954q0 55 38.5 93t92.5 38 92.5-38 38.5-93-38.5-93T438-10t-92.5 38-38.5 93z"/><glyph unicode="@" horiz-adv-x="1873" d="M92 532q0 184 70.5 348t189 279.5T631 1342t336 67q180 0 333-58t258.5-158.5T1723 954t59-295q0-111-24.5-201.5t-63.5-149-90.5-98-103-56.5-103.5-17q-117 0-170 45t-66 131q-46-82-129-136t-176-54q-150 0-240 95.5T526 479q0 203 117.5 339T930 954q101 0 162-39.5t86-99.5l14 123h170l-62-516q-21-162 99-162 97 0 166 99.5t69 295.5q0 280-177.5 449.5T967 1274q-153 0-286-54.5t-228-151-149-234T250 537q0-142 44.5-267.5T423 46t217.5-155T940-166q161 0 272 40T1423 0h158q-79-136-251-218.5T940-301q-160 0-297.5 44.5T405-133.5t-171.5 184-106.5 228T92 532zm608-51q0-105 54-166t139-61q103 0 182.5 90t79.5 244q0 115-55.5 173T942 819q-101 0-171.5-91.5T700 481z"/><glyph unicode="A" horiz-adv-x="1380" d="m74 0 504 1464h233L1307 0h-177L987 422H383L242 0H74zm358 563h508l-254 754z"/><glyph unicode="B" horiz-adv-x="1273" d="M184 0v1464h441q85 0 154-11.5t129-39 101-70 64-108 23-150.5v-8q0-234-222-309 157-38 225-121.5t68-228.5v-8q0-202-127.5-306T686 0H184zm174 139h324q311 0 311 273v8q0 136-80.5 201T657 686H358V139zm0 686h267q160 0 228.5 61t68.5 197v9q0 123-72.5 178T621 1325H358V825z"/><glyph unicode="C" horiz-adv-x="1495" d="M113 723v16q0 214 88.5 385t246 267 353.5 96q156 0 282.5-52.5T1295 1272t100-264h-176q-28 170-129.5 254T803 1346q-228 0-367-164.5T297 741v-16q0-280 134-439t370-159q183 0 299 91t143 267h166q-37-248-198.5-375.5T797-18q-317 0-500.5 200.5T113 723z"/><glyph unicode="D" horiz-adv-x="1425" d="M184 0v1464h387q184 0 327.5-54.5t233-152.5 135.5-227.5 46-284.5v-18q0-123-28-231.5t-87.5-200-146.5-157-210.5-102T567 0H184zm178 145h201q277 0 421 155t144 429v16q0 130-32.5 233T996 1159t-177 120-258 42H362V145z"/><glyph unicode="E" horiz-adv-x="1159" d="M184 0v1464h854v-145H362V821h545V676H362V145h713V0H184z"/><glyph unicode="F" horiz-adv-x="1118" d="M184 0v1464h856v-145H362V801h529V655H362V0H184z"/><glyph unicode="G" horiz-adv-x="1570" d="M113 723v16q0 212 88.5 382.5t251 268T821 1487q112 0 210-27t179.5-81.5 136-145.5 70.5-211h-178q-30 168-138 246t-276 78q-248 0-388-166T297 741v-16q0-277 135.5-438.5T821 125q116 0 204.5 36t143 100.5 83 147.5 30.5 183H854v147h602V631q0-208-81-355.5T1152 55 821-18q-220 0-382 96.5t-244 263T113 723z"/><glyph unicode="H" horiz-adv-x="1495" d="M184 0v1464h178V801h771v663h178V0h-178v651H362V0H184z"/><glyph unicode="I" horiz-adv-x="567" d="M195 0v1464h178V0H195z"/><glyph unicode="J" horiz-adv-x="860" d="M78 20v148q94-41 194-41 113 0 175.5 68T510 406v1058h178V397q0-107-31.5-188T569 79 441 6 283-18Q152-18 78 20z"/><glyph unicode="K" horiz-adv-x="1261" d="M184 0v1464h178V760l637 706h199L547 754 1231 0h-215L362 715V0H184z"/><glyph unicode="L" horiz-adv-x="1095" d="M184 0v1464h178V145h670V0H184z"/><glyph unicode="M" horiz-adv-x="1753" d="M184 0v1464h248L885 324l438 1140h246V0h-178v1233L905 0h-55L348 1233V0H184z"/><glyph unicode="N" horiz-adv-x="1482" d="M184 0v1464h232l712-1210v1210h170V0h-204L354 1255V0H184z"/><glyph unicode="O" horiz-adv-x="1660" d="M113 723v16q0 155 52.5 291.5t146 236.5 229 158 293.5 58 292.5-58 226.5-157.5 143.5-235T1548 743v-16q0-154-51.5-291t-143-237T1128 40.5 838-18q-159 0-295 58.5t-230 158T166 434t-53 289zm184 2q0-262 154.5-429T838 129q242 0 384 165.5T1364 729v16q0 166-61 299.5t-183 214-286 80.5q-167 0-289.5-77t-185-211.5T297 741v-16z"/><glyph unicode="P" horiz-adv-x="1189" d="M184 0v1464h416q109 0 199.5-24.5T961 1365t111-134 40-195v-8q0-113-40-198T960 695t-162-74.5T600 596H362V0H184zm178 737h250q157 0 239.5 75t82.5 216v8q0 150-83 217.5T612 1321H362V737z"/><glyph unicode="Q" horiz-adv-x="1660" d="M113 723v16q0 155 52.5 291.5t146 236.5 229 158 293.5 58 292.5-58 226.5-157.5 143.5-235T1548 743v-16q0-185-72-341.5T1274 127l184-205-108-104-205 229q-136-65-307-65-159 0-295 58.5t-230 158T166 434t-53 289zm184 2q0-262 154.5-429T838 129q113 0 200 37L874 350l109 105 186-211q94 80 144.5 204.5T1364 729v16q0 166-61 299.5t-183 214-286 80.5q-167 0-289.5-77t-185-211.5T297 741v-16z"/><glyph unicode="R" horiz-adv-x="1286" d="M184 0v1464h441q109 0 199-23t161.5-70 111.5-127 40-187v-8q0-171-99.5-269.5T774 649L1223 0h-199L588 637H362V0H184zm178 778h275q158 0 239.5 68.5T958 1049v8q0 143-81.5 203.5T637 1321H362V778z"/><glyph unicode="S" d="M98 446h172q10-73 29.5-125t61-99.5 116-72T657 125q143 0 238.5 76.5T991 401q0 127-74 187.5T637 682q-121 19-207 47t-152 74-98.5 116-32.5 166q0 170 133 284t338 114q220 0 351-104.5t153-299.5H963q-26 137-109 198.5T618 1339q-146 0-225.5-65.5T313 1102q0-58 13.5-96t51-71T485 879.5 666 840q259-40 378-134t119-292q0-185-144-308.5T657-18Q543-18 451.5 6.5T298.5 73 194 175t-65.5 126.5T98 446z"/><glyph unicode="T" horiz-adv-x="1148" d="M59 1319v145h1031v-145H664V0H485v1319H59z"/><glyph unicode="U" horiz-adv-x="1425" d="M172 535v929h178V555q0-228 83.5-327T702 129q92 0 157.5 21T975 221t75 139.5 25 221.5v882h178V557q0-274-139-424.5T698-18q-252 0-389 143.5T172 535z"/><glyph unicode="V" horiz-adv-x="1339" d="M61 1464h177L674 172l436 1292h168L772 0H559z"/><glyph unicode="W" horiz-adv-x="1900" d="M70 1464h182L549 283l344 1181h127l344-1185 301 1185h166L1450 0h-164L954 1157 612 0H451z"/><glyph unicode="X" horiz-adv-x="1345" d="m92 0 483 752-450 712h197l364-575 363 575h182L776 752 1253 0h-200L662 616 270 0H92z"/><glyph unicode="Y" horiz-adv-x="1224" d="M47 1464h201l383-680 368 680h179L715 637V0H537v639z"/><glyph unicode="Z" horiz-adv-x="1218" d="M57 0v29l830 1290H131v145h1002v-26L326 152h794V0H57z"/><glyph unicode="[" horiz-adv-x="729" d="M180-303v1892h459v-135H350V-168h289v-135H180z"/><glyph unicode="\" horiz-adv-x="825" d="M61 1589h156L813-303H657z"/><glyph unicode="]" horiz-adv-x="729" d="M90-168h289v1622H90v135h459V-303H90v135z"/><glyph unicode="^" horiz-adv-x="1038" d="m90 836 342 628h174l342-628H776l-260 483-258-483H90z"/><glyph unicode="_" horiz-adv-x="806" d="M-2-188h811v-136H-2v136z"/><glyph unicode="`" horiz-adv-x="819" d="M150 1556h212l127-301H362z"/><glyph unicode="a" horiz-adv-x="1105" d="M84 297q0 89 44.5 155.5t122 104 170 55T621 629h153v78q0 128-53 184.5T545 948q-223 0-246-192H129q8 88 46 154.5t97.5 104.5 129.5 56.5 151 18.5q65 0 120-11t106-38 86.5-69.5 57-110T944 707V0H774v135Q712 57 633.5 19.5T440-18q-103 0-181 32T132.5 118.5 84 297zm170 0q0-88 47.5-134T457 117q139 0 228 68.5T774 375v133H627q-373 0-373-211z"/><glyph unicode="b" d="M172 0v1583h170V891q48 82 149.5 140.5T705 1090q215 0 351-146.5T1192 551v-16q0-247-133.5-400T705-18q-124 0-219 54.5T342 176V0H172zm164 526q0-199 95-301t257-102q159 0 243.5 104t84.5 299v17q0 194-94 299.5T686 948q-156 0-253-103.5T336 543v-17z"/><glyph unicode="c" horiz-adv-x="1167" d="M92 524v17q0 120 41 223.5T244 939t165.5 111 202.5 40q87 0 163-21t140.5-64 107-117 54.5-173H909q-19 121-98.5 177T612 948q-150 0-247-111t-97-296v-17q0-192 95.5-296.5T618 123q120 0 207.5 68.5T926 385h157q-17-176-146.5-289.5T616-18q-228 0-376 148.5T92 524z"/><glyph unicode="d" d="M92 514v16q0 246 139.5 403T592 1090q125 0 212.5-52.5T942 899v684h170V0H942v184q-48-82-151.5-142T575-18q-215 0-349 143T92 514zm176 8q0-194 91.5-296.5T594 123q157 0 255.5 104T948 528v17q0 201-89.5 302T608 948q-160 0-250-107.5T268 539v-17z"/><glyph unicode="e" horiz-adv-x="1163" d="M92 524v17q0 243 140.5 396T594 1090q76 0 145-18.5t131-59.5 107-101.5 71.5-151T1075 557v-55H268q6-184 93.5-281.5T612 123q251 0 285 186h170q-27-158-149.5-242.5T610-18q-229 0-373.5 148.5T92 524zm182 115h627q-22 309-307 309-129 0-213.5-82.5T274 639z"/><glyph unicode="f" horiz-adv-x="708" d="M55 928v143h154v174q0 165 80.5 254.5T528 1589q66 0 127-20v-144q-59 23-120 23-80 0-118-49t-38-135v-193h262V928H379V0H209v928H55z"/><glyph unicode="g" d="M92 543v14q0 145 62.5 266.5t178 194T592 1090q125 0 212.5-52.5T942 899v172h170V72q-1-226-140.5-344.5T600-391q-224 0-342.5 91.5T115-61h174q38-187 309-187 164 0 254 81.5T942 82v156q-49-83-149.5-143T580 35q-211 0-349.5 143.5T92 543zm176 6q0-170 95-271.5T598 176q153 0 251.5 101.5T948 555v14q0 179-91 279T608 948q-157 0-248.5-106T268 565v-16z"/><glyph unicode="h" horiz-adv-x="1224" d="M172 0v1583h170V901q40 81 129.5 135t214.5 54q175 0 276-105t101-328V0H893v670q0 141-61.5 206.5T641 942q-126 0-212.5-77.5T342 649V0H172z"/><glyph unicode="i" horiz-adv-x="522" d="M145 1407q0 46 33.5 79.5T258 1520t79.5-33.5T371 1407t-33.5-79.5T258 1294t-79.5 33.5T145 1407zM176 0v1071h170V0H176z"/><glyph unicode="j" horiz-adv-x="522" d="M18-248q86 7 122 49t36 117v1153h170V-68q0-158-77-237.5T18-391v143zm127 1655q0 46 33.5 79.5T258 1520t79.5-33.5T371 1407t-33.5-79.5T258 1294t-79.5 33.5T145 1407z"/><glyph unicode="k" horiz-adv-x="1056" d="M172 0v1583h170V578l444 493h199L526 573 1024 0H817L342 555V0H172z"/><glyph unicode="l" horiz-adv-x="524" d="M176 0v1583h172V0H176z"/><glyph unicode="m" horiz-adv-x="1863" d="M172 0v1071h170V907q39 79 124 131t196 52q109 0 191.5-49T975 889q52 98 154.5 149.5T1341 1090q75 0 138-23.5t114-72.5 80-133 29-197V0h-170v676q0 138-57 202t-170 64q-114 0-198.5-75.5T1022 655V0H852v676q0 138-57 202t-170 64q-114 0-198.5-75.5T342 655V0H172z"/><glyph unicode="n" horiz-adv-x="1224" d="M172 0v1071h170V901q40 81 129.5 135t214.5 54q175 0 276-105t101-328V0H893v670q0 141-61.5 206.5T641 942q-126 0-212.5-77.5T342 649V0H172z"/><glyph unicode="o" horiz-adv-x="1236" d="M92 526v17q0 240 149 393.5T618 1090q229 0 378-152.5T1145 545v-17q0-241-149.5-393.5T616-18q-228 0-376 154.5T92 526zm176 0q0-184 94-293.5T618 123q160 0 255.5 110.5T969 526v15q0 186-95.5 296.5T618 948q-161 0-255.5-110T268 543v-17z"/><glyph unicode="p" d="M172-373v1444h170V891q48 82 149.5 140.5T705 1090q215 0 351-146.5T1192 551v-16q0-247-133.5-400T705-18q-125 0-219.5 54.5T342 176v-549H172zm164 899q0-199 95-301t257-102q159 0 243.5 104t84.5 299v17q0 194-94 299.5T686 948q-156 0-253-103.5T336 543v-17z"/><glyph unicode="q" d="M92 514v16q0 246 139.5 403T592 1090q125 0 212.5-52.5T942 899v172h170V-373H942v557q-48-82-151.5-142T575-18q-215 0-349 143T92 514zm176 8q0-194 91.5-296.5T594 123q157 0 255.5 104T948 528v17q0 201-89.5 302T608 948q-160 0-250-107.5T268 539v-17z"/><glyph unicode="r" horiz-adv-x="770" d="M172 0v1071h170V879q56 100 136 153.5t216 57.5V930q-86-4-146.5-21t-109-54.5T366 751t-24-163V0H172z"/><glyph unicode="s" horiz-adv-x="983" d="M84 330h166q9-100 68.5-153.5T502 123q121 0 177 41.5T735 293q0 80-58 117.5T485 473q-209 38-290.5 107T113 788q0 58 21.5 107.5t57.5 85 83 60.5 98 37 102 12q75 0 138-16.5t116.5-51.5 87.5-96.5T862 780H698q-19 88-71.5 128T473 948q-92 0-147.5-42T270 795q0-73 51.5-108.5T520 625q76-14 125.5-27T747 561t82-56 49-82 19-116q0-150-101-237.5T504-18q-192 0-302 91.5T84 330z"/><glyph unicode="t" horiz-adv-x="727" d="M55 928v143h154v244h170v-244h250V928H379V285q0-156 133-156 70 0 131 23V8q-64-22-145-22-142 0-215.5 76T209 268v660H55z"/><glyph unicode="u" horiz-adv-x="1216" d="M162 393v678h170V401q0-140 60.5-206T580 129q122 0 208 77.5T874 422v649h170V0H874v170Q834 89 745.5 35.5T535-18Q365-18 263.5 82T162 393z"/><glyph unicode="v" horiz-adv-x="1093" d="M51 1071h185l317-899 313 899h176L657 0H440z"/><glyph unicode="w" horiz-adv-x="1626" d="M57 1071h185l250-862 260 862h147l244-862 252 862h174L1235 0h-188L823 803 573 0H387z"/><glyph unicode="x" horiz-adv-x="1081" d="m57 0 383 551-358 520h199l262-389 260 389h184L633 563 1024 0H823L535 432 240 0H57z"/><glyph unicode="y" horiz-adv-x="1083" d="M51 1071h182l328-768 297 768h174L440-373H268l203 484z"/><glyph unicode="z" horiz-adv-x="989" d="M43 0v25l633 903H104v143h834v-31L319 150h611V0H43z"/><glyph unicode="{" horiz-adv-x="780" d="M82 584v127q61 0 108 14t74.5 37.5 44.5 55 18.5 66.5-3.5 72l-39 213q-40 224 64.5 325T690 1595v-129q-62-1-106-10t-77.5-30-48.5-55-20-85.5 8-120.5l39-235q18-111-37-183T285 647q108-28 163-99.5T485 365l-39-236q-13-69-8-120.5T458-77t48.5-55 77.5-30 106-10v-129q-236 0-340.5 101T285 125l39 213q5 37 3.5 72T309 476.5 264.5 532 190 570 82 584z"/><glyph unicode="|" horiz-adv-x="518" d="M190-303v1892h138V-303H190z"/><glyph unicode="}" horiz-adv-x="780" d="M90-172q62 1 106 10t77.5 30T322-77t20 85.5-8 120.5l-39 236q-18 111 37.5 182.5T496 647q-108 28-163.5 100T295 930l39 235q13 69 8 120.5t-20 85.5-48.5 55-77.5 30-106 10v129q236 0 341-101t65-325l-39-213q-5-37-3.5-72t18.5-66.5 44.5-55 74-37.5T698 711V584q-61 0-107.5-14t-74-38-44.5-55.5-18.5-66.5 3.5-72l39-213q40-224-65-325T90-301v129z"/><glyph unicode="~" horiz-adv-x="911" d="M90 457q10 126 72.5 194T307 719q58 0 115-26.5T523.5 640t70.5-26q35 0 61.5 28t30.5 81h135q-8-128-70-195t-141-67q-48 0-95.5 16.5T436 513t-63.5 35.5T319 565q-35 0-61-28t-33-80H90z"/><glyph unicode="¢" horiz-adv-x="1157" d="M92 524v17q0 223 128.5 371.5T547 1085v203h121v-203q164-13 275.5-104T1077 715H909q-16 104-80 160t-161 69V127q103 14 175 81t83 177h157q-15-162-129.5-273T668-14v-262H547v262Q344 7 218 152T92 524zm176 0q0-171 74-273t205-124v815q-126-24-202.5-130.5T268 541v-17z"/><glyph unicode="£" horiz-adv-x="1220" d="M78 0q3 37 17 74.5t38.5 74.5 65 64 90.5 37q24 60 24 127 0 95-47 268H98v127h133q-36 155-36 289 0 185 128.5 303.5T645 1483q194 0 309-104.5t129-282.5H911q-23 123-83 182t-183 59q-119 0-194.5-76.5T375 1059q0-120 35-287h436V645H438q31-159 31-270 0-67-27-133 55-13 179.5-62T795 131q86 0 133 40.5T981 307h149q-9-146-91.5-235.5T815-18q-61 0-130.5 20t-121 44.5T455 91t-95 20q-62 0-95-32.5T227 0H78z"/><glyph unicode="¥" horiz-adv-x="1179" d="M57 1464h193l358-663 342 663h172L713 694h321V575H690V416h344V297H690V0H516v297H172v119h344v159H172v119h320z"/><glyph unicode="¨" horiz-adv-x="819" d="M109 1407q0 44 32 76.5t76 32.5 76.5-32.5T326 1407t-32.5-76.5T217 1298t-76 32.5-32 76.5zm385 0q0 44 32 76.5t76 32.5 76.5-32.5T711 1407t-32.5-76.5T602 1298t-76 32.5-32 76.5z"/><glyph unicode="©" horiz-adv-x="1728" d="M113 731q0 154 59 293.5t159 240T571 1424t295 59q157 0 296.5-59t238.5-159 157-238 58-292q0-157-59-297t-159.5-240-240-158T862-18q-205 0-377 98T213 350.5 113 731zm98 0q0-144 53.5-269.5t143.5-211 208-134T862 68q130 0 249.5 49.5T1321 253t143.5 212 53.5 270q0 190-89 342.5t-238 236-325 83.5q-178 0-327.5-84T300 1075.5 211 731zm262-8v16q0 182 110.5 295T866 1147q144 0 239-72.5T1212 864h-155q-25 160-191 160-107 0-169-75.5T635 739v-14q0-135 60.5-209T866 442q86 0 140.5 43t66.5 127h148q-15-144-110.5-219.5T866 317q-185 0-289 109.5T473 723z"/><glyph unicode="«" horiz-adv-x="1024" d="m121 535 266 364h168L299 535l256-365H387zm364 0 267 364h168L664 535l256-365H752z"/><glyph unicode="­" horiz-adv-x="684" d="M123 483v160h438V483H123z"/><glyph unicode="®" horiz-adv-x="1052" d="M72 1028q0 189 132 322t322 133q193 0 324-131.5T981 1030q0-191-132-321.5T526 578q-190 0-322 129.5T72 1028zm82 0q0-166 106.5-271.5T526 651q160 0 266.5 106.5T899 1030q0 167-105 273t-268 106-267.5-107T154 1028zm217-217v449h157q80 0 126-34.5t46-101.5v-2q0-93-92-121l119-190H625L516 985h-47V811h-98zm98 242h57q78 0 78 65v2q0 64-78 64h-57v-131z"/><glyph unicode="´" horiz-adv-x="819" d="m330 1255 127 301h213l-213-301H330z"/><glyph unicode="¸" horiz-adv-x="819" d="M221-266h111q7-32 29.5-53t58.5-21q38 0 60 20.5t22 53.5q0 32-20.5 50.5T428-197q-30 0-57-16l-66 57L391 0h109l-60-109q77 10 135-33.5T633-274q0-79-59-121.5T426-438q-88 0-143.5 47.5T221-266z"/><glyph unicode="»" horiz-adv-x="1024" d="m104 170 256 365-256 364h168l267-364-267-365H104zm365 0 256 365-256 364h168l266-364-266-365H469z"/><glyph unicode="ˆ" horiz-adv-x="819" d="m113 1255 221 295h153l220-295H582l-174 154-175-154H113z"/><glyph unicode="˚" horiz-adv-x="819" d="M190 1438q0 88 64.5 150.5T410 1651t155-62.5 64-150.5-64-150.5-155-62.5-155.5 62.5T190 1438zm111 0q0-51 31-85t78-34 77.5 34 30.5 85-30.5 84.5T410 1556t-78-33.5-31-84.5z"/><glyph unicode="˜" horiz-adv-x="819" d="M94 1264q12 108 69.5 172.5T301 1501q37 0 79-22t79-44 61-22q29 0 51.5 26t30.5 66h123q-12-107-69-172t-136-65q-37 0-80 22t-80 44-61 22q-29 0-51.5-26t-30.5-66H94z"/><glyph horiz-adv-x="832"/><glyph horiz-adv-x="1665"/><glyph horiz-adv-x="832"/><glyph horiz-adv-x="1665"/><glyph horiz-adv-x="555"/><glyph horiz-adv-x="416"/><glyph horiz-adv-x="277"/><glyph horiz-adv-x="277"/><glyph horiz-adv-x="208"/><glyph horiz-adv-x="333"/><glyph horiz-adv-x="92"/><glyph unicode="‐" horiz-adv-x="684" d="M123 483v160h438V483H123z"/><glyph unicode="‑" horiz-adv-x="684" d="M123 483v160h438V483H123z"/><glyph unicode="‒" horiz-adv-x="684" d="M123 483v160h438V483H123z"/><glyph unicode="–" horiz-adv-x="1077" d="M92 494v143h893V494H92z"/><glyph unicode="—" horiz-adv-x="1812" d="M92 494v143h1628V494H92z"/><glyph unicode="‘" horiz-adv-x="522" d="m82 1073 240 414 104-53-182-435z"/><glyph unicode="’" horiz-adv-x="522" d="m96 1053 183 434 161-74-239-414z"/><glyph unicode="‚" horiz-adv-x="522" d="m96-180 183 434 161-74-239-413z"/><glyph unicode="“" horiz-adv-x="884" d="m82 1073 240 414 104-53-182-435zm362 0 240 414 104-53-182-435z"/><glyph unicode="”" horiz-adv-x="884" d="m96 1053 183 434 161-74-239-414zm363 0 182 434 162-74-240-414z"/><glyph unicode="„" horiz-adv-x="884" d="m96-180 183 434 161-74-239-413zm363 0 182 434 162-74-240-413z"/><glyph unicode="…" horiz-adv-x="1650" d="M158 121q0 55 38.5 93t92.5 38 92.5-38 38.5-93-38.5-93T289-10t-92.5 38-38.5 93zm536 0q0 55 38.5 93t92.5 38 92.5-38 38.5-93-38.5-93T825-10t-92.5 38-38.5 93zm537 0q0 55 38.5 93t92.5 38 92.5-38 38.5-93-38.5-93-92.5-38-92.5 38-38.5 93z"/><glyph horiz-adv-x="333"/><glyph unicode="‹" horiz-adv-x="659" d="m121 535 266 364h168L299 535l256-365H387z"/><glyph unicode="›" horiz-adv-x="659" d="m104 170 256 365-256 364h168l267-364-267-365H104z"/><glyph horiz-adv-x="416"/><glyph unicode="€" horiz-adv-x="1380" d="M66 528v119h145v160H66v119h151q13 119 54.5 219.5t109.5 176T547 1440t217 43q211 0 343-118.5t157-330.5h-168q-22 147-109.5 228T764 1343q-161 0-256.5-111T391 926h490l-23-119H387V647h440l-22-119H393q21-192 115.5-296.5T768 127q143 0 232 85.5T1114 463h166q-25-226-161-353.5T768-18q-229 0-376 151T217 528H66z"/><glyph unicode="™" horiz-adv-x="1466" d="M70 1374v90h514v-90H385V805H270v569H70zm630-569v659h158l184-463 181 463h159V805h-114v514l-211-514h-39l-213 514V805H700z"/><glyph unicode="◼" horiz-adv-x="1075" d="M0 0v1075h1075V0H0z"/></font>
</defs>
</svg>
