<svg xmlns="http://www.w3.org/2000/svg"><defs><font id="josefin_sansbold" horiz-adv-x="614"><font-face units-per-em="2048" ascent="1536" descent="-512"/><glyph horiz-adv-x="0"/><glyph/><glyph/><glyph unicode="!" horiz-adv-x="411" d="M98 109q0 47 33 76.5t74 29.5q39 0 71.5-29.5T309 109t-32.5-78T205 0q-41 0-74 30.5T98 109zm21 231v1196h170V340H119z"/><glyph unicode="&quot;" horiz-adv-x="686" d="M129 967v508h170q-2-129-4-254t-4-254H129zm272 0v508h170q-2-129-4-254t-4-254H401z"/><glyph unicode="#" horiz-adv-x="1169" d="M51 385q4 41 10.5 83T72 551h188l25 209H98q4 41 8.5 83t8.5 83h188q12 98 24.5 195.5T352 1317h172q-12-98-24.5-195.5T475 926h205q12 98 24.5 195.5T729 1317h172q-12-98-24.5-195.5T852 926h209q-4-41-8-83t-9-83H834l-25-209h209q-4-41-10.5-83T997 385H788q-10-98-22-192.5T743 0H571q10 98 22.5 192.5T616 385H412q-10-98-22.5-192.5T367 0H195q10 98 22 192.5T240 385H51zm381 166h205l25 209H457z"/><glyph unicode="$" horiz-adv-x="1161" d="m94 217 107 107q47-49 114.5-101.5T475 152v528q-10 4-24.5 10T420 705q-39 18-85 43.5T249 816t-67.5 100.5T152 1059q-2 61 14 122.5t54 115 100.5 90T475 1436v129h172v-131q59-12 127-44t146-98q-25-31-48.5-61.5T823 1169q-27 23-71.5 52.5T647 1268V801q61-25 122.5-60.5t111-86 80-117T991 383q0-80-26.5-147.5T892 117 782.5 34 647-10v-129H475V-8Q409 2 351 25.5T244 80t-88 66.5T94 217zm228 836q0-68 28.5-107t75.5-61q10-6 23.5-11.5T475 864v406q-78-23-115.5-82T322 1053zm325-893q74 23 124 78t50 147q0 94-52 146.5T647 616V160z"/><glyph unicode="%" horiz-adv-x="1486" d="M184 797q0 53 20.5 100t56.5 82 84 55.5 101 20.5 100.5-20.5T630 979t57.5-82T709 797q0-55-21.5-102.5t-57.5-82-83.5-55T446 537t-101 20.5-84 55-56.5 81.5T184 797zM356 0q154 258 305.5 512T967 1024h186Q999 766 847.5 512T543 0H356zm0 797q0-41 25-68t65-27q41 0 66 27t25 68-25 66.5-66 25.5-65.5-25.5T356 797zm451-570q0 53 20.5 100.5t56.5 82 84 55 101 20.5 100.5-20.5 83-55 57-81.5 21.5-101q0-55-21.5-102t-57-82-83-55.5T1069-33 968-12.5 884 43t-56.5 82T807 227zm172 0q0-41 24.5-67.5T1069 133t65.5 26.5T1159 227t-24.5 66.5T1069 319t-65.5-25.5T979 227z"/><glyph unicode="&amp;" horiz-adv-x="1433" d="M215 385q0 74 24.5 139.5T309 642t104.5 88T545 778q-35 59-72 118.5T401 1016q-37 61-52 126.5t-5 128 48 119 106 97.5q57 35 117.5 42t118-4.5 107.5-34 89-46.5q-16-35-33.5-66.5T862 1311q-20 12-52 27.5t-66.5 23.5-69.5 8-62-18q-84-53-93-135t40-162q78-125 152.5-248T864 559q2 35 6 60.5t11 48.5q14 45 40.5 66.5T982 763t73 6 80-1h96V602h-90q-31 0-51.5-7t-33-28.5T1040 504t-4-107v-14q0-41-10-86 39-61 77-123.5T1180 49q-35-23-67-44t-66-44q-27 41-51.5 84T944 129Q887 61 805 21.5T625-18q-86 0-161 31.5t-130 87-87 128T215 385zm170 0q0-100 66.5-169T625 147q78 0 136 39t85 103L643 621q-115 0-186.5-62.5T385 385z"/><glyph unicode="'" horiz-adv-x="333" d="M86 967v508h172q-2-129-4-254t-4-254H86z"/><glyph unicode="(" horiz-adv-x="868" d="M236 596q0 154 28.5 293t75.5 258 107.5 216T573 1528q37-12 75-23.5t75-23.5q-59-68-115.5-160T506 1116.5t-71.5-244T408 596t26.5-276.5 71.5-244T607.5-129 723-289q-37-12-75-23.5T573-336q-66 68-126 165T340 45t-75.5 258T236 596z"/><glyph unicode=")" horiz-adv-x="819" d="M152-299q59 68 115.5 160T369 65.5 440.5 309 467 586q0 145-26.5 276T369 1106t-101.5 205T152 1470q37 12 74.5 25.5T301 1522q63-68 124.5-165t109-216 76-258T639 590t-28.5-293-76-258T426-177 301-342q-37 10-75 21.5T152-299z"/><glyph unicode="*" horiz-adv-x="686" d="M51 1110q33 16 63.5 34.5T178 1180q-31 18-62.5 37.5T53 1255l80 142q33-18 64.5-38t64.5-38v154h172q0-39-1-77t-1-77q33 18 65.5 36.5T563 1395q20-35 41-71t41-71q-35-18-66.5-37.5T512 1178l129-74q-23-37-43-75t-43-75q-33 18-63.5 38t-63.5 38q0-35-1-70.5t-1-70.5H262v143q-31-18-62.5-35.5T137 961q-23 37-43 74.5T51 1110z"/><glyph unicode="+" horiz-adv-x="1112" d="M176 389v166h283v287h172V555h282V389H631V104H459v285H176z"/><glyph unicode="," horiz-adv-x="409" d="M4-246Q45-140 83-35t79 211h172Q289 70 246-34.5T158-246H4z"/><glyph unicode="-" d="M109 301v166h376V301H109z"/><glyph unicode="." horiz-adv-x="333" d="M68 106q0 47 32.5 78t73.5 31q39 0 72-30.5t33-78.5q0-47-33-76.5T174 0q-41 0-73.5 29.5T68 106z"/><glyph unicode="/" horiz-adv-x="778" d="M35-39q143 389 284.5 773T604 1507h172q-143-389-284.5-773T207-39H35z"/><glyph unicode="0" horiz-adv-x="1261" d="M76 670q0 156 44 281.5T238.5 1165t175 135.5T629 1348t215-49.5 174-138.5 115-216 41-282q0-156-48.5-281t-126-214-176-136T621-16 418 33 242.5 172 121 388 76 670zm172-2q0-109 28.5-203t80-164 119-110.5T621 150q76 0 145.5 38.5T888 297t82.5 164 30.5 203q0 74-18 164t-62 168.5-116 132-176 53.5-177-52.5-118-130T268.5 832 248 668z"/><glyph unicode="1" horiz-adv-x="559" d="M70 1165v166h311V0H209v1165H70z"/><glyph unicode="2" horiz-adv-x="1062" d="M90 932q0 82 27.5 157.5t82 133T334 1314t184 34q94 0 172-35t133.5-93.5 86-135T940 922q0-102-36-197.5t-94-190T676 349 518 166h498V0H109q127 127 245.5 247T565 478.5t147.5 217T768 897q0 76-24.5 129t-62.5 88-82 51.5-81 16.5q-78 0-127-27t-77.5-65.5-40-81.5-11.5-76q0-68 20.5-120t59.5-93q-27-27-51.5-52.5T240 614q-35 23-62.5 61t-47 82-30 90T90 932z"/><glyph unicode="3" horiz-adv-x="1054" d="M121 129q31 29 62.5 58.5T246 246q37-45 89-70.5T449 150q57 0 107 22.5t88 60 60.5 88T727 428t-22.5 107.5-60.5 87-88 58T449 702q-75 1-134-34 72 125 142.5 247.5T600 1163H211v168h674q-74-123-146.5-243.5T592 844q68-25 123-65t96-93 63.5-118.5T897 428q0-92-36-173t-97.5-141.5-142-95T449-16q-98 0-182.5 39.5T121 129z"/><glyph unicode="4" horiz-adv-x="1083" d="M76 375q188 244 374.5 486.5T825 1348V541h199V375H825V0H653v375H76zm344 166h233v305q-59-78-116.5-153T420 541z"/><glyph unicode="5" horiz-adv-x="1112" d="M211 109q31 29 62.5 57.5T336 223q35-35 82-54t100-19q57 0 107.5 22.5t88.5 60 60.5 88T797 428t-22.5 107.5-60.5 87-88.5 58T518 702q-72 0-131-23.5T293 598v733h588v-166H465V864q12 2 25.5 3t27.5 1q92 0 173-33.5t142.5-94T931 600t36-172-36-173-97.5-141.5-142.5-95T518-16q-90 0-169 32.5T211 109z"/><glyph unicode="6" horiz-adv-x="1064" d="M98 403q0 147 62.5 275.5t161 239 219.5 207T776 1305q27-33 53.5-66t53.5-65q-133-88-225.5-165T500 866q10 0 21 1t22 1q92 0 173-33.5t142.5-94 97-140.5T991 428t-35.5-173-97-141.5-142.5-95T543-16q-88 0-167 32.5t-139.5 89-97.5 133T98 403zm176 25q0-57 20.5-107.5t57.5-88 86-60T543 150q57 0 107 22.5t88 60 60.5 88T821 428t-22.5 107.5-60.5 87-88 58T543 702q-55 0-104.5-21.5t-86.5-58-57.5-87T274 428z"/><glyph unicode="7" horiz-adv-x="960" d="M29 1163v168h845Q724 995 575 665.5T276 0H82q133 293 263 581.5T608 1163H29z"/><glyph unicode="8" horiz-adv-x="1044" d="M74 428q0 119 57 216t152 157q-41 41-64.5 97T195 1020q0 68 25.5 127t69.5 104 102.5 71 125.5 26q68 0 127.5-26t104.5-71 70.5-104.5T846 1020q0-66-24.5-122T756 801q94-59 152.5-156.5T967 428q0-92-36-173t-97.5-141.5-142.5-95T518-16 345 18.5t-141.5 95-95 141.5T74 428zm176 0q0-57 20.5-107.5t57.5-88 86-60T518 150q57 0 107.5 22.5t88.5 60 60.5 88T797 428q0 55-21.5 104.5t-57.5 86-85 59T528 702q-59 0-110-21.5t-88-58-58.5-87T250 428zm119 592q0-66 45-109t108-43q66 0 110 43t44 109-44 114-110 48q-63 0-108-48t-45-114z"/><glyph unicode="9" horiz-adv-x="1075" d="M53 858q0 92 36 173t97.5 141.5T329 1268t173 35 173-36 141.5-96.5 95-141.5T946 858q0-139-64.5-264t-165-234.5-219-204T268-18q-27 33-53.5 65.5T162 113q133 88 225 164.5T545 420q-10-2-21.5-2H502q-92 0-173 33.5t-142.5 94T89 686 53 858zm170 0q0-57 22.5-107.5t60.5-87 88-58T502 584q55 0 104 21.5t86 58 57.5 87T770 858t-20.5 107.5T692 1054t-86 60.5-104 22.5q-57 0-107.5-22.5T306 1054t-60.5-88.5T223 858z"/><glyph unicode=":" horiz-adv-x="358" d="M68 106q0 47 32.5 78t73.5 31q39 0 72-30.5t33-78.5q0-47-33-76.5T174 0q-41 0-73.5 29.5T68 106zm0 512q0 47 32.5 78t73.5 31q39 0 72-30.5t33-78.5q0-47-33-76.5T174 512q-41 0-73.5 29.5T68 618z"/><glyph unicode=";" horiz-adv-x="411" d="M-25-246Q16-140 54-35t79 211h172Q260 70 217-34.5T129-246H-25zm156 864q0 47 33 78t74 31q39 0 71.5-30.5T342 618q0-47-33-76.5T238 512q-41 0-74 29.5T131 618z"/><glyph unicode="&lt;" horiz-adv-x="1392" d="M238 487q225 129 447 258t448 259V772q-123-72-247-142.5T639 487q123-72 247-142t247-142V-29Q908 100 685.5 229T238 487z"/><glyph unicode="=" horiz-adv-x="1449" d="M205 229v166h1036V229H205zm0 398v166h1036V627H205z"/><glyph unicode="&gt;" horiz-adv-x="1331" d="M238-29v232q123 72 246.5 142.5T731 487q-123 72-247 142.5T238 772v232q225-129 447-258.5T1133 487Q908 358 685.5 229T238-29z"/><glyph unicode="?" horiz-adv-x="925" d="M84 1186q14 45 41 99t74 101.5 118.5 80T494 1499q84 0 157.5-31.5t128-86 85-127T895 1100q0-115-54.5-200T694 745q-29-20-61.5-41.5t-61-49-47-65.5-18.5-93V336H334v199q0 66 20.5 106.5t55 72T487 773t91 65q74 55 108.5 120.5T721 1100q0 100-62.5 166.5T494 1333q-115 0-172.5-51.5T233 1130q-37 14-74.5 27.5T84 1186zM311 106q0 47 33 78t74 31q39 0 71.5-30.5T522 106q0-47-32.5-76.5T418 0q-41 0-74 29.5T311 106z"/><glyph unicode="@" horiz-adv-x="2027" d="M133 387q0 178 68.5 336T388 997.5t275.5 184T1001 1249q178 0 336-67.5t275-184T1796.5 723t67.5-338q-8-109-50-181.5T1714.5 85t-123-65.5T1470 0h-217v82q-2-6-20.5-22.5t-52-33T1100-4 993-18q-86 0-161.5 31.5t-131 87-87 128T582 383q0 80 31.5 152.5t87 128 131 87T993 782q53 0 99.5-14t81-33.5 55-38T1253 672q0 23 4.5 47t4.5 49h141V166h67q41 0 80 11t70 37 49.5 68 22.5 103q0 145-54.5 272T1489 879.5 1270 1029t-269 54q-145 0-271-54T509 879.5 359.5 657 305 385t54.5-271T509-106.5 730-255t271-54q121 0 228.5 35.5T1430-174q27-31 51-60.5t51-60.5q-51-45-114.5-79T1283-430.5 1140.5-464 1001-475q-180 0-337.5 67.5T388-223 201.5 51.5 133 387zm621-2q0-100 66.5-169T993 147t173 69 67 169q0 102-66.5 169T993 621q-106 0-172.5-67T754 385z"/><glyph unicode="A" horiz-adv-x="1515" d="M125 0q160 377 317.5 749.5T760 1499q160-377 317.5-749.5T1395 0h-170q-59 141-120 283.5T985 567H535q-59-141-120-283.5T295 0H125zm479 729h311q-35 82-68.5 163T778 1055l-18 67q-29-102-72-198.5T604 729z"/><glyph unicode="B" horiz-adv-x="1095" d="M119 0v1434h375q100 0 183-20.5t141.5-63.5 91-112 32.5-163q0-127-60.5-223T698 721q57-12 111.5-41t94.5-74 64.5-104.5T993 369q0-92-39-161T850.5 93 702 23.5 530 0H119zm170 162h227q63 0 118.5 14t97.5 44 66.5 73T823 395q0 63-28.5 110.5t-74.5 77-107.5 44T487 641H289V162zm0 641h221q121 0 191.5 67.5T772 1049q0 121-73.5 172T506 1272H289V803z"/><glyph unicode="C" horiz-adv-x="1372" d="M127 715q0 152 57.5 286T341 1234t232.5 157.5T858 1450q104 0 197.5-26.5T1233 1348q-23-35-47.5-69t-46.5-69q-63 37-133 57.5T858 1288q-117 0-218-45t-178-124-121-183.5T297 715q0-117 44-221.5t121-181 178-122T858 145q152 0 281 76l92-135q-82-47-175-74.5T858-16q-152 0-285 57T341 197.5 184.5 430 127 715z"/><glyph unicode="D" horiz-adv-x="1335" d="M123 0v1434h334q147 0 278-50.5T964.5 1239t156-226 57.5-298q0-121-42-248T999.5 236.5t-245-170T387 0H123zm170 164h143q121 0 225.5 39T843 314.5t121 174 44 228.5-44 229.5-121 175T661.5 1233 436 1272H293V164z"/><glyph unicode="E" horiz-adv-x="1230" d="M141 0v1434h883v-162H311V803h633V641H311V162h742V0H141z"/><glyph unicode="F" horiz-adv-x="1202" d="M141 0v1434h883v-162H311V803h633V641H311V0H141z"/><glyph unicode="G" horiz-adv-x="1417" d="M127 715q0 152 57.5 286T341 1234t232.5 157.5T858 1450q104 0 197.5-26.5T1233 1348q-23-35-47.5-69t-46.5-69q-63 37-133 57.5T858 1288q-117 0-218-45t-178-124-121-183.5T297 715q0-117 44-221.5t121-181 178-122T858 145q106 0 203 37v209q0 35-7 48.5t-40 13.5H850v161h283q59 0 78.5-29.5T1231 492V86q-82-47-175-74.5T858-16q-152 0-285 57T341 197.5 184.5 430 127 715z"/><glyph unicode="H" horiz-adv-x="1433" d="M160 0v1434h170V803h774v631h170V0h-170v641H330V0H160z"/><glyph unicode="I" horiz-adv-x="569" d="M203 0v1434h170V0H203z"/><glyph unicode="J" horiz-adv-x="700" d="M35-133q141 8 232 90t91 233v1244h170V184q0-115-37.5-202.5t-103-148-157-93.5T35-295v162z"/><glyph unicode="K" horiz-adv-x="1228" d="M104 0v1434h170V872q-2-16-3-32.5t-3-32.5q10 12 19.5 23.5T307 854q154 145 304.5 289.5T915 1434h209q-154-147-305-291T514 852q170-215 338-426T1190 0H987Q840 186 694.5 371.5T401 743q-33-31-63.5-60.5T274 623V0H104z"/><glyph unicode="L" horiz-adv-x="1214" d="M141 0v1434h170V162h742V0H141z"/><glyph unicode="M" horiz-adv-x="1918" d="M205 0v1499q188-244 374.5-486.5T954 526q188 244 375 486.5t375 486.5V0h-170v963q2 16 3 32.5t3 32.5q-135-201-286.5-390T954 256Q817 436 680 614.5T406 973l-37 55q2-16 3-32.5t3-32.5V0H205z"/><glyph unicode="N" horiz-adv-x="1665" d="M205 0v1499q264-287 524-568.5T1253 362q10-14 19.5-26t19.5-27q-2 16-3 32.5t-3 33.5v1059h170V-66q-264 281-524 557.5T408 1049q-10 14-19.5 26t-19.5 27q2-16 3-32.5t3-33.5V0H205z"/><glyph unicode="O" horiz-adv-x="1720" d="M127 715q0 150 57.5 284T341 1233t232.5 158.5T858 1450q150 0 284-58.5t234.5-158.5T1535 998.5t58-283.5q0-152-58-285t-158.5-232.5T1142 41 858-16q-152 0-285 57T341 197.5 184.5 430 127 715zm170 0q0-119 44-222.5t121-180 179-122T860 145t219.5 45.5 179 122 120.5 180 44 222.5-44 222-120.5 181-179 123-219.5 45-219-45-179-123-121-181-44-222z"/><glyph unicode="P" horiz-adv-x="1001" d="M119 0v1434h338q70 0 154.5-21.5t158.5-69 123-121 49-178.5q0-186-110.5-295.5T512 639H289V0H119zm170 803h178q90 0 148.5 23.5t93 58.5 49 78 14.5 81q0 45-23.5 87.5t-63.5 74-96.5 50T469 1274H289V803z"/><glyph unicode="Q" horiz-adv-x="1724" d="M127 715q0 152 57.5 286T341 1234t232.5 157.5T858 1450q152 0 286-58.5t233.5-157.5 157.5-233.5 58-285.5q0-166-69.5-309.5T1337 162h301V0h-628q-78-16-152-16-152 0-285 57T341 197.5 184.5 430 127 715zm170 0q0-117 44-221.5t121-181 178-122T858 145t219.5 45.5 179 122 121.5 181 45 221.5-45 221-121.5 183-179 124-219.5 45-218-45-178-124-121-183-44-221z"/><glyph unicode="R" horiz-adv-x="1062" d="M119 0v1434h338q70 0 154.5-21.5t158.5-69 123-121 49-178.5q0-154-77-257T641 651L948 0H764L463 639H289V0H119zm170 803h178q90 0 148.5 23.5t93 58.5 49 78 14.5 81q0 45-23.5 87.5t-63.5 74-96.5 50T469 1274H289V803z"/><glyph unicode="S" horiz-adv-x="1153" d="m94 217 107 107q27-29 63.5-61t79.5-58.5 94-43T549 145q53 0 102 15.5t87 45.5 60.5 75T821 385q0 82-40 133t-98 85-121.5 54.5T451 696q-37 14-88.5 39T265 802t-78.5 104.5T152 1059v12q0 61 18 123 20 68 67.5 123t125 90 190.5 35q82 0 170-29t197-121q-25-31-48.5-61.5T823 1169q-16 16-42.5 36t-60.5 36-76 27.5-89 11.5q-119 0-176-67.5T322 1053q0-51 19-86t51-58.5 72-40 83-30.5q68-25 145.5-59t144-86T947 565t44-182q0-92-33.5-166t-92-126T729 11.5 565-16q-78 0-151.5 21.5t-135 55T169 135t-75 82z"/><glyph unicode="T" horiz-adv-x="1132" d="M0 1272v162h1133v-162H653V0H483v1272H0z"/><glyph unicode="U" horiz-adv-x="1335" d="M156 463v971h170V469q0-78 25.5-138.5T423 229t109.5-62.5T672 145t139 21.5T920.5 229t73 101.5T1020 469v965h170V463q0-117-40-207t-109.5-150.5-163.5-91T672-16 467 14.5t-164 91T194.5 256 156 463z"/><glyph unicode="V" horiz-adv-x="1478" d="M111 1434h170q113-266 223-527.5T727 379l18-68 19 68q113 266 223 527.5t223 527.5h170q-160-377-317.5-750T745-66Q585 311 427.5 684T111 1434z"/><glyph unicode="W" horiz-adv-x="2269" d="M111 1434h170q113-266 223-527.5T727 379l18-68q25 92 61 183.5T882 677t82 181 78 178q-41 100-84 198.5T874 1434h170q113-266 223.5-527.5T1491 379l18-68 19 68q113 266 223 527.5t223 527.5h170q-160-377-317.5-750T1509-66l-362 854q-4 18-10.5 36t-10.5 36q-29-115-73.5-232.5t-98-234.5T847 160.5 745-66Q585 311 427.5 684T111 1434z"/><glyph unicode="X" horiz-adv-x="1433" d="M190 0q121 184 239 365.5T668 731q-115 176-228.5 351T211 1434h209q84-129 167-257t167-257q6-14 13-27.5t13-28.5q6 14 13.5 27.5T807 920q84 129 167 257t167 257h209q-117-180-233-357.5T885 719q117-180 234.5-359.5T1354 0h-211L799 528q-8 14-14.5 28.5T770 586q-6-14-13-28.5T743 528q-86-133-171-264T401 0H190z"/><glyph unicode="Y" horiz-adv-x="1306" d="M25 1434h208q98-166 196.5-331T627 772q6-16 11-31.5t11-31.5h2q6 16 12.5 31.5T676 772q98 166 195.5 331t195.5 331h209q-131-223-260-441.5T756 551V0H547v553Q416 774 286 993T25 1434z"/><glyph unicode="Z" horiz-adv-x="1433" d="M166 0v164q221 279 438 554t438 554H350q-63 0-107 37t-44 96v100h170v-24q0-33 13-40t48-7h821v-162q-221-279-438-554.5T375 164h936V0H166z"/><glyph unicode="[" horiz-adv-x="692" d="M170-305v1833h393v-166H340V-139h223v-166H170z"/><glyph unicode="\" horiz-adv-x="788" d="M0 1507h193q143-389 284-773T762-39H569Q426 350 284.5 734T0 1507z"/><glyph unicode="]" horiz-adv-x="700" d="M121-139h223v1501H121v166h393V-305H121v166z"/><glyph unicode="^" horiz-adv-x="962" d="M229 981q61 92 123 185.5T475 1352q61-92 122.5-185.5T721 981H600q-31 37-62.5 74t-62.5 73q-31-37-62.5-73.5T350 981H229z"/><glyph unicode="_" horiz-adv-x="1228" d="M205 0v166h819V0H205z"/><glyph unicode="`" horiz-adv-x="409" d="M-104 1253H68q47-68 92-136t92-136H131q-59 68-117.5 136.5T-104 1253z"/><glyph unicode="a" horiz-adv-x="1044" d="M100 383q0 80 32 153.5t87 129 131 88T512 786q55 0 102.5-16t82-35.5 55-38T772 672q0 23 4 47t4 49h142V0H772v84q0-6-18.5-22.5t-51-34-81-31.5T512-18q-86 0-162 31.5t-131 87-87 128T100 383zm172 2q0-100 67-169t173-69 173 69 67 169q0 102-67 169t-173 67-173-67-67-169z"/><glyph unicode="b" horiz-adv-x="1091" d="M168 0v1536h170V741q-4-16-10-32.5T317 676q0 6 20.5 23.5t55.5 37 82 34.5 103 15q86 0 161.5-31.5t131-87 87-128T989 385t-31.5-155.5-87-129-131-87T578-18q-61 0-109.5 14T387 27.5t-51.5 34T317 84V0H168zm170 385q0-100 66.5-169T578 147q106 0 172.5 69T817 385q0 102-66.5 169T578 621t-173-67-67-169z"/><glyph unicode="c" horiz-adv-x="808" d="M74 385q0 82 31.5 155.5t87 128 130 86T483 786q76 0 141.5-23.5T743 698q-27-33-53-63.5T637 571q-66 49-154 50-106 0-172.5-67T244 385q0-100 66.5-169T483 147q91 1 154 52 27-33 51.5-65T739 70Q686 29 621.5 5.5T483-18q-86 0-160.5 31.5t-130 87-87 128T74 385z"/><glyph unicode="d" horiz-adv-x="1081" d="M100 385q0 82 32 154.5t87 128 131 87T512 786q55 0 102.5-15t82-34.5 55-37T772 676q-4 16-10 32.5T752 741v795h170V0H772v84q0-6-18.5-22.5t-51-34-81-31.5T512-18q-86 0-162 31.5t-131 87-87 129T100 385zm172 0q0-100 67-169t173-69 173 69 67 169q0 102-67 169t-173 67-173-67-67-169z"/><glyph unicode="e" horiz-adv-x="923" d="M74 385q0 82 31.5 155.5t87 128 130 86T483 786q63 0 122-25.5T710 690t81-107.5T844 446q-139-51-277.5-102T289 242q31-43 81-69t113-26q94 0 156 66L743 90q-51-51-116.5-79.5T483-18q-86 0-160.5 31.5t-130 87-87 128T74 385zm170 16q96 35 191 71t192 71q-29 35-65 56.5T483 621q-82 0-141-41t-84-107q-10-31-14-72z"/><glyph unicode="f" horiz-adv-x="671" d="M45 621v165h131v273q0 115 38 203t103.5 148 156.5 92 196 36v-162q-141-8-232.5-90T346 1053V786h240V621H346V0H176v621H45z"/><glyph unicode="g" horiz-adv-x="1060" d="M100 383q0 80 32 153.5t87 129 131 88T512 786q55 0 102.5-16t82-35.5 55-38T772 672q0 23 4 47t4 49h142v-891q0-82-32-152.5t-87-123-129-83T514-512q-92 0-178 40t-148 83q29 35 56.5 69.5T301-250q41-31 95.5-58.5T510-336q53 0 97 18.5t77 50 50.5 76T752-96V41q4 10 9 19.5t9 19.5q-6-8-26.5-24.5t-53.5-32T612-4 512-16q-86 0-162 31.5t-131 86-87 127T100 383zm172 2q0-100 67-169t173-69 173 69 67 169q0 102-67 169t-173 67-173-67-67-169z"/><glyph unicode="h" horiz-adv-x="1075" d="M168 0v1536h170V664l-6-93q45 100 131 154.5T666 786q121 0 190.5-63.5T930 557V0H760v479q-4 55-40 95t-114 44q-53 0-101-18t-85-51-59.5-78-22.5-98V0H168z"/><glyph unicode="i" horiz-adv-x="409" d="M100 1065q0 47 33 78t74 31q39 0 71.5-31t32.5-78-32.5-77-71.5-30q-41 0-74 30t-33 77zM119 0v768h170V0H119z"/><glyph unicode="j" horiz-adv-x="460" d="M43-244q53 41 82 102.5T154 6v764q43 0 85-1t85-1V0q0-125-43-218.5T160-371q-29 33-58.5 64T43-244zm96 1309q0 47 33 78t74 31q39 0 71.5-31t32.5-78-32.5-77-71.5-30q-41 0-74 30t-33 77z"/><glyph unicode="k" horiz-adv-x="919" d="M119 0v1536h170V432q98 92 190.5 177T670 786l100-100q-70-66-131-124T508 438q80-111 160-219T827 0H631q-59 82-120.5 164T389 328q-25-23-50.5-47.5T289 233V0H119z"/><glyph unicode="l" horiz-adv-x="397" d="M119 0v1536h170V0H119z"/><glyph unicode="m" horiz-adv-x="1630" d="M168 0v768h149v-18q4-49 7.5-89t7.5-90q43 98 130 154.5T666 786q113 0 181-56t81-148q45 94 131 147t198 57q121 0 191-63.5t74-165.5V0h-170v479q-4 55-40 95t-114 44q-53 0-101-18t-85-51-59.5-78-22.5-98V0H760v479q-4 55-40 95t-114 44q-53 0-101-18t-85-51-59.5-78-22.5-98V0H168z"/><glyph unicode="n" horiz-adv-x="1013" d="M168 0v768h149v-18q4-49 7.5-89t7.5-90q41 98 132 156.5T666 786q121 0 190.5-63.5T930 557V0H760v479q-4 55-40 95t-114 44q-53 0-101-18t-85-51-59.5-78-22.5-98V0H168z"/><glyph unicode="o" horiz-adv-x="972" d="M74 385q0 82 31.5 155.5t87 128 130 86T483 786t162-31.5 131-86 87-128T895 385q0-84-32-156.5t-87-128-131-87T483-18 322.5 13.5t-130 87-87 128T74 385zm170-2q0-49 18.5-92t50-75 74.5-50.5 92-18.5 92 18.5 76 50.5 51.5 75 18.5 92-18.5 92-51.5 76-76 51.5-92 18.5-92-18.5-74.5-51.5-50-76-18.5-92z"/><glyph unicode="p" horiz-adv-x="1075" d="M137-512V768h142q0-25 3-48.5t5-47.5q0 6 20.5 24.5t55 38 82 35.5T547 786q86 0 161.5-31.5t131-87 87-128T958 385t-31.5-155.5-87-129-131-87T547-18q-61 0-109.5 14t-81 31.5-51 34T287 84q4-10 10-22.5T307 39v-551H137zm170 897q0-100 66.5-169T547 147q106 0 172.5 69T786 385q0 102-66.5 169T547 621t-173-67-67-169z"/><glyph unicode="q" horiz-adv-x="1048" d="M100 385q0 82 32 154.5t87 128 131 87T512 786q55 0 102.5-16t82-35.5 55-38T772 672q2 25 5 48t3 48h142V-512H752V39q4 10 10 22.5T772 84q0-6-18.5-22.5t-51-34-81-31.5T512-18q-86 0-162 31.5t-131 87-87 129T100 385zm172 0q0-100 67-169t173-69 173 69 67 169q0 102-67 169t-173 67-173-67-67-169z"/><glyph unicode="r" horiz-adv-x="677" d="M168 0v768h149v-18q4-49 7.5-89t7.5-90q25 51 62.5 91t79.5 68 82 42 71 14l-13-168q-125 0-200.5-69.5T338 373V0H168z"/><glyph unicode="s" horiz-adv-x="724" d="M117 80q27 31 51.5 62.5T219 205q45-29 76-42t80-13q2 0 15 1t29.5 8 30 21.5T465 223q2 37-20.5 56.5t-58.5 33-79 26.5-81 36.5-62.5 66.5T139 557q0 63 24.5 106.5t61.5 71 80 39.5 78 12q20 0 50-4t60.5-14 60-26.5T606 700q-23-33-47-63.5T512 573q-10 10-40 29t-79 19q-45 0-65.5-19.5T311 549q4-25 31-40t62.5-29.5 76.5-33 76-46 57.5-69.5T637 225q0-29-11.5-69.5t-40-79.5T506 10.5 373-16q-76 0-145.5 25.5T117 80z"/><glyph unicode="t" d="M49 621v165h172v482h170V786h201V621H391V0H221v621H49z"/><glyph unicode="u" horiz-adv-x="1083" d="M168 211v557h170V289q4-55 40-95t114-44q53 0 101 18t85 51 59.5 78 22.5 98v373h170V-18H760v122l6 93Q725 99 634 40.5T432-18q-121 0-190.5 63.5T168 211z"/><glyph unicode="v" horiz-adv-x="1024" d="M111 768h170q33-61 71.5-127T429 509.5t69.5-132T553 246q20 66 53 132t71 131.5T753 641t72 127h170Q884 563 774 360.5T553-47Q442 158 331.5 360.5T111 768z"/><glyph unicode="w" horiz-adv-x="1581" d="M111 768h170q59-129 127.5-259T522 246q37 111 91.5 216.5T715 672q-12 25-23.5 48T668 768h170q59-129 127.5-259T1079 246q45 133 114 263t128 259h170q-104-205-205.5-407.5T1079-47q-70 139-139.5 275.5T801 504q-70-139-139.5-275.5T522-47Q418 158 316.5 360.5T111 768z"/><glyph unicode="x" horiz-adv-x="972" d="M43 0q76 104 151.5 207T346 414q-66 90-130 177T86 768h209q51-68 101-136.5T498 496q49 68 99 136t99 136h209q-76-104-150.5-206.5T604 354q66-90 132.5-177T868 0H651q-51 68-100 136.5T451 272q-49-68-99.5-136T252 0H43z"/><glyph unicode="y" horiz-adv-x="1024" d="M53 768h170q76-150 163-304.5T526 152q27 78 63 156.5T666 464t83 153.5T827 768h170Q835 446 674.5 128T352-512H182q66 129 129.5 256T440 0z"/><glyph unicode="z" horiz-adv-x="923" d="M86 0v166q63 57 119.5 111.5t111 107.5T426 493.5 547 606H262q-63 0-107 37t-44 96v101h170v-25q0-33 13-40t48-7h444V602q-66-57-121-111.5T556 383 445.5 276.5 326 166h508V0H86z"/><glyph unicode="{" horiz-adv-x="655" d="M61 524v166q49 2 81 30t50.5 68.5 24.5 89 6 89.5v319q0 94 19.5 144.5t52.5 72 77 23.5 93 2h129v-166h-90q-31 0-51.5-8t-32.5-32-17.5-64.5T397 1151V887q0-63-13-109.5t-33.5-79-43-54T264 610q20-12 43-33.5t43.5-55.5 33.5-79 13-106V72q0-66 5.5-108t17.5-64.5 32.5-30.5 51.5-8h90v-166H465q-47 0-91 2t-78 23.5-53.5 70.5T223-63v311q0 41-6 89t-24.5 89-50.5 68.5T61 524z"/><glyph unicode="|" horiz-adv-x="555" d="M186-475v1909h172V-475H186z"/><glyph unicode="}" horiz-adv-x="655" d="M61-139h91q31 0 51 8t32.5 30.5T253-36t5 108v264q0 61 13.5 107t34 79 44 54.5T391 610q-20 12-43.5 34t-43 54.5-33 78.5T258 887v264q0 66-5 106.5t-17.5 64.5-33 32-50.5 8H61v166h129q47 0 91.5-2t78-23.5 53-71T432 1286V967q0-41 7-89.5t24.5-89T513 720t81-30V524q-49-2-81-29.5T463.5 426 439 337t-7-89V-63q0-96-19.5-145.5t-52-71T284-303t-94-2H61v166z"/><glyph unicode="~" horiz-adv-x="1001" d="M248 950q2 41 20.5 75t45 57.5 58 35.5 62.5 12q47 0 85-18t73-49q31-33 54.5-43t51.5-10q14 0 32 4t34 14 27.5 28.5T807 1104l92-6q-2-41-20.5-75t-45-56.5T775 932t-62-12q-47 0-85 18t-73 47q-31 33-54.5 43t-51.5 10q-29 0-66-18.5T340 944z"/><glyph/><glyph unicode="¢" horiz-adv-x="788" d="M74 385q0 68 21.5 129T156 626.5t93 88.5 118 55v127h172V782q55-8 109-28.5t95-55.5q-27-33-53-63.5T637 571q-41 29-98 43V152q27 6 52.5 18.5T637 199q27-33 51.5-65T739 70Q653-2 539-14v-125H367V0q-63 18-117.5 55T156 142.5 95.5 255 74 385zm170 0q0-70 32.5-125t90.5-86v418q-57-29-90-83t-33-124z"/><glyph unicode="£" horiz-adv-x="1175" d="M59 0v166h91q33 0 53 7t32.5 29.5T252 265t4 106v188H123v166h133v299q0 141 119 207.5t334 66.5q137 0 219-61t123-143q-33-18-65-38t-64-38q-10 14-23.5 33.5t-36 38-59.5 31-94 12.5q-139 0-210-29t-71-125V725h240V559H428V334q0-59-5-99t-38-69h352q66 0 107 5t64.5 17.5 31.5 33 8 50.5v90q43 0 86 1.5t86 1.5V174q0-37-8-69.5t-34.5-55-74-36T879 0H59z"/><glyph unicode="¥" horiz-adv-x="1306" d="M25 1434h208q98-166 196.5-331T627 772q6-16 11-31.5t11-31.5h2q6 16 12.5 31.5T676 772q98 166 195.5 331t195.5 331h209q-109-184-215.5-364.5T846 705h143V539H756V371h233V205H756V0H547v205H307v166h240v168H307v166h150q-109 184-216.5 364T25 1434z"/><glyph unicode="¨" horiz-adv-x="757" d="M100 1065q0 47 33 78t74 31q39 0 71.5-31t32.5-78-32.5-77-71.5-30q-41 0-74 30t-33 77zm340 0q0 47 33 78t74 31q39 0 71.5-31t32.5-78-32.5-77-71.5-30q-41 0-74 30t-33 77z"/><glyph unicode="©" horiz-adv-x="1624" d="M281 762q0 117 43 215t115.5 170 171 111.5T819 1298q111 0 209-39.5t171-111.5 116-170 43-215q0-115-43-212t-116-169-171-113-209-41-209 41-170.5 113T324 550t-43 212zm81 0q0-98 35-182t96.5-145.5T639 338t180-35 180 35 145.5 96.5T1241 580t35 182q0 100-35 184t-96.5 145.5T999 1188t-180 35-180-35-145.5-96.5T397 946t-35-184zm140 6q0 70 25.5 130t70.5 105.5 105.5 71T831 1100q92 0 170-45-10-16-21-31.5T958 991q-59 37-127 37-53 0-98-20.5T653 951t-54-83-19-100 19-100 54-82 80-55.5 98-20.5q70 0 127 35l43-62q-37-23-79.5-35T831 436q-68 0-128 26.5t-105 72T527.5 640 502 768z"/><glyph unicode="«" horiz-adv-x="1230" d="M240 489q88 84 175 165t175 165V625q-35-35-66.5-68T457 489q35-35 66.5-68.5T590 352V158zm350 0q88 84 175 165t175 165V627q-35-35-66.5-69T807 489q35-35 66.5-68.5T940 352V158z"/><glyph unicode="­" d="M109 301v166h376V301H109z"/><glyph unicode="®" horiz-adv-x="1640" d="M281 762q0 117 43 215t115.5 170 171 111.5T819 1298q111 0 209-39.5t171-111.5 116-170 43-215q0-115-43-212t-116-169-171-113-209-41-209 41-170.5 113T324 550t-43 212zm81 0q0-98 35-182t96.5-145.5T639 338t180-35 180 35 145.5 96.5T1241 580t35 182q0 100-35 184t-96.5 145.5T999 1188t-180 35-180-35-145.5-96.5T397 946t-35-184zm293-332v678h162q33 0 73-10.5t74.5-33 58.5-57 24-83.5q0-72-37-121t-107-66q37-78 74-153.5t72-153.5h-86q-35 76-72 150.5T819 733h-82V430h-82zm82 379h84q43 0 71 11t45 27.5 23.5 37T967 924q0 43-42 75.5T823 1032h-86V809z"/><glyph unicode="´" horiz-adv-x="561" d="M205 981q47 68 92 136.5t92 135.5h172q-59-68-117.5-136T326 981H205z"/><glyph unicode="¸" horiz-adv-x="925" d="M217-358q23 12 47.5 24t46.5 25q10-33 37-54.5t68-21.5q49 0 75.5 33t26.5 82q0 41-22.5 64.5t-48 42-48 39T377-70V0h104v-14q0-29 8.5-46.5T511-89t28.5-18.5T567-125q43-33 60.5-74t17.5-92q0-43-13.5-83t-41-70.5-67.5-49-93-18.5q-70 0-128 38t-85 116z"/><glyph unicode="»" horiz-adv-x="1230" d="m240 158 350 331q-88 84-175 165T240 819V627q35-35 66.5-69t66.5-69q-35-35-66.5-68.5T240 352V158zm350 0 350 331q-88 84-175 165T590 819V625q35-35 66.5-68t66.5-68q-35-35-66.5-68.5T590 352V158z"/><glyph horiz-adv-x="782"/><glyph horiz-adv-x="1565"/><glyph horiz-adv-x="782"/><glyph horiz-adv-x="1565"/><glyph horiz-adv-x="521"/><glyph horiz-adv-x="391"/><glyph horiz-adv-x="260"/><glyph horiz-adv-x="260"/><glyph horiz-adv-x="195"/><glyph horiz-adv-x="313"/><glyph horiz-adv-x="86"/><glyph unicode="‐" d="M109 301v166h376V301H109z"/><glyph unicode="‑" d="M109 301v166h376V301H109z"/><glyph unicode="‒" d="M109 301v166h376V301H109z"/><glyph unicode="–" horiz-adv-x="1042" d="M205 356v166h616V356H205z"/><glyph unicode="—" horiz-adv-x="1433" d="M203 356v166h1028V356H203z"/><glyph unicode="‘" horiz-adv-x="335" d="M63 1456q27-4 53.5-7t53.5-7q-14-72 5.5-132.5T238 1208q-23-12-42.5-24.5T154 1159q-57 57-82 134t-9 163z"/><glyph unicode="’" horiz-adv-x="335" d="M72 1208q43 41 62.5 101.5T139 1442q27 4 53.5 7t53.5 7q16-86-8.5-163T156 1159q-23 12-42.5 24.5T72 1208z"/><glyph unicode="‚" horiz-adv-x="299" d="M39-59q43 41 62.5 101t4.5 132q27 4 53.5 7t53.5 7q16-86-8.5-163T123-109q-23 12-42.5 24.5T39-59z"/><glyph unicode="“" horiz-adv-x="509" d="M63 1456q27-4 53.5-7t53.5-7q-14-72 5.5-132.5T238 1208q-23-12-42.5-24.5T154 1159q-57 57-82 134t-9 163zm213 0q27-4 53.5-7t53.5-7q-14-72 5.5-132.5T451 1208q-23-12-42.5-24.5T367 1159q-57 57-82 134t-9 163z"/><glyph unicode="”" horiz-adv-x="507" d="M23 1208q43 41 62 101.5t5 132.5q27 4 53.5 7t53.5 7q16-86-9-163t-82-134q-23 12-42 24.5T23 1208zm213 0q43 41 62 101.5t5 132.5q27 4 53.5 7t53.5 7q16-86-9-163t-82-134q-23 12-42 24.5t-41 24.5z"/><glyph unicode="„" horiz-adv-x="698" d="M39-59q43 41 62.5 101t4.5 132q27 4 53.5 7t53.5 7q16-86-8.5-163T123-109q-23 12-42.5 24.5T39-59zm213 0q43 41 62.5 101t4.5 132q27 4 53.5 7t53.5 7q16-86-8.5-163T336-109q-23 12-42.5 24.5T252-59z"/><glyph horiz-adv-x="313"/><glyph unicode="‹" horiz-adv-x="802" d="M240 489q88 84 175 165t175 165V625q-35-35-66.5-68T457 489q35-35 66.5-68.5T590 352V158z"/><glyph unicode="›" horiz-adv-x="802" d="m239 158 350 331q-88 84-175 165T239 819V625q35-35 66.5-68t66.5-68q-35-35-66.5-68.5T239 352V158z"/><glyph horiz-adv-x="391"/><glyph unicode="◼" horiz-adv-x="768" d="M0 0v768h768V0H0z"/></font>
</defs>
</svg>
