<svg xmlns="http://www.w3.org/2000/svg"><defs><font id="poppinsregular" horiz-adv-x="1384"><font-face units-per-em="2048" ascent="1638" descent="-410"/><glyph horiz-adv-x="0"/><glyph horiz-adv-x="682"/><glyph horiz-adv-x="0"/><glyph horiz-adv-x="0"/><glyph horiz-adv-x="546"/><glyph horiz-adv-x="546"/><glyph horiz-adv-x="546"/><glyph horiz-adv-x="546"/><glyph unicode="!" horiz-adv-x="610" d="M180 115q0 53 37 90t90 37q51 0 87-37t36-90-36-90-87-37q-53 0-90 36.5T180 115zm19 1312h200L377 403H221z"/><glyph unicode="&quot;" horiz-adv-x="598" d="M72 1630h176l-23-407H96zm276 0h176l-22-407H373z"/><glyph unicode="#" horiz-adv-x="1720" d="M68 410v163h356l78 369H184v164h353l88 410h178l-88-410h430l88 410h178l-88-410h285V942h-320l-78-369h283V410h-317L1087 0H909l88 410H567L479 0H301l88 410H68zm534 163h430l78 369H680z"/><glyph unicode="$" horiz-adv-x="1273" d="M123 1049q0 166 115.5 274.5T547 1444v170h110v-170q174-14 280.5-111.5T1061 1079H862q-10 72-63.5 130.5T657 1286V786q135-35 220.5-70.5T1021 602t58-211q0-98-49-187T886 55.5 657-12v-166H547v166Q361 4 244 107.5T125 371h199q8-86 64-149.5T547 141v512q-137 35-221 72T182.5 840 123 1049zm190 10q0-101 59.5-154T547 817v473q-106-10-170-68.5T313 1059zm344-920q111 13 173.5 80.5T893 381q0 100-61.5 154.5T657 623V139z"/><glyph unicode="%" horiz-adv-x="1554" d="M86 1147q0 139 84 222t215 83 215-83 84-222q0-141-84-224t-215-83-215 83-84 224zm150 0q0-94 39.5-143.5T385 954t111 50.5 41 142.5q0 94-41 142t-111 48-109.5-48-39.5-142zM268 0l830 1430h184L453 0H268zm602 283q0 141 84 224t215 83 214-83 83-224q0-139-83-223.5T1169-25 954 58t-84 225zm146 0q0-92 41-140.5T1167 94q70 0 111 48t41 141q0 94-41 142t-111 48q-69 0-110-48t-41-142z"/><glyph unicode="&amp;" horiz-adv-x="1513" d="M76 410q0 150 85 263t251 179q-66 78-94.5 143.5T289 1139q0 90 46 162.5T467 1415t199 41q111 0 192.5-43T981 1293.5t37-171.5H831q2 84-47 132.5T657 1303q-82 0-132-46.5T475 1139q0-61 34-118.5T623 879l426-428 36 57 140 233h200l-168-290q-35-61-81-129L1497 0h-244l-186 188Q963 79 844 27T575-25q-147 0-260.5 53.5t-176 152T76 410zm186 6q0-121 87-201t226-80q111 0 200 43t169 133L524 733Q262 633 262 416z"/><glyph unicode="'" horiz-adv-x="325" d="M72 1630h180l-25-407H98z"/><glyph unicode="(" horiz-adv-x="929" d="M221 750q0 352 116 658t331 505h194v-19q-229-215-345-517T401 750q0-317 110-606t320-506v-19H637Q440-188 330.5 109T221 750z"/><glyph unicode=")" horiz-adv-x="929" d="M68 1894v19h194q215-199 331-505t116-658q0-344-110-641T293-381H98v19q211 217 320.5 505.5T528 750q0 326-115.5 627.5T68 1894z"/><glyph unicode="*" horiz-adv-x="995" d="m125 1004 285 118-285 115 76 137 254-182-33 311h156l-35-311 250 180 73-133-284-119 286-116-77-138-248 181 32-310H422l31 310-248-183z"/><glyph unicode="+" horiz-adv-x="1398" d="M178 670v157h434v445h174V827h437V670H786V227H612v443H178z"/><glyph unicode="," horiz-adv-x="405" d="m-4-293 149 551h205L121-293H-4z"/><glyph unicode="-" horiz-adv-x="1128" d="M119 672v157h817V672H119z"/><glyph unicode="." horiz-adv-x="430" d="M90 115q0 53 37 90t90 37q51 0 87-37t36-90-36-90-87-37q-53 0-90 36.5T90 115z"/><glyph unicode="/" horiz-adv-x="974" d="m109-348 559 2277h186L293-348H109z"/><glyph unicode="0" horiz-adv-x="1286" d="M127 756q0 352 114.5 549.5T643 1503q285 0 399.5-197.5T1157 756q0-358-114.5-557T643 0Q356 0 241.5 198.5T127 756zm184 0q0-184 23.5-309T431 246t212-76q137 0 210 76t96.5 200.5T973 756q0 178-23.5 302T853 1257.5 643 1333q-139 0-212-75.5T334.5 1058 311 756z"/><glyph unicode="1" horiz-adv-x="655" d="M78 1311v170h385V0H274v1311H78z"/><glyph unicode="2" horiz-adv-x="1177" d="M104 16v134q261 208 408 342.5t248.5 281T862 1061q0 133-64.5 210T590 1348q-139 0-216-87t-83-233H111q8 229 139 354t338 125q211 0 335-116.5t124-321.5q0-170-101.5-330.5T715 456 385 172h705V16H104z"/><glyph unicode="3" horiz-adv-x="1206" d="M100 426h181q14-123 100-201t229-78 218 75 75 194q0 154-102.5 221.5T492 705h-48v155h50q188 2 284 62.5t96 187.5q0 109-70.5 174.5T602 1350q-127 0-205-65.5T305 1108H123q14 188 145 294.5T608 1509q139 0 240.5-50t154-136 52.5-195q0-127-73-219T793 791v-11q133-33 210.5-129t77.5-252q0-117-53-210T868.5 43 612-10q-217 0-356 113.5T100 426z"/><glyph unicode="4" horiz-adv-x="1288" d="M82 330v141l719 995h223V492h205V330h-205V0H840v330H82zm215 162h551v780z"/><glyph unicode="5" horiz-adv-x="1286" d="M150 401h182q27-117 112.5-182T662 154q162 0 243.5 97T987 508t-82 247-241 87q-109 0-190-52.5T356 647H180v836h891v-164H352V852q47 66 139.5 107.5T690 1001q170 0 276.5-70.5t152.5-182 46-236.5q0-147-55-264T941 63.5 659-4Q444-4 311 106.5T150 401z"/><glyph unicode="6" horiz-adv-x="1300" d="M150 760q0 752 524 751 201 0 315.5-108.5T1124 1128H952q-44 228-280 228-182 0-272.5-140.5T311 754q47 106 157 166.5T713 981q211 0 337-131t126-363q0-139-54.5-249.5t-164-176T692-4Q481-4 362.5 90T197 350t-47 410zm184-258q0-156 90-253t258-97q143 0 228 89t85 240q0 160-82 251t-239 91q-88 0-166-35.5T382 679t-48-177z"/><glyph unicode="7" horiz-adv-x="1118" d="M68 1317v160h970v-142L469 0H281l577 1317H68z"/><glyph unicode="8" horiz-adv-x="1292" d="M123 399q0 137 73.5 235.5T397 770q-114 45-175.5 131T160 1110q0 111 55 200t164.5 141 265.5 52 265.5-52 166-141 56.5-200q0-119-63.5-208T895 770q127-39 201.5-136t74.5-235q0-133-65.5-232t-185-153.5T645-41 371.5 13.5 188.5 167 123 399zm178 7q0-131 93-211t251-80 250 79.5T987 406q0 137-94 209.5T645 688q-151 0-247.5-70.5T301 406zm39 679q0-115 85-184.5T645 831q137 0 222 71t85 185q0 125-82 193t-225 68q-141 0-223-68t-82-195z"/><glyph unicode="9" horiz-adv-x="1290" d="M150 1022q0 219 126.5 353T637 1509q287 0 402.5-186T1155 768q0-258-46-426T953.5 86 653-2Q444-2 327.5 110.5T195 397h172q20-116 95-179.5T664 154q170 0 250.5 133T991 735q-43-92-143-144t-223-52q-137 0-245 56T211 759.5 150 1022zm178 4q0-150 84-240t243-90q138 0 226 85t88 231q0 154-86 248t-242 94q-143 0-228-90t-85-238z"/><glyph unicode=":" horiz-adv-x="436" d="M90 115q0 53 37 90t90 37q51 0 87-37t36-90-36-90-87-37q-53 0-90 36.5T90 115zm0 877q0 53 37 90t90 37q51 0 87-37t36-90-36-90-87-37q-53 0-90 36.5T90 992z"/><glyph unicode=";" horiz-adv-x="540" d="m47-293 149 551h205L172-293H47zm92 1287q0 53 37 90t90 37q51 0 87-37t36-90-36-90-87-37q-53 0-90 36.5T139 994z"/><glyph unicode="&lt;" horiz-adv-x="1136" d="m172 750 494 469h235L406 750l495-471H666z"/><glyph unicode="=" horiz-adv-x="1480" d="M207 451v157h1065V451H207zm0 440v158h1065V891H207z"/><glyph unicode="&gt;" horiz-adv-x="1103" d="m193 279 495 471-495 469h235l496-469-496-471H193z"/><glyph unicode="?" horiz-adv-x="1073" d="M76 1034q0 123 55 216t156.5 144.5T522 1446q203 0 328-114.5T975 1024q0-215-133-318.5T481 602l-6-194H313l-8 323h60q203 0 317.5 61.5T797 1024q0 123-74 194.5T524 1290q-127 0-199.5-68.5T252 1034H76zm190-919q0 53 37 90t90 37q51 0 87-37t36-90-36-90-87-37q-53 0-90 36.5T266 115z"/><glyph unicode="@" horiz-adv-x="2074" d="M147 272q0 289 133.5 527.5t370 376T1182 1313q227 0 395-86t258-241 90-357q0-162-53-310.5T1717.5 78 1481-14q-102 0-157.5 51T1260 176q-63-88-161-139T893-14q-156 0-245 95t-89 257q0 154 64.5 287T803 839t260 81q195 0 262-148l23 127h161l-102-592q-6-39-6-71 0-123 108-123 82 0 142.5 77.5T1743 386t31 232q0 268-161 416t-454 148q-244 0-439.5-118t-306-322.5T303 289q-2-270 162-416.5T920-274q193 0 340 69l24-127q-182-76-401-76t-386 83T238.5-87 147 272zm586 95q0-109 55.5-172.5T948 131q92 0 170 54.5T1241 333t45 204q0 106-58.5 172.5T1063 776q-98 0-173-58.5T774 564t-41-197z"/><glyph unicode="A" horiz-adv-x="1380" d="m68 0 516 1419h215L1313 0h-197l-115 317H379L264 0H68zm364 469h516l-258 721z"/><glyph unicode="B" horiz-adv-x="1255" d="M158 0v1427h512q145 0 247.5-48t153.5-130 51-184q0-127-68.5-210T872 735q78-12 142.5-63T1117 545t38-162q0-109-55.5-196T939 50 690 0H158zm186 154h330q139 0 217 65.5T969 401q0 119-82 187.5T668 657H344V154zm0 657h313q131 0 203 61.5t72 169.5q0 109-72 170.5T653 1274H344V811z"/><glyph unicode="C" horiz-adv-x="1581" d="M88 715q0 209 94 375.5t257 261 362 94.5q233 0 407-112.5t254-319.5h-223q-59 129-171 198.5T801 1282q-150 0-268.5-69.5t-186-197.5T279 715q0-170 67.5-298t186-197.5T801 150q156 0 267.5 68.5T1239 416h223q-80-205-254-316.5T801-12q-199 0-362 93T182 340 88 715z"/><glyph unicode="D" horiz-adv-x="1447" d="M158 0v1427h444q234 0 405-87t262-248.5 91-380.5-91-380-262-246T602 0H158zm186 154h258q277 0 422 146t145 411q0 266-146 415.5T602 1276H344V154z"/><glyph unicode="E" horiz-adv-x="1050" d="M158 0v1430h768v-154H344V799h520V645H344V154h582V0H158z"/><glyph unicode="F" horiz-adv-x="1032" d="M158 0v1427h807v-151H344V795h504V643H344V0H158z"/><glyph unicode="G" horiz-adv-x="1593" d="M88 715q0 209 95.5 375.5t259 260T805 1444q227 0 402-112.5t255-317.5h-223q-59 125-172 193.5T805 1276q-150 0-269.5-68.5t-188-196.5T279 715t68.5-295 188-195.5T805 156q209 0 344 125t158 337H737v152h768V627q-16-176-110.5-322.5T1146.5 73 805-12q-199 0-362.5 93t-259 259T88 715z"/><glyph unicode="H" horiz-adv-x="1417" d="M158 0v1427h186V801h727v626h186V0h-186v647H344V0H158z"/><glyph unicode="I" horiz-adv-x="503" d="M158 0v1427h186V0H158z"/><glyph unicode="J" horiz-adv-x="1085" d="M84 387h186q2-104 54.5-169.5T481 152t155.5 62T688 373v1054h189V373q0-176-109-281.5T481-14Q301-14 192.5 93.5T84 387z"/><glyph unicode="K" horiz-adv-x="1226" d="M158 0v1427h186V766l590 661h235L522 713 1176 0H932L344 651V0H158z"/><glyph unicode="L" horiz-adv-x="884" d="M158 0v1427h186V152h500V0H158z"/><glyph unicode="M" horiz-adv-x="1763" d="M158 0v1417h200L883 246l524 1171h199V0h-187v1057L948 0H817L344 1059V0H158z"/><glyph unicode="N" horiz-adv-x="1439" d="M158 0v1430h186l750-1135v1135h186V0h-186L344 1137V0H158z"/><glyph unicode="O" horiz-adv-x="1609" d="M88 715q0 209 95.5 375.5t259 260T805 1444q201 0 364.5-93.5t258-259T1522 715t-94.5-377-258-259T805-14q-199 0-362.5 93t-259 260T88 715zm191 0q0-170 68.5-299t188-199T805 147q149 0 269 70t188.5 199 68.5 299q0 172-68.5 300T1075 1212.5 805 1282q-152 0-270.5-69.5t-187-197.5T279 715z"/><glyph unicode="P" horiz-adv-x="1185" d="M158 0v1427h460q242 0 368-116.5t126-300.5q0-179-122-296.5T618 596H344V0H158zm186 750h274q156 0 230 67.5t74 192.5q0 264-304 264H344V750z"/><glyph unicode="Q" horiz-adv-x="1613" d="M88 715q0 209 95.5 375.5t259 260T805 1444q201 0 364.5-93.5t258-259T1522 715q0-205-90.5-369T1184 88l360-358h-241L1018 14Q917-14 812-14h-7q-199 0-362.5 93t-259 260T88 715zm191 0q0-170 68.5-299t188-199T805 147t269.5 70 188 199 68.5 299q0 172-68.5 300T1075 1212.5 805 1282q-152 0-270.5-69.5t-187-197.5T279 715z"/><glyph unicode="R" horiz-adv-x="1245" d="M158 0v1427h460q162 0 274-55t167-149.5 55-214.5q0-147-85-260T774 598L1133 0H909L569 584H344V0H158zm186 733h274q152 0 228 75t76 200q0 127-75 196.5T618 1274H344V733z"/><glyph unicode="S" horiz-adv-x="1202" d="M117 381h198q10-100 83-169t212-69q133 0 210 66.5T897 381q0 82-45 133t-112.5 77.5T557 649q-141 37-226 74T185.5 839 125 1051q0 117 59.5 207t167 139 246.5 49q201 0 329-100.5t144-266.5H866q-10 82-85.5 144.5T580 1286q-117 0-191-60.5T315 1057q0-78 44-127t108.5-75T649 797q141-39 227.5-77T1024 603t61-214q0-104-55-196.5T866.5 43 610-14q-141 0-252.5 50t-175 139T117 381z"/><glyph unicode="T" horiz-adv-x="1107" d="M70 1276v151h966v-151H647V0H461v1276H70z"/><glyph unicode="U" horiz-adv-x="1382" d="M154 526v901h186V524q0-190 93-282t259-92q164 0 257 92t93 282v903h187V526q0-178-72-300T963.5 45 690-14 416.5 45t-192 181T154 526z"/><glyph unicode="V" d="M45 1427h199L692 197l449 1230h196L799 0H584z"/><glyph unicode="W" horiz-adv-x="1998" d="M47 1427h199L557 217l344 1210h209l328-1206 313 1206h201L1538 0h-209L997 1149 653 0 446-2z"/><glyph unicode="X" horiz-adv-x="1271" d="M92 1427h209l344-559 328 559h209L741 713 1180 0H969L627 557 301 0H94l436 713z"/><glyph unicode="Y" horiz-adv-x="1196" d="M39 1427h207l352-722 352 722h207L692 539V0H506v539z"/><glyph unicode="Z" horiz-adv-x="1107" d="M94 0v147l692 1119H102v161h906v-147L315 162h697V0H94z"/><glyph unicode="[" horiz-adv-x="866" d="M272-381v2294h369v-154H446V-225h195v-156H272z"/><glyph unicode="\" horiz-adv-x="1347" d="M268 1929h185l641-2277H909z"/><glyph unicode="]" horiz-adv-x="866" d="M225-225h195v1984H225v154h369V-381H225v156z"/><glyph unicode="^" horiz-adv-x="1288" d="m76 346 481 1073h174l483-1073h-194l-373 844-379-844H76z"/><glyph unicode="_" horiz-adv-x="1501" d="M215-78h1090v-172H215v172z"/><glyph unicode="`" horiz-adv-x="526" d="M35 1440v162l436-256v-140z"/><glyph unicode="a" d="M88 565q0 172 69.5 302T349 1069t272 72q147 0 255.5-63.5T1038 918v204h189V0h-189v209q-55-98-164.5-162.5T618-18q-150 0-270.5 73.5T157.5 262 88 565zm191 0q0-129 51-224t137-145.5T657 145t191.5 50.5T987 341t51 222-51 221.5T849 929t-192 50q-104 0-190-49T330 786.5 279 565z"/><glyph unicode="b" d="M158 0v1516h186V913q57 101 168 164.5t252 63.5q152 0 272.5-72t190-202 69.5-302q0-170-69.5-303T1035 55.5 764-18q-145 0-255 63.5T344 207V0H158zm186 563q0-127 52.5-222T536 195.5 725 145q104 0 191.5 50.5T1055 341t51 224q0 127-51 221.5T916.5 930 725 979q-102 0-189-50T396.5 783.5 344 563z"/><glyph unicode="c" horiz-adv-x="1243" d="M88 563q0 174 69.5 304T351 1069t284 72q207 0 341-100.5T1153 762H952q-29 102-111.5 161.5T635 983q-160 0-258-109.5T279 563q0-203 98-313.5T635 139q123 0 205 57.5T952 360h201q-45-172-180-275T635-18q-160 0-284 71.5T157.5 256 88 563z"/><glyph unicode="d" d="M88 565q0 172 69.5 302T349 1069t274 72q131 0 243.5-60.5T1038 922v594h189V0h-189v211Q983 111 874.5 46.5T621-18q-150 0-272 73.5T157.5 262 88 565zm191 0q0-129 51-224t137-145.5T657 145t191.5 50.5T987 341t51 222-51 221.5T849 929t-192 50q-104 0-190-49T330 786.5 279 565z"/><glyph unicode="e" horiz-adv-x="1269" d="M88 563q0 174 69.5 305T353 1070t290 71q160 0 283-70t189.5-191.5T1182 604q0-53-6-112H279q10-166 113.5-259.5T643 139q121 0 202 56.5T958 346h201q-45-162-180-263T643-18q-160 0-286 71.5T159.5 257 88 563zm193 80h708q0 107-47 183.5T814 943t-179 40q-141 0-240.5-90T281 643z"/><glyph unicode="f" horiz-adv-x="673" d="M47 969v153h146v80q0 188 97 275.5t312 87.5v-156q-123 0-173-48t-50-159v-80h235V969H379V0H193v969H47z"/><glyph unicode="g" d="M88 565q0 172 69.5 302T349 1069t272 72q145 0 254.5-63.5T1038 918v204h189V-25q0-154-65.5-273.5T974-485.5 690-553q-221 0-368.5 104.5T147-164h185q31-102 127-164.5T690-391q154 0 251 96t97 270v236q-55-98-163.5-163.5T621-18q-150 0-272 73.5T157.5 262 88 565zm191 0q0-129 51-224t137-145.5T657 145t191.5 50.5T987 341t51 222-51 221.5T849 929t-192 50q-104 0-190-49T330 786.5 279 565z"/><glyph unicode="h" horiz-adv-x="1310" d="M158 0v1516h186V963q55 86 152.5 133t218.5 47q127 0 229.5-54.5t160.5-163 58-263.5V0H979v635q0 168-84 257t-229 89q-147 0-234.5-92T344 621V0H158z"/><glyph unicode="i" horiz-adv-x="503" d="M127 1432q0 53 37 90t90 37q51 0 87-37t36-90-36-90-87-37q-53 0-90 36.5t-37 90.5zM158 0v1122h186V0H158z"/><glyph unicode="j" horiz-adv-x="507" d="M-55-375h78q78 0 109.5 31T164-240v1362h186V-244q0-150-75.5-219T53-532H-55v157zm188 1807q0 53 36 90t89 37 89-37 36-90-36-90-89-37-89 36.5-36 90.5z"/><glyph unicode="k" horiz-adv-x="1054" d="M158 0v1516h186V625l432 497h260L508 563 1038 0H784L344 496V0H158z"/><glyph unicode="l" horiz-adv-x="503" d="M158 0v1516h186V0H158z"/><glyph unicode="m" horiz-adv-x="2109" d="M158 0v1122h186V961q55 88 148.5 135t205.5 47q141 0 250-63.5T1110 893q47 119 155.5 184.5T1507 1143q131 0 233.5-54.5t162-163T1962 662V0h-184v635q0 168-83 257t-225 89q-145 0-231-93t-86-270V0H969v635q0 168-83 257t-224 89q-145 0-231.5-93T344 618V0H158z"/><glyph unicode="n" horiz-adv-x="1310" d="M158 0v1122h186V963q55 86 150.5 133t210.5 47q204 0 331-124t127-357V0H979v635q0 168-84 257t-229 89q-147 0-234.5-92T344 621V0H158z"/><glyph unicode="o" horiz-adv-x="1310" d="M88 563q0 172 75 304t204 203 288 71q160 0 289-71t204-202 75-305-77-306T938 53.5 647-18q-158 0-286 71.5T160.5 257 88 563zm191 0q0-137 50-231t134-140.5T647 145q101 0 189 47.5T978 334t54 229-53 229.5T840 933t-187 46q-102 0-187-46T330 792.5 279 563z"/><glyph unicode="p" d="M158-532v1654h186V915q55 97 164.5 161.5T764 1141q150 0 271.5-72t191-202 69.5-302q0-170-69.5-303T1035 55.5 764-18q-143 0-253 64.5T344 207v-739H158zM344 563q0-127 52.5-222T536 195.5 725 145q104 0 191.5 50.5T1055 341t51 224q0 127-51 221.5T916.5 930 725 979q-102 0-189-50T396.5 783.5 344 563z"/><glyph unicode="q" d="M88 565q0 172 69.5 302T349 1069t274 72q145 0 254.5-64.5T1038 918v204h189V-532h-189v739q-53-94-163.5-159.5T616-18q-147 0-268 73.5T157.5 262 88 565zm191 0q0-129 51-224t137-145.5T657 145t191.5 50.5T987 341t51 222-51 221.5T849 929t-192 50q-104 0-190-49T330 786.5 279 565z"/><glyph unicode="r" horiz-adv-x="763" d="M158 0v1122h186V940q49 96 140 149.5t223 53.5V950h-50q-313 0-313-340V0H158z"/><glyph unicode="s" horiz-adv-x="1069" d="M96 330h193q8-84 78.5-137.5T553 139q106 0 167.5 47T782 305q0 74-65.5 110T514 485q-125 33-204 67T175 652.5 119 827q0 86 51 158t145.5 114 214.5 42q186 0 301-94.5T954 788H768q-6 88-70.5 141.5T524 983q-100 0-159.5-43T305 827q0-55 36-91t90-57.5T582 631q121-33 196.5-64.5t130-95T965 305q0-92-51.5-165.5T769 24 555-18q-129 0-231.5 44t-162 122.5T96 330z"/><glyph unicode="t" horiz-adv-x="745" d="M53 969v153h146v283h186v-283h293V969H385V307q0-82 35-115.5T541 158h137V0H510Q354 0 276.5 71.5T199 307v662H53z"/><glyph unicode="u" horiz-adv-x="1310" d="M147 465v657h185V489q0-166 84-255t229-89q150 0 236 92.5T967 506v616h186V0H967v166Q914 80 818.5 32T608-16q-131 0-235.5 54t-165 162.5T147 465z"/><glyph unicode="v" horiz-adv-x="1148" d="M25 1122h200l350-950 349 950h198L682 0H465z"/><glyph unicode="w" horiz-adv-x="1679" d="M25 1122h190l258-942 279 942h190l272-944 254 944h185L1303 0h-193L840 891 569 0H377z"/><glyph unicode="x" horiz-adv-x="980" d="m27 0 362 557-362 565h211l266-415 254 415h194L592 567 954 0H743L477 418 221 0H27z"/><glyph unicode="y" horiz-adv-x="1153" d="M25 1122h206l353-909 348 909h192L449-528H256L477 12z"/><glyph unicode="z" horiz-adv-x="931" d="M84 0v154l545 817H88v151h756V971L297 154h551V0H84z"/><glyph unicode="{" horiz-adv-x="946" d="M215 692v146q209 39 209 215 0 78-21 266-20 201-20 291 0 147 83 225t222 78h119v-162h-84q-80 0-119-36t-39-118q0-59 8.5-146t10.5-118q20-197 20-286 0-109-54-181.5T383 768v-4q113-25 167-98.5T604 483q0-90-20-286-2-31-10.5-118T565-68q0-82 39-117.5T723-221h84v-162H688q-139 0-222 78T383-80q0 90 20 291 20 188 21 266 0 176-209 215z"/><glyph unicode="|" horiz-adv-x="595" d="M205-217v1845h186V-217H205z"/><glyph unicode="}" horiz-adv-x="946" d="M139-221h84q80 0 119 35.5T381-68q0 59-8 146.5T362 197q-20 197-20 286 0 109 54.5 182.5T563 764v4q-113 25-167 97.5T342 1047q0 90 20 286 2 31 10.5 118t8.5 146q0 82-39 118t-119 36h-84v162h119q139 0 222-78t83-225q0-90-20-291-20-188-21-266 0-176 209-215V692q-209-39-209-215 0-78 21-266 20-201 20-291 0-147-83-225t-222-78H139v162z"/><glyph unicode="~" horiz-adv-x="1062" d="M76 508q53 299 289 299 55 0 99-19.5t99-56.5q49-31 81-45t67-14q53 0 91 35.5t46 97.5h139q-51-299-291-299-53 0-94 18.5T502 580q-49 31-80 46t-70 15q-53 0-92-36t-47-97H76z"/><glyph unicode="¢" horiz-adv-x="1361" d="M133 537q0 219 123 363t344 163v188h111v-188q178-14 293.5-114.5T1139 698H965q-25 98-103 155.5T659 911q-156 0-253-99t-97-275 97.5-274.5T659 164q125 0 204 56t102 157h174q-18-152-134-252T711 10v-192H600V10Q379 28 256 172.5T133 537z"/><glyph unicode="£" horiz-adv-x="1269" d="M90 631v131h186q-27 72-41 136.5T221 1040q0 131 56.5 228.5t158 151T668 1473q209 0 321.5-121t120.5-305H938q-4 121-72.5 194.5T668 1315q-119 0-194-69.5T399 1032q0-68 14.5-128T457 762h397V631H498q18-74 18-127 0-195-145-352h745V-4H203l-33 106q86 96 128 184.5T340 504q0 53-18 127H90z"/><glyph unicode="¥" horiz-adv-x="1218" d="M51 1427h209l350-720 351 720h208L834 784h280V649l-354-4-55-106v-80h409V322H705V0H518v322H109v137h409v80l-57 106-352 4v135h280z"/><glyph unicode="¨" horiz-adv-x="643" d="M47 1380q0 45 32 77t77 32q43 0 74.5-32t31.5-77-31.5-75.5T156 1274q-45 0-77 30.5T47 1380zm334 0q0 45 30.5 77t75.5 32 77-32 32-77-32-75.5-77-30.5-75.5 30.5T381 1380z"/><glyph unicode="©" horiz-adv-x="1622" d="M100 715q0 211 90.5 375.5t252 258T813 1442q207 0 368.5-93.5t251-258T1522 715t-89.5-376-251-258T813-12q-209 0-370.5 93t-252 258T100 715zm88 0q0-190 76-337t217.5-228.5T813 68q188 0 328.5 81.5t216.5 228 76 337.5q0 193-76 338t-216.5 226-328.5 81q-190 0-331.5-81T264 1052.5 188 715zm177 2q0-143 59-251t160.5-166T809 242q154 0 266.5 83T1229 547h-172q-61-170-248-170-123 0-201 88t-78 250q0 164 78 252t201 88q90 0 155.5-44t92.5-126h172q-39 145-151.5 225T809 1190q-123 0-224.5-57.5T424 967.5 365 717z"/><glyph unicode="«" horiz-adv-x="944" d="m92 604 197 359h182L268 604l203-358H289zm371 0 194 359h185L639 604l203-358H657z"/><glyph unicode="­" horiz-adv-x="1128" d="M119 672v157h817V672H119z"/><glyph unicode="®" horiz-adv-x="1042" d="M106 1028q0 119 53.5 214T307 1391.5t215 54.5q119 0 213-54.5T882.5 1242t53.5-214-53.5-215T735 662.5 522 608q-121 0-215 54.5T159.5 813 106 1028zm89 0q0-150 89-244t238-94q148 0 239 94.5t91 243.5q0 150-91 244t-239 94q-150 0-238.5-94T195 1028zm161-217v440h197q70 0 112-36.5t42-100.5q0-49-26-83t-71-48l115-170-129-2-98 164h-35V811H356zm107 252h84q23 0 38 12t15 35-15.5 34-37.5 11h-84v-92z"/><glyph unicode="´" horiz-adv-x="505" d="M35 1206v140l436 256v-162z"/><glyph unicode="¸" horiz-adv-x="557" d="M35-412h198q68 0 100 20.5t32 69.5q0 47-32 68t-100 21H131V14h125v-133q121 2 192.5-51T520-322q0-96-69.5-153T270-532H35v120z"/><glyph unicode="»" horiz-adv-x="944" d="m102 246 203 358-203 359h183l196-359-196-358H102zm371 0 201 358-201 359h182l197-359-197-358H473z"/><glyph unicode="ˆ" horiz-adv-x="636" d="M35 1223v147l284 170 283-170v-147l-283 174z"/><glyph unicode="˚" horiz-adv-x="497" d="M31 1458q0 96 63.5 155.5T250 1673q94 0 156.5-58.5T469 1458t-62.5-156.5T250 1243q-92 0-155.5 59.5T31 1458zm108 2q0-51 32-84t79-33 78.5 33 31.5 84-31.5 83-78.5 32-79-32-32-83z"/><glyph unicode="˜" horiz-adv-x="706" d="M35 1243q14 105 68.5 160t136.5 55q39 0 66.5-13t66.5-38q29-20 51-31.5t49-11.5q35 0 59.5 22.5T563 1452h107q-12-102-67.5-157.5T465 1239q-39 0-68.5 13.5T330 1292q-33 20-52.5 30.5T231 1333q-35 0-58-22.5t-30-67.5H35z"/><glyph horiz-adv-x="964"/><glyph horiz-adv-x="1929"/><glyph horiz-adv-x="964"/><glyph horiz-adv-x="1929"/><glyph horiz-adv-x="643"/><glyph horiz-adv-x="482"/><glyph horiz-adv-x="321"/><glyph horiz-adv-x="321"/><glyph horiz-adv-x="241"/><glyph horiz-adv-x="385"/><glyph horiz-adv-x="107"/><glyph unicode="‐" horiz-adv-x="1128" d="M119 672v157h817V672H119z"/><glyph unicode="‑" horiz-adv-x="1128" d="M119 672v157h817V672H119z"/><glyph unicode="‒" horiz-adv-x="1128" d="M119 672v157h817V672H119z"/><glyph unicode="–" horiz-adv-x="1386" d="M156 672v157h1077V672H156z"/><glyph unicode="—" horiz-adv-x="1812" d="M156 672v157h1501V672H156z"/><glyph unicode="‘" horiz-adv-x="448" d="m49 963 197 464h133L258 963H49z"/><glyph unicode="’" horiz-adv-x="448" d="m66 963 120 464h207L197 963H66z"/><glyph unicode="‚" horiz-adv-x="380" d="m-4-229 123 465h207L129-229H-4z"/><glyph unicode="“" horiz-adv-x="778" d="m49 963 197 464h133L258 963H49zm332 0 197 464h133L590 963H381z"/><glyph unicode="”" horiz-adv-x="778" d="m66 963 120 464h207L197 963H66zm329 0 123 464h207L528 963H395z"/><glyph unicode="„" horiz-adv-x="716" d="m-4-229 121 465h209L129-229H-4zm336 0 123 465h207L465-229H332z"/><glyph unicode="…" horiz-adv-x="1189" d="M90 115q0 53 37 90t90 37q51 0 87-37t36-90-36-90-87-37q-53 0-90 36.5T90 115zm383 0q0 53 37 90t90 37q51 0 87-37t36-90-36-90-87-37q-53 0-90 36.5T473 115zm385 0q0 53 37 90t90 37q51 0 87-37t36-90-36-90-87-37q-53 0-90 36.5T858 115z"/><glyph horiz-adv-x="385"/><glyph unicode="‹" horiz-adv-x="573" d="m92 604 197 359h182L268 604l203-358H289z"/><glyph unicode="›" horiz-adv-x="573" d="m102 246 203 358-203 359h183l196-359-196-358H102z"/><glyph horiz-adv-x="482"/><glyph unicode="€" horiz-adv-x="1660" d="M51 477v131h170q-6 53-6 107 0 51 6 100H51v129h197q45 150 144.5 263.5t237.5 176 300 62.5q231 0 405-112.5t252-319.5h-221q-59 127-170 194.5T930 1276q-172 0-300-88T446 944h484V815H414q-6-49-6-100 0-59 8-107h514V477H449q59-152 187-236.5T930 156q153 0 265 67.5T1366 416h221q-78-205-252-316.5T930-12q-242 0-426.5 133T250 477H51z"/><glyph unicode="™" horiz-adv-x="1599" d="M51 1327v115h496v-115H373V721H225l2 606H51zm611-606v721h190l223-547 230 547h180V721h-137l-2 522-224-522h-104l-221 530V721H662z"/><glyph unicode="◼" horiz-adv-x="1126" d="M0 0v1126h1126V0H0z"/></font>
</defs>
</svg>
