<svg width="69" height="44" fill="none" xmlns="http://www.w3.org/2000/svg"><g clip-path="url(#a)"><path d="M34.55.038h29.484c2.627 0 4.277 1.098 4.762 3.166a9.72 9.72 0 0 1 .197 2.136v33.388c0 3.787-1.439 5.302-5.247 5.302H5.232c-3.717 0-5.209-1.515-5.216-5.196V5.317c0-3.75 1.514-5.249 5.3-5.256C15.046-.008 24.797.038 34.55.038Zm0 1.378H5.535c-3.104 0-4.073.955-4.08 4.015v33.903c0 2.045.96 3.03 3.028 3.25.425.041.852.056 1.28.045H63.26c.632-.01 1.262-.068 1.886-.174a2.536 2.536 0 0 0 2.324-2.333c.088-.587.131-1.18.129-1.773V5.855a12.75 12.75 0 0 0-.174-2.151 2.462 2.462 0 0 0-2.098-2.151 10.756 10.756 0 0 0-2.052-.16l-28.726.023Z" fill="#000"/><path d="M25.418 20.247c0-.576-.046-1.151-.136-1.72h-7.966v3.265h4.581a3.938 3.938 0 0 1-1.696 2.583v2.12h2.733a8.331 8.331 0 0 0 2.484-6.248Z" fill="#517CBE"/><path d="M17.317 28.54a8.107 8.107 0 0 0 5.618-2.045l-2.733-2.12a5.133 5.133 0 0 1-7.655-2.69H9.745v2.19a8.49 8.49 0 0 0 7.572 4.665Z" fill="#32A853"/><path d="M12.546 21.686a5.077 5.077 0 0 1 0-3.25v-2.181H9.745a8.425 8.425 0 0 0 0 7.612l2.801-2.181Z" fill="#FBBC0C"/><path d="M17.317 14.937a4.54 4.54 0 0 1 3.248 1.272l2.415-2.416a8.108 8.108 0 0 0-5.663-2.212 8.478 8.478 0 0 0-7.572 4.674l2.802 2.196a5.068 5.068 0 0 1 4.77-3.514Z" fill="#E84436"/><path fill-rule="evenodd" clip-rule="evenodd" d="M50.343 32.373V30.45c.251.032.504.045.757.038a1.93 1.93 0 0 0 2.067-1.666s.205-.705.205-.758l-4.18-11.52h2.575l2.93 9.415h.045l2.923-9.415h2.506l-4.33 12.18c-.993 2.802-2.136 3.703-4.544 3.703-.197 0-.757 0-.961-.053h.007ZM32.49 12.24a4.972 4.972 0 0 1 4.898 3.18c.25.65.362 1.344.327 2.04a5.038 5.038 0 0 1-5.3 5.24h-3.408v5.424h-2.468V12.218l5.951.022Zm-3.483 8.385h2.825c2.142 0 3.369-1.159 3.369-3.158 0-2-1.227-3.151-3.354-3.151h-2.84v6.31Zm9.351 4.196c0-2.022 1.515-3.264 4.301-3.416l3.203-.159v-.924c0-1.287-.863-2.052-2.317-2.052-1.454 0-2.272.659-2.446 1.689h-2.271c.136-2.09 1.915-3.628 4.778-3.628 2.862 0 4.595 1.514 4.595 3.787v7.998H45.93v-1.909h-.068a4.143 4.143 0 0 1-3.65 2.106c-2.271 0-3.854-1.409-3.854-3.492Zm7.504-1.045v-.909l-2.847.174c-1.416.099-2.219.758-2.219 1.72s.833 1.666 2.113 1.666a2.77 2.77 0 0 0 2.953-2.65Z" fill="#010101"/></g><defs><clipPath id="a"><path fill="#fff" d="M0 0h69v44H0z"/></clipPath></defs></svg>