<svg width="70" height="69" viewBox="0 0 70 69" fill="none" xmlns="http://www.w3.org/2000/svg">
<path d="M5.95349 45.4756L7.38008 45.0121L5.95349 45.4756ZM2.45993 26.0713L3.90254 26.4822L2.45993 26.0713ZM17.0483 11.3294L16.1666 10.1159L17.0483 11.3294ZM2.81632 24.9744L4.22495 25.4899L2.81632 24.9744ZM15.4658 63.9055L14.6292 65.1505L15.4658 63.9055ZM14.5327 63.2276L13.6072 64.408L14.5327 63.2276ZM64.0465 45.4756L62.6199 45.0121L64.0465 45.4756ZM55.4673 63.2276L56.3928 64.408L55.4673 63.2276ZM54.5342 63.9055L55.3708 65.1505L54.5342 63.9055ZM52.9517 11.3294L53.8334 10.1159L52.9517 11.3294ZM67.1837 24.9744L65.7751 25.4899L67.1837 24.9744ZM67.5401 26.0713L66.0975 26.4822L67.5401 26.0713ZM35.5767 2.01057L35.5217 3.50957L35.5767 2.01057ZM34.4233 2.01057L34.4783 3.50957L34.4233 2.01057ZM33.5 58.0594C33.5 58.8878 34.1716 59.5594 35 59.5594C35.8284 59.5594 36.5 58.8878 36.5 58.0594H33.5ZM36.5 51.7675C36.5 50.9391 35.8284 50.2675 35 50.2675C34.1716 50.2675 33.5 50.9391 33.5 51.7675H36.5ZM47.5837 66.1969L47.7641 67.686L47.5837 66.1969ZM7.38008 45.0121C5.76773 40.0498 4.59722 36.4408 3.98069 33.4965C3.37138 30.5867 3.33691 28.468 3.90254 26.4822L1.01731 25.6604C0.269686 28.2851 0.379731 30.9373 1.04438 34.1114C1.70181 37.251 2.93471 41.0389 4.52691 45.9392L7.38008 45.0121ZM16.1666 10.1159C11.9982 13.1444 8.77425 15.4842 6.39695 17.6378C3.99357 19.815 2.34561 21.896 1.40768 24.4589L4.22495 25.4899C4.93456 23.5509 6.20777 21.8571 8.41108 19.8612C10.6405 17.8416 13.7088 15.6098 17.9299 12.543L16.1666 10.1159ZM3.90254 26.4822C3.99785 26.1476 4.10539 25.8166 4.22495 25.4899L1.40768 24.4589C1.26291 24.8545 1.1327 25.2552 1.01731 25.6604L3.90254 26.4822ZM4.52691 45.9392C6.11911 50.8395 7.34814 54.6286 8.66169 57.555C9.98966 60.5136 11.4596 62.724 13.6072 64.408L15.4583 62.0472C13.8335 60.7731 12.616 59.0388 11.3986 56.3266C10.1668 53.5822 8.99242 49.9744 7.38008 45.0121L4.52691 45.9392ZM16.3024 62.6604C16.0136 62.4664 15.7321 62.2619 15.4583 62.0472L13.6072 64.408C13.9386 64.6679 14.2796 64.9156 14.6292 65.1505L16.3024 62.6604ZM62.6199 45.0121C61.0076 49.9744 59.8332 53.5822 58.6014 56.3266C57.384 59.0388 56.1665 60.7731 54.5417 62.0472L56.3928 64.408C58.5404 62.724 60.0103 60.5136 61.3383 57.5551C62.6519 54.6286 63.8809 50.8395 65.4731 45.9392L62.6199 45.0121ZM54.5417 62.0472C54.2679 62.2619 53.9864 62.4664 53.6976 62.6604L55.3708 65.1505C55.7205 64.9156 56.0614 64.6679 56.3928 64.408L54.5417 62.0472ZM52.0701 12.543C56.2912 15.6098 59.3595 17.8416 61.5889 19.8612C63.7922 21.8571 65.0654 23.5509 65.7751 25.4899L68.5923 24.4589C67.6544 21.896 66.0064 19.815 63.603 17.6378C61.2257 15.4842 58.0018 13.1444 53.8334 10.1159L52.0701 12.543ZM65.4731 45.9392C67.0653 41.0389 68.2982 37.251 68.9556 34.1114C69.6203 30.9373 69.7303 28.2851 68.9827 25.6604L66.0975 26.4822C66.6631 28.468 66.6286 30.5867 66.0193 33.4965C65.4028 36.4408 64.2323 40.0498 62.6199 45.0121L65.4731 45.9392ZM65.7751 25.4899C65.8946 25.8166 66.0022 26.1476 66.0975 26.4822L68.9827 25.6604C68.8673 25.2553 68.7371 24.8545 68.5923 24.4589L65.7751 25.4899ZM53.8334 10.1159C49.665 7.08736 46.4435 4.74428 43.6607 3.14883C40.8473 1.53587 38.3589 0.611631 35.6316 0.511582L35.5217 3.50957C37.5851 3.58526 39.5894 4.27275 42.1685 5.75143C44.7782 7.24762 47.8489 9.47609 52.0701 12.543L53.8334 10.1159ZM17.9299 12.543C22.1511 9.47609 25.2218 7.24762 27.8315 5.75143C30.4106 4.27275 32.4149 3.58526 34.4783 3.50957L34.3684 0.511582C31.6411 0.611631 29.1527 1.53587 26.3393 3.14883C23.5565 4.74428 20.335 7.08736 16.1666 10.1159L17.9299 12.543ZM35.6316 0.511582C35.2107 0.496139 34.7893 0.496139 34.3684 0.511582L34.4783 3.50957C34.826 3.49681 35.174 3.49681 35.5217 3.50957L35.6316 0.511582ZM46.0837 51.7675V64.3512H49.0837V51.7675H46.0837ZM23.9163 64.3512V51.7675H20.9163V64.3512H23.9163ZM35 40.6838C41.1214 40.6838 46.0837 45.6461 46.0837 51.7675H49.0837C49.0837 43.9893 42.7782 37.6838 35 37.6838V40.6838ZM35 37.6838C27.2218 37.6838 20.9163 43.9893 20.9163 51.7675H23.9163C23.9163 45.6461 28.8786 40.6838 35 40.6838V37.6838ZM36.5 58.0594V51.7675H33.5V58.0594H36.5ZM35 68.0792C40.3854 68.0792 44.497 68.0817 47.7641 67.686L47.4033 64.7077C44.3583 65.0766 40.46 65.0792 35 65.0792V68.0792ZM47.7641 67.686C50.7839 67.3202 53.2099 66.6025 55.3708 65.1505L53.6976 62.6604C52.0619 63.7596 50.1423 64.376 47.4033 64.7077L47.7641 67.686ZM46.0837 64.3512V66.1969H49.0837V64.3512H46.0837ZM35 65.0792C29.54 65.0792 25.6417 65.0766 22.5967 64.7077L22.2359 67.686C25.503 68.0817 29.6146 68.0792 35 68.0792V65.0792ZM22.5967 64.7077C19.8577 64.376 17.9381 63.7596 16.3024 62.6604L14.6292 65.1505C16.7901 66.6025 19.2161 67.3202 22.2359 67.686L22.5967 64.7077ZM20.9163 64.3512V66.1969H23.9163V64.3512H20.9163Z" fill="#ED553B"/>
</svg>
